<svg xmlns="http://www.w3.org/2000/svg" viewBox="0 0 121.42 108.13"><defs><style>.cls-1{fill:#191818;}.cls-1,.cls-2{fill-rule:evenodd;}.cls-2{fill:#fff;}</style></defs><title>Ресурс 1</title><g id="Слой_2" data-name="Слой 2"><g id="Layer_1" data-name="Layer 1"><path class="cls-1" d="M104.41,18.07c-7.95,3.13-15.67,7-23.47,10.41-1.47.53-2.9,1.18-4.32,1.85-3,1.25-6,2.4-9.11,3.4-.64-10.86,0-22.93-1.79-32.44C61.51.43,56.84.62,52.29.62c-4.73,0-9.7-1-13.87-.45a3.19,3.19,0,0,0-.67.22c-4.59,1.8-9.2,6.25-12.3,9-.29,18.49.4,40.66.89,59.06,10.46.27,21.24.24,32,.22,2-1.45,3.23-4.82,4.92-5.82-.7,3.11,1.59,3.19,3.8,4.48C70,69,74.91,73.77,77.79,73.77c2,0,6.64-2.9,9.17-4.25,3.36-1.8,6.21-3.42,8.72-4.92,6.16-3.67,12.93-6,18.12-8.95,2.6-1.48,4.92-4,7.61-4.25q.06-13.82-.67-26.85C115.66,22,109.82,20.26,104.41,18.07Z"/><path class="cls-2" d="M64.82,2.41C63.92,4.89,60.18,6.15,59,8.89c-1,2.42-.12,5.5,0,8.28.66,15.09-.42,33.25.45,47,1.13-.79,3.15-2.74,3.58-4.7.53-2.43-.16-6.18,0-9.62.24-5.29.11-9.71.22-14.09,1.2-.14,2.27-.41,2.68-1.34-1.17-9.75-.48-20.14-1.34-30C65.15,6.24,65.25,2.83,64.82,2.41ZM60.56,58.56c-1.43-13.59-.62-29-.45-43.18C61.95,27.73,60.54,45,60.56,58.56ZM59.44,10A6.11,6.11,0,0,1,62.8,6C62.13,7.63,60.58,9.58,59.44,10Z"/><path class="cls-2" d="M27.45,10.24c-.5,18.48.32,37.5.67,56.38,3.49-.09,7-.62,10.29-.22.87.1,1.79.63,2.68.67,3.43.15,7-.86,10.74-.67a45.36,45.36,0,0,0,5.59.45c.32-18.52.13-38.46-.45-56.83C47.33,10.09,37,9.27,27.45,10.24ZM39.54,39.1c4.36.52,10.56-1.08,14.77,0a21.34,21.34,0,0,1,0,6.71c-4.89.5-9.53-.73-14.32.22C39.2,44.45,39.59,40.69,39.54,39.1Zm14.32-2.24c-2.28-.23-4.23.55-5.82-.22a18.24,18.24,0,0,1,0-6.26,16.18,16.18,0,0,1,6,.22C53.86,32.82,54.85,35.2,53.85,36.86Zm0-9.17c-4.47.23-9.55.05-14.09,0A24.59,24.59,0,0,1,40,20.75c3.86.28,9.68-.37,13.87.22A23.89,23.89,0,0,1,53.85,27.69ZM46.69,12.25a25.51,25.51,0,0,1,6.94,0c.47,1.77.11,4.36.22,6.49-2.22.34-5.81.48-6.94-.45C46.47,16.77,46.75,13.43,46.69,12.25Zm-16.78.22c4.37-.17,9.8-1.22,14.32-.22v6.49c-4,.9-9.24-.14-14.1.23A14.18,14.18,0,0,1,29.91,12.47Zm-.67-1.79a7.61,7.61,0,0,1-.67,3.58C28.06,13.49,27.55,10.52,29.24,10.68ZM28.12,21.2c1.37,6.84.66,15.75.9,23.71C27.56,38.3,27.83,28.83,28.12,21.2Zm1.57,44.07c-1.13-1.78-.95-5.81-.9-8.05C30.2,58.81,29.75,62.89,29.69,65.27ZM30.14,21c1.5-.13,4.7-.49,6.49.22a39.29,39.29,0,0,1,.22,6,15,15,0,0,1-6.71.23A19.16,19.16,0,0,1,30.14,21Zm0,9.62c4.78-.09,11.3-.91,15.21.22a47.51,47.51,0,0,1-.45,5.59c-3.81,1.22-10.85-.22-14.32.67A11.87,11.87,0,0,1,30.14,30.59Zm.23,8.73c1.91.33,4-.62,5.59.45-.11,2.05.24,4.57-.22,6.26-1.76.06-3.34.88-4.92.45C29.67,45.13,30.13,41.33,30.36,39.32Zm8.05,24.61a12.87,12.87,0,0,1-7.16,0A14.61,14.61,0,0,1,31,57.67c2.44.12,5.44-.79,7.38.22C37.8,59.69,38.8,62.41,38.42,63.93Zm-7.61-8.5c-.39-1.7-.41-4.86.22-6.26,4.4.15,10.53-.63,15.44,0a18.42,18.42,0,0,1,0,6C42.34,56.93,35.51,55.85,30.81,55.43Zm10.74,8.95a19.85,19.85,0,0,1-.22-6,61.8,61.8,0,0,1,13.42-.45,17.09,17.09,0,0,1,.67,6A67.36,67.36,0,0,1,41.55,64.38ZM55,55.65c-1.36,0-4.82.23-6.27-.45-.61-1.55-.42-3.9-.45-6a14.74,14.74,0,0,1,7.16,0C54.93,50.9,56,54,55,55.65Zm.67-42.73c-.86.05-1.12-1.23-.67-1.79C55.83,11.08,56.09,12.36,55.64,12.92Z"/><path class="cls-2" d="M31.48,13.37c-.21.88.14,2.94,0,4.48,4.11.18,7.74-.37,11.41,0V13.37C38.67,13,35.34,13.69,31.48,13.37Z"/><path class="cls-2" d="M48.71,17.62c1.23-.11,2.93.25,3.8-.22V13.14h-4A40.73,40.73,0,0,1,48.71,17.62Z"/><path class="cls-2" d="M67.28,36.86c3.41,1.67,6.67,5,10.74,4,.12,1.11-1.9,1-1.35,1.79,3.74-.51,7.15-2.53,10.51-4,10.45-4.67,20.69-9.53,31.1-14.09-4.49-1.7-9.14-3.24-13.42-5.15C92.83,25.72,78.67,29.91,67.28,36.86Zm13.87,2.46c.41-1,1.87-1,2.91-1.34C83.13,38.48,82.48,39.23,81.14,39.32Z"/><path class="cls-2" d="M52.29,21.87a58.13,58.13,0,0,1-10.74.22c.12,1.37-.26,3.24.22,4.25,3.81.15,7.08-.22,10.74-.23C52.36,24.78,52.8,22.84,52.29,21.87Z"/><path class="cls-2" d="M35.51,22.09c-1.66-.14-2.86.52-4.25,0-.48,1-.11,2.88-.22,4.25,1.66.17,2.67-.31,4.25-.23C35.11,24.53,35.62,23.62,35.51,22.09Z"/><path class="cls-2" d="M77.57,45.81c.11,8.84.11,17.79.67,26.18,1.67-.13-.08-2.42,1.12-3.13.51.31.08,1.56.22,2.24,14.32-6.26,26.33-14.84,40.27-21.48.09-8.22,0-16.22-1.12-23.27C104.91,32.73,90.6,38.63,77.57,45.81ZM79.8,62.14c-1.56-4.39-1-11.17-.67-16.33.36-.06.38.21.67.22ZM81.59,68v-3.8c1.2-.4,2.17-2.1,3.8-1.34C86.74,66.49,84.67,69.75,81.59,68Zm4.25-7.16c-1.35.52-2.32,1.4-4,1.57-1-4.49-.59-11.65-.67-16.33.63-1.38,2-2,3.81-2.24C86.34,48.36,85.64,55,85.84,60.8Zm5.59-19.69c1.11.75.51,3.22.67,4.92-1.26.55-2.93,1.57-4.47,1.12C86.48,43.49,87.74,41,91.44,41.11ZM88.75,65c-1.35-4.32-.69-10.65-1.12-15.88,1.38-.36,3-1.38,4.7-.67.23,4.69.46,9.38.45,14.32C91.82,63.79,90.3,65.39,88.75,65ZM97.7,38.2c.73,4.05,1.4,10.72.45,15.44-.41.67-2.17,1.23-3.35,1.79a116.83,116.83,0,0,1-1.34-15.66C94.91,39.29,96,38.4,97.7,38.2ZM94.8,61.69c-1-3.56.22-6.75,3.8-6.49A28.45,28.45,0,0,1,99,59.68C97.56,60.29,96.74,61.55,94.8,61.69Zm4.92-24.83c1.34-.52,2.23-1.5,4-1.57a27.17,27.17,0,0,1,.44,5.37c-1.58.5-2.68,1.49-4.47,1.79C99.54,40.82,99.24,38.43,99.71,36.86Zm1.34,21.92c-1.32-3.75-.79-10.54-.89-14.76a6.89,6.89,0,0,1,4.7-2c-.38,3.59.15,9.93.45,14.32A9.3,9.3,0,0,1,101.06,58.78Zm8.5-26.17c1,4.31.87,10.91.89,15.44-.76,1-2.5,2.08-3.8,1.79-.7-4.82-1-10-1.34-15.21A5,5,0,0,1,109.56,32.61ZM107.77,55c-1.27-.15.12-3-1.34-2.91.58-1.58,1.85-2.48,4-2.46C111.82,52.65,109.71,54,107.77,55Zm3.8-23.72c1.36-.66,2.28-1.74,4.48-1.56.9,4.42-1,5.65-4.48,6C112.22,34.42,111.31,32.92,111.57,31.26Zm1.57,19.91c-1.36-3.78-1.18-9.11-1.34-14.09,1.64-.18,2.35-1.37,4.7-1.34C116,41.56,119.89,50.92,113.14,51.18Zm5.82-4.7c-1.06-4.92-1.18-11.94-1.12-17.23C119.37,33.71,119,41.23,119,46.48Z"/><path class="cls-2" d="M112.46,32.39v1.34c.76.36,1.71-.75,2.69-.9C115.69,29.45,113.62,31.9,112.46,32.39Z"/><path class="cls-2" d="M49.38,31.49v4a14.44,14.44,0,0,1,3.58,0v-4A6.87,6.87,0,0,1,49.38,31.49Z"/><path class="cls-2" d="M31.48,31.71c.38.89.18,2.36.22,3.58,3.92.27,7.37-.1,11.63,0a16.46,16.46,0,0,1,.22-3.58Z"/><path class="cls-2" d="M106.2,35.29a86.13,86.13,0,0,1,.89,13.2c.72-.55,2-.52,2.46-1.34-.91-3.87-.42-9.13-.89-13.42C108.13,34.53,106.87,34.62,106.2,35.29Z"/><path class="cls-2" d="M100.38,37.75c0,1.2-.09,2.48.45,3.13.46-.66,1.49-.75,2.23-1.12-.27-.92,0-2.36-.44-3.13C102.12,37.25,101,37.29,100.38,37.75Z"/><path class="cls-2" d="M112.91,38c.26,3.85.71,7.49.9,11.41.91-.06,1.3-.64,2.24-.67-.31-3.86-.21-8.14-.67-11.86A7.06,7.06,0,0,1,112.91,38Z"/><path class="cls-2" d="M75.78,44.69c-3.21-2.31-6.94-4.1-10.29-6.27-1.5,7.23-.27,17.18-.67,25.51a40.73,40.73,0,0,0,9.84,4.7,128.68,128.68,0,0,1,0-20.36c.52,4.48.68,10,.89,15,.09,1.91-.6,4.63.67,6C76.37,60.23,74.77,53,75.78,44.69ZM65.93,60.57c-1.56-5.56-.07-13-.45-19.46a10.22,10.22,0,0,0,1.12-.9h.67c-.31.58-.76,1-1.12,1.57C66.07,48,66.36,54.67,65.93,60.57Zm2.46-18.35c-.34,1.46-1.35,2.23-1.79,3.58C66,44.35,66.92,42.4,68.39,42.23ZM67.95,55a3.46,3.46,0,0,1,0-2.68C69,52.54,67.89,54.22,67.95,55Zm.45-8.5c-.88-.23-.31-1.63,0-2C69.37,44.78,68.4,45.79,68.39,46.48Zm6,.45a4.26,4.26,0,0,1-1.12-2.46H74C74.13,45.29,74.6,45.8,74.44,46.93Z"/><path class="cls-2" d="M97,40.21c0-.18-.22-.26-.45-.22a4,4,0,0,1-2,.89c.19,4.29.85,8.1.89,12.53.86,0,1-.75,2-.67C96.58,49,97.2,43.77,97,40.21Z"/><path class="cls-2" d="M40.88,40.21v4.25a74.63,74.63,0,0,1,12.3,0V40.21C49,40.08,44.49,40.43,40.88,40.21Z"/><path class="cls-2" d="M34.61,40.89a11.44,11.44,0,0,1-3.13-.22v4.25c1.38.21,2.43-.41,3.36,0A30.09,30.09,0,0,1,34.61,40.89Z"/><path class="cls-2" d="M90.54,42.23a5.61,5.61,0,0,1-2.23.89c-.16,1.13.38,1.56.22,2.68A7,7,0,0,0,91,44.69C90.18,44.28,91.43,42,90.54,42.23Z"/><path class="cls-2" d="M100.83,44.69A123.1,123.1,0,0,1,101.5,57,3.07,3.07,0,0,0,104,55.65c-.44-3.74-.31-8-.67-11.86C102.44,44.06,101.65,44.39,100.83,44.69Z"/><path class="cls-2" d="M81.82,46.48c.55,4.45.06,9.93.89,14.09.36-.46,1.08-.56,1.57-.89a119.14,119.14,0,0,0-.22-14.1C83.45,45.14,82.44,46.19,81.82,46.48Z"/><path class="cls-2" d="M89.2,50.28c.17,4.3.3,8.65.22,13.2a4.8,4.8,0,0,0,2.46-1.34c-.61-3.94,0-9.09-.9-12.75A4,4,0,0,1,89.2,50.28Z"/><path class="cls-2" d="M44.23,50.06a51.4,51.4,0,0,1-12.31.22c0,1.53.26,3.29.22,4.25,4.56-.27,8.58-1,12.53-.22C44.41,53,45.23,50.62,44.23,50.06Z"/><path class="cls-2" d="M50,54.31a17.9,17.9,0,0,1,3.8-.23v-4H50Z"/><path class="cls-2" d="M109.56,50.73c-.41.64-1.44.65-1.79,1.34.63,0-.19,1.38.45,1.34.36-.46,1.08-.56,1.56-.89C109.64,52,110.06,50.9,109.56,50.73Z"/><path class="cls-2" d="M95.69,57.44c.14.83-.29,2.23.22,2.69a4,4,0,0,1,1.79-.9C98,56.51,97.36,56.36,95.69,57.44Z"/><path class="cls-2" d="M31.93,63.26a20.69,20.69,0,0,1,5.15-.45v-4H31.93C31.83,60.46,32.1,62.16,31.93,63.26Z"/><path class="cls-2" d="M53.63,58.78a71.12,71.12,0,0,1-11,.45c-.26.73.17,2.45,0,3.8,4,.31,7.42-1,11.19-.22C53.71,61.54,54.15,59.68,53.63,58.78Z"/><path class="cls-2" d="M82.71,64.6a8.56,8.56,0,0,1,.23,2.46c.79,0,1-.64,1.79-.67C85.18,63.77,84.2,63.33,82.71,64.6Z"/><path class="cls-2" d="M75.55,70.64q-.16,1.05.89.89C76.55,70.83,75.89,70.91,75.55,70.64Z"/><path class="cls-2" d="M61.91,2c-5.19.35-12.59-.29-17.9-.23-4.55.05-7,4-10.29,4.7,1.15-2.36,3.87-3.14,5.82-4.7a45.48,45.48,0,0,0-9.62,6c8.67.72,17.73,0,26.85.45a23.47,23.47,0,0,0,6-5.59C60.69,3.88,59.38,5.92,57,6.88,57.84,4.45,60.47,3.81,61.91,2ZM39.09,7.33c1.72-1.06,4.45-.9,7.16-1.12,3.2-.26,7-.53,9.4.22C50.48,7,44.61,7.91,39.09,7.33Zm16.33-2Q55.24,3.79,56.76,4,56.81,5.37,55.42,5.31Z"/><path class="cls-2" d="M73.09,69.75a14.74,14.74,0,0,0,1.79,1.12C74.86,70.06,73.35,69.58,73.09,69.75Z"/><path class="cls-1" d="M73.35,60.43c-15.8-.75-33.73.05-50.41.72-3.82.15-7.94-.52-10.51.24S7.7,64.86,6,66.16C3.56,68,1.22,69.42,0,71.65c0,6.54,0,13.1,1.43,18.16,20.07.55,41.43-.94,61.4-.48,2.6-3.65,10.14-5.91,11.23-10.75.6-2.65-.12-6.19-.24-9.08S73.28,63.57,73.35,60.43Z"/><path class="cls-2" d="M69,61.38c-7.58.41-17.39-.37-23.65,1-4.58,1-10.64.65-14.81,1-4.78.35-11.86-1-15.77-.24-1.43.27-3.88,2.29-5.73,3.34-.86.49-2,1.09-2.87,1.67s-2,1.5-1.67,2.15c18.39-.67,39.72.24,57.58-1.67,1-.69,2-1.89,3.11-2.87s3-1.74,2.63-2.63c-3.95.14-9.62.75-13.14-.24C58.6,61.44,65.31,62.9,69,61.38Z"/><path class="cls-2" d="M72.16,75.24c.76-3.47-1.24-7-.48-11.71-.05-.19-.2-.28-.48-.24-2.4,2.8-6.31,3.38-7.88,6.93-1.82,4.08.44,9.74,0,15.53,2.16-.34,3.61-2.12,5-3.35a21,21,0,0,0,4.3-4.3c-2.24,1.19-5.13,5.06-7.89,5.73C66,80.58,71.43,78.51,72.16,75.24Zm-1.91-10c.31.08.37.42.72.48C70.57,68.38,68.23,66.55,70.24,65.2ZM64.51,80.26c-.82-.3-.48-2.75-.48-3.11A3.22,3.22,0,0,1,64.51,80.26Z"/><path class="cls-2" d="M61.16,71.65A8.75,8.75,0,0,1,61.64,70c-.66.22-1.68.08-2.15.48C59.89,71,60.64,71.23,61.16,71.65Z"/><path class="cls-2" d="M60.93,79.3c1.37-3.09-.41-5.55-1.91-7.17-11.07,1-25,1.55-36.31.72,10.76-1.51,24.14-.39,34.88-1.91q-25.92.36-51.13,1.43c.8.31,2.39-.16,2.63.72a21.38,21.38,0,0,1-4.78-.24c.13,3.73,1.16,8.72,0,12.18a44.47,44.47,0,0,1-1-8.12c-.06-1.36.65-3.61-.72-4.3-.78,4.45.25,10.82.48,15.29,18.61.5,38.94-.26,57.82-1,.84-3.26-.9-5.94-1.43-8.6C60.54,78.1,60.12,80,60.93,79.3Zm-50.65-6c2.22-1.35,7.54-.65,10.51-.48C18.19,73.92,13.65,73,10.28,73.33Zm11.94,14.1c1.83-1.6,5.27-1.58,8.6-1.67C28.65,87,25.46,87.24,22.22,87.43ZM59.73,86c-5,1.09-12.36,1.17-18.16.72C46.81,85.76,54.11,85.78,59.73,86Z"/><path class="cls-1" d="M115.15,96.36c-4.05-3.17-11.53-6-17-8.5-1.91-.88-4.82-2.59-6.26-2.46-2,.18-3.13,2.62-5.59,2.91C82,87.44,81.68,82.62,80,79.13c2.69-2.06.13-7.79-2-9.62-2.36-2-6.64-3.94-10.74-6.49s-7.49-5.57-11.63-5.82c-5.27-.31-6.88,5.59-2.68,8.28,0-.55-1.22-1.62-.22-1.12,7.31,4.33,15,8.25,22.37,12.53,2.3,4.63,3.37,10.49,6.71,14.09-3,2.11-6.68,3.61-9.62,5.82a4,4,0,0,1,.45,2.46c5.27,1.38,10.53,3.26,15.89,4.7s11.06,3.54,16.78,4c5.25.45,11.3,0,12.75-3.58S117.16,97.93,115.15,96.36Z"/><path class="cls-2" d="M53,61.46a5.68,5.68,0,0,1,2-2.91A2,2,0,0,0,53,61.46Z"/><path class="cls-2" d="M54.3,62.13c4.29,2.95,10.58,5.08,14.09,8.05A82.88,82.88,0,0,1,57.21,65c-1-.59-2-1.9-3.13-1.57a117.35,117.35,0,0,0,15,7.61c-.09-2.19,1.31-2.87,2-4.25-4.83-2.4-9.64-4.82-14.54-7.16A5,5,0,0,0,54.3,62.13Z"/><path class="cls-2" d="M71.08,72.2a5.69,5.69,0,0,1,2.46-3.8C71.86,66.93,68.68,71,71.08,72.2Z"/><path class="cls-2" d="M72,72.64c.88.46,1.86.82,2.69,1.34.37-1.58,1.69-2.19,2.46-3.36C75.14,68.33,72.3,69.39,72,72.64Z"/><path class="cls-2" d="M77.57,72c-.44.91-1.6,1.08-1.57,2.46.68.67,2.25,1.62,3.13,1.34C78.43,74.69,78.68,72.65,77.57,72Z"/><path class="cls-2" d="M77.79,78.24c1.3,3.47,1.68,7.87,4.25,10.07a58.74,58.74,0,0,1-3.58-9.84C78.18,78.45,78.15,78.17,77.79,78.24Z"/><path class="cls-2" d="M113.58,97c-6.86-3.5-13.65-7.08-21-10.07h-.45a25.17,25.17,0,0,0-3.8,2.69c1.17.77,2.83,1,3.13,2.69-1.74,2.23-4.87-.4-6.94-.67,1.44,1.62,4.53,1.59,6.27,2.91-2.89.46-5.35-1.32-7.61-2.24-1.9,1.6-5,2-6,4.47,8.87,2.21,18.82,6.63,29.31,7.38,3.36.24,7.9.2,10.29-1.57C116.69,99.74,115.18,98.34,113.58,97ZM78,96.36c1-.57,2.2-2.12,3.58-1.57.52.68-.87,1-1.34,1.34.78.93,2.48,1,3.36,1.79A9.85,9.85,0,0,1,78,96.36Zm5.81-1.79c-.77.15-.8-.79-.45-1.12C84.16,93.29,84.19,94.23,83.83,94.57Zm2.91,4a6.27,6.27,0,0,1,4.92,1.12C90.61,100.5,87.68,99.41,86.74,98.6Zm22.6-3.13c.78-.15.8.79.45,1.12C109,96.74,109,95.8,109.34,95.46Zm-4.7-2c1.36.63,3,.41,3.36,2-4.65-1.38-8.29-3.78-12.53-5.59C98.55,89.3,101.74,92.11,104.64,93.45Zm-11-4.92c.26,0,.4,0,.45-.22.49,0,.48.56.45,1.12Q93.52,89.58,93.67,88.53Zm-.22,12.08c-.19-.08-1.24-.48-.22-.45,2.65.08,5.49,1.08,8.72,1.57s6.32.4,8.73,1.56A47,47,0,0,1,93.45,100.61Zm19.69,2.68c-.56,0-.7-.34-.89-.67,0-.56.34-.7.67-.89.56,0,.7.34.9.67C113.85,103,113.47,103.1,113.14,103.29ZM114,102c.19-1.58-1.26-2.55-.67-3.8C114.51,98.71,116.18,101.36,114,102Z"/><path class="cls-2" d="M88.08,90.77c-1.86-.52-3-1.81-5.14-2C83.65,90.18,86.93,91.25,88.08,90.77Z"/><path class="cls-2" d="M107.77,106c-11.64-.79-23.11-6-32.88-7.6,5,1.64,10.64,3.13,16.55,4.47s11.45,3.8,17.23,3.8c2.58,0,6.31-.34,7.16-1.79C113.76,106.07,110.72,106.18,107.77,106Z"/></g></g></svg>