<svg xmlns="http://www.w3.org/2000/svg" viewBox="0 0 211.81 150.64"><defs><style>.cls-1{fill:#191818;}.cls-1,.cls-2{fill-rule:evenodd;}.cls-2{fill:#fff;}</style></defs><title>Ресурс 4</title><g id="Слой_2" data-name="Слой 2"><g id="Layer_1" data-name="Layer 1"><path class="cls-1" d="M125.65,67c6.68-.12,14,.18,20,0,1.71-3.34,0-6.92-.2-10.7-.34-5.45.26-11.6-.19-16-.83-.41-2.35-.12-2.92-.78a14.45,14.45,0,0,0-.19-3.5c-4.31-.29-10.21.15-14.21.19a7,7,0,0,0-.19,2.44,2.34,2.34,0,0,0,0,.82c0,.15,0,.3,0,.45-3,1.73-8.77.35-13.43.78a63.56,63.56,0,0,0-1.17-10.12c-.42-2.42-.59-7.82-2.34-9.15-.87-.66-4.63-.51-6.23-.39-5.31.39-11.89,1.67-16.74,2.53a35.15,35.15,0,0,1-2.14,3.5c-2-2.48-4.67-5.49-7.4-8.76C74.45,13.65,70.29,6.13,61.8,9a10.65,10.65,0,0,0-1.56-2.92c-5.65-.47-9.82,1.64-14.4,2.73-2.64.62-4.93,1.93-7.59,2.72-4.52,1.35-10.07,1.83-15.18,2.73-2.38.42-5,.88-7.59,1.36s-5.38,1.66-7.59,1.56-4.34-2-6.81-1.36C-.33,18.57-.24,23,.68,26.11c.88,3,4.54,6.62,6.62,9.15C14.56,44.09,23.22,52.48,30.46,60c-1,4.74.32,9.86,2.53,12.65,3.45,1.4,6.51,1.9,9.34,3.89C46,79.09,48.2,83.92,54.4,83.14,60.29,82.41,63.48,79,65.89,75a33.13,33.13,0,0,0,2.53-5.26C69.6,66.64,71,63.59,72,60.6l.17-.22a.69.69,0,0,0,.09-.56c.17-.53.32-1.06.46-1.58-1.19-.12-1.44.69-2,1.21a2.64,2.64,0,0,0-.3.22,1.19,1.19,0,0,1-.25.12c.18-1.25-.93-.7-1.56-.58-1.74.32-3.07,2.65-4.67,3.7-3.39,2.22-9.74,3.44-15.77,2.72-4.56-.54-6.78-3.73-9-6.81-1.59-2.25-3-4.26-4.48-6-2.88-3.56-5-8.31-7.79-12.46a122.14,122.14,0,0,1-7.4-12.46c11.09.45,21.26-3.23,31.53-3.7a28.85,28.85,0,0,1,9.15,1c3,1.09,3.9,4,6.23,6l.29.72a35.56,35.56,0,0,0,1.69,4.35c1.11,3,2.15,6,3.46,8.75,2.61,5.56,6,10.32,8.76,15.38-2.07.39-1.31,5.27,0,6.23,2.8.27,6.57-.18,9.93,0,.75,1.32,2.47,2.71,2.72,3.89-6.9-.44-16.56.83-22.58,0-1.32,1.75-1.18,7.46.78,8.37-6.19,8.09-3.49,20,3.89,23.55,6.67,3.25,15.65,1.84,20-2.33,3.12-3,4.89-7.8,4.09-13.63a16.64,16.64,0,0,0-1.36-3.89c-.49-1.14-1.67-2.22-1.17-3.31,2.6.45,2.09,4,3.11,6,2.72-.64,8.56,1.63,8.76-1s-5.2-1.41-7.4-1.17c.16-1.37-.81-2.59-.59-3.45a8.18,8.18,0,0,0,1.31-.07c.66,0,1.3,0,1.94-.06a21.52,21.52,0,0,0,6.24-.42,53.94,53.94,0,0,1,7.65-.08c-3.38,4.58-3.86,13.67-.78,18.69,2.16,3.51,7.76,6,12.65,6.42,5.64.5,12.21-3,14.41-6.42,3.15-4.95,2.13-14.09-.59-18.3,2.76-.83,2.91-5.25,2.34-8.76-7.16-.07-15.74-.33-23.55-.39C123.84,69.46,124.53,68,125.65,67ZM34.74,15.21C28.54,17,21.28,19,15.08,20.66c-.91-.39-1.52-1.07-2.72-1.17,3.25-.84,6.65-1.54,10.09-2.2h.24a.84.84,0,0,0,.38-.11c4.42-.84,8.9-1.62,13.23-2.55C37.56,14.27,35.33,15,34.74,15.21Z"/><path class="cls-2" d="M57.52,7.42c-4.8,1.88-11.08,2.28-16,4.09a8.39,8.39,0,0,1-.39,1.95q8.36-2.25,17.13-4.09C57.71,9,58,7.86,57.52,7.42Z"/><path class="cls-2" d="M59.46,8.2c-.14.55.42,1.38.78.78C59.9,8.81,59.92,8.27,59.46,8.2Z"/><path class="cls-2" d="M40.2,12.1c-.28.62-.73,1.09-1,1.75.6.14.71-.2,1.17-.19C40.27,13.19,40.63,12.24,40.2,12.1Z"/><path class="cls-2" d="M37.67,12.29c-8.79,2.5-19.15,3.43-28,5.84,2.22.27,4.61-.36,7-.78,4.68-.82,9.51-2.06,14.21-2.92,2.36-.43,4.95-.44,6.81-1.75A.2.2,0,0,0,37.67,12.29Z"/><path class="cls-2" d="M61.61,18.91C60.27,16.74,63,15,63.55,17.55c.57-1-.11-2.16-.58-2.73C59.7,14,58.84,18.48,61.61,18.91Z"/><path class="cls-2" d="M12,21.44c-3.47-1.08-6.6-3.52-9.73-4.28v.58a46.25,46.25,0,0,1,8.56,4.09C7,21.75,5.07,19.78,2,18.91v1.75c3.2,8.22,9.27,13.57,13.62,20.63C10.35,36.1,5.47,30.46,2,23.39c.16,4.28,2.3,6.1,4.48,8.57C14,40.37,21.6,48.34,29.3,55.89c.54.53,1.38,1.62,1.75,1.17.39-1,1-1.9,1.36-2.92-6.34-8.2-11.46-17.6-17.33-26.28C10.82,28.89,8,22.82,12,21.44Z"/><path class="cls-2" d="M62.19,17.16c1.14,3.22,3,6.34,4.28,9.15.45,1,.58,2.46,1.75,2.92-1.12-3.81-4.16-7.39-5.45-11.68C62.5,17.5,62.45,17.23,62.19,17.16Z"/><path class="cls-2" d="M88.66,24.94c-3.25,4.46-6,12.12-8.17,18.3-.83,2.31-2.08,5-1.95,7,.1,1.55,1.4,3.52,2.14,5.26s.89,4.33,2.92,4.48c-1.91-2.05-3.34-6.27-4.48-9.73,1.31-5.1,3.07-8.75,5.06-13.82,1.21-3.07,2.15-8.65,4.67-10.32C93,23.36,103.57,24.37,109.49,24c3.29,9.17,2.78,22.14,3.89,33.48-.18.54-1,2.31.39,2.14-.6-11.93-1.06-25.67-3.5-36.4C102.82,22.13,95.77,24.41,88.66,24.94Z"/><path class="cls-2" d="M105.21,24.94a48.13,48.13,0,0,1,1.36,14.79c-.81-3.45-.79-7.93-1.36-11.48-.16-1-.25-2.57-1.17-3.11a140.59,140.59,0,0,1,1.17,32.12c2-.4,4.8,0,6.81-.39a129,129,0,0,0-3.12-32.12C107.49,24.63,106.65,25.09,105.21,24.94Z"/><path class="cls-2" d="M104.62,57.26c-.07-9.55.69-19.24-1-27.45C104.5,38.4,103.75,48.7,104.62,57.26Z"/><path class="cls-2" d="M68.81,31c-.13.45-1,.14-.78,1C68.52,31.83,69.67,31.27,68.81,31Z"/><path class="cls-2" d="M89.44,35.26c2.37,1.85,3.83,4.61,6.23,6.43a71.51,71.51,0,0,0-6-7.2C89.68,34.85,89.42,34.91,89.44,35.26Z"/><path class="cls-2" d="M129,37c2.76.81,9,1.05,11.68,0C136.94,37.58,132.18,36.88,129,37Z"/><path class="cls-2" d="M129.15,39.74c3.37.46,7.59.07,11.29.19V38.18c-2.25,0-5.47.62-8,.58C131.38,38.75,129,37.75,129.15,39.74Z"/><path class="cls-2" d="M89.44,40.91A5.46,5.46,0,0,0,91.58,39,3.37,3.37,0,0,0,89.44,40.91Z"/><path class="cls-2" d="M87.5,40.32c-2.18,3.33-6.42,4.61-6.81,9.73,1.24.18,1.64-1.23,2.14-1.95a52.62,52.62,0,0,1,5.64-6.62C87.88,41.37,88.09,40.44,87.5,40.32Z"/><path class="cls-2" d="M143,41.49c-5.3,0-10.27.24-15.38.39-.12,5.91.69,11.87.19,17.52,5.5.05,10.53-.37,15.77-.58C142.28,53.94,143.79,47.05,143,41.49Zm-13.82,16c-1.3-4.52-.92-10.37-.58-14.21C129.42,47.21,129.43,53,129.15,57.45Zm3.5.58c-1.65-.48-1.1-2.43-1.17-4.09-.15-3.4-.75-8.21-.19-10.9v-.58a4.21,4.21,0,0,1,1.75.19c.71,1.48.61,4,.78,6C134.12,52.26,134.92,57,132.66,58Zm3.7,0c-.72-.31-.86-1.39-1-2.34-.38-3.37-.62-11.13.2-12.85,0-.21.39-.13.39-.39.17,0,.18.08.2.19h.2c1.48,1.24,1.4,5.77,1.56,9.15C138,54.75,138.13,57.63,136.35,58Zm3.5-.39c-.61-3.49-1.79-12.58.2-15.38h.19c2.05,1.45,1.39,7.58,1.56,11.29C141.88,55.32,142.52,58.32,139.86,57.64Z"/><path class="cls-2" d="M88.66,42.07c-1.47,1.87-3.17,4.42-4.67,6.23-.51.61-1.47,1.12-1.17,1.75,2.12-2.43,4.86-5.25,6.23-7.79C89,42.12,88.89,42,88.66,42.07Z"/><path class="cls-2" d="M125.45,42.85c-3.3.16-6.84-.19-10.51.2.21,4.72.65,10.89.58,16.55,3.52.08,6.53-.35,10.12-.2C125.48,54.06,124.9,48.28,125.45,42.85Zm-2.73,12.26c-.69.11-2.6-.08-3.89,0-.66-1.74-.42-4.39-.78-6.42a10.87,10.87,0,0,1,5.26-.2C122.62,49.74,123.7,53.6,122.73,55.11Z"/><path class="cls-2" d="M132.27,43c-.33.2-.67,1.39-.19,1.75C132.37,44.46,133.12,43.35,132.27,43Z"/><path class="cls-2" d="M140.25,43.43c-.28.19-.7,1.23-.19,1.56C140.53,44.72,141,43.83,140.25,43.43Z"/><path class="cls-2" d="M136.16,46.16c0-.53.81-1.25.2-1.75C136.35,44.94,135.54,45.66,136.16,46.16Z"/><path class="cls-2" d="M131.88,46.55c.55,0,1-1.15.58-1.56C132.44,45.68,131.74,45.7,131.88,46.55Z"/><path class="cls-2" d="M140.25,47.72c.35-.79.78-1.48.19-2.34C140.39,46.09,139.3,47.22,140.25,47.72Z"/><path class="cls-2" d="M102.68,46.16c-5,4-14.1,4.77-22,5.26,3.86,1.7,8.12-.25,11.68-1,4-.82,7.76-1.69,10.51-3.7C102.84,46.51,102.91,46.19,102.68,46.16Z"/><path class="cls-2" d="M132.27,48.49c.2-.46,1-1.3.39-1.94C132.49,47,131.67,47.89,132.27,48.49Z"/><path class="cls-2" d="M136,48.3c.61-.05,1-1.33.58-1.75C136.35,47.13,135.86,47.42,136,48.3Z"/><path class="cls-2" d="M96.45,51c-2.27.69-4.75.77-7.4,1.37-2.88.65-5.23,1.8-8,.58,1.33,1.78,1.3,5.06,3.5,5.65a15.91,15.91,0,0,0,3.7-.19c4.14-.34,10-1.18,14.21-1,.68-2.44.46-6.8.2-9.54A19.1,19.1,0,0,1,96.45,51Z"/><path class="cls-2" d="M140.25,51c.37-.6.94-2,.39-2.92A2.92,2.92,0,0,0,140.25,51Z"/><path class="cls-2" d="M132.46,51.22c.11-.55.78-1.54.2-2.14C132.35,49.43,132,50.72,132.46,51.22Z"/><path class="cls-2" d="M119.61,49.47c-.15,1.58.28,2.58.2,4.09.42.36,1.43.13,2.14.19V49.27C121.18,49.35,120.08,49.1,119.61,49.47Z"/><path class="cls-2" d="M136.16,52.2c.92-.06.66-2.32.39-2.92C135.91,49.74,136.23,51.17,136.16,52.2Z"/><path class="cls-2" d="M140.64,56.28c.19-1,.58-3.79-.19-4.48C140.26,52.88,139.88,55.53,140.64,56.28Z"/><path class="cls-2" d="M132.66,52c0,.56-.82,1.12,0,1.36C132.88,53.22,133.51,52,132.66,52Z"/><path class="cls-2" d="M136.35,56.67c1.14-.28.75-3.06.19-3.89C136.18,53.77,136.42,55.38,136.35,56.67Z"/><path class="cls-2" d="M132.46,56.67c1,.12.64-2.08.39-2.53A4.79,4.79,0,0,0,132.46,56.67Z"/><path class="cls-2" d="M33.77,55.7c-2.52,3.82-3.18,11.75-.39,15.77,0-2.1-.57-5.21-.19-7.79.32-2.16,2.06-3.48,1.95-4.86-1.42,1.56-1.91,4.06-2.92,6-.55-3.42,1.83-5.37,2.92-7.78A5.37,5.37,0,0,0,33.77,55.7Z"/><path class="cls-2" d="M104,59c2.4.24,5.24-.1,8,.19V58h-.78C109.56,59.08,105.34,57.58,104,59Z"/><path class="cls-2" d="M36.89,59.2c1.58.9,2.56,3.39,4.09,3.7-1.17-1.62-2.68-2.9-3.89-4.48A1.09,1.09,0,0,1,36.89,59.2Z"/><path class="cls-2" d="M85.35,59.79c4.76-.42,12.86,0,17.33-.78A77,77,0,0,0,85.35,59.79Z"/><path class="cls-2" d="M36.49,60.17a8.92,8.92,0,0,1-1,1.75,18.49,18.49,0,0,0,3.11,3.31c.25-.66,1.08-.74,1.17-1.56C38.51,62.7,37.74,61.2,36.49,60.17Z"/><path class="cls-2" d="M66.67,64.46c.19-1.59,2.37-3.19,1.75-4.28-2.14,5.93-11,8.38-19.46,7.59-3.34-.31-5.54-2.11-7.4-3.31,3.72,6.41,15.24,3,22,2.14C58.41,68.69,47.23,70.77,42.14,68c-1-.56-1.7-1.67-2.72-1.75-.43,2.69,1,7.11,3.5,7.79,1.71.47,4.53-.09,6.42,0,6.33.29,14.92-2,16.93-5.84.67-1.29-.12-2.32,1.36-2.72.67.56-.62,1.47,0,1.95a33.75,33.75,0,0,0,1.75-3.31c-1.72.55-2.6,1.94-4.87,1.95C65.26,65.51,65.68,64.7,66.67,64.46Z"/><path class="cls-2" d="M144.72,61c-21-.34-41.68.78-63.07.58v2.73c21.19-.95,42.08,0,63.26-1C144.85,62.52,145.1,61.42,144.72,61Z"/><path class="cls-2" d="M34.94,63.68c-.43,2.08,0,4.23,0,6.43a27.89,27.89,0,0,1,4.48,2.14C38,69.34,38.36,64.6,34.94,63.68Z"/><path class="cls-2" d="M90.42,64.85c-.2,0-.15.25.19.2,11.72-.65,22.94.19,34.65.19,5.25,0,10.63.06,15.37.2,1.26,0,3.62.69,4.09-1.17.21,0,.15-.25-.19-.19C126.78,65,107.85,64,90.42,64.85Z"/><path class="cls-2" d="M84.77,65.24c.91-.12,2.33.25,2.92-.19C86.78,65.17,85.36,64.79,84.77,65.24Z"/><path class="cls-2" d="M92.36,66.79A3.91,3.91,0,0,1,93.53,68c9,0,18,0,26.67.39-7.75,1.41-17.88.54-26.08,1,.87,1.18,2.51.81,4.28.78,5.22-.1,11.95-.22,16.74,0,1.45.06,3.24.48,4.28.2s3.31-2.83,2.92-3.31C112.31,66.71,101.89,66.6,92.36,66.79Z"/><path class="cls-2" d="M88.27,71.66c-5.36.25-11.82-.13-16.74.58,6.76.46,15.46,0,21.61-.2C92,70.9,89.9,71.58,88.27,71.66Z"/><path class="cls-2" d="M93.92,71.66c2.14,1.49,3.25,4,4.86,6C97.53,75.45,96.2,72.24,93.92,71.66Z"/><path class="cls-2" d="M137.91,72.63c-3.23.14-7.57.2-9.93-.39,1.68-.07,2.92-.59,4.87-.39.21,0,.15-.25-.19-.2-12.18-.17-24.51-.37-36.79,0a1,1,0,0,1,.59.58,259.68,259.68,0,0,1,31.34.19c-9.5.88-20.55.21-30.17,1,.81,1.88,2.89,1.25,4.87,1.16,3.33-.14,7.37-.19,10.51,0,3.28-.93,8-.08,11.87-.39,1.65-.13,3.2-.89,4.67-1,4.31-.25,8.36,2.11,12.85,1C142.3,71.8,139.85,72.55,137.91,72.63Z"/><path class="cls-2" d="M44.67,75.94a40.38,40.38,0,0,0,16.74-1.56C57.73,76.78,51,77.84,45.26,76.92c2.63,1.5,4.82,5.07,9,4.28a34.82,34.82,0,0,0,4.09-1.56,10.35,10.35,0,0,0,6.23-8,10.26,10.26,0,0,1-4.87,2.53C55.27,75.55,49.59,75.79,44.67,75.94Z"/><path class="cls-2" d="M144.14,73.61V72.44h-.58A2,2,0,0,0,144.14,73.61Z"/><path class="cls-2" d="M86.13,73.41c3.54.14,5,1.8,9,1.16C94.79,72.13,89.05,73.39,86.13,73.41Z"/><path class="cls-2" d="M71.53,73.61v1.17c2.62-.16,5.58,0,7.2-1.17C76.42,73.64,73.22,73.56,71.53,73.61Z"/><path class="cls-2" d="M99.37,75.55a8.56,8.56,0,0,0,.78,1.75c2.72,0,7-1.21,9,.39,3.22-.19,7.1-.63,10.32-.19.88-1,2.28-1.49,3.31-2.34C115.66,75,107.76,75.9,99.37,75.55Z"/><path class="cls-2" d="M141,80.61c-.39-.41.28-.87.39-1.36-.74-.63-.93-1.79-2.53-1.56-.77-1.62-3.82-2.54-5.45-1.56a1.67,1.67,0,0,1-.2-1.17c-1.05-.15-1.51.31-2.53.19,0,.56,0,1.06-.58,1-.82.23-.35-.82-.78-1-.14.44-1.09.08-1.56.19,0,.58,0,1.19-.58,1.17-.84.26-.24-.93-1-.78a25.64,25.64,0,0,0-2.53,1c0,.51.11,1.15-.39,1.16s-.52-.67-1-.19c-.42,1.21-1.85,1.39-2.53,2.34.06.45.31.73.19,1.36h-1a30.91,30.91,0,0,0-1.75,11.49c.56,0,1.06,0,1,.58.17.62-.3.61-.58.78.06.71.48,1.08.58,1.75.52,0,1.14-.11,1.17.39-.57,1.47,1.11,1.7,1.56,2.72.84-.79,2.23-.52,1.56,1a10.73,10.73,0,0,0,1.75,1c.26-.51.33-1.23,1.36-1,.17.74-.32,1.24,0,1.56.6-.14.57.34,1.17.2.36-.29.23-1.07,1-1a1.47,1.47,0,0,1,.39,1.36,7,7,0,0,1,2.92.39c0-.69.19-1.23.78-1.36a1.31,1.31,0,0,1,.58,1.36c1.25.15,1.72-.49,2.92-.39.43-.28-.11-1.54.59-1.56.88-.17.46,1,1.17,1a18.17,18.17,0,0,1,2.14-1.17c.06-.59-.21-1.52.39-1.56,1.85.47,2.24-1.81,3.5-2.53.05-.57-.44-.6-.39-1.17.27-.37.95-.35,1.36-.58,1-4.79.63-11-1.75-14C141.74,80.67,141.41,81.29,141,80.61Zm.19,15.18c-3.18,5.91-13.69,6.21-18.88,1.75-5.5-4.72-3.39-17,2.53-19.66,6.45-2.65,15.22-.06,17.13,4.87A17.21,17.21,0,0,1,141.22,95.8Z"/><path class="cls-2" d="M94.11,80.22c0-.37.22-.43.2-.78a15.2,15.2,0,0,0-5.45-3.31,3.58,3.58,0,0,1-1,1.36c9.64,1.27,11.9,21.13.2,21.8C80.72,102.94,72.7,97,72.31,90.15c-.48-8.49,5.12-15,15.18-12.85h.39c-.59-.52.56-1.59-.39-1.75-.4.38-.48,1.08-1.17,1.17-.3-.29-.17-1-.2-1.56H84.77c0,.59.11,1.28-.58,1.17s-.25-.92-.58-1.17c-1.16-.12-1.73.34-2.92.19-.08.37-.07.84-.58.78-.64-.7-1-.39-2.14-.19-.13.44.13,1.27-.78,1.36,0-.31-.5-.15-.39-.58a3.22,3.22,0,0,0-2.14,2.53c-1.1-.57-1.59.59-2.14,1.17.65-.2.3.61.39,1a1.67,1.67,0,0,0-1.17.2c-.23.67-.3,1.51-.78,1.95,0,.63.88.42.58,1.36h-1C70.69,86,69.88,86.3,70,87c.06.46.81.94.78,1.17s-1.86,1.3-1,2.73c.29.36,1.07.23,1,1,.07.72-.79.51-.58,1.36,1.56.57.4,1.76,1,2.92.58-.27,1.19-.23,1.36.39-.54,1,.41,1.5,1,1.95,0-.55.48-.56,1-.58.46.45,0,1,0,1.56,1,.46,1.37,1.27,2.53.59,0,1,.85,1.23,1.56,1.56.73,0,.59-.84,1.56-.58-.08.47.36.42.19,1,.8,0,1.22.34,2.14.19.4-.12.05-1,.78-.78.87-.15.38,1,1.17,1a5.09,5.09,0,0,0,2.92-1.17c2,1.18,3.27-1.1,5.06-1.36.38-.23-.42-1.23.39-1.36,1.11.77,2.46-.57,1.95-1.95.49-.48,1.58-.36,1.95-1,.14-.79-.63-.67-.39-1.56a1.27,1.27,0,0,1,1-.19,3.42,3.42,0,0,0-.39-2.53c-.13-.78.82-.48.78-1.17-.08-4.16-1.78-5.71-2.53-9.34C94.84,80.54,94.13,80.72,94.11,80.22Z"/><path class="cls-2" d="M71.53,75.55v1.37c1.65.7,2.49-.81,3.31-1.56A25.76,25.76,0,0,1,71.53,75.55Z"/><path class="cls-2" d="M92.56,75.55c1.78.49,2.15,3,4.67,2.14-.14-1-1-1.31-1.17-2.34C95,75.49,93.34,75.1,92.56,75.55Z"/><path class="cls-2" d="M139.47,75.55c.57.34,1.24.58,1.56,1.17.6-.44,1.67-.41,1.95-1.17A6.47,6.47,0,0,0,139.47,75.55Z"/><path class="cls-2" d="M100.54,78.67a33.08,33.08,0,0,1,7-.39C105.87,77.53,102.1,78,100.54,78.67Z"/><path class="cls-2" d="M134.6,98.52c-6,1.16-11.48-1.78-13.24-5.26-1.51-3-.92-6.3,0-10.12-3.13,6.12-.07,12.79,4.28,15,9.26,4.67,19-2.68,15.38-13.62C142.43,91.74,140.08,97.46,134.6,98.52Z"/><path class="cls-2" d="M133,83.53c4.49,2,3,9.06-1.75,9-1.37,0-3.79-1.06-4.28-2.72s.44-3.67.2-4.87c-1.3,2.71-.42,6.67,1.36,7.79,2.53,1.58,6.9.17,7.79-2.53C137.15,87.71,135.68,83.89,133,83.53Z"/><path class="cls-2" d="M81.27,92.1c-1.55-1.08-2-4.4-1.17-6.23.36-.83,2.26-2,1.75-2.34-1.39,1.1-2.74,2.39-2.92,4.28-.57,6.16,8.14,7.43,10.32,2.33,0-1.42.14-3-.59-3.7C90,91.69,84.62,94.43,81.27,92.1Z"/><path class="cls-2" d="M130.71,87.43v.39c.53,0,.4.32.78,0v-.39C131.1,87.1,131.24,87.44,130.71,87.43Z"/><path class="cls-2" d="M81.27,25.33c-1.22-1.37-2.49-2.9-3.7-4.48-1.75-2.28-4.71-7.88-7.2-9.15a24,24,0,0,0-8.17-1.56c-1.9.06-4.35,1-6.62,1.36-13.9,2.51-26.29,7-38.93,10.12-1.88.46-4.8.38-5.06,3.12,4.23,1.51,8.55.78,13.63.39,2.79-.22,5.66-.48,8.37-.78,11.13-1.25,27.75-4.22,32.51,3.5-4.73-10-22.52-3.1-33.48-4.48,5.75-1,13.84-1.43,20.83-1.75a27.75,27.75,0,0,1,5.45-.19c2.13.36,3.76,2.23,5.45,2.72-.7-1.5-1.55-2.86-2.14-4.48a3.76,3.76,0,0,1-2.33-.39c-.74-1.1-1.39-3-.39-4.28.36-.65,0-.17-.39,0-.95,1.2.11,3.43,0,4.28-3.29-2.14-.05-7.93,4.09-6.23-.06.46-.85.19-1,.58,3-.29,3.11,4,2.14,5.45,1.78,3.22,3.56,6.44,5.06,9.93a6.25,6.25,0,0,1,2.14,1c1.5,5,5.2,7.77,7.79,11.68,1-3.92,3.22-7.68,3.89-11.29-2.42,2-2.74,6.09-5.06,8.18.59-3.83,2.52-6.3,4.09-9.15A149,149,0,0,1,72.7,17.55c-1.06-1.55-1.8-3.4-2.92-4.28-4.36-3.43-13.61-.47-18.69,1-3.7,1.06-7.71,1.67-11.48,2.53-7.87,1.8-15.42,4.81-22.58,5.06,7.37-1.36,14.76-4.13,22.58-6,3.74-.91,7.85-1.64,11.68-2.73,6.52-1.85,13.46-3.47,19.08-.58,3.73,5.24,8.23,10.69,12.26,15.38.54.63.95,1.62,1.75,1.95C84.43,27.73,82.45,26.66,81.27,25.33Zm-66-.78a2.07,2.07,0,0,1-2.73,0c-.44-1.95,1.89-2.38,2.73-1.36Zm11.1-.39a58.73,58.73,0,0,1-8.37.78A14.33,14.33,0,0,1,26.37,24.16Z"/><path class="cls-2" d="M90.42,26.5c-2.31.38-3.45,5.76-4.28,8.17C85,38,83.5,41,82.63,43.82a20.23,20.23,0,0,1,5.06-4.48c1.51,1.18,1.85-.41,3.12-1-.6-1.54-2-2.31-2.34-4.09.33-.38.6-.83,1.17-1,2.7,2.69,5.47,5.3,7.2,9-1.72,2-3.48-1.22-4.48-2.34-1,.21-1.15,1.18-1.94,1.56-.25.35.17,1-.2,1.56-1,1-1.84,2.44-2.92,3.7-.92,1.08-2.69,2.47-2.53,3.31A62.22,62.22,0,0,0,102.87,45a123.68,123.68,0,0,0-1.36-19.66C97.36,25.09,93.68,26,90.42,26.5Z"/><path class="cls-2" d="M16.25,27.86c5.76,7.67,11,17.58,16.93,25.69C28.37,46.07,23.64,38,19,30.59,18.35,29.6,17.66,28,16.25,27.86Z"/><path class="cls-2" d="M73.87,38.18c-1.14-2.11-2.06-4.43-3.31-6.42A39.9,39.9,0,0,0,73.87,38.18Z"/><path class="cls-2" d="M76.6,44.21c-3-3.18-4.68-7.65-6.82-11.68-.6-.14-.37.54-1,.39,1.89,5.76,5.41,11.59,8.37,16.94,2-4.16-1.31-7.82-2.34-9.73C75.28,41.63,76.25,42.61,76.6,44.21Z"/><path class="cls-2" d="M78.35,44.21c.93-1.77-1.64-3.82-2.22-4.78A44.45,44.45,0,0,0,78.35,44.21Z"/><path class="cls-2" d="M76.13,39.43,76,39.15A.78.78,0,0,0,76.13,39.43Z"/><path class="cls-2" d="M69,62.9A3.93,3.93,0,0,0,70.95,60C70.24,60.76,68.68,61.73,69,62.9Z"/><path class="cls-2" d="M34.94,72.24c2.23.31,4.29,1.81,5.84,2.14a34.89,34.89,0,0,0-5.84-3.31Z"/><path class="cls-2" d="M100.93,83.92c-.73-1.87-.85-5.38-2.34-5.84a16.74,16.74,0,0,1,1.95,6.23c2.25-.53,5.11.61,7-.39C105.38,84.39,103.28,83.83,100.93,83.92Z"/><path class="cls-2" d="M80.88,79.45c.69-1.2,3.9-.9,4.67-1.36-8.76-1.15-13.26,5.16-12.07,13.43.22,1.54,1.5,3.91,2.53,3.7-3.77-3.49-2.64-14.43,2.53-15-.95,1.39-2.27,2-2.92,3.31-5.24,10.67,8,18.76,16,12.07,2.15-2.39,2.09-7.74,1.75-11.48,1.64,2.29,1.26,7.75.39,9.92C97.74,84.71,90,76.78,80.88,79.45Zm-4.67,9.34a9.64,9.64,0,0,1,1.56-5.06c2.37-3.19,10.64-5.32,12.65-.78a24.48,24.48,0,0,1-3.5-1.56h.58c-5.32-.56-10.38,1.78-10.51,7-.06,2.32,1.36,5.74,3.7,6.81,2,.91,6.44.6,8-.78C85.89,100.14,76.1,95.83,76.21,88.79ZM78,87c.5-2.49,2.77-4.27,5.64-4.67,4.5-.63,7.5,2.83,6.62,7.79C89.1,96.4,76.11,96.2,78,87Zm11.68,7.59c.24-1.35,1.9-2.29,2.14-4.28s-.78-4-1-6C93.36,86.49,92.8,93.66,89.64,94.63Z"/><path class="cls-2" d="M122.53,81.78c.94-1.69,2.82-1.55,4.28-2.92C124.77,79.09,122.8,80.42,122.53,81.78Z"/><path class="cls-2" d="M140.44,82.95a5.93,5.93,0,0,0-4.09-3.7c.93.52,2.3,1.54,1.95,2.72-4-5-15.28-3.19-16.54,3.31-.39,2,.28,3.57,0,6,1.34,1.71,2,4.07,4.28,5.25,3.74,2,10.95,1.29,12.85-1.56,2.08-3.1,2.12-8.46.78-12.45C140.19,82.42,140.06,82.95,140.44,82.95Zm-3.89-1.56c.35.53-.86.38-.19.59-1.36.51-2.45-.92-4.09-.78C133,79.92,135.94,80.37,136.55,81.39Zm-3.31.78c4.17.95,6.23,8.55,2.34,11.09a8.83,8.83,0,0,1-6.81.78c-4.78-1.69-4.81-11,1-11.87A10.16,10.16,0,0,1,133.24,82.17Zm3.9,12.26c-2.58.66-4.62,1.81-7.4,1.36-7-1.14-8.34-12.1-1.95-14.41-.7,1.66-2.53,2.43-3.12,4.28a7.11,7.11,0,0,0,6,9.15c1,.08,2.54-.51,3.7-.58.41,0,.94.27,1.17.2,2.35-.83,3.47-5.13,2.53-8.37.07-.3.34.17.39-.19C140.26,88.46,138.84,92.92,137.13,94.44Z"/><path class="cls-2" d="M128,85.87c-1.64,7,7.37,6.52,6.81,1.56C134.46,84.47,129.56,82.38,128,85.87Zm5.25-.39c.08.67-.06,1.11-.78,1a1.11,1.11,0,0,1-.19-.78A1.26,1.26,0,0,1,133.24,85.48Zm-2.72-1.17a.7.7,0,0,1,.78,1.17C130.41,85.55,130.19,84.95,130.52,84.31ZM129,84.9c.23,0,.35,0,.39-.19.49,0,.61.3.78.58,0,.55-.34.83-1,.78A1.65,1.65,0,0,1,129,84.9Zm-.78,2.34c0-.62.44-.86,1.17-.78.28.61,0,1.32-1,1.17C128.4,87.4,128.33,87.27,128.18,87.23Zm1.95,3.12c-.35-.34-.25-1.25.19-1.36.62,0,.86.44.78,1.17A1.26,1.26,0,0,1,130.13,90.35Zm2.53-.2a.73.73,0,0,1-.78-1.17c-.28-.1-1.63,0-1.95-.58-.36.29-.23,1.07-1,1,0-.19-.24-.15-.39-.19v-1a1,1,0,0,1,1.17,0c-.63-3.48,4.36-2.33,2.34.39,0,.36.66.12.78.39A1.66,1.66,0,0,1,132.66,90.15Zm1.17-1.56H133a.72.72,0,0,1,.78-1.17A1.37,1.37,0,0,1,133.82,88.59Z"/><path class="cls-2" d="M85.74,83.92a2.07,2.07,0,0,0-1.95,0c-4.18,1.31-3.73,8.77,1.36,7.79C88.42,91.08,88.33,85.61,85.74,83.92Zm-1,.58c.67-.15.82.22,1.17.39,0,.61-.14,1.16-.78,1.17S84.45,84.88,84.77,84.51ZM84,84.9c.91,1-.79,2.29-1.17,1C82.76,85.1,83.2,84.82,84,84.9Zm-1.17,5.45c-1.3.18-1.09-1.44.2-1.17A1.66,1.66,0,0,1,82.82,90.35Zm-.58-1.95c-1.32-.07-.86-2.22.58-1.75A1,1,0,0,1,82.24,88.4ZM84,91.13a1.13,1.13,0,0,1,0-1.56A.79.79,0,1,1,84,91.13Zm2.53-.78c-.88.1-1.27-.29-1.17-1.17C86.1,88.26,87.22,89.38,86.52,90.35Zm.39-2.14c-.47-.11-1-.17-1-.78a1.55,1.55,0,0,1-2.53,1.36c-.79-2.2,1.64-3.15,2.34-1.56.4-.05,0-.86.58-.78C87.48,86.22,87.51,87.79,86.91,88.21Z"/><path class="cls-2" d="M86.33,98.52c-.9,0-2.58.76-4.09.39-.7-.08-1.7-.88-2.33-.39a15.83,15.83,0,0,0,5.25.78C86.25,99.15,86.89,98.5,86.33,98.52Z"/><path class="cls-1" d="M211.29,134.65c-.82-1.17-1-1.33-.24-3.29-.31-.55-1.36-.36-1.88-.71-.52-4.71-5-4.33-9.63-4-8.27.6-19.28.65-26.56,1.88-.49-1-.09-2.88-.47-4,9.75-.48,20.75-3,30.79-2.59,1.83.08,3.62,1.08,5.4,0,.08-4.84,1.89-14.19,1.18-19.27-.41-2.91-3.49-3.62-5.64-5.17a30.7,30.7,0,0,1-3.67.6h-.1a2.56,2.56,0,0,0-.66.09c-3.2.34-6.49.59-8.73,1.9v3.19s0,0,0,0v.3c-1.1.55-3.21.08-4.7.24-.08-14,.62-27.81.71-40.89a4.35,4.35,0,0,0-1.88-.24C176.38,50.42,161.35,44.3,149.49,35c.15-1.5,2.1-2.44,1.88-3.52-.18-1.86-1.7-2.37-3.05-3.06A8.15,8.15,0,0,0,146.2,31a10.91,10.91,0,0,0-4.7-1.41c-5.53-5.29-13.41-7-19.27-11.75a115.6,115.6,0,0,0-18.8-12c-1-2-1.72-4.24-3.05-5.88a17.21,17.21,0,0,1-5.64,2.82c-2.94,27.53-2.33,58.62-2.82,88.59-7,0-3,8.46-1.41,11.75-.58,5.73-4.73,15.34,2.35,16.69s9.68-8.19,4.23-10.57c-1.45,1.14.51,5.14-2.35,4.93-3.32-.24-.36-7.58,1.41-8.46V103.4c4.12-.72,8.31-11.58.94-11.51.54-22,.51-46.44.47-69.79,4,16.88,5,33.91,10.81,48.41,2.82,7,6.17,13.72,8.93,20.68s5.33,14.06,8.69,20.68c-.57.62-2.23-.6-2.82,0-.68,2.67-.65,6.57-1.18,8.69a53.81,53.81,0,0,0,6.18,2.22l.4.25V126c-10.73,1.8-23.15,1.92-33.6,4-.48,2.73-2.82,3.61-4,5.64a38.88,38.88,0,0,0,.23,6.34,17.31,17.31,0,0,1,3.06,4.7c11,.93,22.09-2,33.61-2.11a2.27,2.27,0,0,0,2.58,1.64c.79,1-.85.92-.23,1.65a5.65,5.65,0,0,1,2.82,1.88c6.94,2,15.93.42,24.44-.71,6-.8,12.09-1.77,17.86-2.59,12.23-1.74,24.3-3,34.78-6.11C209.85,137.74,213,137.13,211.29,134.65Zm-117.73-43c-1.24-28.58.68-59.07,1.18-87.41.05-.18.2-.27.47-.24,0,.3.3.33.24.71-1.13,27.26-.94,56.69-.94,83C94.5,88.76,95.28,91.25,93.56,91.64Zm2.12.24c-1-.66-.5-2.51-.47-4,.48-23,.57-49.15.94-73.32.49,8.51.47,18.78.47,28.43,0,15.27-.52,30.34,0,44.18C96.67,88.56,97.37,91,95.68,91.88Zm86.94,12.22c-2-.24-3.94.75-5.4.24,3-9.26,2.82-21.62,5.4-31.25C182,83.29,182.87,93.54,182.62,104.1Zm-1.41-28.43c-2.46,9-2.54,20.33-5.17,29.14H174.4c.45-1.68-.21-4.53-.24-5.64,1.87-6.53,2.42-15.79,5.17-20.91C179.82,77.34,180.95,75.35,181.21,75.67Zm-2.35-9.87c.84.1,1.82.06,2.11.71-1,1.38-1.56,3.14-2.58,4.46C178.34,69,178.92,67.73,178.86,65.8Zm-2.12,8.7a60.21,60.21,0,0,0-4.7,8.93A5.5,5.5,0,0,1,169,81.31c3.5-4.88,5.72-11,9.17-16A65.51,65.51,0,0,0,176.75,74.49ZM149.25,35.72c3.85,4,9.81,7.19,15,10.81,3.77,2.61,7.43,5,10.81,7.52,1.14.86,3.11,1.66,2.82,2.58-1.58,0-2.58-1.37-3.76-2.12-8.66-5.43-18.38-9.88-27.73-14.57C147.3,38.47,147.78,36.59,149.25,35.72Zm-4.93-1.41a2.34,2.34,0,0,0-.71,1.41c-1.7-.1-2.07-1.53-4-1.41-7.79-5.92-17.26-10.07-24.91-15.74-2.55-1.89-5.5-3.64-7.52-6.11a.24.24,0,0,1,0-.47C119.67,19.32,131.84,27,144.32,34.31Zm-4.94.94c-4.45-1.9-9.56-5.63-12.45-7.52A59.33,59.33,0,0,1,139.38,35.25ZM126,63.45a5,5,0,0,1-4.23-1.18c1.41-.55,2.47-1.45,4-1.88C125.62,61.63,126.17,62.17,126,63.45Zm1.88,19c-1,1.32-.75,3.79-1.88,4.94-.22-1.66-1-2.73-1.17-4.46C125.85,83,127,81.87,127.87,82.48Zm-4.23-3.05c-.05-1.18-1.59-3.19-.7-3.76,1.13,1.07,3.23,1.15,4,2.58C125.5,78.31,124.7,79,123.64,79.43ZM129,83c.27,2.86,1.13,6.39.94,8.93-.72-1.4-2.17-2.06-2.82-3.52C128.08,86.84,128.36,84.69,129,83Zm-6.35-8.7c1.77,0,3,.41,4.94.24.54.56.41,1.78.71,2.58C126.45,76.15,124.58,75.19,122.7,74.26Zm4.46-2.82a29.18,29.18,0,0,0-6.11-.47,11.64,11.64,0,0,1-.71-2.35c1.69.25,4.61.93,6.81,1.41Zm-8.22-7.52c1.48-1,3-.46,4.23.47-1.3.5-2.2,1.41-3.76,1.64C119.53,65.05,118.72,65,118.94,63.92Zm3.76,3.76c1.55-.18,2.39-1.06,3.76-1.41.16.87.25,1.79.47,2.59A15.33,15.33,0,0,1,122.7,67.68Zm.94-11.28c-1.75,1.31-4,3.32-6.11,3.53.84-1.19,1-3.09,1.64-4.46A24.24,24.24,0,0,0,123.64,56.4Zm-3.52-4.7c.84-.81.33-3,1.41-3.52.62,1.65,1.43,3.11,2.11,4.7C122.45,52.5,120.89,52.49,120.12,51.7Zm-4,15.75q1.05,2.94,1.88,6.11c-1.57-.77-2.48-2.22-4.23-2.82C114.27,69.35,115.35,68.56,116.12,67.44Zm-.94-11c-.37-2.68-2.27-6.25-1.88-8.18l.12.09a22.8,22.8,0,0,0,3.64,3.16A26.86,26.86,0,0,1,115.18,56.4Zm3.06-7.52c-2.23-2.08-6.73-3.14-6.58-6.81a52.94,52.94,0,0,0,7.52,3.52C119.13,46.95,118.35,47.58,118.24,48.88Zm-5.41-9.16c1.45-.27,2.7-.74,4.23-.94.36,1.44,1.29,2.32,1.64,3.76C116.76,41.58,114.66,40.79,112.83,39.72Zm-1.17-1.41c1.09-1.41,1.22-3.79,2.35-5.17.57,1.78,1.68,3,2.35,4.7C114.51,37.56,112.81,38.67,111.66,38.3Zm-1.41,0c-1.34-3.49.34-6.43,1.64-9.16.2,1.13,1,1.69,1.18,2.82C112,34,111.55,36.56,110.25,38.3Zm-1.88-8c-.19-1.57-1.87-4-.94-5.17a12.63,12.63,0,0,0,2.35,1.41A17.81,17.81,0,0,1,108.37,30.31Zm.7-14.8c3.94,4.13,10.62,6.77,14.33,10.34-2.63-1.16-4.92-3.35-7.52-4.94S110.28,17.92,109.07,15.51Zm-4.23-8c6,4,12.35,8.14,18.56,12.22,4.67,3.07,9.4,5.79,13.87,8.69,1.41.91,3.16,1.52,4,3.06C129.68,24,117.56,17,105.55,9.87,105.67,8.95,103.78,7.85,104.84,7.52Zm4.7,17.39c-1.19-.45-2-1.33-3.29-1.65-.66-3.49-2.41-7.14-2.59-10.34C105.58,17,107.75,20.74,109.54,24.91Zm-8.22-4.46c1.59,5.54,3.44,10.81,4.94,16.45-.65,0-1.8-1.48-2.82-1.88C102.8,30.24,101.48,24.9,101.32,20.44Zm3.05,16.45c.37,1,1.74,1.09,2.12,2.12-.73,1-.81,2.64-1.65,3.52C105,40.67,103.36,38.1,104.37,36.89Zm3.76,6.34c.7,3.06,2.27,6.5,2.35,9.4-1.06-2-3.19-2.92-4.23-4.94C107,46.38,107.19,44.42,108.13,43.24Zm-1.41,9.4c2,2.48,6.13,4.05,6.11,7.75A11.56,11.56,0,0,0,108.6,59,10.14,10.14,0,0,1,106.72,52.64Zm2.58,10.57a17.18,17.18,0,0,1,5.64,1.64c-1.4.95-2.47,2.23-3.76,3.29C110.72,66.34,109.78,65,109.31,63.21Zm4,8c1.23,1.74,3.24,2.72,4.7,4.23-1.25-.08-2.27-.39-3.52-.47C114.19,73.87,112.5,71.83,113.3,71.2Zm2.58,7.29c1.2-.18,1.71.33,2.82.23-.24,1.33-.78,2.35-.94,3.76C116.52,81.77,116.3,80,115.89,78.49Zm3.52,8.93c-1.67-2.47-.8-5.53.47-8C120.59,82.26,122.4,85.82,119.41,87.42Zm3.29.71c.42,1.46.89,2.87,1.41,4.23a16.37,16.37,0,0,1-3.29-2.12A3.64,3.64,0,0,1,122.7,88.12Zm4.48,18.56-.14-.29c-.9-4-3.17-7.63-3.86-11C126.44,97.06,127.54,102.1,127.18,106.68Zm2.5-13.24c0,.07,0,.13-.05.2-.47.47-.51,1.37-1.06,1.77-.25-1.63-1.43-3.58-1.17-4.93.72,1,1.77,1.72,2.3,2.94Zm1.24,3.61a66.34,66.34,0,0,0,.94,6.58C129.94,102.57,129.12,98.6,130.93,97.05ZM157,94.94c-10.37-4.81-19.21,2-22.09,9.64-.56-13-2.3-24.62-4-36.19-.57-3.89-.62-8.13-1.64-11.75-.91-3.2-2.77-6.45-4.23-9.63-4.38-9.56-10.42-20.45-14.33-28.44,9.23,7.69,21.61,12.23,30.55,20.21.47.72-.3,1.23.24,1.88,1,.51,1.55,1.43,2.82,1.65,1-.13.79-1.4,1.64-1.65,9.37,6.19,19.53,10.21,28.9,16.22.71,1.87,2,3.15,2.82,4.93-.72.09-1.2-.62-1.41.24-3.31,5.33-6.46,10.83-9.6,16.34-.36.59-.73,1.17-1.08,1.77a1,1,0,0,0-.1.29C162.72,85.32,159.93,90.19,157,94.94Zm1.65,4.23c.79-2.82,2.72-5,4.23-7.29s3.31-5.32,4.7-7.52c.92.8,2.16,1.29,2.59,2.59-2.34,4.08-4.8,8-6.82,12.45C161.84,99.28,159.79,99.67,158.65,99.17Zm9.64,0c2.43-4.78,4.65-9.76,7.52-14.1-.72,4.92-1.69,9.59-2.59,14.33C172,99,169.92,99.25,168.29,99.17Z"/><path class="cls-2" d="M97.32,4.7A57.88,57.88,0,0,0,98,11a21.15,21.15,0,0,1,5.17-1.41C101.84,7.83,101.85,3.33,97.32,4.7Zm3.53,3.06A1.38,1.38,0,0,1,98.5,6.34,1.38,1.38,0,0,1,100.85,7.75Z"/><path class="cls-2" d="M104.14,11c.76,1.12,1,2.79,2.35,3.29C105.48,13.46,105.64,11.42,104.14,11Z"/><path class="cls-2" d="M102,12.92c.06-.38-.22-.4-.23-.7h-.71c4.24,16,8.84,31.74,12.92,47.94.6-4-1.24-8-2.35-11.75C108.19,36.72,105.44,24.57,102,12.92Z"/><path class="cls-2" d="M131.16,82.72c-1-7.53-2.79-15-3.29-22.09-.09-1.2.16-2.33,0-3.29-.6-3.67-3.21-7.22-4.94-11-3.5-7.76-7-14.05-10.81-21.15-1.9-3.57-3.29-7.39-5.87-10.1,6.49,14,14.56,26.49,20.44,41.12-2.58,2.82-6.88,3.93-10.11,6.11-1.53,0-.75-2.38-1.88-2.82-.37.65-.36,1.68-.71,2.35-2.42-.24-4.12-1.2-6.35-1.65-3-6.93-3.35-14.9-4.93-22.79-.76-3.76-1.65-7.67-2.35-11.52-.76-4.18-1.29-8.29-1.64-12.45-.08-.31-.42-.37-.47-.7-.2,0-.22.09-.24.23a247.67,247.67,0,0,0,4.7,28.67c2,8.85,3,17.7,5.64,25.38,2.45,7.2,6.18,14.6,9.16,21.86,3.07,7.46,6.18,14.59,9.4,21.62.14-2.24-1.36-4.14-2.11-6.11-5.4-14.12-12.36-27.81-17.39-42.77,3.17-.84,5.09,1.45,8.22,1.41,4.94,13.08,8.76,27.27,13.4,40.65-2.41-13.81-8.17-26.3-11.28-40.18,2.48-1.83,4.82-3.8,8.46-4.47,3.7,11.24,4.38,26.32,6.11,39.95.22,1.74-.1,4,1.18,5.41,1,.23-.3-3.39-.47-4.46C132.19,94.6,131.9,88.5,131.16,82.72Z"/><path class="cls-2" d="M109.07,32.9c.54-1.84,2.06-3.86,1.65-5.88C110.15,28.83,108.75,31,109.07,32.9Z"/><path class="cls-2" d="M143.38,39.72c.72-.18.45.64,1.18.47,1.43-3.11,3.5-5.58,5.17-8.46a4.38,4.38,0,0,1-1.41-.71A60.82,60.82,0,0,0,143.38,39.72Z"/><path class="cls-2" d="M142.91,31.25a6,6,0,0,0,2.35,1.41c0-.42.29-.5.23-.94C144.5,31.75,143.65,30.74,142.91,31.25Z"/><path class="cls-2" d="M141.26,36.19c.15.69.87,1.6,1.41,1.17C142.6,36.57,141.89,36.43,141.26,36.19Z"/><path class="cls-2" d="M105.55,46.29c.72-1.77,2.33-3.69,1.64-6.11C106.68,42.17,104.9,43.92,105.55,46.29Z"/><path class="cls-2" d="M112.6,45.82c.3,1.74,3.71,3.65,4.93,4.47C116.31,48.37,113.89,47.66,112.6,45.82Z"/><path class="cls-2" d="M120.59,46.29c-1.29,1.38-1.34,4-2.12,5.87C119.66,50.7,120.06,48.43,120.59,46.29Z"/><path class="cls-2" d="M106.25,49.58c.2,2.62,3.89,3.78,5.17,6.11C111,53.31,107.66,51.78,106.25,49.58Z"/><path class="cls-2" d="M118.7,52.64c-1.07,1.94-2.46,4.69-2.35,7C117.68,57.88,117.84,54.9,118.7,52.64Z"/><path class="cls-2" d="M119.88,53.11c.93,1.26,3.15,1.24,4.7,1.88C124.38,53,121.08,54.1,119.88,53.11Z"/><path class="cls-2" d="M177.22,58.51c.53-.46,1.77-.2,2.35,0C179.72,57.76,177.07,57.76,177.22,58.51Z"/><path class="cls-2" d="M178.39,59.69c.09,1.09,1,1.33,1.17,2.35a6.62,6.62,0,0,1,2.59.47A3.11,3.11,0,0,0,178.39,59.69Z"/><path class="cls-2" d="M112.13,69.32c.84.47,3.38-2.51,3.52-3.53C114.55,66.89,112.59,68.38,112.13,69.32Z"/><path class="cls-2" d="M183.09,66.74c-1.43,1.06-2.24,3-3.05,4.47-6,11-12.29,23.35-18.09,34.07,1.56-.59,2.49-2.73,3.29-4.23,2.5-4.68,4.58-10.05,7.28-14.8,3.59-6.31,7.52-12.34,10.57-18.8.26-.06.16-.47.47-.47C183.56,66.74,183.28,66.79,183.09,66.74Z"/><path class="cls-2" d="M185,68.15c-1.17,9.51-.93,21.5-1.17,32.43,0,1.05-.68,3,.47,3.29,1.64.2.7-1.84.7-2.35.18-11.12-.13-22.11.47-33.13v-.7C185.23,67.78,185,67.88,185,68.15Z"/><path class="cls-2" d="M127.63,73.32c-1.58-.77-3.89-.81-6.11-.94C123,73.21,125.67,72.93,127.63,73.32Z"/><path class="cls-2" d="M114.95,76.61c.61,1.11,2.69.76,4.23.94C118.62,76.38,116.45,76.83,114.95,76.61Z"/><path class="cls-2" d="M124.11,81.31c1.22-.15,4.33-.34,4.46-2.35C127,79.68,124.84,79.77,124.11,81.31Z"/><path class="cls-2" d="M168.52,82.72a.64.64,0,0,0-.47.7c1.41.23,1.79,1.5,3.05,1.88C171,83.73,169.27,83.69,168.52,82.72Z"/><path class="cls-2" d="M122,92.59c-.52,1.3,1.76,1.84,2.82,2.35C124.45,93.58,122.72,93.59,122,92.59Z"/><path class="cls-2" d="M95.68,95.87c-.18.68-.58,1.15-1.65.94-.54.07-.26-.68-.7-.71,0-1,0-1.85.94-1.88-1.07-.59-3.07-.09-4.23,0-.9,2.47.07,4.84.7,7,2.23,0,4.73-.19,6.34.47A19.17,19.17,0,0,0,99.2,94H94.74C94.89,94.79,95.88,94.73,95.68,95.87Zm-2.12,4c-1.11,1-2.61.07-2.35-1.64a1.52,1.52,0,0,1,2.35,0Zm4-.24c-.56.3-.87.86-1.88.71C93.27,98.37,97.89,95.81,97.56,99.64Z"/><path class="cls-2" d="M129,97.52a4.35,4.35,0,0,0,1.41-3.05C129.93,95.43,129.14,96.12,129,97.52Z"/><path class="cls-2" d="M138.21,102.22c-2,2.78-3.31,6.39-2.82,11.75,1.36.05,2.44,1.63,3.29,1.41.32-2-1.67-1.62-2.58-2.35-.29-8,4-15.25,11.51-16.92-3.18,4.19-8.22,8.55-8.93,16,3-7.5,5.74-15.25,14.57-16.92C146.47,92.88,141.2,98,138.21,102.22Z"/><path class="cls-2" d="M156.77,96.82a10.61,10.61,0,0,0-8.46,2.35c-4.34,3.39-7.17,9.78-7.75,16.68,3.88-.2,6.61-1.53,9.64-2.82,2-.84,4.18-1.63,5.64-3.06a29.67,29.67,0,0,1-11.51,3.29c2.53-2.17,8.1-3.34,12.22-4.7C156.33,104.51,157.58,100.69,156.77,96.82Zm-7.52,12.46c-1.84.45-4.16,1.6-6.34.94.33-4.52,2.89-8.66,6.81-10.34C149.88,103.31,149.37,106.1,149.25,109.27Zm6.11-1.41a8.78,8.78,0,0,1-4.7.94c-.25-6-.85-14.17,6.11-10.81C156.29,101.27,156.18,104.91,155.36,107.86Z"/><path class="cls-2" d="M151.6,107.39c1.18.17,1.64-.4,2.82-.23a67.24,67.24,0,0,1,.7-8.46,8.8,8.8,0,0,0-2.58.7A46.14,46.14,0,0,0,151.6,107.39Z"/><path class="cls-2" d="M204.71,99.17c.08,1.49,2.61,2.56,3.53,4C208.39,100.5,205.49,100.9,204.71,99.17Z"/><path class="cls-2" d="M202.36,100.34V99.4a84.39,84.39,0,0,0-10.1,1.88C194.73,101.9,199.37,100.76,202.36,100.34Z"/><path class="cls-2" d="M173,100.81h-5.87c-.33,1.62-1.37,2.55-1.64,4.23h2.11a5.8,5.8,0,0,1,.71-3.76,5.79,5.79,0,0,1,3.05.47,10.22,10.22,0,0,1,.24,3.29C173.82,105.41,172.74,102.45,173,100.81Z"/><path class="cls-2" d="M158.18,105c.33.54,1.63.09,2.35.23.29-1.82,1.46-2.77,1.88-4.46h-3.52C158.39,102,158.69,103.91,158.18,105Z"/><path class="cls-2" d="M194.61,104.1c2.16.16,5-.49,7.52-.23v-2.35c-3.08.68-6.82.7-9.63,1.65C192.53,104.21,194.06,104.06,194.61,104.1Z"/><path class="cls-2" d="M204.71,101.75c-.54.48-.09,2-.23,2.82,1.52.44,2.08,1.83,3.52,2.35v-2.12A7.63,7.63,0,0,1,204.71,101.75Z"/><path class="cls-2" d="M169.7,105c1.14.12.69-1.35.94-2.12h-1.41C169.44,103.58,169.3,104.58,169.7,105Z"/><path class="cls-2" d="M91.68,108.57c.68-1.9,2.58-2.58,2.12-5.41H92.39C91.71,107.4,88.15,117,93.56,118a4.43,4.43,0,0,0,4.93-3.29C94.32,118.61,89.39,115,91.68,108.57Z"/><path class="cls-2" d="M201.89,105c-.82.51-2.73-.07-3.52.47,0,5.15.85,9.77.47,14.57,1.34.17,2.1-.25,3.29-.24C201.18,115.49,202.24,110.23,201.89,105Z"/><path class="cls-2" d="M195.78,105.51c-12.42-.6-24.81,1.9-37.6,1.41-.34,1.07-.21,2.6-.47,3.76-3.24,3.5-8.95,4.46-14.1,6.34-1.38.5-3.74.9-3.76,2.82,9.18.39,18.71-1.09,28.2-1.88s19-1.81,28.43-2.59c-4.52-.83-11,.54-16.45.47,4.49-1.54,11-1.07,16.45-1.64C196.07,111.49,196.33,108.1,195.78,105.51Zm-30.08,12c-3.52.63-10.05,1.54-14.57,1.17,4.59-.66,9.27-1.22,14.1-1.64C165.52,117.05,165.79,117.1,165.7,117.5Z"/><path class="cls-2" d="M207.77,109c-.73-1.31-2.2-1.87-3.05-3.05-.59,4.26.07,9.78-.47,14.1,1.1.07,1.64.71,2.82.7C208,117.58,207.74,113.16,207.77,109Z"/><path class="cls-2" d="M133.75,106.92c-1.78-.11-3-.72-4.7-.94a33.28,33.28,0,0,1-.47,7c1.78.41,3.39,1,5.17,1.41C133.25,112,133.93,108.91,133.75,106.92Z"/><path class="cls-2" d="M137.5,117.5c-4.33-1.31-9.34-1.94-12.69-4.23-.89-.19-.3,1.11-.47,1.65,4.26,1.54,8.94,2.66,12.92,4.46C137.8,119.2,137.36,118.06,137.5,117.5Z"/><path class="cls-2" d="M123.88,119.61c4.71,1.32,9.77,3.54,13.63,4.94.06-1.47-1.68-1.14-2.11-2.12,1-.09,1.21.67,2.11.71v-2.35c-4.29-1.58-9.36-2.39-12.92-4.7A33.81,33.81,0,0,0,123.88,119.61Z"/><path class="cls-2" d="M196.25,116.79c-18,2.15-38.17,3.49-56.63,4.47,0,.63.09,1.34-.24,1.64,20.08,1.81,37.63-3.16,57.1-3.53C196.34,118.59,196.79,117.19,196.25,116.79Z"/><path class="cls-2" d="M131.16,123.84c.24,3.32-.15,7.16-.23,11.28,3-1.36,1.69-6.57,1.65-10.58C132.2,124.2,131.47,124.23,131.16,123.84Z"/><path class="cls-2" d="M168.76,128.77c.8-.06,1.91.18,2.35-.23v-4H169C168.93,126,169.18,127.71,168.76,128.77Z"/><path class="cls-2" d="M166.18,124.78c.28,1.29-.58,3.71.47,4.23,1-.68.25-3,.7-4.23Z"/><path class="cls-2" d="M165,125h-1.18c.38,1.11,0,3,.47,4C165.78,128.93,164.65,126.23,165,125Z"/><path class="cls-2" d="M134.68,125.48c-.12,2.23.34,5-.47,6.58,1.13.49,2.19-1.1,4-.71.24-1.56.2-3.41.94-4.47.65,1.13-.05,2.92-.24,4a5.29,5.29,0,0,0,2.35-.47c.11-1.22-.25-2.92.23-3.76,1,.36.62,2.2.71,3.52,5.87-.32,11.36-1,17.63-.94a6.31,6.31,0,0,1,.94-2.82c.54.48.09,2,.23,2.82.76.05,1-.41,1.88-.24a16,16,0,0,1,.24-4C154,125.21,142.75,128,134.68,125.48Z"/><path class="cls-2" d="M170.87,130.66c-11,.87-22.14.76-32.19,1.65,20.74,0,41.14-1.33,61.33-3.06a50.44,50.44,0,0,0,5.17-.47s1.33.3.71-.47C195.11,128.69,183.2,129.67,170.87,130.66Z"/><path class="cls-2" d="M108.13,130.89c6.54-1.13,14.3-1.05,20.44-2.58-9,1.15-19.35,1-28.43,2.11C102.31,131.07,105.94,130.26,108.13,130.89Z"/><path class="cls-2" d="M206.36,129.95c.38.71.55,1.65,1.65,1.65a9.05,9.05,0,0,0-.47-1.65Z"/><path class="cls-2" d="M128.58,130.18c-1.34.07-2.37.46-3.76.47.1,1.83-.42,3-.24,4.94a23,23,0,0,0,4.23-.47C128.68,133.53,129.09,131.4,128.58,130.18Z"/><path class="cls-2" d="M200,130.89a23.3,23.3,0,0,1-.24,4,7.85,7.85,0,0,1,2.82-.24c-.13-2,1.18-2.58,2.12-3.52C204,130.22,201.11,130.68,200,130.89Z"/><path class="cls-2" d="M197.66,131.12c.1.84.63,1.25.47,2.35.6-.5.56-1.62.71-2.58C198.17,130.69,198.23,131.22,197.66,131.12Z"/><path class="cls-2" d="M122.23,130.89a45,45,0,0,0-14.1,3.06c-.68,1.22-3.3,1.14-2.58,3.05a61.42,61.42,0,0,1,10.34-.47,2.52,2.52,0,0,1-.7-2.11c.48-2,4.6-2.16,4.93,0,.05.91-.25,1.47-.94,1.65.74.72,1.74-.29,2.82,0C121.83,134.21,122.52,132.1,122.23,130.89Z"/><path class="cls-2" d="M193.43,131.6a31.77,31.77,0,0,1,.47,3.76,10.8,10.8,0,0,0,3.06-.23,24.57,24.57,0,0,1-.47-4C195.57,131.38,194.3,131.29,193.43,131.6Z"/><path class="cls-2" d="M205.65,137.24c2.14.05,1.19-4.67.47-5.4C204.47,132.24,204.65,136.23,205.65,137.24Z"/><path class="cls-2" d="M178.16,132.77v4.47c4.76-.1,8.53-1.18,13.16-1.41a40.46,40.46,0,0,1-.7-4C186.43,132.11,182.5,132.64,178.16,132.77Zm11.28,1.41a1.33,1.33,0,0,1-2.58-.47C187.29,132.54,189.6,132.42,189.44,134.18Z"/><path class="cls-2" d="M96.15,132.53c0,.52,1,.1,1.41.24C97.55,132.12,96.45,132.21,96.15,132.53Z"/><path class="cls-2" d="M208.71,132.77H208c-.17.87.4,1,.24,1.88C209.5,134.63,208.57,133.63,208.71,132.77Z"/><path class="cls-2" d="M156.3,134.18a12.83,12.83,0,0,1-.94,5.64,126.17,126.17,0,0,0,20.21-2.12,42.61,42.61,0,0,1-.23-4.93C169,133.28,162.49,133.56,156.3,134.18Zm10.1,3.29a2.07,2.07,0,0,1-.47-1.88C168.47,133.52,170,138,166.41,137.47Zm8-1.17a2.71,2.71,0,0,1-3.29.23v-1.64C172,134,175,134.14,174.4,136.3Z"/><path class="cls-2" d="M133.74,134.88c3,.21,7.76.08,10.34-.94C141,133.67,135.64,133.18,133.74,134.88Z"/><path class="cls-2" d="M97.79,134.18c1.27.84,5.44.61,6.35-.47A45.43,45.43,0,0,1,97.79,134.18Z"/><path class="cls-2" d="M142.67,137.7c-.12,1.28.63,2.3-.23,3.06,3,.46,6.69-.13,10.1-.47-.58-1.73-.08-4.28.24-5.88C148,133.71,144.42,134.77,142.67,137.7Z"/><path class="cls-2" d="M94,134.65c.43.34,2.81.63,2.59-.47A5,5,0,0,0,94,134.65Z"/><path class="cls-2" d="M190.14,137.24c4-.48,8.29-.3,11.75-1.17.45-.12.63.18.71-.71-7.7,1.23-15.9,2-23.73,3.05C182.39,138.71,186.2,137.71,190.14,137.24Z"/><path class="cls-2" d="M177,135.59c-.32.11-.57,2.12.23,1.88A4.39,4.39,0,0,1,177,135.59Z"/><path class="cls-2" d="M208.47,136.3c-.84.78,1.09.78,1.88.7,0-.59.44-.73,0-1.18C209.85,136,208.86,136.82,208.47,136.3Z"/><path class="cls-2" d="M134.92,137.47c1.66.58,6.3.24,7.29-1.41C140.38,136.2,135.86,135.67,134.92,137.47Z"/><path class="cls-2" d="M97.32,136.53c1,1.06,3.86,0,5.17-.23C101.57,135.35,98.59,136.27,97.32,136.53Z"/><path class="cls-2" d="M93.09,136.77c-.26,1.3,2.35.65,2.82.47a1.12,1.12,0,0,0,.24-.71A6.32,6.32,0,0,0,93.09,136.77Z"/><path class="cls-2" d="M132.34,136.77v1.17H134a5.3,5.3,0,0,0,.47-1.41A5.06,5.06,0,0,1,132.34,136.77Z"/><path class="cls-2" d="M203.07,137c-19.71,2.3-38.69,5.33-59.45,6.58a7.89,7.89,0,0,1,2.12,1.88c17.29-1.33,34.71-4.21,51.7-6.35,2.29-.29,4.86.07,6.81-1.41h-.47A1.18,1.18,0,0,0,203.07,137Z"/><path class="cls-2" d="M111.89,141.23c5.36-.34,12.06-1.09,17.16-1.64V137.7c-6.49.64-14.75,1.54-21.85,2.35C107.68,142.06,110.26,141.34,111.89,141.23Z"/><path class="cls-2" d="M105.55,138.88c4.65-.37,9.19-.84,13.86-1.17A48.15,48.15,0,0,0,105.55,138.88Z"/><path class="cls-2" d="M145,147.34c-1.06.15-3-.25-3.53,1.17,11.39-1,22.72-2.84,34.07-4.46,11.1-1.59,23.15-2.11,33.37-5.17a1.32,1.32,0,0,0,.23-.94c-9,3.66-22.66,3.84-33.84,5.64C165.22,145.21,155.32,145.86,145,147.34Z"/><path class="cls-2" d="M101.08,137.94a20,20,0,0,0-3.76.47,4,4,0,0,0,.47,2.35c1.46-.42,3.56-.2,4.94-.7C102.35,139.18,100.75,139.52,101.08,137.94Z"/><path class="cls-2" d="M134.68,139.82c.66,1.35,3.93-.13,5.88.24.21-.5.71-.7.7-1.41C139.56,138.62,135.62,138.3,134.68,139.82Z"/><path class="cls-2" d="M93.33,138.88c.16.88.72,1.49,0,2.11.61.6,1.69-.33,2.82,0,.29-.41-.1-1.64-.24-2.35C94.8,138.47,94.3,138.91,93.33,138.88Z"/><path class="cls-2" d="M131.87,139.11c.06.84-.71.86-.71,1.65,1.12.18,1.51-.37,2.58-.24,0-.37-.11-.89.24-.94C133.9,138.81,132.63,139.22,131.87,139.11Z"/><path class="cls-2" d="M142.91,142.17c2.89.81,7.71-.41,11.28-.47C150.58,141.07,146.87,142.36,142.91,142.17Z"/><path class="cls-2" d="M128.34,141.94c0-.27-.05-.42-.23-.47-8.56,1.86-19.67,1.17-28.2,3.06,8.94-.3,18.74-1.78,28.44-2.12C128.49,142.19,128.62,142,128.34,141.94Z"/><path class="cls-2" d="M98.26,141.94c.58,2.45,4.13,0,6.11.24C103,140.71,100.35,142,98.26,141.94Z"/><path class="cls-2" d="M135.15,142.4c.4,2.1,3.37,1.26,5.41,1.18C141,141.31,137.18,142.1,135.15,142.4Z"/><path class="cls-2" d="M94.74,142.4v1.18c1,.16,1.32-.4,2.35-.23C97.24,141.63,95.93,142.42,94.74,142.4Z"/><path class="cls-2" d="M134.21,142.64h-2.58c-.21.52,0,1-.23,1.88.71-.47,2.38,0,3.05-.47C134.46,143.5,134,143.36,134.21,142.64Z"/><path class="cls-2" d="M137.74,145.46c.84,1.65,3.21.37,5.4.7C142.59,144.67,139.29,145.24,137.74,145.46Z"/><path class="cls-2" d="M132.57,145.93c.4,1.08,2.47.69,3.53.47C135.51,145.13,134,146.1,132.57,145.93Z"/><path class="cls-2" d="M135.86,148.51c1,.66,2.19.34,3.52.24C138.92,147.79,136.75,148.42,135.86,148.51Z"/><path class="cls-2" d="M119.65,44.65c-2.26-1.89-6.32-3.24-8.69-4.23C113.5,42.17,116.92,43.06,119.65,44.65Z"/><path class="cls-2" d="M177.24,63.24l-.26,0Z"/><path class="cls-2" d="M185,64.15c-2.65-.23-5.06-.7-7.73-.91,1.41.23,4.58,2,5.85,1.15.35.11-.09.3,0,.71.55.07.88.37,1.65.23C184.64,64.76,185.17,64.82,185,64.15Z"/><path class="cls-2" d="M167.82,80.84c2.07-4.05,4.22-8.28,6.58-12.46.75-1.32,1.82-2.53,1.88-4-6,10.34-12.06,21.94-18.09,31.49C162.15,91.62,164,85.23,167.82,80.84Z"/><path class="cls-2" d="M126.23,64.62c-1.92.12-4.17,1.93-6.35,2.58C121.74,67,124.21,65.42,126.23,64.62Z"/><path class="cls-2" d="M138.21,106.92c2.17-2.69,3.42-6.3,6.11-8.46C141.94,99.85,138.58,103.53,138.21,106.92Z"/><path class="cls-2" d="M144.56,108.57c.63.31,2.18-.47,3.52-.24,0-2.38.56-4.14.47-6.58C146.81,103.61,146,106.41,144.56,108.57Z"/><path class="cls-2" d="M189,121c2.13.4,5.27-.2,7.52-.47C194.23,120,191.63,121.17,189,121Z"/><path class="cls-2" d="M155.13,141.7c2-.25,4-.57,6.11-.71C159.65,140.74,156.39,140.85,155.13,141.7Z"/></g></g></svg>