<svg xmlns="http://www.w3.org/2000/svg" viewBox="0 0 142.14 160.95"><defs><style>.cls-1{fill:#191818;}.cls-1,.cls-2{fill-rule:evenodd;}.cls-2,.cls-3{fill:#fff;}</style></defs><title>Ресурс 3</title><g id="Слой_2" data-name="Слой 2"><g id="Layer_1" data-name="Layer 1"><path class="cls-1" d="M112.62,97.27c-.35-8,.35-14.77,0-22.4-.33-7.32,0-14.59-.36-21.85-.69-15.71-.91-30.88-.55-46.08a3.92,3.92,0,0,1-.36-2.37c.34-.27,1.21,0,1.46-.36-.35-.38-1.53.07-1.64-.55-.53.6.13,2-.55,2.73-1.88-.43-4.06-1.52-6-1.27,1.06,0,1.36.7,1.82,1.27-24.87.47-49.05-.2-73.94.37.26-.53,1.29-.29,1.27-1.09a5.22,5.22,0,0,0-2.91,1.09c-.27,0-.27-1.08-.37-.18-.88.48-.2,1.13-.18,2.18,0,2.81-.41,7.34-.18,10.56.19.68-.61.36-.73.73.42.06.85.12.73.73-.25,2.52.47,5,0,7.1a118.75,118.75,0,0,0-16,.55c1.46,1-.55,3.6-.36,5.65.43.66.63-1.42.91-.91.26,10.49.47,20.91,0,31.33-1.16,25.4.41,50.5.36,75.95-.52-.15-.11-1.22-.91-1.09a7.67,7.67,0,0,0,.73,4.37,7,7,0,0,0-2.37.36c5,.85,11.69,0,16.94.55,0,2.46-.08,4.48,0,6.56.71,0,.21-1.13.73-1.28a7.43,7.43,0,0,0,5.28.55,4,4,0,0,1-1.46-.55c24.84-.22,49,.31,73.4-.18-.54.06-1.11.11-1.27.55,2.42,1,5.65-1.21,6.92.36C112.42,134,113.44,115.92,112.62,97.27ZM36.12,9.3c-.37-.9-2.74-1.38-4.19-1.82,25.1.15,51.06.07,76.49-.36-.82.64-2.27.65-2.91,1.46,1.86.41,3.26-1.23,5.28-1.28,0,7.13-.12,14.45.18,21.31-1.69-3.59-4.28-6.28-5.83-10a44.92,44.92,0,0,0-9.83,0,13.65,13.65,0,0,0-2.43.13,14.77,14.77,0,0,1-6-.63c-.72.27.78.76.18.91a72.67,72.67,0,0,0-10.2.36c-.92-.22.64-.71.37-1.46-.67-.77-1.09,1.2-1.64.55,0-1.77-.31-3.21-.18-5.1-.77,1.42-.47,3.9-.55,6-1.06-.22-1.65-.9-2.91-.91-.4.45.38.83.91.91-12.52.35-26.9.31-39.88.18.16-.44,1-.2.91-.91-1.42-.15-1.79.76-2.91.91.14-4-.25-7.52-.18-11.47C32.72,8.34,34.17,9.07,36.12,9.3ZM75.65,21c.59-.11.85.12,1.27.18.62-.44-.87-.81-.36-1.09,3.6.25,6.45-1.19,10-.36-.36.37-1,.44-1.09,1.09,1,0,1.35-.71,2.19-.91C86,22.6,84,25.09,82.75,28.24c-2.11-.38-4.88-.09-7.28-.18C75.4,25.57,75.78,23.53,75.65,21ZM31,21c1.27.12,1.75,1,3.09,1.09.48-1-2-1.49-2.18-1.82,13.54-.35,28.74,1,42.07-.18-.74.59-2.12.55-2.73,1.28a5.77,5.77,0,0,0,3.64-.73v7.29c-14.22.09-29.24-.56-43.71-.37C30.79,25.68,31.14,23.09,31,21ZM20.64,52.65c-1.33,14.12,0,30.84-.73,45.53a34.79,34.79,0,0,0,9.11.18c-.22,15.21.18,29.73,0,45.35-4.32-.23-8.6-.2-12.93,0,.44-1.34,1.27-3.2,1.09-4.55-1-.73-.83,2.2-1.46,1.82.33-23.44-1.51-47.69-.37-71.76a330.39,330.39,0,0,0,0-37.34c.21-.91.4,1,.91.91.87-1.14-.33-2.8-.55-4,5,.12,9.57-.14,14.2-.37-.8,6.92,0,15.89,0,23.68C26.64,52.08,23.86,52.59,20.64,52.65Zm91.79,96c-1.64-.24-3-.81-4.74-.91-.45.41,1.59.82,1.28,1.09-26.84,1-50.41-.32-76.68.36-.91-.16.83-.38.73-.91-.82-.94-2.44.79-3.1.55v-4.37c23.23.4,48.81.3,73,.18,2.75,0,6.08-.23,9.47-.36Z"/><path class="cls-2" d="M90.58,19.69c1.28,1.12,5.51.44,7.1.36,2.06-.09,4.63.64,5.28-.73C98.58,19.19,94.77,19.63,90.58,19.69Z"/><path class="cls-2" d="M88.76,20A40.26,40.26,0,0,1,86,24.6c-1.25,2-3.09,3.73-2.19,5.65,1.58-3.59,4-6.32,5.65-9.83C89,20.55,89.12,20.05,88.76,20Z"/><path class="cls-2" d="M103.51,20.78c2.38,2.41,3.43,6.16,5.65,8.74,0-.4.77-.08,1.09-.18-1.85-3.19-3.71-6.37-5.83-9.29C104.28,20.45,103.56,20.28,103.51,20.78Z"/><path class="cls-2" d="M101.87,20.78c-3.12.59-7.29.12-10.57.55,1.72,1.59,6.82.33,10.2.73C101.47,21.59,102.64,20.81,101.87,20.78Z"/><path class="cls-2" d="M102.42,22.23c1.86,2.45,3.38,5.24,5.28,7.65A62.5,62.5,0,0,0,103,21.32C102.75,21.6,102.74,22.07,102.42,22.23Z"/><path class="cls-2" d="M84.75,30.43c.57.09.64-.33,1.27-.18,1.59-2.85,3.51-5.35,5.28-8-.47-.2-.67-.66-1.27-.73C88.75,25,86.15,27.09,84.75,30.43Z"/><path class="cls-2" d="M98.23,98c-1.51.35-3.28,2.18-4.74,3.1-1.81,1.13-3.36,2.2-5.28,2.37,2.36-2.86,6.28-4.17,9.11-6.56.12-.91-.24-2.3.18-2.91a63.31,63.31,0,0,1,12-.18c.11-10.58-.15-19.79-.54-29.69a12.91,12.91,0,0,1-6.56-.73,50.81,50.81,0,0,1-13.66,8.74C90.54,70,93,68.6,95.31,67s4.41-3.54,7.1-4.55c-.05-1.15-.46-1.78,0-2.37,2.12-.07,3.74-.06,6.38-.18-.29-9.61-.17-19.62-.55-29.14-3-.54-4.47-7.06-6.92-7.83-2.61-.83-5.54.46-8.92-.18-2.72,1.78-3.84,6.94-6.74,8.56-1.8,1-4.49-.19-7.47.36.07,8.86-.28,19.45.18,28,4-.19,9.23-.5,12.57.55-.25.73.3,2.21-.18,3.09a51.14,51.14,0,0,1-15.84-.18c-1-9.87-1.15-20.59-1.27-31.33a117.89,117.89,0,0,0-16.76-.18c.29,9.54.37,19.3.73,28.78a20.88,20.88,0,0,1,4.19.18c.56.23.09.59.36,1.28,2.8-1.46,5.18-5.65,8.74-6.37-2.12,3.64-5.85,5.69-8.92,8.38-3.79-.15-9.09.56-13.3,0-.37-.84-1-1.45-.73-2.91,1.4-1.09,4.66-.31,6.92-.55-.19-8.93-.44-19.34-.73-28.78-6.43-.21-13.58.31-20.22,0,.15,10,.38,20.12.18,30.05,1.06.4,2,.92,2.19,2.19,1.07-1.32,2.46-2.82,3.83-4.19,1.2-1.2,3-3.21,4.37-2.91a31.38,31.38,0,0,1-4.37,4.92c-1,1-3.41,4.3-4.55,4.74-1.42.54-3-.15-4.55.18-.79,1.93-4,4-4.55,5.83-1.31,4.76,2.29,7.13,3.64,10.2a13.28,13.28,0,0,1,4.74,0,7.77,7.77,0,0,1,0,3.64c0,.83-1.56.15-1.64.91.2,17.1.27,36,.55,53,12.37.26,26.17-.29,39.52,0-.39-9.44-.08-19.59-.18-29.32-6.52-.09-13.89.17-18.94,0,.1-1.12-.21-2.64.18-3.46a153.78,153.78,0,0,1,18.76-.55c0-4.46,0-8.76-.36-12.2,1.25.09,2-.32,3.28-.18,3.2,3.05,8.79,4.69,10.93,8.2-2.84-.94-5.34-3.1-7.65-4.55-.76-.48-1.67-1.23-2.37-1.09.15,14.77.25,28.75.37,43.16,10.69-.33,21.25.45,32.05,0,.48-13.87.36-28.16.18-42.25C105.6,99.36,101.81,97.17,98.23,98Z"/><path class="cls-2" d="M40.13,28.61H38.86c.48,1,1.32,2.56,2.91,1.82A5.69,5.69,0,0,1,40.13,28.61Z"/><path class="cls-2" d="M42,29.52v-.91h-.73C41.24,29.14,41.64,29.29,42,29.52Z"/><path class="cls-2" d="M42.86,28.61v.73c2.31.17,7.24.61,8.2-.37C49,28.14,45.49,28.84,42.86,28.61Z"/><path class="cls-2" d="M31,28.79C31,30,32.58,31.44,33,31A3.37,3.37,0,0,0,31,28.79Z"/><path class="cls-2" d="M32.48,29c.83.51,1.21,2.43,2.73,1.64C34.44,30,34,28.18,32.48,29Z"/><path class="cls-2" d="M35.58,28.79c-.26.1-.94-.21-.91.18a4.23,4.23,0,0,1,1.28,1.64c.38-.11,1.2.22,1.27-.18A3.05,3.05,0,0,1,35.58,28.79Z"/><path class="cls-2" d="M37.76,28.79c-.38.11-1.2-.23-1.28.18a6,6,0,0,1,1.28,1.64c.49-.11,1.45.23,1.64-.18C38.53,30.21,38.23,29.41,37.76,28.79Z"/><path class="cls-2" d="M52.33,29c1.11.22,1.11,1.56,2.37,1.64C54.59,30.24,53.45,28.35,52.33,29Z"/><path class="cls-2" d="M55.07,28.79c-.21,0-.52,0-.55.18.93.4,1,1.67,2.37,1.64A8.5,8.5,0,0,0,55.07,28.79Z"/><path class="cls-2" d="M56.52,29c.81.41,1.35,2,2.73,1.27C58.19,30.09,57.92,28.19,56.52,29Z"/><path class="cls-2" d="M58.52,29c.9.2,1.17,2,2.37,1.27C60,30.06,59.58,28.41,58.52,29Z"/><path class="cls-2" d="M61.8,29c2.68.58,7.39.12,10.56,0A61.48,61.48,0,0,0,61.8,29Z"/><path class="cls-2" d="M73.64,29c.58,1.85,2.05,2.8,3.28,4C77.18,30.94,75,30,73.64,29Z"/><path class="cls-2" d="M75.46,29.15a3.54,3.54,0,0,0,3.1,1.64C78.63,29.84,77.3,28.8,75.46,29.15Z"/><path class="cls-2" d="M80.56,29.15c-.55.11-1.57-.23-1.82.18.43.42,1.17.53,1.09,1.46.55-.12,1.57.23,1.82-.18A2.44,2.44,0,0,1,80.56,29.15Z"/><path class="cls-2" d="M71.46,29.7a57.76,57.76,0,0,0-9.47.55c3.17,0,7.54.83,10.38,0C72.45,29.77,72,29.75,71.46,29.7Z"/><path class="cls-2" d="M52,29.88v.91c.32-.11,1.07.22,1.09-.18C52.57,30.5,52.61,29.85,52,29.88Z"/><path class="cls-2" d="M42.86,30.43c2.44.06,6.19.72,8.2,0C48.91,30.29,45,29.78,42.86,30.43Z"/><path class="cls-2" d="M109.7,31.52c.15-.46.5-.71.55-1.27C109.62,30.12,109.23,31.16,109.7,31.52Z"/><path class="cls-2" d="M31,30.61c0,1.53,1.22,1.81,1.82,2.73C33,31.67,31.71,31.44,31,30.61Z"/><path class="cls-2" d="M109.7,34.26c.1-1.12,1.59-1.81.91-3.1C110.28,32,109,33,109.7,34.26Z"/><path class="cls-2" d="M56,33.53V31.71h-.91A2.66,2.66,0,0,0,56,33.53Z"/><path class="cls-2" d="M32.85,35.71V34.07c-.81-.23-1.18-.88-1.82-1.28C31.15,34.25,32.13,34.85,32.85,35.71Z"/><path class="cls-2" d="M109.88,36.26c0-1,1.25-1.79.55-2.92C110.37,34.3,108.86,35.39,109.88,36.26Z"/><path class="cls-2" d="M74.92,33.89c-.17,1.81,1.3,2,2,2.91C77,35.07,75.68,34.77,74.92,33.89Z"/><path class="cls-2" d="M55.25,34.44c-.09.57.22.75.54.91A.66.66,0,0,0,55.25,34.44Z"/><path class="cls-2" d="M33,38.81c.3-2.3-1.23-2.78-2-4C30.74,37.09,32,37.84,33,38.81Z"/><path class="cls-2" d="M76.92,39c0-1.73-1.23-2.16-1.82-3.28C74.88,37.63,76.06,38.15,76.92,39Z"/><path class="cls-2" d="M110.43,35.71c-.05,1-1.24,1.79-.55,2.91C110,37.79,111.49,36.53,110.43,35.71Z"/><path class="cls-2" d="M55.79,36.62c-.26,0-.31-.3-.54-.36v.55c.45,2.88.25,6.42.54,9.47.06.29.26,0,.18-.37C55.87,42.86,56.2,39.37,55.79,36.62Z"/><path class="cls-2" d="M31.21,38.08c-.11,1.81.86,2.54,1.82,3.28C33.31,39.38,32.06,38.92,31.21,38.08Z"/><path class="cls-2" d="M110.07,39.17H111a1.48,1.48,0,0,0-.36-1.09C110.44,38.45,110.24,38.8,110.07,39.17Z"/><path class="cls-2" d="M75.1,38.63c-.15,1.79,1.07,2.21,1.82,3.1C77,40,75.86,39.51,75.1,38.63Z"/><path class="cls-2" d="M109.7,51.38c.65-2.51.58-8.43,0-11.48Z"/><path class="cls-2" d="M110.43,48.28c0,1-.45,2.69.55,3.1a57.55,57.55,0,0,0-.36-11.29C110.45,42.57,110.43,45.47,110.43,48.28Z"/><path class="cls-2" d="M31.21,41c-.31,2.14.84,2.8,1.82,3.64C33.43,42.41,32,42,31.21,41Z"/><path class="cls-2" d="M75.1,41c-.68,2.37,1.07,3.26,2,4.55A4.73,4.73,0,0,0,75.1,41Z"/><path class="cls-2" d="M31.21,43.91c0,1.62,1.1,2.18,1.82,3.1C33.31,45.08,32,44.77,31.21,43.91Z"/><path class="cls-2" d="M74.92,43.91c-.15,2.15,1.11,2.89,2.18,3.83C77,45.84,75.92,44.91,74.92,43.91Z"/><path class="cls-2" d="M31.21,46.28c-.21,2,.89,2.63,1.82,3.46C33.25,47.75,32.07,47.17,31.21,46.28Z"/><path class="cls-2" d="M75.1,46.46v1.46c.85,0,1.59,2,2,1.27C76.82,47.9,75.77,47.37,75.1,46.46Z"/><path class="cls-2" d="M55.79,47.55c.24,1.49-.71,3,.73,3.28C56.16,49.85,56.78,47.9,55.79,47.55Z"/><path class="cls-2" d="M75.28,49c-.39,2.27,1,2.8,1.82,3.83C77.53,50.53,76.27,49.9,75.28,49Z"/><path class="cls-2" d="M31.21,49.19c.23,1.22,1.15,1.76,1.82,2.55C33.06,50.25,31.91,49.94,31.21,49.19Z"/><path class="cls-2" d="M31.21,51c-.26,2.27,1,3,2,4C33.6,52.63,32.27,52,31.21,51Z"/><path class="cls-2" d="M55.79,51.56c0,.87-.23,2.05.55,2.18C56.3,52.57,56.7,52,55.79,51.56Z"/><path class="cls-2" d="M75.28,51.92a3.28,3.28,0,0,0,2,3.82C77.61,53.48,76.27,52.88,75.28,51.92Z"/><path class="cls-2" d="M109.7,54.11c0-.74.55-1,.55-1.82-.23,0-.25-.23-.55-.18C109.47,52.43,109.35,53.8,109.7,54.11Z"/><path class="cls-2" d="M109.7,57.38c.16-1.82,1.91-3.86,1.27-5.28A6.91,6.91,0,0,0,109.7,57.38Z"/><path class="cls-2" d="M29.75,52.65a58.81,58.81,0,0,1-8.38.73c-1.26,14.07,0,29.79-.55,44.44,2.67-.46,5.35.09,8.2,0-.12-.79.24-2.06-.18-2.55a16.46,16.46,0,0,1-5.46,0c.09-12.34-.66-26.66.36-39,.12.42.83.27.91.73.33,1-.88.46-.55,1.46.4,11.83,0,24.36-.18,36.24,1.71-.11,3.87.23,5.28-.18V92.72c-1.15-.36-2.52.41-3.28.18-.65-6,.68-14-1.27-18.76.29.13.74,1.65.91.73.11-6-.17-12.31.73-17.48,1,.26,3.23.41,3.83-.36V55.75c-2.22-.18-5.13,1.19-6.56-.36,2.15-.28,4.33-.53,6.56-.73C30,54,30.41,52.78,29.75,52.65Z"/><path class="cls-2" d="M31.21,53.74c-.09,2,1.31,2.58,2,3.83V55.75C32.17,55.45,31.91,54.37,31.21,53.74Z"/><path class="cls-2" d="M109.52,60.12a6.12,6.12,0,0,0,1.64-5.65C110.83,56.57,109.7,57.87,109.52,60.12Z"/><path class="cls-2" d="M55.79,54.83c.23,1.83-.53,4.66.55,5.65C56.18,59.29,56.87,55.72,55.79,54.83Z"/><path class="cls-2" d="M75.46,55c-.35,1.93,1,2.11,1.82,2.91C77.51,56.13,76.19,55.87,75.46,55Z"/><path class="cls-2" d="M33.21,59.57c.1-2-1.37-2.39-2-3.64C31.15,57.87,32.53,58.37,33.21,59.57Z"/><path class="cls-2" d="M75.46,57c-.32,1.77,1.08,1.83,1.82,2.55C77.46,57.94,76.24,57.7,75.46,57Z"/><path class="cls-2" d="M31.21,57.93c.19,1.51,1.28,2.12,2,3.1C33.15,59.38,31.88,59,31.21,57.93Z"/><path class="cls-2" d="M30.11,58.66a7.54,7.54,0,0,0-3.28,0c-.2,3.57-.63,7.87-.18,11.47a30.55,30.55,0,0,1,3.46-4.37C30.06,63.18,30.47,61.07,30.11,58.66Z"/><path class="cls-2" d="M110.07,63.21c.13-1.69,1.71-2.9,1.09-4.73C110.87,60,109,61.45,110.07,63.21Z"/><path class="cls-2" d="M78.92,62.67c.79-.12,2.06.24,2.55-.18-2.18-1.17-4-1.7-5.83-3.28C75.46,61.64,78.47,60.88,78.92,62.67Z"/><path class="cls-2" d="M80.2,61c1.47.31,2.66,2.37,4.37,1.28C83.41,61.7,82.25,60.13,80.2,61Z"/><path class="cls-2" d="M103.33,62.12a4.11,4.11,0,0,0,.36-1.09.85.85,0,0,1-.55-.18C103.26,61.22,102.92,62,103.33,62.12Z"/><path class="cls-2" d="M31.21,61V62.3H32.3A2.06,2.06,0,0,0,31.21,61Z"/><path class="cls-2" d="M84,61.21c1.24.22,1.52,1.4,2.91,1.46C86.33,61.94,85.48,60.49,84,61.21Z"/><path class="cls-2" d="M86.75,61.21c1,.35,1.15,1.65,2.91,1.27V61C88.76,61.15,87.37,60.79,86.75,61.21Z"/><path class="cls-2" d="M108.61,61a7.42,7.42,0,0,0-.91,1.64c.56-.13.54.31,1.09.18C108.68,62.3,109,61.28,108.61,61Z"/><path class="cls-2" d="M75.83,62.67c.73-.12,1.93.24,2.37-.18a15.25,15.25,0,0,1-2.37-1.27Z"/><path class="cls-2" d="M103.69,62.48a1,1,0,0,1,.73.18c0-.64.52-.81.55-1.46h-.73C104.19,61.77,103.84,62,103.69,62.48Z"/><path class="cls-2" d="M104.79,62.67h.91c0-.64.52-.81.55-1.46C105.19,61.13,105.31,62.22,104.79,62.67Z"/><path class="cls-2" d="M106.24,62.67c1.33.24,1.25-.94,1.82-1.46C106.65,60.89,106.67,62,106.24,62.67Z"/><path class="cls-2" d="M51.79,63c-1.06,0-1.35-.83-2.18-1.09-.15.63.27.7.18,1.27,1.15-.12,2.79.24,3.64-.18-1.17-.41-1.53-1.63-3.09-1.64C50.53,62.22,51.62,62.16,51.79,63Z"/><path class="cls-2" d="M52.7,61.57c.86.6,1.82,2.06,3.46,1.27C55.09,62.46,54.32,60.81,52.7,61.57Z"/><path class="cls-2" d="M55.61,61.57c1.09.61,1.58,1.81,3.64,1.46C58.55,62.16,57.28,60.88,55.61,61.57Z"/><path class="cls-2" d="M58.71,61.57c1,.23,1.25,1.18,2.18,1.46C61.32,61.51,59.75,61,58.71,61.57Z"/><path class="cls-2" d="M110.25,66.49c.28-1.6,1.64-3.09.91-5.1C110.81,63.21,109.42,64.47,110.25,66.49Z"/><path class="cls-2" d="M31.94,65.4a10,10,0,0,1,3.1,0V63.76C33.22,63.43,31.39,64,31.94,65.4Z"/><path class="cls-2" d="M110.07,69.22a4,4,0,0,0,1.09-4C110.93,66.69,109.88,67.33,110.07,69.22Z"/><path class="cls-2" d="M110.43,72.32c.06-1.28,1.37-2.27.73-3.64C110.68,69.53,109.77,70.93,110.43,72.32Z"/><path class="cls-2" d="M110.61,75.78c.34-1.11,1.17-2.71.55-4.19C110.63,72.85,109.89,74.19,110.61,75.78Z"/><path class="cls-2" d="M110.61,78.33c.29-.75,1.13-1.9.55-2.91C111.11,76.4,109.92,77.2,110.61,78.33Z"/><path class="cls-2" d="M110.8,81.24c.14-.88,1.37-2.46.36-3.28C111,78.89,110.17,80.13,110.8,81.24Z"/><path class="cls-2" d="M26.47,78.88c.08,4.23.45,9.13,0,13.29A16.82,16.82,0,0,1,29.2,92c.12-3.09-.16-5.8-.18-8.74C28.11,81.85,27.45,80.21,26.47,78.88Z"/><path class="cls-2" d="M110.8,85.25c.35-1.05,1.13-2.63.55-4C110.55,81.85,110.35,84,110.8,85.25Z"/><path class="cls-2" d="M30.84,84v1.27h2.73V84.16A17,17,0,0,1,30.84,84Z"/><path class="cls-2" d="M110.8,88.16c.05-.8.93-1.73.36-2.55C111,86.27,110.18,87.3,110.8,88.16Z"/><path class="cls-2" d="M30.11,86.89v1.46c.87.53,1.13,1.66,2,2.19A3.3,3.3,0,0,0,30.11,86.89Z"/><path class="cls-2" d="M31.39,87.07c.33.27.45.76.91.91V86.89C32,87,31.36,86.67,31.39,87.07Z"/><path class="cls-2" d="M110.8,91.26c.15-.81,1.38-2.11.36-2.91C110.9,89.06,110.21,90.31,110.8,91.26Z"/><path class="cls-2" d="M32.12,92.72c0-1.86-1.42-2.22-2-3.46C29.89,91.3,31.24,91.78,32.12,92.72Z"/><path class="cls-2" d="M110.8,94.72c.4-1.24,1.36-2.81.55-4.19C111,91.66,110.13,93.2,110.8,94.72Z"/><path class="cls-2" d="M30.11,91.81c.25,1.39,1.22,2.06,2,2.92C32.24,93,30.85,92.71,30.11,91.81Z"/><path class="cls-2" d="M29.93,93.45c.16,1.67,1.37,2.28,2.19,3.28C32,95,30.89,94.31,29.93,93.45Z"/><path class="cls-2" d="M110.8,98.18c.32-1.08,1.4-2.36.73-3.83C111.2,95.43,110.09,96.68,110.8,98.18Z"/><path class="cls-2" d="M98.23,94.54c.24.55,0,1.62.55,1.82a7.8,7.8,0,0,1,.73-1.64C98.93,94.81,98.86,94.39,98.23,94.54Z"/><path class="cls-2" d="M102.6,97.09c1.66.14,1.33-1.71,2-2.55C103.28,94.73,103.16,96.14,102.6,97.09Z"/><path class="cls-2" d="M99.14,97.09c1.06-.28,1.06-1.62,1.64-2.37h-.73C99.83,95.59,99.34,96.19,99.14,97.09Z"/><path class="cls-2" d="M100.41,97.09c.36-.86.9-1.53,1.28-2.37C100.69,94.78,100,96.8,100.41,97.09Z"/><path class="cls-2" d="M101,97.09c1.43,0,1.29-1.62,2-2.37C101.47,94.69,101.52,96.19,101,97.09Z"/><path class="cls-2" d="M104.42,97.27c1.18-.22.95-1.85,1.64-2.55C104.73,94.7,104.41,96.54,104.42,97.27Z"/><path class="cls-2" d="M105.7,97.09c1.56.16,1.08-1.71,1.82-2.37C106,94.57,106.28,96.27,105.7,97.09Z"/><path class="cls-2" d="M107.15,97.09c1.41.07,1.05-1.62,1.64-2.37C107.42,94.68,107.57,96.17,107.15,97.09Z"/><path class="cls-2" d="M109.34,94.9c0,.92-.64,1.18-.73,2h.91C109.41,96.29,109.76,95.21,109.34,94.9Z"/><path class="cls-2" d="M29.93,95.27c-.1,2.16,1.38,2.75,2.19,4C32.34,97,30.82,96.45,29.93,95.27Z"/><path class="cls-2" d="M75.83,96.72V95.63c-.32.17-.91.06-1.09.36C75.22,96.11,75.43,96.52,75.83,96.72Z"/><path class="cls-2" d="M75.83,98.55V97.27c-.74-.23-1.06-.89-1.82-1.09C73.93,97.65,75.07,97.91,75.83,98.55Z"/><path class="cls-2" d="M32.12,101.82c.15-2.27-1.32-2.93-2.19-4.19C30.1,99.59,31.3,100.52,32.12,101.82Z"/><path class="cls-2" d="M110.8,100.91c.16-1.11,1.57-1.95.91-3.28C111.42,98.63,110.06,99.5,110.8,100.91Z"/><path class="cls-2" d="M74.19,98.18c-.13,1.47.8,1.87,1.64,2.37C76,99,75.09,98.61,74.19,98.18Z"/><path class="cls-2" d="M74.19,100c0,1.4,1,1.83,1.64,2.55C76.08,100.9,74.88,100.71,74.19,100Z"/><path class="cls-2" d="M110.8,103.28c.39-.88,1.57-1.94.91-3.28C111.45,101,110.07,101.88,110.8,103.28Z"/><path class="cls-2" d="M74,101.64c-.28,2,1,2.44,1.82,3.28C76,103.08,75,102.37,74,101.64Z"/><path class="cls-2" d="M30.11,101.82c.11.55-.23,1.57.18,1.82,0-.27.44-.17.73-.18A2.94,2.94,0,0,0,30.11,101.82Z"/><path class="cls-2" d="M110.8,106.19c.2-1.08,1.6-1.92.91-3.28C111.37,103.86,110.1,104.83,110.8,106.19Z"/><path class="cls-2" d="M74,104.37a3.73,3.73,0,0,0,1.82,2.37A2.22,2.22,0,0,0,74,104.37Z"/><path class="cls-2" d="M30.11,104.92c.28,5.67.16,11.73.18,17.66h1.82c-.11-6.12,0-11.39,0-17.66Z"/><path class="cls-2" d="M110.8,109.11c.19-1.15,1.65-2,.91-3.46C111.4,106.68,110.06,107.64,110.8,109.11Z"/><path class="cls-2" d="M74.19,105.83c-.17,1.68.82,2.22,1.64,2.91C75.94,107.12,75,106.55,74.19,105.83Z"/><path class="cls-2" d="M59.62,108.38c-1.72.07-4.55-.66-4.37,1.64,6,.39,11.93-.25,17.85.18V108C69,107.89,64,108.19,59.62,108.38Z"/><path class="cls-2" d="M74.19,107.83c-.32,2,.68,2.72,1.64,3.46C76.07,109.35,75,108.71,74.19,107.83Z"/><path class="cls-2" d="M111,111.66c.18-1,1.42-2,.73-3.28C111.24,109.42,110.08,110.22,111,111.66Z"/><path class="cls-2" d="M74.19,110.93c.26,1.07,1.09,1.58,1.64,2.37C76.1,111.77,75,110.78,74.19,110.93Z"/><path class="cls-2" d="M111,114.94c.38-.9,1.4-2.11.73-3.46C111.21,112.26,110.3,113.59,111,114.94Z"/><path class="cls-2" d="M74.19,112.39c-.21,1.85.86,2.41,1.64,3.28C76,113.85,75,113.17,74.19,112.39Z"/><path class="cls-2" d="M111,117.85c.36-.8,1.41-1.87.73-3.1C111.39,115.59,110.3,116.62,111,117.85Z"/><path class="cls-2" d="M74.19,114.94a3.62,3.62,0,0,0,1.64,3.28C76,116.36,75.34,115.42,74.19,114.94Z"/><path class="cls-2" d="M75.83,120.95c.32-2-.71-2.57-1.46-3.46A3.09,3.09,0,0,0,75.83,120.95Z"/><path class="cls-2" d="M111,120c.2-.72,1.39-1.4.73-2.37C111.71,118.59,110.21,119,111,120Z"/><path class="cls-2" d="M111,122.77c.16-.94,1.43-1.73.73-2.91C111.33,120.54,110.14,122,111,122.77Z"/><path class="cls-2" d="M74.37,120.58a3.38,3.38,0,0,0,1.46,3.64A3.38,3.38,0,0,0,74.37,120.58Z"/><path class="cls-2" d="M111,125.32c.25-.85,1.44-1.71.73-2.91C111.46,123.29,110,124.34,111,125.32Z"/><path class="cls-2" d="M74.37,123.5a10.82,10.82,0,0,0-.18,2.19c.68.47,1.09,1.21,1.82,1.64A4.24,4.24,0,0,0,74.37,123.5Z"/><path class="cls-2" d="M30.3,123.86c-.2,1.9,1.24,2.16,2,3.1C32.85,125.28,30.8,125,30.3,123.86Z"/><path class="cls-2" d="M31.21,123.86c.06.67.77.68,1.09,1.09a1.54,1.54,0,0,0-.18-1.09Z"/><path class="cls-2" d="M111,127.87c.16-.94,1.43-1.73.73-2.91C111.45,125.8,110.27,126.67,111,127.87Z"/><path class="cls-2" d="M30.3,126c0,1.73,1.21,2.19,2,3.1C32.5,127.24,31.06,127,30.3,126Z"/><path class="cls-2" d="M74.37,126.78c-.6,1.72.89,2.85,1.64,3.82A3.71,3.71,0,0,0,74.37,126.78Z"/><path class="cls-2" d="M111,131c.45-.83,1.37-2.15.73-3.46C111.45,128.52,110.24,129.56,111,131Z"/><path class="cls-2" d="M30.3,128c-.13,2,1.24,2.4,2,3.46C32.58,129.41,31.18,129,30.3,128Z"/><path class="cls-2" d="M74.19,129.32c-.23,2.11,1.1,2.66,1.82,3.83C76.24,131,75.12,130.28,74.19,129.32Z"/><path class="cls-2" d="M30.11,129.87c-.27,2.33,1.39,2.74,2.19,4C32.59,131.52,30.9,131.15,30.11,129.87Z"/><path class="cls-2" d="M111,133.51c.38-.6,1.32-1.59.73-2.55C111.38,131.61,110.35,132.51,111,133.51Z"/><path class="cls-2" d="M74.19,131.87c0,2.44.68,4.18,2,5.28A5.17,5.17,0,0,0,74.19,131.87Z"/><path class="cls-2" d="M30.11,132.24c-.53,2,1.44,2.91,2.37,4C32.72,133.88,30.93,133.55,30.11,132.24Z"/><path class="cls-2" d="M110.8,136.43c.58-.54,1.8-2.28.73-3.28C111.16,134,110.12,135.14,110.8,136.43Z"/><path class="cls-2" d="M29.93,135c.53,1.78,1.71,2.9,2.73,4.19A4.1,4.1,0,0,0,29.93,135Z"/><path class="cls-2" d="M76.19,139.16c0-1.59-1-2.13-1.64-3.1C74.23,138,75.38,138.4,76.19,139.16Z"/><path class="cls-2" d="M110.43,137.88c.64-.27,1.78-1,1.28-1.82C111.32,136.7,110.66,137.08,110.43,137.88Z"/><path class="cls-2" d="M30.11,138.43c1.4.37,1.7,1.82,2.73,2.55-.53-1.78-1.8-2.82-2.73-4.19Z"/><path class="cls-2" d="M110.43,139.34a1.6,1.6,0,0,0,1.46-1.64C111.38,137.5,110.37,138.37,110.43,139.34Z"/><path class="cls-2" d="M74.55,138.61v1.64h1.28C75.7,139.41,75.09,139,74.55,138.61Z"/><path class="cls-2" d="M30.11,139v.91c1.49.88,1.82,3.89,4,3.46C32.71,142,31.61,140.28,30.11,139Z"/><path class="cls-2" d="M111.71,139.16c-1,1.85-3,2.71-4.19,4.37h1.28c.59-1.53,1.91-2.34,3.1-3.28C111.78,139.93,112.11,139.18,111.71,139.16Z"/><path class="cls-2" d="M30.11,141v2.55h2A6.92,6.92,0,0,0,30.11,141Z"/><path class="cls-2" d="M111.71,141c-.63,1.07-1.93,1.47-2.55,2.55a4.57,4.57,0,0,0,2.91-2C111.77,141.52,112,141,111.71,141Z"/><path class="cls-2" d="M74,143.35c1.85,0,2.54-1.22,3.64-2C75.62,141.2,75,142.46,74,143.35Z"/><path class="cls-2" d="M76,143.35c2.46.34,3.12-1.13,4.37-2C77.93,141,77.33,142.54,76,143.35Z"/><path class="cls-2" d="M79.1,143.53c1.66-.23,2.37-1.4,3.46-2.19C80.59,141.25,80.07,142.62,79.1,143.53Z"/><path class="cls-2" d="M81.11,143.53c1.7-.19,2.41-1.35,3.46-2.19C82.51,141.17,82,142.57,81.11,143.53Z"/><path class="cls-2" d="M83.11,143.53a5.11,5.11,0,0,0,3.64-2.19C84.54,141.07,84.1,142.58,83.11,143.53Z"/><path class="cls-2" d="M85.3,143.53c2,0,2.83-1.18,3.82-2.19C87,141.18,86.53,142.76,85.3,143.53Z"/><path class="cls-2" d="M87.67,143.53c2.13.13,2.77-1.23,4-2C89.5,141,89,142.74,87.67,143.53Z"/><path class="cls-2" d="M104.06,141.34c-1.63.19-2.42,1.22-3.46,2C102.43,143.36,103.21,142.31,104.06,141.34Z"/><path class="cls-2" d="M103,143.35c2,.11,2.62-1.14,3.64-2C104.56,141.17,104.14,142.64,103,143.35Z"/><path class="cls-2" d="M105.33,143.35c1.47.4,2.41-1.21,3.28-2C106.64,141.13,106.47,142.72,105.33,143.35Z"/><path class="cls-2" d="M34.85,143.53a5.51,5.51,0,0,0-1.28-2C33.7,142.5,34.35,142.94,34.85,143.53Z"/><path class="cls-2" d="M47.05,141.53c-1.09,0-3.05-.34-3.28.91,3.62.13,9.06-.12,12.93-.18.64,0,2.19.57,2-.55C56,141.46,50.6,141.43,47.05,141.53Z"/><path class="cls-2" d="M60,143.53c2.15.33,2.15-1.5,3.83-1.64a8.93,8.93,0,0,1-1.64,1.64c2.11.17,2.64-1.25,3.82-2C63.4,141.6,60.07,140.94,60,143.53Z"/><path class="cls-2" d="M64.54,143.53c1.7-.12,2.52-1.12,3.46-2C65.93,141.28,65.53,142.7,64.54,143.53Z"/><path class="cls-2" d="M69.27,143.35c2.18.3,2.91-.86,3.82-1.82C70.92,141.23,70.38,142.58,69.27,143.35Z"/><path class="cls-2" d="M72,143.35c1.35.1,2.94-1.39,2.55-1.82A7.22,7.22,0,0,0,72,143.35Z"/><path class="cls-2" d="M90.4,143.35c1.67,0,2.22-1.06,3.1-1.82C91.59,141.26,91.49,142.8,90.4,143.35Z"/><path class="cls-2" d="M92.58,143.35a6.74,6.74,0,0,0,3.28-1.82C93.91,141.28,93.46,142.52,92.58,143.35Z"/><path class="cls-2" d="M94.4,143.35c2.42.3,3.16-1.09,4.55-1.82C96.51,141.2,95.72,142.53,94.4,143.35Z"/><path class="cls-2" d="M97.68,143.35c2,0,2.91-1,4-1.82C99.39,141.17,98.66,142.38,97.68,143.35Z"/><path class="cls-2" d="M36.49,141.71c-.49.11-1.44-.23-1.64.18a7.78,7.78,0,0,1,1.09,1.64c.55-.11,1.57.23,1.82-.18C37.28,142.85,36.52,142.64,36.49,141.71Z"/><path class="cls-2" d="M37,141.89c.93.35,1.24,2.28,2.73,1.46C39,142.82,38.45,141.15,37,141.89Z"/><path class="cls-2" d="M39.22,141.89c.74.48,1.12,2.27,2.55,1.46C40.89,143,40.48,141.24,39.22,141.89Z"/><path class="cls-2" d="M40.86,141.89c.65.26.77,1,1.46,1.28v-1.46C41.88,141.82,41,141.48,40.86,141.89Z"/><path class="cls-2" d="M66.9,143.35c1.73.09,2.27-1,3.28-1.64C68.31,141.47,67.89,142.69,66.9,143.35Z"/><path class="cls-2" d="M47.78,143.17c-.27,0-.67-.07-.73.18h2.73c2.51.17,6.72.55,8.92-.18C55.33,142.17,51.64,143.48,47.78,143.17Z"/><path class="cls-2" d="M111.71,142.8c-.07.35-.71.14-.55.73h.73C111.86,143.26,112,142.86,111.71,142.8Z"/><path class="cls-2" d="M43.77,143.53c.42.58,1-.24,1.46-.18C47.25,143.39,43.62,142.68,43.77,143.53Z"/><path class="cls-2" d="M76.74,33.34c-.61.54-1.41-1.25-1.82-.91a9.1,9.1,0,0,0,2,2.19C76.81,34.24,77.15,33.42,76.74,33.34Z"/><path class="cls-2" d="M31.21,60.12c.66.46,1.34,2.54,2.19,1.64C32.21,61.78,32,59.92,31.21,60.12Z"/><path class="cls-2" d="M32.12,103.46a16.66,16.66,0,0,0-2-3.28A7,7,0,0,0,32.12,103.46Z"/><path class="cls-1" d="M133.3,121.65c-9.57-4.3-19.54-9.59-29.26-14.09-3.91-1.81-7.63-4-11.5-4.76-1.53,4.8-1,10.13.47,14.91,2,6.39,4.55,12.5,10.67,16.77a27.86,27.86,0,0,0,12.2,4.31c.89.06,1.76-.25,2.71-.26a21.12,21.12,0,0,0,7.36-1.17c5.71-1.86,10.84-4.69,14.44-11.83C139,123.61,136.08,122.9,133.3,121.65Zm-19.48,9.64a23.93,23.93,0,0,1-10-6.36,1.1,1.1,0,0,0-.41-.9c-.26-.23-.54-.45-.82-.65a13.64,13.64,0,0,1-2.4-8.73c2,1,4.08,2.1,6,2.83.15,5.55,10.59,11.77,14.79,6.56,3.06,1.62,6,2.84,9,4.31C125.82,131.38,119.89,133.47,113.82,131.29Z"/><path class="cls-2" d="M138.4,125.32c-7.5-3.54-15-7-22.48-10.55A241.36,241.36,0,0,0,138.4,125.32Z"/><path class="cls-2" d="M100.75,107.37l14.47,7.21c-4.38-2.93-9.79-5.16-14.53-7.4C100.54,107.11,100.5,107.29,100.75,107.37Z"/><path class="cls-2" d="M138.08,127.9c.08-.76,1.25-1.22.71-1.74C138.56,126.46,137.59,127.53,138.08,127.9Z"/><path class="cls-2" d="M114.57,118.77c1.3.79,3.5,1.47,4.07,2.19l-.64,1.29c-1.3,0-3.46-1.24-5.36-2.19s-4.39-1.75-3.1-3.48c1.29.09,2.92,1.21,4.39,1.87a27.71,27.71,0,0,0,1.09-3.16c-6.51-3.37-14.93-7.44-21.76-10.36-.38,1,1.67,1.16,2.13,1.87-1.34,3.92-.7,8.43.73,12.13,2,5.31,4.91,11.2,10.48,14.25,4.76,2.61,8.67,3.23,13,2.43,6.45-1.19,12.3-2.21,16.32-8.8.36-.27,1,1,1.42.39.18-.53.55-.52.71-1.1-7.18-2.9-14.72-6.88-22.15-10.56A26.65,26.65,0,0,0,114.57,118.77Zm5.69,3.48c3.8,2.06,7.74,3.43,11.24,5.6-5.25,7.87-13.6,7.18-22.46,3.32-.33.32-.4,1.32-.9,1.81-.29-.55.11-1.33.38-2.06A16.56,16.56,0,0,1,99.28,121c-1.06-3-1.69-5.36-1-8.71,2.94.54,6.52,3,9.62,4,.24,2.16.13,5,2.85,6.58a9.07,9.07,0,0,0,8,.76C119.21,123,119.85,122.95,120.26,122.25Z"/><path class="cls-2" d="M136,128.94a3.28,3.28,0,0,0,.84-1l-.77-.39C135.63,128.12,135.48,128.63,136,128.94Z"/><path class="cls-2" d="M93.19,106.34a8.3,8.3,0,0,0-.32,3.23c.38-.37,1,0,1.42-.26a7.24,7.24,0,0,1,.19-2.32Z"/><path class="cls-2" d="M135.24,129.07c-.65,1-2.4,1.67-2.32,2.71a5.06,5.06,0,0,0,2.64-2.39A.69.69,0,0,1,135.24,129.07Z"/><path class="cls-2" d="M116.06,120.32c-1.34-.61-3.11-1.62-4.39-2.19-.53-.23-1.28-.8-1.61-.32,2,.92,5.33,2.86,7.69,3.67C117.88,120.55,116.81,120.66,116.06,120.32Z"/><path class="cls-2" d="M92.81,110.35c.21,1.19,0,2.51.65,3.55,1.21-.59.54-2.75.51-3.94C93.63,110.22,93.07,109.83,92.81,110.35Z"/><path class="cls-2" d="M132.21,131.91c-.92,1.1-2.18,1.21-3.16,2.13,1.17.63,2.4-1.12,3.48-1.81C132.37,132.15,132.44,132,132.21,131.91Z"/><path class="cls-2" d="M94.11,114.22c-.21.13-.4.31-.71.13-.3.42.3.55,0,1,.29.21.4-.1.71.19-.15.31-.41.27-.52.71a.54.54,0,0,0,.78-.26C94.19,115.41,94.5,114.7,94.11,114.22Z"/><path class="cls-2" d="M94.37,117.9c.17-.25.48-.08.65-.32-.19-.29-.33-.61-.52-.9C93.85,116.9,93.9,117.5,94.37,117.9Z"/><path class="cls-2" d="M124.6,135.54c-.16,1.86,3.62-.77,4.13-.85-.24-.17-.08-.48-.32-.65C127.27,134.92,125.79,134.79,124.6,135.54Z"/><path class="cls-2" d="M94.76,118.41c-.28.45.05.7.32,1C95.79,119.28,95.47,118.33,94.76,118.41Z"/><path class="cls-2" d="M95.54,120.41c1.3-.55-1.15-1.07,0,0Z"/><path class="cls-2" d="M96.25,121.57c-.36.2-.12.92.39,1.16C97.07,122.51,96.64,121.86,96.25,121.57Z"/><path class="cls-2" d="M122.41,135.74c-.2.39,0,.64,0,1,.64.2,1.12-.09,1.68-.13C124.42,135.15,123.28,135.76,122.41,135.74Z"/><path class="cls-2" d="M96.83,123.31c-.06.17-.11.32.13.39.4,1,1,3,1.81,3.16.36-1-1.25-2.23-1.36-3.42A.81.81,0,0,0,96.83,123.31Z"/><path class="cls-2" d="M120.28,136.13c-.2.39,0,.64,0,1,.78.26,1.95-.29,1.42-1.23C121.28,136.12,120.74,136,120.28,136.13Z"/><path class="cls-2" d="M115.57,136.84c0,.23,0,.42,0,.65a8.38,8.38,0,0,0,4.13-.2c-.21-.33,0-.8-.26-1.1C118.28,136.8,116.7,136.16,115.57,136.84Z"/><path class="cls-2" d="M99,127.64a8.26,8.26,0,0,0,2.39,3.29,3.21,3.21,0,0,0,.64-.65c-1-1-1.57-2.13-2.65-3.09C99.33,127.44,99.13,127.39,99,127.64Z"/><path class="cls-2" d="M113.89,136.65a.64.64,0,0,1,0,.65c.38.06.79.24,1.1.06a.63.63,0,0,1,0-.65C114.54,136.46,114.17,136.42,113.89,136.65Z"/><path class="cls-2" d="M102.33,130.73c-.1.44-.41.27-.52.71.43.29.6.66,1.16.9a.81.81,0,0,1,.39-.45C102.89,131.55,102.88,131,102.33,130.73Z"/><path class="cls-2" d="M113.31,137.17c.15-.23,0-.36.13-.58l-.52-.26C112.48,136.82,112.84,137.31,113.31,137.17Z"/><path class="cls-2" d="M111.37,135.88a1.22,1.22,0,0,0-.26.84c.43.1.93.42,1.23.13C112.47,136.14,112.11,136.19,111.37,135.88Z"/><path class="cls-2" d="M103.43,132.73c.43.42.51-.19.77-.26Q103.64,132.08,103.43,132.73Z"/><path class="cls-2" d="M107.63,134.34l-.45.9c1.2.48,2.55,1.42,3.42.9C110.68,135.26,108.55,135.11,107.63,134.34Z"/><path class="cls-2" d="M104.08,133.37c.81.46,1.75,1.39,2.65,1.48l.39-.77C106.07,133.74,104.65,132.29,104.08,133.37Z"/><path class="cls-2" d="M137.37,128.36c-.5.76-1.53,1.62-1.67,2.39C136.15,129.84,137.33,129.41,137.37,128.36Z"/><path class="cls-2" d="M110.46,130.59c-.62-.35-1.1-.46-2.07-1C102.06,125.81,99,120,99.72,114c1.49.26,4,1.87,5.1,2.06-1.9-1-3.8-1.91-5.62-2.64-.22,6.86,2.69,13.7,11.19,17.35C110.66,130.83,111.94,131.44,110.46,130.59Z"/><path class="cls-2" d="M134.92,131.33c-1.1,1.21-2.94,1.94-3.74,3a24.06,24.06,0,0,0,3.22-2.26C134.59,131.85,135.33,131.18,134.92,131.33Z"/><path class="cls-2" d="M119.24,133c.4-.21,1,.08,1.36-.13C120.21,132.84,118.78,132.66,119.24,133Z"/><path class="cls-1" d="M112.36,148.83c-2.33.11-7.89.75-10.1.15-.59-.16-1.44-1.33-2.31-2.17-2.42-2.35-4.59-4.76-6.78-6.78-9.64-8.9-18.82-17.86-27.42-27.13-.44-.1-.43.25-.87.15-.21,12,.12,23.91,0,36.23-4.36.1-10.49-.41-14.58.43A44.3,44.3,0,0,0,50.74,161c29.27-.14,61.52-.24,91.36-1.16,0-2.58.17-8.08-.14-11.11A271.33,271.33,0,0,0,112.36,148.83Zm-41-21.07c.23,0,.25.14.43.14a14.47,14.47,0,0,0-.14,9.67c.33.86,1,1.28,1,2C70.19,137.91,69.49,131,71.38,127.76Zm4,14.43c.81-.73,1.71.73,2.89.58C77.35,143.14,76.23,142.44,75.42,142.19Zm3.32.72a7.07,7.07,0,0,1,2.16.14,34.38,34.38,0,0,0,5.92-1.16h.29C85.16,143.29,81.65,143.66,78.74,142.91Z"/><path class="cls-2" d="M66.18,116.65c0-.15-.19-.11-.14.14s-.08.69,0,1c.28,1.06,2.64,3.13,3.75,4.33,8,8.62,16.83,15.7,25.11,23.52,1.39,1.31,2.59,3.37,4.76,3.46C88.83,138.54,76.93,127.78,66.18,116.65Z"/><path class="cls-2" d="M70.8,142.62c-.27.44.55.83.87,1.16C71.67,143.1,71.14,143,70.8,142.62Z"/><path class="cls-2" d="M83.35,146.09c-6,0-10.17-.08-14.87.29a221.35,221.35,0,0,0,24.82,0C91.24,145.86,87,146.09,83.35,146.09Z"/><path class="cls-2" d="M72.53,149.84c0-.29.39-.28.43-.58h-.58C72.41,149.48,72.33,149.79,72.53,149.84Z"/><path class="cls-2" d="M73,150.42c1,0,1.26-.67,1.73-1.15C73.74,149.27,73.42,149.91,73,150.42Z"/><path class="cls-2" d="M75.13,150.27c1.22.21,1.58-.44,2-1C76,149.16,75.71,149.85,75.13,150.27Z"/><path class="cls-2" d="M77.29,150.27c.8-.06,1.08-.66,1.59-1C77.89,149.14,77.73,149.85,77.29,150.27Z"/><path class="cls-2" d="M78.88,150.42c1.25.2,1.49-.62,2-1.15C79.8,149.22,79.42,149.9,78.88,150.42Z"/><path class="cls-2" d="M80.9,150.42c.75.09,1.72-1,1.3-1.15C81.81,149.69,81.23,149.92,80.9,150.42Z"/><path class="cls-2" d="M82.63,150.42c1.06.1,1.22-.7,1.73-1.15C83.43,149.29,83.17,150,82.63,150.42Z"/><path class="cls-2" d="M84.8,150.27c.85-.06,1.19-.64,1.73-1C85.45,149.09,85.32,149.88,84.8,150.27Z"/><path class="cls-2" d="M88.26,149.26a2.45,2.45,0,0,0-1.44.87A2.69,2.69,0,0,0,88.26,149.26Z"/><path class="cls-2" d="M89,150c1,.14,1.28-.36,1.73-.72A1.58,1.58,0,0,0,89,150Z"/><path class="cls-2" d="M91.58,149.84h1v-.58C92,149.16,91.79,149.52,91.58,149.84Z"/><path class="cls-2" d="M104.57,150.13c-3.38-.7-7.05.5-10.25-.14-.15,0-.17.12-.29.14s0,.34.29.29c3.29-.3,6.58-.1,8.8-.14C103.94,150.25,105.23,150.27,104.57,150.13Z"/><path class="cls-2" d="M66.18,150.27c-4.6,0-9.93.28-14.14,0,0-.15-.18-.11-.14.14-.11,0-.17.12-.14.29,3.88-.3,8.41,0,12.27-.29,1.59,0,2.05,0,3.46,0C69.79,150.37,66.84,150.27,66.18,150.27Z"/><path class="cls-2" d="M139.64,150.27c0,.46.34,1.06,0,1.44h1v-1.59C140.19,150.06,140.14,150.39,139.64,150.27Z"/><path class="cls-2" d="M130.4,150.42v1.3h1.3v-1.3C131.13,150.54,130.64,150.2,130.4,150.42Z"/><path class="cls-2" d="M132.28,150.42v1.3a19.29,19.29,0,0,1,3.46-.15v-1.3A28.29,28.29,0,0,0,132.28,150.42Z"/><rect class="cls-3" x="136.46" y="150.27" width="1.3" height="1.3"/><path class="cls-2" d="M138.2,151.57c.46-.07.51.26,1,.15v-1.44h-1Z"/><path class="cls-2" d="M114.53,150.56v1.73h5.05v-1.88C117.86,150.43,116.36,150.66,114.53,150.56Z"/><path class="cls-2" d="M120.16,150.42v1.88h2c0-.71.25-1.09.14-1.88Z"/><path class="cls-2" d="M122.61,150.42a8.77,8.77,0,0,0,.14,1.73c.66-.06,1.63.19,1.88-.29-.4-.32,0-1,0-1.44Z"/><rect class="cls-3" x="125.06" y="150.42" width="1.3" height="1.59"/><rect class="cls-3" x="126.79" y="150.42" width="1.15" height="1.44"/><path class="cls-2" d="M128.53,151.86a3.62,3.62,0,0,0,1.44-.14v-1.3h-1.44Z"/><path class="cls-2" d="M111.79,150.7v1.59H114v-1.73C113.09,150.47,112.66,150.81,111.79,150.7Z"/><path class="cls-2" d="M103.27,152.15c2.12.28,4.2-.09,6.49.14V150.7c-2,.14-4.05.18-6.21.15C103.26,151.08,103.57,151.91,103.27,152.15Z"/><path class="cls-2" d="M110.2,150.7v1.59h1c0-.53-.12-1.28.14-1.59Z"/><path class="cls-2" d="M93.75,152.15h.87c-.08-.56.26-.7.14-1.3C93.8,150.67,93.65,151.28,93.75,152.15Z"/><path class="cls-2" d="M95.19,151a2.71,2.71,0,0,1,.14,1.15h1.73v-1.3C96.45,150.91,95.58,150.71,95.19,151Z"/><path class="cls-2" d="M97.64,150.85v1.3h1.3c-.11-.54.18-.69.14-1.15C98.81,150.74,98.13,150.89,97.64,150.85Z"/><path class="cls-2" d="M99.81,150.85c-.24.24-.12.85-.14,1.3h1.73V151C100.71,151.1,100.4,150.83,99.81,150.85Z"/><path class="cls-2" d="M102.69,150.85h-.58c-.24.24-.12.85-.15,1.3h.87C102.81,151.7,102.93,151.09,102.69,150.85Z"/><path class="cls-2" d="M68.78,152.44h1.59V151C69.13,150.77,68.47,151.12,68.78,152.44Z"/><path class="cls-2" d="M70.94,152.44c1,.14,2.16-.08,3.46,0v-1c-1.29-.06-2.74,0-3.61-.43A5.18,5.18,0,0,0,70.94,152.44Z"/><path class="cls-2" d="M64.16,151.14c-.46-.07-.51.26-1,.15,0,.45-.1,1.06.14,1.3.34,0,.54-.23,1-.14C64.27,152,64.4,151.38,64.16,151.14Z"/><rect class="cls-3" x="64.88" y="151.14" width="1.59" height="1.3"/><rect class="cls-3" x="67.05" y="151.14" width="1.15" height="1.3"/><path class="cls-2" d="M52.76,151.28c-1.21-.38-1.37.69-1,1.44h1C53,152.49,52.64,151.88,52.76,151.28Z"/><rect class="cls-3" x="53.62" y="151.28" width="0.72" height="1.44"/><path class="cls-2" d="M54.78,151.28a3.62,3.62,0,0,1-.14,1.44h1.59c-.07-.52-.23-.83,0-1.3C55.95,151.17,55.27,151.32,54.78,151.28Z"/><path class="cls-2" d="M56.51,151.28c.11.56-.37,1.72.58,1.44a3.61,3.61,0,0,1-.14-1.44Z"/><rect class="cls-3" x="57.52" y="151.28" width="1.3" height="1.44"/><path class="cls-2" d="M60.26,151.28h-1v1.44h.87C60.37,152.45,60.22,151.77,60.26,151.28Z"/><path class="cls-2" d="M60.69,152.58h1.88v-1.3H60.84A3.12,3.12,0,0,1,60.69,152.58Z"/><rect class="cls-3" x="90.28" y="151.28" width="0.87" height="0.87"/><path class="cls-2" d="M91.72,151.28v.87h1.44a1.23,1.23,0,0,1,.14-.87Z"/><path class="cls-2" d="M75,151.43v1h4.76c1.45,0,3.94.53,4.19-.72C82.07,151.08,77.8,151.59,75,151.43Z"/><path class="cls-2" d="M84.94,151.43h-.43c.09.3-.23,1,.29.87C85.12,152.27,84.86,151.68,84.94,151.43Z"/><path class="cls-2" d="M85.52,152.29h1.88v-.87H85.66C85.77,151.87,85.52,152,85.52,152.29Z"/><path class="cls-2" d="M88,152.29c.65-.12,1.62.09,1.88-.43v-.43H88Z"/><path class="cls-2" d="M140.36,152.15c-28.2,1.69-60.18-.05-88.61,1.59V155c1.91.44,4.93-.21,6.64.43-1.88.33-4.37.05-6.49.14,9.62.81,20.82-.48,30.31.58-9.76.49-20.14.36-30.31.43-.06.79.26,1.19.14,2,29,0,59.3-.56,88.76-1v-2.16c-7.43-.12-15.18,1.27-22.23.14,7.1-.6,14.46-.94,22.23-.87C140.72,153.81,141,152.51,140.36,152.15Zm-51.67,4.19a20.58,20.58,0,0,0-3.61-.14c4.5-1,10.17-.33,15.44-.58a48.36,48.36,0,0,1,4.91,0C100.31,156.31,94.15,156,88.69,156.33Zm18.76-.29c-.09-.13-.17-.26,0-.29,2.55-.33,5.72-.05,8.52-.15C113.84,156.46,110.26,155.86,107.45,156Z"/><path class="cls-2" d="M139.21,158.21c-2.21-.1-5.32.07-6.93.14-13,.6-26.69.72-40.26.72-12.6,0-25.6.76-37.81.29-.56,0-1.77-.37-2.16.43,6.83.24,14.37.7,21.36.14,1.06-.08,2.12-.41,3.17-.43,2.54-.05,5.12.29,7.65.29,4.72,0,9.52-.51,14.29-.29,9.58.45,19.07-.29,28.43-.29,4.19,0,8.6.09,12.7-.14.17,0,1.37.37,1.16-.43S139.63,158.23,139.21,158.21Z"/><path class="cls-2" d="M96.34,144.79c-1.64-1.45-3.2-3.08-4.91-4.33a19,19,0,0,0-3.9-4c-6.89-6.36-13.39-13.61-20.06-19.92-.51-.48-1-1.48-1.44-1.15q16.68,17.59,34.78,33.77C99.8,147.48,97.95,146.22,96.34,144.79Z"/><path class="cls-2" d="M67.77,147.24c0-.29-.31-1.07,0-1.59,7.38-.46,15.26-.43,23.09-.43a36.66,36.66,0,0,0-2.74-2.6c-3.5,2-11.31,2.34-14-.72.25-.28.34-.72.72-.87a16.48,16.48,0,0,0,11.55,0c.32-.7-1.48-1.18-1.16-1.88a23.8,23.8,0,0,1,3.46,3,16.69,16.69,0,0,0,3.47,3,88.94,88.94,0,0,0-11.83-10.68c.37,1,1.87,1.69,2,2.45-1.3-.19-1.71-1.28-2.74-1.73-1.42,1.38-3.06,3.29-4.62,4,1.41-1.48,2.81-3,4.33-4.33-.15-.62-1.52-1.5-.72-1.73-.69-.6-1.6-1.19-2.31-1.88A8.3,8.3,0,0,1,74,128.19c.63.09,1,1.17,1.44,1-1.39-1.58-3.27-3-4.91-4.76-1.18-1.25-2.22-2.53-3.32-3.61-.28-.27-.71-.88-1.15-.72.16,9.9,0,19.15.58,28.14,1.2.14,3-.31,3.75.29-.89.56-3.34-.46-3.75.58,1.11.34,2.84,0,4.19.14.09-.3-.18-.95.14-1,7.33-.68,14.92.08,22.51,0,.55,0,.23.93.87.87s1.82.19,2.31-.14c-.85-.45-1.37-1.23-2.16-1.73C85.48,147.72,76.59,147.64,67.77,147.24Zm3.9-2.31c-.89-.31-1.14-1.26-2-1.59.13-2.85,2.88-1.24,3.18.43C72.54,144.26,72.27,144.77,71.66,144.93ZM73,142c-.27-.42.69-.85.87-1.3C74.1,141.17,73.14,141.59,73,142Zm.15-13.57c.47,2.12-.12,5.81.43,8.23C72.27,134.94,72.24,130.75,73.11,128.48Zm-1.3-1.59c1.16.33.09,3,0,4.19-.32,4.14.87,6.55,2.16,9.09-.66-.08-.67.48-1,.72-2.3-1-3.53-3.66-3.61-7.22C69.31,131.55,70.17,126.43,71.81,126.89Zm-5.05-5.19h.43a9.46,9.46,0,0,1,.29,1.88A2,2,0,0,1,66.76,121.7Zm0,2.6c.88,4,.31,9.67.29,14.14C66.27,134.27,66.48,128.73,66.76,124.29Zm.43,20.49c-.7-.73-.48-4.3-.29-5.92C68,139.69,67.52,144,67.19,144.79Z"/><path class="cls-2" d="M112.65,149.84c-1.06.12.48.18.14.14a22.36,22.36,0,0,0,4.33,0c4.61-.38,11.52-.21,15.87-.29C126.22,149.77,118.95,149.12,112.65,149.84Z"/><path class="cls-1" d="M72.61,130.1c-3.63,1.34-7.17,2.76-10.44,3.73-1.14-1.61-1.81-3.11-3-4.74,4-5.05,8.73-9.91,12-15.13l.13-.16a.79.79,0,0,0,.1-.18c.19-.31.37-.62.54-.93l.22-.38.07-.13.43-.76a.83.83,0,0,0,.25-.28.86.86,0,0,0,.1-.5,24.15,24.15,0,0,0,1.07-2.6c-3.94,1.9-5.52,5.34-7.89,8.46-4.47,5.87-9.31,11.17-13.74,17.1l-.06.08a6.34,6.34,0,0,0-.7.83c-1.51,1.67-3,2.82-1.31,5,1.4,1.79,3.83.24,5.9-.5,6.62-2.37,13.34-5,19.79-7.43a59.77,59.77,0,0,0,7.55-3l.2,0a.63.63,0,0,0,.44-.32,13.2,13.2,0,0,0,2.59-2C82.27,125.84,77.74,128.21,72.61,130.1Z"/><path class="cls-2" d="M51.93,139.53a1.63,1.63,0,0,0,1-3C51.16,135,48.85,138.81,51.93,139.53ZM51,137.71c.14-.42.93-.81,1.32-.89C54.64,137.82,51.56,140.44,51,137.71Z"/><path class="cls-2" d="M51.83,138.2c.29.08.74-.25.39-.61C51.93,137.51,51.48,137.84,51.83,138.2Z"/><path class="cls-2" d="M52.19,135.17c.17.22.42-.16.57.14,6.33-8.46,14.48-16.5,19.61-25.24-6.53,8.4-13.42,16.66-20.15,24.91C52.16,135,52.1,135.09,52.19,135.17Z"/><path class="cls-2" d="M80.38,128.34c-8.52,3.51-17.79,6.34-25.73,9.53l.24.36.33-.22a124.24,124.24,0,0,0,14.27-4.93c4.84-2,9.86-3.5,14.25-5.44C82.65,126.88,81.46,127.9,80.38,128.34Z"/><path class="cls-2" d="M58,131.95a19,19,0,0,1-3.81,4.31l.24.36a31,31,0,0,1,5.37-2.23C59,133.48,58.75,132.25,58,131.95Z"/><path class="cls-2" d="M61.18,134.51a27.79,27.79,0,0,0-3-4.23C58.54,131.4,60.06,134.18,61.18,134.51Z"/><path class="cls-2" d="M54.07,135.82a23.07,23.07,0,0,0,2-2.23c.67-.74,1.9-1.35,1.74-2.4A40.52,40.52,0,0,0,54.07,135.82Z"/><path class="cls-1" d="M50.94,27.43c-2-5.68-3.82-11.64-6.45-16.12C41.2,5.7,34.5,2,27.2.32A15.93,15.93,0,0,0,23.09,0C12.37.71,6,7.07,4.25,17.47a11.9,11.9,0,0,0-1.85,2.59c-1.7,2.35-3.09,5.08-2,8.24a13.84,13.84,0,0,0,2.93,4.25c2,2.08,4.65,2.65,6.74,4.4a33.52,33.52,0,0,0,1.91,11,15.23,15.23,0,0,0,11.28,9.67,14.08,14.08,0,0,0,6.16.44,13.81,13.81,0,0,0,7.18-4.54C38,51.43,38.19,48,38.92,45.46c7.08.74,14.92-1.4,17.59-6C59.76,33.84,54.46,29.67,50.94,27.43ZM30.25,52.53a25.32,25.32,0,0,0-2.79,1.64,11.64,11.64,0,0,1-1.92.69l-.19,0a5.37,5.37,0,0,1-2.41.07c-1.77-.41-4.17-4.89-5-6.45a18.83,18.83,0,0,1-2.34-8.94v-.44l5.85,1.55a13.5,13.5,0,0,0,2.66.73c3.6,1,7.15,2.07,10.54,3.29A12.76,12.76,0,0,1,30.25,52.53Z"/><path class="cls-2" d="M42.29,29.19c1.62-1.22,1.18-6,1-8.06C43.26,24,42.43,26.88,42.29,29.19Z"/><path class="cls-2" d="M44.49,37.1c1.23-.18,2-.85,3.08-1.17a26.12,26.12,0,0,0-3.08-14.51C44.85,27,43,32.24,44.49,37.1Zm.59-12.16c.78,2.75-.15,6.28,0,9.38C44.06,31.82,44.92,27.7,45.08,24.94Z"/><path class="cls-2" d="M19.87,36.52a42.68,42.68,0,0,1-5.57-1.47,34.38,34.38,0,0,1-5.57-3.37c-3.21-2.3-5.94-4.6-5.13-10a5.25,5.25,0,0,0-.29,5.57C5,30.63,9.84,33.61,14.59,35.34,21.14,37.73,28,40.53,35,38.72,29.53,39.17,24.12,37.64,19.87,36.52Z"/><path class="cls-2" d="M51.23,29.92c.19,3.27-2.57,3.59-2.49,6.74-3.88,2.13-8.53,3.49-13.19,4.83,7.26,1.23,18.24,1.59,19.05-5.42C55,32.66,52.95,31.42,51.23,29.92Z"/><path class="cls-2" d="M43.47,37.54a53.84,53.84,0,0,0-1.17-7C42.45,32.51,42.6,35.77,43.47,37.54Z"/><path class="cls-2" d="M18.11,31.39c.28,1.18-.62,2.66.15,3.37C18.17,33.77,18.44,31.65,18.11,31.39Z"/><path class="cls-2" d="M31.16,53.37a10.52,10.52,0,0,0,4.69-8.5h-.44a11.32,11.32,0,0,1-5.57,8.79c-.25.39.35.31-.15.73a20.58,20.58,0,0,1-6,1.61c2.86,1.94,9.06-1.05,10.7-2.64,2.08-2,2-5.46,3.22-8.06A5.64,5.64,0,0,0,36.28,45C35.6,48.73,34.36,52.67,31.16,53.37Z"/><path class="cls-2" d="M27.79,1.79a9.49,9.49,0,0,0-5.57-.15c-2.33.45-5.33.35-6.45,1.61,2.72-1,9-1.95,11.28.15C20.3,1.78,11.47,3.9,9.17,8.53,12.29,4.7,21.73.6,26.76,5.3c-7.13-2.62-13.09.06-17.15,4-3.38,3.24-5,9.25-4.4,15.68.06.61,0,1.3.59,1.76a23.12,23.12,0,0,1,.88-10.4c.54-1.89,1.18-4,2.49-4.54-1.65,2.85-2.75,8.51-2.78,12.9A6.55,6.55,0,0,0,9,30.36a25.23,25.23,0,0,0,3.52,2.2c.35-6.33.74-12,2.49-16.71A71.08,71.08,0,0,1,19,7.5c.41-.79.82-1.93,1.76-2.2-1.22,3.8-3.59,6.94-4.69,11.14a72.39,72.39,0,0,0-2.34,16.85c1.26.3,1.87,1.26,3.37,1.32C17.65,25.51,19.57,17,24,12.19,20.62,18,18.69,25.27,19.14,34.91a31.57,31.57,0,0,0,12.6,2c.46-2.23.11-5.26.44-7.62.81.62.77,2.22.88,3.52s-.08,2.85,0,4.1h2.49c0-1.61.35-3.46.44-5.13,0-.8-.38-2,.44-2.49A37.46,37.46,0,0,1,36.58,37a8.56,8.56,0,0,0,2.78-.58c.31-3.49.28-7.65.29-11,.91,2.82.67,7.61.29,10.84,2.05.21,1.42-3.55,1.32-5C40.46,20.11,36.18,7.89,27.34,5c9,2.22,12,10.45,14.51,19.2A27.73,27.73,0,0,0,33.06,6.91c4.84,3,7.27,8.36,9.23,14.22,1.21-2.73-.68-4.7-.73-7.18a35.28,35.28,0,0,1,1.91,4.83c.6-.5,1.06.53,1.32.29a34.37,34.37,0,0,0-5.57-9.67A22.87,22.87,0,0,0,27.79,1.79ZM10.05,10.58c-.07-1.09.76-1.29,1.32-1.76C11.58,9.48,10.7,10.3,10.05,10.58Zm4.1-3.22c.62-1.19,2.12-1.49,3.81-1.61C16.82,6.4,15.25,6.64,14.15,7.35Zm.44,23.59a37,37,0,0,1,1.61-12c.14,0,.11.18.15.29C15.68,23,15.41,27.27,14.59,30.95Zm9.67-19.64C24,9.75,25.54,7.52,26,5.74,26.4,8,24.91,9.6,24.27,11.31Zm9.38,20.08a10.28,10.28,0,0,1,0,3.52c-.3-1-.19-2.45-.44-3.52ZM37.6,9c-1.13-1.45-2.7-2.38-3.67-3.81,3.19,1.7,5.21,4.56,6.74,7.91C39.45,12.15,38.68,10.35,37.6,9Z"/><path class="cls-2" d="M45.66,15.71c-2.21-5.15-5.46-8.88-9.82-11,1.54,1.51,3.51,2.65,5,4.4a26.63,26.63,0,0,1,4,7.33c1.06,2.61,2.67,4.9,3.08,8.06a72.15,72.15,0,0,1,.88,9.09c1.75-1.14.95-4.06.59-6A52.14,52.14,0,0,0,45.66,15.71Z"/><path class="cls-2" d="M13.72,36.52a21.58,21.58,0,0,1-5.42-2.93c-2.86-2.14-5.77-4.24-6.45-7.77-.35-1.8.21-2.37.44-3.37s-.31,0-.44.29a11,11,0,0,0-.73,3.66c.25,2.82,2.67,4.42,4.54,6,3.27,2.78,6.77,4.12,11.28,5.86a38,38,0,0,0,9.23,2.49A30.83,30.83,0,0,0,42,38.13a58.79,58.79,0,0,1-8.21,2.05C25.87,41.14,19.36,38.62,13.72,36.52Z"/><path class="cls-2" d="M51.38,29.48c2.8,1,5,5.3,3.81,8.5-.41,1.14-2.13,2.4-3.22,3.08C48.88,43,43.2,43.7,38.63,43.11c-3.18-.41-5.66-1.94-8.5-1.32,5.77,1.71,14.08,3.27,20.22,1,1.91-.7,5-2.52,5.42-3.81A10,10,0,0,0,55,32.27,7,7,0,0,0,51.38,29.48Z"/><path class="cls-2" d="M14.45,40.62c-.09-.87.43-2.15-.73-2.2A27,27,0,0,0,18,53.52c-.15,0-.17-.12-.29-.15C14.88,50.26,13.51,45,13,39.89c-.11-1,.32-2-.88-2.2,0,2.47.94,4.83.59,7.18-.32-2.41-1-4.51-.88-7.33-.45,0-.66-.32-1-.44.86,7.23,2.15,13.47,6.74,17,1.69,1.3,4.13,2,6.15,2.93C18.3,54,15.22,48,14.45,40.62Z"/><path class="cls-2" d="M27.34,57.47c3.5-.36,5.48-2.24,7.92-3.66,0-.57.79-1.06.44-1.46C34.7,54.81,30,56.6,27.34,57.47Z"/></g></g></svg>