<svg xmlns="http://www.w3.org/2000/svg" viewBox="0 0 88.56 79.8"><defs><style>.cls-1{fill:#191818;}.cls-1,.cls-2{fill-rule:evenodd;}.cls-2{fill:#fff;}</style></defs><title>4</title><g id="Слой_2" data-name="Слой 2"><g id="Layer_1" data-name="Layer 1"><path class="cls-1" d="M87.13,50.74C85.57,46,84,41.29,82.65,36.39c-2-.34-1.87-2.79-2.69-4.3.46,0,.92,0,.9-.54-1.39-5.25-3.65-9.62-5-14.88-.12-.35-1,0-1.08-.36a14.64,14.64,0,0,0-.9-2.69,3.55,3.55,0,0,1-2.32-1.78l0-.07c2.56-3.15.34-9.61-3.81-6.39-2.53,2-.24,6.23-1.43,8.43C50,18.35,32.25,21.55,14.88,25.1c-.17-.79-1-.88-1.79-1.08,1.9-2.55.19-8.08-2.51-8.25-4.18-.27-3.64,6.65-2,9a1.09,1.09,0,0,1-.37.56,1.57,1.57,0,0,0-.47.27,11.08,11.08,0,0,0-1.66.61C4.26,39.16.78,51.46,0,64.9c1.87.92,3.77-.49,4.48-1.79,1.19-2.18,1.44-6.65,2-10.22C7,49,7.19,45,8.07,42.13,11.72,54.26,14.75,67,18.65,78.88a3.24,3.24,0,0,0,4.3.18c-.85-3.52-1.79-6.94-2.51-10.58,20.71-5.29,41.1-10.89,61.85-16.14.17,3.63,2.78,8.79,6.27,5.74-.27-2.6-1.33-4.4-2-6.63C86.33,50.77,87.39,51.42,87.13,50.74ZM16,51.63a20,20,0,0,1-.9-3.4c3.67-1.11,7.66-1.9,11.47-2.87.89.66,1,2.1,1.26,3.41C23.75,49.62,19.88,50.66,16,51.63Zm55.4-13.26a16.79,16.79,0,0,1-1.08-3.59c.31-.1.64-.18,1-.26l.27-.07a24.44,24.44,0,0,0,3.6-.93c1,.7,1.06,2.4,1.61,3.59C74.91,37.5,73.29,38.09,71.35,38.37Z"/><path class="cls-1" d="M69.74,2.69A3,3,0,0,0,69,0C68.68.82,68.75,2.62,69.74,2.69Z"/><path class="cls-1" d="M72.07,3.41C73.16,3,73.5,1.85,73.68.54,72.7,1,71.64,2.1,72.07,3.41Z"/><path class="cls-1" d="M66.15,1.79c-.37.94.59,1.68,1.25,2.15,0-.14.15-.21.36-.18C67.79,2.55,66.9,2.25,66.15,1.79Z"/><path class="cls-1" d="M63.46,4.66c-.37.87,1,2.29,2,1.79C65.5,5.14,64.33,5,63.46,4.66Z"/><path class="cls-1" d="M74,5.56c.58.69,2.52,0,2.87-.71C76,4.46,74.35,4.75,74,5.56Z"/><path class="cls-2" d="M67.95,10.4v-3A3.83,3.83,0,0,0,67.95,10.4Z"/><path class="cls-1" d="M73.68,8.43c.1.78,1.94,1.58,2.51.72A2,2,0,0,0,73.68,8.43Z"/><path class="cls-1" d="M62.39,9.68c.72.23,2.49.47,2.51-.54C64.41,8.4,62.45,8.84,62.39,9.68Z"/><path class="cls-1" d="M8.61,10.22a4.34,4.34,0,0,0,1.08,3.59C9.63,12.3,9.48,10.89,8.61,10.22Z"/><path class="cls-1" d="M12.37,14.16a6.54,6.54,0,0,0,2.51-2.87A3.15,3.15,0,0,0,12.37,14.16Z"/><path class="cls-2" d="M68.48,13.09a6.7,6.7,0,0,1-.36,3c1.31-.3,2.64-.59,3.94-.9a20.78,20.78,0,0,1-.72-2.33A9.75,9.75,0,0,1,68.48,13.09Z"/><path class="cls-1" d="M5.92,13.45c.25,1.18.73,2.14,2,2.33A3.3,3.3,0,0,0,5.92,13.45Z"/><path class="cls-2" d="M52.53,20.26l.07,0-.25,0Z"/><path class="cls-2" d="M42.16,22.42l1-.19C42.86,22.28,42.51,22.34,42.16,22.42Z"/><path class="cls-2" d="M52.53,20.26h-.18l.25,0a62.12,62.12,0,0,1,11.23-3c1-.2,3.1.07,3.23-1.44-5.91.57-11.09,2-16.85,3.23-10.79,2.38-22.1,4.63-32.09,7.35-.76.21-1.91,0-2.33.9,2.13.38,4.21-.63,6.45-1.08C29.18,24.8,36,23.51,42.16,22.42c.35-.07.7-.14,1-.19l-1,.19c-4.75,1-9.79,4-14.91,4.12a44.39,44.39,0,0,0-9.86,1.61c-1.28.3-2.63.61-3.94.9-1.08.24-3,.19-3.23,1.43,5.94-2,12.19-2.52,18.29-3.77,15.09-3.09,30.9-6.28,45.18-10-6.59.67-15,3-21.09,3.56Z"/><path class="cls-1" d="M1.79,16.5c1,.16,2.69,2.13,3.58.72A4.29,4.29,0,0,0,1.79,16.5Z"/><path class="cls-2" d="M9.5,17.21c-1.69,1.36-1,5.28.36,6.63C9.28,22.43,8.61,18.75,9.5,17.21Z"/><path class="cls-2" d="M73,17.75c-.65,1.72-1.55,3.51-2.33,5.56-.69,1.8-2.09,4.12-2.15,5.74s1.13,2.89,1.26,4.66c1.1-1.33,1.94-4,3-6.81,1-2.53,2.9-5.38,2.87-7.17C75.63,18.27,74.28,16.64,73,17.75Zm1.61,2.87H73.5C71.73,18,76.19,18.21,74.58,20.62Z"/><path class="cls-1" d="M14.34,18.65c1.05.33,2.75.09,3.23-.72C16.61,17.62,14.42,17.5,14.34,18.65Z"/><path class="cls-2" d="M71.35,18.29a16.87,16.87,0,0,1-3.59.9c-.25.83-.69,2.41-1.25,2.33-.23-.95.86-1.53.36-2.15-1,1.18-1.32,3.1-2.15,4.48,1.15,0,1.25-.51,2.33-.18.63,1,.53,2.82,1.25,3.77a48.38,48.38,0,0,1,3.41-8.79C71.69,18.43,71.66,18.22,71.35,18.29Z"/><path class="cls-2" d="M61,20.8a41,41,0,0,1-1.79,4.3c1.64-.21,3-.72,4.66-.9.26-1.49,1.87-3.49,1.44-4.48A40.65,40.65,0,0,1,61,20.8Z"/><path class="cls-1" d="M5,20.26c-1.09.1-2.46-.07-3,.54C2.72,21.65,4.93,21.86,5,20.26Z"/><path class="cls-2" d="M54.32,22.41a25.53,25.53,0,0,1-1.43,4.12c1.84-.19,3.29-.77,5-1.08.43-1.32,1.95-3.41,1.61-4.3C57.77,21.55,56.16,22.1,54.32,22.41Z"/><path class="cls-2" d="M46.43,28a37.74,37.74,0,0,0,5.2-1.08c.48-1.43,1.07-2.75,1.61-4.12-1.77.32-3.46.72-5.2,1.08A29.34,29.34,0,0,1,46.43,28Z"/><path class="cls-1" d="M3.23,25.28a4.55,4.55,0,0,0,2.51-2.15C4.41,22.67,3.58,24.17,3.23,25.28Z"/><path class="cls-2" d="M40.16,29.58c1.87-.34,3.54-.88,5.38-1.25.63-1.34,1.07-2.88,1.61-4.3A28.16,28.16,0,0,0,42,25.1,41.4,41.4,0,0,1,40.16,29.58Z"/><path class="cls-2" d="M67.41,34.42c-1.33-2.55-1.17-6.6-3.59-8.07a33.69,33.69,0,0,1-11.47,2.51c4.66-1,8.73-2.62,13.27-3.76a.18.18,0,0,0,0-.36c-12.24,3.66-26.13,5.66-38,9.68,7.38-1.28,14.3-4,21.69-4.66C42.53,32,34.8,33.3,28,35.5c-.46,2.79,1.55,5.29,1.08,8.07-1.35-2.18-1.26-5.8-3-7.53,1.93,6.43,3.7,13,5.38,19.72,13.46-3.45,26.9-6.93,40.52-10.22C70.13,39.17,68,33.15,66.33,26.71,65.86,29.19,68.2,32.22,67.41,34.42Zm-4.12,3.76c.3-1.19,1.27-1.72,1.79-2.69A2.42,2.42,0,0,1,63.29,38.19ZM56.11,31c.36-1.41,3.66-2.25,6.1-2.15,4,1.28,3.41,8.31-.9,8.79.53,2.09,2.31,5.61-1.25,5.56-1.25-.73-1.68-3.33-2.33-5.74C57.17,35.41,55.76,32.38,56.11,31ZM54.32,45.54c.77-.9,1.86-1.49,2.69-2.33A2.22,2.22,0,0,1,54.32,45.54ZM50.2,31.73c6.31-1.49,9.31,11.36,3.59,12.55a5.32,5.32,0,0,1-5.38-2.51C46.52,38.43,47,32.5,50.2,31.73Zm-8.61,1.44a4.38,4.38,0,0,1-3,1.07C38.93,33.29,40.6,32.95,41.59,33.17Zm-4.84,2.69c1.38-.35,8.25-3.92,9-1.79.57,1.7-1.54,1.73-2.51,2.33.77,3.18,1.88,6,2.51,9.32a2.86,2.86,0,0,1-2.51,1.08c-1.4-2.67-1.92-6.21-2.87-9.32-1.14.11-1.65.86-3,.72A4.1,4.1,0,0,1,36.75,35.86ZM40,43.75c-.85-.88-1.41-2.06-2.33-2.87C38.91,40.53,40.25,42.55,40,43.75ZM31,36c1.54-1.06,5-.75,5.2.72.26,1.87-2,1.46-3.41,1.61.07,2.16,2.62,1.72,3.94,2.51,1.61,1,2.62,2.78,2.51,5.92-.69.67-.9,2.11-2.51,2.51-2.95.73-6.95-1.41-4.66-3.59,1.68.24,3.83,1.18,4.12-.54.38-2.22-3.56-2.2-5.56-2.87C28.93,40.47,28.76,37.59,31,36Zm3.23,14.7a4,4,0,0,0,3.23-.89C37.85,50.77,34.82,52.4,34.24,50.74Zm-2.15,3.94c-.17-2.12-.78-4.16-1.25-6.81h.36c1.42,1.45,1.24,4.5,2.69,5.92a68.65,68.65,0,0,1,11.12-3C41.89,53.14,36.33,54,32.09,54.68Zm11.65-6.09c.23-.57,1.57-.72,2.15-.36C45.65,48.77,44.36,49,43.74,48.59ZM69,43.39c.32-.16.46-.5,1.08-.36A14.89,14.89,0,0,1,69,38.9c1.19,1.44,1.65,3.61,2,5.92C70.15,45.86,68.6,45.13,69,43.39Zm-2.33,2.87c-5.82,2.27-13.75,3.16-20.26,4.66C53.35,48.2,61,47.13,68.31,45,69,45.38,67.32,46,66.69,46.26Z"/><path class="cls-2" d="M11.83,25.64c0,1,.08,2.11-.72,2.33-.19-.7.42-2.21-.36-2.33-.57.23,0,1.86-.18,2.87a38.14,38.14,0,0,0,3.94-.9,6.81,6.81,0,0,1-.72-2.33C13,25.28,12.67,25.69,11.83,25.64Z"/><path class="cls-2" d="M34.06,31.38a53,53,0,0,1,5.2-1.43c.17-1.92,1.35-2.84,1.79-4.48-1.28-.08-3.27.67-4.84.9C35.53,27.94,34,29.61,34.06,31.38Z"/><path class="cls-2" d="M9,25.64c-.61.45-.55,1.09.18,1.43C9,26.64,9.37,25.77,9,25.64Z"/><path class="cls-2" d="M30.66,27.43c-.65,1.8-1.39,3.51-2,5.38,1.42-.25,2.54-.8,3.94-1.08.18-2,2.32-3.88,2-5.2C33.45,27,31.91,27.07,30.66,27.43Z"/><path class="cls-2" d="M8.79,31.56c.48-2.45-.79-3-1.44-4.66C7.82,28.45,7.81,30.49,8.79,31.56Z"/><path class="cls-2" d="M77.81,30.3a2.46,2.46,0,0,0-1.61,1.79c1.46-.15,2.78-.45,3.23-1.61-.47-.91-.78-2-1.25-2.87C77.52,28.37,77.76,29,77.81,30.3Z"/><path class="cls-2" d="M25.46,28.51c-2.27,5.44-4.86,10.56-6.1,17a18.2,18.2,0,0,0,3.94-1.26,10.76,10.76,0,0,0,.54-10c1.11-.44,2.4-.7,3.59-1.07.23-1.87,2.17-3.91,1.61-5.38C27.83,28,26.74,28.35,25.46,28.51Zm-2.33,7.17a36.46,36.46,0,0,1-2,7.53c-.78-2.52,1-5.54,1.79-7.71C23.27,35.45,23.32,35.67,23.13,35.68Z"/><path class="cls-2" d="M16.31,37.47c-.9,2.81-3.52,6.77-2,9.32a19.24,19.24,0,0,0,3.41-.9c1.74-4,3.36-8.86,4.84-12.91.52-1.42,1.35-2.83,1.26-4.12-1.74.3-3.38.68-5,1.08C18,32.17,17.21,34.66,16.31,37.47Zm-1.79,8.25c-.31-1.55.69-2.41,2-1.79A1.34,1.34,0,0,1,14.52,45.72Z"/><path class="cls-2" d="M6.81,29.58c-1.33,8.32-3.56,17.48-4.66,26-.37,2.85-1.06,5.67-.9,8.42,2.24-11,4-22.57,5.92-33.88C6.87,30.12,7.07,29.62,6.81,29.58Z"/><path class="cls-2" d="M57.19,31.2c1.4,3.44,1.87,7.81,3.59,10.94,1.14-1.18-.85-3.29-.54-5.38,2.4-.47,4.39-2.1,3.94-4.48C63.59,29.1,59.55,29.69,57.19,31.2Zm5.38,2.87c-1.41,2.2-4.05.94-3.76-2.15C60.59,30.05,64.18,31.55,62.57,34.06Z"/><path class="cls-2" d="M13.45,43.75c1.13-4.55,2.7-9.61,3.94-13.45-2.26.67-4.58,1.27-7,1.79C11.59,35.8,12.36,39.93,13.45,43.75Zm0-10.76c.33.66-.11,1.23-.36,1.79C10.38,35.32,11.67,31.24,13.45,33Z"/><path class="cls-2" d="M59.7,32.45c.45.39.32,1.35.9,1.61.32-.52,1.22-.46,1.25-1.25S60,31.73,59.7,32.45Z"/><path class="cls-2" d="M50.56,32.81c-1.74.54-2.15,3.23-2,5.2.24,2.75,2.12,5.61,4.3,5.38C58,42.85,55.62,31.24,50.56,32.81ZM55,39.44c.85.5.14,2.36-.72,2.33C54.55,41,54.79,40.21,55,39.44Zm-2,2.15c-2.77.74-4.66-6.84-2.15-7.89C53.61,32.58,55.44,41,53.07,41.59Z"/><path class="cls-2" d="M78.52,32.81c.23,1.27,1,2,.9,3.59.55.13.65-.18,1.08-.18a17.66,17.66,0,0,1-1.08-3.59A1.16,1.16,0,0,0,78.52,32.81Z"/><path class="cls-2" d="M8.61,32.81c1.2,4.89,2.29,9.89,4.3,14-1.24-4.67-2.68-9.16-3.76-14Z"/><path class="cls-2" d="M76.73,33.17a10.7,10.7,0,0,0,1.44,3.59c.18-1-.92-2.19-.9-3.59Z"/><path class="cls-2" d="M44.28,34.42a18.35,18.35,0,0,0-6.27,2c.63.86,1.71-.27,2.69-.18,1.38,2.92,1.93,6.67,3.59,9.32-.21-3.14-2.06-6.19-2.51-9.68C42.63,35.4,43.81,35.27,44.28,34.42Z"/><path class="cls-2" d="M51.27,35c-.63,1.67-.13,4.93,1.43,5.56C53.54,38.65,52.85,35.58,51.27,35Z"/><path class="cls-2" d="M12.91,52.17c-1.44-5.55-3.75-10.23-5-16,.89,6,3.08,12.22,4.66,18.11C12.19,53.17,13.17,52.65,12.91,52.17Z"/><path class="cls-2" d="M36.21,41.59c-2.07-1-5-.47-4.66-2.87.25-2,2.57-.6,3.59-1.61-2.83-2.64-6.74,2.43-3.59,4.3,3.15,0,6.43,1.56,5.92,4.3-.34,1.83-3.42,2-5,1.43,1.29,1.94,5.29.93,5.92-.9C38.29,44.26,38.14,42.54,36.21,41.59Z"/><path class="cls-2" d="M7.35,39.26C5.23,46.58,4.19,55,3,63.29c.76-.5.78-1.78.9-2.51C5.1,53.29,6.1,46.27,7.53,39.62,7.49,39.48,7.52,39.27,7.35,39.26Z"/><path class="cls-2" d="M24.2,44.28c.92.14,1.3-.25,2.15-.18a14.32,14.32,0,0,0-.9-3.41A14.28,14.28,0,0,0,24.2,44.28Z"/><path class="cls-2" d="M84.26,47c.17-2.09-1.19-4.19-1.79-6.1A86.68,86.68,0,0,1,78,52c2.09-.66,6.36-.78,4.48-3.76C82.53,47.06,83.92,47.42,84.26,47Z"/><path class="cls-2" d="M62,52.71c-.21-1.58,1.09-2.62.72-3.77-1.31,1.86-1.58,4.76-2.51,7,1.55-.36,3-.83,4.66-1.08.79-2.44,1.86-4.59,2.69-7a28.75,28.75,0,0,0-3.77.9A12.53,12.53,0,0,1,62,52.71Z"/><path class="cls-2" d="M83.54,50.38c.78,0,1.14-.42,2-.36a3.66,3.66,0,0,0-.9-2.15C84.9,49.34,83.78,49.42,83.54,50.38Z"/><path class="cls-2" d="M13.09,48.59c.71.9.32,2.91,1.43,3.41-.15-.69-.3-2.93-1.08-3.58C13.31,48.45,13.09,48.41,13.09,48.59Z"/><path class="cls-2" d="M52.71,58.27c2-.23,3.75-.79,5.74-1.08.9-2.63,2-5,2.87-7.71-2,.38-3.65,1-5.56,1.44C54.78,53.41,53.81,55.9,52.71,58.27Z"/><path class="cls-2" d="M24.92,59.34c1.23-2.78,2.21-5.79,3.59-8.42-.48.06.17-1-.54-.72C26.12,56.12,23.25,61,21.15,66.69c1.64-.39,3.08-1,4.84-1.25.85-3.7,2.7-6.38,4.12-9.5A11.48,11.48,0,0,1,28.86,52C27.38,54.27,26.79,57.45,24.92,59.34Z"/><path class="cls-2" d="M19.54,57c-1.3,3.25-2.25,4.9-1.25,8.07.25.78.39,2,1.25,2.33.74-.5-.7-1.2-.36-2.33a1.17,1.17,0,0,1,2-.54c1.68-4.83,4.42-9.57,5.74-14.17-1.57.64-3.56.86-5.2,1.44C21.11,53.34,20.32,55.07,19.54,57Z"/><path class="cls-2" d="M47.87,57.19c.22-1.59,1.61-3.87,1.26-4.84a52.46,52.46,0,0,0-3,7.71,39.79,39.79,0,0,1,5.74-1.43c.65-2.58,2.27-5.14,2.51-7.53-1.25.48-3,.48-4.12,1.08C49.36,53.79,49.19,56.06,47.87,57.19Z"/><path class="cls-2" d="M85.52,51.46a1,1,0,0,0-.72.18A24.42,24.42,0,0,0,87,58.09c1.07-.57.2-2-.18-3A32.25,32.25,0,0,1,85.52,51.46Z"/><path class="cls-2" d="M20.26,52c-1.7.69-4.1.68-5.2,2a45.57,45.57,0,0,1,1.79,6.63,53.67,53.67,0,0,0,3.77-8.42C20.58,52,20.47,52,20.26,52Zm-2,3.41c-2.56,2.42-3.16-3.82-.18-2A5.14,5.14,0,0,1,18.29,55.4Z"/><path class="cls-2" d="M83,52c.75,1.88,1.13,4.12,2.15,5.74A17.23,17.23,0,0,0,83.37,52Z"/><path class="cls-2" d="M40.88,61.31c1.52-.1,2.51-.72,3.94-.9.91-2.5,2.41-5.35,2.87-7.71-1.11.62-2.75.71-3.94,1.25C43,56.59,41.73,58.77,40.88,61.31Z"/><path class="cls-2" d="M17.75,67.95a57.66,57.66,0,0,0-4.12-14C15,58.63,15.84,63.82,17.75,67.95Z"/><path class="cls-2" d="M33.7,63.47a47.68,47.68,0,0,0,5.38-1.08c.51-2.88,2.83-5.94,2.69-8.07a44.06,44.06,0,0,0-4.84,1.26C35.94,58.29,34.73,60.79,33.7,63.47Z"/><path class="cls-2" d="M64.54,55.58c-1.43.54-3.77.17-4.66,1.25A14.07,14.07,0,0,0,64.54,55.58Z"/><path class="cls-2" d="M27.25,65.08c1.91-.3,3.43-1,5.38-1.25.89-2.76,2.07-5.22,3-7.89-1.8.29-3.2,1-5,1.25A54.63,54.63,0,0,0,27.25,65.08Z"/><path class="cls-2" d="M18.47,69.38c1.22,2.9,1.49,6.75,2.87,9.5.24-2.88-1.58-6.78-2.15-10C19.13,69.21,18.52,69,18.47,69.38Z"/><path class="cls-2" d="M69.56,6.28a6.51,6.51,0,0,0-.18,5.2c2.28.55,3-4.08,1.61-5.56C70.35,5.87,70.13,6.25,69.56,6.28Zm.72,4.66c-.63-.08-.76-.38-.54-.9.37-.07.47.12.72.18C70.53,10.59,70.33,10.69,70.28,10.94Zm-.54-1.79c.06-.24.31-.28.36-.54.24.06.28.32.54.36C70.62,9.42,70,9.39,69.74,9.14Z"/><path class="cls-2" d="M71.17,33.53c1.53-2.36,2.57-6.15,4.3-7.71a74.49,74.49,0,0,1-3.41,7.35c1.1-.16,2-.5,3-.72.47-1,1.18-1.82.72-3.23,2.93-1.42,1.41-4.86.54-7.53A91,91,0,0,0,71.17,33.53Z"/><path class="cls-2" d="M77.63,38.55c-1.54,5.16-3.69,9.7-5.38,14.7,2.07-.6,2.35-3.49,3-5.56.76-2.25,1.36-4.72,2.51-5.92A83.72,83.72,0,0,1,74,52.89c1-.1,1.73-.42,2.69-.54.76-2,1.65-4.1,2.69-6.46s3.36-5.86,2.15-8.25A13.07,13.07,0,0,0,77.63,38.55Zm3.23,1.61c-4.65-.34,1.41-4.28,0,0Z"/><path class="cls-2" d="M73.5,46.08a22.44,22.44,0,0,1-4.66,1.25C68,49.74,66.57,52.58,66,54.68c1.5-.47,3.21-.73,4.84-1.08a148.16,148.16,0,0,0,5.74-14.88c-1.53.38-3,.79-4.66,1.08A59.82,59.82,0,0,0,73.5,46.08Z"/><path class="cls-2" d="M19.72,78.35c-.88-2.88-1.29-6.24-2.33-9C18.16,72.38,18.37,75.93,19.72,78.35Z"/><path class="cls-2" d="M11.12,17.39c-1.56,1.14-1.5,5.71.72,6.1C13.21,21.95,12.38,18.43,11.12,17.39Z"/></g></g></svg>