<?xml version="1.0" encoding="iso-8859-1"?>
<!-- Generator: Adobe Illustrator 19.0.0, SVG Export Plug-In . SVG Version: 6.00 Build 0)  -->
<svg version="1.1" id="Capa_1" xmlns="http://www.w3.org/2000/svg" xmlns:xlink="http://www.w3.org/1999/xlink" x="0px" y="0px"
	 viewBox="0 0 512 512" style="enable-background:new 0 0 512 512;" xml:space="preserve">
<g>
	<g>
		<polygon style="fill:#C9CED1;" points="417.73,160.519 417.73,473.6 351.17,512 265.514,462.53 179.926,413.129 94.27,363.658 
			94.27,50.577 115.65,38.4 160.83,12.385 160.83,12.316 160.969,12.316 182.21,0 224.969,24.701 224.969,49.263 246.417,61.648 
			246.417,184.597 246.556,184.458 246.625,184.458 265.514,173.596 265.514,149.518 286.962,137.271 332.074,111.256 
			332.212,111.187 353.453,98.871 396.281,123.572 396.281,148.134 417.661,160.519 		"/>
		<polygon style="fill:#C9CED1;" points="332.212,111.187 332.074,111.256 332.074,111.118 		"/>
	</g>
	<polygon style="fill:#919D9E;" points="417.73,160.519 417.73,473.6 351.17,512 351.17,198.919 417.661,160.519 	"/>
	<polyline style="fill:#DADCDA;" points="332.074,111.235 332.074,111.104 332.198,111.166 	"/>
	<polygon style="fill:#B4B4B3;" points="396.281,123.572 375.04,135.888 374.971,135.888 332.074,160.657 329.79,161.972 
		286.962,137.271 332.074,111.256 332.212,111.187 353.453,98.871 	"/>
	<polygon style="fill:#919D9E;" points="396.281,123.572 396.281,148.134 332.074,185.219 329.79,186.534 329.79,161.972 
		332.074,160.657 374.971,135.888 375.04,135.888 	"/>
	<path style="fill:#DADCDA;" d="M246.553,184.458l-0.138-0.069"/>
	<polygon style="fill:#919D9E;" points="246.417,61.648 246.417,184.597 201.306,210.612 179.926,222.72 179.926,100.048 	"/>
	<g>
		<polygon style="fill:#A5B4B4;" points="417.661,160.519 351.17,198.919 332.074,187.918 329.79,186.534 332.074,185.219 
			396.281,148.134 		"/>
		<polygon style="fill:#A5B4B4;" points="286.962,137.271 286.962,161.834 265.514,149.518 		"/>
	</g>
	<polygon style="fill:#919D9E;" points="265.514,222.997 265.514,272.259 244.134,259.875 244.134,235.312 	"/>
	<g>
		<polygon style="fill:#A5B4B4;" points="115.65,38.4 115.65,62.893 94.27,50.577 		"/>
		<polygon style="fill:#A5B4B4;" points="246.417,61.648 179.926,100.048 158.478,87.663 224.969,49.263 		"/>
	</g>
	<polygon style="fill:#919D9E;" points="224.969,24.77 224.969,49.263 158.478,87.663 158.478,63.101 203.658,37.016 
		203.728,37.016 	"/>
	<polygon style="fill:#B4B4B3;" points="224.969,24.701 224.969,24.77 203.728,37.016 203.658,37.016 158.478,63.101 115.65,38.4 
		160.83,12.385 160.83,12.316 160.969,12.316 182.21,0 	"/>
	<g>
		<path style="fill:#5496CE;" d="M329.761,480.953c-1.835,0.001-3.596-0.728-4.894-2.025c-1.298-1.298-2.026-3.058-2.025-4.894
			v-13.838c0-3.821,3.098-6.919,6.919-6.919c3.821,0,6.919,3.098,6.919,6.919v13.838c0.001,1.835-0.728,3.596-2.025,4.894
			C333.357,480.225,331.596,480.954,329.761,480.953z M329.761,439.439c-1.835,0.001-3.596-0.728-4.894-2.025
			c-1.298-1.298-2.026-3.058-2.025-4.894v-13.838c0-3.821,3.098-6.919,6.919-6.919c3.821,0,6.919,3.098,6.919,6.919v13.838
			c0.001,1.835-0.728,3.596-2.025,4.894C333.357,438.712,331.596,439.44,329.761,439.439z M329.761,397.926
			c-1.835,0.001-3.596-0.728-4.894-2.025c-1.298-1.298-2.026-3.058-2.025-4.894v-13.838c0-3.821,3.098-6.919,6.919-6.919
			c3.821,0,6.919,3.098,6.919,6.919v13.838c0.001,1.835-0.728,3.596-2.025,4.894C333.357,397.198,331.596,397.927,329.761,397.926z
			 M329.761,356.412c-1.835,0.001-3.596-0.728-4.894-2.025c-1.298-1.298-2.026-3.058-2.025-4.894v-13.838
			c0-3.821,3.098-6.919,6.919-6.919c3.821,0,6.919,3.098,6.919,6.919v13.838c0.001,1.835-0.728,3.596-2.025,4.894
			C333.357,355.685,331.596,356.413,329.761,356.412z M329.761,314.899c-1.835,0.001-3.596-0.728-4.894-2.025
			c-1.298-1.298-2.026-3.058-2.025-4.894v-13.838c0-3.821,3.098-6.919,6.919-6.919c3.821,0,6.919,3.098,6.919,6.919v13.838
			c0.001,1.835-0.728,3.596-2.025,4.894C333.357,314.171,331.596,314.9,329.761,314.899z M329.761,273.385
			c-1.835,0.001-3.596-0.728-4.894-2.025c-1.298-1.298-2.026-3.058-2.025-4.894v-13.838c0-3.821,3.098-6.919,6.919-6.919
			c3.821,0,6.919,3.098,6.919,6.919v13.838c0.001,1.835-0.728,3.596-2.025,4.894S331.596,273.386,329.761,273.385z M329.761,231.872
			c-1.835,0.001-3.596-0.728-4.894-2.025c-1.298-1.298-2.026-3.058-2.025-4.894v-13.838c0-3.821,3.098-6.919,6.919-6.919
			c3.821,0,6.919,3.098,6.919,6.919v13.838c0.001,1.835-0.728,3.596-2.025,4.894S331.596,231.873,329.761,231.872z"/>
		<path style="fill:#5496CE;" d="M308.349,468.588c-1.835,0.001-3.596-0.728-4.894-2.025c-1.298-1.298-2.026-3.058-2.025-4.894
			v-13.838c0-3.821,3.098-6.919,6.919-6.919c3.821,0,6.919,3.098,6.919,6.919v13.838c0.001,1.835-0.728,3.596-2.025,4.894
			C311.944,467.86,310.184,468.589,308.349,468.588z M308.349,427.074c-1.835,0.001-3.596-0.728-4.894-2.025
			c-1.298-1.298-2.026-3.058-2.025-4.894v-13.838c0-3.821,3.098-6.919,6.919-6.919c3.821,0,6.919,3.098,6.919,6.919v13.838
			c0.001,1.835-0.728,3.596-2.025,4.894C311.944,426.347,310.184,427.075,308.349,427.074z M308.349,385.561
			c-1.835,0.001-3.596-0.728-4.894-2.025c-1.298-1.298-2.026-3.058-2.025-4.894v-13.838c0-3.821,3.098-6.919,6.919-6.919
			c3.821,0,6.919,3.098,6.919,6.919v13.838c0.001,1.835-0.728,3.596-2.025,4.894C311.944,384.833,310.184,385.562,308.349,385.561z
			 M308.349,344.047c-1.835,0.001-3.596-0.728-4.894-2.025c-1.298-1.298-2.026-3.058-2.025-4.894v-13.838
			c0-3.821,3.098-6.919,6.919-6.919c3.821,0,6.919,3.098,6.919,6.919v13.838c0.001,1.835-0.728,3.596-2.025,4.894
			C311.944,343.32,310.184,344.048,308.349,344.047z M308.349,302.534c-1.835,0.001-3.596-0.728-4.894-2.025
			c-1.298-1.298-2.026-3.058-2.025-4.894v-13.838c0-3.821,3.098-6.919,6.919-6.919c3.821,0,6.919,3.098,6.919,6.919v13.838
			c0.001,1.835-0.728,3.596-2.025,4.894C311.944,301.806,310.184,302.535,308.349,302.534z M308.349,261.02
			c-1.835,0.001-3.596-0.728-4.894-2.025c-1.298-1.298-2.026-3.058-2.025-4.894v-13.838c0-3.821,3.098-6.919,6.919-6.919
			c3.821,0,6.919,3.098,6.919,6.919v13.838c0.001,1.835-0.728,3.596-2.025,4.894C311.944,260.293,310.184,261.021,308.349,261.02z
			 M308.349,219.507c-1.835,0.001-3.596-0.728-4.894-2.025c-1.298-1.298-2.026-3.058-2.025-4.894V198.75
			c0-3.821,3.098-6.919,6.919-6.919c3.821,0,6.919,3.098,6.919,6.919v13.838c0.001,1.835-0.728,3.596-2.025,4.894
			C311.944,218.779,310.184,219.508,308.349,219.507z"/>
		<path style="fill:#5496CE;" d="M286.943,456.23c-1.835,0.001-3.596-0.728-4.894-2.025c-1.298-1.298-2.026-3.058-2.025-4.894
			v-13.838c0-3.821,3.098-6.919,6.919-6.919s6.919,3.098,6.919,6.919v13.838c0.001,1.835-0.728,3.596-2.025,4.894
			C290.539,455.502,288.779,456.231,286.943,456.23z M286.943,414.716c-1.835,0.001-3.596-0.728-4.894-2.025
			c-1.298-1.298-2.026-3.058-2.025-4.894v-13.838c0-3.821,3.098-6.919,6.919-6.919s6.919,3.098,6.919,6.919v13.838
			c0.001,1.835-0.728,3.596-2.025,4.894C290.539,413.989,288.779,414.717,286.943,414.716z M286.943,373.203
			c-1.835,0.001-3.596-0.728-4.894-2.025c-1.298-1.298-2.026-3.058-2.025-4.894v-13.838c0-3.821,3.098-6.919,6.919-6.919
			s6.919,3.098,6.919,6.919v13.838c0.001,1.835-0.728,3.596-2.025,4.894C290.539,372.475,288.779,373.204,286.943,373.203z
			 M286.943,331.689c-1.835,0.001-3.596-0.728-4.894-2.025c-1.298-1.298-2.026-3.058-2.025-4.894v-13.838
			c0-3.821,3.098-6.919,6.919-6.919s6.919,3.098,6.919,6.919v13.838c0.001,1.835-0.728,3.596-2.025,4.894
			C290.539,330.962,288.779,331.69,286.943,331.689z M286.943,290.176c-1.835,0.001-3.596-0.728-4.894-2.025
			c-1.298-1.298-2.026-3.058-2.025-4.894v-13.838c0-3.821,3.098-6.919,6.919-6.919s6.919,3.098,6.919,6.919v13.838
			c0.001,1.835-0.728,3.596-2.025,4.894C290.539,289.448,288.779,290.177,286.943,290.176z M286.943,248.662
			c-1.835,0.001-3.596-0.728-4.894-2.025c-1.298-1.298-2.026-3.058-2.025-4.894v-13.838c0-3.821,3.098-6.919,6.919-6.919
			s6.919,3.098,6.919,6.919v13.838c0.001,1.835-0.728,3.596-2.025,4.894C290.539,247.935,288.779,248.663,286.943,248.662z
			 M286.943,207.149c-1.835,0.001-3.596-0.728-4.894-2.025c-1.298-1.298-2.026-3.058-2.025-4.894v-13.838
			c0-3.821,3.098-6.919,6.919-6.919s6.919,3.098,6.919,6.919v13.838c0.001,1.835-0.728,3.596-2.025,4.894
			C290.539,206.421,288.779,207.15,286.943,207.149z"/>
		<path style="fill:#5496CE;" d="M158.491,382.068c-1.835,0.001-3.596-0.728-4.894-2.025c-1.298-1.298-2.026-3.058-2.025-4.894
			v-13.838c0-3.821,3.098-6.919,6.919-6.919s6.919,3.098,6.919,6.919v13.838c0.001,1.835-0.728,3.596-2.025,4.894
			C162.086,381.34,160.326,382.069,158.491,382.068z M158.491,340.554c-1.835,0.001-3.596-0.728-4.894-2.025
			c-1.298-1.298-2.026-3.058-2.025-4.894v-13.838c0-3.821,3.098-6.919,6.919-6.919s6.919,3.098,6.919,6.919v13.838
			c0.001,1.835-0.728,3.596-2.025,4.894C162.086,339.827,160.326,340.555,158.491,340.554z M158.491,299.041
			c-1.835,0.001-3.596-0.728-4.894-2.025c-1.298-1.298-2.026-3.058-2.025-4.894v-13.838c0-3.821,3.098-6.919,6.919-6.919
			s6.919,3.098,6.919,6.919v13.838c0.001,1.835-0.728,3.596-2.025,4.894C162.086,298.313,160.326,299.042,158.491,299.041z
			 M158.491,257.527c-1.835,0.001-3.596-0.728-4.894-2.025c-1.298-1.298-2.026-3.058-2.025-4.894V236.77
			c0-3.821,3.098-6.919,6.919-6.919s6.919,3.098,6.919,6.919v13.838c0.001,1.835-0.728,3.596-2.025,4.894
			C162.086,256.799,160.326,257.528,158.491,257.527z M158.491,216.013c-1.835,0.001-3.596-0.728-4.894-2.025
			c-1.298-1.298-2.026-3.058-2.025-4.894v-13.838c0-3.821,3.098-6.919,6.919-6.919s6.919,3.098,6.919,6.919v13.838
			c0.001,1.835-0.728,3.596-2.025,4.894C162.086,215.286,160.326,216.015,158.491,216.013z M158.491,174.5
			c-1.835,0.001-3.596-0.728-4.894-2.025c-1.298-1.298-2.026-3.058-2.025-4.894v-13.838c0-3.821,3.098-6.919,6.919-6.919
			s6.919,3.098,6.919,6.919v13.838c0.001,1.835-0.728,3.596-2.025,4.894C162.086,173.772,160.326,174.501,158.491,174.5z
			 M158.491,132.986c-1.835,0.001-3.596-0.728-4.894-2.025c-1.298-1.298-2.026-3.058-2.025-4.894V112.23
			c0-3.821,3.098-6.919,6.919-6.919s6.919,3.098,6.919,6.919v13.838c0.001,1.835-0.728,3.596-2.025,4.894
			C162.086,132.259,160.326,132.988,158.491,132.986z"/>
		<path style="fill:#5496CE;" d="M137.085,369.709c-1.835,0.001-3.596-0.728-4.894-2.025c-1.298-1.298-2.026-3.058-2.025-4.894
			v-13.838c0-3.821,3.098-6.919,6.919-6.919s6.919,3.098,6.919,6.919v13.838c0.001,1.835-0.728,3.596-2.025,4.894
			C140.681,368.982,138.921,369.711,137.085,369.709z M137.085,328.196c-1.835,0.001-3.596-0.728-4.894-2.025
			c-1.298-1.298-2.026-3.058-2.025-4.894v-13.838c0-3.821,3.098-6.919,6.919-6.919s6.919,3.098,6.919,6.919v13.838
			c0.001,1.835-0.728,3.596-2.025,4.894C140.681,327.468,138.921,328.197,137.085,328.196z M137.085,286.682
			c-1.835,0.001-3.596-0.728-4.894-2.025c-1.298-1.298-2.026-3.058-2.025-4.894v-13.838c0-3.821,3.098-6.919,6.919-6.919
			s6.919,3.098,6.919,6.919v13.838c0.001,1.835-0.728,3.596-2.025,4.894C140.681,285.955,138.921,286.684,137.085,286.682z
			 M137.085,245.169c-1.835,0.001-3.596-0.728-4.894-2.025c-1.298-1.298-2.026-3.058-2.025-4.894v-13.838
			c0-3.821,3.098-6.919,6.919-6.919s6.919,3.098,6.919,6.919v13.838c0.001,1.835-0.728,3.596-2.025,4.894
			C140.681,244.441,138.921,245.17,137.085,245.169z M137.085,203.655c-1.835,0.001-3.596-0.728-4.894-2.025
			c-1.298-1.298-2.026-3.058-2.025-4.894v-13.838c0-3.821,3.098-6.919,6.919-6.919s6.919,3.098,6.919,6.919v13.838
			c0.001,1.835-0.728,3.596-2.025,4.894C140.681,202.928,138.921,203.656,137.085,203.655z M137.085,162.142
			c-1.835,0.001-3.596-0.728-4.894-2.025s-2.026-3.058-2.025-4.894v-13.838c0-3.821,3.098-6.919,6.919-6.919
			s6.919,3.098,6.919,6.919v13.838c0.001,1.835-0.728,3.596-2.025,4.894C140.681,161.414,138.921,162.143,137.085,162.142z
			 M137.085,120.628c-1.835,0.001-3.596-0.728-4.894-2.025c-1.298-1.298-2.026-3.058-2.025-4.894V99.872
			c0-3.821,3.098-6.919,6.919-6.919s6.919,3.098,6.919,6.919v13.838c0.001,1.835-0.728,3.596-2.025,4.894
			C140.681,119.901,138.921,120.629,137.085,120.628z"/>
		<path style="fill:#5496CE;" d="M115.673,357.351c-1.835,0.001-3.596-0.728-4.894-2.025c-1.298-1.298-2.026-3.058-2.025-4.894
			v-13.838c0-3.821,3.098-6.919,6.919-6.919c3.821,0,6.919,3.098,6.919,6.919v13.838c0.001,1.835-0.728,3.596-2.025,4.894
			C119.269,356.624,117.508,357.352,115.673,357.351z M115.673,315.838c-1.835,0.001-3.596-0.728-4.894-2.025
			c-1.298-1.298-2.026-3.058-2.025-4.894v-13.838c0-3.821,3.098-6.919,6.919-6.919c3.821,0,6.919,3.098,6.919,6.919v13.838
			c0.001,1.835-0.728,3.596-2.025,4.894C119.269,315.11,117.508,315.839,115.673,315.838z M115.673,274.324
			c-1.835,0.001-3.596-0.728-4.894-2.025c-1.298-1.298-2.026-3.058-2.025-4.894v-13.838c0-3.821,3.098-6.919,6.919-6.919
			c3.821,0,6.919,3.098,6.919,6.919v13.838c0.001,1.835-0.728,3.596-2.025,4.894C119.269,273.597,117.508,274.325,115.673,274.324z
			 M115.673,232.811c-1.835,0.001-3.596-0.728-4.894-2.025c-1.298-1.298-2.026-3.058-2.025-4.894v-13.838
			c0-3.821,3.098-6.919,6.919-6.919c3.821,0,6.919,3.098,6.919,6.919v13.838c0.001,1.835-0.728,3.596-2.025,4.894
			C119.269,232.083,117.508,232.812,115.673,232.811z M115.673,191.297c-1.835,0.001-3.596-0.728-4.894-2.025
			c-1.298-1.298-2.026-3.058-2.025-4.894v-13.838c0-3.821,3.098-6.919,6.919-6.919c3.821,0,6.919,3.098,6.919,6.919v13.838
			c0.001,1.835-0.728,3.596-2.025,4.894C119.269,190.57,117.508,191.298,115.673,191.297z M115.673,149.784
			c-1.835,0.001-3.596-0.728-4.894-2.025c-1.298-1.298-2.026-3.058-2.025-4.894v-13.838c0-3.821,3.098-6.919,6.919-6.919
			c3.821,0,6.919,3.098,6.919,6.919v13.838c0.001,1.835-0.728,3.596-2.025,4.894C119.269,149.056,117.508,149.785,115.673,149.784z
			 M115.673,108.27c-1.835,0.001-3.596-0.728-4.894-2.025c-1.298-1.298-2.026-3.058-2.025-4.894V87.514
			c0-3.821,3.098-6.919,6.919-6.919c3.821,0,6.919,3.098,6.919,6.919v13.838c0.001,1.835-0.728,3.596-2.025,4.894
			C119.269,107.543,117.508,108.271,115.673,108.27z"/>
	</g>
	<g>
		<path style="fill:#336A93;" d="M374.626,479.669c-1.835,0.001-3.596-0.728-4.894-2.025c-1.298-1.298-2.026-3.058-2.025-4.894
			v-13.838c0-3.821,3.098-6.919,6.919-6.919c3.821,0,6.919,3.098,6.919,6.919v13.838c0.001,1.835-0.728,3.596-2.025,4.894
			C378.222,478.941,376.461,479.67,374.626,479.669z M374.626,438.155c-1.835,0.001-3.596-0.728-4.894-2.025
			c-1.298-1.298-2.026-3.058-2.025-4.894v-13.838c0-3.821,3.098-6.919,6.919-6.919c3.821,0,6.919,3.098,6.919,6.919v13.838
			c0.001,1.835-0.728,3.596-2.025,4.894C378.222,437.428,376.461,438.156,374.626,438.155z M374.626,396.642
			c-1.835,0.001-3.596-0.728-4.894-2.025c-1.298-1.298-2.026-3.058-2.025-4.894v-13.838c0-3.821,3.098-6.919,6.919-6.919
			c3.821,0,6.919,3.098,6.919,6.919v13.838c0.001,1.835-0.728,3.596-2.025,4.894C378.222,395.914,376.461,396.643,374.626,396.642z
			 M374.626,355.128c-1.835,0.001-3.596-0.728-4.894-2.025c-1.298-1.298-2.026-3.058-2.025-4.894v-13.838
			c0-3.821,3.098-6.919,6.919-6.919c3.821,0,6.919,3.098,6.919,6.919v13.838c0.001,1.835-0.728,3.596-2.025,4.894
			C378.222,354.401,376.461,355.129,374.626,355.128z M374.626,313.615c-1.835,0.001-3.596-0.728-4.894-2.025
			c-1.298-1.298-2.026-3.058-2.025-4.894v-13.838c0-3.821,3.098-6.919,6.919-6.919c3.821,0,6.919,3.098,6.919,6.919v13.838
			c0.001,1.835-0.728,3.596-2.025,4.894C378.222,312.887,376.461,313.616,374.626,313.615z M374.626,272.101
			c-1.835,0.001-3.596-0.728-4.894-2.025c-1.298-1.298-2.026-3.058-2.025-4.894v-13.838c0-3.821,3.098-6.919,6.919-6.919
			c3.821,0,6.919,3.098,6.919,6.919v13.838c0.001,1.835-0.728,3.596-2.025,4.894S376.461,272.102,374.626,272.101z M374.626,230.588
			c-1.835,0.001-3.596-0.728-4.894-2.025c-1.298-1.298-2.026-3.058-2.025-4.894v-13.838c0-3.821,3.098-6.919,6.919-6.919
			c3.821,0,6.919,3.098,6.919,6.919v13.838c0.001,1.835-0.728,3.596-2.025,4.894C378.222,229.86,376.461,230.589,374.626,230.588z"
			/>
		<path style="fill:#336A93;" d="M396.031,467.311c-1.835,0.001-3.596-0.728-4.894-2.025c-1.298-1.298-2.026-3.058-2.025-4.894
			v-13.838c0-3.821,3.098-6.919,6.919-6.919c3.821,0,6.919,3.098,6.919,6.919v13.838c0.001,1.835-0.728,3.596-2.025,4.894
			C399.627,466.583,397.867,467.312,396.031,467.311z M396.031,425.797c-1.835,0.001-3.596-0.728-4.894-2.025
			c-1.298-1.298-2.026-3.058-2.025-4.894V405.04c0-3.821,3.098-6.919,6.919-6.919c3.821,0,6.919,3.098,6.919,6.919v13.838
			c0.001,1.835-0.728,3.596-2.025,4.894C399.627,425.07,397.867,425.798,396.031,425.797z M396.031,384.284
			c-1.835,0.001-3.596-0.728-4.894-2.025c-1.298-1.298-2.026-3.058-2.025-4.894v-13.838c0-3.821,3.098-6.919,6.919-6.919
			c3.821,0,6.919,3.098,6.919,6.919v13.838c0.001,1.835-0.728,3.596-2.025,4.894C399.627,383.556,397.867,384.285,396.031,384.284z
			 M396.031,342.77c-1.835,0.001-3.596-0.728-4.894-2.025c-1.298-1.298-2.026-3.058-2.025-4.894v-13.838
			c0-3.821,3.098-6.919,6.919-6.919c3.821,0,6.919,3.098,6.919,6.919v13.838c0.001,1.835-0.728,3.596-2.025,4.894
			C399.627,342.043,397.867,342.771,396.031,342.77z M396.031,301.257c-1.835,0.001-3.596-0.728-4.894-2.025
			c-1.298-1.298-2.026-3.058-2.025-4.894V280.5c0-3.821,3.098-6.919,6.919-6.919c3.821,0,6.919,3.098,6.919,6.919v13.838
			c0.001,1.835-0.728,3.596-2.025,4.894C399.627,300.529,397.867,301.258,396.031,301.257z M396.031,259.743
			c-1.835,0.001-3.596-0.728-4.894-2.025c-1.298-1.298-2.026-3.058-2.025-4.894v-13.838c0-3.821,3.098-6.919,6.919-6.919
			c3.821,0,6.919,3.098,6.919,6.919v13.838c0.001,1.835-0.728,3.596-2.025,4.894C399.627,259.016,397.867,259.744,396.031,259.743z
			 M396.031,218.23c-1.835,0.001-3.596-0.728-4.894-2.025c-1.298-1.298-2.026-3.058-2.025-4.894v-13.838
			c0-3.821,3.098-6.919,6.919-6.919c3.821,0,6.919,3.098,6.919,6.919v13.838c0.001,1.835-0.728,3.596-2.025,4.894
			C399.627,217.502,397.867,218.231,396.031,218.23z"/>
		<path style="fill:#336A93;" d="M202.714,212.784c-1.835,0.001-3.596-0.728-4.894-2.025c-1.298-1.298-2.026-3.058-2.025-4.894
			v-10.608c0-3.821,3.098-6.919,6.919-6.919s6.919,3.098,6.919,6.919v10.608c0.001,1.835-0.728,3.596-2.025,4.894
			S204.549,212.785,202.714,212.784z M202.714,174.5c-1.835,0.001-3.596-0.728-4.894-2.025c-1.298-1.298-2.026-3.058-2.025-4.894
			v-13.838c0-3.821,3.098-6.919,6.919-6.919s6.919,3.098,6.919,6.919v13.838c0.001,1.835-0.728,3.596-2.025,4.894
			C206.309,173.772,204.549,174.501,202.714,174.5z M202.714,132.986c-1.835,0.001-3.596-0.728-4.894-2.025
			c-1.298-1.298-2.026-3.058-2.025-4.894V112.23c0-3.821,3.098-6.919,6.919-6.919s6.919,3.098,6.919,6.919v13.838
			c0.001,1.835-0.728,3.596-2.025,4.894C206.309,132.259,204.549,132.988,202.714,132.986z"/>
		<path style="fill:#336A93;" d="M224.126,194.824c-1.835,0.001-3.596-0.728-4.894-2.025c-1.298-1.298-2.026-3.058-2.025-4.894
			v-5.007c0-3.821,3.098-6.919,6.919-6.919s6.919,3.098,6.919,6.919v5.007c0.001,1.835-0.728,3.596-2.025,4.894
			C227.722,194.097,225.961,194.825,224.126,194.824z M224.126,162.142c-1.835,0.001-3.596-0.728-4.894-2.025
			s-2.026-3.058-2.025-4.894v-13.838c0-3.821,3.098-6.919,6.919-6.919s6.919,3.098,6.919,6.919v13.838
			c0.001,1.835-0.728,3.596-2.025,4.894C227.722,161.414,225.961,162.143,224.126,162.142z M224.126,120.628
			c-1.835,0.001-3.596-0.728-4.894-2.025c-1.298-1.298-2.026-3.058-2.025-4.894V99.872c0-3.821,3.098-6.919,6.919-6.919
			s6.919,3.098,6.919,6.919v13.838c0.001,1.835-0.728,3.596-2.025,4.894C227.722,119.901,225.961,120.629,224.126,120.628z"/>
	</g>
	<polygon style="fill:#DADCDA;" points="244.134,259.875 244.134,235.312 201.306,210.612 201.306,235.174 179.926,222.789 
		179.926,413.129 265.514,462.53 265.514,272.259 	"/>
	<g>
		<path style="fill:#5496CE;" d="M244.126,429.75c-1.835,0.001-3.596-0.728-4.894-2.025c-1.298-1.298-2.026-3.058-2.025-4.894
			v-13.838c0-3.821,3.098-6.919,6.919-6.919c3.821,0,6.919,3.098,6.919,6.919v13.838c0.001,1.835-0.728,3.596-2.025,4.894
			C247.722,429.022,245.961,429.751,244.126,429.75z M244.126,388.236c-1.835,0.001-3.596-0.728-4.894-2.025
			c-1.298-1.298-2.026-3.058-2.025-4.894V367.48c0-3.821,3.098-6.919,6.919-6.919c3.821,0,6.919,3.098,6.919,6.919v13.838
			c0.001,1.835-0.728,3.596-2.025,4.894C247.722,387.509,245.961,388.238,244.126,388.236z M244.126,346.723
			c-1.835,0.001-3.596-0.728-4.894-2.025c-1.298-1.298-2.026-3.058-2.025-4.894v-13.838c0-3.821,3.098-6.919,6.919-6.919
			c3.821,0,6.919,3.098,6.919,6.919v13.838c0.001,1.835-0.728,3.596-2.025,4.894C247.722,345.995,245.961,346.724,244.126,346.723z
			 M244.126,305.209c-1.835,0.001-3.596-0.728-4.894-2.025c-1.298-1.298-2.026-3.058-2.025-4.894v-13.838
			c0-3.821,3.098-6.919,6.919-6.919c3.821,0,6.919,3.098,6.919,6.919v13.838c0.001,1.835-0.728,3.596-2.025,4.894
			C247.722,304.482,245.961,305.211,244.126,305.209z"/>
		<path style="fill:#5496CE;" d="M222.72,417.385c-1.835,0.001-3.596-0.728-4.894-2.025c-1.298-1.298-2.026-3.058-2.025-4.894
			v-13.838c0-3.821,3.098-6.919,6.919-6.919s6.919,3.098,6.919,6.919v13.838c0.001,1.835-0.728,3.596-2.025,4.894
			S224.556,417.386,222.72,417.385z M222.72,375.872c-1.835,0.001-3.596-0.728-4.894-2.025c-1.298-1.298-2.026-3.058-2.025-4.894
			v-13.838c0-3.821,3.098-6.919,6.919-6.919s6.919,3.098,6.919,6.919v13.838c0.001,1.835-0.728,3.596-2.025,4.894
			C226.316,375.144,224.556,375.873,222.72,375.872z M222.72,334.358c-1.835,0.001-3.596-0.728-4.894-2.025
			c-1.298-1.298-2.026-3.058-2.025-4.894v-13.838c0-3.821,3.098-6.919,6.919-6.919s6.919,3.098,6.919,6.919v13.838
			c0.001,1.835-0.728,3.596-2.025,4.894C226.316,333.631,224.556,334.359,222.72,334.358z M222.72,292.845
			c-1.835,0.001-3.596-0.728-4.894-2.025c-1.298-1.298-2.026-3.058-2.025-4.894v-13.838c0-3.821,3.098-6.919,6.919-6.919
			s6.919,3.098,6.919,6.919v13.838c0.001,1.835-0.728,3.596-2.025,4.894C226.316,292.117,224.556,292.846,222.72,292.845z"/>
		<path style="fill:#5496CE;" d="M201.308,405.027c-1.835,0.001-3.596-0.728-4.894-2.025c-1.298-1.298-2.026-3.058-2.025-4.894
			V384.27c0-3.821,3.098-6.919,6.919-6.919c3.821,0,6.919,3.098,6.919,6.919v13.838c0.001,1.835-0.728,3.596-2.025,4.894
			C204.904,404.299,203.144,405.028,201.308,405.027z M201.308,363.513c-1.835,0.001-3.596-0.728-4.894-2.025
			c-1.298-1.298-2.026-3.058-2.025-4.894v-13.838c0-3.821,3.098-6.919,6.919-6.919c3.821,0,6.919,3.098,6.919,6.919v13.838
			c0.001,1.835-0.728,3.596-2.025,4.894C204.904,362.786,203.144,363.515,201.308,363.513z M201.308,322
			c-1.835,0.001-3.596-0.728-4.894-2.025c-1.298-1.298-2.026-3.058-2.025-4.894v-13.838c0-3.821,3.098-6.919,6.919-6.919
			c3.821,0,6.919,3.098,6.919,6.919v13.838c0.001,1.835-0.728,3.596-2.025,4.894C204.904,321.272,203.144,322.001,201.308,322z
			 M201.308,280.486c-1.835,0.001-3.596-0.728-4.894-2.025c-1.298-1.298-2.026-3.058-2.025-4.894V259.73
			c0-3.821,3.098-6.919,6.919-6.919c3.821,0,6.919,3.098,6.919,6.919v13.838c0.001,1.835-0.728,3.596-2.025,4.894
			S203.144,280.488,201.308,280.486z"/>
	</g>
	<polygon style="fill:#A5B4B4;" points="201.306,210.612 201.306,235.174 179.926,222.789 179.926,222.72 	"/>
	<polygon style="fill:#B4B4B3;" points="265.514,173.596 265.514,222.997 244.134,235.312 201.306,210.612 246.417,184.597 
		246.556,184.458 246.625,184.458 	"/>
</g>
<g>
</g>
<g>
</g>
<g>
</g>
<g>
</g>
<g>
</g>
<g>
</g>
<g>
</g>
<g>
</g>
<g>
</g>
<g>
</g>
<g>
</g>
<g>
</g>
<g>
</g>
<g>
</g>
<g>
</g>
</svg>
