<?xml version="1.0" encoding="iso-8859-1"?>
<!-- Generator: Adobe Illustrator 19.0.0, SVG Export Plug-In . SVG Version: 6.00 Build 0)  -->
<svg version="1.1" id="Capa_1" xmlns="http://www.w3.org/2000/svg" xmlns:xlink="http://www.w3.org/1999/xlink" x="0px" y="0px"
	 viewBox="0 0 512 512" style="enable-background:new 0 0 512 512;" xml:space="preserve">
<g transform="translate(-1)">
	<path style="fill:#DC6C33;" d="M469.757,256.075c37.785-32.036,52.489-83.715,37.227-130.844
		c-15.262-47.128-57.468-80.378-106.86-84.183s-96.193,22.589-118.493,66.824c-18.552-2.204-37.338-1.386-55.628,2.422
		c-14.321,2.894-28.066,8.131-40.683,15.498c-20.757,12.454-31.204,28.437-31.274,44.074v28.99c0,0.899,0,1.73,0.069,2.629h-0.069
		l-21.725,13.077l-6.158,16.329l-32.934,0.83l-0.346,8.095l-0.484,12.454l-38.469,0.899l-0.899,22.694l-40.752,1.038L1,283.682
		l0.899,35.563v28.921l60.264,1.799h0.069L223.72,253.1c26.067,3.926,52.692,1.626,77.699-6.711
		c9.505,10.233,20.72,18.732,33.142,25.116l-0.069,0.138c-6.241,8.527-9.565,18.839-9.479,29.405v151.179
		c-0.567,9.92,6.967,18.443,16.882,19.096h131.944c9.94-0.621,17.514-9.152,16.951-19.096V301.048
		c0.053-10.561-3.268-20.863-9.479-29.405L469.757,256.075z M326.258,234.765c19.373-12.039,29.405-27.399,29.751-42.344v-28.99
		c0.484-15.083-8.718-29.959-27.883-41.029c-6.412-3.705-13.21-6.698-20.272-8.925c19.503-32.694,56.407-50.863,94.211-46.383
		s69.44,30.771,80.762,67.117c11.322,36.346,0.212,75.952-28.361,101.108l-24.009-32.519c-5.114-7.439-13.563-11.884-22.59-11.884
		s-17.476,4.444-22.59,11.884l-35.148,47.671C341.427,246.467,333.379,241.172,326.258,234.765L326.258,234.765z"/>
	<path style="fill:#EACA6F;" d="M223.651,224.11L62.163,321.044L1.9,319.245L1,283.682l11.278-6.781l40.752-1.038l0.899-22.694
		l38.469-0.899l0.484-12.454l0.346-8.095l32.934-0.83l6.158-16.329l21.725-13.077h0.069l9.894-5.95
		c5.066,5.885,11.132,10.828,17.92,14.599C194.837,217.369,208.99,222.11,223.651,224.11z"/>
	<path style="fill:#FAEDBD;" d="M51.98,308.763c-3.111,0.003-5.842-2.07-6.674-5.068s0.439-6.182,3.106-7.783l153.96-92.378
		c3.276-1.967,7.527-0.905,9.493,2.372c1.967,3.276,0.905,7.527-2.372,9.493L55.534,307.776
		C54.462,308.422,53.233,308.763,51.98,308.763z"/>
	<g>
		<polygon style="fill:#BFA057;" points="223.722,224.11 223.722,253.1 62.235,349.965 62.166,349.965 62.166,321.044 
			223.653,224.11 		"/>
		<polygon style="fill:#BFA057;" points="62.166,321.044 62.166,349.965 1.902,348.166 1.902,319.245 		"/>
	</g>
	<path style="fill:#F6DB6D;" d="M356.01,163.431v0.554c-0.553,15.222-11.07,30.651-31.204,42.759
		c-5.002,2.963-10.204,5.575-15.568,7.818c-8.203,3.305-16.675,5.898-25.323,7.749c-19.793,4.21-40.179,4.843-60.195,1.868v-0.069
		h-0.069c-14.661-1.999-28.814-6.741-41.721-13.976c-6.788-3.771-12.854-8.714-17.92-14.599c-6.263-7.02-9.799-16.055-9.963-25.462
		v-0.208c0.069-15.637,10.517-31.619,31.274-44.074c12.617-7.368,26.362-12.604,40.683-15.498
		c18.29-3.807,37.076-4.625,55.628-2.422c-0.761,1.453-1.522,2.975-2.145,4.497l28.368,1.107c7.063,2.228,13.86,5.22,20.272,8.925
		C347.292,133.472,356.494,148.348,356.01,163.431z"/>
	<g>
		<path style="fill:#BFA057;" d="M295.918,144.719c7.078,5.083,6.499,12.934-1.737,18.081l-0.579,0.386
			c-7.645,4.152-16.516,5.452-25.031,3.668c-2.804-0.474-5.504-1.432-7.979-2.831c-8.88-5.212-8.494-13.899,0.772-19.497
			c2.845-1.645,5.927-2.839,9.137-3.539"/>
		<path style="fill:#BFA057;" d="M356.01,163.984v28.437c-0.346,14.945-10.378,30.305-29.751,42.344
			c-0.484,0.346-0.969,0.623-1.453,0.969c-7.406,4.35-15.243,7.921-23.386,10.655c-25.007,8.337-51.633,10.637-77.699,6.711v-28.921
			c20.016,2.975,40.402,2.342,60.195-1.868c8.648-1.851,17.12-4.444,25.323-7.749c5.364-2.243,10.565-4.856,15.568-7.818
			C344.94,194.635,355.456,179.206,356.01,163.984z"/>
		<path style="fill:#BFA057;" d="M164.01,195.535l-9.894,5.95c-0.069-0.899-0.069-1.73-0.069-2.629v-28.783
			C154.211,179.48,157.746,188.515,164.01,195.535z"/>
	</g>
	<path style="fill:#926F66;" d="M419.27,255.137c-7.679-5.613-18.303-4.793-25.031,1.93c-0.712,0.713-1.358,1.488-1.93,2.317
		c-5.613,7.656-4.793,18.264,1.93,24.966c0.264,0.273,0.543,0.531,0.836,0.772c7.626,6.795,19.23,6.456,26.446-0.772
		c1.152-1.175,2.147-2.494,2.96-3.925"/>
	<g>
		<path style="fill:#3A3E48;" d="M416.65,443.317h-57.912c-3.821,0-6.919-3.098-6.919-6.919s3.098-6.919,6.919-6.919h57.912
			c3.821,0,6.919,3.098,6.919,6.919S420.471,443.317,416.65,443.317z"/>
		<path style="fill:#3A3E48;" d="M397.345,417.58h-38.608c-3.821,0-6.919-3.098-6.919-6.919c0-3.821,3.098-6.919,6.919-6.919h38.608
			c3.821,0,6.919,3.098,6.919,6.919C404.264,414.483,401.166,417.58,397.345,417.58z"/>
		<path style="fill:#3A3E48;" d="M416.65,391.837h-57.912c-3.821,0-6.919-3.098-6.919-6.919c0-3.821,3.098-6.919,6.919-6.919h57.912
			c3.821,0,6.919,3.098,6.919,6.919C423.568,388.739,420.471,391.837,416.65,391.837z"/>
	</g>
	<g>
		<path style="fill:#928170;" d="M350.129,250.471l-15.568,21.034c-12.422-6.384-23.637-14.883-33.142-25.116
			c8.142-2.734,15.98-6.305,23.386-10.655c0.484-0.346,0.969-0.623,1.453-0.969C333.379,241.172,341.426,246.467,350.129,250.471z"
			/>
		<path style="fill:#928170;" d="M513,162.947c0.081,35.913-15.755,70.017-43.243,93.129c-13.142,11.299-28.581,19.609-45.25,24.355
			c-9.572,2.769-19.448,4.349-29.405,4.705c-0.291-0.238-0.568-0.492-0.83-0.761c-6.739-6.699-7.563-17.32-1.937-24.977
			c9.133-0.109,18.2-1.555,26.915-4.29c13.018-4.003,25.027-10.751,35.217-19.788c33.312-29.37,42.276-77.684,21.717-117.049
			c-20.558-39.365-65.33-59.616-108.468-49.061s-73.501,49.19-73.561,93.6c-0.157,0.155-0.346,0.273-0.553,0.346
			c-7.636,4.195-16.528,5.497-25.047,3.667c-0.069-1.245-0.069-2.629-0.069-3.875c0.02-17.451,3.771-34.695,11.001-50.577
			l2.145-4.497c25.497-50.546,82.366-76.97,137.44-63.86C474.146,57.122,513.011,106.334,513,162.947z"/>
	</g>
</g>
<g>
</g>
<g>
</g>
<g>
</g>
<g>
</g>
<g>
</g>
<g>
</g>
<g>
</g>
<g>
</g>
<g>
</g>
<g>
</g>
<g>
</g>
<g>
</g>
<g>
</g>
<g>
</g>
<g>
</g>
</svg>
