<?xml version="1.0" encoding="iso-8859-1"?>
<!-- Generator: Adobe Illustrator 19.0.0, SVG Export Plug-In . SVG Version: 6.00 Build 0)  -->
<svg version="1.1" id="Capa_1" xmlns="http://www.w3.org/2000/svg" xmlns:xlink="http://www.w3.org/1999/xlink" x="0px" y="0px"
	 viewBox="0 0 506.619 506.619" style="enable-background:new 0 0 506.619 506.619;" xml:space="preserve">
<g transform="translate(-1)">
	<polygon style="fill:#FEDEBB;" points="304.008,162.623 160.511,248.708 130.542,266.662 1.723,343.94 1.723,388.791 
		204.611,506.619 506.896,325.235 506.896,280.384 	"/>
	<polygon style="fill:#D5BFA3;" points="204.611,461.768 204.611,506.619 1.723,388.791 1.723,343.94 	"/>
	<g>
		<path style="fill:#928170;" d="M351.201,355.411c-1.201,0.001-2.382-0.316-3.42-0.92l-58.727-34.093
			c-3.262-1.892-4.373-6.071-2.48-9.333c1.893-3.262,6.071-4.373,9.333-2.48l58.727,34.093c2.673,1.55,3.971,4.701,3.167,7.684
			C356.997,353.344,354.29,355.415,351.201,355.411L351.201,355.411z"/>
		<path style="fill:#928170;" d="M217.721,277.931c-1.201,0.002-2.382-0.316-3.42-0.92l-26.693-15.5
			c-2.11-1.224-3.407-3.481-3.402-5.921s1.311-4.691,3.427-5.907c2.115-1.215,4.718-1.21,6.829,0.014l26.693,15.5
			c2.672,1.55,3.971,4.701,3.167,7.684C223.517,275.864,220.81,277.935,217.721,277.931L217.721,277.931z"/>
		<path style="fill:#928170;" d="M270.081,334.751c-1.201,0.001-2.381-0.316-3.42-0.92l-42.713-24.793
			c-3.262-1.892-4.372-6.071-2.48-9.333c1.893-3.262,6.071-4.372,9.333-2.48l42.713,24.793c2.673,1.55,3.971,4.701,3.167,7.684
			C275.877,332.684,273.17,334.755,270.081,334.751L270.081,334.751z"/>
		<path style="fill:#928170;" d="M206.015,297.564c-1.201,0.001-2.381-0.316-3.42-0.92l-37.38-21.7
			c-3.249-1.898-4.35-6.068-2.462-9.323c1.888-3.255,6.054-4.369,9.315-2.491l37.38,21.7c2.672,1.55,3.971,4.701,3.167,7.683
			S209.104,297.568,206.015,297.564L206.015,297.564z"/>
		<path style="fill:#928170;" d="M306.421,382.277c-1.201,0.001-2.382-0.316-3.42-0.92l-80.087-46.487
			c-3.244-1.901-4.34-6.066-2.454-9.318c1.887-3.252,6.047-4.367,9.307-2.495l80.087,46.487c2.673,1.55,3.971,4.701,3.167,7.684
			C312.217,380.21,309.51,382.281,306.421,382.277L306.421,382.277z"/>
		<path style="fill:#928170;" d="M205.014,323.391c-1.199,0.002-2.377-0.316-3.413-0.92l-52.773-30.58
			c-0.14-0.08-0.48-0.307-0.613-0.393c-2.02-1.367-3.157-3.708-2.983-6.141c0.174-2.433,1.633-4.588,3.827-5.653
			c2.194-1.066,4.79-0.88,6.809,0.487l52.574,30.467c2.673,1.548,3.973,4.698,3.171,7.681S208.103,323.393,205.014,323.391z"/>
		<path style="fill:#928170;" d="M284.035,395.711c-1.201,0.001-2.381-0.316-3.42-0.92l-32.033-18.593
			c-2.115-1.222-3.416-3.48-3.413-5.923c0.004-2.443,1.312-4.697,3.43-5.913c2.119-1.216,4.725-1.207,6.836,0.023l32.033,18.593
			c2.672,1.55,3.971,4.701,3.167,7.684C289.831,393.644,287.124,395.715,284.035,395.711L284.035,395.711z"/>
		<path style="fill:#928170;" d="M216.861,436.017c-1.201,0.001-2.381-0.316-3.42-0.92l-58.726-34.093
			c-2.11-1.224-3.407-3.481-3.402-5.921c0.005-2.44,1.311-4.691,3.427-5.907c2.115-1.215,4.718-1.21,6.829,0.014l58.727,34.093
			c2.672,1.55,3.971,4.701,3.167,7.683C222.657,433.95,219.95,436.021,216.861,436.017L216.861,436.017z"/>
		<path style="fill:#928170;" d="M230.642,364.717c-1.201,0.001-2.381-0.316-3.42-0.92l-37.373-21.693
			c-3.249-1.898-4.35-6.068-2.462-9.323s6.054-4.369,9.315-2.491l37.373,21.693c2.672,1.55,3.971,4.701,3.167,7.683
			C236.438,362.65,233.731,364.721,230.642,364.717z"/>
		<path style="fill:#928170;" d="M171.908,330.631c-1.201,0.002-2.382-0.316-3.42-0.92l-30.567-17.747
			c-2.115-1.222-3.416-3.48-3.413-5.923c0.004-2.443,1.312-4.697,3.43-5.913s4.725-1.207,6.836,0.023l30.567,17.747
			c2.672,1.55,3.971,4.701,3.167,7.684C177.704,328.564,174.997,330.635,171.908,330.631L171.908,330.631z"/>
	</g>
	<path style="fill:#336A93;" d="M228.328,422.837c-0.093,0-0.187,0-0.28-0.007c-1.809-0.072-3.515-0.86-4.743-2.191
		c-1.228-1.33-1.877-3.094-1.804-4.903l0.3-7.54c-7.051-2.187-12.635-7.609-15.027-14.593l-21.553-2.047
		c-1.802-0.17-3.463-1.05-4.616-2.445c-1.153-1.396-1.704-3.193-1.531-4.995c0.143-1.813,1.015-3.491,2.417-4.65
		c1.402-1.159,3.215-1.699,5.023-1.497l27.213,2.58c1.815,0.171,3.486,1.062,4.64,2.473c1.154,1.412,1.694,3.227,1.5,5.04
		c-0.667,6.28,10.047,8.287,10.153,8.307c3.36,0.605,5.763,3.588,5.64,7l-0.52,12.913
		C234.995,419.942,231.989,422.833,228.328,422.837z"/>
	<g>
		<path style="fill:#928170;" d="M271.115,308.924c-1.201,0.002-2.382-0.316-3.42-0.92l-32.033-18.6
			c-3.249-1.898-4.35-6.068-2.462-9.323c1.888-3.255,6.054-4.369,9.315-2.491l32.033,18.6c2.672,1.55,3.971,4.701,3.167,7.683
			C276.911,306.857,274.204,308.928,271.115,308.924z"/>
		<path style="fill:#928170;" d="M328.815,368.844c-1.201,0.001-2.381-0.316-3.42-0.92l-37.373-21.693
			c-3.249-1.898-4.35-6.068-2.462-9.323c1.888-3.255,6.054-4.369,9.315-2.491l37.373,21.693c2.673,1.55,3.971,4.701,3.167,7.684
			C334.611,366.777,331.904,368.848,328.815,368.844L328.815,368.844z"/>
		<polygon style="fill:#928170;" points="506.896,280.384 506.896,325.235 204.611,506.619 204.611,461.768 		"/>
		<path style="fill:#928170;" d="M376.741,236.851c-1.326-1.339-3.143-2.076-5.027-2.04l-65.62,1.56
			c-3.769,0.091-6.753,3.217-6.667,6.987c0.143,3.746,3.238,6.699,6.987,6.667l6.985-0.166l-17.031,10.219
			c-0.128,0.077-0.218,0.187-0.339,0.27c-0.178,0.122-0.335,0.259-0.501,0.399c-0.562,0.46-1.046,1.007-1.433,1.621
			c-0.033,0.054-0.089,0.082-0.121,0.137l-0.017,0.051c-0.381,0.695-0.637,1.452-0.757,2.235c-0.034,0.199-0.058,0.387-0.075,0.587
			c-0.015,0.188-0.071,0.37-0.071,0.56c0.005,0.56,0.08,1.118,0.222,1.66l0.014,0.102c0.163,0.613,0.412,1.2,0.738,1.745
			c0.079,0.132,0.193,0.225,0.279,0.35c0.117,0.169,0.246,0.317,0.379,0.475c0.462,0.569,1.014,1.058,1.635,1.449
			c0.053,0.033,0.08,0.088,0.135,0.12l32.04,18.594l0.063,0.026c0.348,0.181,0.71,0.331,1.084,0.448
			c0.19,0.067,0.372,0.175,0.565,0.225c0.308,0.061,0.619,0.102,0.932,0.12c0.257,0.048,0.516,0.081,0.776,0.1l0.007-0.001
			l0.007,0.001c0.126,0,0.251-0.043,0.377-0.05c0.462-0.015,0.922-0.076,1.372-0.183c0.18-0.048,0.347-0.149,0.524-0.212
			c0.399-0.128,0.785-0.293,1.153-0.493l0.081-0.035l28.342-17.009l-0.268,6.742c-0.074,1.809,0.575,3.573,1.803,4.904
			c1.228,1.331,2.935,2.118,4.744,2.19c0.093,0.007,0.187,0.007,0.28,0.007c3.661-0.005,6.666-2.896,6.813-6.554l1.547-38.747
			C378.77,240.027,378.063,238.196,376.741,236.851z M331.865,276.596l-18.55-10.765l27.715-16.63l23.731-0.564l-0.335,8.417
			L331.865,276.596z"/>
	</g>
	<path style="fill:#DADCDA;" d="M175.732,46.024c0.918-6.421-2.618-12.651-8.601-15.155c-2.247-1.281-4.628-2.311-7.1-3.072V8.409
		c-0.414-2.588-2.073-4.808-4.437-5.939C148.415-1.006,140-0.803,132.998,3.016c-2.791,1.294-4.687,3.97-4.983,7.031v18.91
		c-2.101,0.813-4.133,1.794-6.075,2.935c-6.243,2.731-10.154,9.031-9.83,15.838l0.068,0.205l10.513,174.217
		c0,0.205,0.068,0.41,0.068,0.614l0.137,0.614l10.445,59.187l0.137,0.546c0.156,1.023,0.693,1.949,1.502,2.594v3.413l3.686,13.449
		c0.622,2.347,2.753,3.976,5.18,3.96c2.428-0.016,4.537-1.673,5.128-4.028l3.277-13.38v-3.413c1.371-0.885,2.273-2.338,2.458-3.959
		l10.65-60.416c0.083-0.451,0.128-0.907,0.137-1.365l10.581-173.875L175.732,46.024z"/>
	<path style="fill:#445C71;" d="M175.732,46.024c-1.486,5.005-4.968,9.178-9.626,11.537c-6.75,3.84-14.354,5.929-22.118,6.076
		c-8.028,0.524-16.042-1.202-23.142-4.983c-4.353-2.089-7.536-6.025-8.67-10.718l-0.068-0.205
		c-0.323-6.807,3.587-13.107,9.83-15.838c1.942-1.141,3.974-2.123,6.075-2.935v7.646c0.11,2.815,1.802,5.326,4.369,6.485
		c7.226,3.476,15.682,3.273,22.733-0.546c2.945-1.376,4.833-4.327,4.847-7.578h0.068v-7.168c2.472,0.761,4.853,1.791,7.1,3.072
		C173.114,33.373,176.65,39.603,175.732,46.024z"/>
	<g>
		<path style="fill:#336A93;" d="M176.074,46.092l-10.581,173.875c-0.008,0.458-0.054,0.915-0.137,1.365
			c-0.901,3.477-3.268,6.391-6.485,7.987c-9.363,5.157-20.656,5.412-30.242,0.683c-2.721-1.351-4.787-3.736-5.734-6.622
			l-0.137-0.614c0-0.205-0.068-0.41-0.068-0.614L112.176,47.935c1.134,4.693,4.317,8.628,8.67,10.718
			c7.1,3.782,15.115,5.508,23.142,4.983c7.764-0.147,15.368-2.236,22.118-6.076c4.658-2.359,8.139-6.532,9.626-11.537
			L176.074,46.092z"/>
		<path style="fill:#336A93;" d="M160.031,8.819v26.146h-0.068c-0.014,3.251-1.902,6.202-4.847,7.578
			c-7.051,3.819-15.507,4.022-22.733,0.546c-2.567-1.16-4.259-3.67-4.369-6.485V10.047c0.18,2.778,1.891,5.225,4.437,6.349
			c7.171,3.511,15.603,3.307,22.596-0.546C157.831,14.547,159.724,11.876,160.031,8.819z"/>
	</g>
	<g>
		<path style="fill:#445C71;" d="M160.031,8.409v0.41c-0.307,3.058-2.2,5.728-4.983,7.031c-6.993,3.853-15.425,4.057-22.596,0.546
			c-2.547-1.124-4.257-3.571-4.437-6.349c0.296-3.062,2.193-5.737,4.983-7.031C140-0.803,148.415-1.006,155.594,2.47
			C157.958,3.601,159.617,5.821,160.031,8.409z"/>
		<path style="fill:#445C71;" d="M152.248,285.708v3.413l-3.277,13.38c-0.591,2.355-2.7,4.012-5.128,4.028
			c-2.428,0.016-4.559-1.613-5.18-3.96l-3.686-13.449v-3.413c0.39,0.372,0.826,0.693,1.297,0.956
			c4.785,2.348,10.413,2.221,15.087-0.341C151.668,286.134,151.964,285.929,152.248,285.708z"/>
	</g>
	<path style="fill:#DADCDA;" d="M143.995,137.897c-3.296,0.393-6.312-1.892-6.827-5.171V63.995c0.86-3.058,3.65-5.171,6.827-5.171
		s5.966,2.113,6.827,5.171v68.731C150.307,136.005,147.291,138.29,143.995,137.897z"/>
</g>
<g>
</g>
<g>
</g>
<g>
</g>
<g>
</g>
<g>
</g>
<g>
</g>
<g>
</g>
<g>
</g>
<g>
</g>
<g>
</g>
<g>
</g>
<g>
</g>
<g>
</g>
<g>
</g>
<g>
</g>
</svg>
