<?xml version="1.0" encoding="iso-8859-1"?>
<!-- Generator: Adobe Illustrator 19.0.0, SVG Export Plug-In . SVG Version: 6.00 Build 0)  -->
<svg version="1.1" id="Capa_1" xmlns="http://www.w3.org/2000/svg" xmlns:xlink="http://www.w3.org/1999/xlink" x="0px" y="0px"
	 viewBox="0 0 512 512" style="enable-background:new 0 0 512 512;" xml:space="preserve">
<g>
	<polygon style="fill:#A5B4B4;" points="159.481,0 124.886,19.926 124.886,380.541 352.588,512 387.114,492.074 387.114,131.459 	
		"/>
	<polygon style="fill:#F0F3F4;" points="352.588,151.386 352.588,512 124.886,380.541 124.886,19.926 	"/>
	<polygon style="fill:#919D9E;" points="387.114,131.459 387.114,492.074 352.588,512 352.588,151.386 	"/>
	<g>
		<polygon style="fill:#A5B4B4;" points="387.114,131.459 352.588,151.386 124.886,19.926 159.481,0 		"/>
		<path style="fill:#A5B4B4;" d="M233.316,238.676c-1.212,0.001-2.403-0.318-3.453-0.926l-75.892-43.811
			c-2.143-1.235-3.463-3.52-3.464-5.993c-0.001-2.473,1.319-4.759,3.46-5.995c2.142-1.236,4.781-1.236,6.922,0.002l75.892,43.811
			c2.714,1.566,4.038,4.761,3.225,7.787C239.195,236.577,236.449,238.68,233.316,238.676z"/>
		<path style="fill:#A5B4B4;" d="M211.633,251.027c-1.212,0.001-2.403-0.318-3.453-0.926l-54.21-31.297
			c-2.143-1.235-3.463-3.52-3.464-5.993c-0.001-2.473,1.319-4.759,3.46-5.995s4.781-1.236,6.922,0.002l54.21,31.297
			c2.714,1.566,4.038,4.761,3.225,7.787S214.767,251.031,211.633,251.027z"/>
	</g>
	<path id="SVGCleanerId_0" style="fill:#A5B4B4;" d="M233.316,313.284c-1.212,0.001-2.403-0.318-3.453-0.926l-75.892-43.811
		c-3.31-1.911-4.444-6.143-2.534-9.453c1.911-3.31,6.143-4.444,9.453-2.534l75.892,43.811c2.714,1.566,4.038,4.761,3.225,7.787
		C239.195,311.185,236.449,313.288,233.316,313.284L233.316,313.284z"/>
	<path style="fill:#A5B4B4;" d="M211.633,325.635c-1.212,0.001-2.403-0.318-3.453-0.926l-54.21-31.291
		c-2.143-1.235-3.463-3.52-3.464-5.993c-0.001-2.473,1.319-4.759,3.46-5.995c2.142-1.236,4.781-1.236,6.922,0.002l54.21,31.291
		c2.714,1.566,4.038,4.761,3.225,7.787C217.512,323.537,214.767,325.639,211.633,325.635z"/>
	<path style="fill:#81CB97;" d="M282.106,291.709c-0.284-0.001-0.569-0.019-0.851-0.054c-2.148-0.265-4.049-1.52-5.135-3.392
		l-16.264-28.041c-1.918-3.306-0.793-7.541,2.514-9.459c3.306-1.918,7.541-0.793,9.459,2.514l11.682,20.142l20.736-21.324
		c2.671-2.705,7.023-2.749,9.748-0.099c2.725,2.65,2.801,7.003,0.171,9.747l-27.101,27.872
		C285.763,290.953,283.974,291.708,282.106,291.709z"/>
	<g>
		<path id="SVGCleanerId_0_1_" style="fill:#A5B4B4;" d="M233.316,313.284c-1.212,0.001-2.403-0.318-3.453-0.926l-75.892-43.811
			c-3.31-1.911-4.444-6.143-2.534-9.453c1.911-3.31,6.143-4.444,9.453-2.534l75.892,43.811c2.714,1.566,4.038,4.761,3.225,7.787
			C239.195,311.185,236.449,313.288,233.316,313.284L233.316,313.284z"/>
	</g>
	<path style="fill:#81CB97;" d="M282.106,366.324c-0.284-0.001-0.569-0.019-0.851-0.054c-2.148-0.265-4.049-1.52-5.135-3.392
		l-16.264-28.047c-1.918-3.306-0.793-7.541,2.514-9.459s7.541-0.793,9.459,2.514l11.682,20.149l20.736-21.331
		c2.67-2.71,7.026-2.756,9.753-0.104c2.727,2.652,2.801,7.009,0.166,9.752l-27.101,27.878
		C285.763,365.568,283.974,366.323,282.106,366.324z"/>
	<g>
		<path style="fill:#A5B4B4;" d="M233.316,387.892c-1.212,0.001-2.403-0.318-3.453-0.926l-75.892-43.811
			c-2.143-1.235-3.463-3.52-3.464-5.993c-0.001-2.473,1.319-4.759,3.46-5.995c2.142-1.236,4.781-1.236,6.922,0.002l75.892,43.811
			c2.714,1.566,4.038,4.761,3.225,7.787C239.195,385.793,236.449,387.896,233.316,387.892z"/>
		<path style="fill:#A5B4B4;" d="M211.633,400.243c-1.212,0.001-2.403-0.318-3.453-0.926l-54.21-31.291
			c-3.31-1.911-4.444-6.143-2.534-9.453c1.911-3.31,6.143-4.444,9.453-2.534l54.21,31.291c2.714,1.566,4.038,4.761,3.225,7.787
			S214.767,400.247,211.633,400.243z"/>
	</g>
	<path style="fill:#81CB97;" d="M282.106,440.932c-0.282-0.001-0.564-0.019-0.845-0.054c-2.151-0.263-4.054-1.518-5.142-3.392
		l-16.264-28.041c-1.918-3.306-0.793-7.541,2.514-9.459c3.306-1.918,7.541-0.793,9.459,2.513l11.682,20.142l20.736-21.331
		c2.67-2.71,7.026-2.757,9.753-0.104s2.801,7.009,0.166,9.753l-27.101,27.878C285.763,440.176,283.974,440.931,282.106,440.932z"/>
	<path style="fill:#A5B4B4;" d="M277.248,169.365l-32.52-56.081c-1.912-3.282-6.109-4.415-9.412-2.541l-32.527,18.527
		c-3.314,1.896-4.467,6.116-2.577,9.433s6.108,4.478,9.428,2.594l5.919-3.371v31.614c0.038,0.279,0.093,0.555,0.167,0.826
		c0.044,0.479,0.139,0.952,0.284,1.41c0.327,0.807,0.765,1.565,1.301,2.251c0.322,0.35,0.679,0.665,1.067,0.94
		c0.201,0.202,0.415,0.391,0.641,0.565l32.527,18.777c0.164,0.095,0.342,0.131,0.511,0.211c0.188,0.09,0.374,0.163,0.571,0.235
		c0.756,0.298,1.559,0.461,2.372,0.48l0.004,0l0.003,0l0.012-0.002c0.81-0.019,1.61-0.18,2.364-0.477
		c0.194-0.071,0.377-0.14,0.562-0.228c0.714-0.32,1.368-0.761,1.932-1.302c0.038-0.038,0.06-0.087,0.097-0.125
		c0.395-0.398,0.739-0.843,1.026-1.324c0.072-0.125,0.069-0.266,0.133-0.394c0.348-0.854,0.587-1.749,0.712-2.663
		c0.008-0.141,0.081-0.259,0.081-0.402v-17.787l3.351,5.78c1.918,3.306,6.153,4.432,9.459,2.514S279.166,172.671,277.248,169.365
		L277.248,169.365z M248.086,176.333l-18.689-10.789v-35.5l6.804-3.875l11.885,20.497V176.333z"/>
</g>
<g>
</g>
<g>
</g>
<g>
</g>
<g>
</g>
<g>
</g>
<g>
</g>
<g>
</g>
<g>
</g>
<g>
</g>
<g>
</g>
<g>
</g>
<g>
</g>
<g>
</g>
<g>
</g>
<g>
</g>
</svg>
