<?xml version="1.0" encoding="utf-8"?>
<!-- Generator: Adobe Illustrator 21.0.0, SVG Export Plug-In . SVG Version: 6.00 Build 0)  -->
<svg version="1.1" id="Слой_1" xmlns="http://www.w3.org/2000/svg" xmlns:xlink="http://www.w3.org/1999/xlink" x="0px" y="0px"
	 viewBox="0 0 470 470" style="enable-background:new 0 0 470 470;" xml:space="preserve">
<style type="text/css">
	.st0{fill:#76B4F4;}
</style>
<g>
	<path class="st0" d="M465.1,138c-3.3-3.6-8.1-5.9-13.4-5.9h-44.8V7.5c0-4.1-3.4-7.5-7.5-7.5H70.6c-4.1,0-7.5,3.4-7.5,7.5v124.6
		H18.3c-5.3,0-10.1,2.3-13.4,5.9c-3,3.3-4.9,7.6-4.9,12.4v301.4C0,461.8,8.2,470,18.3,470h433.4c10.1,0,18.3-8.2,18.3-18.3V150.4
		C470,145.6,468.1,141.2,465.1,138L465.1,138z M70.6,169.5c4.1,0,7.5-3.4,7.5-7.5V15h313.8v147c0,4.1,3.4,7.5,7.5,7.5
		s7.5-3.4,7.5-7.5v-14.9h38L243.4,356.9c-2.3,2.4-5.3,3.6-8.4,3.6s-6.2-1.3-8.4-3.6L25.1,147.1h38V162
		C63.1,166.1,66.5,169.5,70.6,169.5z M451.7,455H18.3c-1.8,0-3.3-1.5-3.3-3.3V158.2L152.1,301L31.5,426.7c-2.9,3-2.8,7.7,0.2,10.6
		c1.5,1.4,3.3,2.1,5.2,2.1c2,0,3.9-0.8,5.4-2.3l120.2-125.2l53.2,55.4c5.1,5.3,12,8.3,19.3,8.3s14.1-2.9,19.3-8.3l53.2-55.4l47,49
		c1.5,1.5,3.4,2.3,5.4,2.3c1.9,0,3.7-0.7,5.2-2.1c3-2.9,3.1-7.6,0.2-10.6L317.9,301L455,158.2v293.5C455,453.5,453.5,455,451.7,455
		L451.7,455z"/>
	<path class="st0" d="M389.2,375.3c-2.9-3-7.6-3.1-10.6-0.2c-3,2.9-3.1,7.6-0.2,10.6l49.3,51.4c1.5,1.5,3.4,2.3,5.4,2.3
		c1.9,0,3.7-0.7,5.2-2.1c3-2.9,3.1-7.6,0.2-10.6L389.2,375.3z"/>
	<path class="st0" d="M146.4,248h141.7c12.9,0,23.4-10.5,23.4-23.4c0-4.6-1.3-8.9-3.7-12.6c6.1-4.2,10.2-11.3,10.2-19.3
		c0-4.6-1.3-8.9-3.7-12.6c6.1-4.2,10.2-11.3,10.2-19.3c0-4.6-1.3-8.9-3.7-12.6c6.1-4.2,10.2-11.3,10.2-19.3
		c0-12.9-10.5-23.4-23.4-23.4l-42.5,0c7.1-15.2,10.9-33.3,10.9-52.1c0-12.9-10.5-23.4-23.4-23.4s-23.4,10.5-23.4,23.4
		c0,28.7-23.4,52.1-52.1,52.1h-30.7c-4.1,0-7.5,3.4-7.5,7.5v127.5C138.9,244.6,142.3,248,146.4,248L146.4,248z M244.2,53.4
		c0-4.6,3.8-8.4,8.4-8.4s8.4,3.8,8.4,8.4c0,21-5.3,40.8-14.9,55.5c-1.5,2.3-1.6,5.2-0.3,7.7s3.8,3.9,6.6,3.9l55.2,0
		c4.6,0,8.4,3.8,8.4,8.4s-3.8,8.4-8.4,8.4h-19.6c-4.1,0-7.5,3.4-7.5,7.5s3.4,7.5,7.5,7.5h13.1c4.6,0,8.4,3.8,8.4,8.4
		s-3.8,8.4-8.4,8.4h-13.1c-4.1,0-7.5,3.4-7.5,7.5s3.4,7.5,7.5,7.5h6.5c4.6,0,8.4,3.8,8.4,8.4s-3.8,8.4-8.4,8.4h-6.5
		c-4.1,0-7.5,3.4-7.5,7.5s3.4,7.5,7.5,7.5c4.6,0,8.4,3.8,8.4,8.4s-3.8,8.4-8.4,8.4H184.6V120.1C218.1,116.4,244.2,87.9,244.2,53.4
		L244.2,53.4z M153.9,120.5h15.7V233h-15.7C153.9,233,153.9,120.5,153.9,120.5z"/>
</g>
</svg>
