<?xml version="1.0" encoding="utf-8"?>
<!-- Generator: Adobe Illustrator 21.0.0, SVG Export Plug-In . SVG Version: 6.00 Build 0)  -->
<svg version="1.1" id="Слой_1" xmlns="http://www.w3.org/2000/svg" xmlns:xlink="http://www.w3.org/1999/xlink" x="0px" y="0px"
	 viewBox="0 0 470 470" style="enable-background:new 0 0 470 470;" xml:space="preserve">
<style type="text/css">
	.st0{fill:#76B4F4;}
</style>
<g>
	<path class="st0" d="M430.8,30h-40.5c-4.1,0-7.5,3.4-7.5,7.5s3.4,7.5,7.5,7.5h14c-2.8,4.7-4.5,10.1-4.5,16v354.5
		c0,4.1,3.4,7.5,7.5,7.5s7.5-3.4,7.5-7.5V61c0-8.8,7.2-16,16-16c8.8,0,16,7.2,16,16v354.5c0,21.8-17.7,39.5-39.5,39.5
		s-39.5-17.7-39.5-39.5V7.5c0-4.1-3.4-7.5-7.5-7.5H15.7c-4.1,0-7.5,3.4-7.5,7.5v408c0,30,24.4,54.5,54.5,54.5h344.6
		c30,0,54.5-24.4,54.5-54.5V61C461.8,43.9,447.9,30,430.8,30z M62.7,455c-21.8,0-39.5-17.7-39.5-39.5V15h329.6v400.5
		c0,15.5,6.5,29.6,17,39.5H62.7z"/>
	<path class="st0" d="M320.3,40H55.7c-4.1,0-7.5,3.4-7.5,7.5v75c0,4.1,3.4,7.5,7.5,7.5h264.6c4.1,0,7.5-3.4,7.5-7.5v-75
		C327.8,43.4,324.5,40,320.3,40z M312.8,115H63.2V55h249.6V115z"/>
	<path class="st0" d="M320.3,145H55.7c-4.1,0-7.5,3.4-7.5,7.5s3.4,7.5,7.5,7.5h264.6c4.1,0,7.5-3.4,7.5-7.5S324.5,145,320.3,145z"/>
	<path class="st0" d="M320.3,205H203c-4.1,0-7.5,3.4-7.5,7.5s3.4,7.5,7.5,7.5h117.3c4.1,0,7.5-3.4,7.5-7.5S324.5,205,320.3,205z"/>
	<path class="st0" d="M173,205H55.7c-4.1,0-7.5,3.4-7.5,7.5s3.4,7.5,7.5,7.5H173c4.1,0,7.5-3.4,7.5-7.5S177.1,205,173,205z"/>
	<path class="st0" d="M320.3,235H203c-4.1,0-7.5,3.4-7.5,7.5s3.4,7.5,7.5,7.5h117.3c4.1,0,7.5-3.4,7.5-7.5S324.5,235,320.3,235z"/>
	<path class="st0" d="M173,235H55.7c-4.1,0-7.5,3.4-7.5,7.5s3.4,7.5,7.5,7.5H173c4.1,0,7.5-3.4,7.5-7.5S177.1,235,173,235z"/>
	<path class="st0" d="M320.3,265H203c-4.1,0-7.5,3.4-7.5,7.5s3.4,7.5,7.5,7.5h117.3c4.1,0,7.5-3.4,7.5-7.5S324.5,265,320.3,265z"/>
	<path class="st0" d="M320.3,295H203c-4.1,0-7.5,3.4-7.5,7.5s3.4,7.5,7.5,7.5h117.3c4.1,0,7.5-3.4,7.5-7.5S324.5,295,320.3,295z"/>
	<path class="st0" d="M203,340h77.3c4.1,0,7.5-3.4,7.5-7.5s-3.4-7.5-7.5-7.5H203c-4.1,0-7.5,3.4-7.5,7.5S198.9,340,203,340z"/>
	<path class="st0" d="M280.3,415H203c-4.1,0-7.5,3.4-7.5,7.5s3.4,7.5,7.5,7.5h77.3c4.1,0,7.5-3.4,7.5-7.5S284.5,415,280.3,415z"/>
	<path class="st0" d="M320.3,385H203c-4.1,0-7.5,3.4-7.5,7.5s3.4,7.5,7.5,7.5h117.3c4.1,0,7.5-3.4,7.5-7.5S324.5,385,320.3,385z"/>
	<path class="st0" d="M173,265H55.7c-4.1,0-7.5,3.4-7.5,7.5v150c0,4.1,3.4,7.5,7.5,7.5H173c4.1,0,7.5-3.4,7.5-7.5v-150
		C180.5,268.4,177.1,265,173,265z M165.5,415H63.2V280h102.3V415z"/>
</g>
</svg>
