<svg xmlns="http://www.w3.org/2000/svg" viewBox="0 0 69.67 44.33"><defs><style>.cls-1{fill:#f1f2f2;}</style></defs><title>Google</title><g id="Слой_2" data-name="Слой 2"><g id="objects"><path class="cls-1" d="M22.17,19v7.6H34.74c-.51,3.26-3.8,9.56-12.57,9.56a14,14,0,0,1,0-28A12.48,12.48,0,0,1,31,11.59l6-5.79A21.25,21.25,0,0,0,22.17,0a22.17,22.17,0,0,0,0,44.33c12.79,0,21.28-9,21.28-21.66A20.44,20.44,0,0,0,43.1,19Z"/><path class="cls-1" d="M69.67,19H63.33V12.67H57V19H50.67v6.33H57v6.33h6.33V25.33h6.33Z"/></g></g></svg>