<?xml version="1.0" encoding="utf-8"?>
<!-- Generator: Adobe Illustrator 21.0.0, SVG Export Plug-In . SVG Version: 6.00 Build 0)  -->
<svg version="1.1" id="Capa_1" xmlns="http://www.w3.org/2000/svg" xmlns:xlink="http://www.w3.org/1999/xlink" x="0px" y="0px"
	 viewBox="0 0 58 58" style="enable-background:new 0 0 58 58;" xml:space="preserve">
<style type="text/css">
	.st0{fill:#FFFFFF;}
</style>
<g>
	<path class="st0" d="M42.9,4.5c-0.5-2.3-2.5-4-4.9-4c-0.6,0-1,0.4-1,1s0.4,1,1,1c1.7,0,3,1.3,3,3s-1.3,3-3,3c-0.6,0-1,0.4-1,1
		s0.4,1,1,1c2.4,0,4.4-1.7,4.9-4H56v9H2v-9h14h3c0.6,0,1-0.4,1-1s-0.4-1-1-1h-1.8c0.4-1.2,1.5-2,2.8-2c1.7,0,3,1.3,3,3s-1.3,3-3,3
		c-0.6,0-1,0.4-1,1s0.4,1,1,1c2.8,0,5-2.2,5-5s-2.2-5-5-5c-2.4,0-4.4,1.7-4.9,4H0v13v40h58v-40v-13H42.9z M56,55.5H2v-38h54V55.5z"
		/>
	<path class="st0" d="M26,2.5c1.7,0,3,1.3,3,3s-1.3,3-3,3c-0.6,0-1,0.4-1,1s0.4,1,1,1c2.8,0,5-2.2,5-5s-2.2-5-5-5c-0.6,0-1,0.4-1,1
		S25.4,2.5,26,2.5z"/>
	<path class="st0" d="M32,2.5c1.7,0,3,1.3,3,3s-1.3,3-3,3c-0.6,0-1,0.4-1,1s0.4,1,1,1c2.8,0,5-2.2,5-5s-2.2-5-5-5c-0.6,0-1,0.4-1,1
		S31.4,2.5,32,2.5z"/>
	<path class="st0" d="M9,25.5h22c0.6,0,1-0.4,1-1s-0.4-1-1-1H9c-0.6,0-1,0.4-1,1S8.4,25.5,9,25.5z"/>
	<path class="st0" d="M49,39.5H34c-0.6,0-1,0.4-1,1s0.4,1,1,1h15c0.6,0,1-0.4,1-1S49.6,39.5,49,39.5z"/>
	<path class="st0" d="M9,33.5h10c0.6,0,1-0.4,1-1s-0.4-1-1-1H9c-0.6,0-1,0.4-1,1C8,33.1,8.4,33.5,9,33.5z"/>
	<path class="st0" d="M49,47.5H39c-0.6,0-1,0.4-1,1s0.4,1,1,1h10c0.6,0,1-0.4,1-1S49.6,47.5,49,47.5z"/>
	<path class="st0" d="M28,32.5c0,0.6,0.4,1,1,1h15c0.6,0,1-0.4,1-1s-0.4-1-1-1H29C28.4,31.5,28,31.9,28,32.5z"/>
	<path class="st0" d="M24.7,33.2c0.2-0.2,0.3-0.5,0.3-0.7c0-0.3-0.1-0.5-0.3-0.7c-0.4-0.4-1-0.4-1.4,0C23.1,32,23,32.2,23,32.5
		c0,0.3,0.1,0.5,0.3,0.7c0.2,0.2,0.5,0.3,0.7,0.3C24.3,33.5,24.5,33.4,24.7,33.2z"/>
	<path class="st0" d="M13,40.5c0,0.6,0.4,1,1,1h15c0.6,0,1-0.4,1-1s-0.4-1-1-1H14C13.4,39.5,13,39.9,13,40.5z"/>
	<path class="st0" d="M9,41.5c0.3,0,0.5-0.1,0.7-0.3C9.9,41,10,40.8,10,40.5c0-0.3-0.1-0.5-0.3-0.7c-0.4-0.4-1.1-0.4-1.4,0
		C8.1,40,8,40.2,8,40.5c0,0.3,0.1,0.5,0.3,0.7C8.5,41.4,8.7,41.5,9,41.5z"/>
	<path class="st0" d="M49,33.5c0.3,0,0.5-0.1,0.7-0.3c0.2-0.2,0.3-0.5,0.3-0.7c0-0.3-0.1-0.5-0.3-0.7c-0.4-0.4-1-0.4-1.4,0
		C48.1,32,48,32.2,48,32.5c0,0.3,0.1,0.5,0.3,0.7C48.5,33.4,48.7,33.5,49,33.5z"/>
	<path class="st0" d="M34,47.5H9c-0.6,0-1,0.4-1,1s0.4,1,1,1h25c0.6,0,1-0.4,1-1S34.6,47.5,34,47.5z"/>
</g>
</svg>
