<?xml version="1.0" encoding="utf-8"?>
<!-- Generator: Adobe Illustrator 21.0.0, SVG Export Plug-In . SVG Version: 6.00 Build 0)  -->
<svg version="1.1" id="Слой_1" xmlns="http://www.w3.org/2000/svg" xmlns:xlink="http://www.w3.org/1999/xlink" x="0px" y="0px"
	 viewBox="0 0 469.4 273.3" style="enable-background:new 0 0 469.4 273.3;" xml:space="preserve">
<style type="text/css">
	.st0{opacity:0.4;}
	.st1{fill:#FFFFFF;stroke:#FFFFFF;stroke-miterlimit:10;}
</style>
<title>Ресурс 5</title>
<g id="Слой_2_1_" class="st0">
	
		<image style="overflow:visible;" width="544" height="338" xlink:href="2244E155.png"  transform="matrix(1 0 0 1 -37.3333 -32.6167)">
	</image>
</g>
<g id="Слой_2">
	<g id="Слой_1-2">
		<path class="st1" d="M86.4,209v54.9h-9.9v-7.8c-3.9,2.6-8.2,4.5-12.7,5.9c-11,3.2-22.9,2.5-33.5-1.9C18.5,255,9,245.5,3.9,233.5
			c-2.6-6.2-4-12.8-3.9-19.5c-0.1-6.7,1.3-13.3,3.9-19.4c2.5-5.9,6.1-11.3,10.7-15.8c4.5-4.6,9.9-8.2,15.8-10.7
			c6.1-2.6,12.8-4,19.5-3.9c6.6,0,13.2,1.3,19.3,3.8c6,2.5,11.4,6.2,16,10.8l-7,7c-3.8-3.6-8.2-6.6-13-8.6c-9.9-4.1-21-4.1-30.9,0
			c-9.6,4.1-17.2,11.7-21.3,21.3c-4.1,9.9-4.1,21.1,0,31.1c4.1,9.6,11.7,17.2,21.3,21.3c9.5,4,20.2,4.1,29.9,0.4
			c4.5-1.7,8.6-4.2,12.3-7.4v-25H48.1V209H86.4z"/>
		<path class="st1" d="M179.5,201.5c0,3.8-0.6,7.6-1.8,11.2c-1.2,3.5-2.8,6.9-4.9,10c-2.1,3.1-4.6,5.8-7.6,8.1
			c-2.9,2.3-6.2,4.1-9.8,5.4l18.9,28h-12L145,238.4c-1.3,0.1-2.5,0.2-3.8,0.2c-1.2,0-2.5,0.1-3.8,0.1H114v25.5h-9.9v-99.9h38
			c5,0,9.9,1,14.5,3c4.4,1.9,8.4,4.6,11.8,8C175.6,182.2,179.5,191.7,179.5,201.5L179.5,201.5z M114.2,228.7h28.1
			c3.6,0,7.2-0.7,10.6-2.1c6.5-2.8,11.7-8,14.5-14.5c1.4-3.3,2.2-6.9,2.1-10.6c0-3.7-0.7-7.3-2.1-10.7c-2.7-6.6-7.9-11.8-14.5-14.6
			c-3.3-1.4-6.9-2.2-10.6-2.1h-28.1C114.2,174.1,114.2,228.7,114.2,228.7z"/>
		<path class="st1" d="M278.6,181.9c0,0,5.8,8,7.9,12.7c2.6,6.1,4,12.7,3.9,19.4c0,6.7-1.3,13.3-3.9,19.5
			c-2.5,5.9-6.2,11.3-10.7,15.8c-4.6,4.5-9.9,8.1-15.8,10.6c-6.1,2.6-12.7,4-19.4,3.9c-6.7,0-13.3-1.3-19.5-3.9
			c-11.9-5-21.5-14.5-26.5-26.5c-2.6-6.1-4-12.8-3.9-19.5c-0.1-6.7,1.3-13.3,3.9-19.4c2.1-4.9,4.9-9.4,8.4-13.4l5.1,9.4
			c-1.8,2.5-3.3,5.1-4.5,7.9c-6.3,15-2.9,32.3,8.6,43.8c3.7,3.6,8,6.5,12.8,8.5c9.9,4.1,21.1,4.1,31.1,0c4.7-2,9.1-4.9,12.7-8.5
			c11.5-11.5,14.9-28.8,8.6-43.8c-1.1-2.5-2.4-5-4-7.3L278.6,181.9z"/>
		<path class="st1" d="M377.5,164.2v61.7c0,5.1-1,10.1-3,14.8c-3.9,9.1-11.2,16.4-20.4,20.3c-9.5,4-20.1,4-29.6,0
			c-4.5-1.9-8.6-4.7-12.1-8.2c-3.5-3.5-6.2-7.6-8.1-12.1c-2-4.7-3-9.7-3-14.8v-61.7h9.9v61.7c0,3.8,0.7,7.5,2.2,11
			c1.4,3.3,3.5,6.4,6,9c8.1,8.1,20.3,10.5,30.9,6.1c6.8-2.9,12.1-8.3,15-15.1c1.5-3.5,2.2-7.2,2.2-11v-61.7H377.5z"/>
		<path class="st1" d="M431.2,164.2c5.1,0,10.1,1,14.8,3c4.5,1.9,8.6,4.6,12.1,8s6.3,7.4,8.2,11.8c4,9.2,4,19.8,0,29
			c-2,4.4-4.7,8.5-8.2,11.8c-7.2,7-16.9,10.8-26.9,10.8h-28.4v25.5h-10.4v-99.9L431.2,164.2z M431.2,228.7c3.7,0,7.4-0.7,10.8-2.1
			c3.3-1.4,6.3-3.4,8.8-5.9s4.6-5.4,6-8.7c1.5-3.3,2.2-6.9,2.2-10.6c0-3.7-0.7-7.3-2.2-10.7c-1.4-3.3-3.5-6.2-6-8.7
			s-5.5-4.5-8.8-5.9c-3.4-1.4-7.1-2.2-10.8-2.1h-28.4v54.6L431.2,228.7z"/>
		<path class="st1" d="M106.6,147.8"/>
		<polygon class="st1" points="144.8,75.3 104.3,149.8 185.3,149.8 		"/>
		<polygon class="st1" points="157.4,51.5 241,196.6 241,128.4 185.4,0 		"/>
		<polygon class="st1" points="337.1,75.3 377.6,149.8 296.6,149.8 		"/>
		<polygon class="st1" points="324.5,51.5 241,196.6 241,128.4 296.5,0 		"/>
		<polygon class="st1" points="241,196.6 240.9,196.6 240.6,128.1 241.2,128.6 		"/>
		<polygon class="st1" points="157.4,51.5 240.9,196.6 324.5,51.5 296.5,0 240.6,128.1 185.4,0 		"/>
	</g>
</g>
</svg>
