<svg xmlns="http://www.w3.org/2000/svg" viewBox="0 0 469.36 264.08"><defs><style>.cls-1{fill:#fff;}</style></defs><title>Ресурс 6</title><g id="Слой_2" data-name="Слой 2"><g id="Слой_1-2" data-name="Слой 1"><path class="cls-1" d="M86.43,209v54.91H76.52v-7.84a48.25,48.25,0,0,1-12.65,5.85A50.12,50.12,0,0,1,30.41,260,49.73,49.73,0,0,1,3.92,233.52,48.64,48.64,0,0,1,0,214.05a48.13,48.13,0,0,1,3.92-19.39,51.42,51.42,0,0,1,10.66-15.84A49.7,49.7,0,0,1,30.41,168.1a48.67,48.67,0,0,1,19.46-3.92A48.57,48.57,0,0,1,69.12,168a50.35,50.35,0,0,1,16,10.8l-7,7a41.82,41.82,0,0,0-13-8.58,39.84,39.84,0,0,0-30.86,0A40.22,40.22,0,0,0,13,198.51a40.41,40.41,0,0,0,0,31.08A40.21,40.21,0,0,0,34.34,250.9a40.23,40.23,0,0,0,29.9.44,42.07,42.07,0,0,0,12.28-7.4v-25H48.1V209Z"/><path class="cls-1" d="M179.5,201.47a35.54,35.54,0,0,1-1.78,11.17,39.91,39.91,0,0,1-4.88,10,35.42,35.42,0,0,1-7.55,8.07,35,35,0,0,1-9.77,5.4l18.94,28h-12l-17.32-25.75q-1.93.15-3.77.22t-3.77.07H114.23v25.46h-9.92v-99.9h38a36,36,0,0,1,14.5,3,38.07,38.07,0,0,1,11.84,8,37.17,37.17,0,0,1,10.8,26.34ZM114.23,228.7h28.12a26.36,26.36,0,0,0,10.58-2.15,27.45,27.45,0,0,0,14.5-14.5,26.36,26.36,0,0,0,2.15-10.58,26.91,26.91,0,0,0-2.15-10.66,27.25,27.25,0,0,0-14.5-14.58,26.38,26.38,0,0,0-10.58-2.15H114.23Z"/><path class="cls-1" d="M278.63,181.94s5.83,8,7.87,12.72a48.16,48.16,0,0,1,3.92,19.39,48.68,48.68,0,0,1-3.92,19.46,49.71,49.71,0,0,1-10.73,15.84A51.42,51.42,0,0,1,259.93,260a48.11,48.11,0,0,1-19.39,3.92A48.62,48.62,0,0,1,221.08,260a49.73,49.73,0,0,1-26.49-26.49,48.64,48.64,0,0,1-3.92-19.46,48.13,48.13,0,0,1,3.92-19.39A51.73,51.73,0,0,1,203,181.22l5.13,9.42a40.15,40.15,0,0,0-4.47,7.94,39.92,39.92,0,0,0,8.58,43.81A40.82,40.82,0,0,0,225,250.9a40.41,40.41,0,0,0,31.08,0,40.87,40.87,0,0,0,12.73-8.51,40.15,40.15,0,0,0,8.58-43.81,40.35,40.35,0,0,0-4-7.25Z"/><path class="cls-1" d="M377.52,164.18v61.72a36.63,36.63,0,0,1-3,14.8A38.72,38.72,0,0,1,354.13,261a37.61,37.61,0,0,1-29.6,0,39,39,0,0,1-12.14-8.21,38,38,0,0,1-8.14-12.14,37.37,37.37,0,0,1-3-14.8V164.18h9.92v61.72a27.51,27.51,0,0,0,2.22,11,29.14,29.14,0,0,0,6,9,28.19,28.19,0,0,0,30.93,6.07,28.47,28.47,0,0,0,15-15.1,27.51,27.51,0,0,0,2.22-11V164.18Z"/><path class="cls-1" d="M431.17,164.18a37.44,37.44,0,0,1,14.8,3,39.43,39.43,0,0,1,12.14,8A37.8,37.8,0,0,1,466.32,187a36.2,36.2,0,0,1,0,29,37.75,37.75,0,0,1-8.21,11.84,38.59,38.59,0,0,1-26.94,10.8H402.76v25.46H392.4v-99.9Zm0,64.53a27.25,27.25,0,0,0,10.8-2.15,28.3,28.3,0,0,0,8.81-5.85,28,28,0,0,0,6-8.66A25.58,25.58,0,0,0,459,201.47a26.11,26.11,0,0,0-2.22-10.66,27.84,27.84,0,0,0-6-8.73,28.38,28.38,0,0,0-8.81-5.85,27.27,27.27,0,0,0-10.8-2.15H402.76V228.7Z"/><polygon class="cls-1" points="144.81 75.35 104.32 149.83 185.3 149.83 144.81 75.35"/><polygon class="cls-1" points="337.12 75.35 377.61 149.83 296.63 149.83 337.12 75.35"/><polygon class="cls-1" points="157.41 51.53 240.95 196.56 324.52 51.53 296.5 0 240.6 128.07 185.43 0 157.41 51.53"/></g></g></svg>