<?xml version="1.0" encoding="utf-8"?>
<!-- Generator: Adobe Illustrator 21.0.0, SVG Export Plug-In . SVG Version: 6.00 Build 0)  -->
<svg version="1.1" id="Layer_1" xmlns="http://www.w3.org/2000/svg" xmlns:xlink="http://www.w3.org/1999/xlink" x="0px" y="0px"
	 viewBox="0 0 512 512" style="enable-background:new 0 0 512 512;" xml:space="preserve">
<style type="text/css">
	.st0{fill:#F2F2F2;}
</style>
<g>
	<g>
		<path class="st0" d="M437,75C388.7,26.6,324.4,0,256,0S123.3,26.6,75,75C26.6,123.3,0,187.6,0,256s26.6,132.7,75,181
			c48.4,48.4,112.6,75,181,75s132.7-26.6,181-75c48.4-48.4,75-112.6,75-181S485.4,123.3,437,75z M256,491.6
			C126.1,491.6,20.4,385.9,20.4,256S126.1,20.4,256,20.4S491.6,126.1,491.6,256S385.9,491.6,256,491.6z"/>
	</g>
</g>
<g>
	<g>
		<path class="st0" d="M387.6,124.2c-13.9-13.9-36.6-13.9-50.5,0L124.4,336.9c-6.8,6.8-10.6,15.9-10.5,25.5
			c0,9.7,3.9,18.7,10.7,25.5c7,6.8,16.1,10.3,25.2,10.3c9.2,0,18.5-3.5,25.4-10.5l212.4-212.9C401.5,160.8,401.5,138.2,387.6,124.2z
			 M373.2,160.3l-212.4,213c-6,6-15.8,6.1-21.9,0.1c-3-2.9-4.6-6.8-4.6-11s1.6-8.1,4.5-11l212.7-212.7c6-6,15.7-6,21.6,0
			C379.2,144.6,379.2,154.3,373.2,160.3z"/>
	</g>
</g>
<g>
	<g>
		<path class="st0" d="M174.9,129.5c-25,0-45.4,20.4-45.4,45.4s20.4,45.4,45.4,45.4s45.4-20.4,45.4-45.4
			C220.3,149.9,199.9,129.5,174.9,129.5z M174.9,199.9c-13.8,0-25-11.2-25-25s11.2-25,25-25s25,11.2,25,25S188.7,199.9,174.9,199.9z
			"/>
	</g>
</g>
<g>
	<g>
		<path class="st0" d="M337.1,291.7c-25,0-45.4,20.4-45.4,45.4s20.4,45.4,45.4,45.4s45.4-20.4,45.4-45.4S362.1,291.7,337.1,291.7z
			 M337.1,362.1c-13.8,0-25-11.2-25-25s11.2-25,25-25s25,11.2,25,25S350.9,362.1,337.1,362.1z"/>
	</g>
</g>
<g>
	<g>
		<path class="st0" d="M462.1,298.1c-5.5-1.4-11,1.9-12.4,7.4C427.2,394.1,347.5,455.9,256,455.9c-5.6,0-10.2,4.6-10.2,10.2
			s4.6,10.2,10.2,10.2c100.8,0,188.6-68.2,213.5-165.8C470.9,305.1,467.6,299.5,462.1,298.1z"/>
	</g>
</g>
<g>
	<g>
		<path class="st0" d="M466.1,245.8c-5.6,0-10.2,4.6-10.2,10.2c0,2.9-0.1,5.9-0.2,8.7c-0.2,5.6,4.1,10.4,9.7,10.6c0.1,0,0.3,0,0.4,0
			c5.4,0,9.9-4.3,10.2-9.8c0.1-3.2,0.2-6.4,0.2-9.6C476.3,250.4,471.7,245.8,466.1,245.8z"/>
	</g>
</g>
</svg>
