<?xml version="1.0" encoding="utf-8"?>
<!-- Generator: Adobe Illustrator 21.0.0, SVG Export Plug-In . SVG Version: 6.00 Build 0)  -->
<svg version="1.1" id="Capa_1" xmlns="http://www.w3.org/2000/svg" xmlns:xlink="http://www.w3.org/1999/xlink" x="0px" y="0px"
	 viewBox="0 0 512 512" style="enable-background:new 0 0 512 512;" xml:space="preserve">
<style type="text/css">
	.st0{fill:#FFFFFF;}
	.st1{fill:#FFFFFF;stroke:#FFFFFF;stroke-width:8;stroke-miterlimit:10;}
	.st2{fill:#FFFFFF;stroke:#FFFFFF;stroke-width:5;stroke-miterlimit:10;}
	.st3{fill:#FFFFFF;stroke:#FFFFFF;stroke-width:3;stroke-miterlimit:10;}
</style>
<g>
	<g>
		<path class="st0" d="M254.5,295.9c-12.1,9.1-20,23.7-20,40c0,27.6,22.4,50,50,50h165.9c27.6,0,50-22.4,50-50
			c0-16.4-7.9-30.9-20-40c12.1-9.1,20-23.6,20-40s-7.9-30.9-20-40c12.1-9.1,20-23.7,20-40c0-27.6-22.4-50-50-50H284.5
			c-27.6,0-50,22.4-50,50c0,16.4,7.9,30.9,20,40c-12.1,9.1-20,23.7-20,40S242.4,286.7,254.5,295.9z M450.4,205.9H284.5
			c-16.5,0-30-13.5-30-30s13.5-30,30-30h165.9c16.5,0,30,13.5,30,30S466.9,205.9,450.4,205.9z M284.5,305.8h165.9
			c16.5,0,30,13.5,30,30s-13.5,30-30,30H284.5c-16.5,0-30-13.5-30-30S267.9,305.8,284.5,305.8z M254.5,255.9c0-16.5,13.5-30,30-30
			h165.9c16.5,0,30,13.5,30,30s-13.5,30-30,30H284.5C267.9,285.9,254.5,272.4,254.5,255.9z"/>
	</g>
</g>
<g>
	<g>
		<path class="st0" d="M356.6,174.5c0,5.5,4.5,10,10,10h77.5c5.5,0,10-4.5,10-10s-4.5-10-10-10h-77.5
			C361.1,164.5,356.6,169,356.6,174.5z"/>
	</g>
</g>
<g>
	<g>
		<path class="st0" d="M279.9,174.5c0,2.7,1,5.2,2.9,7.1c1.9,1.8,4.5,2.9,7.1,2.9c2.7,0,5.2-1,7.1-2.9c1.8-1.9,2.9-4.5,2.9-7.1
			c0-2.7-1-5.2-2.9-7.1c-1.9-1.8-4.4-2.9-7.1-2.9s-5.2,1-7.1,2.9C281,169.3,279.9,171.9,279.9,174.5z"/>
	</g>
</g>
<g>
	<g>
		<path class="st0" d="M316.8,174.5c0,2.7,1,5.2,2.9,7.1c1.9,1.8,4.5,2.9,7.1,2.9c2.7,0,5.2-1,7.1-2.9c1.8-1.9,2.9-4.5,2.9-7.1
			c0-2.7-1-5.2-2.9-7.1c-1.9-1.8-4.4-2.9-7.1-2.9s-5.2,1-7.1,2.9C317.9,169.3,316.8,171.9,316.8,174.5z"/>
	</g>
</g>
<g>
	<g>
		<path class="st0" d="M356.6,254.4c0,5.5,4.5,10,10,10h77.5c5.5,0,10-4.5,10-10s-4.5-10-10-10h-77.5
			C361.1,244.4,356.6,248.9,356.6,254.4z"/>
	</g>
</g>
<g>
	<g>
		<path class="st0" d="M279.9,254.5c0,2.7,1,5.2,2.9,7.1c1.9,1.8,4.5,2.9,7.1,2.9c2.7,0,5.2-1,7.1-2.9c1.8-1.9,2.9-4.5,2.9-7.1
			c0-2.7-1-5.2-2.9-7.1c-1.9-1.8-4.4-2.9-7.1-2.9s-5.2,1-7.1,2.9C281,249.2,279.9,251.8,279.9,254.5z"/>
	</g>
</g>
<g>
	<g>
		<path class="st0" d="M316.8,254.5c0,2.7,1,5.2,2.9,7.1c1.9,1.8,4.5,2.9,7.1,2.9c2.7,0,5.2-1,7.1-2.9c1.8-1.9,2.9-4.5,2.9-7.1
			c0-2.7-1-5.2-2.9-7.1c-1.9-1.8-4.5-2.9-7.1-2.9c-2.7,0-5.2,1-7.1,2.9C317.9,249.2,316.8,251.8,316.8,254.5z"/>
	</g>
</g>
<g>
	<g>
		<path class="st0" d="M356.6,334.4c0,5.5,4.5,10,10,10h77.5c5.5,0,10-4.5,10-10s-4.5-10-10-10h-77.5
			C361.1,324.4,356.6,328.9,356.6,334.4z"/>
	</g>
</g>
<g>
	<g>
		<path class="st0" d="M279.9,334.4c0,2.7,1,5.2,2.9,7.1c1.9,1.8,4.5,2.9,7.1,2.9c2.7,0,5.2-1,7.1-2.9c1.8-1.9,2.9-4.5,2.9-7.1
			c0-2.7-1-5.2-2.9-7.1c-1.9-1.8-4.4-2.9-7.1-2.9s-5.2,1-7.1,2.9C281,329.2,279.9,331.8,279.9,334.4z"/>
	</g>
</g>
<g>
	<g>
		<path class="st0" d="M316.8,334.4c0,2.7,1,5.2,2.9,7.1c1.9,1.8,4.5,2.9,7.1,2.9c2.7,0,5.2-1,7.1-2.9c1.8-1.9,2.9-4.5,2.9-7.1
			c0-2.7-1-5.2-2.9-7.1c-1.9-1.8-4.5-2.9-7.1-2.9c-2.7,0-5.2,1-7.1,2.9C317.9,329.2,316.8,331.8,316.8,334.4z"/>
	</g>
</g>
<g>
	<g>
		<path class="st0" d="M146.6,447.8c0,5.5,4.5,10,10,10h40.1c5.5,0,10-4.5,10-10V266h5.1c5.5,0,10-4.5,10-10s-4.5-10-10-10h-5.1V64
			c0-5.5-4.5-10-10-10h-34.3c-5.5,0-10,4.5-10,10s4.5,10,10,10h24.3v171.9h-30.2c-5.5,0-10,4.5-10,10s4.5,10,10,10h30.2v171.9h-30.1
			C151.1,437.8,146.6,442.3,146.6,447.8z"/>
	</g>
</g>
<g>
	<g>
		<path class="st0" d="M234.5,481.8c0,5.5,4.5,10,10,10H307c5.5,0,10-4.5,10-10s-4.5-10-10-10h-62.5
			C239,471.8,234.5,476.2,234.5,481.8z"/>
	</g>
</g>
<g>
	<g>
		<path class="st0" d="M423.4,481.8c0,5.5,4.5,10,10,10h57c5.5,0,10-4.5,10-10s-4.5-10-10-10h-57
			C427.9,471.8,423.4,476.2,423.4,481.8z"/>
	</g>
</g>
<g>
	<g>
		<path class="st0" d="M336.6,481.8c0,16.5,13.5,30,30,30s30-13.5,30-30c0-13.1-8.4-24.2-20-28.3v-37.2c0-5.5-4.5-10-10-10
			s-10,4.5-10,10v37.2C345,457.6,336.6,468.7,336.6,481.8z M356.6,481.8c0-5.5,4.5-10,10-10s10,4.5,10,10s-4.5,10-10,10
			S356.6,487.3,356.6,481.8z"/>
	</g>
</g>
<g>
	<g>
		<path class="st1" d="M24.6,96.3c-0.7-0.8-0.7-2,0.1-2.8l23.1-21.6c0.8-0.7,2-0.7,2.8,0.1c0.7,0.8,0.7,2-0.1,2.8l-23,21.7
			c-0.4,0.3-0.9,0.5-1.4,0.5S25,96.8,24.6,96.3z"/>
		<path class="st1" d="M101.8,96.5L78.7,74.9c-0.8-0.7-0.9-2-0.1-2.8c0.7-0.8,2-0.9,2.8-0.1l23.1,21.6c0.8,0.7,0.9,2,0.1,2.8
			c-0.4,0.4-1,0.6-1.5,0.6S102.1,96.8,101.8,96.5z"/>
	</g>
	<path class="st1" d="M2.5,107.1V38.8c0-5.5,4.5-10,10-10h104.2c5.5,0,10,4.5,10,10v68.3c0,5.5-4.5,10-10,10H12.5
		C7,117.1,2.5,112.6,2.5,107.1z M12.5,32.8c-3.3,0-6,2.7-6,6v68.3c0,3.3,2.7,6,6,6h104.2c3.3,0,6-2.7,6-6V38.8c0-3.3-2.7-6-6-6H12.5
		z"/>
	<path class="st1" d="M57.3,80.3L5.9,35.5c-0.8-0.7-0.9-2-0.2-2.8s2-0.9,2.8-0.2L60,77.3c2.5,2.2,6.8,2.2,9.4,0l51.5-44.9
		c0.8-0.7,2.1-0.6,2.8,0.2c0.7,0.8,0.6,2.1-0.2,2.8L72,80.3c-2.1,1.8-4.7,2.7-7.4,2.7C61.9,83,59.3,82.1,57.3,80.3z"/>
</g>
<g>
	<g>
		<path class="st2" d="M11.9,284.4c-2.7,2.7-4.1,5.9-4.1,9.2s1.4,6.5,4.1,9.3c1.2,1.2,2.3,2.4,3.5,3.5c1.7,1.7,3.3,3.2,4.7,4.9
			c0,0,0.1,0,0.1,0.1c4.1,4.5,9.3,6.7,15.5,6.7c0.5,0,1.1-0.1,1.7-0.1c9.2-0.6,17.4-4.1,23.6-7c16.2-7.8,30.3-18.9,42.1-32.9
			c9.7-11.6,16.2-22.5,20.5-34.2c1.7-4.8,4-12.1,3.4-19.9c-0.4-4.9-2.4-9.1-5.8-12.5l-9.1-9.2c-0.1-0.1-0.1-0.1-0.1-0.1
			c-2.7-2.5-5.8-3.9-9.1-3.9s-6.4,1.3-9,3.9c-1.7,1.6-3.4,3.3-5,5c-0.8,0.8-1.7,1.7-2.5,2.5l-7.3,7.3c-5.6,5.7-5.6,13,0,18.6
			c0.8,0.8,1.5,1.5,2.3,2.3c2,2,4,4.1,6.2,6.1c-1.6,3.6-3.8,7.2-7.2,11.4c-6.9,8.5-14.2,15.1-22.1,20.1c-0.8,0.5-1.7,0.9-2.7,1.4
			c-0.7,0.4-1.4,0.7-2.1,1.1l-8.5-8.5c-2.7-2.7-5.9-4.1-9.2-4.1c-3.4,0-6.5,1.5-9.1,4.2L11.9,284.4z M16.8,289.4l14.8-14.8
			c0.1-0.1,0.1-0.1,0.1-0.1c0.9-1,2.2-2,3.9-2s3.2,1.1,4.1,2l9.2,9.2c0.5,0.5,1.9,1.9,4.1,1.9c0.9,0,1.8-0.2,2.7-0.7
			c0.1-0.1,0.2-0.1,0.3-0.2c0.8-0.5,1.7-0.9,2.7-1.4c1.1-0.5,2.2-1.1,3.3-1.8c8.6-5.5,16.4-12.6,23.8-21.7l0,0
			c4.1-5.1,6.8-9.5,8.7-14.1c0,0,0.1-0.1,0.1-0.2c0.5-1.5,0.9-3.8-1.4-6.1c0,0,0,0-0.1-0.1c-2.3-2-4.4-4.2-6.7-6.5
			c-0.8-0.7-1.5-1.5-2.3-2.3c-2.8-2.8-2.8-5.5,0-8.3l7.3-7.3c0.8-0.9,1.7-1.7,2.5-2.6c1.6-1.7,3.2-3.3,4.8-4.8l0.1-0.1
			c0.8-0.9,2.2-1.9,3.9-1.9c1.4,0,2.8,0.7,4.1,1.9l9.2,9.2c2.2,2.3,3.4,4.9,3.7,8c0.4,4.9-0.5,10.1-3,16.8
			c-4,11-10.1,21.2-19.3,32.2c-11.1,13.2-24.4,23.6-39.6,31c-5.5,2.7-12.9,5.8-20.9,6.3c-0.4,0-0.8,0-1.2,0c-4.2,0-7.4-1.4-10.1-4.3
			c-1.7-2-3.5-3.7-5.2-5.4c-1.2-1.2-2.3-2.2-3.3-3.3l0,0C14.3,295,14.3,292.2,16.8,289.4z"/>
		<path class="st2" d="M61.4,216.9c-0.4-2-2.2-3.3-4.2-3c-8.5,1.4-16.3,5.5-22.4,11.6s-10.2,13.9-11.6,22.4c-0.3,2,1,3.9,3,4.2
			c0.2,0.1,0.4,0.1,0.6,0.1c1.8,0,3.3-1.2,3.6-3c1.2-7,4.5-13.4,9.6-18.5s11.5-8.4,18.5-9.6C60.4,220.8,61.7,218.9,61.4,216.9z"/>
		<path class="st2" d="M3.1,251.2c0.2,0.1,0.4,0.1,0.6,0.1c1.8,0,3.3-1.2,3.6-3c2.1-12.5,8-23.9,17.1-33c9.1-9,20.5-15,33-17.1
			c2-0.4,3.3-2.2,3-4.2c-0.4-2-2.2-3.3-4.2-3c-14,2.4-26.8,9-36.9,19.1C9.2,220.2,2.6,233,0.2,247C-0.2,248.9,1.1,250.8,3.1,251.2z"
			/>
	</g>
</g>
<path class="st3" d="M44.1,374.1l-31.2,28.7c-1.3,1.3-2.1,3.2-2.1,5.1v89.9c0,4,3.3,7.3,7.3,7.3h83.8c4,0,7.3-3.3,7.3-7.3V379.3
	c0-4-3.3-7.3-7.3-7.3H49.2C47.3,372,45.5,372.7,44.1,374.1z M19.9,496v-80.7h26.8c5.4,0,9.8-4.4,9.8-9.8v-24.4H100V496H19.9
	L19.9,496z M46.8,406.2l-20.5-0.1l21.2-19.8v19.2C47.5,405.9,47.2,406.2,46.8,406.2L46.8,406.2z M81.3,435.7
	c-0.9,4.1,2.7,7.7,6.8,6.8c2.1-0.5,3.7-2.1,4.2-4.2c0.9-4.1-2.7-7.7-6.8-6.8C83.4,431.9,81.7,433.6,81.3,435.7z M76.4,436.9
	L76.4,436.9c0,2.5-2,4.5-4.5,4.5H32.8c-2.5,0-4.5-2-4.5-4.5l0,0c0-2.5,2-4.5,4.5-4.5h39.1C74.4,432.4,76.5,434.5,76.4,436.9z
	 M81.3,453.9c-0.9,4.1,2.7,7.7,6.8,6.8c2.1-0.4,3.7-2.1,4.2-4.2c0.9-4.1-2.7-7.7-6.8-6.8C83.4,450.1,81.7,451.8,81.3,453.9z
	 M76.4,455.1L76.4,455.1c0,2.5-2,4.5-4.5,4.5H32.8c-2.5,0-4.5-2-4.5-4.5l0,0c0-2.5,2-4.5,4.5-4.5h39.1
	C74.4,450.6,76.5,452.7,76.4,455.1z M81.3,472.1c-0.9,4.1,2.7,7.7,6.8,6.8c2.1-0.5,3.7-2.1,4.2-4.2c0.9-4.1-2.7-7.7-6.8-6.8
	C83.4,468.3,81.7,470,81.3,472.1z M76.4,473.3L76.4,473.3c0,2.5-2,4.5-4.5,4.5H32.8c-2.5,0-4.5-2-4.5-4.5l0,0c0-2.5,2-4.5,4.5-4.5
	h39.1C74.4,468.8,76.5,470.9,76.4,473.3z"/>
</svg>
