<?xml version="1.0" encoding="utf-8"?>
<!-- Generator: Adobe Illustrator 21.0.0, SVG Export Plug-In . SVG Version: 6.00 Build 0)  -->
<svg version="1.1" id="Capa_1" xmlns="http://www.w3.org/2000/svg" xmlns:xlink="http://www.w3.org/1999/xlink" x="0px" y="0px"
	 viewBox="0 0 512 512" style="enable-background:new 0 0 512 512;" xml:space="preserve">
<style type="text/css">
	.st0{fill:#253E4A;}
	.st1{fill:#253E4A;stroke:#253E4A;stroke-width:8;stroke-miterlimit:10;}
	.st2{fill:#253E4A;stroke:#253E4A;stroke-width:5;stroke-miterlimit:10;}
	.st3{fill:#253E4A;stroke:#253E4A;stroke-width:3;stroke-miterlimit:10;}
</style>
<g>
	<g>
		<path class="st0" d="M266,255.9c0-16.3-7.9-30.9-20-40c12.1-9.1,20-23.6,20-40c0-27.6-22.4-50-50-50H50.1c-27.6,0-50,22.4-50,50
			c0,16.3,7.9,30.9,20,40c-12.1,9.1-20,23.6-20,40s7.9,30.9,20,40c-12.1,9.1-20,23.6-20,40c0,27.6,22.4,50,50,50H216
			c27.6,0,50-22.4,50-50c0-16.3-7.9-30.9-20-40C258.1,286.7,266,272.2,266,255.9z M20.1,175.9c0-16.5,13.5-30,30-30H216
			c16.5,0,30,13.5,30,30s-13.5,30-30,30H50.1C33.6,205.9,20.1,192.4,20.1,175.9z M246,335.8c0,16.5-13.5,30-30,30H50.1
			c-16.5,0-30-13.5-30-30s13.5-30,30-30H216C232.6,305.8,246,319.3,246,335.8z M216,285.9H50.1c-16.5,0-30-13.5-30-30s13.5-30,30-30
			H216c16.5,0,30,13.5,30,30S232.6,285.9,216,285.9z"/>
	</g>
</g>
<g>
	<g>
		<path class="st0" d="M133.9,164.5H56.4c-5.5,0-10,4.5-10,10s4.5,10,10,10h77.5c5.5,0,10-4.5,10-10S139.4,164.5,133.9,164.5z"/>
	</g>
</g>
<g>
	<g>
		<path class="st0" d="M217.7,167.4c-1.9-1.9-4.4-2.9-7.1-2.9s-5.2,1.1-7.1,2.9c-1.9,1.9-2.9,4.4-2.9,7.1c0,2.6,1.1,5.2,2.9,7.1
			c1.9,1.9,4.4,2.9,7.1,2.9c2.6,0,5.2-1.1,7.1-2.9c1.9-1.9,2.9-4.4,2.9-7.1C220.6,171.9,219.5,169.3,217.7,167.4z"/>
	</g>
</g>
<g>
	<g>
		<path class="st0" d="M180.8,167.4c-1.9-1.9-4.4-2.9-7.1-2.9s-5.2,1.1-7.1,2.9c-1.9,1.9-2.9,4.4-2.9,7.1c0,2.6,1.1,5.2,2.9,7.1
			c1.9,1.9,4.4,2.9,7.1,2.9c2.6,0,5.2-1.1,7.1-2.9c1.9-1.9,2.9-4.4,2.9-7.1C183.7,171.9,182.6,169.3,180.8,167.4z"/>
	</g>
</g>
<g>
	<g>
		<path class="st0" d="M133.9,244.4H56.4c-5.5,0-10,4.5-10,10s4.5,10,10,10h77.5c5.5,0,10-4.5,10-10
			C143.9,248.9,139.4,244.4,133.9,244.4z"/>
	</g>
</g>
<g>
	<g>
		<path class="st0" d="M217.7,247.4c-1.9-1.9-4.4-2.9-7.1-2.9s-5.2,1.1-7.1,2.9c-1.9,1.9-2.9,4.4-2.9,7.1c0,2.6,1.1,5.2,2.9,7.1
			c1.9,1.9,4.4,2.9,7.1,2.9c2.6,0,5.2-1.1,7.1-2.9c1.9-1.9,2.9-4.4,2.9-7.1C220.6,251.8,219.5,249.2,217.7,247.4z"/>
	</g>
</g>
<g>
	<g>
		<path class="st0" d="M180.8,247.4c-1.9-1.9-4.4-2.9-7.1-2.9c-2.6,0-5.2,1.1-7.1,2.9c-1.9,1.9-2.9,4.4-2.9,7.1
			c0,2.6,1.1,5.2,2.9,7.1c1.9,1.9,4.4,2.9,7.1,2.9c2.6,0,5.2-1.1,7.1-2.9c1.9-1.9,2.9-4.4,2.9-7.1
			C183.7,251.8,182.6,249.2,180.8,247.4z"/>
	</g>
</g>
<g>
	<g>
		<path class="st0" d="M133.9,324.4H56.4c-5.5,0-10,4.5-10,10s4.5,10,10,10h77.5c5.5,0,10-4.5,10-10S139.4,324.4,133.9,324.4z"/>
	</g>
</g>
<g>
	<g>
		<path class="st0" d="M217.7,327.3c-1.9-1.9-4.4-2.9-7.1-2.9s-5.2,1.1-7.1,2.9c-1.9,1.9-2.9,4.4-2.9,7.1c0,2.6,1.1,5.2,2.9,7.1
			c1.9,1.9,4.4,2.9,7.1,2.9c2.6,0,5.2-1.1,7.1-2.9c1.9-1.9,2.9-4.4,2.9-7.1C220.6,331.8,219.5,329.2,217.7,327.3z"/>
	</g>
</g>
<g>
	<g>
		<path class="st0" d="M180.8,327.3c-1.9-1.9-4.4-2.9-7.1-2.9c-2.6,0-5.2,1.1-7.1,2.9c-1.9,1.9-2.9,4.4-2.9,7.1
			c0,2.6,1.1,5.2,2.9,7.1c1.9,1.9,4.4,2.9,7.1,2.9c2.6,0,5.2-1.1,7.1-2.9c1.9-1.9,2.9-4.4,2.9-7.1
			C183.7,331.8,182.6,329.2,180.8,327.3z"/>
	</g>
</g>
<g>
	<g>
		<path class="st0" d="M343.9,437.8h-30.1V265.9h30.2c5.5,0,10-4.5,10-10s-4.5-10-10-10h-30.2V74h24.3c5.5,0,10-4.5,10-10
			s-4.5-10-10-10h-34.3c-5.5,0-10,4.5-10,10v182h-5.1c-5.5,0-10,4.5-10,10c0,5.5,4.5,10,10,10h5.1v181.8c0,5.5,4.5,10,10,10h40.1
			c5.5,0,10-4.5,10-10S349.4,437.8,343.9,437.8z"/>
	</g>
</g>
<g>
	<g>
		<path class="st0" d="M256,471.8h-62.5c-5.5,0-10,4.5-10,10c0,5.5,4.5,10,10,10H256c5.5,0,10-4.5,10-10
			C266,476.2,261.5,471.8,256,471.8z"/>
	</g>
</g>
<g>
	<g>
		<path class="st0" d="M67.1,471.8h-57c-5.5,0-10,4.5-10,10c0,5.5,4.5,10,10,10h57c5.5,0,10-4.5,10-10
			C77.1,476.2,72.6,471.8,67.1,471.8z"/>
	</g>
</g>
<g>
	<g>
		<path class="st0" d="M143.9,453.5v-37.2c0-5.5-4.5-10-10-10s-10,4.5-10,10v37.2c-11.6,4.1-20,15.2-20,28.3c0,16.5,13.5,30,30,30
			s30-13.5,30-30C163.9,468.7,155.5,457.6,143.9,453.5z M133.9,491.8c-5.5,0-10-4.5-10-10s4.5-10,10-10s10,4.5,10,10
			S139.4,491.8,133.9,491.8z"/>
	</g>
</g>
<g>
	<g>
		<path class="st1" d="M474.4,97c-0.5,0-1-0.2-1.4-0.5L450,74.8c-0.8-0.8-0.8-2-0.1-2.8c0.8-0.8,2-0.8,2.8-0.1l23.1,21.6
			c0.8,0.8,0.8,2,0.1,2.8C475.5,96.8,474.9,97,474.4,97z"/>
		<path class="st1" d="M397.4,97c-0.5,0-1.1-0.2-1.5-0.6c-0.8-0.8-0.7-2.1,0.1-2.8l23.1-21.6c0.8-0.8,2.1-0.7,2.8,0.1
			c0.8,0.8,0.7,2.1-0.1,2.8l-23.1,21.6C398.4,96.8,397.9,97,397.4,97z"/>
	</g>
	<path class="st1" d="M488,117.1H383.8c-5.5,0-10-4.5-10-10V38.8c0-5.5,4.5-10,10-10H488c5.5,0,10,4.5,10,10v68.3
		C498,112.6,493.5,117.1,488,117.1z M383.8,32.8c-3.3,0-6,2.7-6,6v68.3c0,3.3,2.7,6,6,6H488c3.3,0,6-2.7,6-6V38.8c0-3.3-2.7-6-6-6
		H383.8z"/>
	<path class="st1" d="M435.9,83c-2.7,0-5.3-0.9-7.4-2.7l-51.5-44.9c-0.8-0.7-0.9-2-0.2-2.8c0.7-0.8,2-0.9,2.8-0.2l51.5,44.9
		c2.6,2.2,6.9,2.2,9.4,0L492,32.5c0.8-0.7,2.1-0.6,2.8,0.2c0.7,0.8,0.6,2.1-0.2,2.8l-51.4,44.8C441.2,82.1,438.6,83,435.9,83z"/>
</g>
<g>
	<g>
		<path class="st2" d="M473.8,269.6c-2.6-2.7-5.7-4.2-9.1-4.2c-3.3,0-6.5,1.4-9.2,4.1l-8.5,8.5c-0.7-0.4-1.4-0.7-2.1-1.1
			c-1-0.5-1.9-0.9-2.7-1.4c-7.9-5-15.2-11.6-22.1-20.1c-3.4-4.2-5.6-7.8-7.2-11.4c2.2-2,4.2-4.1,6.2-6.1c0.8-0.8,1.5-1.5,2.3-2.3
			c5.6-5.6,5.6-12.9,0-18.6l-7.3-7.3c-0.8-0.8-1.7-1.7-2.5-2.5c-1.6-1.7-3.3-3.4-5-5c-2.6-2.6-5.7-3.9-9-3.9c-3.3,0-6.4,1.4-9.1,3.9
			c0,0,0,0-0.1,0.1l-9.1,9.2c-3.4,3.4-5.4,7.6-5.8,12.5c-0.6,7.8,1.7,15.1,3.4,19.9c4.3,11.7,10.8,22.6,20.5,34.2
			c11.8,14,25.9,25.1,42.1,32.9c6.2,2.9,14.4,6.4,23.6,7c0.6,0,1.2,0.1,1.7,0.1c6.2,0,11.4-2.2,15.5-6.7c0-0.1,0.1-0.1,0.1-0.1
			c1.4-1.7,3-3.2,4.7-4.9c1.2-1.1,2.3-2.3,3.5-3.5c2.7-2.8,4.1-6,4.1-9.3c0-3.3-1.4-6.5-4.1-9.2L473.8,269.6z M483.4,297.9
			C483.4,297.9,483.4,297.9,483.4,297.9c-1,1.1-2.1,2.1-3.3,3.3c-1.7,1.7-3.5,3.4-5.2,5.4c-2.7,2.9-5.9,4.3-10.1,4.3
			c-0.4,0-0.8,0-1.2,0c-8-0.5-15.4-3.6-20.9-6.3c-15.2-7.4-28.5-17.8-39.6-31c-9.2-11-15.3-21.2-19.3-32.2c-2.5-6.7-3.4-11.9-3-16.8
			c0.3-3.1,1.5-5.7,3.7-8l9.2-9.2c1.3-1.2,2.7-1.9,4.1-1.9c1.7,0,3.1,1,3.9,1.9c0,0,0.1,0.1,0.1,0.1c1.6,1.5,3.2,3.1,4.8,4.8
			c0.8,0.9,1.7,1.7,2.5,2.6l7.3,7.3c2.8,2.8,2.8,5.5,0,8.3c-0.8,0.8-1.5,1.6-2.3,2.3c-2.3,2.3-4.4,4.5-6.7,6.5
			c-0.1,0.1-0.1,0.1-0.1,0.1c-2.3,2.3-1.9,4.6-1.4,6.1c0,0.1,0.1,0.2,0.1,0.2c1.9,4.6,4.6,9,8.7,14.1l0,0
			c7.4,9.1,15.2,16.2,23.8,21.7c1.1,0.7,2.2,1.3,3.3,1.8c1,0.5,1.9,0.9,2.7,1.4c0.1,0.1,0.2,0.1,0.3,0.2c0.9,0.5,1.8,0.7,2.7,0.7
			c2.2,0,3.6-1.4,4.1-1.9l9.2-9.2c0.9-0.9,2.4-2,4.1-2c1.7,0,3,1,3.9,2c0,0,0,0,0.1,0.1l14.8,14.8
			C486.2,292.2,486.2,295,483.4,297.9z"/>
		<path class="st2" d="M442,221.1c7,1.2,13.4,4.5,18.5,9.6c5.1,5.1,8.4,11.5,9.6,18.5c0.3,1.8,1.8,3,3.6,3c0.2,0,0.4,0,0.6-0.1
			c2-0.3,3.3-2.2,3-4.2c-1.4-8.5-5.5-16.3-11.6-22.4c-6.1-6.1-13.9-10.2-22.4-11.6c-2-0.3-3.8,1-4.2,3
			C438.8,218.9,440.1,220.8,442,221.1z"/>
		<path class="st2" d="M500.3,247c-2.4-14-9-26.8-19.1-36.9c-10.1-10.1-22.9-16.7-36.9-19.1c-2-0.3-3.8,1-4.2,3c-0.3,2,1,3.8,3,4.2
			c12.5,2.1,23.9,8.1,33,17.1c9.1,9.1,15,20.5,17.1,33c0.3,1.8,1.8,3,3.6,3c0.2,0,0.4,0,0.6-0.1C499.4,250.8,500.7,248.9,500.3,247z
			"/>
	</g>
</g>
<path class="st3" d="M451.3,372h-52.7c-4,0-7.3,3.3-7.3,7.3v118.5c0,4,3.3,7.3,7.3,7.3h83.8c4,0,7.3-3.3,7.3-7.3v-89.9
	c0-1.9-0.8-3.8-2.1-5.1l-31.2-28.7C455,372.7,453.2,372,451.3,372z M480.6,496h-80.1V381.1H444v24.4c0,5.4,4.4,9.8,9.8,9.8h26.8V496
	z M453.7,406.2c-0.4,0-0.7-0.3-0.7-0.7v-19.2l21.2,19.8L453.7,406.2L453.7,406.2z M415,431.5c-4.1-0.9-7.7,2.7-6.8,6.8
	c0.5,2.1,2.1,3.7,4.2,4.2c4.1,0.9,7.7-2.7,6.8-6.8C418.8,433.6,417.1,431.9,415,431.5z M428.6,432.4h39.1c2.5,0,4.5,2,4.5,4.5v0
	c0,2.5-2,4.5-4.5,4.5h-39.1c-2.5,0-4.5-2-4.5-4.5v0C424,434.5,426.1,432.4,428.6,432.4z M415,449.7c-4.1-0.9-7.7,2.7-6.8,6.8
	c0.5,2.1,2.1,3.8,4.2,4.2c4.1,0.9,7.7-2.7,6.8-6.8C418.8,451.8,417.1,450.1,415,449.7z M428.6,450.6h39.1c2.5,0,4.5,2,4.5,4.5l0,0
	c0,2.5-2,4.5-4.5,4.5h-39.1c-2.5,0-4.5-2-4.5-4.5l0,0C424,452.7,426.1,450.6,428.6,450.6z M415,467.9c-4.1-0.9-7.7,2.7-6.8,6.8
	c0.5,2.1,2.1,3.7,4.2,4.2c4.1,0.9,7.7-2.7,6.8-6.8C418.8,470,417.1,468.3,415,467.9z M428.6,468.8h39.1c2.5,0,4.5,2,4.5,4.5l0,0
	c0,2.5-2,4.5-4.5,4.5h-39.1c-2.5,0-4.5-2-4.5-4.5l0,0C424,470.9,426.1,468.8,428.6,468.8z"/>
</svg>
