<?xml version="1.0" encoding="utf-8"?>
<!-- Generator: Adobe Illustrator 21.0.0, SVG Export Plug-In . SVG Version: 6.00 Build 0)  -->
<svg version="1.1" id="Layer_1" xmlns="http://www.w3.org/2000/svg" xmlns:xlink="http://www.w3.org/1999/xlink" x="0px" y="0px"
	 viewBox="0 0 512 291.3" style="enable-background:new 0 0 512 291.3;" xml:space="preserve">
<style type="text/css">
	.st0{fill:#625D6B;}
	.st1{fill:#DCDBDE;}
	.st2{fill:#CAC9CD;}
	.st3{fill:#64BEF0;}
	.st4{fill:#00AADC;}
	.st5{fill:#EDEDEE;}
	.st6{fill:#504B5A;}
</style>
<path class="st0" d="M414.9,185.4h-88.3v26.5H35.3c-4.9,0-8.8,4-8.8,8.8v17.7c0,4.9,4,8.8,8.8,8.8h379.6L414.9,185.4L414.9,185.4z"
	/>
<path class="st1" d="M335.4,0H8.8C4,0,0,4,0,8.8V203c0,4.9,4,8.8,8.8,8.8h326.6c4.9,0,8.8-4,8.8-8.8V8.8C344.3,4,340.3,0,335.4,0z"
	/>
<g>
	<path class="st2" d="M317.8,194.2H26.5c-4.9,0-8.8-4-8.8-8.8l0,0c0-4.9,4-8.8,8.8-8.8h291.3c4.9,0,8.8,4,8.8,8.8l0,0
		C326.6,190.3,322.7,194.2,317.8,194.2z"/>
	<path class="st2" d="M317.8,35.3H26.5c-4.9,0-8.8-4-8.8-8.8l0,0c0-4.9,4-8.8,8.8-8.8h291.3c4.9,0,8.8,4,8.8,8.8l0,0
		C326.6,31.4,322.7,35.3,317.8,35.3z"/>
</g>
<path class="st3" d="M446.9,44.1h-76.1c-4.9,0-8.8,4-8.8,8.8v132.4c0,4.9,4,8.8,8.8,8.8h39.7v44.1h92.7v-63.1
	c0-10.8-2-21.6-5.9-31.7l-33.9-88.1C460.8,48.6,454.2,44.1,446.9,44.1z"/>
<rect x="410.5" y="194.2" class="st4" width="92.7" height="44.1"/>
<circle class="st5" cx="101.5" cy="242.8" r="40.5"/>
<path class="st6" d="M101.5,291.3c-26.8,0-48.6-21.8-48.6-48.6s21.8-48.6,48.6-48.6s48.6,21.8,48.6,48.6S128.3,291.3,101.5,291.3z
	 M101.5,211.9c-17,0-30.9,13.9-30.9,30.9s13.9,30.9,30.9,30.9s30.9-13.9,30.9-30.9S118.6,211.9,101.5,211.9z"/>
<circle class="st1" cx="101.5" cy="242.8" r="17.7"/>
<circle class="st5" cx="410.5" cy="242.8" r="40.5"/>
<path class="st6" d="M410.5,291.3c-26.8,0-48.6-21.8-48.6-48.6s21.8-48.6,48.6-48.6S459,216,459,242.8
	C459,269.5,437.3,291.3,410.5,291.3z M410.5,211.9c-17,0-30.9,13.9-30.9,30.9s13.9,30.9,30.9,30.9s30.9-13.9,30.9-30.9
	S427.5,211.9,410.5,211.9z"/>
<circle class="st1" cx="410.5" cy="242.8" r="17.7"/>
<path class="st0" d="M494.3,247.2h8.8c4.9,0,8.8-4,8.8-8.8v-17.7c0-4.9-4-8.8-8.8-8.8h-8.8c-4.9,0-8.8,4-8.8,8.8v17.7
	C485.5,243.2,489.5,247.2,494.3,247.2z"/>
<path class="st5" d="M494.3,176.6h8.8V203h-8.8c-4.9,0-8.8-4-8.8-8.8v-8.8C485.5,180.5,489.5,176.6,494.3,176.6z"/>
<path class="st0" d="M444.2,61.8h-55.8c-4.9,0-8.8,4-8.8,8.8v44.1c0,4.9,4,8.8,8.8,8.8h82.4c4.5,0,7.6-4.5,6-8.7l-16.1-41.8
	C458.1,66.3,451.5,61.8,444.2,61.8z"/>
</svg>
