<?xml version="1.0" encoding="utf-8"?>
<!-- Generator: Adobe Illustrator 21.0.0, SVG Export Plug-In . SVG Version: 6.00 Build 0)  -->
<svg version="1.1" id="Layer_1" xmlns="http://www.w3.org/2000/svg" xmlns:xlink="http://www.w3.org/1999/xlink" x="0px" y="0px"
	 viewBox="0 0 512 512" style="enable-background:new 0 0 512 512;" xml:space="preserve">
<style type="text/css">
	.st0{fill:#D3D3D3;}
	.st1{fill:#FFFFFF;}
</style>
<path class="st0" d="M430.4,422.5c45.6,0,82.6-37,82.6-82.6c0-39.2-27.3-72-63.9-80.5c-0.7-82.9-68.2-149.9-151.3-149.9
	c-57.1,0-106.7,31.6-132.5,78.2c-7.8-3.4-16.5-5.3-25.6-5.3c-32.8,0-59.8,24.4-63.9,56C33.1,246.9,1,284.5,1,329.6
	c0,51.3,41.6,92.9,92.9,92.9C108.2,422.5,420.6,422.5,430.4,422.5z"/>
<path class="st1" d="M429.4,412.5c45.6,0,82.6-37,82.6-82.6c0-39.2-27.3-72-63.9-80.5c-0.7-82.9-68.2-149.9-151.3-149.9
	c-57.1,0-106.7,31.6-132.5,78.2c-7.8-3.4-16.5-5.3-25.6-5.3c-32.8,0-59.8,24.4-63.9,56C32.1,236.9,0,274.5,0,319.6
	c0,51.3,41.6,92.9,92.9,92.9C107.2,412.5,419.6,412.5,429.4,412.5z"/>
</svg>
