<svg xmlns="http://www.w3.org/2000/svg" viewBox="0 0 200.52 126.68"><defs><style>.cls-1{fill:#91cfe5;}.cls-2{fill:#114b7f;}</style></defs><title>Ресурс 2</title><g id="Слой_2" data-name="Слой 2"><g id="Layer_1" data-name="Layer 1"><path class="cls-1" d="M200.52,126V11.79A11.81,11.81,0,0,0,188.76,0h-177A11.81,11.81,0,0,0,0,11.79V126Z"/><path class="cls-2" d="M35.28,116V0H11.76A11.81,11.81,0,0,0,0,11.78V126H35.28Z"/><path class="cls-2" d="M110.38,79.69V29.46a7.84,7.84,0,0,0-15.67,0v97.22h15.67Z"/><path class="cls-2" d="M82.16,79.69V29.46a7.84,7.84,0,0,0-15.67,0v97.22H82.16Z"/><path class="cls-2" d="M166.53,41.55H146.72a7.84,7.84,0,1,0,0,15.67h19.81a7.84,7.84,0,1,0,0-15.67Z"/><path class="cls-2" d="M146.72,37.3h19.81a7.84,7.84,0,1,0,0-15.67H146.72a7.84,7.84,0,1,0,0,15.67Z"/></g></g></svg>