<?xml version="1.0" encoding="utf-8"?>
<!-- Generator: Adobe Illustrator 21.0.0, SVG Export Plug-In . SVG Version: 6.00 Build 0)  -->
<svg version="1.1" id="Слой_1" xmlns="http://www.w3.org/2000/svg" xmlns:xlink="http://www.w3.org/1999/xlink" x="0px" y="0px"
	 viewBox="0 0 200.5 126.7" style="enable-background:new 0 0 200.5 126.7;" xml:space="preserve">
<style type="text/css">
	.st0{fill:#E0E0E0;}
	.st1{fill:#969696;}
	.st2{fill:#8FA1A8;}
</style>
<title>Ресурс 2</title>
<g id="Слой_2">
	<g id="Layer_1">
		<path class="st0" d="M200.5,126V11.8c0-6.5-5.3-11.8-11.8-11.8h-177C5.3,0,0,5.3,0,11.8V126H200.5z"/>
		<path class="st1" d="M35.3,116V0H11.8C5.3,0,0,5.3,0,11.8V126h35.3V116z"/>
		<path class="st2" d="M110.4,79.7V29.5c-0.2-4.3-3.8-7.7-8.1-7.6c-4.1,0.1-7.4,3.4-7.6,7.6v97.2h15.7V79.7z"/>
		<path class="st2" d="M82.2,79.7V29.5c-0.2-4.3-3.8-7.7-8.1-7.6c-4.1,0.1-7.4,3.4-7.6,7.6v97.2h15.7V79.7z"/>
		<path class="st1" d="M166.5,41.5h-19.8c-4.3-0.2-8,3.2-8.1,7.6s3.2,8,7.6,8.1c0.2,0,0.4,0,0.6,0h19.8c4.3,0.2,8-3.2,8.1-7.6
			s-3.2-8-7.6-8.1C166.9,41.5,166.7,41.5,166.5,41.5z"/>
		<path class="st1" d="M146.7,37.3h19.8c4.3,0.2,8-3.2,8.1-7.6s-3.2-8-7.6-8.1c-0.2,0-0.4,0-0.6,0h-19.8c-4.3-0.2-8,3.2-8.1,7.6
			s3.2,8,7.6,8.1C146.3,37.3,146.5,37.3,146.7,37.3z"/>
	</g>
</g>
</svg>
