<?xml version="1.0" encoding="utf-8"?>
<!-- Generator: Adobe Illustrator 21.0.0, SVG Export Plug-In . SVG Version: 6.00 Build 0)  -->
<svg version="1.1" id="Layer_1" xmlns="http://www.w3.org/2000/svg" xmlns:xlink="http://www.w3.org/1999/xlink" x="0px" y="0px"
	 viewBox="0 0 512 512" style="enable-background:new 0 0 512 512;" xml:space="preserve">
<style type="text/css">
	.st0{fill:#C1C1C1;}
	.st1{fill:#FFFFFF;}
	.st2{opacity:0.1;enable-background:new    ;}
	.st3{fill:#E0E0E0;}
	.st4{font-family:'GraphikLCG-Bold';}
	.st5{font-size:248.1976px;}
	.st6{fill:#8FA1A8;}
</style>
<path class="st0" d="M413.2,461c0,5.4-4.4,9.9-9.8,9.9H94.6c-5.4,0-9.8-4.4-9.8-9.9V58.5c0-5.4,4.4-9.9,9.8-9.9h308.7
	c5.4,0,9.8,4.4,9.8,9.9L413.2,461L413.2,461z"/>
<path class="st1" d="M123.1,48.7H94.6c-5.4,0-9.8,4.4-9.8,9.9V461c0,5.4,4.4,9.9,9.8,9.9h28.5V48.7z"/>
<path class="st2" d="M105.9,461V58.5c0-5.4,4.4-9.9,9.8-9.9H94.6c-5.4,0-9.8,4.4-9.8,9.9V461c0,5.4,4.4,9.9,9.8,9.9h21.1
	C110.4,470.9,105.9,466.4,105.9,461z"/>
<text transform="matrix(1 0 0 1 171.6143 320.8291)" class="st3 st4 st5">A</text>
<g>
	<path class="st6" d="M332.3,357.5H200.7c-4.3,0-7.8,3.5-7.8,7.8s3.5,7.8,7.8,7.8h131.6c4.3,0,7.8-3.5,7.8-7.8
		S336.6,357.5,332.3,357.5z"/>
	<path class="st6" d="M309.4,390.9h-85.7c-4.3,0-7.8,3.5-7.8,7.8s3.5,7.8,7.8,7.8h85.7c4.3,0,7.8-3.5,7.8-7.8
		S313.7,390.9,309.4,390.9z"/>
</g>
</svg>
