<?xml version="1.0" encoding="utf-8"?>
<!-- Generator: Adobe Illustrator 21.0.0, SVG Export Plug-In . SVG Version: 6.00 Build 0)  -->
<svg version="1.1" id="Слой_1" xmlns="http://www.w3.org/2000/svg" xmlns:xlink="http://www.w3.org/1999/xlink" x="0px" y="0px"
	 viewBox="0 0 202.8 563.2" style="enable-background:new 0 0 202.8 563.2;" xml:space="preserve">
<style type="text/css">
	.st0{fill:#C1C1C1;}
	.st1{fill:#8FA1A8;}
	.st2{fill:#E5E5E5;}
	.st3{fill:#707070;}
	.st4{fill:#5A6D72;}
</style>
<title>Ресурс 1</title>
<g id="Слой_2">
	<g id="Слой_1-2">
		<path class="st0" d="M9.8,0h183.4c5.3,0,9.7,4.3,9.7,9.7V39c0,5.3-4.3,9.7-9.7,9.7H9.8c-5.3,0-9.7-4.3-9.7-9.7V9.7
			C0.1,4.3,4.4,0,9.8,0z"/>
		<path class="st1" d="M10.4,145.9h182c5.7,0,10.3,4.6,10.3,10.3v69.6c0,5.7-4.6,10.3-10.3,10.3h-182c-5.7,0-10.3-4.6-10.3-10.3
			v-69.6C0.1,150.6,4.7,145.9,10.4,145.9z"/>
		<path class="st1" d="M11.5,64.9h26c6.3,0,11.3,5.1,11.3,11.3v26c0,6.3-5.1,11.3-11.3,11.3h-26c-6.3,0-11.4-5.1-11.4-11.3v-26
			C0.1,69.9,5.2,64.9,11.5,64.9z"/>
		<path class="st1" d="M88.5,64.9h26c6.3,0,11.3,5.1,11.3,11.3v26c0,6.3-5.1,11.3-11.3,11.3h-26c-6.3,0-11.3-5.1-11.3-11.3v-26
			C77.1,69.9,82.2,64.9,88.5,64.9z"/>
		<path class="st1" d="M165.4,64.9h25.9c6.3,0,11.4,5.1,11.4,11.3v26c0,6.3-5.1,11.3-11.4,11.3h-25.9c-6.3,0-11.4-5.1-11.4-11.3v-26
			C154.1,69.9,159.1,64.9,165.4,64.9z"/>
		<path class="st1" d="M127.2,487.1h64.2c6.3,0,11.4,5.1,11.4,11.4v26c0,6.3-5.1,11.3-11.4,11.3h-64.2c-6.3,0-11.3-5.1-11.3-11.3
			v-26C115.9,492.2,120.9,487.1,127.2,487.1z"/>
		<path class="st2" d="M6.1,117.6h36.8c3.3,0,6,2.7,6,5.9v0c0,3.3-2.7,5.9-6,5.9H6.1c-3.3,0-5.9-2.7-5.9-5.9v0
			C0.1,120.2,2.8,117.6,6.1,117.6z"/>
		<path class="st2" d="M83,117.6h36.8c3.3,0,5.9,2.7,5.9,5.9v0c0,3.3-2.7,5.9-5.9,5.9H83c-3.3,0-5.9-2.7-5.9-5.9v0
			C77,120.2,79.7,117.6,83,117.6z"/>
		<path class="st2" d="M160.1,117.6h36.8c3.3,0,5.9,2.7,5.9,5.9v0c0,3.3-2.7,5.9-5.9,5.9h-36.8c-3.3,0-5.9-2.7-5.9-5.9v0
			C154.2,120.2,156.8,117.6,160.1,117.6z"/>
		<path class="st2" d="M5.9,306.8h36.8c3.3,0,6,2.7,6,5.9l0,0c0,3.3-2.7,5.9-6,5.9H5.9c-3.3,0-5.9-2.7-5.9-5.9l0,0
			C0,309.4,2.7,306.8,5.9,306.8z"/>
		<path class="st3" d="M29.8,333.5h143.2c7.5,0,13.5,6.1,13.5,13.5v0c0,7.5-6.1,13.5-13.5,13.5H29.8c-7.5,0-13.5-6.1-13.5-13.5v0
			C16.3,339.6,22.4,333.5,29.8,333.5z"/>
		<path class="st0" d="M9.1,450.7h184.8c5,0,9,4,9,9v12.7c0,5-4,9-9,9H9.1c-5,0-9-4-9-9v-12.7C0.1,454.7,4.1,450.7,9.1,450.7z"/>
		<path class="st2" d="M9.1,491.3h83.2c5,0,9,4,9,9v54.1c0,5-4,9-9,9H9.1c-5,0-9-4-9-9v-54.1C0.1,495.3,4.1,491.3,9.1,491.3z"/>
		<path class="st2" d="M39.3,368.8h123.9c3,0,5.4,2.4,5.4,5.4l0,0c0,3-2.4,5.4-5.4,5.4H39.3c-3,0-5.4-2.4-5.4-5.4l0,0
			C33.9,371.2,36.3,368.8,39.3,368.8z"/>
		<path class="st2" d="M82.9,306.8h36.8c3.3,0,5.9,2.7,5.9,5.9l0,0c0,3.3-2.7,5.9-5.9,5.9H82.9c-3.3,0-5.9-2.7-5.9-5.9l0,0
			C76.9,309.4,79.6,306.8,82.9,306.8z"/>
		<path class="st4" d="M125.3,544.5h68.1c5.2,0,9.4,4.2,9.4,9.4l0,0c0,5.2-4.2,9.4-9.4,9.4h-68.1c-5.2,0-9.4-4.2-9.4-9.4l0,0
			C115.9,548.7,120.1,544.5,125.3,544.5z"/>
		<path class="st4" d="M67.2,407.9h68.1c5.2,0,9.4,4.2,9.4,9.4v0c0,5.2-4.2,9.4-9.4,9.4H67.2c-5.2,0-9.4-4.2-9.4-9.4v0
			C57.8,412,62,407.9,67.2,407.9z"/>
		<path class="st2" d="M160,306.8h36.8c3.3,0,5.9,2.7,5.9,5.9l0,0c0,3.3-2.7,5.9-5.9,5.9H160c-3.3,0-5.9-2.7-5.9-5.9l0,0
			C154.1,309.4,156.7,306.8,160,306.8z"/>
		<path class="st1" d="M24.4,252.7L24.4,252.7c13.4,0,24.3,10.9,24.3,24.3v0c0,13.4-10.9,24.3-24.3,24.3h0
			C11,301.4,0.1,290.5,0.1,277v0C0.1,263.6,11,252.7,24.4,252.7z"/>
		<path class="st1" d="M101.5,252.7L101.5,252.7c13.4,0,24.3,10.9,24.3,24.3v0c0,13.4-10.9,24.3-24.3,24.3h0
			c-13.4,0-24.3-10.9-24.3-24.3v0C77.1,263.6,88,252.7,101.5,252.7z"/>
		<path class="st1" d="M178.5,252.7L178.5,252.7c13.4,0,24.3,10.9,24.3,24.3v0c0,13.4-10.9,24.3-24.3,24.3h0
			c-13.4,0-24.3-10.9-24.3-24.3v0C154.2,263.6,165,252.7,178.5,252.7z"/>
	</g>
</g>
</svg>
