<svg id="Слой_1" data-name="Слой 1" xmlns="http://www.w3.org/2000/svg" viewBox="0 0 82.39 65.55"><defs><style>.cls-1{fill:#f7f7f7;}.cls-1,.cls-2,.cls-3{stroke:#000;stroke-linecap:round;stroke-linejoin:round;}.cls-2{fill:#efefef;}.cls-3{fill:#e0e0e0;}</style></defs><title>crum1</title><path class="cls-1" d="M246.5,254.5a12.46,12.46,0,0,1-7-6,13.2,13.2,0,0,1-1-7,13.88,13.88,0,0,1,2-7c1.69-2.59,2.91-2.07,5-5,2-2.75,1.41-3.94,3-5,2-1.3,4.5-.64,7,0a21.5,21.5,0,0,1,8,4c2.85,2.28,6.88,5.52,7,10,.13,4.88-4.46,8.33-8,11C259.28,251.93,253,256.64,246.5,254.5Z" transform="translate(-214.79 -223.25)"/><path class="cls-2" d="M251.5,250.5c.53-2.84,1.43-4.31,1-7-.38-2.38-1.32-2.67-1-4,.51-2.11,3-2,6-5,2.11-2.13,1.55-2.91,3-4,3.21-2.41,8.81-.76,12,1,5.4,3,7.49,8.22,9,12,1.61,4,3.46,8.68,2,14-1.27,4.61-4.33,7.2-10,12-4.87,4.12-7.3,6.17-10,6-6.34-.41-11.27-10.23-12-17A30.19,30.19,0,0,1,251.5,250.5Z" transform="translate(-214.79 -223.25)"/><path class="cls-1" d="M217.5,248.5a8.59,8.59,0,0,1,3-4,11.91,11.91,0,0,1,7-3c2.37-.11,3.18.72,5,0,1.67-.66,1.61-1.62,3-2a5.68,5.68,0,0,1,6,3c1.05,2.24-.13,5,0,5s.6-5.25,3-6a3.11,3.11,0,0,1,3,1c1.3,1.47.59,3.92,1,4s.6-2.34,2-3c1.67-.79,4.19,1.32,5,2s5.39,4.64,5,10c-.12,1.59-.54,1.42-2,7-.9,3.45-.65,3.17-1,4-1.39,3.28-5,6.8-9,7-2.78.14-3.2-1.43-6-1-1.92.29-2.06,1.08-6,3-2.86,1.4-4.33,2.09-6,2s-2.08-.84-5-2c-4.39-1.75-5.18-.68-7-2-2.84-2.06-3.64-6.66-3-10,.71-3.67,2.74-3.62,3-7C218.78,252.89,216.57,251.59,217.5,248.5Z" transform="translate(-214.79 -223.25)"/><path class="cls-2" d="M263.5,262.5c-.34,1.24.44,2.5,2,5a23.44,23.44,0,0,0,8,8c2.25,1.31,3.31,1.37,4,1,1-.53,1-1.83,2-2,.76-.13,1.17.62,2,1,2.18,1,5.47-1.44,7-3,.67-.68,3.74-3.82,3-7-.5-2.14-2.43-3.08-2-4s2.25-.12,4-1c2.4-1.21,3.69-5,3-8-1.07-4.64-6.82-6.6-8-7-2.93-1-4.24-.33-8-2-1.35-.6-2.71-1.36-3-1s.91,1.52,2,4a13.11,13.11,0,0,1,1,3c.42,2.39,0,6.07-2,7-.64.3-1.09.15-5-1-4.28-1.26-5.46-1.58-6-1s.32,1.44,0,3C267,260,264.1,260.33,263.5,262.5Z" transform="translate(-214.79 -223.25)"/><path class="cls-3" d="M263.5,256.5c-.46.55,2.3,2.34,3,6,.54,2.84-.21,6.45-2,7-1.48.46-3.29-1.3-4-2-2.78-2.72-2.15-5.29-4-6s-4.61,1.07-6,3c-2,2.75-1.33,5.94-2,6s-1.78-4.11-2-5c-1.27-5.26-.74-7.34-2-8-1.68-.87-4.63,1.77-6,3a15,15,0,0,0-5,9,8.39,8.39,0,0,0,0,3c.64,3.08,2.87,3.61,3,6,.1,2-1.38,2.55-1,4,.12.46.6,1.64,5,3,4.89,1.51,9,2.77,13,1,2.32-1,3.39-2.5,5-2s1.42,1.94,3,3c2.28,1.53,5.46.5,7,0a14.28,14.28,0,0,0,8-7c1.26-2.67,1.17-4.89,1-9-.13-3.27-.27-5.77-2-8-.68-.87-1.79-1.59-4-3C268.87,258.82,264.1,255.78,263.5,256.5Z" transform="translate(-214.79 -223.25)"/></svg>