<svg id="Слой_1" data-name="Слой 1" xmlns="http://www.w3.org/2000/svg" viewBox="0 0 60.76 76.05"><defs><style>.cls-1{fill:#bcbcbc;}.cls-1,.cls-2,.cls-3,.cls-4{stroke:#000;stroke-linecap:round;stroke-linejoin:round;}.cls-2{fill:#e0e0e0;}.cls-3{fill:#efefef;}.cls-4{fill:#f7f7f7;}</style></defs><title>crum3</title><path class="cls-1" d="M239.5,255.5c1.57,7.88,7,13.51,13,14,4.51.37,8.07-2.3,9-3s7.48-5.77,6-12c-1.25-5.25-7.4-7.52-11-8C250.17,245.65,243.62,249.24,239.5,255.5Z" transform="translate(-225.73 -217.96)"/><path class="cls-2" d="M256.5,234.5c2.9-.55,3.7-1,6-1a23.55,23.55,0,0,1,6,1,46.78,46.78,0,0,1,6,2,26.4,26.4,0,0,1,6,3c1.88,1.34,3.2,2.27,4,4,.91,2,.6,3.79,0,7-.73,3.93-1.18,6.3-3,8s-4.36,1.91-8,2c-12.3.32-18.5.45-21-1a17.61,17.61,0,0,1-8-10c-1.38-4.89-.71-11.8,3-14C249.45,234.34,250.25,235.67,256.5,234.5Z" transform="translate(-225.73 -217.96)"/><path class="cls-2" d="M258.5,275.5c.11.16,1.41,2.1,3,2,.62,0,.9-.36,3-2s2.49-1.85,3-2a6.74,6.74,0,0,1,3,0c3,.38,3.51,1.08,5,1s2.59-.9,4-2a17.39,17.39,0,0,0,6-10c.47-2.05.8-3.59,0-5-.67-1.18-1.5-1.17-3-3-1.3-1.59-1-2-2-3a6.82,6.82,0,0,0-5-2c-2.39.15-4,1.93-5,3C266.18,257.36,254.91,270.05,258.5,275.5Z" transform="translate(-225.73 -217.96)"/><path class="cls-3" d="M257.5,256.5a8.36,8.36,0,0,1,0-4,8.6,8.6,0,0,1,4-5c1.09-.63,2.46-1.42,4-1a5.16,5.16,0,0,1,3,3c1.36,2.94.14,5.66,1,6,.56.22,1-.93,3-2a6.1,6.1,0,0,1,4-1,5.29,5.29,0,0,1,3,2,8.75,8.75,0,0,1,2,6,9.2,9.2,0,0,1-3,6c-1.76,1.71-3.61,2.29-6,3-4.36,1.3-6.71,2-9,1C260.06,269,259.19,264.77,257.5,256.5Z" transform="translate(-225.73 -217.96)"/><path class="cls-3" d="M239.5,260.5c-1.93.08-3.34,1.88-5,4a17.2,17.2,0,0,0-3,6c-.72,2.65-.1,3-1,6-.63,2.15-1.14,2.67-1,4s.83,1.78,2,4c1.47,2.8.84,3.13,2,5,.52.83,2.37,3.82,5,4,1.52.1,1.46-.85,5-2a21,21,0,0,1,5-1c1.76-.12,1.84.12,3,0a10.65,10.65,0,0,0,6-3c2.32-2.24,1.53-3.47,4-6,1.94-2,2.55-1.36,4-3,3.44-3.88,2.07-9.73,2-10-.37-1.49-1-4-3-5-1.78-.92-3.74-.26-4-1s1.53-1.3,2-3c.62-2.26-1.6-4.59-2-5-1.29-1.3-4-3-6-2a4.61,4.61,0,0,0-2,3c-.82,2.85.77,4.12,0,6s-3.65,3.28-6,3C243,264.09,242.33,260.38,239.5,260.5Z" transform="translate(-225.73 -217.96)"/><path class="cls-4" d="M226.5,252.5a7.56,7.56,0,0,0,0,4c.44,1.48,1.31,2.46,3,4,3.62,3.31,5.43,5,8,6,2.3.92,4.47,1.79,7,1,2.24-.7,4.6-2.65,5-5,.15-.86-.12-.88,0-2,.32-2.85,2.14-3.54,2-5-.23-2.34-5.18-3.44-5-4,.12-.37,2.17.33,5,0,1.71-.2,3.67-.43,5-2a5.28,5.28,0,0,0,1-5c-.85-2.34-3.6-3.23-6-4s-4-.74-4-1,3,.07,7-1c2.51-.67,4.48-1.67,5-1,.32.42-.26,1,0,2a3.6,3.6,0,0,0,2,2,8.44,8.44,0,0,0,8,0,7.77,7.77,0,0,0,4-7c-.2-2.62-2-4.24-4-6-1.71-1.52-3.67-3.27-6-3-1.85.21-2.93,1.58-4,1-.69-.38-.65-1.17-1-2-.9-2.1-3.56-2.55-9-4-6.81-1.81-6.61-2.17-8-2-3.14.38-5.16,2.3-8,5-3.81,3.62-7.11,6.76-7,11a12.76,12.76,0,0,0,3,8c.89.94,2.18,1.87,2,3-.12.79-.85,1-2,2A10.67,10.67,0,0,0,226.5,252.5Z" transform="translate(-225.73 -217.96)"/></svg>