<svg id="Слой_1" data-name="Слой 1" xmlns="http://www.w3.org/2000/svg" viewBox="0 0 68.27 62.98"><defs><style>.cls-1{fill:#efefef;}.cls-1,.cls-2,.cls-3{stroke:#000;stroke-linecap:round;stroke-linejoin:round;}.cls-2{fill:#f7f7f7;}.cls-3{fill:#e0e0e0;}</style></defs><title>crum2</title><path class="cls-1" d="M242.5,245.5a16.57,16.57,0,0,1-1-9,14.52,14.52,0,0,1,4-8,12.13,12.13,0,0,1,5-3c1.33-.39,3.21-.94,5,0a5,5,0,0,1,2,2c1.62,3-.22,6.94,0,7s.58-3.27,3-5a5.68,5.68,0,0,1,4-1c3.37.55,4.87,4.62,5,5,.9,2.57-.13,3.7,1,5,1.43,1.64,3.64.47,5,2,1.59,1.8.25,5.34,0,6-1.45,3.84-4.8,5.77-7,7-3.11,1.73-7.94,4.43-14,3C246.19,254.54,242.91,246.54,242.5,245.5Z" transform="translate(-221.75 -224.48)"/><path class="cls-1" d="M258.5,250.5a11.27,11.27,0,0,1,2-6,7.68,7.68,0,0,1,4-3,6.48,6.48,0,0,1,4,0c2.48.88,3.49,3.27,4,3s-.42-1.48,0-3c.52-1.89,2.73-3.45,4-3,.94.33.61,1.5,2,3,1.17,1.26,1.84.9,3,2a7.45,7.45,0,0,1,2,5c.05,2.7-1.45,4.73-1,5,.29.18.83-.78,2-1a4,4,0,0,1,3,1c1.75,1.42,1.91,3.75,2,5a10.58,10.58,0,0,1-2,7c-1.18,1.54-2,1.67-6,4-5.31,3.12-4.89,3.54-8,5-3.53,1.65-6.3,3-9,2s-3.84-3.52-5-6C257.19,265.56,257.63,260.54,258.5,250.5Z" transform="translate(-221.75 -224.48)"/><path class="cls-2" d="M241.5,272.5c-4.44-1.27-5.14-.78-7-2-2.46-1.62-3.62-4.07-5-7-1.89-4-1.19-4.93-3-7s-3.35-2.05-4-4a5.19,5.19,0,0,1,1-5c1.5-1.55,3.46-.83,4-2,.7-1.51-2.41-3.07-2-5,.55-2.57,6.43-1.51,10-6,.78-1,1.06-1.74,2-2,2-.56,4.63,1.82,6,4,.42.68.74,1.36,2,6,1.07,4,1.53,6,2,6s0-3.28,2-5a5.46,5.46,0,0,1,4-1c3.84.31,6.34,3.73,8,6a18.87,18.87,0,0,1,4,10c.12,1.75-.58,4.53-2,10-1.78,6.9-2.35,7.55-3,8-2.38,1.66-5.85.59-11-1C245.65,274.31,245.7,273.7,241.5,272.5Z" transform="translate(-221.75 -224.48)"/><path class="cls-3" d="M239.5,277.5c-1.73-3.11-3.09-5.57-3-9a10.06,10.06,0,0,1,2-6c.25-.32,1.93-2.41,3-2,.76.29.68,1.63,1,3,.58,2.48,2.4,4,6,7,4.13,3.42,6.2,5.13,8,5,2.15-.15,2.06-1.65,8-6,2.86-2.09,2.56-1.51,6-4,2.09-1.51,3.09-2.37,5-3,1.11-.37,3.63-1.19,5,0,.46.4.45.74,1,3,.92,3.81,1.36,4.54,1,6a3.44,3.44,0,0,1-1,2c-1.38,1.16-3.2,0-4,1s.47,1.94,0,4c-.07.31-.53,2.36-2,3-1.74.76-3.07-1.23-6-1a9.07,9.07,0,0,0-3,1c-4.6,2-5.33,4-9,5-1.39.39-2.93.8-4,0s-1-2.77-2-3c-.66-.15-1,.59-2,1-1.85.78-4-.43-5-1C242.12,282.16,241,280.2,239.5,277.5Z" transform="translate(-221.75 -224.48)"/></svg>