<svg id="Слой_1" data-name="Слой 1" xmlns="http://www.w3.org/2000/svg" viewBox="0 0 355 274.25"><defs><style>.cls-1{fill:#242430;}.cls-1,.cls-10,.cls-2,.cls-3,.cls-4,.cls-5,.cls-6,.cls-7,.cls-8,.cls-9{stroke:#000;stroke-linecap:round;stroke-linejoin:round;stroke-width:3px;}.cls-2{fill:#b6b6b7;}.cls-3{fill:#3a3a47;}.cls-4{fill:#535360;}.cls-5{fill:#e2e0d9;}.cls-6{fill:#938a7a;}.cls-7{fill:#efefef;}.cls-8{fill:#d3cdbe;}.cls-9{fill:#e2dfd9;}.cls-10{fill:#b2b1af;}</style></defs><title>kit2</title><polygon class="cls-1" points="46.92 48.18 116.31 40.61 82.25 123.88 38.09 120.09 46.92 48.18"/><polygon class="cls-2" points="53.23 74.68 59.54 55.75 131.45 48.18 125.14 69.63 53.23 74.68"/><polygon class="cls-2" points="54.49 79.72 62.06 59.54 137.76 50.7 131.45 74.68 54.49 79.72"/><path class="cls-2" d="M133,207.43c1.26-1.26,11.35-27.76,11.35-27.76L220,172.1l-10.09,26.49Z" transform="translate(-78.5 -118.87)"/><polyline class="cls-3" points="68.37 64.58 147.85 53.23 107.48 231.12 22.95 238.69 68.37 64.58"/><polygon class="cls-4" points="1.5 221.03 46.92 48.18 68.37 64.58 22.95 238.69 1.5 221.03"/><polygon class="cls-5" points="48.18 58.27 62.62 69.16 34.3 173.08 21.69 164.25 48.18 58.27"/><ellipse class="cls-1" cx="100.82" cy="310.88" rx="10.09" ry="6.94" transform="translate(-304.42 184.47) rotate(-70.71)"/><polyline class="cls-6" points="352.87 99.28 293.57 90.45 308.71 127.03 352.87 99.28"/><polyline class="cls-6" points="65.21 85.4 147.22 81.61 141.01 161.1 86.34 151 65.21 85.4"/><polygon class="cls-7" points="286.63 15.38 332.05 20.43 335.84 164.25 286.63 15.38"/><polygon class="cls-7" points="280.32 11.59 321.96 15.38 328.27 170.56 280.32 11.59"/><polygon class="cls-7" points="224.81 1.5 311.87 7.81 316.91 185.7 224.81 33.04 224.81 1.5"/><polygon class="cls-7" points="214.72 6.55 297.96 13.2 303.03 183.18 214.72 74.68 214.72 6.55"/><polygon class="cls-7" points="218.5 11.59 284.11 15.38 289.16 151.64 218.5 11.59"/><polygon class="cls-7" points="203.36 9.07 270.86 14.61 274.02 192.01 203.36 9.07"/><polygon class="cls-7" points="193.27 11.59 258.88 17.9 266.45 183.18 193.27 21.69 193.27 11.59"/><polygon class="cls-7" points="178.13 9.07 248.83 13.34 258.88 186.96 178.13 36.83 178.13 9.07"/><polygon class="cls-7" points="165.51 12.86 238.69 19.16 242.47 175.61 165.51 31.78 165.51 12.86"/><polygon class="cls-7" points="161.73 15.38 228.6 20.43 229.86 164.25 161.73 19.16 161.73 15.38"/><polygon class="cls-7" points="157.94 15.38 220.15 19.79 224.81 164.25 157.94 15.38"/><polygon class="cls-7" points="150.38 11.59 207.79 16.5 210.93 175.61 150.38 35.56 150.38 11.59"/><polygon class="cls-7" points="155.42 20.43 194.08 23.47 197.06 180.65 161.73 97.39 155.42 20.43"/><polygon class="cls-7" points="169.3 24.21 184.44 25.47 184.44 179.39 169.3 24.21"/><polygon class="cls-7" points="108.74 15.38 174.35 20.43 175.61 179.39 108.74 33.04 108.74 15.38"/><polygon class="cls-7" points="97.39 24.21 168.33 33.22 173.08 185.7 97.39 24.21"/><polygon class="cls-7" points="77.2 17.9 157.94 38.09 170.56 195.79 96.12 120.09 77.2 17.9"/><polygon class="cls-8" points="64.58 86.03 165.51 108.74 169.3 272.75 68.37 243.74 64.58 86.03"/><polyline class="cls-9" points="165.51 108.74 353.5 99.91 353.5 247.52 169.3 272.75 165.51 108.74"/><polygon class="cls-10" points="96.12 108.74 137.76 117.57 137.76 145.33 96.12 136.5 96.12 108.74"/></svg>