<svg id="Слой_1" data-name="Слой 1" xmlns="http://www.w3.org/2000/svg" viewBox="0 0 208.1 280"><defs><style>.cls-1{fill:#adadad;}.cls-1,.cls-10,.cls-13,.cls-14,.cls-15,.cls-16,.cls-17,.cls-18,.cls-19,.cls-2,.cls-20,.cls-21,.cls-22,.cls-3,.cls-4,.cls-5,.cls-6,.cls-7,.cls-8,.cls-9{stroke:#000;}.cls-1,.cls-10,.cls-13,.cls-14,.cls-15,.cls-16,.cls-17,.cls-18,.cls-19,.cls-2,.cls-20,.cls-21,.cls-22,.cls-3,.cls-4,.cls-6,.cls-7,.cls-8,.cls-9{stroke-linecap:round;stroke-linejoin:round;stroke-width:2px;}.cls-2{fill:#fff;}.cls-3{fill:#ddd;}.cls-4{fill:#e5dcc7;}.cls-5{fill:#302e2d;stroke-miterlimit:10;}.cls-6{fill:#43443d;}.cls-7{fill:#5e554d;}.cls-8{fill:#68859b;}.cls-9{fill:#1c1b19;}.cls-10,.cls-11{fill:#e8badd;}.cls-12{fill:#4c3815;}.cls-13{fill:none;}.cls-14{fill:#302b26;}.cls-15{fill:#5b4650;}.cls-16{fill:#306d5a;}.cls-17{fill:#59362f;}.cls-18{fill:#aaa293;}.cls-19{fill:#445466;}.cls-20{fill:#b7b7b7;}.cls-21{fill:#677991;}.cls-22{fill:#6d6d6d;}.cls-23{opacity:0.2;}</style></defs><title>kit4</title><path class="cls-1" d="M345,373c-4.43,2.79-4.18,7.41-1,9,3.65,1.82,11-3.5,10-8C353.22,370.56,348.82,370.59,345,373Z" transform="translate(-147 -120)"/><path class="cls-2" d="M216,263,344,382s3-8,10-8L236,246Z" transform="translate(-147 -120)"/><polygon class="cls-3" points="59 150 69 143 197 262 59 150"/><polygon class="cls-4" points="83 250 170 246 170 257 83 262 83 250"/><polygon class="cls-5" points="11 248 83 250 83 262 12 258 11 248"/><polygon class="cls-4" points="82 238 170 235 170 246 83 250 82 238"/><polygon class="cls-6" points="16 235 82 238 83 250 16.75 248 16 235"/><polygon class="cls-7" points="1 233 82 238 82 218 1 218 1 233"/><path class="cls-4" d="M294,336l-65.75,2s-.25,20,.75,20,65-2.22,65-2.22Z" transform="translate(-147 -120)"/><polygon class="cls-8" points="9.5 218 9 206 88 205 88 218 9.5 218"/><path class="cls-4" d="M282,324l-47,1s-1,13,0,13,47-2,47-2Z" transform="translate(-147 -120)"/><polygon class="cls-9" points="51 126 30 270 39 270 70 128 51 126"/><polygon class="cls-9" points="154 126 175 270 166 270 135 128 154 126"/><path class="cls-10" d="M278,142c.89-.86-2.16-7.17-8-10-1.6-.78-5.14-2.49-9-1-4.58,1.76-5.89,6.58-6,7-1.49,5.83,4.14,11.19,7,14,9.39,9.2,21.8,10.56,22,10s-8.17-3-18-11c-4.93-4-7-6.77-7-10,0-2,.84-4.91,3-6C267.36,132.3,276.69,143.26,278,142Z" transform="translate(-147 -120)"/><path class="cls-11" d="M327,121v58H275V121h15v33.5a2.5,2.5,0,0,0,5,0V121h9v18a2,2,0,0,0,4,0V121h6v26a2,2,0,0,0,4,0V121Z" transform="translate(-147 -120)"/><path class="cls-12" d="M318,121v26a2,2,0,0,1-4,0V121Z" transform="translate(-147 -120)"/><path class="cls-12" d="M308,121v18a2,2,0,0,1-4,0V121Z" transform="translate(-147 -120)"/><path class="cls-12" d="M295,121v33.5a2.5,2.5,0,0,1-5,0V121Z" transform="translate(-147 -120)"/><polygon class="cls-13" points="171 1 180 1 180 59 128 59 128 1 143 1 148 1 157 1 161 1 167 1 171 1"/><polygon class="cls-14" points="60 134 39 278 48 278 79 136 60 134"/><polygon class="cls-14" points="166 135 187 279 178 279 147 137 166 135"/><rect class="cls-15" x="34" y="124" width="154" height="16" rx="8" ry="8"/><path class="cls-2" d="M176,238c.59-1.91,17.26,1.64,19,2,39,8.14,140.8-4.71,141-3s-88.36,12.32-113,11a23.47,23.47,0,0,0-3,0c-19.33,1.25-31.75,25.86-33,25-.76-.53,6.54-7.82,5-16-1.38-7.32-9.57-13.89-11-15C178,239.66,175.78,238.72,176,238Z" transform="translate(-147 -120)"/><polygon class="cls-16" points="47 108 47 123 170 123 170 106 47 106 47 108"/><rect class="cls-17" x="34" y="98" width="139" height="8"/><polygon class="cls-18" points="23 98 178 98 189 93 23 98"/><polygon class="cls-19" points="32 74 70 54 200 54 103 72 32 74"/><polygon class="cls-20" points="34 79 70 64 98 67 75 81 34 79"/><polygon class="cls-20" points="36 83 70 64 109 78 36 83"/><polygon class="cls-20" points="34 86 70 70 111 83 34 86"/><polygon class="cls-20" points="34 90 69 76 111 87 34 90"/><polygon class="cls-20" points="36 94 70 83 114 88.5 36 94"/><polygon class="cls-20" points="39 98 40.16 97.58 72 86 112.47 88.8 69 95.33 39 98"/><polygon class="cls-21" points="70 54 67.25 96.67 198 93 200 54 70 54"/><polygon class="cls-4" points="114 57 194 57 192 88 111 90 114 57"/><circle class="cls-22" cx="93" cy="75" r="11"/><rect class="cls-23" x="131" y="4" width="11" height="48" rx="3.06" ry="3.06"/></svg>