<svg id="Слой_1" data-name="Слой 1" xmlns="http://www.w3.org/2000/svg" viewBox="0 0 235 149"><defs><style>.cls-1{fill:#e0e0e0;}.cls-1,.cls-2,.cls-3,.cls-4,.cls-5,.cls-6{stroke:#000;stroke-linecap:round;stroke-linejoin:round;stroke-width:2px;}.cls-2{fill:#efefef;}.cls-3{fill:#f7f7f7;}.cls-4{fill:#a0957f;}.cls-5{fill:#7c7c7c;}.cls-6{fill:#bfb7a5;}</style></defs><title>kit5</title><polygon class="cls-1" points="123 10 209 10 209 53 125 53 123 10"/><rect class="cls-2" x="130" y="12" width="81" height="51"/><rect class="cls-2" x="138" y="14" width="85" height="44"/><polygon class="cls-3" points="135 23 217 23 217 65 138 67 135 23"/><polygon class="cls-1" points="25 1 118 3 116 51 25 51 25 1"/><polygon class="cls-2" points="12 10 14 67 112 68 112 14 12 10"/><path class="cls-2" d="M275.5,229.5c-1-1-3-66-3-66l97,3v65Z" transform="translate(-255.5 -156.5)"/><polygon class="cls-3" points="3 14 106 16 106 63 5 61 3 14"/><polyline class="cls-4" points="120 45 234 45 234 148 120 148 120 45"/><rect class="cls-5" x="152" y="66" width="49" height="23" rx="3.75" ry="3.75"/><rect class="cls-6" x="1" y="41" width="119" height="107"/><rect class="cls-5" x="40" y="56" width="49" height="23" rx="4.13" ry="4.13"/></svg>