<svg id="Слой_1" data-name="Слой 1" xmlns="http://www.w3.org/2000/svg" viewBox="0 0 420 283.96"><defs><style>.cls-1{fill:#e0e0e0;}.cls-1,.cls-2,.cls-3,.cls-4,.cls-5,.cls-6,.cls-7{stroke:#000;stroke-linecap:round;stroke-linejoin:round;stroke-width:2px;}.cls-2{fill:#efefef;}.cls-3{fill:#f7f7f7;}.cls-4{fill:none;}.cls-5{fill:#bfb99f;}.cls-6{fill:#918c77;}.cls-7{fill:#f4f4e9;}</style></defs><title>paper3</title><path class="cls-1" d="M291,296c1-2,6.47.15,23,2,0,0,21.79,2.45,30,0a25.62,25.62,0,0,1,10-1c19.4,1.87,29.09,2.8,35,4,27.45,5.58,60-4.18,60.5-1.5,0,0-30.74,12.59-61.5,17.5-56.27,9-76.31-.83-86-8C297.17,305.43,289.64,298.61,291,296Z" transform="translate(-56.5 -142.54)"/><path class="cls-1" d="M341.5,305.5c-1.34-.79-1.4.31-11,1-5.11.37-11.17.8-17,0-12.49-1.71-16.11-8-20-6-4.4,2.25-2.07,11.47-2,25,.17,31.27-11.89,46.69-3,55,.66.62,3.78,1.75,10,4,16.09,5.82,18.84,3.44,27,8,5.6,3.13,7,4,10,6C337.56,397.07,351.65,311.51,341.5,305.5Z" transform="translate(-56.5 -142.54)"/><path class="cls-2" d="M449.5,299.5c-10,0-14.71,2.47-35,6-40.53,7.06-55,1-73,0-11,24-12,78-6,93,2.5.64,5.24-1.27,13-5,18.48-8.89,36.93-9,43-9,23.8-.11,26,0,26,0,5.3.26,16,1,16,1s-7.61-8.65-8-11C422.5,356.5,445.5,321.5,449.5,299.5Z" transform="translate(-56.5 -142.54)"/><path class="cls-3" d="M290.5,284.5c-.54,1.28,3.21,4,6,6,3.84,2.77,13,8.72,28,12,11.66,2.54,23.76,2.79,27,1a7.15,7.15,0,0,1,4-1,6.62,6.62,0,0,1,3,1c7.91,4.78,30,1,30,1,33.38-5.72,24.32-2.88,43-7,17.78-3.92,44.3-10.52,44-12-.13-.63-5,.17-15,1-18.44,1.53-16.83,0-46,1,0,0-25,.82-30-3a4,4,0,0,0-3-1c-1.82.33-2.79,2.58-3,3-1.73,3.42-17.23,11.74-60,3C302.79,286.29,291.38,282.41,290.5,284.5Z" transform="translate(-56.5 -142.54)"/><path class="cls-4" d="M337.5,338.5c8.16-1.71,18.69-3.81,31-6,22.62-4,39.76-6.32,45-7,9.82-1.29,22-2.72,36-4" transform="translate(-56.5 -142.54)"/><path class="cls-4" d="M361.5,345.5a186.15,186.15,0,0,1,61-5" transform="translate(-56.5 -142.54)"/><path class="cls-4" d="M369.5,348.5a90.57,90.57,0,0,1,47,4" transform="translate(-56.5 -142.54)"/><path class="cls-4" d="M356.5,370.5a68,68,0,0,1,42-12" transform="translate(-56.5 -142.54)"/><path class="cls-4" d="M304.5,330.5a67.32,67.32,0,0,1,33,14" transform="translate(-56.5 -142.54)"/><path class="cls-4" d="M296.5,344.5a58.3,58.3,0,0,1,26,13" transform="translate(-56.5 -142.54)"/><path class="cls-1" d="M57.5,177.5c37,8,73-11,108-5,95.34,16.34,70.17,218.44,24,239-21-13-45.9-14.1-64-28C116.5,318.5,96.5,232.5,57.5,177.5Z" transform="translate(-56.5 -142.54)"/><path class="cls-2" d="M155.5,171.5c77,4,111-15,148-25,18,93-11,188-9,257-42-2-99,10-105,8C190.5,355.5,178.5,240.5,155.5,171.5Z" transform="translate(-56.5 -142.54)"/><path class="cls-3" d="M57.5,177.5c20-5,31.23-.53,74-12,20.36-5.46,37.17-16,50-21,64-3,87,2,123,2-86,34-94,30-149,25C91.5,171.5,99.5,188.5,57.5,177.5Z" transform="translate(-56.5 -142.54)"/><path class="cls-4" d="M57.5,184.5c6.59,1.46,15.46,3.27,26,5,9.71,1.59,19.12,3.14,31,4a251.41,251.41,0,0,0,36,0" transform="translate(-56.5 -142.54)"/><path class="cls-4" d="M81.5,195.5a164.76,164.76,0,0,0,26,6c8.54,1.24,13.61,1.27,29,3,6.85.77,12.42,1.51,16,2" transform="translate(-56.5 -142.54)"/><path class="cls-4" d="M86.5,205.5a270.6,270.6,0,0,0,36,8,270.59,270.59,0,0,0,35,3" transform="translate(-56.5 -142.54)"/><path class="cls-4" d="M109.5,218.5c2,0,27,3,29,3s25-2,25-2" transform="translate(-56.5 -142.54)"/><path class="cls-4" d="M96.5,227.5a192,192,0,0,0,23,8,207.33,207.33,0,0,0,31,6,257.37,257.37,0,0,0,26,2" transform="translate(-56.5 -142.54)"/><path class="cls-4" d="M109.5,245.5a144.81,144.81,0,0,0,50,7" transform="translate(-56.5 -142.54)"/><path class="cls-4" d="M108.5,260.5c7.61,1.19,15.62,2.21,24,3q6.65.62,13,1" transform="translate(-56.5 -142.54)"/><path class="cls-4" d="M121.5,280.5a122.31,122.31,0,0,0,19,6,138.2,138.2,0,0,0,22,3c15.22.94,24.93-.63,25,0s-12.46,3.57-28,5c-23.63,2.17-39.61-.3-40,2-.26,1.57,7,4,10,5a90.36,90.36,0,0,0,37,4" transform="translate(-56.5 -142.54)"/><path class="cls-4" d="M123.5,341.5a105.12,105.12,0,0,0,40,10" transform="translate(-56.5 -142.54)"/><path class="cls-4" d="M197.5,208.5c18.79-.49,34.72-1.74,47-3,17.16-1.76,29.6-3.08,46-7,14.65-3.5,24.91-7.28,25-7,.16.48-30.95,10.89-69,26-24.27,9.64-43.75,17.43-43,20,.44,1.51,7.78,1,36-4,39.65-7,81-15.86,81-16s-38.39,6.45-83,23c-4.66,1.73-52.71,19.7-51,26,.91,3.37,15.73,2.12,29,1a305.52,305.52,0,0,0,56-10" transform="translate(-56.5 -142.54)"/><path class="cls-4" d="M188.5,316.5c6.85-.84,15.71-2.09,26-4,12.57-2.33,25.3-4.74,41-10a235.53,235.53,0,0,0,25-10" transform="translate(-56.5 -142.54)"/><path class="cls-4" d="M211.5,282.5a294.13,294.13,0,0,0,31-2,331.7,331.7,0,0,0,42-8c4.53-1.16,8.3-2.22,11-3" transform="translate(-56.5 -142.54)"/><path class="cls-4" d="M209.5,343.5a215.72,215.72,0,0,0,35-2c7.57-1.06,14.59-2.45,21-4" transform="translate(-56.5 -142.54)"/><path class="cls-4" d="M226.5,353.5a117.12,117.12,0,0,0,48-3" transform="translate(-56.5 -142.54)"/><polygon class="cls-5" points="74 129.96 89 132.96 54 282.96 39 279.96 74 129.96"/><polygon class="cls-6" points="39 132.96 74 129.96 39 279.96 10 259.96 39 132.96"/><polygon class="cls-7" points="76.13 132.96 85 134.96 58.38 250.96 49.5 248.96 76.13 132.96"/></svg>