<svg id="Слой_1" data-name="Слой 1" xmlns="http://www.w3.org/2000/svg" viewBox="0 0 187.06 400.79"><defs><style>.cls-1,.cls-9{fill:#2f5311;}.cls-1,.cls-2,.cls-3,.cls-7,.cls-8{stroke:#000;stroke-width:2px;}.cls-1,.cls-2,.cls-7{stroke-miterlimit:10;}.cls-2,.cls-5{fill:#356b1f;}.cls-3{fill:#b27f6d;}.cls-3,.cls-8{stroke-linecap:round;stroke-linejoin:round;}.cls-4{fill:#2f5411;}.cls-6{fill:#82bc10;}.cls-7,.cls-8{fill:none;}.cls-10{fill:#579021;}.cls-11{fill:#c0d68b;}.cls-12{fill:#618f37;}.cls-13{fill:#fff;}.cls-13,.cls-14{opacity:0.3;}</style></defs><title>plant2</title><path class="cls-1" d="M346,100a24.22,24.22,0,0,1,6,2,27.06,27.06,0,0,1,10,10c8,13.75,1.48,68.88,1,73-3,25.65-2,44.81-1,66,2,41.3,13.8,45.18,10,68-6.06,36.42-37,58.11-36,59s27.53-15.05,35-44c2.11-8.17.77-29.22-2-71-.48-7.23-.58-8.39-1-15-1.75-27.68-2.61-41.77-2-54,.64-12.86,1.61-9.81,3-29,1.48-20.41-1.25-49.84-6-56a22.77,22.77,0,0,0-4-4A24.33,24.33,0,0,0,346,100Z" transform="translate(-282.44 -52.71)"/><path class="cls-1" d="M395,92c-.29-.28-9,5.7-15,17a54.5,54.5,0,0,0-6,20c-4.79,41.71-3,59-3,59,6.68,64.66,10,97,7,124-5.07,45.34-21.76,72.33-20,73,2.08.8,25.2-37,27-85,.27-7.3-.48-16.87-2-36-3.2-40.39-6.19-41.84-8-73-.74-12.79.17-29.19,2-62a49.85,49.85,0,0,1,2-12C383.76,101.05,395.35,92.33,395,92Z" transform="translate(-282.44 -52.71)"/><path class="cls-2" d="M358,139c-.07-1.79,3.62-3.85,7-4,6.32-.28,10.95,6.15,13,9,8.7,12.09,8.06,27.72,7,46-2.07,35.54-3,43-3,43-8.9,71.39-13.44,95.85-11,133,.29,4.38,2.5,11.4,1,12-1.71.69-7.55-7.1-10-16-1.95-7.08-1.15-12.65,0-21,.49-3.59.37-12,4-30,3.57-17.66,5.71-34.11,10-67,2.82-21.64,4.32-33.73,5-51,.72-18.17,2-24.6,0-34-1-4.52-1.44-6.79-3-9C371.7,141.08,358.13,142.41,358,139Z" transform="translate(-282.44 -52.71)"/><path class="cls-2" d="M371,203c.33-.51,9.07,2,15,9,6.43,7.6,7.25,17.76,4,45-3.34,28.06-5.34,26.79-7,46-1.24,14.34-2.46,29.71,1,49,2.69,15,7,25.62,6,26s-8.08-10.84-12-25c-7.45-26.9-.83-53.61,2-65,.9-3.63,2.31-8.74,4-17a220.34,220.34,0,0,0,4-27c1-13,1.5-19.49-1-25C382,208,370.61,203.6,371,203Z" transform="translate(-282.44 -52.71)"/><path class="cls-2" d="M439,210c.09-.56-10.57-5.51-23-3-15.49,3.12-24.46,15.94-28,21-5.76,8.22-8,15.9-10,23-2.69,9.51-2.46,13.9-4,28-2.46,22.55-6.65,44.36-6,61,.15,3.94.77,7,2,13a36.42,36.42,0,0,0,5,12c1,1.51,1.53,2.09,2,2,1.58-.32,1.28-8,1-14-1.29-27.92-2.5-30.55-2-41,.39-8.16,1.2-8,2-21,.56-9.1.31-11.48,1-19a127.2,127.2,0,0,1,3-20c2.13-8.65,4.27-17.31,11-26,2.7-3.49,8.76-11.12,19-15C425.88,205.74,438.9,210.62,439,210Z" transform="translate(-282.44 -52.71)"/><path class="cls-2" d="M342,236c.62-.6,12.57,6.8,21,21,14.13,23.8,9,50.84,8,56-1.15,6-4.21,18.52-9,38a56.8,56.8,0,0,0-2,14c-.07,8.39,1.91,13.69,1,14s-4.67-5.21-6-12c-.34-1.75-1.07-6.34,1-16,1.43-6.7,3-10.27,5-16a211.33,211.33,0,0,0,6-22c.92-4.26,4.15-20.74,1-36C362.73,251.47,341.15,236.82,342,236Z" transform="translate(-282.44 -52.71)"/><path class="cls-2" d="M335,269c.32-.15,13.66,22.47,19,53a80.69,80.69,0,0,1,1,23c-1.26,12-5.53,25.27-8,25-1.23-.14-1.95-3.63-2-6-.1-4.59,2.25-7.43,4-11,0,0,1.7-3.48,3-15C354.07,319.66,334.54,269.21,335,269Z" transform="translate(-282.44 -52.71)"/><path class="cls-2" d="M408,285c.4.49-10.49,6.84-19,21a66.58,66.58,0,0,0-8,20,52.8,52.8,0,0,0-1,21,44.22,44.22,0,0,0,6,17c1.73,2.77,3.38,4.62,3,5-.61.62-6.14-2.89-10-8a19.64,19.64,0,0,1-5-11,64.13,64.13,0,0,1,3-27,67.1,67.1,0,0,1,9-19C395.22,290.86,407.58,284.48,408,285Z" transform="translate(-282.44 -52.71)"/><polygon class="cls-3" points="118.06 399.79 48.06 399.79 28.06 303.79 138.06 303.79 118.06 399.79"/><path class="cls-3" d="M420.11,373.5H310.89a1.76,1.76,0,0,1-1.71-1.36L306,358.66a1.76,1.76,0,0,1,1.71-2.16H423.28a1.76,1.76,0,0,1,1.71,2.16l-3.17,13.48A1.76,1.76,0,0,1,420.11,373.5Z" transform="translate(-282.44 -52.71)"/><path class="cls-3" d="M326.8,452.5h77.4a1.8,1.8,0,0,0,1.71-1.23l3.8-11.39A1.8,1.8,0,0,0,408,437.5H323a1.8,1.8,0,0,0-1.71,2.37l3.8,11.39A1.8,1.8,0,0,0,326.8,452.5Z" transform="translate(-282.44 -52.71)"/><path class="cls-4" d="M350.5,93.5a6.72,6.72,0,0,1-2,5,2.91,2.91,0,0,1-.27.24,12.14,12.14,0,0,0-4-3.8c1.06,0,1.71.3,1.81.06s-1.25-1.74-3-2a4.48,4.48,0,0,0-2.11.21,22,22,0,0,0-3-1c1.19,0,2,.2,2.14-.19.18-.56-1.32-1.87-3-2a4.84,4.84,0,0,0-3,1c-.25.16-.52.32-.8.52-.23,0-.47,0-.7,0a20.67,20.67,0,0,0-3.05.23c1.49-1.1,2.65-1.39,2.55-1.73-.17-.55-3.58-.81-6,1a6.35,6.35,0,0,0-1.84,2.22l-.66.28a23.92,23.92,0,0,0-2.58,1.31c.74-1,1.27-1.56,1.08-1.81s-1.82.14-3,1a7.38,7.38,0,0,0-2.7,4.3,30.13,30.13,0,0,0-2.45,2.66,48.68,48.68,0,0,1,2.65-4.46,26.74,26.74,0,0,1,6-7,22.23,22.23,0,0,1,7-4,19.16,19.16,0,0,1,9-1,16,16,0,0,1,9,4C348.77,89.7,350.33,91.17,350.5,93.5Z" transform="translate(-282.44 -52.71)"/><path class="cls-5" d="M348.5,99.5a4.35,4.35,0,0,1-1,3c-.65,1-3.82,5.26-13,7-4.74.9-4.7-.1-13,1-3.93.52-5.9.78-7,1-4.54.91-6.33,1.78-7,1-1-1.19,1.61-5,3-7,1-1.46,2.09-3,3.35-4.54-.57,1.17-.73,2-.35,2.54s1.48.54,3,0c.52,1.53,1.29,2.53,1.5,2.46s-.19-1.17-.19-2.92a50.56,50.56,0,0,1,5.38-1.78A7.15,7.15,0,0,0,324,104c.09,0-.07-.82,0-2a8.64,8.64,0,0,1,.1-.92,26.64,26.64,0,0,1,5.14-.68A3.69,3.69,0,0,0,330,102c.08,0-.09-.63-.09-1.62a25.73,25.73,0,0,1,2.59.12l1.71.17A12.46,12.46,0,0,0,333,105c.08,0,.3-.73,1-2a19.68,19.68,0,0,1,1.42-2.24,42.94,42.94,0,0,0,8.08-.26,8.48,8.48,0,0,0,4.73-1.76A2.33,2.33,0,0,1,348.5,99.5Z" transform="translate(-282.44 -52.71)"/><path class="cls-5" d="M348.23,98.74a8.48,8.48,0,0,1-4.73,1.76,42.94,42.94,0,0,1-8.08.26c.18-.25.37-.5.58-.76a15.48,15.48,0,0,1,3-3,8.76,8.76,0,0,1,4-2,5.54,5.54,0,0,1,1.19-.06A12.14,12.14,0,0,1,348.23,98.74Z" transform="translate(-282.44 -52.71)"/><path class="cls-4" d="M343,93c1.75.26,3.16,1.62,3,2s-.75,0-1.81-.06a20.83,20.83,0,0,0-3.3-1.73A4.48,4.48,0,0,1,343,93Z" transform="translate(-282.44 -52.71)"/><path class="cls-6" d="M344.19,94.94A5.54,5.54,0,0,0,343,95a8.76,8.76,0,0,0-4,2,15.48,15.48,0,0,0-3,3c-.21.26-.4.51-.58.76l-1.21-.09c.22-.54.49-1.1.79-1.67a12.12,12.12,0,0,1,3-4,9.16,9.16,0,0,1,2.89-1.79A20.83,20.83,0,0,1,344.19,94.94Z" transform="translate(-282.44 -52.71)"/><path class="cls-4" d="M337,90c1.68.13,3.18,1.44,3,2-.12.39-.95.22-2.14.19a21,21,0,0,0-4.66-.67c.28-.2.55-.36.8-.52A4.84,4.84,0,0,1,337,90Z" transform="translate(-282.44 -52.71)"/><path class="cls-5" d="M340.89,93.21A9.16,9.16,0,0,0,338,95a12.12,12.12,0,0,0-3,4c-.3.57-.57,1.13-.79,1.67l-1.71-.17a25.73,25.73,0,0,0-2.59-.12A8.75,8.75,0,0,1,330,99a8.36,8.36,0,0,1,1-3,8,8,0,0,1,3-3,7.51,7.51,0,0,1,3.86-.81A22,22,0,0,1,340.89,93.21Z" transform="translate(-282.44 -52.71)"/><path class="cls-6" d="M337.86,92.19A7.51,7.51,0,0,0,334,93a8,8,0,0,0-3,3,8.36,8.36,0,0,0-1,3,8.75,8.75,0,0,0-.09,1.38l-.67,0A7.53,7.53,0,0,1,329,97c.47-2.76,2.54-4.41,4.2-5.48A21,21,0,0,1,337.86,92.19Z" transform="translate(-282.44 -52.71)"/><path class="cls-6" d="M334.21,100.67l1.21.09A19.68,19.68,0,0,0,334,103c-.7,1.27-.92,2-1,2A12.46,12.46,0,0,1,334.21,100.67Z" transform="translate(-282.44 -52.71)"/><path class="cls-5" d="M332.5,91.5c.23,0,.47,0,.7,0-1.66,1.07-3.73,2.72-4.2,5.48a7.53,7.53,0,0,0,.24,3.4,26.64,26.64,0,0,0-5.14.68A12.84,12.84,0,0,1,325,98a14.47,14.47,0,0,1,3-5,11.34,11.34,0,0,1,1.45-1.27A20.67,20.67,0,0,1,332.5,91.5Z" transform="translate(-282.44 -52.71)"/><path class="cls-4" d="M332,90c.1.34-1.06.63-2.55,1.73a22,22,0,0,0-5.29,1.49A6.35,6.35,0,0,1,326,91C328.42,89.19,331.83,89.45,332,90Z" transform="translate(-282.44 -52.71)"/><path class="cls-6" d="M329.91,100.38c0,1,.17,1.61.09,1.62a3.69,3.69,0,0,1-.76-1.6Z" transform="translate(-282.44 -52.71)"/><path class="cls-6" d="M329.45,91.73A11.34,11.34,0,0,0,328,93a14.47,14.47,0,0,0-3,5,12.84,12.84,0,0,0-.9,3.08l-.91.22A14.86,14.86,0,0,1,323,99a12.51,12.51,0,0,1,1.16-5.78A22,22,0,0,1,329.45,91.73Z" transform="translate(-282.44 -52.71)"/><path class="cls-6" d="M324.1,101.08a8.64,8.64,0,0,0-.1.92c-.07,1.18.09,2,0,2a7.15,7.15,0,0,1-.81-2.7Z" transform="translate(-282.44 -52.71)"/><path class="cls-5" d="M323.5,93.5l.66-.28A12.51,12.51,0,0,0,323,99a14.86,14.86,0,0,0,.19,2.3,50.56,50.56,0,0,0-5.38,1.78A11.47,11.47,0,0,1,318,101a12.66,12.66,0,0,1,1-3,16.85,16.85,0,0,1,1.92-3.19A23.92,23.92,0,0,1,323.5,93.5Z" transform="translate(-282.44 -52.71)"/><path class="cls-4" d="M322,93c.19.25-.34.8-1.08,1.81a24.42,24.42,0,0,0-4.62,3.49A7.38,7.38,0,0,1,319,94C320.18,93.14,321.73,92.64,322,93Z" transform="translate(-282.44 -52.71)"/><path class="cls-6" d="M320.92,94.81A16.85,16.85,0,0,0,319,98a12.66,12.66,0,0,0-1,3,11.47,11.47,0,0,0-.19,2.08c-.48.17-.91.33-1.31.46A9.62,9.62,0,0,1,316,101a10.47,10.47,0,0,1,.3-2.7A24.42,24.42,0,0,1,320.92,94.81Z" transform="translate(-282.44 -52.71)"/><path class="cls-6" d="M317.81,103.08c0,1.75.4,2.85.19,2.92s-1-.93-1.5-2.46C316.9,103.41,317.33,103.25,317.81,103.08Z" transform="translate(-282.44 -52.71)"/><path class="cls-5" d="M313.85,101a30.13,30.13,0,0,1,2.45-2.66,10.47,10.47,0,0,0-.3,2.7,9.62,9.62,0,0,0,.5,2.54c-1.52.5-2.53.65-3,0S313.28,102.13,313.85,101Z" transform="translate(-282.44 -52.71)"/><path class="cls-7" d="M313.85,101a48.68,48.68,0,0,1,2.65-4.46,26.74,26.74,0,0,1,6-7,22.23,22.23,0,0,1,7-4,19.16,19.16,0,0,1,9-1,16,16,0,0,1,9,4c1.27,1.2,2.83,2.67,3,5a6.72,6.72,0,0,1-2,5,2.91,2.91,0,0,1-.27.24" transform="translate(-282.44 -52.71)"/><path class="cls-7" d="M348.23,98.74a2.33,2.33,0,0,1,.27.76,4.35,4.35,0,0,1-1,3c-.65,1-3.82,5.26-13,7-4.74.9-4.7-.1-13,1-3.93.52-5.9.78-7,1-4.54.91-6.33,1.78-7,1-1-1.19,1.61-5,3-7,1-1.46,2.09-3,3.35-4.54a30.13,30.13,0,0,1,2.45-2.66,24.42,24.42,0,0,1,4.62-3.49,23.92,23.92,0,0,1,2.58-1.31l.66-.28a22,22,0,0,1,5.29-1.49,20.67,20.67,0,0,1,3.05-.23c.23,0,.47,0,.7,0a21,21,0,0,1,4.66.67,22,22,0,0,1,3,1,20.83,20.83,0,0,1,3.3,1.73A12.14,12.14,0,0,1,348.23,98.74Z" transform="translate(-282.44 -52.71)"/><path class="cls-5" d="M450.5,54.5c8.12,1.07,18.2,4,18,6-.08.85-1.91.84-5,2-8.89,3.33-13.76,10.9-15,13-2.73,4.62-1.16,5.16-4,11a44.16,44.16,0,0,1-10,13c-3.6,3.49-10.37,9.88-21,13-7.82,2.29-12.62,1.32-14,1-2.45-.57-6.34-1.46-9-5-1.83-2.43-4.64-6.84-3-10,1.1-2.11,3-5,3-5a2.9,2.9,0,0,1-.36-.09A18.42,18.42,0,0,1,401.5,87.5c1.29-.19,8.22-1.1,14,3,3.3,2.34,4.68,5.22,5,5s-1.2-3.91-4-7a15.81,15.81,0,0,0-7-5c-1.64-.51-3-.55-3-1-.06-.67,2.82-1.56,5-2,1.85-.37,6.28-1,15,1,4.87,1.13,7.85,2.36,8,2s-2.55-1.91-5-3a30,30,0,0,0-13-3c-2.28,0-3.91.36-4,0s1.58-.9,6-3c3.38-1.6,3.79-2,5-2,2.17-.1,2.45,1,5,1,1,0,1.11-.14,5-1,2.67-.59,4-.89,5-1,3.57-.4,6,.19,6,0s-2.22-1.06-5-1c-2.23,0-2.74.66-6,1-2,.21-4,.21-4,0s1.4-.3,3-1a12.17,12.17,0,0,0,4-3c1.77-1.77,3.85-2.85,8-5,5.77-3,10.09-3.64,10-4s-3.53,0-7,1a34.71,34.71,0,0,0-9,4c-3.92,2.49-3.8,3.54-7,5s-7.22,2.27-8,1c-.4-.65.21-1.67,1-3a18.33,18.33,0,0,1,6-6,44.82,44.82,0,0,1,6-3,19.73,19.73,0,0,0-6,2,26,26,0,0,0-5,3,60,60,0,0,0-5,5,58.23,58.23,0,0,1-5,5,38,38,0,0,1-5,3c-4.23,2.31-4.75,2.14-5,2-1.71-1-.16-6.46,0-7a17.78,17.78,0,0,1,4-7,18.41,18.41,0,0,1,2.16-2,26,26,0,0,0,7.84-2,128.1,128.1,0,0,1,15-5C440.4,53.17,445.05,53.78,450.5,54.5Z" transform="translate(-282.44 -52.71)"/><path class="cls-6" d="M454.5,58.5c.09.36-4.23,1-10,4-4.15,2.15-6.23,3.23-8,5a12.17,12.17,0,0,1-4,3c-1.6.7-3,.82-3,1s2,.21,4,0c3.26-.34,3.77-1,6-1,2.78-.06,5,.81,5,1s-2.43-.4-6,0c-1,.11-2.33.41-5,1-3.89.86-4,1-5,1-2.55,0-2.83-1.1-5-1-1.21,0-1.62.4-5,2-4.42,2.1-6.09,2.63-6,3s1.72,0,4,0a30,30,0,0,1,13,3c2.45,1.09,5.15,2.65,5,3s-3.13-.87-8-2c-8.72-2-13.15-1.37-15-1-2.18.44-5.06,1.33-5,2,0,.45,1.36.49,3,1a15.81,15.81,0,0,1,7,5c2.8,3.09,4.36,6.76,4,7s-1.7-2.66-5-5c-5.78-4.1-12.71-3.19-14-3a18.42,18.42,0,0,0-11.36,5.91,5.77,5.77,0,0,1-1.24-.68,22.83,22.83,0,0,1,2.6-4.23c3-3.63,4.82-3.2,7-6,1.93-2.48.81-3.25,3-9,1.22-3.21,2.36-6.2,5-9a19.59,19.59,0,0,1,3.55-3c.4,0,.87,0,1.45,0h.16a18.41,18.41,0,0,0-2.16,2,17.78,17.78,0,0,0-4,7c-.16.54-1.71,6,0,7,.25.14.77.31,5-2a38,38,0,0,0,5-3,58.23,58.23,0,0,0,5-5,60,60,0,0,1,5-5,26,26,0,0,1,5-3,19.73,19.73,0,0,1,6-2,44.82,44.82,0,0,0-6,3,18.33,18.33,0,0,0-6,6c-.79,1.33-1.4,2.35-1,3,.78,1.27,4.95.39,8-1s3.08-2.51,7-5a34.71,34.71,0,0,1,9-4C451,58.52,454.42,58.18,454.5,58.5Z" transform="translate(-282.44 -52.71)"/><path class="cls-5" d="M406.5,61.5a33.57,33.57,0,0,1,3.55,0,19.59,19.59,0,0,0-3.55,3c-2.64,2.8-3.78,5.79-5,9-2.19,5.75-1.07,6.52-3,9-2.18,2.8-4,2.37-7,6a22.83,22.83,0,0,0-2.6,4.23,8.4,8.4,0,0,1-1.4-1.23c-.88-.93-1-1.72-2-10-.35-3-.52-4.56,0-6s1.22-2.28,3-4c3-2.89,5.19-5,9-7A22.15,22.15,0,0,1,406.5,61.5Z" transform="translate(-282.44 -52.71)"/><path class="cls-8" d="M411.66,61.49a26,26,0,0,0,7.84-2,128.1,128.1,0,0,1,15-5c5.9-1.33,10.55-.72,16,0,8.12,1.07,18.2,4,18,6-.08.85-1.91.84-5,2-8.89,3.33-13.76,10.9-15,13-2.73,4.62-1.16,5.16-4,11a44.16,44.16,0,0,1-10,13c-3.6,3.49-10.37,9.88-21,13-7.82,2.29-12.62,1.32-14,1-2.45-.57-6.34-1.46-9-5-1.83-2.43-4.64-6.84-3-10,1.1-2.11,3-5,3-5a2.9,2.9,0,0,1-.36-.09,5.77,5.77,0,0,1-1.24-.68,8.4,8.4,0,0,1-1.4-1.23c-.88-.93-1-1.72-2-10-.35-3-.52-4.56,0-6s1.22-2.28,3-4c3-2.89,5.19-5,9-7a22.15,22.15,0,0,1,9-3,33.57,33.57,0,0,1,3.55,0c.4,0,.87,0,1.45,0Z" transform="translate(-282.44 -52.71)"/><path class="cls-5" d="M391.5,144.5c1,1,5.9,6.3,5,13-.48,3.6-2.45,6.09-4,8a28,28,0,0,1-11,8c-8.77,3.77-17.14,8.44-26,12-14,5.64-21.06,8.46-28,12-8.5,4.33-17.38,7.89-26,12,0,0-10.46,5-15,2a7.25,7.25,0,0,1-2-2,8.44,8.44,0,0,1-1-4,18.25,18.25,0,0,1,0-3c.53-5.33.13-8.94,1-14a79.36,79.36,0,0,1,7-21c2.55-5.53,5-10.89,10-17a50.84,50.84,0,0,1,13-12c6.21-3.88,11.41-5.06,20-7a64.62,64.62,0,0,1,19-1c2.32.26,5.21.79,7,3a15.06,15.06,0,0,1,.9,1.22c-3.21.7-7.08,2.05-8.9,3.78a3.08,3.08,0,0,1-2,1c-1.21,0-1.91-1-3-2a13.56,13.56,0,0,0-7-3c-2.61-.27-5,.55-5,1,0,.67,5.39-.18,8,3,1.1,1.34,1.66,3.35,1,4-.82.8-2.8-1.14-7-2a22.46,22.46,0,0,0-8,0c-4,.54-7.05,1.76-7,2s3.13-.94,7,0a8.35,8.35,0,0,1,5,3c.66.91,1.47,2.53,1,3-.66.65-2.92-1.86-7-3a19.17,19.17,0,0,0-9,0,18.94,18.94,0,0,0-8,3c-.16.11-3.34,2.33-3,3,.51,1,7.55-4,15-2,3.86,1.05,7.32,3.86,7,5a1.74,1.74,0,0,1-1,1,1.62,1.62,0,0,1-1,0c-.13,0-1.75,0-5,0a32,32,0,0,0-13,4c-5.6,3-9.1,6.87-9,7a46.69,46.69,0,0,1,9-6c6.84-3.32,15.25-4.68,16-3,.46,1-1.68,3.67-4,4a3.41,3.41,0,0,1-1,0c-2.7-.37-7.69.78-11,2-2.83,1-7.4,2.68-11,7-4.47,5.36-5.24,11.91-5,12a40.77,40.77,0,0,1,3-6,27.8,27.8,0,0,1,8-8c4.77-3.11,11.95-5.58,13-4,.72,1.09-1.18,4.53-13,15a61.47,61.47,0,0,0-8,4c-6.67,4.4-8.16,12.92-8,13s1.93-6.5,8-11c3.08-2.28,6.61-3.57,7-3s-4.23,3.32-8,9a30,30,0,0,0-3.45,7.14,18.94,18.94,0,0,0-1.55,6.86,45.66,45.66,0,0,1,1.55-6.86,24.72,24.72,0,0,1,1.45-3.14c1.84-3.37,4.43-6.32,5-6,.41.23-.64,1.95-1,5-.51,4.34.77,8,1,8s-.54-2.65,0-6,1.94-5.83,4-9c2.77-4.26,9.13-13.55,10-13,.41.26-1.05,2.32-2,6-2.12,8.24.58,16.05,1,16,.26,0-.57-3.13,0-8a37.63,37.63,0,0,1,6-16c4.21-6.83,10.1-12.63,11-12,.39.27-.45,1.52-1,4-.9,4.07-.14,7.35,1,12,1.39,5.67,3.55,11.13,4,11s-.71-3-1-8a42.2,42.2,0,0,1,1-12c.78-3.32,1.54-6.6,4-10s6.48-6.91,8-6-1.67,5.94-1,14c.56,6.76,3.61,12.12,4,12s-.56-2.51-1-7a46.63,46.63,0,0,1,0-10,30.27,30.27,0,0,1,3-11c1.64-3.17,4.14-6.39,5-6s-.89,3.19,0,7,3.92,6.32,6,8c3.67,3,7.74,4.42,8,4s-3.73-2.19-7-7a17.92,17.92,0,0,1-3-9c-.05-1.2-.12-3.46,1-4,.74-.36,1.66.2,3,1,6.44,3.83,3.09,1.36,7,4,4.64,3.14,5.79,4.21,6,4s-1.55-3.78-5-6c-1.65-1.07-3.39-1.67-7-4-1.28-.83-1.88-1.28-2-2a2.63,2.63,0,0,1,1-2.19,58.64,58.64,0,0,1,12-.81C381.77,136.5,387.35,140.07,391.5,144.5Z" transform="translate(-282.44 -52.71)"/><path class="cls-6" d="M371.5,145.5c3.45,2.22,5.32,5.68,5,6s-1.36-.86-6-4c-3.91-2.64-.56-.17-7-4-1.34-.8-2.26-1.36-3-1-1.12.54-1.05,2.8-1,4a17.92,17.92,0,0,0,3,9c3.27,4.81,7.26,6.57,7,7s-4.33-1-8-4c-2.08-1.68-5.09-4.11-6-8s.78-6.65,0-7-3.36,2.83-5,6a30.27,30.27,0,0,0-3,11,46.63,46.63,0,0,0,0,10c.44,4.49,1.26,6.92,1,7s-3.44-5.24-4-12c-.67-8.06,2.62-13,1-14s-5.64,2.73-8,6-3.22,6.68-4,10a42.2,42.2,0,0,0-1,12c.29,5,1.33,7.9,1,8s-2.61-5.33-4-11c-1.14-4.65-1.9-7.93-1-12,.55-2.48,1.39-3.73,1-4-.9-.63-6.79,5.17-11,12a37.63,37.63,0,0,0-6,16c-.57,4.87.26,8,0,8-.42.05-3.12-7.76-1-16,.95-3.68,2.41-5.74,2-6-.87-.55-7.23,8.74-10,13-2.06,3.17-3.44,5.58-4,9s.19,6,0,6-1.51-3.66-1-8c.36-3.05,1.41-4.77,1-5-.57-.32-3.16,2.63-5,6a24.72,24.72,0,0,0-1.45,3.14,30,30,0,0,1,3.45-7.14c3.77-5.68,8.47-8.31,8-9s-3.92.72-7,3c-6.07,4.5-7.83,11-8,11s1.33-8.6,8-13a61.47,61.47,0,0,1,8-4c11.81-10.47,13.71-13.91,13-15-1.05-1.58-8.23.89-13,4a27.8,27.8,0,0,0-8,8,40.77,40.77,0,0,0-3,6c-.24-.09.53-6.64,5-12,3.6-4.32,8.17-6,11-7,3.31-1.22,8.3-2.37,11-2a3.41,3.41,0,0,0,1,0c2.32-.33,4.46-3,4-4-.75-1.68-9.16-.32-16,3a46.69,46.69,0,0,0-9,6c-.1-.13,3.4-4,9-7a32,32,0,0,1,13-4c3.25,0,4.87,0,5,0a1.62,1.62,0,0,0,1,0,1.74,1.74,0,0,0,1-1c.32-1.14-3.14-3.95-7-5-7.45-2-14.49,3-15,2-.34-.67,2.84-2.89,3-3a18.94,18.94,0,0,1,8-3,19.17,19.17,0,0,1,9,0c4.08,1.14,6.34,3.65,7,3,.47-.47-.34-2.09-1-3a8.35,8.35,0,0,0-5-3c-3.87-.94-6.95.24-7,0s3-1.46,7-2a22.46,22.46,0,0,1,8,0c4.2.86,6.18,2.8,7,2,.66-.65.1-2.66-1-4-2.61-3.18-8-2.33-8-3,0-.45,2.39-1.27,5-1a13.56,13.56,0,0,1,7,3c1.09,1,1.79,2,3,2a3.08,3.08,0,0,0,2-1c1.82-1.73,5.69-3.08,8.9-3.78a5.38,5.38,0,0,1,1.1,2.78l1-.19a2.63,2.63,0,0,0-1,2.19c.12.72.72,1.17,2,2C368.11,143.83,369.85,144.43,371.5,145.5Z" transform="translate(-282.44 -52.71)"/><path class="cls-7" d="M363.5,137.31l-1,.19a5.38,5.38,0,0,0-1.1-2.78,15.06,15.06,0,0,0-.9-1.22c-1.79-2.21-4.68-2.74-7-3a64.62,64.62,0,0,0-19,1c-8.59,1.94-13.79,3.12-20,7a50.84,50.84,0,0,0-13,12c-5,6.11-7.45,11.47-10,17a79.36,79.36,0,0,0-7,21c-.87,5.06-.47,8.67-1,14a18.25,18.25,0,0,0,0,3,8.44,8.44,0,0,0,1,4,7.25,7.25,0,0,0,2,2c4.54,3,15-2,15-2,8.62-4.11,17.5-7.67,26-12,6.94-3.54,14-6.36,28-12,8.86-3.56,17.23-8.23,26-12a28,28,0,0,0,11-8c1.55-1.91,3.52-4.4,4-8,.9-6.7-4-12-5-13-4.15-4.43-9.73-8-16-8A58.64,58.64,0,0,0,363.5,137.31Z" transform="translate(-282.44 -52.71)"/><path class="cls-9" d="M333.21,242.08l-1-.2h0A13.3,13.3,0,0,0,330,241a9.76,9.76,0,0,0-3.5-.5,9.1,9.1,0,0,0-5,2s3.17-3.4,7-3A7.79,7.79,0,0,1,333.21,242.08Z" transform="translate(-282.44 -52.71)"/><path class="cls-9" d="M333.21,242.08c.32.34.58.65.79.92a13.81,13.81,0,0,0-1.8-1.12Z" transform="translate(-282.44 -52.71)"/><path class="cls-9" d="M334.5,234.5c1.1,1.25,1,3.38,1,4,0,.27-.11,2.8-1,3s-1.26-1.71-3-3a5.87,5.87,0,0,0-2.06-1c.64-.05,1.25-.12,1.71-.2l.35.17c.94.48,1.78,1.21,2,1s-.33-1.27-1-2A5.49,5.49,0,0,0,330,235a7,7,0,0,0-4,0C329.35,232.73,333,232.81,334.5,234.5Z" transform="translate(-282.44 -52.71)"/><path class="cls-9" d="M333.5,266.5c.92,1.4,2.08,1.87,2,3s-1.31,2.2-2,2-.88-2-1-2a7.27,7.27,0,0,1,0,3c-.39,1.26-1.11,1.22-2,3-.61,1.21-.66,2-1,2s-.63-.8-1-2A36.67,36.67,0,0,1,327,270a20.23,20.23,0,0,1,0-5c.7,4.49,1.65,9.54,2.5,9.5.34,0,.57-.87,1-3,1.17-5.81,1.77-11,2-11S331.74,263.81,333.5,266.5Z" transform="translate(-282.44 -52.71)"/><path class="cls-10" d="M332,240c1.08.67,2.17,1.62,2,2-.08.17-.36.16-.79.08a7.79,7.79,0,0,0-4.71-2.58c-3.83-.4-7,3-7,3a9.1,9.1,0,0,1,5-2,9.76,9.76,0,0,1,3.5.5,13.3,13.3,0,0,1,2.19.88A8.85,8.85,0,0,0,328,242c-1.85.57-3.1,1.82-3,2s1.66-.89,4-1c2-.1,4,.55,4,1s-3.17.14-7,2a12.87,12.87,0,0,0-5,4c-1.53,2.13-1.74,4.06-2,4s-.38-2.72,1-5a11.44,11.44,0,0,1,3-3,7.86,7.86,0,0,0-3,2c-1.19,1.15-1.68,2.13-2,2s0-1.9,0-2a11.21,11.21,0,0,1,2-4c1.22-1.78,2.15-2.85,2-3s-1.69,1.27-2,1,.4-1.33.5-1.5A8.67,8.67,0,0,1,329,236c1.69.35,3,.71,3,1,0,.14-.34.25-.85.33a8.3,8.3,0,0,0-6.65.17c0,.16,2.47-.64,4.94,0-1.63.15-3.43.24-3.44.47S329,238.14,332,240Z" transform="translate(-282.44 -52.71)"/><path class="cls-5" d="M360.5,233.5c3.19,3.89,2.36,8.85,2,11-1.08,6.45-5.44,10.58-8,13-3,2.87-2.94,1.71-10,7-5.74,4.3-8.66,6.52-11,10-2.56,3.81-2.35,5.61-4,6-3.62.86-10.29-6.44-11-14-.3-3.17-1-4,0-9-2-4-1.83-4.89-2-8-.27-4.88,2.32-9.86,6-13,1.41-1.21,5.36-4.57,10-4,2.47.3,4,1.58,5.68,2a30.74,30.74,0,0,0-1.68,5c-.56,2.31-.63,3.89-2,5-.88.71-1.58.65-3,1a16.73,16.73,0,0,0-8,5c-2.15,2.3-3.2,4.86-3,5s1.31-1.94,4-4a15.65,15.65,0,0,1,7-3c1.32-.3,1.75-.25,2,0,.76.78-.79,3-2,6a32.78,32.78,0,0,0-2,9c-.69,5.35-.28,10,0,10s.32-4.84,2-12c.4-1.7,1.91-8.12,3-8,.46.05.56,1.21,1,3,1.28,5.22,3.75,9.1,4,9s-1.22-3.17-2-8c-.83-5.15-.52-9.95,0-10s.48,2.54,2,6c2.17,4.95,5.69,8.22,6,8s-2.16-2.9-4-8a37.15,37.15,0,0,1-2-10,55.21,55.21,0,0,1,.09-8.83,3.92,3.92,0,0,0,.91-.17c1.74-.51,1.6-1.52,4-3a13.32,13.32,0,0,1,8-2A11.87,11.87,0,0,1,360.5,233.5Zm1,8c.35-.25-.36-1.89-1-3a12.08,12.08,0,0,0-5-5,12.4,12.4,0,0,0-8-1c-2.17.5-4.11,1.63-4,2,0,.06.08.1.19.12a7.17,7.17,0,0,0-1.19.88A8.51,8.51,0,0,0,340,240a7.08,7.08,0,0,1,2-3,6.79,6.79,0,0,1,2.66-1.4c-.22.12-.44.25-.66.4a8.31,8.31,0,0,0-3,4,13.31,13.31,0,0,1,1.65.44l-.15.06A5.28,5.28,0,0,0,340,244a6.21,6.21,0,0,1,7.5.5,9.15,9.15,0,0,1,1.93,2c-.44,0-2.18-1.94-4.93-2-.48,0-2.24-.08-3,1-.52.74-.34,1.68,0,3,1,3.91,1.52,5.87,3,8,1.65,2.36,3.78,4.18,4,4s-.49-.84-1-2c-1.3-2.95-1-6.69,0-7,.78-.24,2.28,1.52,3,3,.57,1.17.51,1.84,1,2,.85.27,2.35-1.34,3-3a7.61,7.61,0,0,0,0-5c-.75-2.46-2.25-3.76-2-4s1.91,1.1,3,2a8.08,8.08,0,0,1,2,2c.66,1.09.67,2,1,2s.61-.71,1-2c.94-3.09,1.41-4.63,1-6-.55-1.85-2.11-2.89-2-3S361,241.86,361.5,241.5Zm-19,21c.33-.34-1.67-2.23-3-5A15.8,15.8,0,0,1,338,251a15.18,15.18,0,0,0,0,5c.27,1.61.65,3.91,2.5,5.5C341.24,262.14,342.29,262.72,342.5,262.5Zm-4,4c.28-1.21-1.68-2.13-3-4A9.06,9.06,0,0,1,334,257a18.12,18.12,0,0,0,0,6,6.24,6.24,0,0,0,1.5,3.5c.32.34,1.15,1.21,2,1A1.42,1.42,0,0,0,338.5,266.5Zm-3-28c0-.62.1-2.75-1-4-1.49-1.69-5.15-1.77-8.5.5a7,7,0,0,1,4,0,5.49,5.49,0,0,1,2.5,1.5c.67.73,1.23,1.78,1,2s-1.06-.52-2-1l-.35-.17c.51-.08.84-.19.85-.33,0-.29-1.31-.65-3-1a8.67,8.67,0,0,0-8.5,4.5c-.1.17-.74,1.29-.5,1.5s1.82-1.18,2-1-.78,1.22-2,3a11.21,11.21,0,0,0-2,4c0,.1-.4,1.84,0,2s.81-.85,2-2a7.86,7.86,0,0,1,3-2,11.44,11.44,0,0,0-3,3c-1.38,2.28-1.29,4.93-1,5s.47-1.87,2-4a12.87,12.87,0,0,1,5-4c3.83-1.86,7-1.43,7-2s-2-1.1-4-1c-2.34.11-3.9,1.19-4,1s1.15-1.43,3-2a8.85,8.85,0,0,1,4.19-.12h0A13.81,13.81,0,0,1,334,243c-.21-.27-.47-.58-.79-.92.43.08.71.09.79-.08.17-.38-.92-1.33-2-2-3-1.86-6-1.71-6-2s1.81-.32,3.44-.47a5.87,5.87,0,0,1,2.06,1c1.74,1.29,2.2,3.18,3,3S335.49,238.77,335.5,238.5Zm0,31c.08-1.13-1.08-1.6-2-3-1.76-2.69-.82-6-1-6s-.83,5.19-2,11c-.43,2.13-.66,3-1,3-.85,0-1.8-5-2.5-9.5a20.23,20.23,0,0,0,0,5,36.67,36.67,0,0,0,1.5,5.5c.37,1.2.65,2,1,2s.39-.79,1-2c.89-1.78,1.61-1.74,2-3a7.27,7.27,0,0,0,0-3c.12,0,.23,1.78,1,2S335.42,270.62,335.5,269.5Zm-6.45-15.09c1.89-2.23,3.75-3.46,3.45-3.91-.15-.22-.78-.19-2.5.5a25.67,25.67,0,0,0-3.32,4.69c-1.85,1.3-3.92,3.09-4.18,2.81s1.39-2.34,3-4A31.23,31.23,0,0,1,331,250a15.18,15.18,0,0,0-5,2,11.12,11.12,0,0,0-4.5,4.5c-.65,1.34-.77,2.9-1,6a15.83,15.83,0,0,0,0,4,9.53,9.53,0,0,1,1-4c.64-1.13,1.67-2.18,2-2s-.52,1.86-1,5a16.07,16.07,0,0,0,0,6c.27,1.29.59,3,1,3s.61-2,1-2,.34,1.09,1,3a5.18,5.18,0,0,0,1,2c.6.65,1.62,1.27,2,1s-.41-2.24-1-4c-2.15-6.4-.34-12.82,0-14,1-3.64,2.59-5.51,2-6A.59.59,0,0,0,329.05,254.41Z" transform="translate(-282.44 -52.71)"/><path class="cls-11" d="M337.5,244.5a29.4,29.4,0,0,1-2,6c-1.28,2.82-2.85,5.08-3,5s1-1.94,2-5A48.83,48.83,0,0,0,336,244c.39-1.91,1-4.66,2-8A28.77,28.77,0,0,1,337.5,244.5Z" transform="translate(-282.44 -52.71)"/><path class="cls-9" d="M350.5,244.5c1.67,2.74,1.4,5.9,1,6s-.64-1.93-2.07-4a.09.09,0,0,0,.07,0c.28-.28-1-2.37-3-4a12.14,12.14,0,0,0-3.85-2.06C345.36,239.31,348.92,241.92,350.5,244.5Z" transform="translate(-282.44 -52.71)"/><path class="cls-9" d="M354.5,235.5c1.34,1.11,2.28,2.69,2,3s-2.84-2.28-7-3a11.24,11.24,0,0,0-4.84.1c1.46-.77,2.87-.94,2.84-1.1s-3,.33-3.81.12A9.9,9.9,0,0,1,354.5,235.5Z" transform="translate(-282.44 -52.71)"/><path class="cls-9" d="M329,254.41a18.87,18.87,0,0,0-1.54,2.09c-2.8,4.46-2.6,9.05-3,9s-.3-2.14,0-4A16.48,16.48,0,0,1,326,257c.19-.4.41-.84.68-1.31A7.26,7.26,0,0,1,329,254.41Z" transform="translate(-282.44 -52.71)"/><path class="cls-10" d="M360.5,238.5c.64,1.11,1.35,2.75,1,3s-2.85-2.15-3-2,1.45,1.15,2,3c.41,1.37-.06,2.91-1,6-.39,1.29-.69,2-1,2s-.34-.91-1-2a8.08,8.08,0,0,0-2-2c-1.09-.9-2.74-2.25-3-2s1.25,1.54,2,4a7.61,7.61,0,0,1,0,5c-.65,1.66-2.15,3.27-3,3-.49-.16-.43-.83-1-2-.72-1.48-2.22-3.24-3-3-1,.31-1.3,4.05,0,7,.51,1.16,1.13,1.89,1,2s-2.35-1.64-4-4c-1.48-2.13-2-4.09-3-8-.34-1.32-.52-2.26,0-3,.76-1.08,2.52-1,3-1,2.75.09,4.49,2.06,4.93,2,1.43,2,1.74,4.05,2.07,4s.67-3.26-1-6c-1.58-2.58-5.14-5.19-7.85-4.06A13.31,13.31,0,0,0,341,240a8.31,8.31,0,0,1,3-4c.22-.15.44-.28.66-.4a11.24,11.24,0,0,1,4.84-.1c4.16.72,6.6,3.45,7,3s-.66-1.89-2-3a9.9,9.9,0,0,0-10.81-.88c-.11,0-.17-.06-.19-.12-.11-.37,1.83-1.5,4-2a12.4,12.4,0,0,1,8,1A12.08,12.08,0,0,1,360.5,238.5Z" transform="translate(-282.44 -52.71)"/><path class="cls-9" d="M339.5,257.5c1.33,2.77,3.33,4.66,3,5s-1.26-.36-2-1c-1.85-1.59-2.23-3.89-2.5-5.5a15.18,15.18,0,0,1,0-5A15.8,15.8,0,0,0,339.5,257.5Z" transform="translate(-282.44 -52.71)"/><path class="cls-10" d="M335.5,262.5c1.32,1.87,3.28,2.79,3,4a1.42,1.42,0,0,1-1,1c-.85.21-1.68-.66-2-1A6.24,6.24,0,0,1,334,263a18.12,18.12,0,0,1,0-6A9.06,9.06,0,0,0,335.5,262.5Z" transform="translate(-282.44 -52.71)"/><path class="cls-6" d="M335.5,250.5a29.4,29.4,0,0,0,2-6,28.77,28.77,0,0,0,.5-8.5c-1,3.34-1.61,6.09-2,8a48.83,48.83,0,0,1-1.5,6.5c-1,3.06-2.14,4.93-2,5S334.22,253.32,335.5,250.5Zm6,3c1.84,5.1,4.27,7.81,4,8s-3.83-3.05-6-8c-1.52-3.46-1.61-6-2-6s-.83,4.85,0,10c.78,4.83,2.22,7.92,2,8s-2.72-3.78-4-9c-.44-1.79-.54-2.95-1-3-1.09-.12-2.6,6.3-3,8-1.68,7.16-1.72,12-2,12s-.69-4.65,0-10a32.78,32.78,0,0,1,2-9c1.21-3,2.76-5.22,2-6-.25-.25-.68-.3-2,0a15.65,15.65,0,0,0-7,3c-2.69,2.06-3.81,4.13-4,4s.85-2.7,3-5a16.73,16.73,0,0,1,8-5c1.42-.35,2.12-.29,3-1,1.37-1.11,1.44-2.69,2-5a30.74,30.74,0,0,1,1.68-5,3.88,3.88,0,0,0,1.41.15,55.21,55.21,0,0,0-.09,8.83A37.15,37.15,0,0,0,341.5,253.5Z" transform="translate(-282.44 -52.71)"/><path class="cls-9" d="M332.5,250.5c.3.45-1.56,1.68-3.45,3.91h0a7.26,7.26,0,0,0-2.36,1.28A25.67,25.67,0,0,1,330,251C331.72,250.31,332.35,250.28,332.5,250.5Z" transform="translate(-282.44 -52.71)"/><path class="cls-9" d="M331.15,237.33c-.46.08-1.07.15-1.71.2-2.47-.67-4.92.13-4.94,0A8.3,8.3,0,0,1,331.15,237.33Z" transform="translate(-282.44 -52.71)"/><path class="cls-9" d="M347.5,234.5c0,.16-1.38.33-2.84,1.1A6.79,6.79,0,0,0,342,237a7.08,7.08,0,0,0-2,3,8.51,8.51,0,0,1,2.5-4.5,7.17,7.17,0,0,1,1.19-.88C344.47,234.83,347.46,234.26,347.5,234.5Z" transform="translate(-282.44 -52.71)"/><path class="cls-10" d="M329.5,254.5c.59.49-1,2.36-2,6-.34,1.18-2.15,7.6,0,14,.59,1.76,1.52,3.63,1,4s-1.4-.35-2-1a5.18,5.18,0,0,1-1-2c-.66-1.91-.72-3-1-3s-.56,2-1,2-.73-1.71-1-3a16.07,16.07,0,0,1,0-6c.48-3.14,1.39-4.79,1-5s-1.36.87-2,2a9.53,9.53,0,0,0-1,4,15.83,15.83,0,0,1,0-4c.23-3.1.35-4.66,1-6A11.12,11.12,0,0,1,326,252a15.18,15.18,0,0,1,5-2,31.23,31.23,0,0,0-5.5,4.5c-1.61,1.66-3.26,3.73-3,4s2.33-1.51,4.18-2.81c-.27.47-.49.91-.68,1.31a16.48,16.48,0,0,0-1.5,4.5c-.3,1.86-.27,4,0,4s.2-4.54,3-9a18.87,18.87,0,0,1,1.54-2.09h0A.59.59,0,0,1,329.5,254.5Z" transform="translate(-282.44 -52.71)"/><path class="cls-9" d="M346.5,242.5c2,1.63,3.28,3.72,3,4a.09.09,0,0,1-.07,0,9.15,9.15,0,0,0-1.93-2,6.21,6.21,0,0,0-7.5-.5,5.28,5.28,0,0,1,2.5-3.5l.15-.06A12.14,12.14,0,0,1,346.5,242.5Z" transform="translate(-282.44 -52.71)"/><path class="cls-7" d="M339.59,234.67a3.92,3.92,0,0,0,.91-.17c1.74-.51,1.6-1.52,4-3a13.32,13.32,0,0,1,8-2,11.87,11.87,0,0,1,8,4c3.19,3.89,2.36,8.85,2,11-1.08,6.45-5.44,10.58-8,13-3,2.87-2.94,1.71-10,7-5.74,4.3-8.66,6.52-11,10-2.56,3.81-2.35,5.61-4,6-3.62.86-10.29-6.44-11-14-.3-3.17-1-4,0-9-2-4-1.83-4.89-2-8-.27-4.88,2.32-9.86,6-13,1.41-1.21,5.36-4.57,10-4,2.47.3,4,1.58,5.68,2A3.88,3.88,0,0,0,339.59,234.67Z" transform="translate(-282.44 -52.71)"/><path class="cls-5" d="M343.84,210.25a26.55,26.55,0,0,1,5.66-2.75c3.41-1.21,5.15-1.11,6-1a8.28,8.28,0,0,1,3,1c.85.48,2,1.13,2,2s-1.35,1.67-2,2c-2.31,1.18-4.18.85-6,1-5.1.42-8.59,4.51-9,5-2.95,3.55-3.23,7.92-3,8s.93-3.43,4-7a14.93,14.93,0,0,1,5-4c3-1.44,6.68-1.79,7-1,.2.5-1.07,1-3,3a22.84,22.84,0,0,0-5,8,29.69,29.69,0,0,0-1,4c-.8,3.83-1.29,7.94-1,8s.73-4,3-9c2.67-5.9,6.59-10.25,7-10,.2.12-.54,1.25-1,3-1.2,4.61.68,9.05,1,9s-.53-2.35,0-6a21.53,21.53,0,0,1,3-8c1.95-3.35,4.61-6.25,5-6,.21.14-.39,1.07-1,3a22.2,22.2,0,0,0-1,7c0,3.25.79,6,1,6s-.5-2.94,0-7a24.93,24.93,0,0,1,3-9c.74-1.41,2.79-5.33,4-5,.58.16.54,1.16,1,3a22.33,22.33,0,0,0,4,8c1.75,2.38,3.79,4.17,4,4s-2.12-2.56-4-7c-.82-1.93-.4-1.54-2-6-.94-2.62-1.41-3.66-1-4,.76-.65,3.79,1.83,4,2a16.5,16.5,0,0,1,4,5c1.53,2.85,1.81,5,2,5s.11-2.91-1-6c-.9-2.5-2.14-5.95-5-7-2.19-.81-4.37.16-5-1a25.63,25.63,0,0,1,14-4,21,21,0,0,1,9,2c2.23,1.07,7.26,3.49,9,9,.26.84,1.81,6-1,10-2,2.78-5.05,3.54-11,5-5.21,1.28-5.94.57-10,2-1.4.49-2.48,1-8,4-5.33,2.91-5.88,3.3-9,5-12.47,6.79-12.6,5.42-15,8-1,1.09-2.89,3.38-6,4a5,5,0,0,1-3,0c-2.39-1-2.44-4.56-4-15-.83-5.58-1-6-1-8a30.25,30.25,0,0,1,2-10c.24-.63,1.07-2.25,2.72-5.45.91-.78,2-1.65,3.28-2.55a32.46,32.46,0,0,1,7-4,31,31,0,0,1,8-2c2.79-.37,4.65-.6,7,0,2.68.68,5.18,2.23,5,3-.07.32-.55.24-2,1-1.2.63-1.4,1-2,1a3,3,0,0,1-2-1c-2.55-2.05-6-2-7-2a7.32,7.32,0,0,0-4,1c0,.15,1.6-.23,4,0a10.62,10.62,0,0,1,4,1c1.27.63,3.27,2,3,3-.2.71-1.53.93-2,1a8.55,8.55,0,0,1-5-1C352.74,203.46,345.42,209.05,343.84,210.25Zm-.31.23.29-.21A2.51,2.51,0,0,0,343.53,210.48Z" transform="translate(-282.44 -52.71)"/><path class="cls-6" d="M381.5,208.5c1.11,3.09,1.22,5.95,1,6s-.47-2.15-2-5a16.5,16.5,0,0,0-4-5c-.21-.17-3.24-2.65-4-2-.41.34.06,1.38,1,4,1.6,4.46,1.18,4.07,2,6,1.88,4.44,4.23,6.81,4,7s-2.25-1.62-4-4a22.33,22.33,0,0,1-4-8c-.46-1.84-.42-2.84-1-3-1.21-.33-3.26,3.59-4,5a24.93,24.93,0,0,0-3,9c-.5,4.06.2,7,0,7s-1-2.75-1-6a22.2,22.2,0,0,1,1-7c.61-1.93,1.21-2.86,1-3-.39-.25-3.05,2.65-5,6a21.53,21.53,0,0,0-3,8c-.53,3.65.23,6,0,6s-2.2-4.39-1-9c.46-1.75,1.2-2.88,1-3-.41-.25-4.33,4.1-7,10-2.27,5-2.71,9.06-3,9s.2-4.17,1-8a29.69,29.69,0,0,1,1-4,22.84,22.84,0,0,1,5-8c1.93-2,3.2-2.5,3-3-.32-.79-4-.44-7,1a14.93,14.93,0,0,0-5,4c-3.07,3.57-3.79,7.07-4,7s.05-4.45,3-8c.41-.49,3.9-4.58,9-5,1.82-.15,3.69.18,6-1,.65-.33,2-1,2-2s-1.15-1.52-2-2a8.28,8.28,0,0,0-3-1c-.85-.11-2.59-.21-6,1a26.55,26.55,0,0,0-5.66,2.75c1.58-1.2,8.9-6.79,13.66-4.75a8.55,8.55,0,0,0,5,1c.47-.07,1.8-.29,2-1,.27-1-1.73-2.37-3-3a10.62,10.62,0,0,0-4-1c-2.4-.23-4,.15-4,0a7.32,7.32,0,0,1,4-1c1,0,4.45-.05,7,2a3,3,0,0,0,2,1c.6,0,.8-.37,2-1,1.45-.76,1.93-.68,2-1,.18-.77-2.32-2.32-5-3-2.35-.6-4.21-.37-7,0a31,31,0,0,0-8,2,32.46,32.46,0,0,0-7,4c-1.28.9-2.37,1.77-3.28,2.55l.28-.55c.5-1,.94-1.8,1.31-2.51a30.25,30.25,0,0,1,4.69-3.49,27.28,27.28,0,0,1,7-3c2.2-.56,5-.54,10.5-.5,1.17,0,2.21,0,3.12.08a25.23,25.23,0,0,1,4.38,3.42c.63,1.16,2.81.19,5,1C379.36,202.55,380.6,206,381.5,208.5Z" transform="translate(-282.44 -52.71)"/><path class="cls-5" d="M367,197l.12.08c-.91-.05-1.95-.07-3.12-.08-5.53,0-8.3-.06-10.5.5a27.28,27.28,0,0,0-7,3,30.25,30.25,0,0,0-4.69,3.49c1.83-3.5,2.21-4,2.69-4.49a15.92,15.92,0,0,1,7-4,17.14,17.14,0,0,1,10-1A18.59,18.59,0,0,1,367,197Z" transform="translate(-282.44 -52.71)"/><path class="cls-8" d="M371.5,200.5a25.23,25.23,0,0,0-4.38-3.42L367,197a18.59,18.59,0,0,0-5.5-2.5,17.14,17.14,0,0,0-10,1,15.92,15.92,0,0,0-7,4c-.48.51-.86,1-2.69,4.49-.37.71-.81,1.53-1.31,2.51l-.28.55c-1.65,3.2-2.48,4.82-2.72,5.45a30.25,30.25,0,0,0-2,10c0,2,.17,2.42,1,8,1.56,10.44,1.61,14,4,15a5,5,0,0,0,3,0c3.11-.62,5-2.91,6-4,2.4-2.58,2.53-1.21,15-8,3.12-1.7,3.67-2.09,9-5,5.52-3,6.6-3.51,8-4,4.06-1.43,4.79-.72,10-2,5.95-1.46,9-2.22,11-5,2.81-4,1.26-9.16,1-10-1.74-5.51-6.77-7.93-9-9a21,21,0,0,0-9-2A25.63,25.63,0,0,0,371.5,200.5Z" transform="translate(-282.44 -52.71)"/><path class="cls-5" d="M466.5,226.5c.71,2.32.48,5.24,0,11-.69,8.21-1.58,9.19-2,15-.15,2-.85,4-1,6a4.46,4.46,0,0,1-1,3,3.47,3.47,0,0,1-2,1c-2.29.28-4.4-2.3-5-3-2-2.31-6-4.87-14-10-7.37-4.71-8.33-2.9-16-8-3.9-2.59-6.59-4.42-9-8a23.49,23.49,0,0,1-4-13,17.39,17.39,0,0,1,2-9,15.2,15.2,0,0,1,8-7c1-.35,5.76-2.09,10,0a24.66,24.66,0,0,1,4.15,2.38c-.85.37-1.87.93-3.15,1.62a26.92,26.92,0,0,0-7,5c-4.54,4.62-6.17,9.91-6,10a27.61,27.61,0,0,1,5-7,18.5,18.5,0,0,1,9-5,8,8,0,0,1,4,0,7.32,7.32,0,0,1,4,3c.38.58,1.79,2.75,1,4-.65,1-2.12.36-5,1a14,14,0,0,0-7,4,12.71,12.71,0,0,0-2,3c-2.07,4-2.28,7.93-2,8s.5-6,5-10a13.85,13.85,0,0,1,6-3c2.93-.68,6-.37,6,0s-1.28.37-3,1a17.59,17.59,0,0,0-7,5c-3,3.3-4.19,6.89-4,7s1.42-3.27,5-6a15.91,15.91,0,0,1,7-3c1.76-.33,3.89-.42,4,0s-1.61.61-3,2c-2.23,2.22-2.09,5.84-2,8a12.88,12.88,0,0,0,1,5,10.56,10.56,0,0,1,0-5c.72-2.42,2.61-4.22,3-4s-.55,1.65-1,4a15.35,15.35,0,0,0,1,9s-1.57-3.5,0-6c1-1.62,3.22-2.6,4-2,.6.45.25,1.74,0,3-1.17,5.89-.2,11,0,11s.29-2.35,1-6c.74-3.81,1.17-5.91,2-6s1.75,2,3,5a35.3,35.3,0,0,1,2,6,42.52,42.52,0,0,1,1,7,62.29,62.29,0,0,0-1-12c-.91-5.38-1.36-8.07-3-11-1.09-1.95-2.4-3.59-2-4s2.48.71,4,2c4,3.38,4.63,8.1,5,8s.18-4.07-2-8c-.93-1.68-2.67-4.81-6-6-1.86-.67-2.49-.11-4-1l-3-6c.74-1.18,2.86-1.06,4-1s3.44.34,7,3a29.07,29.07,0,0,1,5,5c.19-.14-2.46-6-8-9a26.23,26.23,0,0,0-5-2c-3.19-.87-3.61-.25-5-1a42,42,0,0,1-2.23-4.2l1.23.2a49.5,49.5,0,0,1,8,2,25.08,25.08,0,0,1,9,6A21.31,21.31,0,0,1,466.5,226.5Z" transform="translate(-282.44 -52.71)"/><path class="cls-6" d="M454.5,216.5c5.54,3,8.19,8.86,8,9a29.07,29.07,0,0,0-5-5c-3.56-2.66-6-2.95-7-3s-3.26-.18-4,1l3,6c1.51.89,2.14.33,4,1,3.33,1.19,5.07,4.32,6,6,2.18,3.93,2.33,7.91,2,8s-1-4.62-5-8c-1.52-1.29-3.58-2.43-4-2s.91,2.05,2,4c1.64,2.93,2.09,5.62,3,11a62.29,62.29,0,0,1,1,12,42.52,42.52,0,0,0-1-7,35.3,35.3,0,0,0-2-6c-1.25-3-2.14-5.09-3-5s-1.26,2.19-2,6c-.71,3.65-.86,6-1,6s-1.17-5.11,0-11c.25-1.26.6-2.55,0-3-.78-.6-3,.38-4,2-1.57,2.5,0,6,0,6a15.35,15.35,0,0,1-1-9c.45-2.35,1.32-3.82,1-4s-2.28,1.58-3,4a10.56,10.56,0,0,0,0,5,12.88,12.88,0,0,1-1-5c-.09-2.16-.23-5.78,2-8,1.39-1.39,3.1-1.62,3-2s-2.24-.33-4,0a15.91,15.91,0,0,0-7,3c-3.58,2.73-4.82,6.11-5,6s1-3.7,4-7a17.59,17.59,0,0,1,7-5c1.72-.63,3-.76,3-1s-3.07-.68-6,0a13.85,13.85,0,0,0-6,3c-4.5,4-4.65,10.08-5,10s-.07-4,2-8a12.71,12.71,0,0,1,2-3,14,14,0,0,1,7-4c2.88-.64,4.35,0,5-1,.79-1.25-.62-3.42-1-4a7.32,7.32,0,0,0-4-3,8,8,0,0,0-4,0,18.5,18.5,0,0,0-9,5,27.61,27.61,0,0,0-5,7c-.17-.09,1.46-5.38,6-10a26.92,26.92,0,0,1,7-5c1.28-.69,2.3-1.25,3.15-1.62a17.13,17.13,0,0,1,1.85,1.62,11.24,11.24,0,0,0,3.77.8,42,42,0,0,0,2.23,4.2c1.39.75,1.81.13,5,1A26.23,26.23,0,0,1,454.5,216.5Z" transform="translate(-282.44 -52.71)"/><path class="cls-7" d="M436.65,206.88a17.13,17.13,0,0,1,1.85,1.62,11.24,11.24,0,0,0,3.77.8l1.23.2a49.5,49.5,0,0,1,8,2,25.08,25.08,0,0,1,9,6,21.31,21.31,0,0,1,6,9c.71,2.32.48,5.24,0,11-.69,8.21-1.58,9.19-2,15-.15,2-.85,4-1,6a4.46,4.46,0,0,1-1,3,3.47,3.47,0,0,1-2,1c-2.29.28-4.4-2.3-5-3-2-2.31-6-4.87-14-10-7.37-4.71-8.33-2.9-16-8-3.9-2.59-6.59-4.42-9-8a23.49,23.49,0,0,1-4-13,17.39,17.39,0,0,1,2-9,15.2,15.2,0,0,1,8-7c1-.35,5.76-2.09,10,0A24.66,24.66,0,0,1,436.65,206.88Z" transform="translate(-282.44 -52.71)"/><path class="cls-5" d="M371.5,280.5c1,3.67,2.11,7.87,1,13s-3.92,8.55-6,11c-3.33,3.92-5.4,4.65-13,10-9.24,6.5-8.42,7-16,12-2,1.3-6,3.53-14,8-7.28,4.05-10.14,5.5-14,5a14.79,14.79,0,0,1-7-3c-1.3-1-3.14-2.82-5-7a38.3,38.3,0,0,1-3-13c-1.51-16.74-3.58-14.76-3-22a41.79,41.79,0,0,1,7-20c2-2.94,4.44-6.39,9-9,2.13-1.22,8.08-4.75,15-3,1.6.4,7.68,1.94,9,6a1.8,1.8,0,0,0,.08.21c-1.36,2.81-3.18,5.07-4.08,4.79-.65-.2-.14-1.52-1-3-1.58-2.73-6-2.92-8-3-5-.21-9.08,1.61-9,2s6.6-2.15,12,1c.75.44,3.47,2.07,4,5,.25,1.36.1,3.45-1,4s-2.07-.87-5-2a17.12,17.12,0,0,0-7-1c-3.31.26-6.09,1.63-6,2s2.88-.6,7,0c1.83.27,4.76.73,7,3,1.18,1.19,2.56,3.27,2,4-.77,1-4.07-2-9-2-4.78,0-8.39,2.76-10,4-5.21,4-7.38,9.74-7,10s2.52-4.75,8-8c6.41-3.8,15.35-4,17-1,1.13,2.07-.73,6.47-3,7a2.37,2.37,0,0,1-1,0c-3.9-.56-8.27,2.48-9,3a16.3,16.3,0,0,0-5,6c-3.62,6.82-2.29,14-2,14s-.27-3.79,2-8a14.27,14.27,0,0,1,6-6c1.58-.8,5.06-2.15,6-1s-1.28,5-3,7a22.13,22.13,0,0,1-2,2,21.42,21.42,0,0,0-5,8c-2.37,6.68-.26,13,0,13a23.09,23.09,0,0,1,1-9c1.4-4,4.13-7.36,5-7,.53.22.07,1.71,0,5-.1,4.94.81,9,1,9s-.14-2.45,0-6a50.39,50.39,0,0,1,2-12c1.41-5.09,2.71-9.82,5-10,.95-.08,1.69.66,3,2a23.08,23.08,0,0,1,5,8c2.25,5.82,2.63,10.05,3,10s.12-3.92,0-6c-.33-5.56-.49-8.35-1-10a36.09,36.09,0,0,0-5-10c-.68-.9-1.21-1.49-1-2,.62-1.51,7.27-1.29,12,2a15.49,15.49,0,0,1,5,6c2,4,1.78,8,2,8a12.19,12.19,0,0,0,0-4,24,24,0,0,0-3-10,25.55,25.55,0,0,0-9-9c-1.17-.69-2.82-1.54-3-3s1-2.75,2-4a11.49,11.49,0,0,1,2-2c3.11-2.2,8.33-.08,11,1a21.37,21.37,0,0,1,9,6c4.57,5.45,4.53,12.09,5,12s.37-3.93-1-8a21.27,21.27,0,0,0-5-8,30.7,30.7,0,0,0-16-8c-1-.15-2.94-.39-3-1-.09-.84,3.46-1.85,4-2a20.15,20.15,0,0,1,13,0,19.92,19.92,0,0,1,9,7c4.22,5.42,4.78,11,5,11s-.21-6-4-12a23.59,23.59,0,0,0-8-8c-2.56-1.52-8-4.72-13-3-1,.35-2,.9-2.78,1.11q.4-.56.78-1.11c3.63-5.33,10.41-6.68,12-7a16.24,16.24,0,0,1,8,0c5.29,1.49,8.14,5.73,11,10A36.85,36.85,0,0,1,371.5,280.5Z" transform="translate(-282.44 -52.71)"/><path class="cls-6" d="M358.5,277.5c3.79,6,4.21,11.94,4,12s-.78-5.58-5-11a19.92,19.92,0,0,0-9-7,20.15,20.15,0,0,0-13,0c-.54.15-4.09,1.16-4,2,.06.61,2,.85,3,1a30.7,30.7,0,0,1,16,8,21.27,21.27,0,0,1,5,8c1.37,4.07,1.36,7.93,1,8s-.43-6.55-5-12a21.37,21.37,0,0,0-9-6c-2.67-1.08-7.89-3.2-11-1a11.49,11.49,0,0,0-2,2c-1,1.25-2.16,2.65-2,4s1.83,2.31,3,3a25.55,25.55,0,0,1,9,9,24,24,0,0,1,3,10,12.19,12.19,0,0,1,0,4c-.22,0,0-4-2-8a15.49,15.49,0,0,0-5-6c-4.73-3.29-11.38-3.51-12-2-.21.51.32,1.1,1,2a36.09,36.09,0,0,1,5,10c.51,1.65.67,4.44,1,10,.12,2.08.35,5.95,0,6s-.75-4.18-3-10a23.08,23.08,0,0,0-5-8c-1.31-1.34-2.05-2.08-3-2-2.29.18-3.59,4.91-5,10a50.39,50.39,0,0,0-2,12c-.14,3.55.15,6,0,6s-1.1-4.06-1-9c.07-3.29.53-4.78,0-5-.87-.36-3.6,3-5,7a23.09,23.09,0,0,0-1,9c-.26,0-2.37-6.32,0-13a21.42,21.42,0,0,1,5-8,22.13,22.13,0,0,0,2-2c1.72-2,4-5.76,3-7s-4.42.2-6,1a14.27,14.27,0,0,0-6,6c-2.27,4.21-1.79,8-2,8s-1.62-7.18,2-14a16.3,16.3,0,0,1,5-6c.73-.52,5.1-3.56,9-3a2.37,2.37,0,0,0,1,0c2.27-.53,4.13-4.93,3-7-1.65-3-10.59-2.8-17,1-5.48,3.25-7.64,8.24-8,8s1.79-6,7-10c1.61-1.24,5.22-4,10-4,4.93,0,8.23,3,9,2,.56-.73-.82-2.81-2-4-2.24-2.27-5.17-2.73-7-3-4.12-.6-6.92.36-7,0s2.69-1.74,6-2a17.12,17.12,0,0,1,7,1c2.93,1.13,3.93,2.54,5,2s1.25-2.64,1-4c-.53-2.93-3.25-4.56-4-5-5.4-3.15-11.9-.51-12-1s4-2.21,9-2c2,.08,6.42.27,8,3,.86,1.48.35,2.8,1,3,.9.28,2.72-2,4.08-4.79a14.39,14.39,0,0,0,.92,1.79s1.12-1.38,2.22-2.89c.78-.21,1.76-.76,2.78-1.11,5-1.72,10.44,1.48,13,3A23.59,23.59,0,0,1,358.5,277.5Z" transform="translate(-282.44 -52.71)"/><path class="cls-7" d="M331.58,268.71a14.39,14.39,0,0,0,.92,1.79s1.12-1.38,2.22-2.89q.4-.56.78-1.11c3.63-5.33,10.41-6.68,12-7a16.24,16.24,0,0,1,8,0c5.29,1.49,8.14,5.73,11,10a36.85,36.85,0,0,1,5,11c1,3.67,2.11,7.87,1,13s-3.92,8.55-6,11c-3.33,3.92-5.4,4.65-13,10-9.24,6.5-8.42,7-16,12-2,1.3-6,3.53-14,8-7.28,4.05-10.14,5.5-14,5a14.79,14.79,0,0,1-7-3c-1.3-1-3.14-2.82-5-7a38.3,38.3,0,0,1-3-13c-1.51-16.74-3.58-14.76-3-22a41.79,41.79,0,0,1,7-20c2-2.94,4.44-6.39,9-9,2.13-1.22,8.08-4.75,15-3,1.6.4,7.68,1.94,9,6A1.8,1.8,0,0,0,331.58,268.71Z" transform="translate(-282.44 -52.71)"/><path class="cls-5" d="M427,298.51a9.27,9.27,0,0,0-2.53-4c-.95-.85-2.28-2.05-4-2-1.08,0-2,.56-3,0-.33-.18-.3-.28-1-1-1.39-1.42-2.05-1.6-2-2,.08-.59,1.67-.95,3-1,2.93-.11,4.83,1.29,5,1s-1.47-2.56-4-3-4.19,1.13-6,0a3.66,3.66,0,0,1-1-1c-.72-1-1.64-2.25-2.5-3.47a6.17,6.17,0,0,1,3.5-1.53c1.87-.29,7,1,11,7a47.32,47.32,0,0,1,6,10,50.34,50.34,0,0,1,3,10c.93,4.83,0,3.81,1,10,.17,1,.47,2.81,0,3s-1-1.06-2-2c-1.61-1.54-3.77-1.87-9-2-6-.15-6,.21-8,0-4.19-.43-7-2.32-11-5s-9.36-6.27-13-13c-1.63-3-3.7-7-3-12,.23-1.63.77-5.53,4-8,3.82-2.92,10-2.73,13,0,1.44,1.29,2.52,2.47,3.41,3.4.9,1.23,2,2.55,2.59,3.6s1.44,2.47,1,3-1.28.15-2,0a14,14,0,0,0-8,1c-3.25,1.25-5.13,3.83-5,4s2.37-2.13,6-3c3-.72,5.9-.53,6,0s-1.57.52-3,2-1.65,3.06-2,5c-.58,3.26-.21,6,0,6s-.58-4.48,2-7c1.28-1.25,3-1.59,5-2,2.19-.44,4.87-.53,5,0s-1.29.72-3,2a12.48,12.48,0,0,0-4,5,9.51,9.51,0,0,0,0,7c.14,0-1.12-4,1-7a8.53,8.53,0,0,1,5-3c.53-.13,1.72-.44,2,0s-.44,1.19-1,2c-1.95,2.83-2.2,5.92-2,6s.74-2.41,3-4c.71-.5,1.87-1.32,3-1,.87.25,1.22,1,3,5a24.15,24.15,0,0,0,2,4c1.66,2.17,3.86,3.18,4,3s-2.77-1.67-4-5c-.73-2-.1-2.57-1-5s-2.28-3.73-2-4,1.84.64,3,2c1.66,1.95,1.8,4,2,4s.42-2.68-1-5a10.86,10.86,0,0,0-3-3c-1.77-1.3-3.09-1.68-3-2s1.94-.19,3,0a6.79,6.79,0,0,1,3,1A4.67,4.67,0,0,1,427,298.51Zm0,0a13.49,13.49,0,0,1,.46,2A5.62,5.62,0,0,0,427,298.53Z" transform="translate(-282.44 -52.71)"/><path class="cls-6" d="M424.5,308.5c1.23,3.33,4.17,4.79,4,5s-2.34-.83-4-3a24.15,24.15,0,0,1-2-4c-1.78-4-2.13-4.75-3-5-1.13-.32-2.29.5-3,1-2.26,1.59-2.81,4.07-3,4s.05-3.17,2-6c.56-.81,1.25-1.6,1-2s-1.47-.13-2,0a8.53,8.53,0,0,0-5,3c-2.12,3-.86,7-1,7a9.51,9.51,0,0,1,0-7,12.48,12.48,0,0,1,4-5c1.71-1.28,3.09-1.61,3-2s-2.81-.44-5,0c-2,.41-3.72.75-5,2-2.58,2.52-1.74,7-2,7s-.58-2.74,0-6c.35-1.94.67-3.63,2-5s3.07-1.6,3-2-3-.72-6,0c-3.63.87-5.87,3.17-6,3s1.75-2.75,5-4a14,14,0,0,1,8-1c.72.15,1.65.43,2,0s-.3-1.8-1-3-1.69-2.37-2.59-3.6l.59.6c.17-.17.33-.32.5-.47.86,1.22,1.78,2.51,2.5,3.47a3.66,3.66,0,0,0,1,1c1.81,1.13,3.55-.42,6,0s4.18,2.7,4,3-2.07-1.11-5-1c-1.33.05-2.92.41-3,1-.05.4.61.58,2,2,.7.72.67.82,1,1,1,.56,1.92,0,3,0,1.72-.05,3.05,1.15,4,2a9.27,9.27,0,0,1,2.53,4,4.67,4.67,0,0,0-1.53-2,6.79,6.79,0,0,0-3-1c-1.06-.19-2.9-.37-3,0s1.23.7,3,2a10.86,10.86,0,0,1,3,3c1.42,2.32,1.22,4.95,1,5s-.34-2.05-2-4c-1.16-1.36-2.73-2.26-3-2s1.08,1.51,2,4S423.77,306.52,424.5,308.5Z" transform="translate(-282.44 -52.71)"/><path class="cls-7" d="M407.91,281.9l.59.6c.17-.17.33-.32.5-.47a6.17,6.17,0,0,1,3.5-1.53c1.87-.29,7,1,11,7a47.32,47.32,0,0,1,6,10,50.34,50.34,0,0,1,3,10c.93,4.83,0,3.81,1,10,.17,1,.47,2.81,0,3s-1-1.06-2-2c-1.61-1.54-3.77-1.87-9-2-6-.15-6,.21-8,0-4.19-.43-7-2.32-11-5s-9.36-6.27-13-13c-1.63-3-3.7-7-3-12,.23-1.63.77-5.53,4-8,3.82-2.92,10-2.73,13,0C405.94,279.79,407,281,407.91,281.9Z" transform="translate(-282.44 -52.71)"/><path class="cls-10" d="M343,154c-.53-.39-2.6,1.22-4,3-2.47,3.14-2.81,6.7-3,9a35.81,35.81,0,0,0,1,11,30.51,30.51,0,0,1,1,7c0,1.89-.12,3.14-1,4a4.56,4.56,0,0,1-3,1,8.64,8.64,0,0,1-5-1c-3.28-2-3.79-6.24-4-8-.69-5.74,1.94-9.46,1-10s-4,2.57-6,6a20.13,20.13,0,0,0-3,10c-.05,4.2,1.41,6,0,9a5.14,5.14,0,0,1-3,3,4.61,4.61,0,0,1-4-1c-3.38-2.83-1.28-9.88-2-10-.56-.1-2.64,4-3,9a11.94,11.94,0,0,1-1,5c-.45.93-1.32,2.7-3,3a3.88,3.88,0,0,1-3-1c-2-1.79-1.42-5-2-5-.36,0-.72,1.18-2,5-1,2.85-1.22,3.54-2,4-1.2.71-2.36.12-3,1a1.71,1.71,0,0,0,0,2c.16.17.56.49,3,0,2.1-.42,2.5-.8,4-1s1.57.14,3,0a8.66,8.66,0,0,0,5-2c1.79-1.66,1.37-3.27,3-4,1-.45,1.46,0,3,0s2.07-.47,7-3c4-2.06,4.42-2.16,5-3,1.19-1.73.73-3.15,2-4,1.07-.72,2.14-.19,4,0a16.84,16.84,0,0,0,9-2,17.49,17.49,0,0,0,6-4c1-1.11,2.07-2.61,4-3a10,10,0,0,1,2,0c2.15,0,4.16,0,6-1,1.59-.85,1.54-1.63,3-2,1.25-.32,1.6.17,3,0,1.24-.15,2.17-.77,4-2,2.27-1.53,2.16-1.83,4-3a16.68,16.68,0,0,1,4-2c2.14-.7,2.54-.26,4-1a5.71,5.71,0,0,0,3-3c.63-1.93-.64-3.54,0-4,.49-.35,1.27.54,3,1a8.31,8.31,0,0,0,4,0,8.12,8.12,0,0,0,5-3c1.38-1.88,2.11-4.81,1-7-1.23-2.44-4.21-2.92-4-4,.18-.91,2.3-.62,3-2s-.36-2.91-1-4c-.77-1.3-1.88-2.68-5-5-3.31-2.46-5-3.69-7-4-2.62-.4-5.7-.11-6,1s2.29,2.5,2,3-2.52-.35-4-1c-2.62-1.15-3.76-2.25-4-2s.9,2.5,3,4,2.85.73,5,2c1.31.77,2.54,2.51,5,6a11.68,11.68,0,0,1,2,4c.2.78.66,2.56,0,3s-1.64-.59-4-2c-1.11-.66-.38-.14-6-3-3.59-1.82-4.21-2.2-5-3-1.12-1.14-1.59-2.14-2-2s-.58,2.22,0,4c.79,2.42,2.6,4,5,6,2.64,2.22,4.11,2.85,4,4s-1.57,1.8-2,2c-1.7.81-3.39.41-5,0a13.6,13.6,0,0,1-6-3c-2.78-2.47-3.36-5.2-4-5s-.46,2.87,0,5c.78,3.67,2.43,5.65,2,6s-2.58-.89-4-3c-3.09-4.6-.61-10.52-2-11-.79-.27-2.23,1.42-3,3-.6,1.24-1.09,3,0,10a65.29,65.29,0,0,1,1,8c.14,2.85,0,4.33-1,5s-2.67.13-3,0c-1.34-.52-2.6-1.69-4-5s-3.45-8.14-2-14C341.86,156.53,343.55,154.41,343,154Z" transform="translate(-282.44 -52.71)"/><path class="cls-10" d="M286,196c0,.26,0,.21,0,3v2a27.55,27.55,0,0,1,0,4c-.08.57-.17.82,0,1,.43.46,2.08,0,3-1,1.18-1.28.51-2.76,1-5,.72-3.3,3.34-4.61,3-5s-3.44.83-4,3c-.28,1.07.17,1.94,0,2s-2-2.22-2-5a9.1,9.1,0,0,1,2-5c2-3.07,4.35-4.39,4-5-.19-.34-1-.18-2,0a6.36,6.36,0,0,0-4,2c-1,1.24-1.26,2.87-1,3s1.66-2.18,2-2-.13,1.07-1,4A18.25,18.25,0,0,0,286,196Z" transform="translate(-282.44 -52.71)"/><path class="cls-10" d="M297,182c-.32-.33.48-1.59,2-4a18.38,18.38,0,0,1,3-4,16.87,16.87,0,0,1,5-3c1.77-.83,5.71-2.52,6-2,.16.28-.87,1-3,3s-2.59,2.64-4,4C302.49,179.37,297.64,182.65,297,182Z" transform="translate(-282.44 -52.71)"/><path class="cls-12" d="M338,133a13.08,13.08,0,0,1,4,0,9.46,9.46,0,0,1,3,1c2.43,1.33,2.68,3.05,4,3,1,0,2.11-1.18,2-2-.17-1.25-3.08-1.6-3-2s2-.47,4,0,3.55,1.48,4,1a1,1,0,0,0,0-1c-.46-.94-2-1-9-1h-2A24.33,24.33,0,0,0,338,133Z" transform="translate(-282.44 -52.71)"/><path class="cls-9" d="M307,164c-.15-.26,2.66-2.35,6-4,4.28-2.12,6.65-2.14,8-2s3,.57,3,1-.74.54-3,1c-3,.62-5,.84-6,1C310.08,161.77,307.16,164.27,307,164Z" transform="translate(-282.44 -52.71)"/><path class="cls-9" d="M305,150c.11.17,2.71-1.76,8-4a27.56,27.56,0,0,1,6-2,17.32,17.32,0,0,1,7,0c4.25,1,6.55,3.5,7,3s-.58-2-2-3c-.69-.48-1.46-.77-5-1a30.47,30.47,0,0,0-7,0,23.85,23.85,0,0,0-4,1C309.08,146,304.86,149.78,305,150Z" transform="translate(-282.44 -52.71)"/><path class="cls-9" d="M326,166c-.67-.19-2.71,3.19-3,7a13.61,13.61,0,0,0,1,6c1.54,4.15,4.51,7.29,5,7s-2-3.47-3-9C324.9,170.64,326.75,166.21,326,166Z" transform="translate(-282.44 -52.71)"/><path class="cls-9" d="M320,175c-.51-.18-2.08,2.57-3,5-1.81,4.81-1.63,9.89-1,10,.42.07,1.08-2,2-5C319.09,181.5,320.73,175.26,320,175Z" transform="translate(-282.44 -52.71)"/><path class="cls-9" d="M343,156c-.92-.24-3.56,4.17-4,9a20.41,20.41,0,0,0,2,10c.75,1.83,2.36,5.2,3,5s-.61-4.42-1-11C342.5,160.72,343.9,156.24,343,156Z" transform="translate(-282.44 -52.71)"/><path class="cls-9" d="M308,185c-.27-.15-1.88,1.76-3,4-1.56,3.12-1.78,6.06-2,9,0,.32-.22,3,0,3s.6-3.49,2-8C306.53,188.07,308.32,185.18,308,185Z" transform="translate(-282.44 -52.71)"/><path class="cls-9" d="M291,202c-.43-.07-.79-4.16,1-8a17.39,17.39,0,0,1,5-6c1.23-1,2.84-2.18,3-2s-2.66,2.44-5,6C291.55,197.25,291.47,202.08,291,202Z" transform="translate(-282.44 -52.71)"/><path class="cls-9" d="M297,194c-.31-.1-1.42,2.36-2,4-1.36,3.86-1.41,7.93-1,8C294.71,206.12,297.65,194.22,297,194Z" transform="translate(-282.44 -52.71)"/><path class="cls-9" d="M354,149c-.38-.07-1.66,2.73-2,6-.63,6,2.08,12.72,7,16,2.23,1.48,4.87,2.24,5,2s-2-1.2-4-3c-4.79-4.32-5.78-10.6-6-12C353.2,152.9,354.44,149.09,354,149Z" transform="translate(-282.44 -52.71)"/><path class="cls-9" d="M349,166c-.68.15-.73,3.34,0,6s2.38,5.21,3,5,.09-3.49,0-4C351.41,169.58,349.77,165.83,349,166Z" transform="translate(-282.44 -52.71)"/><path class="cls-9" d="M362,147c-.41.16.25,3,1,5a16.85,16.85,0,0,0,3,5,20.25,20.25,0,0,0,5,4c2.88,1.84,5.89,3.2,6,3s-3.5-1.71-7-5C364.17,153.51,362.63,146.76,362,147Z" transform="translate(-282.44 -52.71)"/><path class="cls-9" d="M370,139c-.21.41,1,1.47,2,2,2.21,1.18,4.93.56,5,0C377.11,140.1,370.43,138.15,370,139Z" transform="translate(-282.44 -52.71)"/><path class="cls-9" d="M293,181c1.18-1.19.37-2.56,1-5a12.16,12.16,0,0,1,3-5c1.54-1.76,3.13-2.82,3-3s-2.4,1.53-3,1,.6-3.09,2-5c.41-.55,1.85-2.44,6-5,3.67-2.26,5.82-3.59,9-4,2.19-.29,2.33.19,7,0,3.42-.14,5.84-.24,6-1s-2.29-2.47-5-3-5.52.31-11,2c-2.27.7-4.7,1.55-5,1s1.27-1.44,1-2-3.08-.44-5,1a4.76,4.76,0,0,0-2,3c-.06.55.08.56,0,1-.28,1.47-1.94,1.49-3,3-.55.78-.16.86-1,4a12.46,12.46,0,0,1-1,3c-1,1.66-2,1.55-3,3-.72,1.06-.46,1.54-1,4a35.12,35.12,0,0,1-2,6c-1.25,3.11-2.29,4.8-2,5s1.36-1.64,4-3C292.23,181.37,292.49,181.52,293,181Z" transform="translate(-282.44 -52.71)"/><path class="cls-9" d="M313,142a17.73,17.73,0,0,0,4-1c5.26-1.64,6.14-2.53,9-3a27.41,27.41,0,0,1,6,0c5.46.31,9,1.18,9,1s-3.13-1.28-7-2c-2.56-.48-3.93-.51-4-1s2.06-1.61,4-2a16.89,16.89,0,0,1,5,0,6.09,6.09,0,0,0-5-1c-2.53.63-3.17,2.77-6,3-.78.06-.85-.09-2,0a12.23,12.23,0,0,0-4,1,16.26,16.26,0,0,0-3,2A32.26,32.26,0,0,1,313,142Z" transform="translate(-282.44 -52.71)"/><path class="cls-9" d="M351,134c.05.12.66-.26,1,0,.65.49-.58,2.54,0,3,.39.31,1.54-.15,2-1,.58-1.07.05-2.73-1-3A2,2,0,0,0,351,134Z" transform="translate(-282.44 -52.71)"/><path class="cls-11" d="M361,136c-4,1-8.59,3-15,8-10.93,8.52-16,13-16,13-1.74,1.53-13.26,11.7-13,12s10.32-7.68,18-14c10.59-8.71,12-10,16-12s9-4,11-5A4.76,4.76,0,0,0,361,136Z" transform="translate(-282.44 -52.71)"/><path class="cls-10" d="M340,228c-.61.78-1.2,1.42-1,2s.84.48,1,1-.58,1-1,2a5,5,0,0,0,0,3c.33,1.67.82,1.63,1,3,.21,1.54-.38,1.86,0,3,0,.09.65,1.86,2,2a2.57,2.57,0,0,0,2-1,4.59,4.59,0,0,0,1-3,60.88,60.88,0,0,0,0-7,23.72,23.72,0,0,1,1-10,13.07,13.07,0,0,1,4-6c1.53-1.21,3.09-1.77,3-2s-2.11,0-4,1a12.83,12.83,0,0,0-5,5c-1,1.78-.75,2.15-2,4C341.33,226,340.74,227.05,340,228Z" transform="translate(-282.44 -52.71)"/><path class="cls-10" d="M349,237c.13-1.77-.16-1.83,0-3a16.76,16.76,0,0,1,1-3c.32-.93.65-1.86,1-3a14.85,14.85,0,0,1,1-3c.58-1,1.58-2.19,2-2s-.06,1.24,0,3,.58,4.65,2,5a2,2,0,0,0,2-1c.31-.61,0-1.08,0-2,0-1.2.49-1.73,1-3,1.11-2.76.65-5,1-5s.38,1,1,3c1.13,3.67,1.72,3.93,2,4,.9.21,1.83-.82,2-1a4.78,4.78,0,0,0,1-3,20.06,20.06,0,0,0,0-4c-.4-4.07.55-8,1-8,.3,0,.6,1.72,1,4,.49,2.79.45,3.84,1,4s1.67-.84,2-2c.39-1.38-.42-2.33-1-4-1.23-3.56-.19-7,0-7a16.55,16.55,0,0,0,1,6c1,2.31,1.72,2.13,3,5,1,2.3.9,3.24,2,4,1.3.9,3.36.88,4,0,.3-.41.17-.85,0-2-.05-.36-.67-4.76,0-5,.35-.12.67,1,2,2a5,5,0,0,0,4,1,4.83,4.83,0,0,0,3-3,6.12,6.12,0,0,0,0-4c-1.11-3.82-4.42-5.2-4-6s3.27-.59,5,1c1.23,1.13,1.14,2.35,3,4,.68.6,1.36,1.19,2,1,.87-.25,1.37-1.84,1-3a4,4,0,0,0-2-2c-1.2-.71-2-.7-2-1,0-.45,1.78-.87,3-1a4.85,4.85,0,0,1,2,0c1.24.38,1.23,1.3,3,3,1.34,1.29,1.88,1.28,2,2s-.55,1.08-1,3c-.31,1.33-.13,1.78,0,2,.35.61.93.58,1,1s-.79.88-2,2-1.73,2.13-2,2,.2-1.94,0-2-.47,2-2,3c-1,.64-1.4.19-3,1-1.15.58-1.71,1.2-2,1s.37-1.76,0-2-1.17.84-3,2c-2,1.28-2.74,1.1-3,1-.63-.24-.51-.85-1-1-.87-.27-1.64,1.39-4,3-.89.6-2.15,1.44-3,1-.58-.3-.67-1-1-1s-.27,1.13-1,2a3.09,3.09,0,0,1-3,1c-.73-.23-.92-.76-2-1-.47-.1-.79-.17-1,0-.57.47.62,1.93,0,3a2.85,2.85,0,0,1-2,1,5.31,5.31,0,0,1-2,0c-1.84-.33-2.62-1.3-3-1s.65,1.74,0,3a3.08,3.08,0,0,1-1,1,5.07,5.07,0,0,1-2,1c-1.89.34-3-1.54-4-1a7.65,7.65,0,0,0-1,2,7,7,0,0,1-1,2c-.47.51-.72.34-2,1s-1.71,1.18-2,1S348.91,238.27,349,237Z" transform="translate(-282.44 -52.71)"/><path class="cls-10" d="M340,218c-.4-.16.42-2.85,0-3s-.92,1-1,1a5,5,0,0,1,1-2c.89-1.21,1.61-1.37,4-3s2.15-1.76,3-2c1.07-.3,1.43,0,4,0,2.07,0,3-.18,3,0s-1.39.7-5,2c-4.34,1.57-4.65,1.75-5,2C341.25,215,340.43,218.18,340,218Z" transform="translate(-282.44 -52.71)"/><path class="cls-9" d="M341,211c.14.1,1-1.36,3-3a18.4,18.4,0,0,1,3-2,17.73,17.73,0,0,1,7-2c4.6-.3,7.82,1.45,8,1s-1.54-1.36-3-2a12.75,12.75,0,0,0-15,3C341.84,208.26,340.82,210.88,341,211Z" transform="translate(-282.44 -52.71)"/><path class="cls-9" d="M338,227c.17,0,.27-1.66,1-4a17.74,17.74,0,0,1,3-6c1.68-2.1,3.16-2.71,3-3-.25-.45-4.27.23-6,3-.66,1.06-.78,2.71-1,6C337.89,224.58,337.8,227,338,227Z" transform="translate(-282.44 -52.71)"/><path class="cls-9" d="M350,219a14.87,14.87,0,0,0-2,3,19.85,19.85,0,0,0-2,7c-.57,4.86.35,7.92,0,8s-2.2-3.17-2-7C344.33,223.72,350,219,350,219Z" transform="translate(-282.44 -52.71)"/><path class="cls-9" d="M366,202c-1.43-.23-1.92-1.25-3-2-3.12-2.17-8,.1-8,0a16.11,16.11,0,0,1,9-1c2,.32,5,1.17,5,2C369,201.59,367.39,202.23,366,202Z" transform="translate(-282.44 -52.71)"/><path class="cls-9" d="M369,208c-.36,0-.82,2-1,3-.33,1.85-1,5.55,1,9,1,1.72,2.58,3.25,3,3s-1.08-2.73-2-7C369,211.43,369.47,208,369,208Z" transform="translate(-282.44 -52.71)"/><path class="cls-9" d="M361,214c-.23,0-.74,1.56-1,3a16.51,16.51,0,0,0,1,9c.14.36.78,2.06,1,2s-.91-3.78-1-9C360.95,216.15,361.26,214,361,214Z" transform="translate(-282.44 -52.71)"/><path class="cls-9" d="M353,233c-.33,0-.9-1.62-1-3-.15-2,.63-4,1-4C353.66,226.08,353.66,232.91,353,233Z" transform="translate(-282.44 -52.71)"/><path class="cls-9" d="M346,242c-.11-.11.73-.73,1-2s-.18-1.93,0-2,1.12.92,1,2C347.85,241.36,346.15,242.15,346,242Z" transform="translate(-282.44 -52.71)"/><path class="cls-9" d="M376,200c.06-1.11,3.06-1.79,4-2a17.55,17.55,0,0,1,7,0c.63.1,1.76.4,4,1,4.13,1.1,5,1.51,5,2s-.52.72-1,1c-1.87,1.11-3.86.52-4,1-.08.28.54.65,1,1a8,8,0,0,1,3,5,10.69,10.69,0,0,0-3-4c-1-.73-2.32-1.16-5-2-3-1-4.73-1.47-5-1s1,1.13,2,3c.27.51.71,1.51,1,5,.18,2.14.35,6,0,6s-.52-2.71-2-7c-1.07-3.09-1.63-4.66-3-6C378,201.06,376,200.93,376,200Z" transform="translate(-282.44 -52.71)"/><path class="cls-9" d="M376,205c.25-.16,1.4,1.19,2,2a13.56,13.56,0,0,1,2,4c.95,2.87,1.3,5.93,1,6s-.61-1.61-2-5C377.17,207.55,375.69,205.2,376,205Z" transform="translate(-282.44 -52.71)"/><path class="cls-11" d="M371,201a23.65,23.65,0,0,0-4,3,65.19,65.19,0,0,0-12,14s1.43-2.09,4-5c1.14-1.29,1.94-2.1,7-7C370,202.15,371.08,201.09,371,201Z" transform="translate(-282.44 -52.71)"/><path class="cls-10" d="M427,209c.21.37-1.44,1.35-3,3a19,19,0,0,0-4,7c-.23.63-.49,1.75-1,4a4.33,4.33,0,0,0,0,3c.11.22.48,1,1,1s1-.95,2-3a42.85,42.85,0,0,1,2-4c.85-1.16,1.9-1.78,4-3,2.63-1.53,4.23-2.43,6-2a13,13,0,0,1,2,1c2.75,1.38,4.06,1.76,4,2s-1.81-.29-4,0a11.51,11.51,0,0,0-6,3c-1.15,1-3.44,3-4,6-.27,1.46.21,1.3,0,4s-.77,3.9,0,5c.56.8,1.62,1.27,2,1s-.1-2,0-2a6.49,6.49,0,0,0,1,2c.44.51,1.36,1.24,2,1s.48-1.34,1-3c.68-2.18,2.22-4.19,3-4,.18,0,.25.19,1,2s.76,1.84,1,2c1,.66,2.31-.57,3,0,.52.43,0,1.36,0,3,0,2.45,1.1,5,2,5,.48,0,.85-.7,1-1a5.47,5.47,0,0,0,0-4,8.28,8.28,0,0,1,1,5,4.25,4.25,0,0,0,0,2c.39,1.26,1.6,2.22,2,2s0-.86,0-2c.1-2.21,1.59-4.14,2-4,.2.07.08.62,0,3s0,3.71,0,4c.13,2.22.22,3.71,1,4s1.53-.4,2-1c.76-1,.37-1.78,1-4,.23-.79.57-2,1-2,.23,0,.42.34,1,2,.77,2.18.66,2.25,1,3,.7,1.56,1.19,1.36,2,3a14.86,14.86,0,0,1,1,3c.48,1.85.41,2.4,1,3,.84.86,2,.81,2,1s-1.07.42-2,0c-.61-.27-.67-.61-2-2-.55-.58-.46-.44-1-1-1.46-1.53-1.45-1.84-2-2-.81-.23-1.21.34-2,0-.47-.2-.53-.49-1-1-1.25-1.37-2.17-.86-3-2-.4-.56-.25-.77-1-2a2,2,0,0,0-1-1c-.37-.13-.53,0-1,0a2.42,2.42,0,0,1-2-1c-.4-.79.39-1.56,0-2s-.89,0-2,0a5.79,5.79,0,0,1-3-1,5.7,5.7,0,0,1-2-2c-.87-1.53-.55-2.92-1-3s-.68,1.45-2,2a2.74,2.74,0,0,1-2,0c-1.12-.5-1-1.61-2-2-.71-.26-1,.17-2,0a4.39,4.39,0,0,1-2-1,8,8,0,0,1-3-4c-.74-2.54.39-4.87,0-5s-.88,1.93-2,2c-.82.05-1.79-1-2-2s.36-1.65,0-2-1.24.37-2,0-.84-1.48-1-3a9.38,9.38,0,0,1,0-3,8.94,8.94,0,0,1,2-4c1.67-2.1,3.17-2.59,3-3s-2.72-.42-4,1c-.84.93-.77,2-1,2s-.89-2.55,0-5a7.86,7.86,0,0,1,2-3c.4-.38,2.78-2.61,5-2,.9.25.89.72,2,1C425.64,209.42,426.82,208.69,427,209Z" transform="translate(-282.44 -52.71)"/><path class="cls-10" d="M457,234c-.35.23.46,1.69,2,6a37.81,37.81,0,0,1,2,7c.4,2.51.43,4.9,0,5s-.71-1.08-1-1-.14,1.9,0,3c.33,2.6.49,3.91,1,4s1.58-1.57,2-3c.3-1,.42-2.18,0-5-.56-3.77-1.4-5.81-1-6s1.95,2,2,2a14.76,14.76,0,0,1-3-5c-.6-1.87-.22-2.45-1-4C459.06,235.14,457.39,233.74,457,234Z" transform="translate(-282.44 -52.71)"/><path class="cls-9" d="M443,226c-.2-.28-3.18,1.51-4,2a17.68,17.68,0,0,0-3,2c-2.52,2.49-2.59,6.8-2,7s1.09-2.48,4-6C440.62,227.83,443.19,226.26,443,226Z" transform="translate(-282.44 -52.71)"/><path class="cls-9" d="M426,220c-.39-.41,1.43-3.15,4-5a8.71,8.71,0,0,1,5-2,7.81,7.81,0,0,1,4,1c1.84,1,3.23,2.68,3,3s-1.25-.6-3-1c-2.62-.6-4.92.22-7,1C428,218.47,426.34,220.36,426,220Z" transform="translate(-282.44 -52.71)"/><path class="cls-9" d="M439,223c-.16-.5-3-.57-5,1a6.91,6.91,0,0,0-2,3,55,55,0,0,0-3,8,16.51,16.51,0,0,1,4-8C435.88,224.08,439.17,223.55,439,223Z" transform="translate(-282.44 -52.71)"/><path class="cls-9" d="M449,220c.11-.45,2.37-.31,4,0a11.92,11.92,0,0,1,5,2,13.89,13.89,0,0,1,4,5c1.37,2.46,1.65,4.07,2,4s.54-2.62,0-5a14.68,14.68,0,0,0-3-6,16.76,16.76,0,0,0-5-4c-4.7-2.7-9-2.8-9-3s3.34-.42,7,1a19,19,0,0,1,11,13c.81,3,.6,4.82,0,6-.12.24-.51,1-1,1s-.85-1-1-1,.71,3.24,1,7a11,11,0,0,1,0,3c-.16,0-.25-2.24-1-5-1.24-4.61-2.57-4.25-4-9-.55-1.81-.75-3.17-2-4-.33-.22-.55-.28-3-1a13.07,13.07,0,0,1-3-1c0-.19,2.88.39,3,0C454.17,222.45,448.82,220.71,449,220Z" transform="translate(-282.44 -52.71)"/><path class="cls-9" d="M455,233c-.2.15,1.8,2.18,3,6a24.28,24.28,0,0,1,1,6c.1,2.38-.18,4,0,4s.81-1.88,1-4a14.08,14.08,0,0,0-1-7C457.63,234.84,455.21,232.84,455,233Z" transform="translate(-282.44 -52.71)"/><path class="cls-9" d="M453,241c-.27.06-.1,2,0,3a28.1,28.1,0,0,0,1,5c.46,1.76.8,3,1,3s.21-2.21,0-4C454.58,244.36,453.37,240.92,453,241Z" transform="translate(-282.44 -52.71)"/><path class="cls-9" d="M448,239c-.22-.27-1.52.1-2,1-.15.27-.26.67,0,2a7.91,7.91,0,0,0,1,3c.18,0-.75-1.95,0-4C447.44,239.8,448.19,239.24,448,239Z" transform="translate(-282.44 -52.71)"/><path class="cls-9" d="M419,210c-.2-.29,1.44-1.89,3-3a10.62,10.62,0,0,1,4-2c3-.67,6,.53,6,1s-1.82-.07-4,1a10,10,0,0,0-4,4,21.42,21.42,0,0,0-2,5c-.17,0-.24-2.51,1-5s3.21-3.7,3-4C425.63,206.46,419.37,210.52,419,210Z" transform="translate(-282.44 -52.71)"/><path class="cls-11" d="M441,210a19.59,19.59,0,0,1,2,3c1.4,2.24,2.18,3.48,3,5,2.38,4.37,3.45,7.89,5,11l1,2,1,2c.93,1.87,1.62,3.58,3,7a14.61,14.61,0,0,1,1,4c0,.37.1,1,0,1-.3.07-.6-5.32-4-10-1.2-1.66-1.91-2-3-4a35.59,35.59,0,0,1-2-5s-.41-1.09-2-5C443.34,214.47,440.82,210.1,441,210Z" transform="translate(-282.44 -52.71)"/><path class="cls-11" d="M449,226c-.29-.36-1.77.14-3,1a7.38,7.38,0,0,0-3,4,8.17,8.17,0,0,1,3-3,16.74,16.74,0,0,1,3-1h0S449.19,226.23,449,226Z" transform="translate(-282.44 -52.71)"/><path class="cls-11" d="M450,229c-.34-.27-1.38.45-2,1a7.87,7.87,0,0,0-2,3,11.19,11.19,0,0,0-1,4c.07,0,.25-3.19,2-5a11.1,11.1,0,0,1,3-2h0C450.23,229.89,450.23,229.18,450,229Z" transform="translate(-282.44 -52.71)"/><path class="cls-10" d="M315,102c.28.12-.32,1.36,0,3a3.08,3.08,0,0,0,1,2,2.44,2.44,0,0,0,3,0c.55-.6.16-1.44,0-3-.33-3.11.55-6,1-6,.28,0,.55,1.13,1,3,.4,1.68.41,2.3,1,3,.45.53,1.32,1.24,2,1,.52-.18.7-.84,1-2,.61-2.36.87-3.51,1-4a10.31,10.31,0,0,1,3-5,5.38,5.38,0,0,0-1,2c-.08.36-.25,1.28,1,5,.58,1.73.76,2,1,2,.68.1,1.7-1.43,2-3,.37-1.93-.57-2.65,0-4,.64-1.51,2.57-2.38,3-2,.27.24-.05,1-1,3-2.79,6-3.54,7.33-3,8s2.21.31,3,0c1.42-.55,1.62-1.41,4-4s3.33-3,4-3c.5,0,.82.07,2,0s1.84-.25,2,0-.68.83-1,2c-.38,1.42.54,2.17,0,3-.21.32-.36.24-2,1-1.15.54-1,.53-2,1a9.23,9.23,0,0,0-2,1c-.6.46-.52.61-1,1-1,.83-2.28.91-4,1-1,.05-1.32,0-2,0-2.24,0-3.12.7-5,1s-1.6-.23-4,0c-2.85.27-2.79,1-5,1-2,0-2.72-.61-4,0a9,9,0,0,1-2,1c-.48.13-1.62.45-2,0-.25-.3-.08-.81,1-3a34.86,34.86,0,0,1,3-5C314.33,102.54,314.79,101.91,315,102Z" transform="translate(-282.44 -52.71)"/><path class="cls-5" d="M331,86c.18-.38,1.24-.41,2,0,.38.2.53.43,1,1,.76.93,1.75,2.13,2,2s-.41-1,0-2a2.09,2.09,0,0,1,1-1c.66-.34,1.67-.44,2,0,.19.25.06.54,0,1-.18,1.5.61,3,1,3s.23-.83,1-2c.36-.54.59-.88,1-1a2.09,2.09,0,0,1,2,1,2.88,2.88,0,0,1,0,3,3.28,3.28,0,0,1-1,1,3.16,3.16,0,0,0,2-2c.1-.57-.13-.93,0-1,.29-.16,2,1.31,2,3,0,1.52-1.38,2.52-1,3,.23.29.95.19,1,0,.12-.43-3.1-1.66-4-2-1.27-.48-1.8-.6-3-1-3.29-1.09-3.3-1.62-5-2a14.51,14.51,0,0,0-5,0,19.32,19.32,0,0,0-5,1c-2.66,1-3.85,2.19-4,2s2-3.78,5-4c1.19-.09,2,.38,4,0,.71-.14,1.84-.37,2-1S330.77,86.5,331,86Z" transform="translate(-282.44 -52.71)"/><path class="cls-10" d="M393,93c-.77.48-1.51,1.65-3,4a5.49,5.49,0,0,0-1,2c-.2,1.13.28,1.6,1,4,.59,2,.67,3,1,3s.87-2,1-2-.59,1.59,0,3c.26.62.84,1.08,2,2,1.41,1.12,1.83,1.06,2,1,.59-.19.64-1,1-1s.27,1.12,1,2a2.86,2.86,0,0,0,2,1c1.59.06,2.67-1.51,3-2a6.6,6.6,0,0,0,1-3,14.51,14.51,0,0,0,0-3,9,9,0,0,1,1,5c-.09,1.64-.52,2.44,0,3,.79.84,2.77.09,3,0a5.47,5.47,0,0,0,3-3c.9-2.43-.5-4.77,0-5s1.52,2.45,4,3a10.81,10.81,0,0,0,2,0c3.21,0,3.85.5,5,0a4.08,4.08,0,0,0,2-2c.74-1.84-.58-3.87-2-6a25.76,25.76,0,0,0-7-7c-2.38-1.62-6.31-3.8-7-3-.26.31.15,1.21,1,3,1.12,2.38,2.11,3.92,2,4s-1.7-3.2-5-5-6.95-1.32-7-1,2.12.3,4,2c1.6,1.45,2.45,3.61,2,4s-2.26-1.89-6-3C397.39,92.52,394.93,91.79,393,93Z" transform="translate(-282.44 -52.71)"/><path class="cls-10" d="M412,82c.08-.51,3.51-.64,7,0,3.24.6,3.15,1.24,7,2s4,.13,6,1c1.46.63,2.8,1.56,4,1a2.2,2.2,0,0,0,1-1c.78-1.58-.72-3.62-1-4-.9-1.21-2.14-2-5-3-4.56-1.57-8-1.79-8-2s3-.18,6,0,4.6.45,7,0c1.59-.3,3-.8,3-1-.07-.38-5.8.73-6,0-.12-.45,1.83-1.62,4-2,1.82-.32,1.84.26,4,0,1.58-.19,2.25-.59,5-1,1.5-.22,1.91-.2,2,0,.18.39-.87,1.4-2,2-1.54.81-3,.72-3,1s1.28.15,2,1a2.37,2.37,0,0,1,0,3c-.9.71-2.66-.52-3,0s.77,1.21,1,3a2.52,2.52,0,0,1,0,1c-.21.88-1,1.35-2,2a23.84,23.84,0,0,0-3,2c-.69,1.5,1.6,2.92,1,5a2.79,2.79,0,0,1-2,2c-1.31.18-2.09-1.38-4-3-3.1-2.63-6.79-3.37-7-3s1.94,1.26,4,4c1.09,1.44,2.27,3,2,5-.14,1.06-.77,2.63-2,3-1.4.42-2.86-.93-4-2-1.58-1.49-2.37-2.89-4-6-3-5.76-3.06-6.14-4-7C415.24,82.49,411.92,82.51,412,82Z" transform="translate(-282.44 -52.71)"/><path class="cls-10" d="M437,69c-.05-.1,1.72-1.06,5-3,3.81-2.26,3.5-2.2,5-3,3.36-1.79,5.31-2.83,8-3,2.34-.15,3.82.46,4,0s-1.94-2.12-4-3a13.18,13.18,0,0,0-7-1c-2.08.28-2.93.92-7,3-4.92,2.51-8.7,4.44-9,4s2.48-3.18,6-5a22.48,22.48,0,0,1,6-2c2.57-.49,8.37-1.6,13,1a18.05,18.05,0,0,0,4,2c2.32.75,4,.65,4,1s-2.93.17-6,2c-2.45,1.46-3.43,3.35-5,3-.86-.19-1-.85-2-1-.84-.12-1.47.19-3,1-2.65,1.4-3.92,2.11-4,2s2.17-1.7,2-2C446.67,64.41,437.12,69.23,437,69Z" transform="translate(-282.44 -52.71)"/><path class="cls-10" d="M407,73c-.88-1.36.11-3.27,1-5,.63-1.21,2.14-4.07,5-5,.35-.11,1.55-.5,2,0s-.24,1.87,0,2,1.16-1.77,3-3c1.66-1.11,3.76-1.44,4-1s-2.18,2.38-3,3c-1.83,1.37-2,1.06-5,3-1.08.7-1.77,1.2-2,1-.42-.37,1.41-2.61,1-3s-3.07.77-4,3c-1.12,2.68.89,5.45,0,6C408.52,74.3,407.48,73.75,407,73Z" transform="translate(-282.44 -52.71)"/><path class="cls-10" d="M390,74c-.38,1.18-2.14.93-3,2-.36.45-.25,1.64,0,4a26.64,26.64,0,0,0,1,6c.15.42.71,2.06,1,2s.13-2.44,0-4c-.38-4.35-1-5.76,0-7,.58-.74,1.59-1.26,2-1s.15,2,0,2-.55-2.52,0-5c.42-1.93,1.19-2.88,1-3s-1.89,1.27-2,3C390,73.55,390.12,73.63,390,74Z" transform="translate(-282.44 -52.71)"/><path class="cls-4" d="M392,85c.22.33,1.79-.18,3-1a8.44,8.44,0,0,0,3-4c1.1-2.77,0-3.32,1-6,.51-1.42.76-1.15,3-5,.66-1.13,2.23-3.84,2-4s-.63.58-2,2c-2.06,2.14-2.18,2-3,3a8.72,8.72,0,0,0-2,4c-.3,1.8.3,2.88,0,3s-2.27-1.79-2-4c.23-1.84,2.08-2.91,2-3a6.65,6.65,0,0,0-3,3,12.92,12.92,0,0,0-1,3,28.47,28.47,0,0,0-1,4c.16.05.74-2.87,2-3,.78-.08,1.81.92,2,2C396.48,81.72,391.59,84.38,392,85Z" transform="translate(-282.44 -52.71)"/><path class="cls-4" d="M408,76a21.48,21.48,0,0,0,4-3,38.64,38.64,0,0,0,3-3c3.15-3.46,3.32-4.25,5-6,3.52-3.68,7.12-4.76,7-5s-4.18,1.13-8,4a16.65,16.65,0,0,0-4,4c-1.17,1.75-.93,2.25-2,4A17,17,0,0,1,408,76Z" transform="translate(-282.44 -52.71)"/><path class="cls-4" d="M427,67c-.65-1,1.46-3.6,3-5,.94-.86,1.7-1.28,5-3,5-2.58,6-3,6-3s-4.24,2.63-9,6c-1,.67-2.18,1.56-2,2s2.51.1,3,0c2.62-.52,4.06-1.46,7-3,3.32-1.74,5-2.61,7-3,2.54-.49,5-.3,5,0s-3,.47-7,2c-4.23,1.64-4.46,2.94-9,5C433.45,66.15,427.87,68.31,427,67Z" transform="translate(-282.44 -52.71)"/><path class="cls-4" d="M435,70a4.87,4.87,0,0,0,.92,0c.94,0,1.14,0,3.08,0,2.38,0,3.57,0,4,0a21.31,21.31,0,0,0,5-1c2.37-.69,5.07-1.75,5-2s-3.91.51-6,1c-3,.71-4.83,1.36-5,1s2.09-1.87,2-2a36.39,36.39,0,0,1-4,2A22.51,22.51,0,0,1,435,70Z" transform="translate(-282.44 -52.71)"/><path class="cls-4" d="M417,76c0-.87,2.56-2.09,5-2,1.6.06,1.85.63,4,1a14.31,14.31,0,0,0,5,0s-9,.26-9,1c0,.4,2.54.59,7,2,.31.1,5.1,1.62,5,2s-5.81-.85-11-2C418.06,76.91,417,76.54,417,76Z" transform="translate(-282.44 -52.71)"/><path class="cls-4" d="M410,82c0-.51,5.3-2.14,11-1a55.44,55.44,0,0,1,6,2,20.9,20.9,0,0,1,6,3c.25.19,2.2,1.67,2,2s-3.2-1.39-8-3a53.93,53.93,0,0,0-8-2C413.18,82,410,82.39,410,82Z" transform="translate(-282.44 -52.71)"/><path class="cls-4" d="M410,70a13.44,13.44,0,0,1,0-2c.06-.54.43-3.68,2-4a2,2,0,0,1,2,1c.5.91,0,2-1,4-2.24,4.72-2.68,6.1-3,6S410.07,73.61,410,70Z" transform="translate(-282.44 -52.71)"/><path class="cls-4" d="M423,62c.12-.81,0-2.17,1-3a1.85,1.85,0,0,1,.27-.2A18.57,18.57,0,0,1,427,58l3-1,3-1a19.43,19.43,0,0,1,3-1,16.59,16.59,0,0,1,3,0c.67,0,2.27,0,4,0,2.53-.06,2.91-.21,3,0,.31.72-3.72,4-6,3-1.06-.48-.84-1.48-2-2s-2.16.14-5,1c-2.62.8-2.71.53-4,1-.57.21-1.84.85-6,5-1.11,1.11-3,3-3,3S422.65,64.46,423,62Z" transform="translate(-282.44 -52.71)"/><path class="cls-4" d="M424,98c-.35.06.74,3.38-1,5-.68.63-1.54.77-3,1a11.56,11.56,0,0,1-4,0c-3.67-.69-5.73-3.28-6-3s.86,1.35,3,4c2.54,3.14,3.23,4.18,4,4,1.17-.27,1.4-3.07,2-3,.44,0,.23,1.52,1,2,1.09.68,3.87-.77,5-3C426.62,101.8,424.38,97.93,424,98Z" transform="translate(-282.44 -52.71)"/><path class="cls-4" d="M430,90s2.76,1.5,3,4a3.75,3.75,0,0,1-1,3c-1.57,1.34-3.84-.26-5,1a2.31,2.31,0,0,0,0,3c.67.54,1.81.08,2,0,1-.42.93-1.06,2-2,1.42-1.25,2.49-1,3-2a2.83,2.83,0,0,0,0-2A8.77,8.77,0,0,0,430,90Z" transform="translate(-282.44 -52.71)"/><path class="cls-4" d="M395,91c.06.37,1.38,0,3,1,.57.35,1.55,1.1,3,4,1.56,3.13,1.81,5,2,5s.73-4.8-2-8c-1.47-1.72-3.17-2.19-3-3s2.27-1.37,4-1c3,.65,4.55,4,5,5a13,13,0,0,1,1,4c.16,0,1.17-6.62-2-9C402.41,86.3,394.86,90.1,395,91Z" transform="translate(-282.44 -52.71)"/><path class="cls-11" d="M390,92a30.23,30.23,0,0,1,5-5,47.47,47.47,0,0,1,4-3c1.64-1.1,3.45-2.08,7-4,5.16-2.78,7.47-4,10-6,.8-.62,1.44-1.18,1.86-1.55A25.55,25.55,0,0,0,422,68a67.71,67.71,0,0,1-11,10c-3.42,2.41-7.67,4.81-8,5a76.54,76.54,0,0,0-7,4A56.88,56.88,0,0,0,390,92Z" transform="translate(-282.44 -52.71)"/><path class="cls-11" d="M419,72c0-.26,1.5-.79,3-1a12.06,12.06,0,0,1,3,0,14.29,14.29,0,0,0,6-1c3-1,2.83-2.31,7-5a29.11,29.11,0,0,1,6-3,16.52,16.52,0,0,0-7,4c-.67.65-1,1.05-2,2a18,18,0,0,1-4,3c-1.32.65-3.23.78-7,1C421.19,72.17,419,72.29,419,72Z" transform="translate(-282.44 -52.71)"/><path class="cls-10" d="M318,292c-.22.81-3.16-.24-7,1a15.34,15.34,0,0,0-7,5c-2.47,3-3.23,6-4,9-.11.42,0-.06-1,7-.36,2.46-.59,4,0,6,.07.22.94,3,2,3s1.4-2.22,2-4c2.3-6.78,7.64-11.24,8-11s-1.15,2.18-4,8c-1.87,3.83-2.81,5.77-3,7a30.77,30.77,0,0,0,0,9c.13.71.36,1.82,0,2s-1.55-.76-2-2c-.69-1.88.48-3.74,0-4s-1,1.08-2,1-2-1.59-2-3c0-1.6,1.23-2.81,1-3s-1.22,1.22-2,1c-1.27-.36-1-4.79-1-5a22.5,22.5,0,0,1,1-5c.76-2.6,1.41-3.66,1-4s-1.56.18-2,1a2.83,2.83,0,0,0,0,2,7.08,7.08,0,0,1-1-5c.12-.64.29-1,2-4,1.61-2.85,2.19-3.85,2-4s-.83.49-3,2c-1.4,1-1.75,1.14-2,1-.49-.27-.26-1.55,0-3,.05-.28.56-3,1-3s0,2.58,1,3c.35.15,1.15.14,4-3s2.53-3.62,4-5c.18-.17,4.16-3.79,9-3C315.74,289.45,318.21,291.23,318,292Z" transform="translate(-282.44 -52.71)"/><path class="cls-10" d="M309,323c-.47-.12-1.54,2-2,4a12.28,12.28,0,0,0,0,5c.43,2.53,1.46,5.09,2,5s.31-2.88,1-3c.5-.09.71,1.34,2,2a3.91,3.91,0,0,0,3,0c.31-.11,1.58-.62,3-3a23.17,23.17,0,0,0,2-5c.15,0-1.2,4.26,0,5,.37.23.74,0,3-1,3-1.3,3.48-1.29,4-2,.95-1.29.7-3,1-3s.15,1.48,1,2a2.5,2.5,0,0,0,3-1c1-1.62-.75-4.07-1-4s.33,1.88,0,2-.95-1-2-3c-1.52-2.86-2.25-4.5-3-6-1-1.9-3.15-6.27-4-6-.41.13-.35,1.25,0,7,.32,5.24.43,6.88,0,7s-1.43-1.55-2-3c-2.68-6.77,1.07-13.52,0-14-.67-.3-2.8,2.07-4,5a20.68,20.68,0,0,0-1,10c.35,3.54,1.2,5.51,0,8-.23.48-.92,1.92-2,2-1.54.12-2.82-2.62-3-3C308.35,326.47,309.58,323.14,309,323Z" transform="translate(-282.44 -52.71)"/><path class="cls-10" d="M332,298c-.45.4,1.6,2.43,3,7a15.13,15.13,0,0,1,1,6c-.18,2.34-.93,3-1,6-.05,2.37.38,3.35,1,4a3.17,3.17,0,0,0,2,1c1.72.1,3.31-1.59,4-3,.49-1,.59-2,1-2s.43.81,1,1,1.45-.77,3-2c1.86-1.47,2.06-1,3-2s1.29-2,2-4c.56-1.56.91-3,1-3s-1.07,3.12,0,4c.89.73,3-.31,4-1a9.48,9.48,0,0,0,2-2,12.2,12.2,0,0,0,2-3c.74-1.67.75-3,1-3s.22,2.83,1,3c.4.09.72-.61,2-2,1.5-1.64,1.65-1.32,2-2,.26-.51.33-1,0-5-.1-1.15-.17-2,0-2,.34-.09,1,2.94,2,3s1.94-2.81,2-3c1.23-4-.14-7.74-1-10a21.39,21.39,0,0,0-6-9c-3.57-3.09-7.74-4.42-8-4s2.66,1.56,5,5c1.66,2.44,2.11,4.63,3,9a13.58,13.58,0,0,1,0,6c-.16.65-.47,2-1,2s-1.06-1.88-2-4c-.74-1.66-1.82-3.11-4-6-3-3.94-4.44-5.91-6-7a18.37,18.37,0,0,0-8-3c-2.16-.34-4.92-.44-5,0s4.65.73,9,4c3.9,2.92,5.68,7,7,10a27.13,27.13,0,0,1,2,7,15.24,15.24,0,0,1,0,5c-.27,1.5-.79,3-1,3s.09-1.47,0-3a12.5,12.5,0,0,0-3-7c-1.62-2-3.41-3-7-5a54.3,54.3,0,0,0-7-3,11.32,11.32,0,0,0-5-1c-1,.06-2.9.34-3,1s1.46,1.32,3,2c8.83,3.89,9.61,4.12,11,5,3.93,2.47,6.14,5.86,6,6s-1.52-1.45-4-3c-4.21-2.64-8.73-3.59-9-3-.2.43,2.1,1.2,4,4a15,15,0,0,1,2,5c.85,3.15,1.44,5.33,1,8-.66,4-3.3,7.27-4,7-.41-.16.06-1.47,0-4a17.34,17.34,0,0,0-2-8C336,299.58,332.52,297.54,332,298Z" transform="translate(-282.44 -52.71)"/><path class="cls-10" d="M300,287c.25.23,2.15-2.52,6-4a17.76,17.76,0,0,1,5-1c4.4-.43,6.93.32,7,0s-3.65-2.42-8-2a12.87,12.87,0,0,0-7,3C301,284.7,299.79,286.81,300,287Z" transform="translate(-282.44 -52.71)"/><path class="cls-9" d="M325,296c-.19.33,2,1.39,4,4a16.47,16.47,0,0,1,3,7c.54,2.83-.1,3.26,0,8,.09,4,.64,8,1,8s.25-2.79,1-8c.68-4.72,1-4.29,1-6,0-.37-.08-7.21-5-11C327.8,296.3,325.2,295.66,325,296Z" transform="translate(-282.44 -52.71)"/><path class="cls-9" d="M294,293a6.65,6.65,0,0,0,3-2,29.19,29.19,0,0,1,4-3c-.09-.14-2.29,1.58-3,1s.14-2.63,1-4a10.65,10.65,0,0,1,3-3c1.88-1.33,3-1.46,3-2s-1.63-1.26-3-1-1.85,1.13-2,1,1.06-3.42,4-5c1.27-.68,2.87-.8,6-1s4.74-.31,6,0c4.27,1,6.19,4.56,7,4,.57-.39.13-2.49-1-4-2.34-3.13-7.13-3-8-3-3.93.09-6.31,1.9-7,1-.51-.67.38-2.21,1-3,1.75-2.24,4.54-2.66,7-3,3.13-.43,6.39-.88,9,1,2.3,1.65,2.91,4.25,4,4,.63-.15,1.07-1.16,1-2-.13-1.61-2.11-2.58-5-4-2.55-1.25-3.93-1.93-6-2a13.2,13.2,0,0,0-5,1c-2.26.75-1.67.95-6,3-2.06,1-3.89,1.73-4,3,0,.38.11.55,0,1-.22.9-1,1.1-2,2a5.37,5.37,0,0,0-2,3c-.13.87.22,1,0,2a5.11,5.11,0,0,1-1,2,9.32,9.32,0,0,1-1,1c-1,1.05-.58,2.2-1,4-.33,1.43-.67,1-2,4-.77,1.72-1.56,3.52-1,4C293.09,293.08,293.3,293.19,294,293Z" transform="translate(-282.44 -52.71)"/><path class="cls-9" d="M331,282a16,16,0,0,1,4,0c2.17.28,3.66.93,8,3a65.3,65.3,0,0,1,6,3c3.88,3.5,3.69,9.05,4,9s.93-5.05-2-9c-1.56-2.1-3.71-3.07-8-5-4.73-2.13-7-2.07-8-2A12.35,12.35,0,0,0,331,282Z" transform="translate(-282.44 -52.71)"/><path class="cls-9" d="M350,304a24.7,24.7,0,0,1,0,4,28,28,0,0,1-1,4c-.65,2.46-1.29,4.89-1,5s2.65-3,3-7C351.29,306.73,350.17,304,350,304Z" transform="translate(-282.44 -52.71)"/><path class="cls-9" d="M339,265c-.23-.81,2.27-2.25,4-3a17.44,17.44,0,0,1,10-1c3.95.72,7.13,2.57,7,3s-1.89-.27-5,0c-1.58.14-4,.53-4,1s3.06.33,7,2a20.68,20.68,0,0,1,6,4c1.37,1.31,3.36,3.57,3,4s-2.69-1.42-8-4c-3.14-1.52-5.63-2.48-7-3a39.63,39.63,0,0,0-6-2C341.73,265.11,339.22,265.78,339,265Z" transform="translate(-282.44 -52.71)"/><path class="cls-9" d="M320,315c-.61,0-1.78,3.52-1,7,.63,2.78,2.44,5.21,3,5s-.05-2.77-1-8C320.33,315.3,320.17,315,320,315Z" transform="translate(-282.44 -52.71)"/><path class="cls-9" d="M311,306c-.19-.28-2.31.48-4,2a11.26,11.26,0,0,0-3,5c-1.27,3.56-1.28,7-1,7s.25-5.35,4-10C309,307.56,311.2,306.31,311,306Z" transform="translate(-282.44 -52.71)"/><path class="cls-9" d="M304,301c-.17-.14,1.3-2.86,4-5a14.48,14.48,0,0,1,7-3,8.07,8.07,0,0,1,3,0c0,.17-2.55.22-5,1C307.15,295.87,304.24,301.2,304,301Z" transform="translate(-282.44 -52.71)"/><path class="cls-11" d="M331,271c-.33-.19-3.93,4.09-6,10a32,32,0,0,0-2,8c-.27,2.71,0,4-1,6-.87,1.72-1.61,1.78-3,4-1.52,2.44-2.21,4.9-2,5s1.38-2.26,4-6c1.78-2.54,2.34-2.54,3-4,.93-2.06.63-3.27,1-6a37.33,37.33,0,0,1,2-7C329.27,274.38,331.27,271.16,331,271Z" transform="translate(-282.44 -52.71)"/><path class="cls-11" d="M306,323c-.28-.08-.25-2.63,1-5,1.38-2.63,3.8-4.19,4-4s-.76,1-2,3C306.81,320.53,306.29,323.08,306,323Z" transform="translate(-282.44 -52.71)"/><path class="cls-11" d="M306,305c-.28-.25,1.19-3.15,4-5,2.3-1.51,4.64-1.75,7-2a13.09,13.09,0,0,1,4,0,35.9,35.9,0,0,0-6,1C309.24,300.81,306.36,305.33,306,305Z" transform="translate(-282.44 -52.71)"/><path class="cls-11" d="M324,287c.11-.22,2.63.68,5,2,5,2.77,8.22,6.76,8,7s-2-1.64-7-5C326.19,288.44,323.89,287.21,324,287Z" transform="translate(-282.44 -52.71)"/><path class="cls-10" d="M389,290a5.7,5.7,0,0,1,1-4c1.49-1.75,4-1.35,4-2s-1.57-1.27-3-1c-1.24.23-1.84,1.14-2,1s.79-2.64,3-4a8.47,8.47,0,0,1,5-1,15.61,15.61,0,0,1,7,2c3.23,1.66,6.37,4.31,6,5-.14.27-.74.06-2,0a15.15,15.15,0,0,0-6,1,10.75,10.75,0,0,0-5,3,9.06,9.06,0,0,0-2,4c-.22.94-.5,2.8,0,3s1.15-1.49,3-3c2.45-2,5.64-2.59,6-2,.13.21-.17.47-1,2,0,0-.55,1-1,2-1.37,3-.12,6.65,0,7,.43,1.2,1.36,3.13,2,3s.41-1.35,1-4,.91-4,2-5c1.5-1.33,3.82-1.41,4-1s-.92.7-2,2a9.17,9.17,0,0,0-2,5,10,10,0,0,0,1,5c.57,1.37,1.58,3.14,2,3s0-1.46,0-4c0-2.18.09-3.67,1-5s2.75-2.26,3-2-.48.84-1,2c-1.17,2.59-.79,5.79,0,6,.26.07.48-.22,2-2,2.27-2.66,2.74-3.12,3-3s.14.67,0,3c-.17,2.73-.09,3,0,3,.26.06.87-1.65,1-2,.71-2,.66-2.95,1-3s.85,1.48,2,4,1.81,3.93,3,5c1.55,1.39,3.1,1.63,3,2s-1.7.38-3,0a6.54,6.54,0,0,1-2-1,16.49,16.49,0,0,1-2-2c-.14.09,1.57,2.18,1,3s-2.5.14-3,0a4.74,4.74,0,0,1-2-1c-.58-.52-.85-1.07-1-1s.42,1.73,0,2-.88-.6-2-1-1.59.1-3,0c-.19,0-2.77-.24-4-2-.93-1.33-.69-3-1-3s-.21,1.66-1,2c-1,.41-2.88-1.32-4-3s-1.38-3.05-2-3c-.44,0-.43.81-1,1-1,.32-2.94-1.3-3-3-.05-1.49,1.37-2.51,1-3s-1,.2-2,0c-1.58-.33-2.68-2.39-3-4-.41-2,.31-3.91,0-4s-.55,1-1,1S389,291.31,389,290Z" transform="translate(-282.44 -52.71)"/><path class="cls-10" d="M425,307a6.38,6.38,0,0,0,2,3c1.57,1.57,1.82,1.4,2,2,.35,1.16-.55,1.93,0,3a3.47,3.47,0,0,0,1,1c.51.42,1.58,1.28,2,1,.26-.17.07-.65,0-2-.08-1.51.13-1.38,0-2a6.33,6.33,0,0,0-2-3,12.1,12.1,0,0,1-1-1c.05-.07,1.47,1.33,2,1,.35-.22.18-1.1,0-2a12.43,12.43,0,0,0-1-3,14.61,14.61,0,0,0-2-3c-.71-.87-1.85-2.11-2-2s.86,1.49,2,4c.74,1.61,1.58,3.5,1,4-.23.2-.6.1-1,0-1.8-.46-2.65-2.19-3-2S425,306.84,425,307Z" transform="translate(-282.44 -52.71)"/><path class="cls-10" d="M416,289c.16-.47,2.85-.3,5,1,1,.62,2.18,1.66,2,2s-2.49-.31-4-1C418.19,290.63,415.84,289.47,416,289Z" transform="translate(-282.44 -52.71)"/><path class="cls-9" d="M412,295c-.07-.34-1.63-.51-3,0a5.85,5.85,0,0,0-3,3c-1.05,1.94-1.18,4-1,4s.34-2.13,2-4C409.1,295.64,412.1,295.48,412,295Z" transform="translate(-282.44 -52.71)"/><path class="cls-9" d="M409,287c-.18.25-2.06-1.8-5-2-1.13-.08-2.42.28-5,1-2.83.79-3.82,1.29-4,1s1.11-2.08,3-3c2.57-1.26,4.91-.53,5-1s-2.3-1.62-5-2a14.51,14.51,0,0,0-4,0,11.75,11.75,0,0,1,7,0,16.14,16.14,0,0,1,5,3C407.71,285.32,409.16,286.79,409,287Z" transform="translate(-282.44 -52.71)"/><path class="cls-9" d="M413,286c-.48-.58-.14-1.59,0-2,.44-1.31,1.69-2.2,2-2s-.5,1.45,0,2,1.16.06,2,0c2.69-.2,5.19,2.68,5,3s-1.07-.66-3-1C415.8,285.44,413.8,287,413,286Z" transform="translate(-282.44 -52.71)"/><path class="cls-9" d="M420,291c0,.29,1.82.34,4,2a10.72,10.72,0,0,1,2,2,14.53,14.53,0,0,1,2,4,28.25,28.25,0,0,0-1-4c-.68-2.48-.75-2.69-1-3C424.3,289.92,420.06,290.56,420,291Z" transform="translate(-282.44 -52.71)"/><path class="cls-9" d="M422,296c-.09.25,1.45.6,3,2,2.47,2.23,2.73,5.07,3,5s.47-4.06-2-6C424.37,295.72,422.1,295.7,422,296Z" transform="translate(-282.44 -52.71)"/><path class="cls-9" d="M419,303c-.14,0,.12.76,0,2-.29,3-2.35,4.63-2,5s2.24-.42,3-2C421.06,305.78,419.29,302.93,419,303Z" transform="translate(-282.44 -52.71)"/><path class="cls-9" d="M398,303c-.34-.05-.39-2.14,0-4a7,7,0,0,1,2-4c.68-.61,1.74-1.24,2-1s-.82,1.58-2,4C398.52,301,398.33,303.05,398,303Z" transform="translate(-282.44 -52.71)"/><path class="cls-11" d="M412,288a24.7,24.7,0,0,1,2,3c.2.35.41.78.83,1.62.74,1.48.93,1.91,1.17,2.38.8,1.56,1.25,1.62,3,4a33.45,33.45,0,0,1,2,3c1.51,2.58,1.82,4.05,2,4s.42-4.16-2-7c-.92-1.08-1.59-1.26-3-3a30.9,30.9,0,0,1-2-3A29.07,29.07,0,0,0,412,288Z" transform="translate(-282.44 -52.71)"/><path class="cls-11" d="M413,291c0-.1-.75,0-1,0a10,10,0,0,0-4,1c-2.27,1.28-3.16,3.89-3,4a15.12,15.12,0,0,1,3-3C410.4,291.39,413,291.19,413,291Z" transform="translate(-282.44 -52.71)"/><path class="cls-11" d="M418,294a3.45,3.45,0,0,1,3-1,4.06,4.06,0,0,1,3,2,10.78,10.78,0,0,0-2-1C419.85,293.35,418.06,294.2,418,294Z" transform="translate(-282.44 -52.71)"/><path class="cls-11" d="M323,315c-.12,0,.24.87,1,4,1.29,5.33,1.19,6.9,1,8a10.22,10.22,0,0,1-1,3,14.09,14.09,0,0,0,2-7C326,318.57,323.27,314.89,323,315Z" transform="translate(-282.44 -52.71)"/><path class="cls-11" d="M318,313c-.19-.07-1.48,1.6-2,4-.73,3.34.77,4.66,1,10,.11,2.56-.16,4,0,4s1.37-3.25,1-7c-.24-2.51-.91-2.68-1-5C316.86,315.54,318.22,313.09,318,313Z" transform="translate(-282.44 -52.71)"/><path class="cls-11" d="M343,295a5.13,5.13,0,0,1,3,2,6.47,6.47,0,0,1,1,4c0,5.25-1.27,8.91-1,9s1.41-2.16,2-5c.45-2.15.86-4.12,0-6C346.64,296,343,295.08,343,295Z" transform="translate(-282.44 -52.71)"/><path class="cls-11" d="M335,285a24.15,24.15,0,0,1,9,4,17.19,17.19,0,0,1,4,4c2.51,3.58,2.73,7.05,3,7s.42-3-1-6a14.28,14.28,0,0,0-6-6A19.31,19.31,0,0,0,335,285Z" transform="translate(-282.44 -52.71)"/><path class="cls-11" d="M356,306a10,10,0,0,0,3-4c.35-.93.79-2.6,0-7-.93-5.19-2.42-7.77-2-8s3.16,3,5,7c1.58,3.42,2.33,6.87,2,7-.15.06-.77-1-2-3-1.36-2.26-1.76-3.07-2-3-.44.14.89,3,0,6A9,9,0,0,1,356,306Z" transform="translate(-282.44 -52.71)"/><path class="cls-11" d="M366,279c-.17.11,2.16,2.66,3,7,.77,4-.21,7,0,7s1.65-3.25,1-7C369.26,281.73,366.19,278.88,366,279Z" transform="translate(-282.44 -52.71)"/><path class="cls-11" d="M393,297c.23,0,.14-1.56,1-4a11.49,11.49,0,0,1,3-5,9,9,0,0,1,4-2,11,11,0,0,0-6,3,8.34,8.34,0,0,0-2,3C392.11,294.46,392.7,297,393,297Z" transform="translate(-282.44 -52.71)"/><path class="cls-11" d="M390,291a5,5,0,0,1,1-3c1.2-1.49,3.06-1.62,3-2s-1.82-.76-3,0S389.29,288.82,390,291Z" transform="translate(-282.44 -52.71)"/><path class="cls-11" d="M412,302c-.22,0-.76,1.57-1,3a10.39,10.39,0,0,0,0,4c.47,2.26,1.75,4.1,2,4s-.67-1.91-1-5C411.62,304.5,412.27,302,412,302Z" transform="translate(-282.44 -52.71)"/><path class="cls-11" d="M441,230a11.56,11.56,0,0,0-2,3,13.27,13.27,0,0,0-1,8,12.2,12.2,0,0,0,1,3,11.1,11.1,0,0,1-2-7C437.42,232.91,441,230,441,230Z" transform="translate(-282.44 -52.71)"/><path class="cls-11" d="M431,219a10.52,10.52,0,0,0-5,5,13.85,13.85,0,0,0-1,5c-.45,5,.2,8,0,8s-3.05-5.76-1-11C425.9,221.15,431,219,431,219Z" transform="translate(-282.44 -52.71)"/><path class="cls-11" d="M417,222a8.89,8.89,0,0,1,0-5c1.08-3.29,4.16-4.79,4-5s-2.74.71-4,3C415.31,218.07,416.91,222,417,222Z" transform="translate(-282.44 -52.71)"/><path class="cls-11" d="M452,244c-.44,0-.77,3.15,0,6,.51,1.88,1.62,4.12,2,4C454.76,253.76,452.8,243.93,452,244Z" transform="translate(-282.44 -52.71)"/><path class="cls-11" d="M388,205a15.29,15.29,0,0,1,3,6,9.81,9.81,0,0,1,0,5c-.72,2.46-2.32,3.63-2,4s2.44-.7,4-2a7.6,7.6,0,0,0,3-4c.63-2.6-.78-5-1-5a17.59,17.59,0,0,1,0,4c-.37,2.05-1.43,4.11-2,4s.05-2.69-1-6A12.15,12.15,0,0,0,388,205Z" transform="translate(-282.44 -52.71)"/><path class="cls-11" d="M397,205c-.27.32,1.9,1.68,2,4a5.38,5.38,0,0,1-1,3c.11.06,2.82-2.78,2-5C399.42,205.41,397.25,204.71,397,205Z" transform="translate(-282.44 -52.71)"/><path class="cls-11" d="M373,218c-.17,0,.14,1.06,0,3-.22,3.06-1.28,4.86-1,5s1.55-1.22,2-3C374.65,220.42,373.27,217.94,373,218Z" transform="translate(-282.44 -52.71)"/><path class="cls-11" d="M345,223c.28.26-2.22,2.27-3,6-.6,2.89.21,5,0,5s-2.29-3.55-1-7C342,224.24,344.73,222.75,345,223Z" transform="translate(-282.44 -52.71)"/><path class="cls-11" d="M360,227c-.17,0-.29.85-1,3s-1.14,2.92-1,3,1.49-1.2,2-3C360.42,228.52,360.22,227,360,227Z" transform="translate(-282.44 -52.71)"/><path class="cls-11" d="M321,177c-.6,0-1.09,3.6-1,7a26.59,26.59,0,0,0,2,10c.09,0-.55-2.54-1-7-.36-3.56-.16-4,0-4,.45-.11.84,2.73,3,5,2.73,2.87,6.86,3.33,7,3s-3.3-1-6-4C321.2,182.72,321.76,177,321,177Z" transform="translate(-282.44 -52.71)"/><path class="cls-11" d="M338,164c-.23,0-.78,4.59,0,10,.82,5.66,2.78,10.06,3,10s-1.07-3.73-2-10S338.21,164,338,164Z" transform="translate(-282.44 -52.71)"/><path class="cls-11" d="M307,191c-.2,0-1.09,1.82-1,4,.15,3.56,2.84,6.1,3,6a15.56,15.56,0,0,1-2-5C306.51,193.16,307.21,191,307,191Z" transform="translate(-282.44 -52.71)"/><path class="cls-11" d="M351,163c-.35.15.27,4.23,3,8,2.86,3.95,6.36,5.24,6,6s-3.05.39-5-1c-1.32-.95-1.82-2.1-2-2s.24,2.67,2,4c2.76,2.08,7.76.54,8-1,.16-1.07-2.07-1.53-5-4C352.71,168.54,351.42,162.82,351,163Z" transform="translate(-282.44 -52.71)"/><path class="cls-11" d="M369,153c-.26.26,1.83,3.43,5,6,5.81,4.7,12.86,5.42,13,5s-4.12-1.22-10-5C372,155.79,369.28,152.73,369,153Z" transform="translate(-282.44 -52.71)"/><path class="cls-11" d="M361,164c-.24.33,2.26,3.32,6,5,4.38,2,8.94,1.45,9,1s-3.56-.6-9-3C363.14,165.3,361.2,163.73,361,164Z" transform="translate(-282.44 -52.71)"/><path class="cls-11" d="M311,110a6.28,6.28,0,0,1,1-4,5.1,5.1,0,0,1,2-2,20.67,20.67,0,0,0-2,3A16,16,0,0,0,311,110Z" transform="translate(-282.44 -52.71)"/><path class="cls-11" d="M320,100a6.79,6.79,0,0,0,0,3c.43,2.83,1.81,5.08,2,5s-.25-.93-1-4C320.33,101.24,320.15,100,320,100Z" transform="translate(-282.44 -52.71)"/><path class="cls-11" d="M327,98a9.1,9.1,0,0,0-1,4c-.25,3.19.6,6,1,6s0-1.43,1-3a6.57,6.57,0,0,1,2-2s-2.06,2.41-3,2C325.62,104.39,327.27,98.05,327,98Z" transform="translate(-282.44 -52.71)"/><path class="cls-11" d="M336,105s.68-.25,2-1a14.53,14.53,0,0,0,4-3,10.16,10.16,0,0,0,2-4,8.16,8.16,0,0,1-2,5A9.65,9.65,0,0,1,336,105Z" transform="translate(-282.44 -52.71)"/><path class="cls-11" d="M394,95c-.2,0,.3,1.95,0,5s-1.19,4.93-1,5,1.75-2.14,2-5C395.23,97.29,394.23,95,394,95Z" transform="translate(-282.44 -52.71)"/><path class="cls-11" d="M395,93a24,24,0,0,1,4,5,16.52,16.52,0,0,1,2,5c.84,4-.41,6.88,0,7s2.41-3.53,3-8a15.06,15.06,0,0,0,0-5c-.16,0,0,6.89-1,7-.61.07-.84-2.7-3-6A15.17,15.17,0,0,0,395,93Z" transform="translate(-282.44 -52.71)"/><path class="cls-11" d="M411,92c-.09.26,2.48.73,5,3,3.09,2.78,3.73,6.1,4,6s0-4.41-3-7C414.5,91.84,411.1,91.7,411,92Z" transform="translate(-282.44 -52.71)"/><path class="cls-11" d="M422,86a22.89,22.89,0,0,1,6,1,23.33,23.33,0,0,1,8,5c.12-.14-2-3.29-6-5A13.75,13.75,0,0,0,422,86Z" transform="translate(-282.44 -52.71)"/><path class="cls-11" d="M429,76a14.5,14.5,0,0,1,7,1c4,1.76,5.8,5.16,6,5s-1.07-3.2-4-5A11.5,11.5,0,0,0,429,76Z" transform="translate(-282.44 -52.71)"/><path class="cls-10" d="M380,321c-.29-.08-3.16,6.5-4,15a37.17,37.17,0,0,0,1,14c.67,2.39,1.72,5.08,2,5s-1.53-6.09-2-13C376.18,329.9,380.34,321.1,380,321Z" transform="translate(-282.44 -52.71)"/><path class="cls-10" d="M351,354c-.1,0,.41-1.79,1-5,0,0,.6-3.29,1-7,.84-7.87-.22-14,0-14s2.38,7.21,1,16C353.14,349.45,351.16,354,351,354Z" transform="translate(-282.44 -52.71)"/><path class="cls-10" d="M358,354c-.27-.05.18-4.11,1-8a71.09,71.09,0,0,1,3-10c3.37-9.57,4.87-15,5-15s-2,6.73-5,18C359.45,348.67,358.32,354.06,358,354Z" transform="translate(-282.44 -52.71)"/><path class="cls-10" d="M385,277c-.38-.08-2.79,9.74-4,15-.88,3.83-1.48,6.75-2,10-.1.6-1.73,10.84-1,11,.51.11,1.9-4.66,2-5a52.85,52.85,0,0,0,2-12C382.69,284.76,385.34,277.07,385,277Z" transform="translate(-282.44 -52.71)"/><path class="cls-10" d="M375,299c-.3,0-1.88,10.22-3,20-.18,1.55-.68,6.06-1,12-.1,1.92-.58,10.94,0,11,.42,0,1.24-4.67,2-9a68.9,68.9,0,0,0,1-7,52.59,52.59,0,0,0,0-8C373.38,308,375.28,299,375,299Z" transform="translate(-282.44 -52.71)"/><path class="cls-13" d="M311.69,358.5H419.31a1.71,1.71,0,0,1,1.66,2.13l-.14.58a1.71,1.71,0,0,1-1.66,1.3H311.84a1.71,1.71,0,0,1-1.66-1.3l-.14-.58A1.71,1.71,0,0,1,311.69,358.5Z" transform="translate(-282.44 -52.71)"/><path class="cls-13" d="M326.23,439h78.52c.81,0,1.41,1,1.21,2.13l-.11.58c-.14.76-.64,1.3-1.21,1.3H326.33c-.57,0-1.07-.53-1.21-1.3l-.11-.58C324.82,440,325.42,439,326.23,439Z" transform="translate(-282.44 -52.71)"/><path class="cls-14" d="M314.74,368H415.93a1.75,1.75,0,0,1,1.71,2.13h0a1.75,1.75,0,0,1-1.71,1.37H314.74a1.75,1.75,0,0,1-1.59-1h0A1.75,1.75,0,0,1,314.74,368Z" transform="translate(-282.44 -52.71)"/><path class="cls-14" d="M328.77,447h73.47c.81,0,1.42,1,1.24,2.13h0c-.13.8-.64,1.37-1.24,1.37H328.77a1.32,1.32,0,0,1-1.15-1h0C327.23,448.33,327.84,447,328.77,447Z" transform="translate(-282.44 -52.71)"/><path class="cls-13" d="M322.22,381h53.83a1.8,1.8,0,0,1,1.8,1.94l-3.72,48.4a1.8,1.8,0,0,1-1.8,1.66H332.46a1.8,1.8,0,0,1-1.76-1.43l-10.24-48.4A1.8,1.8,0,0,1,322.22,381Z" transform="translate(-282.44 -52.71)"/><path class="cls-14" d="M383.66,378H319.88a1.22,1.22,0,0,1-1.16-.84l-.19-.56a1.22,1.22,0,0,1,1.16-1.61H409.5a1.22,1.22,0,0,1,1.2,1.47L399.2,432a1.22,1.22,0,0,1-1.2,1H381.34a1.22,1.22,0,0,1-1.22-1.33l4.76-52.34A1.22,1.22,0,0,0,383.66,378Z" transform="translate(-282.44 -52.71)"/></svg>