<svg id="Слой_1" data-name="Слой 1" xmlns="http://www.w3.org/2000/svg" viewBox="0 0 151.08 413.5"><defs><style>.cls-1{fill:#7aa037;}.cls-2{fill:#274910;}.cls-3{fill:none;stroke-linecap:round;stroke-linejoin:round;}.cls-3,.cls-7{stroke:#000;stroke-width:2px;}.cls-4{fill:#fff;opacity:0.3;}.cls-5{fill:#4e8727;}.cls-6{fill:#a6cf23;}.cls-7{fill:#b38d5c;stroke-miterlimit:10;}.cls-8{fill:#c2a57d;}.cls-9{fill:#967548;}</style></defs><title>plant1</title><path class="cls-1" d="M279.51,183.71c0,5.8-.26,11.69-.83,17.85A60.52,60.52,0,0,1,263,206c-4.53.54-3.87-.23-13,0-6.65.17-11.58.31-15,.9-1.59-6.47-2.89-13.38-3.92-20.33A22.25,22.25,0,0,1,237,184c3.83-1,5.29,0,13,1,11.61,1.52,19.27.8,24,0A39.62,39.62,0,0,0,279.51,183.71Z" transform="translate(-166.21 -31.5)"/><path class="cls-1" d="M274.78,127.69c.72,5.61,1.3,10.91,1.94,17.14A72,72,0,0,1,268,147a42.06,42.06,0,0,1-10,1c-5.8-.22-8.76-1.77-18-5-4.9-1.71-8.5-2.82-11.15-3.51.66-8,1.78-15.12,2.61-19.69.81,0,1.65.09,2.54.2,5.69.69,5.66,2.41,14,5a63.55,63.55,0,0,0,18,3A68.7,68.7,0,0,0,274.78,127.69Z" transform="translate(-166.21 -31.5)"/><path class="cls-1" d="M269.33,94.13c1.28,6.66,2.63,14.21,3.89,22.52A37.45,37.45,0,0,1,260,118c-7.63-.69-7.1-3.39-20-6-2.18-.44-4.39-.88-6.52-1.19,1-3.52,2.61-9.54,5-18.31a2.17,2.17,0,0,1,.07-.24A21.86,21.86,0,0,1,245,92c3.83.41,5.22,1.58,11,2a68,68,0,0,0,7,0C265.4,94,267.5,94,269.33,94.13Z" transform="translate(-166.21 -31.5)"/><path class="cls-2" d="M278.68,201.56c-.05.64-.11,1.29-.18,1.94-.35,3.45-.66,6.49-1,9.21A30.7,30.7,0,0,1,269,216c-8.24,2.12-9.18-.48-18,1a52.58,52.58,0,0,0-11.93,3.73A133.09,133.09,0,0,1,235,206.9c3.45-.59,8.38-.73,15-.9,9.13-.23,8.47.54,13,0A60.52,60.52,0,0,0,278.68,201.56Z" transform="translate(-166.21 -31.5)"/><path class="cls-1" d="M265.5,75.5c.59,2.74,1.26,5.87,2,9.35-1.28.06-2.76.11-4.48.15s-6.41.15-11,0c-5.7-.19-8.89-.7-11.19-.83C243,76.4,244,73,245.5,68.5c1-2.9,1.64-4.74,2.18-6.14A20.58,20.58,0,0,1,251,62c2.67-.06,2.3.49,8,1,1.45.13,2.68.2,3.73.23C263.44,66.21,264.32,70,265.5,75.5Z" transform="translate(-166.21 -31.5)"/><path class="cls-2" d="M273.5,118.5c.48,3.26.9,6.27,1.28,9.19A68.7,68.7,0,0,1,266,128a63.55,63.55,0,0,1-18-3c-8.34-2.59-8.31-4.31-14-5-.89-.11-1.73-.17-2.54-.2.6-3.32,1-5.3,1-5.3.09-.39.41-1.6,1-3.69,2.13.31,4.34.75,6.52,1.19,12.9,2.61,12.37,5.31,20,6a37.45,37.45,0,0,0,13.22-1.35C273.32,117.26,273.41,117.88,273.5,118.5Z" transform="translate(-166.21 -31.5)"/><path class="cls-2" d="M279.5,181.5c0,.74,0,1.47,0,2.21A39.62,39.62,0,0,1,274,185c-4.73.8-12.39,1.52-24,0-7.71-1-9.17-2-13-1a22.25,22.25,0,0,0-5.95,2.57c-.56-3.85-1-7.71-1.43-11.5A42.47,42.47,0,0,1,236,174c5.86-.69,7.56.33,17,1,8.86.63,13.29.94,18,0a52.65,52.65,0,0,0,8.2-2.47C279.42,176.38,279.48,179.08,279.5,181.5Z" transform="translate(-166.21 -31.5)"/><path class="cls-1" d="M269,216a30.7,30.7,0,0,0,8.5-3.29c-1.09,8.8-2.42,14.2-6,18.79-1.28,1.63-8.43,10.8-16,10-6.67-.71-12.17-9-16.43-20.77A52.58,52.58,0,0,1,251,217C259.82,215.52,260.76,218.12,269,216Z" transform="translate(-166.21 -31.5)"/><path class="cls-2" d="M261,55.68c.49,2.24,1,4.45,1.76,7.55-1.05,0-2.28-.1-3.73-.23-5.7-.51-5.33-1.06-8-1a20.58,20.58,0,0,0-3.32.36c.83-2.17,1.34-3.32,2.15-5.77,1.69-.21,3.72-.4,6.17-.59C257.91,55.85,259.56,55.75,261,55.68Z" transform="translate(-166.21 -31.5)"/><path class="cls-1" d="M259.5,47.5c.53,3.47,1,5.85,1.47,8.18-1.41.07-3.06.17-5,.32-2.45.19-4.48.38-6.17.59.2-.61.42-1.29.67-2.09,4.28-13.82,4.62-22,6-22C257.72,32.53,258.21,39,259.5,47.5Z" transform="translate(-166.21 -31.5)"/><path class="cls-2" d="M267.48,84.85c.59,2.86,1.21,6,1.85,9.28C267.5,94,265.4,94,263,94a68,68,0,0,1-7,0c-5.78-.42-7.17-1.59-11-2a21.86,21.86,0,0,0-6.43.26c.86-3.16,1.6-5.81,2.24-8.09,2.3.13,5.49.64,11.19.83,4.59.15,9.18,0,11,0S266.2,84.91,267.48,84.85Z" transform="translate(-166.21 -31.5)"/><path class="cls-2" d="M277.5,152.5q.06.6.12,1.17c-1.65.42-3.51.85-5.62,1.33a65.36,65.36,0,0,1-14,2,40.5,40.5,0,0,1-12-1c-5.72-1.48-5.5-3-10-4a18.65,18.65,0,0,0-7.68,0c0-2.66.05-5.16.18-7.46.09-1.7.21-3.37.35-5,2.65.69,6.25,1.8,11.15,3.51,9.24,3.23,12.2,4.78,18,5a42.06,42.06,0,0,0,10-1,72,72,0,0,0,8.72-2.17C277,147.22,277.23,149.76,277.5,152.5Z" transform="translate(-166.21 -31.5)"/><path class="cls-1" d="M277.62,153.67c.86,8.63,1.32,14.49,1.58,18.86A52.65,52.65,0,0,1,271,175c-4.71.94-9.14.63-18,0-9.44-.67-11.14-1.69-17-1a42.47,42.47,0,0,0-6.38,1.07,231.08,231.08,0,0,1-1.3-23.11,18.65,18.65,0,0,1,7.68,0c4.5,1,4.28,2.52,10,4a40.5,40.5,0,0,0,12,1,65.36,65.36,0,0,0,14-2C274.11,154.52,276,154.09,277.62,153.67Z" transform="translate(-166.21 -31.5)"/><path class="cls-3" d="M249.83,56.59c.2-.61.42-1.29.67-2.09,4.28-13.82,4.62-22,6-22,1.22,0,1.71,6.47,3,15,.53,3.47,1,5.85,1.47,8.18s1,4.45,1.76,7.55S264.32,70,265.5,75.5c.59,2.74,1.26,5.87,2,9.35.59,2.86,1.21,6,1.85,9.28,1.28,6.66,2.63,14.21,3.89,22.52.1.61.19,1.23.28,1.85.48,3.26.9,6.27,1.28,9.19.72,5.61,1.3,10.91,1.94,17.14.25,2.39.51,4.93.78,7.67q.06.6.12,1.17c.86,8.63,1.32,14.49,1.58,18.86.22,3.85.28,6.55.3,9,0,.74,0,1.47,0,2.21,0,5.8-.26,11.69-.83,17.85-.05.64-.11,1.29-.18,1.94-.35,3.45-.66,6.49-1,9.21-1.09,8.8-2.42,14.2-6,18.79-1.28,1.63-8.43,10.8-16,10-6.67-.71-12.17-9-16.43-20.77A133.09,133.09,0,0,1,235,206.9c-1.59-6.47-2.89-13.38-3.92-20.33-.56-3.85-1-7.71-1.43-11.5a231.08,231.08,0,0,1-1.3-23.11c0-2.66.05-5.16.18-7.46.09-1.7.21-3.37.35-5,.66-8,1.78-15.12,2.61-19.69.6-3.32,1-5.3,1-5.3.09-.39.41-1.6,1-3.69,1-3.52,2.61-9.54,5-18.31a2.17,2.17,0,0,1,.07-.24c.86-3.16,1.6-5.81,2.24-8.09C243,76.4,244,73,245.5,68.5c1-2.9,1.64-4.74,2.18-6.14C248.51,60.19,249,59,249.83,56.59Z" transform="translate(-166.21 -31.5)"/><path class="cls-4" d="M256,58c1.6.11,2.11,7.38,3,15,1.57,13.46,2.05,8.74,6,34,.66,4.22,2.24,14.57,4,29,4.41,36.22,6.62,54.33,4,55-3.59.92-15.17-27.73-21-55a207.33,207.33,0,0,1-4-32,137.47,137.47,0,0,1,5-40C253.71,61.55,254.86,57.92,256,58Z" transform="translate(-166.21 -31.5)"/><path class="cls-1" d="M254,200.33a92.46,92.46,0,0,1,.48,12.82c-3.41,0-7.1.19-10,.35-9.8.54-16.05,1.94-25,4-4.23,1-7.32,1.82-9.58,2.59-.32-2.69-.41-4.35-.42-4.59-.16-3.28-.34-6.1-.52-8.56a36.49,36.49,0,0,1,7.52-4.44c8.85-3.82,18.32-3.37,26-3C247.22,199.72,251.11,200.3,254,200.33Z" transform="translate(-166.21 -31.5)"/><path class="cls-2" d="M247.1,162.91c.71,2.9,1.33,5.52,1.89,8-2.18-.35-5.06-.95-8.49-1.41-6.29-.84-14.27-1.92-22,0a39.92,39.92,0,0,0-12.95,6.21c0-1,0-2.06-.05-3.21,0-3.15,0-6.18.1-9.13,1.91-.63,4.2-1.21,6.9-1.87a61.58,61.58,0,0,1,21-2C240.52,160.08,244.73,161.65,247.1,162.91Z" transform="translate(-166.21 -31.5)"/><path class="cls-2" d="M252.54,189.7c.64,3.9,1.14,7.33,1.49,10.63-2.92,0-6.81-.61-11.53-.83-7.68-.37-17.15-.82-26,3a36.49,36.49,0,0,0-7.52,4.44c-.32-4.16-.66-7.29-1-9.84a71.07,71.07,0,0,1,11.52-3.6c9.78-2.47,14.68-3.71,21-4A63.55,63.55,0,0,1,252.54,189.7Z" transform="translate(-166.21 -31.5)"/><path class="cls-2" d="M235.5,117.5c.08.32.16.64.23,1a25.11,25.11,0,0,0-4.23-1c-5.76-.69-10.4,1.39-14,3a36.16,36.16,0,0,0-7,4.19q.76-3.68,1.65-7.48c1-.54,2.12-1.11,3.38-1.71,4.74-2.25,7.11-3.37,10-4a30.71,30.71,0,0,1,8.39-.58C234.36,112.88,234.9,115.06,235.5,117.5Z" transform="translate(-166.21 -31.5)"/><path class="cls-2" d="M239.09,131.58c.81,3.09,1.55,5.83,2.51,9.5-2.21-.35-5.26-1.13-9.1-1.58-3-.36-8.14-1-13,0a29.2,29.2,0,0,0-12.6,6.35c.36-3,.78-6,1.27-8.93a57.75,57.75,0,0,1,5.33-2.42c6.05-2.42,9.2-3.69,14-4C229.49,130.37,234.7,130,239.09,131.58Z" transform="translate(-166.21 -31.5)"/><path class="cls-1" d="M247.1,162.91c-2.37-1.26-6.58-2.83-13.6-3.41a61.58,61.58,0,0,0-21,2c-2.7.66-5,1.24-6.9,1.87.18-6.12.63-11.87,1.3-17.52a29.2,29.2,0,0,1,12.6-6.35c4.86-1,10-.36,13,0,3.84.45,6.89,1.23,9.1,1.58.54,2.09,1.16,4.49,1.9,7.42C244.92,154.13,246.09,158.79,247.1,162.91Z" transform="translate(-166.21 -31.5)"/><path class="cls-2" d="M254.51,213.15c0,.11,0,.23,0,.35-.1,3-.2,5.95-.4,8.79-3.93.45-8.7,0-15.6.21-11.14.38-16.71.57-22,4a30.11,30.11,0,0,0-4.79,4c-.93-4.18-1.48-7.76-1.79-10.37,2.26-.77,5.35-1.61,9.58-2.59,8.95-2.06,15.2-3.46,25-4C247.41,213.34,251.1,213.14,254.51,213.15Z" transform="translate(-166.21 -31.5)"/><path class="cls-1" d="M251.5,183.5c.38,2.21.73,4.27,1,6.2a63.55,63.55,0,0,0-12-.2c-6.32.29-11.22,1.53-21,4A71.07,71.07,0,0,0,208,197.1c-1.07-8-2.15-10.38-2.43-21.39a39.92,39.92,0,0,1,12.95-6.21c7.73-1.92,15.71-.84,22,0,3.43.46,6.31,1.06,8.49,1.41C250,175.29,250.77,179.24,251.5,183.5Z" transform="translate(-166.21 -31.5)"/><path class="cls-1" d="M235.73,118.45c1.46,5.93,2.45,9.74,3.36,13.13-4.39-1.54-9.6-1.21-11.59-1.08-4.8.31-7.95,1.58-14,4a57.75,57.75,0,0,0-5.33,2.42c.65-4,1.42-8.08,2.3-12.23a36.16,36.16,0,0,1,7-4.19c3.6-1.61,8.24-3.69,14-3A25.11,25.11,0,0,1,235.73,118.45Z" transform="translate(-166.21 -31.5)"/><path class="cls-1" d="M254.1,222.29c-.65,9.33-2.34,17.61-8.6,24.21-5.8,6.11-16.17,11.49-23,8-2.52-1.29-4.35-3.68-7-11a108.46,108.46,0,0,1-3.79-13,30.11,30.11,0,0,1,4.79-4c5.29-3.43,10.86-3.62,22-4C245.4,222.26,250.17,222.74,254.1,222.29Z" transform="translate(-166.21 -31.5)"/><path class="cls-1" d="M233.89,110.92a30.71,30.71,0,0,0-8.39.58c-2.89.63-5.26,1.75-10,4-1.26.6-2.38,1.17-3.38,1.71,1.81-7.84,3.95-16.22,6.38-25.71,1.44-5.64,4.52-17.25,7-17,1.91.19,2.08,7.29,5,22C231,99.13,232,103.38,233.89,110.92Z" transform="translate(-166.21 -31.5)"/><path class="cls-3" d="M233.89,110.92C232,103.38,231,99.13,230.5,96.5c-2.92-14.71-3.09-21.81-5-22-2.48-.25-5.56,11.36-7,17-2.43,9.49-4.57,17.87-6.38,25.71q-.88,3.81-1.65,7.48c-.88,4.15-1.65,8.2-2.3,12.23-.49,3-.91,5.93-1.27,8.93-.67,5.65-1.12,11.4-1.3,17.52-.1,2.95-.13,6-.1,9.13,0,1.15,0,2.21.05,3.21.28,11,1.36,13.42,2.43,21.39.34,2.55.68,5.68,1,9.84.18,2.46.36,5.28.52,8.56,0,.24.1,1.9.42,4.59s.86,6.19,1.79,10.37a108.46,108.46,0,0,0,3.79,13c2.65,7.32,4.48,9.71,7,11,6.83,3.49,17.2-1.89,23-8,6.26-6.6,7.95-14.88,8.6-24.21.2-2.84.3-5.78.4-8.79,0-.12,0-.24,0-.35a92.46,92.46,0,0,0-.48-12.82c-.35-3.3-.85-6.73-1.49-10.63-.31-1.93-.66-4-1-6.2-.73-4.26-1.52-8.21-2.51-12.59-.56-2.48-1.18-5.1-1.89-8-1-4.12-2.18-8.78-3.6-14.41-.74-2.93-1.36-5.33-1.9-7.42-1-3.67-1.7-6.41-2.51-9.5-.91-3.39-1.9-7.2-3.36-13.13-.07-.31-.15-.63-.23-1C234.9,115.06,234.36,112.88,233.89,110.92Z" transform="translate(-166.21 -31.5)"/><path class="cls-4" d="M223,90c-.85,0-1.92,3.06-4,17-2.59,17.36-3.89,26-4,38-.09,9.88.6,16.59,2,30,2.65,25.43,4,38.15,8,39,5.75,1.22,16.35-14.76,18-31a50.16,50.16,0,0,0,0-9c-1.43-23.45-10.24-30.62-14-54-.91-5.68-2-11.33-3-17C224.35,93.35,223.87,90,223,90Z" transform="translate(-166.21 -31.5)"/><path class="cls-1" d="M213,250a106.29,106.29,0,0,1,.23,21.15c-2.52.6-5.43,1.44-8.69,2.37-1.95.56-6,2-14,5-3,1.09-5.07,1.89-6.64,2.6a86.91,86.91,0,0,1-3.36-9.6c-.46-1.58-1.1-3.81-1.76-6.61a66.91,66.91,0,0,1,9.76-7.39c5.39-3.32,9.7-6,16-7A59,59,0,0,1,213,250Z" transform="translate(-166.21 -31.5)"/><path class="cls-2" d="M212.5,246.5c.18,1.15.33,2.31.46,3.48a59,59,0,0,0-8.46.52c-6.3,1-10.61,3.68-16,7a66.91,66.91,0,0,0-9.76,7.39c-.67-2.82-1.35-6.22-1.88-10.09,2.55-.91,6.2-2,11.64-4.3,5.11-2.13,4.53-2.24,9-4,6.16-2.42,10.84-4.21,14.26-4.18C212,243.69,212.28,245.09,212.5,246.5Z" transform="translate(-166.21 -31.5)"/><path class="cls-2" d="M213.19,271.13c-.21,2.44-.49,4.81-.85,7.09a34.82,34.82,0,0,0-6.84.28c-8,1.26-13.66,6.24-17.79,10.36l-.21-.36a62.92,62.92,0,0,1-3.64-7.4c1.57-.71,3.68-1.51,6.64-2.6,8-3,12.05-4.44,14-5C207.76,272.57,210.67,271.73,213.19,271.13Z" transform="translate(-166.21 -31.5)"/><path class="cls-1" d="M211.76,242.32c-3.42,0-8.1,1.76-14.26,4.18-4.47,1.76-3.89,1.87-9,4-5.44,2.27-9.09,3.39-11.64,4.3a103.52,103.52,0,0,1-1-13.06,52.43,52.43,0,0,1,12.61-5.24,86.06,86.06,0,0,1,12-2c4-.45,7-.57,9.19-.83C210.42,236.31,211.15,239.25,211.76,242.32Z" transform="translate(-166.21 -31.5)"/><path class="cls-1" d="M205.5,278.5a34.82,34.82,0,0,1,6.84-.28c-2.2,14.18-7,24.9-11.84,25.28-4.09.32-8.12-6.56-12.79-14.64C191.84,284.74,197.47,279.76,205.5,278.5Z" transform="translate(-166.21 -31.5)"/><path class="cls-2" d="M207.45,226.28c.64,2,1.44,4.5,2.24,7.39-2.21.26-5.21.38-9.19.83a86.06,86.06,0,0,0-12,2,52.43,52.43,0,0,0-12.61,5.24,97.92,97.92,0,0,1,.47-10.89,53.07,53.07,0,0,1,9.14-1.35c6.34-.57,6,.64,11,0A39.44,39.44,0,0,0,207.45,226.28Z" transform="translate(-166.21 -31.5)"/><path class="cls-1" d="M206.5,223.5c.25.71.57,1.65.95,2.78a39.44,39.44,0,0,1-10.95,3.22c-5,.64-4.66-.57-11,0a53.07,53.07,0,0,0-9.14,1.35c0-.45.09-.9.14-1.35.52-4.59,1-5.55,2.12-13a46.86,46.86,0,0,1,16.88-5c2-.19,4.16-.24,6-.49C203.59,215.74,205.14,219.57,206.5,223.5Z" transform="translate(-166.21 -31.5)"/><path class="cls-2" d="M198.52,204.38c1.12,2.43,2.1,4.61,3,6.63-1.85.25-4,.3-6,.49a46.86,46.86,0,0,0-16.88,5c.25-1.65.55-3.62.88-6,.12-.87.24-1.71.35-2.51,1-.12,2.2-.28,3.65-.49a109.34,109.34,0,0,0,11-2C196.06,205.11,197.38,204.73,198.52,204.38Z" transform="translate(-166.21 -31.5)"/><path class="cls-1" d="M198.52,204.38c-1.14.35-2.46.73-4,1.12a109.34,109.34,0,0,1-11,2c-1.45.21-2.65.37-3.65.49.94-6.71,1.51-11.08,1.65-14.55h0a26.84,26.84,0,0,1,6-2.93,36.33,36.33,0,0,1,4.09-1.1l1.91,4.1C195.43,197.65,197.08,201.22,198.52,204.38Z" transform="translate(-166.21 -31.5)"/><path class="cls-2" d="M188.71,183.17c.8,1.81,1.75,3.83,2.88,6.23a36.33,36.33,0,0,0-4.09,1.1,26.84,26.84,0,0,0-6,2.93c0-1.05,0-2,0-2.93-.07-1.82-.21-3.34-.36-4.73,1-.44,2.15-.84,3.36-1.27C185.23,184.24,186.85,183.66,188.71,183.17Z" transform="translate(-166.21 -31.5)"/><path class="cls-1" d="M184.5,170.5a52.66,52.66,0,0,0,4.21,12.67c-1.86.49-3.48,1.07-4.21,1.33-1.21.43-2.33.83-3.36,1.27a61.73,61.73,0,0,1-.64-12.27c.25-4.66,1-11,2-11C183.29,162.5,183.77,166.74,184.5,170.5Z" transform="translate(-166.21 -31.5)"/><path class="cls-3" d="M181.5,193.43c0-1.05,0-2,0-2.93-.07-1.82-.21-3.34-.36-4.73a61.73,61.73,0,0,1-.64-12.27c.25-4.66,1-11,2-11,.79,0,1.27,4.24,2,8a52.66,52.66,0,0,0,4.21,12.67c.8,1.81,1.75,3.83,2.88,6.23l1.91,4.1c1.93,4.15,3.58,7.72,5,10.88,1.12,2.43,2.1,4.61,3,6.63,2.08,4.73,3.63,8.56,5,12.49.25.71.57,1.65.95,2.78.64,2,1.44,4.5,2.24,7.39.73,2.64,1.46,5.58,2.07,8.65.27,1.37.52,2.77.74,4.18.18,1.15.33,2.31.46,3.48a106.29,106.29,0,0,1,.23,21.15c-.21,2.44-.49,4.81-.85,7.09-2.2,14.18-7,24.9-11.84,25.28-4.09.32-8.12-6.56-12.79-14.64l-.21-.36a62.92,62.92,0,0,1-3.64-7.4,86.91,86.91,0,0,1-3.36-9.6c-.46-1.58-1.1-3.81-1.76-6.61s-1.35-6.22-1.88-10.09a103.52,103.52,0,0,1-1-13.06,97.92,97.92,0,0,1,.47-10.89c0-.45.09-.9.14-1.35.52-4.59,1-5.55,2.12-13,.25-1.65.55-3.62.88-6,.12-.87.24-1.71.35-2.51.94-6.71,1.51-11.08,1.65-14.55" transform="translate(-166.21 -31.5)"/><path class="cls-5" d="M255.34,277.79c.12,2.59.18,5.16.16,7.71,0,1.56-.05,3.14-.12,4.71A70.29,70.29,0,0,0,246,290c-9.47.48-10.92,2.75-19,2-4.43-.41-3.45-1-10-2-5.84-.85-9.45-.76-12.08-1.06,0-5.24.34-9.81.58-13.44a1.49,1.49,0,0,1,0-.21A27.88,27.88,0,0,1,214,277c4.22,1.61,5.55,3.58,10,4,2.37.22,3.67-.18,8-1,3-.56,8.58-1.63,13-2A51.71,51.71,0,0,1,255.34,277.79Z" transform="translate(-166.21 -31.5)"/><path class="cls-6" d="M253.59,259.86c.84,6,1.46,12,1.75,17.93A51.71,51.71,0,0,0,245,278c-4.42.37-10,1.44-13,2-4.33.82-5.63,1.22-8,1-4.45-.42-5.78-2.39-10-4a27.88,27.88,0,0,0-8.48-1.71c.34-4.9.91-9.44,1.49-13.22a24.71,24.71,0,0,1,9-1.07c5.08.39,5.91,2.11,11,2,3.69-.08,5.21-1,9-2C244.24,258.87,249.85,260,253.59,259.86Z" transform="translate(-166.21 -31.5)"/><path class="cls-6" d="M255.38,290.21a149.54,149.54,0,0,1-1.95,18.2c-7-.16-18.58,4.26-19.43,4.59-3,1.16-4.94,2.16-8,2-4.64-.24-5.67-2.82-11-4a21.77,21.77,0,0,0-8.14-.24,113.61,113.61,0,0,1-1.94-21.82c2.63.3,6.24.21,12.08,1.06,6.55,1,5.57,1.59,10,2,8.08.75,9.53-1.52,19-2A70.29,70.29,0,0,1,255.38,290.21Z" transform="translate(-166.21 -31.5)"/><path class="cls-5" d="M234,313c.85-.33,12.47-4.75,19.43-4.59-.64,3.82-1.41,7.56-2.3,11.15-2.18.3-5.09.6-9.13,1.44-7.73,1.61-8.63,2.92-14,3a59.22,59.22,0,0,1-9-1,54,54,0,0,1-9.61-2.1,95.62,95.62,0,0,1-2.53-10.14A21.77,21.77,0,0,1,215,311c5.33,1.18,6.36,3.76,11,4C229.06,315.16,231,314.16,234,313Z" transform="translate(-166.21 -31.5)"/><path class="cls-5" d="M253.59,259.86c-3.74.15-9.35-1-17.59,1.14-3.79,1-5.31,1.92-9,2-5.09.11-5.92-1.61-11-2a24.71,24.71,0,0,0-9,1.07c.55-3.7,1.12-6.67,1.49-8.57.25-1.3.5-2.52.74-3.68A24.69,24.69,0,0,1,221,252c3.19,1.49,4.23,3,7,3,3.71,0,5.24-2.73,9-5a24,24,0,0,1,14.48-3.15Q252.67,253.36,253.59,259.86Z" transform="translate(-166.21 -31.5)"/><path class="cls-6" d="M251.48,246.85A24,24,0,0,0,237,250c-3.76,2.27-5.29,5-9,5-2.77,0-3.81-1.51-7-3a24.69,24.69,0,0,0-11.76-2.18c1.26-5.86,2.51-10.21,4-15.24A23.26,23.26,0,0,1,221,236c3.63,1.33,4.6,2.7,8,3s5.67-.88,9-2a40.77,40.77,0,0,1,11.21-2C250,238.9,250.77,242.87,251.48,246.85Z" transform="translate(-166.21 -31.5)"/><path class="cls-5" d="M247.5,226.5c.57,2.8,1.15,5.63,1.71,8.46A40.77,40.77,0,0,0,238,237c-3.33,1.12-5.46,2.32-9,2s-4.37-1.67-8-3a23.26,23.26,0,0,0-7.8-1.42c.71-2.45,1.47-5.06,2.3-8.08.05-.19.1-.38.16-.57,4.09.31,6.44,4.16,12.34,4.07,3.25-.05,3.15-1.23,9-3a51,51,0,0,1,10.14-2.26C247.26,225.31,247.38,225.9,247.5,226.5Z" transform="translate(-166.21 -31.5)"/><path class="cls-6" d="M251.13,319.56a121.55,121.55,0,0,1-5,16A26.36,26.36,0,0,1,235,337c-5.85-.59-7.19-3-14-3a32.58,32.58,0,0,0-6.35.57c-.74-1.71-1.46-3.42-2.15-5.07a87.67,87.67,0,0,1-3.11-8.6A54,54,0,0,0,219,323a59.22,59.22,0,0,0,9,1c5.37-.08,6.27-1.39,14-3C246,320.16,249,319.86,251.13,319.56Z" transform="translate(-166.21 -31.5)"/><path class="cls-6" d="M243.23,206.41c1.11,5.88,2.34,10.77,3.91,18.33A51,51,0,0,0,237,227c-5.85,1.77-5.75,2.95-9,3-5.9.09-8.25-3.76-12.34-4.07,1.2-4.45,2.24-8.75,3.36-13.88,2.42-.6,5-1.41,7-2.05,5.38-1.71,4.85-2.22,8-3A26.31,26.31,0,0,1,243.23,206.41Z" transform="translate(-166.21 -31.5)"/><path class="cls-5" d="M246.08,335.55a70.2,70.2,0,0,1-4.3,9A70.12,70.12,0,0,1,231,343a99.7,99.7,0,0,1-14.3-3.87c-.7-1.5-1.38-3-2-4.56A32.58,32.58,0,0,1,221,334c6.81,0,8.15,2.41,14,3A26.36,26.36,0,0,0,246.08,335.55Z" transform="translate(-166.21 -31.5)"/><path class="cls-5" d="M241.72,197.13c.49,3.56,1,6.53,1.51,9.28A26.31,26.31,0,0,0,234,207c-3.15.78-2.62,1.29-8,3-2,.64-4.56,1.45-7,2.05.62-2.81,1.27-5.87,2-9.34a29.17,29.17,0,0,0,4-.71c5.52-1.38,5.23-2.86,10-4A24.71,24.71,0,0,1,241.72,197.13Z" transform="translate(-166.21 -31.5)"/><path class="cls-6" d="M241.5,195.5c.07.56.15,1.1.22,1.63A24.71,24.71,0,0,0,235,198c-4.77,1.14-4.48,2.62-10,4a29.17,29.17,0,0,1-4,.71c.74-3.58,1.55-7.59,2.49-12.21.58-2.83,1.11-5.48,1.61-8A29.93,29.93,0,0,1,229,182c1.27-.09,2.52-.06,5,0s4.44.19,6.11.31C240.44,186.21,240.82,190.3,241.5,195.5Z" transform="translate(-166.21 -31.5)"/><path class="cls-5" d="M239.43,174.46c.26,2.71.46,5.24.68,7.85-1.67-.12-3.68-.25-6.11-.31s-3.73-.09-5,0a29.93,29.93,0,0,0-3.89.54c.49-2.39.94-4.63,1.35-6.74,1.74-.16,4.27-.31,8.54-.8C236.83,174.79,238.26,174.6,239.43,174.46Z" transform="translate(-166.21 -31.5)"/><path class="cls-6" d="M237.5,159.5c1,6.11,1.52,10.76,1.93,15-1.17.14-2.6.33-4.43.54-4.27.49-6.8.64-8.54.8,2.44-12.36,3.73-20.14,4-27.3.34-7.71.06-13.9,1-14C233,134.34,236,150.1,237.5,159.5Z" transform="translate(-166.21 -31.5)"/><path class="cls-6" d="M231,343a70.12,70.12,0,0,0,10.78,1.55c-3.55,6.14-7.45,9.89-11.28,9.95-5.38.08-9.91-7.14-13.8-15.37A99.7,99.7,0,0,0,231,343Z" transform="translate(-166.21 -31.5)"/><path class="cls-1" d="M216,204c1.79-1.07,3-1.07,5-1.29-.72,3.47-1.37,6.53-2,9.34-3.7.91-7.14,1.34-8-.05C210,210.34,212.54,206.07,216,204Z" transform="translate(-166.21 -31.5)"/><path class="cls-3" d="M241.78,344.55c-3.55,6.14-7.45,9.89-11.28,9.95-5.38.08-9.91-7.14-13.8-15.37-.7-1.5-1.38-3-2-4.56-.74-1.71-1.46-3.42-2.15-5.07a87.67,87.67,0,0,1-3.11-8.6,95.62,95.62,0,0,1-2.53-10.14,113.61,113.61,0,0,1-1.94-21.82c0-5.24.34-9.81.58-13.44a1.49,1.49,0,0,1,0-.21c.34-4.9.91-9.44,1.49-13.22s1.12-6.67,1.49-8.57c.25-1.3.5-2.52.74-3.68,1.26-5.86,2.51-10.21,4-15.24.71-2.45,1.47-5.06,2.3-8.08.05-.19.1-.38.16-.57,1.2-4.45,2.24-8.75,3.36-13.88.62-2.81,1.27-5.87,2-9.34s1.55-7.59,2.49-12.21c.58-2.83,1.11-5.48,1.61-8s.94-4.63,1.35-6.74c2.44-12.36,3.73-20.14,4-27.3.34-7.71.06-13.9,1-14,1.5-.16,4.5,15.6,6,25,1,6.11,1.52,10.76,1.93,15,.26,2.71.46,5.24.68,7.85.33,3.9.71,8,1.39,13.19.07.56.15,1.1.22,1.63.49,3.56,1,6.53,1.51,9.28,1.11,5.88,2.34,10.77,3.91,18.33.12.57.24,1.16.36,1.76.57,2.8,1.15,5.63,1.71,8.46.79,3.94,1.56,7.91,2.27,11.89q1.19,6.51,2.11,13c.84,6,1.46,12,1.75,17.93.12,2.59.18,5.16.16,7.71,0,1.56-.05,3.14-.12,4.71a149.54,149.54,0,0,1-1.95,18.2c-.64,3.82-1.41,7.56-2.3,11.15a121.55,121.55,0,0,1-5,16A70.2,70.2,0,0,1,241.78,344.55Z" transform="translate(-166.21 -31.5)"/><path class="cls-4" d="M234,169a13.85,13.85,0,0,0-2,2c-3.2,3.93-3.32,8.59-3.5,11.5-.33,5.22-1.75,10.32-2.5,15.5-.49,3.38-1.66,8.92-4,20-1.49,7-2.44,11.34-5,23-3.23,14.72-4.85,22.1-5,23a146.45,146.45,0,0,0-2,31,81.64,81.64,0,0,0,4,22c.74,2.23,3.42,10.29,5,10s.88-7.42,1-19c.11-10.92.77-18.62,2-33,.65-7.56.47-3.54,3-27,.25-2.36,1.61-15,4-31,1.63-10.89,2.34-14,3-14,1.16,0,1.84,9.81,2,15,.19,5.91-.25,7,0,12a87.64,87.64,0,0,0,2,14c.73,3.86,1.16,11.91,2,28,1,19.26.78,21.73,0,25-1.61,6.78-4.17,11.22-3,12,1.4.93,7.43-3.79,11-10,1.68-2.92,4.34-8.82,2-32-.88-8.71-2-15.39-4-27-2.3-13.41-2.48-12.47-4-22-1.46-9.12-2.3-16.41-4-31C235.13,179.5,234.45,173.28,234,169Z" transform="translate(-166.21 -31.5)"/><path class="cls-6" d="M286.52,227.28c1.66,12.25,1.32,16.35,1,19.22-.06.52-.13,1.08-.21,1.67-3.56-.66-8.08.34-10.29.83-2.9.64-4.88,1.54-8,1-2.3-.4-3.37-1.26-5-2-2.39-1.09-4.6-1.31-16,0-2.46.28-4.43.53-6,.76a151.53,151.53,0,0,1,1-18.62A53.39,53.39,0,0,1,252,228c4.86-.7,8.51-1.23,13,0,3.16.86,4,1.85,7,2,3.33.17,3.9-1,9-2A44.38,44.38,0,0,1,286.52,227.28Z" transform="translate(-166.21 -31.5)"/><path class="cls-5" d="M285.51,220.39c.4,2.55.74,4.84,1,6.89A44.38,44.38,0,0,0,281,228c-5.1,1-5.67,2.17-9,2-3-.15-3.84-1.14-7-2-4.49-1.23-8.14-.7-13,0a53.39,53.39,0,0,0-9.07,2.14c.16-1.51.35-3,.57-4.64,0-.26.29-1.64.78-4.19,2-.38,5-.78,9.72-1.31,8.85-1,10.7-.94,13,0,1.94.8,2.72,1.63,5,2s3.39-.23,8-1A40,40,0,0,1,285.51,220.39Z" transform="translate(-166.21 -31.5)"/><path class="cls-5" d="M287.29,248.17a73,73,0,0,1-2.21,11A24.71,24.71,0,0,0,281,259c-6.52.21-7.79,2.59-13,2-4.05-.46-4.17-2-8-3-7.42-1.92-12.85,2.36-17.38,3.47-.34-4-.59-8.22-.64-12.71,1.59-.23,3.56-.48,6-.76,11.4-1.31,13.61-1.09,16,0,1.63.74,2.7,1.6,5,2,3.12.54,5.1-.36,8-1C279.21,248.51,283.73,247.51,287.29,248.17Z" transform="translate(-166.21 -31.5)"/><path class="cls-6" d="M285.08,259.2a49.59,49.59,0,0,1-9.58,18.3c-6.3,7.51-18.79,17.65-26,14-1.65-.83-4.11-2.94-6-21-.31-3-.62-6-.88-9,4.53-1.11,10-5.39,17.38-3.47,3.83,1,3.95,2.54,8,3,5.21.59,6.48-1.79,13-2A24.71,24.71,0,0,1,285.08,259.2Z" transform="translate(-166.21 -31.5)"/><path class="cls-6" d="M283.5,208.5c.81,4.5,1.47,8.44,2,11.89A40,40,0,0,0,280,221c-4.61.77-5.6,1.39-8,1s-3.06-1.2-5-2c-2.3-.94-4.15-1-13,0-4.75.53-7.75.93-9.72,1.31.69-3.6,1.85-9.55,3.47-17.95A16.43,16.43,0,0,1,254,201c2-.3,4.66.13,10,1,7.71,1.25,8.33,2.06,12,2a26.63,26.63,0,0,0,6.54-.74C282.83,204.79,283.14,206.51,283.5,208.5Z" transform="translate(-166.21 -31.5)"/><path class="cls-5" d="M282.54,203.26A26.63,26.63,0,0,1,276,204c-3.67.06-4.29-.75-12-2-5.34-.87-8-1.3-10-1a16.43,16.43,0,0,0-6.25,2.36l.75-3.86c.36-1.88.69-3.58,1-5.15,1.8-.16,3.95-.25,6.5-.35,6.54-.27,9.56.54,11,1,3.22,1,3,1.71,5,2,3.63.54,6.34-1.43,8.62-2.86C281.25,196.82,281.82,199.47,282.54,203.26Z" transform="translate(-166.21 -31.5)"/><path class="cls-6" d="M277.49,180.93c1.44,6.18,2.34,9.73,3.13,13.21-2.28,1.43-5,3.4-8.62,2.86-2-.29-1.78-1-5-2-1.44-.46-4.46-1.27-11-1-2.55.1-4.7.19-6.5.35,1.13-5.83,1.88-9.68,2.45-12.79A27.14,27.14,0,0,1,259,180c4.13-.32,4.07.73,10,1A59.44,59.44,0,0,0,277.49,180.93Z" transform="translate(-166.21 -31.5)"/><path class="cls-5" d="M275.6,172.61c.72,3.25,1.35,6,1.89,8.32A59.44,59.44,0,0,1,269,181c-5.93-.27-5.87-1.32-10-1a27.14,27.14,0,0,0-7.05,1.56c.56-3,1-5.32,1.39-8.05,1.56.08,3.43.26,5.66.49,5.22.53,4.58,1,7,1A21.75,21.75,0,0,0,275.6,172.61Z" transform="translate(-166.21 -31.5)"/><path class="cls-6" d="M272.66,159.25c1.14,5.27,2.1,9.65,2.94,13.36A21.75,21.75,0,0,1,266,175c-2.42,0-1.78-.47-7-1-2.23-.23-4.1-.41-5.66-.49,0-.33.11-.67.16-1,.74-4.76,1.44-9.3,2-14.3A18.46,18.46,0,0,1,260,158c2.56.19,2.5.69,6,1A46.07,46.07,0,0,0,272.66,159.25Z" transform="translate(-166.21 -31.5)"/><path class="cls-5" d="M272.5,158.5c.05.25.11.5.16.75A46.07,46.07,0,0,1,266,159c-3.5-.31-3.44-.81-6-1a18.46,18.46,0,0,0-4.47.2c.37-3,.7-6.2,1-9.7,0-.07,0-.15,0-.22A21.6,21.6,0,0,0,267,150c1.19-.11,2.21-.3,3.12-.46C271.83,155.4,272.5,158.5,272.5,158.5Z" transform="translate(-166.21 -31.5)"/><path class="cls-6" d="M270.12,149.54c-.91.16-1.93.35-3.12.46a21.6,21.6,0,0,1-10.48-1.72c1.39-18.1.12-28.48,2-28.78,1-.16,2.35,2.69,5,10C266.56,137.94,268.71,144.68,270.12,149.54Z" transform="translate(-166.21 -31.5)"/><path class="cls-3" d="M285.08,259.2a49.59,49.59,0,0,1-9.58,18.3c-6.3,7.51-18.79,17.65-26,14-1.65-.83-4.11-2.94-6-21-.31-3-.62-6-.88-9-.34-4-.59-8.22-.64-12.71a151.53,151.53,0,0,1,1-18.62c.16-1.51.35-3,.57-4.64,0-.26.29-1.64.78-4.19.69-3.6,1.85-9.55,3.47-17.95l.75-3.86c.36-1.88.69-3.58,1-5.15,1.13-5.83,1.88-9.68,2.45-12.79s1-5.32,1.39-8.05c0-.33.11-.67.16-1,.74-4.76,1.44-9.3,2-14.3.37-3,.7-6.2,1-9.7,0-.07,0-.15,0-.22,1.39-18.1.12-28.48,2-28.78,1-.16,2.35,2.69,5,10,3.06,8.44,5.21,15.18,6.62,20,1.71,5.86,2.38,9,2.38,9,.05.25.11.5.16.75,1.14,5.27,2.1,9.65,2.94,13.36.72,3.25,1.35,6,1.89,8.32,1.44,6.18,2.34,9.73,3.13,13.21.63,2.68,1.2,5.33,1.92,9.12.29,1.53.6,3.25,1,5.24.81,4.5,1.47,8.44,2,11.89.4,2.55.74,4.84,1,6.89,1.66,12.25,1.32,16.35,1,19.22-.06.52-.13,1.08-.21,1.67A73,73,0,0,1,285.08,259.2Z" transform="translate(-166.21 -31.5)"/><path class="cls-4" d="M262,145c-1,.23.23,6,0,16-.07,3.19-.3,6.89-3,24-1.8,11.43-3.49,21.08-4,24-2.63,15-3.43,18.48-4,26a91.56,91.56,0,0,0,0,17c.8,7.56,1.77,16.75,4,17,5.39.6,13.91-51.31,16-79a90.79,90.79,0,0,0-2-27C266.93,153.92,263.32,144.71,262,145Z" transform="translate(-166.21 -31.5)"/><path class="cls-6" d="M276.5,337.5c2.38.3,4.15.54,5.55.69-7,10.58-12.9,13.54-14.55,14.31-2.74,1.28-10.44,4.87-16,2-8.19-4.23-7.8-20.47-6.85-29.69a25.87,25.87,0,0,0,6.85,6.69c3.26,2.13,6.45,3,10,4C265.31,336.56,265.49,336.11,276.5,337.5Z" transform="translate(-166.21 -31.5)"/><path class="cls-5" d="M304.65,228.91q-.39,4.09-.77,7.88a26.13,26.13,0,0,1-7.38.71,22.93,22.93,0,0,1-9-2,25.36,25.36,0,0,1-5.18-2.85c1.23-2.17,2.4-4.11,3.64-6.3a13.11,13.11,0,0,0,4.54,3.15,16,16,0,0,0,7,1A22.22,22.22,0,0,0,304.65,228.91Z" transform="translate(-166.21 -31.5)"/><path class="cls-5" d="M302.5,204.5a27.52,27.52,0,0,0,4.06.25c-.11,2.6-.29,5.28-.52,8.16a69.83,69.83,0,0,1-7.54-.41c-2.15-.21-3.91-.42-5.35-.64,1.33-2.94,2.57-5.83,3.7-8.81A25.44,25.44,0,0,0,302.5,204.5Z" transform="translate(-166.21 -31.5)"/><path class="cls-5" d="M302.7,248.34c-.39,3.61-.75,6.84-1.07,9.63-1.42.19-3.09.34-5.13.53-11.41,1.05-11.34,1.08-12,1-2.42-.3-8.1-1-12-4.64.9-2.61,1.84-5.2,3.27-8.6a20.53,20.53,0,0,0,3.75,2.24,25,25,0,0,0,12,2C296.23,250.21,299,248.73,302.7,248.34Z" transform="translate(-166.21 -31.5)"/><path class="cls-6" d="M301.63,258c-.48,4.23-.87,7.46-1.13,9.53s-.49,4-.73,5.9c-3.25.22-7.33.61-12.27,1.1-9.67.95-12.1,1.58-16,0a28.55,28.55,0,0,1-5.1-2.88c1-2.48,2-5.17,3.1-8.12,1.23-3.44,2.08-6.05,3-8.64,3.92,3.65,9.6,4.34,12,4.64.66.08.59.05,12-1C298.54,258.31,300.21,258.16,301.63,258Z" transform="translate(-166.21 -31.5)"/><path class="cls-5" d="M287.37,328.71a78.58,78.58,0,0,1-4.87,8.79l-.45.69c-1.4-.15-3.17-.39-5.55-.69-11-1.39-11.19-.94-15-2-3.55-1-6.74-1.87-10-4a25.87,25.87,0,0,1-6.85-6.69c.33-3.26.73-5.64.85-6.31l0-.16a25.66,25.66,0,0,0,8,5.16c3.67,1.49,7.44,2,15,3,1.61.21,1.8.21,9,1C282.22,328,285.32,328.37,287.37,328.71Z" transform="translate(-166.21 -31.5)"/><path class="cls-5" d="M295.42,301.94c-.63,3.16-1.33,6.26-2.12,9.44-.85-.26-1.77-.57-2.8-.88-4.13-1.24-7.75-1.49-15-2-8.93-.63-8.94,1.07-15,0-2.82-.5-7.87-1.39-10.85-3.88,1.43-3.15,3.08-6.05,4.94-9.28a17.85,17.85,0,0,0,6.91,4.16c3.36,1,4,0,12,0a92.66,92.66,0,0,1,13,1C290,301,293,301.41,295.42,301.94Z" transform="translate(-166.21 -31.5)"/><path class="cls-5" d="M299.77,273.4c-.37,3-.74,5.85-1.1,8.49-2,.25-4.29.35-7.17.61-9.82.9-8.59,2.07-14,2-2.84,0-11.13-.14-15.18-3.58,1.3-2.74,2.66-5.81,4.08-9.3a28.55,28.55,0,0,0,5.1,2.88c3.9,1.58,6.33.95,16,0C292.44,274,296.52,273.62,299.77,273.4Z" transform="translate(-166.21 -31.5)"/><path class="cls-6" d="M293.3,311.38c-.26,1-.52,2.07-.8,3.12a80.9,80.9,0,0,1-5.13,14.21c-2.05-.34-5.15-.7-9.87-1.21-7.2-.79-7.39-.79-9-1-7.56-1-11.33-1.51-15-3a25.66,25.66,0,0,1-8-5.16,57,57,0,0,1,4.12-13.72c3,2.49,8,3.38,10.85,3.88,6.06,1.07,6.07-.63,15,0,7.25.51,10.87.76,15,2C291.53,310.81,292.45,311.12,293.3,311.38Z" transform="translate(-166.21 -31.5)"/><path class="cls-6" d="M306.5,189.5a146.79,146.79,0,0,1,.06,15.25,27.52,27.52,0,0,1-4.06-.25,25.44,25.44,0,0,1-5.65-1.45,82.26,82.26,0,0,0,4.65-17.55c1.89-12.72.26-21.93,1-22S305.74,175.6,306.5,189.5Z" transform="translate(-166.21 -31.5)"/><path class="cls-6" d="M303.88,236.79c-.41,4.18-.81,8.05-1.18,11.55-3.66.39-6.47,1.87-11.2,2.16a25,25,0,0,1-12-2,20.53,20.53,0,0,1-3.75-2.24l.75-1.76a121.31,121.31,0,0,1,5.82-11.85,25.36,25.36,0,0,0,5.18,2.85,22.93,22.93,0,0,0,9,2A26.13,26.13,0,0,0,303.88,236.79Z" transform="translate(-166.21 -31.5)"/><path class="cls-6" d="M298.5,212.5a69.83,69.83,0,0,0,7.54.41c-.15,2.07-.34,4.25-.54,6.59q-.44,4.88-.85,9.41a22.22,22.22,0,0,1-7.15,1.59,16,16,0,0,1-7-1,13.11,13.11,0,0,1-4.54-3.15c1.62-2.83,3.36-6.09,5.54-10.85.56-1.23,1.12-2.44,1.65-3.64C294.59,212.08,296.35,212.29,298.5,212.5Z" transform="translate(-166.21 -31.5)"/><path class="cls-6" d="M298.67,281.89c-1,7.73-2,14-3.25,20.05-2.38-.53-5.38-.95-8.92-1.44a92.66,92.66,0,0,0-13-1c-8,0-8.64,1-12,0a17.85,17.85,0,0,1-6.91-4.16c2.28-3.95,4.86-8.41,7.73-14.42,4.05,3.44,12.34,3.55,15.18,3.58,5.41.07,4.18-1.1,14-2C294.38,282.24,296.68,282.14,298.67,281.89Z" transform="translate(-166.21 -31.5)"/><path class="cls-3" d="M266.4,271.62c1-2.48,2-5.17,3.1-8.12,1.23-3.44,2.08-6.05,3-8.64s1.84-5.2,3.27-8.6l.75-1.76a121.31,121.31,0,0,1,5.82-11.85c1.23-2.17,2.4-4.11,3.64-6.3,1.62-2.83,3.36-6.09,5.54-10.85.56-1.23,1.12-2.44,1.65-3.64,1.33-2.94,2.57-5.83,3.7-8.81a82.26,82.26,0,0,0,4.65-17.55c1.89-12.72.26-21.93,1-22s3.24,12.1,4,26a146.79,146.79,0,0,1,.06,15.25c-.11,2.6-.29,5.28-.52,8.16-.15,2.07-.34,4.25-.54,6.59q-.44,4.88-.85,9.41-.39,4.09-.77,7.88c-.41,4.18-.81,8.05-1.18,11.55s-.75,6.84-1.07,9.63c-.48,4.23-.87,7.46-1.13,9.53s-.49,4-.73,5.9c-.37,3-.74,5.85-1.1,8.49-1,7.73-2,14-3.25,20.05-.63,3.16-1.33,6.26-2.12,9.44-.26,1-.52,2.07-.8,3.12a80.9,80.9,0,0,1-5.13,14.21,78.58,78.58,0,0,1-4.87,8.79l-.45.69c-7,10.58-12.9,13.54-14.55,14.31-2.74,1.28-10.44,4.87-16,2-8.19-4.23-7.8-20.47-6.85-29.69.33-3.26.73-5.64.85-6.31l0-.16a57,57,0,0,1,4.12-13.72c1.43-3.15,3.08-6.05,4.94-9.28,2.28-3.95,4.86-8.41,7.73-14.42C263.62,278.18,265,275.11,266.4,271.62Z" transform="translate(-166.21 -31.5)"/><path class="cls-4" d="M302,198c-.48-.09-.94,7.36-6,18-2.7,5.68-4.38,7.37-8,15-2.35,5-3,7.21-5,12-6.09,14.92-9.06,16.89-12,25-4.06,11.18-5.67,25-3,26,3.21,1.2,13.07-15.94,19-29C302.5,230.82,303,198.18,302,198Z" transform="translate(-166.21 -31.5)"/><path class="cls-5" d="M273.5,234.5c.57,3.41,1.07,6.37,1.51,9.06a22.87,22.87,0,0,0-9-3.56,18.19,18.19,0,0,0-4.28-.08c1.21-3.41,2.12-6.21,2.8-8.63a26.59,26.59,0,0,1,8.45.06C273.17,232.52,273.35,233.58,273.5,234.5Z" transform="translate(-166.21 -31.5)"/><path class="cls-6" d="M261,333a31.68,31.68,0,0,0,7.17.37c-2.65,5.44-5.59,9.7-10.67,17.13-5.26,7.69-10.32,15-13,14-1.43-.53-1.43-3.13-2-10-1.06-12.63-1.13-4.75-2-18-.15-2.36-.3-4.52-.42-6.51A29.55,29.55,0,0,1,251,330C255.85,330.94,255.59,332.2,261,333Z" transform="translate(-166.21 -31.5)"/><path class="cls-6" d="M277.67,293.64c-.05.61-.11,1.23-.17,1.86-.44,4.43-.9,9.08-1.75,14A43.14,43.14,0,0,1,262,307c-6.78-2.5-5.64-4.58-14-8a65.86,65.86,0,0,0-6.8-2.44,114.64,114.64,0,0,1,3.07-11.87A25.56,25.56,0,0,1,252,285c1.06.21,4.37,1.48,11,4,8,3.05,8.42,3.46,11,4C274.81,293.17,276.12,293.44,277.67,293.64Z" transform="translate(-166.21 -31.5)"/><path class="cls-5" d="M275.75,309.5c-.37,2.11-.81,4.28-1.35,6.51-7,0-6.78.07-7.4,0a42.39,42.39,0,0,1-13-4c-5.77-2.74-5.13-3.85-9-5a18.14,18.14,0,0,0-5.23-.77,97.5,97.5,0,0,1,1.43-9.67A65.86,65.86,0,0,1,248,299c8.36,3.42,7.22,5.5,14,8A43.14,43.14,0,0,0,275.75,309.5Z" transform="translate(-166.21 -31.5)"/><path class="cls-6" d="M278.13,273.85c.13,3.6.18,7.52,0,11.8A28.56,28.56,0,0,1,270,284c-3.89-1.41-5-2.81-10-4a38.55,38.55,0,0,0-9-1c-1.69,0-3.31,0-4.85,0,.78-2.22,1.57-4.38,2.35-6.52,1.27-3.48,2.12-5.5,3-7.47a21.19,21.19,0,0,1,3.49,0,28,28,0,0,1,8,2,48.32,48.32,0,0,1,8,4A35.14,35.14,0,0,0,278.13,273.85Z" transform="translate(-166.21 -31.5)"/><path class="cls-5" d="M278.16,285.65c-.09,2.53-.24,5.19-.49,8-1.55-.2-2.86-.47-3.67-.64-2.58-.54-3-.95-11-4-6.63-2.52-9.94-3.79-11-4a25.56,25.56,0,0,0-7.73-.31c.61-1.94,1.24-3.82,1.88-5.67,1.54-.06,3.16,0,4.85,0a38.55,38.55,0,0,1,9,1c5,1.19,6.11,2.59,10,4A28.56,28.56,0,0,0,278.16,285.65Z" transform="translate(-166.21 -31.5)"/><path class="cls-6" d="M277.5,263.5c0,.17,0,.33,0,.5-1.18-.57-2.61-1.24-4.54-2a59.19,59.19,0,0,0-10-3,47.84,47.84,0,0,0-8.31-1.07c1-2.3,2.19-5.28,3.81-9.43,1.26-3.26,2.32-6.09,3.22-8.58A18.19,18.19,0,0,1,266,240a22.87,22.87,0,0,1,9,3.56C276.25,251.23,277,256.61,277.5,263.5Z" transform="translate(-166.21 -31.5)"/><path class="cls-5" d="M277.54,264c.22,3,.45,6.26.59,9.85A35.14,35.14,0,0,1,271,271a48.32,48.32,0,0,0-8-4,28,28,0,0,0-8-2,21.19,21.19,0,0,0-3.49,0c.88-2,1.79-3.86,3.18-7.1A47.84,47.84,0,0,1,263,259a59.19,59.19,0,0,1,10,3C274.93,262.76,276.36,263.43,277.54,264Z" transform="translate(-166.21 -31.5)"/><path class="cls-5" d="M258,325a38.75,38.75,0,0,0,13.13,1.53c-.5,1.3-1,2.63-1.63,4-.44,1-.88,2-1.33,2.87A31.68,31.68,0,0,1,261,333c-5.41-.8-5.15-2.06-10-3a29.55,29.55,0,0,0-10.92,0c-.23-3.56-.41-6.57-.53-9.2A39.21,39.21,0,0,1,248,322C252.88,323,255,324.1,258,325Z" transform="translate(-166.21 -31.5)"/><path class="cls-6" d="M273,231.35a26.59,26.59,0,0,0-8.45-.06,60.15,60.15,0,0,0,2-9.79c1-8.38.23-13.91,1-14C268.76,207.36,271.45,222.39,273,231.35Z" transform="translate(-166.21 -31.5)"/><path class="cls-6" d="M274.4,316a87.72,87.72,0,0,1-3.27,10.52A38.75,38.75,0,0,1,258,325c-3-.9-5.12-2-10-3a39.21,39.21,0,0,0-8.45-1.21,101.84,101.84,0,0,1-.05-11.29q.1-1.67.27-3.27A18.14,18.14,0,0,1,245,307c3.87,1.15,3.23,2.26,9,5a42.39,42.39,0,0,0,13,4C267.62,316.08,267.4,316,274.4,316Z" transform="translate(-166.21 -31.5)"/><path class="cls-3" d="M268.17,333.37c-2.65,5.44-5.59,9.7-10.67,17.13-5.26,7.69-10.32,15-13,14-1.43-.53-1.43-3.13-2-10-1.06-12.63-1.13-4.75-2-18-.15-2.36-.3-4.52-.42-6.51-.23-3.56-.41-6.57-.53-9.2a101.84,101.84,0,0,1-.05-11.29q.1-1.67.27-3.27a97.5,97.5,0,0,1,1.43-9.67,114.64,114.64,0,0,1,3.07-11.87c.61-1.94,1.24-3.82,1.88-5.67.78-2.22,1.57-4.38,2.35-6.52,1.27-3.48,2.12-5.5,3-7.47s1.79-3.86,3.18-7.1c1-2.3,2.19-5.28,3.81-9.43,1.26-3.26,2.32-6.09,3.22-8.58,1.21-3.41,2.12-6.21,2.8-8.63a60.15,60.15,0,0,0,2-9.79c1-8.38.23-13.91,1-14,1.26-.14,3.95,14.89,5.47,23.85.2,1.17.38,2.23.53,3.15.57,3.41,1.07,6.37,1.51,9.06,1.24,7.67,2,13.05,2.49,19.94,0,.17,0,.33,0,.5.22,3,.45,6.26.59,9.85s.18,7.52,0,11.8c-.09,2.53-.24,5.19-.49,8-.05.61-.11,1.23-.17,1.86-.44,4.43-.9,9.08-1.75,14-.37,2.11-.81,4.28-1.35,6.51a87.72,87.72,0,0,1-3.27,10.52c-.5,1.3-1,2.63-1.63,4C269.06,331.51,268.62,332.46,268.17,333.37Z" transform="translate(-166.21 -31.5)"/><path class="cls-5" d="M213.35,276.68a18.79,18.79,0,0,1-4.85,1.82,23.07,23.07,0,0,1-9,0c-4.91-.74-4.8-1.89-8-2a15.12,15.12,0,0,0-7,1.7c.17-2.7.38-5.66.61-8.95a31.11,31.11,0,0,1,6.42.25c3.64.54,4.39,1.5,9,2a33.12,33.12,0,0,0,8,0,29.74,29.74,0,0,0,4.6-.95C213.22,272.52,213.3,274.54,213.35,276.68Z" transform="translate(-166.21 -31.5)"/><path class="cls-5" d="M201.71,225.14q1,3,2.15,6.44a49.38,49.38,0,0,1-6.36.92c-3.69.37-6.88.69-10.28-.36-.26-2.94-.63-5.27-1-7.9q2.34.54,5.3,1.26c3.48.84,4.29,1.18,6,1A11.16,11.16,0,0,0,201.71,225.14Z" transform="translate(-166.21 -31.5)"/><path class="cls-5" d="M213.38,298.55c-.09,2.48-.2,4.31-.27,5.91a20.72,20.72,0,0,1-8.61,0c-2.45-.54-2-1-8-3-3.79-1.28-5.68-1.92-7-2a13.53,13.53,0,0,0-4.93.65c0-.22,0-.44-.07-.65-.22-2-.36-4-.42-6.06a24.14,24.14,0,0,1,6.42.06,40.79,40.79,0,0,1,7,2c5.78,1.94,5.74,2.45,8,3A18.06,18.06,0,0,0,213.38,298.55Z" transform="translate(-166.21 -31.5)"/><path class="cls-6" d="M201.71,225.14a11.16,11.16,0,0,1-4.21,1.36c-1.71.18-2.52-.16-6-1q-3-.72-5.3-1.26c-.54-3.58-1.12-7.71-1.57-14.63l1.87-.11c4.2-.22,7.34-.21,9.72-.22C197.48,212.83,199.38,218.24,201.71,225.14Z" transform="translate(-166.21 -31.5)"/><path class="cls-6" d="M213.5,313.5c.16,1.26.38,2.9.72,4.84a22.74,22.74,0,0,1-8.72,3.16c-3.1.4-3.19-.32-10,0a41.5,41.5,0,0,0-6.12.63,91.17,91.17,0,0,1-4.81-22,13.53,13.53,0,0,1,4.93-.65c1.32.08,3.21.72,7,2,6,2,5.55,2.46,8,3a20.72,20.72,0,0,0,8.61,0A45.6,45.6,0,0,0,213.5,313.5Z" transform="translate(-166.21 -31.5)"/><path class="cls-6" d="M211.5,257.5a104.82,104.82,0,0,1,1.6,13.05,29.74,29.74,0,0,1-4.6.95,33.12,33.12,0,0,1-8,0c-4.61-.5-5.36-1.46-9-2a31.11,31.11,0,0,0-6.42-.25c.13-1.81.27-3.72.42-5.75.3-4.11.58-7.34.83-9.94a30.39,30.39,0,0,1,6.17-1.06c3.87-.22,3.52.67,10,1a46.4,46.4,0,0,0,8.14,0C211,254.85,211.25,256.16,211.5,257.5Z" transform="translate(-166.21 -31.5)"/><path class="cls-5" d="M194.5,204.5s.62,1.68,1.72,4.78c-2.38,0-5.52,0-9.72.22l-1.87.11c0-.68-.09-1.38-.13-2.11-.09-1.64-.16-3.16-.21-4.59a26.83,26.83,0,0,0,4.21.59,25.43,25.43,0,0,0,5.53-.28C194.18,203.63,194.33,204.05,194.5,204.5Z" transform="translate(-166.21 -31.5)"/><path class="cls-5" d="M208.9,247.16c.7,2.32,1.27,4.37,1.74,6.33a46.4,46.4,0,0,1-8.14,0c-6.48-.33-6.13-1.22-10-1a30.39,30.39,0,0,0-6.17,1.06c.35-3.77.65-6.23.86-8.18a35.47,35.47,0,0,1,6.31.12c4.84.49,4.54,1.69,9,2A27.7,27.7,0,0,0,208.9,247.16Z" transform="translate(-166.21 -31.5)"/><path class="cls-6" d="M190.5,191.5c.54,3.8,1.37,5.91,3.53,11.72a25.43,25.43,0,0,1-5.53.28,26.83,26.83,0,0,1-4.21-.59,62.7,62.7,0,0,1,1.21-16.41c1.85-8.56,5.22-15.22,6-15S188.88,180.18,190.5,191.5Z" transform="translate(-166.21 -31.5)"/><path class="cls-6" d="M208.9,247.16a27.7,27.7,0,0,1-6.4.34c-4.46-.31-4.16-1.51-9-2a35.47,35.47,0,0,0-6.31-.12,50,50,0,0,0,.31-8.88c-.07-1.63-.16-3.05-.28-4.36,3.4,1.05,6.59.73,10.28.36a49.38,49.38,0,0,0,6.36-.92c.21.63.43,1.27.64,1.92C206.38,239.19,207.81,243.51,208.9,247.16Z" transform="translate(-166.21 -31.5)"/><path class="cls-5" d="M214.22,318.34a81.87,81.87,0,0,0,1.87,8.26,19.48,19.48,0,0,1-7.59,2.9c-4.72.83-5.21-.88-10,0a19.22,19.22,0,0,0-5.15,1.73c-.3-.6-.58-1.18-.85-1.73a75.64,75.64,0,0,1-3.12-7.37,41.5,41.5,0,0,1,6.12-.63c6.81-.32,6.9.4,10,0A22.74,22.74,0,0,0,214.22,318.34Z" transform="translate(-166.21 -31.5)"/><path class="cls-6" d="M220.5,338.5c6.37,13.56,13.71,18.6,12,21-1.94,2.72-13.41-.95-22-7-9.28-6.53-14-15-17.15-21.27a19.22,19.22,0,0,1,5.15-1.73c4.79-.88,5.28.83,10,0a19.48,19.48,0,0,0,7.59-2.9A76.22,76.22,0,0,0,220.5,338.5Z" transform="translate(-166.21 -31.5)"/><path class="cls-6" d="M213.5,288.5c0,4.32,0,7.52-.12,10.05a18.06,18.06,0,0,1-7.88-.05c-2.26-.55-2.22-1.06-8-3a40.79,40.79,0,0,0-7-2,24.14,24.14,0,0,0-6.42-.06c-.14-4.35,0-9.14.39-15.24a15.12,15.12,0,0,1,7-1.7c3.2.11,3.09,1.26,8,2a23.07,23.07,0,0,0,9,0,18.79,18.79,0,0,0,4.85-1.82C213.45,280.21,213.47,284.06,213.5,288.5Z" transform="translate(-166.21 -31.5)"/><path class="cls-3" d="M193.35,331.23c3.11,6.27,7.87,14.74,17.15,21.27,8.59,6.05,20.06,9.72,22,7,1.71-2.4-5.63-7.44-12-21a76.22,76.22,0,0,1-4.41-11.9,81.87,81.87,0,0,1-1.87-8.26c-.34-1.94-.56-3.58-.72-4.84a45.6,45.6,0,0,1-.39-9c.07-1.6.18-3.43.27-5.91s.15-5.73.12-10.05-.05-8.29-.15-11.82c0-2.14-.13-4.16-.25-6.13a104.82,104.82,0,0,0-1.6-13.05c-.25-1.34-.53-2.65-.86-4-.47-2-1-4-1.74-6.33-1.09-3.65-2.52-8-4.4-13.66-.21-.65-.43-1.29-.64-1.92q-1.12-3.41-2.15-6.44c-2.33-6.9-4.23-12.31-5.49-15.86-1.1-3.1-1.72-4.78-1.72-4.78-.17-.45-.32-.87-.47-1.28-2.16-5.81-3-7.92-3.53-11.72-1.62-11.32,1.86-19.75,1-20s-4.15,6.44-6,15a62.7,62.7,0,0,0-1.21,16.41c.05,1.43.12,3,.21,4.59,0,.73.08,1.43.13,2.11.45,6.92,1,11,1.57,14.63.39,2.63.76,5,1,7.9.12,1.31.21,2.73.28,4.36a50,50,0,0,1-.31,8.88c-.21,2-.51,4.41-.86,8.18-.25,2.6-.53,5.83-.83,9.94-.15,2-.29,3.94-.42,5.75-.23,3.29-.44,6.25-.61,8.95-.37,6.1-.53,10.89-.39,15.24.06,2.09.2,4.07.42,6.06,0,.21.05.43.07.65a91.17,91.17,0,0,0,4.81,22,75.64,75.64,0,0,0,3.12,7.37C192.77,330.05,193.05,330.63,193.35,331.23Z" transform="translate(-166.21 -31.5)"/><path class="cls-7" d="M178.42,349.85c-.31,1.12-.21,5.23,0,13.45.35,13.93.53,20.9,2.24,29.14a76.27,76.27,0,0,0,6.73,20.18,57.78,57.78,0,0,0,11.21,15.69,49.16,49.16,0,0,0,9,6.73s2.13,1.22,4.48,2.24c12.67,5.51,46.43,5.6,60.53,0a27.21,27.21,0,0,0,4.48-2.24,30.07,30.07,0,0,0,9-9,115.43,115.43,0,0,0,11.21-20.18A108.88,108.88,0,0,0,304,381.23c1.46-9.93,3.95-22.17,0-31.38Z" transform="translate(-166.21 -31.5)"/><path class="cls-7" d="M309.56,355.45H173.94a6.73,6.73,0,0,1,0-13.45H309.56a6.73,6.73,0,0,1,0,13.45Z" transform="translate(-166.21 -31.5)"/><path class="cls-7" d="M195,432.79h94.15a1.75,1.75,0,0,1,1.37,2.84l-6.17,7.71a1.75,1.75,0,0,1-1.37.66H199.59a1.75,1.75,0,0,1-1.5-.85l-4.63-7.71A1.75,1.75,0,0,1,195,432.79Z" transform="translate(-166.21 -31.5)"/><path class="cls-8" d="M185,360h66c4,11,6.59,26.93-2,39-6.76,9.5-16.6,13-20,14a38.41,38.41,0,0,1-18,1s-13.89-5-19-13C185,390,184,378,185,360Z" transform="translate(-166.21 -31.5)"/><rect class="cls-8" x="6.79" y="312.5" width="97" height="4" rx="2" ry="2"/><rect class="cls-8" x="31.79" y="403.5" width="58" height="3" rx="1.5" ry="1.5"/><rect class="cls-9" x="5.79" y="318.5" width="138" height="3" rx="1.5" ry="1.5"/><rect class="cls-9" x="33.79" y="408.5" width="82" height="2" rx="1" ry="1"/><path class="cls-9" d="M265,360c2,4,1.9,7.14,2,19a50.79,50.79,0,0,1-4,20,40.11,40.11,0,0,1-9,14,39.12,39.12,0,0,1-15,9c-4.71,1.54-8.42,1.75-13,2-5.2.29-10,.56-16-1-4.73-1.24-7.33-2.89-8-2s1.29,4.16,4,6a13.12,13.12,0,0,0,7,2c8.38.52,56,0,56,0,4.17-1.82,6.8-5,8-6,3.72-3.27,6.18-7.17,9-14,2.74-6.63,4.72-13.33,7-25,2.74-14,3-18,2-24Z" transform="translate(-166.21 -31.5)"/><path class="cls-4" d="M189,307a12.84,12.84,0,0,0,3,6c.83.91,2.56,2.79,5,3,3.53.3,6.28-3.11,7-4,3.69-4.58,3.31-10.41,3-16-1.2-21.93.1-15.9-1-26a198,198,0,0,0-5-29c-1.67-6.58-1.64-4.91-6-20-3.75-13-5.2-19.13-6-19s-.37,7.26,0,11c.93,9.41,2.59,11.68,4,22a89.62,89.62,0,0,1,1,13,96.19,96.19,0,0,1-1,13c-1.58,12.73-2.37,19.1-3,23C189.18,289,187.38,299.6,189,307Z" transform="translate(-166.21 -31.5)"/><path class="cls-4" d="M245,311a24,24,0,0,0,0,7c.52,3.58,2.15,9,4,9,1.26,0,2.18-2.46,4-8,4.71-14.34,5.82-20.07,7-20s2.13,5.26,2,10c-.18,6.88-2.72,10.47-1,12,1.31,1.17,4.25.38,6-1,2.3-1.8,2.67-4.69,3-7,1.76-12.22,1.92-4.16,3-16,.86-9.4,1.33-14.56,1-22-.42-9.43-1.5-8.61-3-24-.9-9.27-.93-13.89-2-14-.8-.08-1.74,2.39-5,14-3.78,13.48-4,15.27-6,22-2.8,9.21-4.2,13.82-7,20C249.29,296.78,246.19,303.08,245,311Z" transform="translate(-166.21 -31.5)"/></svg>