<?xml version="1.0" encoding="utf-8"?>
<!-- Generator: Adobe Illustrator 21.0.0, SVG Export Plug-In . SVG Version: 6.00 Build 0)  -->
<svg version="1.1" id="Capa_1" xmlns="http://www.w3.org/2000/svg" xmlns:xlink="http://www.w3.org/1999/xlink" x="0px" y="0px"
	 viewBox="0 0 512 512" style="enable-background:new 0 0 512 512;" xml:space="preserve">
<style type="text/css">
	.st0{fill:#40596B;}
	.st1{fill:#CDD6E0;}
	.st2{fill:#FFFFFF;}
	.st3{fill:#F2F2F2;}
	.st4{fill:#C3D0DB;}
	.st5{fill:#55BFE9;}
	.st6{fill:#FFD15C;}
</style>
<path class="st0" d="M478.5,83c0-10.6-8.5-19.2-19.2-19.2H49.5c-10.6,0-18.1,8.5-18.1,19.2v280h447.1V83z"/>
<path class="st1" d="M390.1,499.2h-17c-16,0-27.7-12.8-27.7-27.7v-40.5h-181v40.4c0,16-12.8,27.7-27.7,27.7h-17
	c-3.2,0-6.4,2.1-6.4,6.4l0,0c0,3.2,2.1,6.4,6.4,6.4h270.4c3.2,0,6.4-2.1,6.4-6.4l0,0C396.5,501.4,393.3,499.2,390.1,499.2z"/>
<line id="SVGCleanerId_0_3_" class="st2" x1="59.1" y1="335.3" x2="59.1" y2="92.6"/>
<line id="SVGCleanerId_0_2_" class="st2" x1="450.8" y1="92.6" x2="450.8" y2="335.3"/>
<g>
	<rect id="SVGCleanerId_0_1_" x="59.1" y="92.6" class="st2" width="391.7" height="242.7"/>
</g>
<path class="st3" d="M31.4,363v49c0,10.6,8.5,19.2,19.2,19.2h410.9c10.6,0,19.2-8.5,19.2-19.2v-49H31.4L31.4,363z"/>
<circle class="st1" cx="254.9" cy="397" r="14.9"/>
<rect x="164.5" y="430" class="st4" width="181" height="13.8"/>
<path class="st5" d="M379.5,311.9v5.3V311.9z"/>
<path class="st6" d="M379.5,317.2"/>
</svg>
