<?xml version="1.0" encoding="utf-8"?>
<!-- Generator: Adobe Illustrator 21.0.0, SVG Export Plug-In . SVG Version: 6.00 Build 0)  -->
<svg version="1.1" id="Capa_1" xmlns="http://www.w3.org/2000/svg" xmlns:xlink="http://www.w3.org/1999/xlink" x="0px" y="0px"
	 viewBox="0 0 512 512" style="enable-background:new 0 0 512 512;" xml:space="preserve">
<style type="text/css">
	.st0{fill:#40596B;}
	.st1{fill:#CDD6E0;}
	.st2{fill:#FFFFFF;}
	.st3{fill:#F2F2F2;}
	.st4{fill:#C3D0DB;}
</style>
<path class="st0" d="M512,33.6c0-11.7-9.6-21.3-21.3-21.3H21.3C9.6,12.3,0,21.9,0,33.6v298.7h512V33.6z"/>
<path class="st1" d="M410.7,486.9h-19.2c-18.1,0-32-13.9-32-32V408h-207v46.9c0,18.1-13.9,32-32,32h-19.2c-3.2,0-6.4,3.2-6.4,6.4
	l0,0c0,3.2,3.2,6.4,6.4,6.4h309.3c3.2,0,6.4-3.2,6.4-6.4l0,0C417.1,490.1,413.9,486.9,410.7,486.9z"/>
<rect x="32" y="44.3" class="st2" width="448" height="288"/>
<path class="st3" d="M0,332.3v55.5c0,11.7,9.6,21.3,21.3,21.3h469.3c11.7,0,21.3-9.6,21.3-21.3v-55.5H0L0,332.3z"/>
<circle class="st1" cx="256" cy="370.7" r="17.1"/>
<rect x="152.5" y="409.1" class="st4" width="205.9" height="16"/>
</svg>
