<?xml version="1.0" encoding="utf-8"?>
<!-- Generator: Adobe Illustrator 21.0.0, SVG Export Plug-In . SVG Version: 6.00 Build 0)  -->
<svg version="1.1" id="Capa_1" xmlns="http://www.w3.org/2000/svg" xmlns:xlink="http://www.w3.org/1999/xlink" x="0px" y="0px"
	 viewBox="0 0 512 512" style="enable-background:new 0 0 512 512;" xml:space="preserve">
<style type="text/css">
	.st0{fill:#ACB3BA;}
	.st1{fill:#FFFFFF;}
	.st2{fill:#F2F2F2;}
	.st3{fill:#CDD6E0;}
	.st4{fill:#40596B;}
</style>
<path class="st0" d="M488.5,442.1h-465V118.9c0-11.7,9.6-21.3,21.3-21.3h422.4c11.7,0,21.3,9.6,21.3,21.3L488.5,442.1L488.5,442.1z"
	/>
<rect x="58.7" y="132.8" class="st1" width="394.7" height="253.9"/>
<path class="st2" d="M20.3,462.4h471.5c11.7,0,20.3-9.6,20.3-20.3H0C0,453.9,9.6,462.4,20.3,462.4z"/>
<path class="st3" d="M491.7,421.9H311.5c-6.4,0-11.7,3.2-17.1,5.3c-1.1,1.1-2.1,1.1-3.2,1.1h-70.4c-1.1,0-2.1,0-3.2-1.1
	c-5.3-3.2-10.7-5.3-17.1-5.3H20.3C8.5,421.9,0,431.5,0,442.1h512C512,430.4,502.4,421.9,491.7,421.9z"/>
<g>
	<circle class="st4" cx="266.7" cy="115.7" r="6.4"/>
</g>
</svg>
