<?xml version="1.0" encoding="utf-8"?>
<!-- Generator: Adobe Illustrator 21.0.0, SVG Export Plug-In . SVG Version: 6.00 Build 0)  -->
<svg version="1.1" id="Capa_1" xmlns="http://www.w3.org/2000/svg" xmlns:xlink="http://www.w3.org/1999/xlink" x="0px" y="0px"
	 viewBox="0 0 512 512" style="enable-background:new 0 0 512 512;" xml:space="preserve">
<style type="text/css">
	.st0{fill:#F2F2F2;}
	.st1{fill:#40596B;}
	.st2{fill:#FFFFFF;}
	.st3{fill:#CDD6E0;}
	.st4{fill:#BDCCDB;}
</style>
<path class="st0" d="M457.5,425.6H54.3c-11.7,0-21.3-9.6-21.3-21.3V368h445.9v36.3C478.9,416,469.3,425.6,457.5,425.6z"/>
<path class="st1" d="M479,367.9H33.1V94.8c0-11.7,9.6-21.3,21.3-21.3h403.2c11.7,0,21.3,9.6,21.3,21.3L479,367.9L479,367.9z"/>
<rect x="54.3" y="94.9" class="st2" width="403.2" height="251.7"/>
<polygon class="st3" points="341.3,473.6 170.6,473.6 197.3,425.6 314.6,425.6 "/>
<path class="st0" d="M395.7,512H116.2l0,0c0-21.3,17.1-38.4,38.4-38.4h202.7C378.6,473.6,395.7,490.7,395.7,512L395.7,512z"/>
<circle class="st3" cx="255.9" cy="396.8" r="9.6"/>
<polygon class="st4" points="323.1,441.6 188.7,441.6 197.3,425.6 314.6,425.6 "/>
</svg>
