<?xml version="1.0" encoding="utf-8"?>
<!-- Generator: Adobe Illustrator 21.0.0, SVG Export Plug-In . SVG Version: 6.00 Build 0)  -->
<svg version="1.1" id="Слой_1" xmlns="http://www.w3.org/2000/svg" xmlns:xlink="http://www.w3.org/1999/xlink" x="0px" y="0px"
	 viewBox="0 0 630 165" style="enable-background:new 0 0 630 165;" xml:space="preserve">
<style type="text/css">
	.st0{fill:#FFFFFF;}
	.st1{fill:#4D7892;}
	.st2{fill:#093C4C;}
</style>
<polygon class="st0" points="207,0 57.3,16.7 130.5,165 321,165 "/>
<polygon class="st1" points="548.3,155.7 82.6,155.7 0,8.3 630.3,8.3 "/>
<polygon class="st0" points="111.8,165 207,0 16.5,0 "/>
<g>
	<g>
		<g>
			<path class="st2" d="M127.6,89.8c-0.8-0.2-1.6,0.3-1.8,1.1l-1.5,5.8c-0.2,0.8,0.3,1.6,1.1,1.8c0.1,0,0.2,0,0.4,0
				c0.7,0,1.2-0.4,1.4-1.1l1.5-5.8C128.8,90.7,128.3,90,127.6,89.8z"/>
			<path class="st2" d="M109.8,60.6c0.2,0,0.4,0,0.6-0.1l16-6.6c0.7-0.3,1.1-1.2,0.8-1.9c-0.3-0.7-1.2-1.1-1.9-0.8l-15.4,6.4
				L69,40.8v-0.5c0-0.8-0.7-1.5-1.5-1.5S66,39.5,66,40.3v1.5c0,0.6,0.4,1.1,0.9,1.3l42.2,17.5C109.4,60.6,109.6,60.6,109.8,60.6z"/>
			<path class="st2" d="M127.1,75.5c-0.4-0.7-1.2-1-1.9-0.7c-2.8,1.4-7.4,3-13.9,3.2V65c0-0.8-0.7-1.5-1.5-1.5s-1.5,0.7-1.5,1.5v13
				c-18.1-0.6-23.9-11.5-24.7-13.3v-9.9c0-0.8-0.7-1.5-1.5-1.5s-1.5,0.7-1.5,1.5V65c0,0.2,0,0.4,0.1,0.5c0.3,0.6,6.4,15.5,29,15.5
				c7.9,0,13.4-1.9,16.6-3.5C127.1,77.1,127.4,76.2,127.1,75.5z"/>
			<path class="st2" d="M131.6,91.2c-0.8,0-1.5,0.7-1.5,1.5V97c0,0.8,0.7,1.5,1.5,1.5s1.5-0.7,1.5-1.5v-4.4
				C133,91.8,132.4,91.2,131.6,91.2z"/>
			<path class="st2" d="M151.9,38.8c-0.8,0-1.5,0.7-1.5,1.5v0.5L133,47.9v-2.6l19.5-8.1c0.5-0.2,0.9-0.8,0.9-1.3
				c0-0.6-0.4-1.1-0.9-1.3l-42.2-17.5c-0.4-0.1-0.8-0.1-1.1,0L67,34.6c-0.5,0.2-0.9,0.8-0.9,1.3c0,0.6,0.4,1.1,0.9,1.3l42.2,17.5
				c0.2,0.1,0.4,0.1,0.6,0.1s0.4,0,0.6-0.1l15.3-6.3c0.7-0.3,1.1-1.2,0.8-1.9c-0.3-0.7-1.2-1.1-1.9-0.8l-14.7,6.1L71.4,35.9
				L109.8,20l38.4,15.9l-16.7,6.9l-16-6c0.1-0.3,0.1-0.6,0.1-0.9c0-2.4-2.6-4.4-5.8-4.4c-3.3,0-5.8,1.9-5.8,4.4
				c0,2.4,2.6,4.4,5.8,4.4c1.5,0,2.8-0.4,3.8-1l16.6,6.2v4.7l0,0v31.2c-1.7,0.6-2.9,2.2-2.9,4.1c0,2.4,2,4.4,4.4,4.4s4.4-2,4.4-4.4
				c0-1.9-1.2-3.5-2.9-4.1V73c4.2-3.2,5.7-7.3,5.7-7.5c0.1-0.2,0.1-0.3,0.1-0.5V54.8c0-0.8-0.7-1.5-1.5-1.5S136,54,136,54.8v9.9
				c-0.3,0.6-1.1,2.5-2.9,4.4v-18l19.5-8c0.5-0.2,0.9-0.8,0.9-1.3v-1.5C153.4,39.5,152.7,38.8,151.9,38.8z M109.8,37.4
				c-1.8,0-2.9-0.9-2.9-1.5s1.1-1.5,2.9-1.5s2.9,0.9,2.9,1.5C112.7,36.5,111.5,37.4,109.8,37.4z M131.6,86.8c-0.8,0-1.5-0.7-1.5-1.5
				s0.7-1.5,1.5-1.5s1.5,0.7,1.5,1.5C133,86.2,132.4,86.8,131.6,86.8z"/>
			<path class="st2" d="M137.4,90.8c-0.2-0.8-1-1.3-1.8-1.1c-0.8,0.2-1.3,1-1.1,1.8l1.5,5.8c0.2,0.7,0.8,1.1,1.4,1.1
				c0.1,0,0.2,0,0.4,0c0.8-0.2,1.3-1,1.1-1.8L137.4,90.8z"/>
		</g>
	</g>
</g>
</svg>
