<?xml version="1.0" encoding="utf-8"?>
<!-- Generator: Adobe Illustrator 21.0.0, SVG Export Plug-In . SVG Version: 6.00 Build 0)  -->
<svg version="1.1" id="Слой_1" xmlns="http://www.w3.org/2000/svg" xmlns:xlink="http://www.w3.org/1999/xlink" x="0px" y="0px"
	 viewBox="0 0 630 165" style="enable-background:new 0 0 630 165;" xml:space="preserve">
<style type="text/css">
	.st0{fill:#FFFFFF;}
	.st1{fill:#093C4C;}
</style>
<polygon class="st0" points="423.3,0 573,16.7 499.8,165 309.3,165 "/>
<polygon class="st1" points="82,155.7 547.7,155.7 630.3,8.3 0,8.3 "/>
<polygon class="st0" points="518.5,165 423.3,0 613.8,0 "/>
<g>
	<g>
		<path class="st1" d="M550.5,29.2c-3.7-3.7-8.6-5.9-13.9-6.1c-0.7,0-1.2,0.5-1.3,1.2s0.5,1.2,1.2,1.3c4.6,0.2,9,2.1,12.2,5.4
			c6.9,6.9,7.2,17.9,0.9,25.1l-26-26c2.4-2.1,5.3-3.5,8.4-4.1c0.7-0.1,1.1-0.8,0.9-1.4c-0.1-0.7-0.8-1.1-1.4-0.9
			c-4,0.8-7.7,2.8-10.6,5.7c0,0-0.1,0.1-0.1,0.1l-9.7,7.5l-19.1,14.5c-0.3,0.2-0.4,0.5-0.5,0.8c0,0.3,0,0.6,0.2,0.9l2.7,3.6
			c0.2,0.3,0.6,0.5,1,0.5c0.3,0,0.5-0.1,0.7-0.2l12.1-9.2c0.5-0.4,0.6-1.2,0.2-1.7c-0.4-0.5-1.2-0.6-1.7-0.2l-11.2,8.4l-1.2-1.6
			l17.3-13.1l3.1,3.1c0,0,0,0,0,0.1c-0.3,4.5,0.9,9.1,3.4,12.8l-11.5,11.5c-0.5,0.5-0.5,1.2,0,1.7l3.2,3.2c0.2,0.2,0.5,0.4,0.9,0.4
			c0.3,0,0.6-0.1,0.9-0.4L523,60.5c3.7,2.9,8.1,4.4,12.8,4.4c0.5,0,1,0,1.4,0c0,0,0,0,0.1,0l3.3,3.3l-13,17.4l-1.6-1.2l8.4-11.2
			c0.4-0.5,0.3-1.3-0.2-1.7c-0.5-0.4-1.3-0.3-1.7,0.2l-9.2,12.1c-0.4,0.5-0.3,1.3,0.2,1.7l3.6,2.7c0.2,0.2,0.5,0.2,0.7,0.2
			c0.1,0,0.1,0,0.2,0c0.3,0,0.6-0.2,0.8-0.5l14-18.7c0.2-0.1,0.4-0.2,0.5-0.4l7.4-10.2C558.6,50.4,558.6,37.3,550.5,29.2z
			 M517.3,44.9l5.7,5.7l-3,3C518.4,51,517.5,48,517.3,44.9z M510.8,69.2l-1.4-1.4l15.4-15.4l1.4,1.4L510.8,69.2z M524.7,58.7
			l3.3-3.3l6.9,6.9C531.2,62.2,527.6,61,524.7,58.7z M542,66.1l-28.2-28.2l8.2-6.2l26.2,26.2L542,66.1z"/>
	</g>
</g>
<g>
	<g>
		<path class="st1" d="M539.9,9.5c-1.7-1.7-4.6-1.7-6.3,0c-1.7,1.7-1.7,4.6,0,6.3c0.9,0.9,2,1.3,3.2,1.3c1.1,0,2.3-0.4,3.2-1.3
			C541.6,14.1,541.6,11.3,539.9,9.5z M538.2,14.1c-0.8,0.8-2.1,0.8-2.9,0c-0.8-0.8-0.8-2.1,0-2.9c0.4-0.4,0.9-0.6,1.5-0.6
			s1.1,0.2,1.5,0.6C539,12,539,13.3,538.2,14.1z"/>
	</g>
</g>
<g>
	<g>
		<path class="st1" d="M555.2,70.4c-0.8-0.8-2-1.3-3.2-1.3c-1.2,0-2.3,0.5-3.2,1.3c-1.7,1.7-1.7,4.6,0,6.3c0.8,0.8,2,1.3,3.2,1.3
			c1.2,0,2.3-0.5,3.2-1.3C556.9,75,556.9,72.2,555.2,70.4z M553.5,75.1c-0.4,0.4-0.9,0.6-1.5,0.6c-0.6,0-1.1-0.2-1.5-0.6
			c-0.8-0.8-0.8-2.1,0-2.9c0.4-0.4,0.9-0.6,1.5-0.6s1.1,0.2,1.5,0.6C554.3,72.9,554.3,74.3,553.5,75.1z"/>
	</g>
</g>
<g>
	<g>
		<path class="st1" d="M565.9,52.1c-0.8-0.8-2-1.3-3.2-1.3c-1.2,0-2.3,0.5-3.2,1.3c-0.8,0.8-1.3,2-1.3,3.2c0,1.2,0.5,2.3,1.3,3.2
			c0.8,0.8,2,1.3,3.2,1.3c1.2,0,2.3-0.5,3.2-1.3c0.8-0.8,1.3-2,1.3-3.2C567.2,54.1,566.8,52.9,565.9,52.1z M564.2,56.7
			c-0.4,0.4-0.9,0.6-1.5,0.6s-1.1-0.2-1.5-0.6c-0.4-0.4-0.6-0.9-0.6-1.5c0-0.6,0.2-1.1,0.6-1.5s0.9-0.6,1.5-0.6
			c0.6,0,1.1,0.2,1.5,0.6C565,54.6,565,55.9,564.2,56.7z"/>
	</g>
</g>
<g>
	<g>
		<path class="st1" d="M524.3,19l-0.8-1.2l0.4-1.4c0.1-0.4,0-0.9-0.3-1.2c-0.3-0.3-0.7-0.4-1.2-0.3l-1.4,0.4l-1.2-0.8
			c-0.4-0.2-0.8-0.2-1.2-0.1c-0.4,0.2-0.6,0.6-0.7,1l-0.1,1.4l-1.1,0.9c-0.3,0.3-0.5,0.7-0.4,1.1c0.1,0.4,0.4,0.8,0.7,0.9l1.3,0.5
			l0.5,1.3c0.2,0.4,0.5,0.7,0.9,0.7c0.1,0,0.1,0,0.2,0c0.4,0,0.7-0.2,0.9-0.4l0.9-1.1l1.4-0.1c0.4,0,0.8-0.3,1-0.7
			C524.6,19.8,524.6,19.3,524.3,19z M520.5,18.9c-0.1-0.2-0.3-0.4-0.5-0.5c0.2-0.2,0.3-0.4,0.3-0.7c0.2,0.1,0.5,0.2,0.8,0.1
			c0,0.3,0,0.5,0.1,0.8C520.9,18.6,520.7,18.7,520.5,18.9z"/>
	</g>
</g>
<g>
	<g>
		<path class="st1" d="M504,59.5c-0.5-0.5-1.2-0.5-1.7,0l-8.8,8.8c-0.5,0.5-0.5,1.2,0,1.7c0.2,0.2,0.5,0.4,0.9,0.4
			c0.3,0,0.6-0.1,0.9-0.4l8.8-8.8C504.5,60.8,504.5,60,504,59.5z"/>
	</g>
</g>
<g>
	<g>
		<path class="st1" d="M519.1,74.6c-0.5-0.5-1.2-0.5-1.7,0L505.1,87c-0.5,0.5-0.5,1.2,0,1.7c0.2,0.2,0.5,0.4,0.9,0.4
			c0.3,0,0.6-0.1,0.9-0.4l12.3-12.3C519.6,75.9,519.6,75.1,519.1,74.6z"/>
	</g>
</g>
<g>
	<g>
		<path class="st1" d="M504.8,73.8c-0.5-0.5-1.2-0.5-1.7,0l-14.3,14.3c-0.5,0.5-0.5,1.2,0,1.7c0.2,0.2,0.5,0.4,0.9,0.4
			s0.6-0.1,0.9-0.4l14.3-14.3C505.3,75.1,505.3,74.3,504.8,73.8z"/>
	</g>
</g>
</svg>
