<?xml version="1.0" encoding="utf-8"?>
<!-- Generator: Adobe Illustrator 21.0.0, SVG Export Plug-In . SVG Version: 6.00 Build 0)  -->
<svg version="1.1" id="Слой_1" xmlns="http://www.w3.org/2000/svg" xmlns:xlink="http://www.w3.org/1999/xlink" x="0px" y="0px"
	 viewBox="0 0 630 165" style="enable-background:new 0 0 630 165;" xml:space="preserve">
<style type="text/css">
	.st0{fill:#FFFFFF;}
	.st1{fill:#093C4C;}
</style>
<polygon class="st0" points="207,0 57.3,16.7 130.5,165 321,165 "/>
<polygon class="st1" points="548.3,155.7 82.6,155.7 0,8.3 630.3,8.3 "/>
<polygon class="st0" points="111.8,165 207,0 16.5,0 "/>
<g>
	<g>
		<circle class="st1" cx="91.8" cy="80.4" r="1.7"/>
	</g>
</g>
<g>
	<g>
		<path class="st1" d="M141.9,68.7c0.3-0.6,0.6-1.2,0.6-1.9v-0.6c0-2-1.6-3.6-3.6-3.6h-11.3c-0.2,0-0.5,0-0.7,0.1l2-10.2
			c0.3-1.5,0.3-3,0.1-4.4c-0.4-2.3-1.6-5.1-5.3-5.1c-0.5,0-1,0.4-1.1,0.9l-0.7,4.2c-0.3,1.7-0.7,3.2-1.1,4.7c-1.3,4-3,6.1-6,7.4
			c-1.4,0.6-2.6,1.1-3.1,1.3h-4.5v-0.9c0-0.6-0.5-1.1-1.1-1.1h-7.4v-1.2c0-0.6-0.5-1.1-1.1-1.1H79.3c-0.6,0-1.1,0.5-1.1,1.1v6.4
			c0,0.6,0.5,1.1,1.1,1.1c0.6,0,1.1-0.5,1.1-1.1v-5.4h16.1v1.2v24.4H80.4V68.3c0-0.6-0.5-1.1-1.1-1.1c-0.6,0-1.1,0.5-1.1,1.1v17.7
			c0,0.6,0.5,1.1,1.1,1.1h18.3c0.6,0,1.1-0.5,1.1-1.1v-1.2h7.4c0.6,0,1.1-0.5,1.1-1.1v-0.5h4.3l2.3,1.9c2,1.6,4.4,2.5,6.9,2.5h6.6
			c0,0,0,0,0,0c0.1,0,0.3,0,0.4,0h7.8c2.2,0,3.9-1.8,3.9-3.9c0-0.7-0.2-1.3-0.4-1.8c1.9-0.3,3.4-1.9,3.4-3.9c0-0.8-0.2-1.6-0.7-2.2
			c1.2-0.6,2-1.8,2-3.2v-0.6C143.8,70.5,143,69.3,141.9,68.7z M127.5,64.7h11.3v0c0.8,0,1.5,0.7,1.5,1.5v0.6c0,0.8-0.7,1.5-1.5,1.5
			h-11.3c-0.8,0-1.5-0.7-1.5-1.5v-0.6c0.1-0.3,0.1-0.5,0.2-0.7C126.5,65,126.9,64.7,127.5,64.7z M123.8,83.6c0,0.6,0.1,1.2,0.4,1.7
			h-3.5c-2,0-4-0.7-5.6-2l-2.6-2.1c-0.2-0.2-0.4-0.2-0.7-0.2h-4.7v-3.1c0-0.6-0.5-1.1-1.1-1.1s-1.1,0.5-1.1,1.1v4.2v0.5h-6.3v-21
			h6.3v0.9v11.8v0c0,0.6,0.5,1.1,1.1,1.1c0.6,0,1.1-0.5,1.1-1.1v0V63.5h4.7c0.2,0,0.3,0,0.5-0.1c0,0,1.4-0.6,3.2-1.4
			c3.6-1.5,5.7-4,7.2-8.7c0.5-1.6,0.9-3.2,1.2-5l0.5-3.2c1.3,0.3,2,1.3,2.3,3.2c0.2,1.2,0.2,2.4-0.1,3.6l-2.3,11.7c0,0,0,0,0,0.1
			c0,0-0.1,0.4-0.2,1.1c-0.1,0.3-0.2,0.7-0.3,1.1c-0.9,3.1-3.1,8.3-8.1,8.3c-0.6,0-1.1,0.5-1.1,1.1c0,0.6,0.5,1.1,1.1,1.1
			c3.4,0,6.2-1.7,8.2-5c0,0.2,0,0.4,0,0.6v0.6c0,1,0.4,2,1.1,2.6c-0.7,0.7-1.1,1.7-1.1,2.8c0,1.1,0.5,2.1,1.2,2.9
			C124.3,81.5,123.8,82.5,123.8,83.6z M135.5,85.4h-7.8c-1,0-1.8-0.8-1.8-1.8s0.8-1.8,1.8-1.8h7.8c1,0,1.8,0.8,1.8,1.8
			C137.3,84.6,136.5,85.4,135.5,85.4z M138.5,79.7h-2.9h-7.8c-1,0-1.8-0.8-1.8-1.8c0-1,0.8-1.8,1.8-1.8h10.7c1,0,1.8,0.8,1.8,1.8
			C140.3,78.9,139.5,79.7,138.5,79.7z M141.6,72.5c0,0.8-0.7,1.5-1.5,1.5h-1.6h-10.7h-0.3c-0.8,0-1.5-0.7-1.5-1.5v-0.6
			c0-0.8,0.7-1.5,1.5-1.5h11.3h1.3c0.8,0,1.5,0.7,1.5,1.5L141.6,72.5L141.6,72.5z"/>
	</g>
</g>
<g>
	<g>
		<path class="st1" d="M100,29.2c-0.2-0.7-0.9-1.3-1.6-1.4l-4.9-0.7l-2.2-4.5c-0.3-0.7-1-1.1-1.8-1.1c-0.8,0-1.5,0.4-1.8,1.1
			l-2.2,4.5l-4.9,0.7c-0.8,0.1-1.4,0.6-1.6,1.4c-0.2,0.7,0,1.5,0.5,2.1l3.6,3.5l-0.8,4.9c-0.1,0.8,0.2,1.5,0.8,2
			c0.4,0.3,0.8,0.4,1.2,0.4c0.3,0,0.6-0.1,0.9-0.2l4.4-2.3l4.4,2.3c0.7,0.4,1.5,0.3,2.1-0.2c0.6-0.5,0.9-1.2,0.8-2L96,34.8l3.6-3.5
			C100.1,30.7,100.3,29.9,100,29.2z M94.4,33.3c-0.5,0.5-0.7,1.1-0.6,1.8l0.8,4.7l-4.2-2.2c-0.6-0.3-1.3-0.3-1.9,0l-4.2,2.2l0.8-4.7
			c0.1-0.7-0.1-1.3-0.6-1.8l-3.4-3.3l4.7-0.7c0.7-0.1,1.2-0.5,1.5-1.1l2.1-4.3l2.1,4.3c0.3,0.6,0.9,1,1.5,1.1l4.7,0.7L94.4,33.3z"/>
	</g>
</g>
<g>
	<g>
		<path class="st1" d="M122.9,21.2c-0.2-0.7-0.9-1.3-1.6-1.4l-4.9-0.7l-2.2-4.5c-0.3-0.7-1-1.1-1.8-1.1c-0.8,0-1.5,0.4-1.8,1.1
			l-2.2,4.5l-4.9,0.7c-0.8,0.1-1.4,0.6-1.6,1.4c-0.2,0.7,0,1.5,0.5,2.1l3.6,3.5l-0.8,4.9c-0.1,0.8,0.2,1.5,0.8,2
			c0.6,0.5,1.4,0.5,2.1,0.2l4.4-2.3l4.4,2.3c0.3,0.2,0.6,0.2,0.9,0.2c0.4,0,0.8-0.1,1.2-0.4c0.6-0.5,0.9-1.2,0.8-2l-0.8-4.9l3.6-3.5
			C122.9,22.8,123.1,22,122.9,21.2z M117.2,25.3c-0.5,0.5-0.7,1.1-0.6,1.8l0.8,4.7l-4.2-2.2c-0.6-0.3-1.3-0.3-1.9,0l-4.2,2.2
			l0.8-4.7c0.1-0.7-0.1-1.3-0.6-1.8l-3.4-3.3l4.7-0.7c0.7-0.1,1.2-0.5,1.5-1.1l2.1-4.3l2.1,4.3c0.3,0.6,0.9,1,1.5,1.1l4.7,0.7
			L117.2,25.3z"/>
	</g>
</g>
<g>
	<g>
		<path class="st1" d="M145.7,29.2c-0.2-0.7-0.9-1.3-1.6-1.4l-4.9-0.7l-2.2-4.5c-0.3-0.7-1-1.1-1.8-1.1c-0.8,0-1.5,0.4-1.8,1.1
			l-2.2,4.5l-4.9,0.7c-0.8,0.1-1.4,0.6-1.6,1.4c-0.2,0.7,0,1.5,0.5,2.1l3.6,3.5l-0.8,4.9c-0.1,0.8,0.2,1.5,0.8,2
			c0.6,0.5,1.4,0.5,2.1,0.2l4.4-2.3l4.4,2.3c0.3,0.2,0.6,0.2,0.9,0.2c0.4,0,0.8-0.1,1.2-0.4c0.6-0.5,0.9-1.2,0.8-2l-0.8-4.9l3.6-3.5
			C145.7,30.7,145.9,29.9,145.7,29.2z M140,33.3c-0.5,0.5-0.7,1.1-0.6,1.8l0.8,4.7l-4.2-2.2c-0.3-0.2-0.6-0.2-0.9-0.2
			c-0.3,0-0.6,0.1-0.9,0.2l-4.2,2.2l0.8-4.7c0.1-0.7-0.1-1.3-0.6-1.8l-3.4-3.3l4.7-0.7c0.7-0.1,1.2-0.5,1.5-1.1l2.1-4.3l2.1,4.3
			c0.3,0.6,0.9,1,1.5,1.1l4.7,0.7L140,33.3z"/>
	</g>
</g>
</svg>
