<?xml version="1.0" encoding="utf-8"?>
<!-- Generator: Adobe Illustrator 21.0.0, SVG Export Plug-In . SVG Version: 6.00 Build 0)  -->
<svg version="1.1" id="Слой_1" xmlns="http://www.w3.org/2000/svg" xmlns:xlink="http://www.w3.org/1999/xlink" x="0px" y="0px"
	 viewBox="0 0 630 165" style="enable-background:new 0 0 630 165;" xml:space="preserve">
<style type="text/css">
	.st0{fill:#FFFFFF;}
	.st1{fill:#4D7892;}
	.st2{fill:#093C4C;}
</style>
<polygon class="st0" points="207,0 57.3,16.7 130.5,165 321,165 "/>
<polygon class="st1" points="548.3,155.7 82.6,155.7 0,8.3 630.3,8.3 "/>
<polygon class="st0" points="111.8,165 207,0 16.5,0 "/>
<g>
	<g>
		<path class="st2" d="M142.6,48.7c0-3.3-2.7-6-6-6h-2h-8.8c1.7-3,2.6-5.9,2.6-9.8v-0.6c0,0,0,0,0,0c0-2.1-0.8-4.1-2.3-5.6
			c-1.5-1.5-3.5-2.4-5.6-2.4c0,0,0,0-0.1,0c-2.1,0-3.9,1.6-4,3.7c-0.8,9.7-10.2,14.7-16.4,17.8v-1c0-1.1-0.9-1.9-1.9-1.9H81.9
			c-1.1,0-1.9,0.9-1.9,1.9v32.5c0,1.1,0.9,1.9,1.9,1.9H94c2.3,0,4.4-1.3,5.3-3.3c6.8,2.9,12.7,3.3,19.4,3.3c1.2,0,2.3,0,3.6,0
			c1.3,0,2.7,0,4.2,0h6c3.3,0,6-2.7,6-6c0-1.1-0.3-2.1-0.8-3c1.7-1,2.9-2.9,2.9-5.1c0-1.1-0.3-2.1-0.8-3c1.7-1,2.9-2.9,2.9-5.1
			c0-1.5-0.6-3-1.6-4C142,51.7,142.6,50.3,142.6,48.7z M96.2,73.1c0,1.2-1,2.2-2.2,2.2h-2.2V69c0-1.1-0.9-1.9-1.9-1.9
			S88.1,68,88.1,69v6.2h-4.3V46.6h12.4L96.2,73.1L96.2,73.1z M132.6,54.7h2h2c1.2,0,2.2,1,2.2,2.2s-1,2.2-2.2,2.2h-2h-0.1h-2
			c-1.1,0-1.9,0.9-1.9,1.9c0,1.1,0.9,1.9,1.9,1.9h2c1.2,0,2.2,1,2.2,2.2c0,1.2-1,2.2-2.2,2.2h-2c-1.1,0-1.9,0.9-1.9,1.9
			s0.9,1.9,1.9,1.9c1.2,0,2.2,1,2.2,2.2c0,1.2-1,2.2-2.2,2.2h-6c-1.5,0-2.9,0-4.2,0c-8.5,0.1-14.7,0.1-22.3-3.4v-22h0
			c0.2-0.1,0.4-0.2,0.6-0.3c3.3-1.6,7.8-3.8,11.7-7.1c4.8-4,7.4-8.9,7.9-14.3c0-0.1,0.1-0.2,0.2-0.2c0,0,0,0,0,0
			c2.3,0,4.2,1.9,4.2,4.2v0.6c0,4-1,6.5-3.2,9.8h-3c-1.1,0-1.9,0.9-1.9,1.9c0,1.1,0.9,1.9,1.9,1.9h4.1c0,0,0,0,0,0h12.2h2
			c1.2,0,2.2,1,2.2,2.2s-1,2.2-2.2,2.2h-2h-2c-1.1,0-1.9,0.9-1.9,1.9C130.7,53.8,131.6,54.7,132.6,54.7z"/>
	</g>
</g>
<g>
	<g>
		<path class="st2" d="M138.7,28.3h-4.1c-1.1,0-1.9,0.9-1.9,1.9s0.9,1.9,1.9,1.9h4.1c1.1,0,1.9-0.9,1.9-1.9S139.7,28.3,138.7,28.3z"
			/>
	</g>
</g>
<g>
	<g>
		<path class="st2" d="M110.3,28.3h-4.1c-1.1,0-1.9,0.9-1.9,1.9s0.9,1.9,1.9,1.9h4.1c1.1,0,1.9-0.9,1.9-1.9S111.3,28.3,110.3,28.3z"
			/>
	</g>
</g>
<g>
	<g>
		<path class="st2" d="M118,18.7l-2-3.5c-0.5-0.9-1.7-1.2-2.6-0.7c-0.9,0.5-1.2,1.7-0.7,2.6l2,3.5c0.4,0.6,1,1,1.6,1
			c0.3,0,0.6-0.1,0.9-0.3C118.2,20.8,118.5,19.6,118,18.7z"/>
	</g>
</g>
<g>
	<g>
		<path class="st2" d="M131.5,14.5c-0.9-0.5-2.1-0.2-2.6,0.7l-2,3.5c-0.5,0.9-0.2,2.1,0.7,2.6c0.3,0.2,0.6,0.3,0.9,0.3
			c0.7,0,1.3-0.3,1.6-1l2-3.5C132.7,16.2,132.4,15,131.5,14.5z"/>
	</g>
</g>
</svg>
