<?xml version="1.0" encoding="utf-8"?>
<!-- Generator: Adobe Illustrator 21.0.0, SVG Export Plug-In . SVG Version: 6.00 Build 0)  -->
<svg version="1.1" id="Слой_1" xmlns="http://www.w3.org/2000/svg" xmlns:xlink="http://www.w3.org/1999/xlink" x="0px" y="0px"
	 viewBox="0 0 630 165" style="enable-background:new 0 0 630 165;" xml:space="preserve">
<style type="text/css">
	.st0{fill:#FFFFFF;}
	.st1{fill:#4D7892;}
	.st2{fill:#093C4C;}
</style>
<polygon class="st0" points="423.3,0 573,16.7 499.8,165 309.3,165 "/>
<polygon class="st1" points="82,155.7 547.7,155.7 630.3,8.3 0,8.3 "/>
<polygon class="st0" points="518.5,165 423.3,0 613.8,0 "/>
<g>
	<g>
		<path class="st2" d="M551.5,52.5l-2.8-4.8c-0.4-0.6-1.2-0.8-1.8-0.5c-0.6,0.4-0.8,1.2-0.5,1.8l1.8,3.1h-17l8.5-14.5l2.5,4.3
			c0.4,0.6,1.2,0.8,1.8,0.5c0.6-0.4,0.8-1.2,0.5-1.8l-3.5-6c-0.3-0.6-0.9-0.9-1.6-0.9h-41.7c-0.6,0-1.3,0.3-1.6,0.9l-10.5,18
			c-0.4,0.6-0.3,1.4,0.1,2L504,78.3c0.3,0.3,0.7,0.5,1,0.5s0.6-0.1,0.8-0.3c0.6-0.4,0.7-1.3,0.2-1.9l-16.9-21.9H507l8.7,34.5l-4.6-6
			c-0.4-0.6-1.3-0.7-1.9-0.2c-0.6,0.4-0.7,1.3-0.2,1.9l8,10.3c0.3,0.5,0.9,0.7,1.4,0.7c0.6,0,1.1-0.3,1.4-0.7l31.3-40.6
			C551.8,53.9,551.8,53.1,551.5,52.5z M537.4,36.3l-8.5,14.5l-8.1-14.5H537.4L537.4,36.3z M526.7,52.1h-16.3l8.1-14.5L526.7,52.1z
			 M488.9,52.1l8.5-14.5l8.5,14.5H488.9L488.9,52.1z M499.7,36.3h16.6l-8.1,14.5L499.7,36.3z M518.5,89.2l-8.7-34.4h17.4L518.5,89.2
			z M521.3,89.2l8.7-34.5h17.9L521.3,89.2z"/>
	</g>
</g>
<g>
	<g>
		<path class="st2" d="M518.5,14.1c-0.7,0-1.3,0.6-1.3,1.3v6c0,0.7,0.6,1.3,1.3,1.3s1.3-0.6,1.3-1.3v-6
			C519.9,14.7,519.3,14.1,518.5,14.1z"/>
	</g>
</g>
<g>
	<g>
		<path class="st2" d="M550.5,24.4c-0.5-0.5-1.4-0.5-1.9,0l-4.2,4.2c-0.5,0.5-0.5,1.4,0,1.9c0.3,0.3,0.6,0.4,0.9,0.4
			s0.7-0.1,0.9-0.4l4.2-4.2C551,25.8,551,24.9,550.5,24.4z"/>
	</g>
</g>
<g>
	<g>
		<path class="st2" d="M562.4,55.1h-6c-0.7,0-1.3,0.6-1.3,1.3s0.6,1.3,1.3,1.3h6c0.7,0,1.3-0.6,1.3-1.3
			C563.7,55.7,563.2,55.1,562.4,55.1z"/>
	</g>
</g>
<g>
	<g>
		<path class="st2" d="M480.7,55.1h-6c-0.7,0-1.3,0.6-1.3,1.3s0.6,1.3,1.3,1.3h6c0.7,0,1.3-0.6,1.3-1.3
			C482,55.7,481.4,55.1,480.7,55.1z"/>
	</g>
</g>
<g>
	<g>
		<path class="st2" d="M492.7,28.7l-4.2-4.2c-0.5-0.5-1.4-0.5-1.9,0s-0.5,1.4,0,1.9l4.2,4.2c0.3,0.3,0.6,0.4,0.9,0.4
			s0.7-0.1,0.9-0.4C493.2,30,493.2,29.2,492.7,28.7z"/>
	</g>
</g>
</svg>
