<svg xmlns="http://www.w3.org/2000/svg" viewBox="0 0 55.58 55.58"><defs><style>.cls-1{fill:#f1f2f2;}</style></defs><title>instagram</title><g id="Слой_2" data-name="Слой 2"><g id="objects"><path class="cls-1" d="M50,0H5.56A5.57,5.57,0,0,0,0,5.56V50a5.57,5.57,0,0,0,5.56,5.56H50A5.57,5.57,0,0,0,55.58,50V5.56A5.57,5.57,0,0,0,50,0ZM27.79,16.68A11.11,11.11,0,1,1,16.68,27.79,11.14,11.14,0,0,1,27.79,16.68ZM6.95,50a1.31,1.31,0,0,1-1.38-1.38V25H11.4a9.25,9.25,0,0,0-.29,2.78,16.68,16.68,0,1,0,33.35,0A9.3,9.3,0,0,0,44.18,25H50V48.63A1.31,1.31,0,0,1,48.63,50ZM50,12.51a1.31,1.31,0,0,1-1.38,1.38H43.07a1.31,1.31,0,0,1-1.38-1.38V6.95a1.31,1.31,0,0,1,1.38-1.38h5.56A1.31,1.31,0,0,1,50,6.95Zm0,0"/></g></g></svg>