<?xml version="1.0" encoding="utf-8"?>
<!-- Generator: Adobe Illustrator 21.0.0, SVG Export Plug-In . SVG Version: 6.00 Build 0)  -->
<svg version="1.1" id="Layer_1" xmlns="http://www.w3.org/2000/svg" xmlns:xlink="http://www.w3.org/1999/xlink" x="0px" y="0px"
	 viewBox="0 0 512 512" style="enable-background:new 0 0 512 512;" xml:space="preserve">
<style type="text/css">
	.st0{fill:#B2B2B2;}
	.st1{fill:#CECECE;}
	.st2{fill:#A0A0A0;}
	.st3{fill:#EDEDEE;}
	.st4{fill:#727272;}
	.st5{fill:#DCDBDE;}
	.st6{fill:#6B6B6B;}
	.st7{fill:#828282;}
</style>
<path class="st0" d="M489.8,239.6c-16.6-10.2-70.3-23.3-145.5-23.3l-39.8-46.4c-8.4-9.8-20.6-15.4-33.5-15.4H152
	c-12.6,0-24.9,4.5-34.5,12.8l-46.9,40.2l-50,7.1c-7.1,1-12.9,6.2-14.6,13.2L0,251.6l132.4,61.8h370.8v-49.9
	C503.2,253.7,498.1,244.7,489.8,239.6z"/>
<path class="st1" d="M503.2,269.2c0-17.7-26.5-35.3-150.1-35.3H8.8c-4.9,0-8.8,4-8.8,8.8v53l167.7,26.5h335.4L503.2,269.2
	L503.2,269.2z"/>
<path class="st2" d="M503.2,304.6H89.2l-78.5-17.4c-4.7-1-9.5,1.9-10.5,6.7c-1.1,4.8,1.9,9.5,6.7,10.5L86.4,322
	c0.6,0.1,1.3,0.2,1.9,0.2h414.9c4.9,0,8.8-4,8.8-8.8C512,308.5,508.1,304.6,503.2,304.6z"/>
<circle class="st3" cx="423.7" cy="304.5" r="44.1"/>
<path class="st4" d="M423.7,357.5c-29.2,0-53-23.8-53-53s23.8-53,53-53s53,23.8,53,53S452.9,357.5,423.7,357.5z M423.7,269.2
	c-19.5,0-35.3,15.8-35.3,35.3s15.8,35.3,35.3,35.3S459,324,459,304.6C459,285.1,443.2,269.2,423.7,269.2z"/>
<circle class="st5" cx="423.7" cy="304.5" r="17.7"/>
<circle class="st3" cx="88.3" cy="304.5" r="44.1"/>
<path class="st4" d="M88.3,357.5c-29.2,0-53-23.8-53-53s23.8-53,53-53s53,23.8,53,53C141.2,333.8,117.5,357.5,88.3,357.5z
	 M88.3,269.2c-19.5,0-35.3,15.8-35.3,35.3s15.8,35.3,35.3,35.3s35.3-15.8,35.3-35.3C123.6,285.1,107.8,269.2,88.3,269.2z"/>
<circle class="st5" cx="88.3" cy="304.5" r="17.7"/>
<g>
	<path class="st0" d="M353.1,286.9H167.7c-4.9,0-8.8-4-8.8-8.8l0,0c0-4.9,4-8.8,8.8-8.8h185.4c4.9,0,8.8,4,8.8,8.8l0,0
		C361.9,282.9,358,286.9,353.1,286.9z"/>
	<path class="st6" d="M503.2,286.9h-8.8c-4.9,0-8.8-4-8.8-8.8l0,0c0-4.9,4-8.8,8.8-8.8h8.8c4.9,0,8.8,4,8.8,8.8l0,0
		C512,282.9,508,286.9,503.2,286.9z"/>
</g>
<path class="st1" d="M70.6,207.4l46.9-40.2c9.6-8.2,21.8-12.8,34.5-12.8h119c12.9,0,25.1,5.6,33.5,15.4l39.8,46.4h-209
	c-7.8,0-15.5-0.6-23.2-1.9L70.6,207.4z"/>
<path class="st7" d="M261.3,169.7c-3.4-4-8.3-6.4-13.6-6.4h-81.5c-4.7,0-9.2,1.9-12.5,5.2L127.2,195c-2.3,2.3-3.7,5.5-3.7,8.8l0,0
	c0,6.9,5.6,12.5,12.5,12.5h154.6c3.7,0,5.8-4.4,3.4-7.2L261.3,169.7z"/>
<polygon class="st4" points="185.4,216.3 158.9,216.3 176.6,163.3 194.2,163.3 "/>
<path class="st3" d="M493.7,242.8h-8.2c-4.9,0-8.8,4-8.8,8.8s4,8.8,8.8,8.8h17.3C502,253.5,498.8,247.3,493.7,242.8z"/>
<path class="st7" d="M304.5,169.9c-2.1-2.5-4.5-4.7-7-6.6h-14.4c-3.7,0-5.8,4.4-3.4,7.2l32.8,39.4c3.4,4,8.3,6.4,13.6,6.4h18.2
	L304.5,169.9z"/>
<path class="st6" d="M0,242.8v8.8h17.7c4.9,0,8.8-4,8.8-8.8s-4-8.8-8.8-8.8H8.8C4,233.9,0,237.9,0,242.8z"/>
</svg>
