<?xml version="1.0" encoding="utf-8"?>
<!-- Generator: Adobe Illustrator 21.0.0, SVG Export Plug-In . SVG Version: 6.00 Build 0)  -->
<svg version="1.1" id="Слой_1" xmlns="http://www.w3.org/2000/svg" xmlns:xlink="http://www.w3.org/1999/xlink" x="0px" y="0px"
	 viewBox="0 0 408.3 242" style="enable-background:new 0 0 408.3 242;" xml:space="preserve">
<style type="text/css">
	.st0{fill:#EAEAEA;}
	.st1{fill:#606060;}
	.st2{fill:#5A5B5B;}
</style>
<title>Ресурс 1</title>
<g id="Слой_2">
	<g id="Layer_1">
		<path class="st0" d="M47.7,0h313c26.3,0,47.7,21.3,47.7,47.7v146.7c0,26.3-21.3,47.7-47.7,47.7h-313C21.3,242,0,220.7,0,194.3
			V47.7C0,21.3,21.3,0,47.7,0z"/>
		<path class="st1" d="M287.3,80.7h40.3c7.4,0,13.4,6,13.4,13.4v0c0,7.4-6,13.4-13.4,13.4h-40.3c-7.4,0-13.4-6-13.4-13.4v0
			C273.9,86.7,279.9,80.7,287.3,80.7z"/>
		<path class="st1" d="M206.6,134.4h121c7.4,0,13.4,6,13.4,13.4v0c0,7.4-6,13.4-13.4,13.4h-121c-7.4,0-13.4-6-13.4-13.4v0
			C193.2,140.5,199.2,134.4,206.6,134.4z"/>
		<circle class="st2" cx="89.5" cy="121" r="40.5"/>
	</g>
</g>
</svg>
