<?xml version="1.0" encoding="utf-8"?>
<!-- Generator: Adobe Illustrator 21.0.0, SVG Export Plug-In . SVG Version: 6.00 Build 0)  -->
<svg version="1.1" id="Слой_1" xmlns="http://www.w3.org/2000/svg" xmlns:xlink="http://www.w3.org/1999/xlink" x="0px" y="0px"
	 viewBox="0 0 109.7 109.7" style="enable-background:new 0 0 109.7 109.7;" xml:space="preserve">
<style type="text/css">
	.st0{stroke:#FFFFFF;stroke-miterlimit:10;}
	.st1{fill:#F1F2F2;}
</style>
<title>twitter-o</title>
<g id="Слой_2">
	<g id="objects">
		<circle class="st0" cx="54.8" cy="54.8" r="54.8"/>
		<path class="st1" d="M88.7,33.8c-2.5,1.1-5.2,1.9-8,2.2c2.9-1.7,5.1-4.5,6.1-7.7c-2.7,1.6-5.7,2.7-8.8,3.4
			c-5.2-5.6-14-5.9-19.6-0.6c-3.6,3.4-5.2,8.5-4,13.3c-11.2-0.6-21.6-5.8-28.6-14.5C22,36.2,23.9,44.3,30,48.4
			c-2.2-0.1-4.4-0.7-6.3-1.7c0,0.1,0,0.1,0,0.2c0,6.6,4.7,12.3,11.1,13.6c-2,0.6-4.2,0.6-6.3,0.2c1.8,5.7,7,9.5,13,9.6
			C35.8,74.9,28.4,77,21,76.1c6.3,4.1,13.7,6.2,21.3,6.2c25.5,0,39.5-21.2,39.5-39.5c0-0.6,0-1.2,0-1.8
			C84.5,39.1,86.9,36.6,88.7,33.8L88.7,33.8z"/>
	</g>
</g>
</svg>
