<?xml version="1.0" encoding="utf-8"?>
<!-- Generator: Adobe Illustrator 21.0.0, SVG Export Plug-In . SVG Version: 6.00 Build 0)  -->
<svg version="1.1" id="Слой_1" xmlns="http://www.w3.org/2000/svg" xmlns:xlink="http://www.w3.org/1999/xlink" x="0px" y="0px"
	 viewBox="0 0 1280 554" style="enable-background:new 0 0 1280 554;" xml:space="preserve">
<style type="text/css">
	.st0{clip-path:url(#SVGID_2_);}
	.st1{clip-path:url(#SVGID_4_);}
</style>
<g>
	<g>
		<defs>
			<path id="SVGID_1_" d="M1219.7,417.7v45.8h-5.6v-40.3l-10.3,7.4v-5.2l10.6-7.7L1219.7,417.7L1219.7,417.7z M1132,429.8
				c0-5.1-3-8.2-8.2-8.2c-5.4,0-8.7,2.9-9.7,10.2h-5.2c0.7-9,6.1-14.7,14.9-14.7c8.5,0,13.8,5,13.8,12.9c0,5.6-3.6,11.1-9.2,16.7
				l-12.6,12.3h22.1v4.5h-30.7v-1.3l18.2-19.2C1129.6,438.6,1132,434.4,1132,429.8z M932.4,377h6.4c6.9,0,10.2-2.8,10.2-8.4v-0.5
				c0-5.5-3.4-8.5-10.4-8.5h-6.3L932.4,377L932.4,377z M966.2,332.7h-33.8v10.1h9.9c21.5,0,32.2,9.5,32.2,25.3v0.5
				c0,17.2-10,27-32.8,27h-35.3v-83.1h59.9v20.2H966.2z M217,56.4c-7.3,3.8-42.4,27.6-49.8,32.5c-11.9,8.5,5.3,9.5-3.6,21.6
				c-23.9,32.6-35.9,74.8-29.7,109.1c1.8,6.7,2,17.1-1.4,23.6S93.3,299.3,92.3,303c-1.1,3.7-8.1,16.3,9.7,23.6
				c17.8,7.3,20.8,7.2,19.4,15.3c-1.4,8.1-7,4-5.5,18.1c1.2,11.7,12.5,8.3,12.5,8.3s-8.9,7.6-5.5,13.9s11.1,9.9,11.1,15.3
				s-5.8,17.4-5.5,25c0.2,7.6,4.2,28.2,29.1,34.8c25,6.6,30-5,62.4,7c8.4,5.8,17.9,8.8,11.8,54.7C107,508.5,9,403.7,9,276
				C9,141.2,118,32,252.5,32c12.7,0,25.3,1,37.5,2.9C266.9,36.9,242.2,43.4,217,56.4z M362.7,493.7c8.9-13.6,8.7-17.5,13.1-28.9
				c2-5.4,5-30.1-24-46.2c-6.8-2.1-35.4,10.8-52.7,5.6c-17.3-5.2-21.8-11.6-22.2-23.6c-0.4-12.1-9-10.4-15.3-11.1
				c-6.2-0.7-7.2-9.8-4.2-15.3c3-5.5-12.1,3.7-11.1-8.3c1-12.1,11.7-25.6-4.2-30.6s-13.1-21.4-2.8-30.6c10.4-9.2,9.8-29.2,5.5-40.3
				c-3.9-10.3-33.1-59.1,14-122.5c4-5.4,3-13.7,8.2-19.3c6.3-4.8,17.5-10.6,27.1-18c11-8.5,26.9-18.7,47.6-24.8
				c3.9-1.2,9.5-3.6,13.9-4.6c9.5-2,19.8-2.7,31.4-2.4C452.8,116.3,496.1,191,496.1,276C496.1,371,441.8,453.4,362.7,493.7z
				 M674.9,193.3h-15.8c-0.3,11.5-0.7,22.3-1.7,31.6c-2.4,19.9-8.5,32.7-25.8,32.7c-5.5,0-8.8-1.5-9-1.5v-20l0.7,0.3
				c0.6,0.1,1.4,0.2,2.3,0.2c5.6,0,8.1-6.4,9.4-18.5c0.9-9,1.3-26.3,1.3-45.2h65V256h-26.4V193.3z M701.7,353.3
				c0-10.3-5.9-14.5-13.4-14.9v30.5c7.1-0.3,13.4-4.8,13.4-14.6V353.3z M662,338.2c-7.2,0.3-13.4,4.9-13.4,14.6v0.9
				c0,10.3,6,14.5,13.4,14.9V338.2z M727,354.1c0,20.8-17.2,32.1-38.7,32.7v10H662v-10c-23.3-0.6-38.7-12.3-38.7-32.9V353
				c0-20.7,17.3-32.2,38.7-32.8v-10h26.3v10c23.2,0.6,38.7,12.6,38.7,33V354.1z M776,207.7l-26.4,48.4h-26.2V173h26.5v47.9
				l26.4-47.9h26v83.1H776V207.7z M756.4,396.9c-5.9,0-10.1-1.4-10.9-1.7V375c0.8,0.3,2.8,1,7.3,1c3.4,0,6.3-1.6,8.6-4.8l-28-58.8
				h27.3l13.7,31.7l12.4-31.7h24.8l-25.5,59.4C779.1,388.2,772.6,396.9,756.4,396.9z M889.4,332.7h-21v62.9h-26.5v-62.9H821v-20.2
				h68.5L889.4,332.7L889.4,332.7z M886.9,256.1h-62.4V173H851v62.8h23.1V173h26.4v62.8h10v35.5h-22.8L886.9,256.1z M961.8,194.2
				l-8.3,30.1h16.4L961.8,194.2z M974.8,242.2h-26.3l-3.7,13.8h-24.5l26.2-83.1h34.1l26,83.1h-27.9L974.8,242.2z M1048.4,353.5
				c0-14.1-6.6-21.7-17.2-21.7c-10.2,0-16.9,7.4-16.9,21.7v0.9c0,14.3,6.5,22,17.1,22c10.3,0,17-8,17-22V353.5z M1030.7,397.1
				c-27.3,0-43.9-17.3-43.9-42.5v-0.9c0-25.7,19.5-42.4,44.4-42.4c25.6,0,44.6,15.5,44.6,41.7v0.9
				C1075.8,379.8,1058,397.1,1030.7,397.1z M1138.6,332.8h-15.8c-0.3,11.5-0.7,22.3-1.7,31.6c-2.4,19.9-8.5,32.7-25.8,32.7
				c-5.5,0-8.8-1.5-9-1.5v-20l0.7,0.3c0.6,0.1,1.4,0.2,2.3,0.2c5.6,0,8.1-6.4,9.4-18.5c0.9-9,1.3-26.3,1.3-45.2h65v83.1h-26.4V332.8
				z M1171.6,421.6c-7.8,0-12.4,6.3-12.4,17.7v2.6c0,11.6,4.9,17.6,12.5,17.6c8,0,12.1-6,12.1-17.7v-2.6
				C1183.8,428.6,1179.3,421.6,1171.6,421.6z M1189.4,439.2v2.6c0,13.3-6.5,22.3-17.7,22.3c-11,0-18.2-8.8-18.2-22.2v-2.6
				c0-13.5,6.9-22.2,18.1-22.2C1182.8,417.1,1189.4,426.1,1189.4,439.2z M1222.1,333.8l-8.3,30.1h16.4L1222.1,333.8z M1235.1,381.8
				h-26.3l-3.7,13.8h-24.5l26.2-83.1h34.1l26,83.1H1239L1235.1,381.8z M1255.2,421.4c-4.8,0-8.5,2.8-8.5,7.6s4,7.6,8.6,7.6
				c4.9,0,8.2-2.8,8.2-7.7C1263.6,424.5,1260,421.4,1255.2,421.4z M1245.1,450.3c0,6,4.8,9.2,10.1,9.2c5.6,0,10.1-3.3,10.1-9.4
				c0-6-4.5-9.1-9.9-9.1C1249.9,441,1245.1,444.1,1245.1,450.3z M1262.2,438.5c5.4,2,8.8,5.9,8.8,11.8c0,9.2-8,13.7-15.8,13.7
				c-7.5,0-15.8-4.5-15.8-13.6c0-6.1,3.8-10.1,8.6-11.9c-4.4-1.7-6.9-5.1-6.9-9.6c0-7.4,7.1-11.9,14.1-11.9c7.1,0,14,4.6,14,11.8
				C1269.3,433.5,1266.5,436.7,1262.2,438.5z"/>
		</defs>
		<use xlink:href="#SVGID_1_"  style="overflow:visible;fill:#FFFFFF;"/>
		<clipPath id="SVGID_2_">
			<use xlink:href="#SVGID_1_"  style="overflow:visible;"/>
		</clipPath>
		<g class="st0">
			<g>
				<defs>
					<rect id="SVGID_3_" x="-514.1" y="-370.4" width="2309" height="1298.8"/>
				</defs>
				<use xlink:href="#SVGID_3_"  style="overflow:visible;fill:#FFFFFF;"/>
				<clipPath id="SVGID_4_">
					<use xlink:href="#SVGID_3_"  style="overflow:visible;"/>
				</clipPath>
				<g class="st1">
					
						<image style="overflow:visible;enable-background:new    ;" width="1283" height="722" xlink:href="40A1D4F6.jpg"  transform="matrix(1.7995 0 0 1.7995 -514.0063 -370.5792)">
					</image>
				</g>
			</g>
		</g>
	</g>
</g>
</svg>
