<svg xmlns="http://www.w3.org/2000/svg" viewBox="0 0 432.5 422.1"><defs><style>.cls-1,.cls-6{fill:none;}.cls-1,.cls-2,.cls-3,.cls-4,.cls-6{stroke:#000;stroke-linecap:round;stroke-linejoin:round;}.cls-1{stroke-width:5px;}.cls-2{fill:#7c7969;}.cls-2,.cls-3,.cls-4,.cls-6{stroke-width:3px;}.cls-3{fill:#fff;}.cls-4{fill:#bcbcbc;}.cls-5{opacity:0.2;isolation:isolate;}</style></defs><title>canvas-320</title><g id="Слой_2" data-name="Слой 2"><g id="Слой_1-2" data-name="Слой 1"><polyline class="cls-1" points="47 48.6 216.25 6.5 384.5 48.6"/><path class="cls-2" d="M9,33.6H423.5a7.55,7.55,0,0,1,7.5,7.5h0a7.55,7.55,0,0,1-7.5,7.5H9a7.55,7.55,0,0,1-7.5-7.5h0A7.55,7.55,0,0,1,9,33.6Z"/><rect class="cls-3" x="15" y="48.6" width="401.5" height="357"/><path class="cls-2" d="M9,405.6H423.5a7.55,7.55,0,0,1,7.5,7.5h0a7.55,7.55,0,0,1-7.5,7.5H9a7.55,7.55,0,0,1-7.5-7.5h0A7.55,7.55,0,0,1,9,405.6Z"/><circle class="cls-4" cx="216.25" cy="9.5" r="8"/><path class="cls-5" d="M8.5,412.1H423a2.48,2.48,0,0,1,2.5,2.5h0a2.48,2.48,0,0,1-2.5,2.5H8.5A2.48,2.48,0,0,1,6,414.6H6A2.48,2.48,0,0,1,8.5,412.1Z"/><path class="cls-5" d="M9,40.1H423.5a2.48,2.48,0,0,1,2.5,2.5h0a2.48,2.48,0,0,1-2.5,2.5H9a2.48,2.48,0,0,1-2.5-2.5h0A2.48,2.48,0,0,1,9,40.1Z"/><line class="cls-6" x1="210.55" y1="3.9" x2="221.85" y2="15.3"/><line class="cls-6" x1="222.05" y1="3.9" x2="210.55" y2="15.1"/></g></g></svg>