<?xml version="1.0" encoding="utf-8"?>
<!-- Generator: Adobe Illustrator 21.0.0, SVG Export Plug-In . SVG Version: 6.00 Build 0)  -->
<svg version="1.1" id="Слой_1" xmlns="http://www.w3.org/2000/svg" xmlns:xlink="http://www.w3.org/1999/xlink" x="0px" y="0px"
	 viewBox="0 0 549.3 454.1" style="enable-background:new 0 0 549.3 454.1;" xml:space="preserve">
<style type="text/css">
	.st0{fill:#FFFFFF;stroke:#000000;stroke-width:7;stroke-miterlimit:10;}
	.st1{font-family:'Tahoma';}
	.st2{font-size:56.73px;}
</style>
<title>1</title>
<g id="Слой_2">
	<g id="Слой_1-2">
		<g id="Слой_1-3">
			<path class="st0" d="M516.2,162.8C526.5,83.8,470.9,11.5,391.9,1.2c-35.8-4.7-72.1,4.3-101.6,25.1
				c-12.8-21.7-40.8-28.9-62.6-16.1c-12.6,7.5-20.9,20.5-22.3,35.1c-45-16.6-95,6.4-111.7,51.4c-5.4,14.5-6.8,30.2-4,45.4
				C40.3,142.5,0,183,0,232.5c0,49.7,40.7,90.3,90.3,90.3h38.3c8.5,10,18.7,18.3,30.3,24.5c-0.2,2.2-0.3,4.4-0.2,6.6
				c2.2,74.3,114.2,100.2,114.2,100.2s-59.4-47.4-33.5-99.6c17.8-5.8,33.8-16.2,46.1-30.3c37.7,49.2,108.2,58.5,157.3,20.7
				c8.3-6.4,15.7-13.9,21.9-22.3c47-3.1,84.4-42.4,84.4-90.1C549.2,205.5,537.1,179.9,516.2,162.8z"/>
			<text transform="matrix(1 0 0 1 44.97 231.44)" class="st1 st2">ละเอียด. ขอขอบคุณ</text>
		</g>
	</g>
</g>
</svg>
