<?xml version="1.0" encoding="utf-8"?>
<!-- Generator: Adobe Illustrator 21.0.0, SVG Export Plug-In . SVG Version: 6.00 Build 0)  -->
<svg version="1.1" id="Слой_1" xmlns="http://www.w3.org/2000/svg" xmlns:xlink="http://www.w3.org/1999/xlink" x="0px" y="0px"
	 viewBox="0 0 629.8 438.8" style="enable-background:new 0 0 629.8 438.8;" xml:space="preserve">
<style type="text/css">
	.st0{fill:#FFFFFF;stroke:#000000;stroke-width:7;stroke-miterlimit:10;}
	.st1{font-family:'Tahoma';}
	.st2{font-size:56.73px;}
</style>
<title>Ресурс 1</title>
<g id="Слой_2">
	<g id="Слой_1-2">
		<g id="Слой_1-3">
			<path class="st0" d="M579.6,146.7c12.7-26,1.9-57.3-24.1-70c-15.6-7.6-33.9-7-49,1.6C457-0.1,353.3-23.6,274.8,26
				c-15.6,9.9-29.5,22.2-41.1,36.6c-43.3-20.5-95.1-2.1-115.6,41.3c-4.2,8.8-6.8,18.2-7.9,27.9h-6.6C46.6,131.8,0,178.4,0,235.4l0,0
				C0,292.4,46.6,339,103.6,339h37.9c39.5,50.1,112.2,58.6,162.2,19c7.1-5.6,13.5-12,19-19H377c26.4,52.3-33.3,99.8-33.3,99.8
				s111.6-25.8,114-99.8h68.5c57,0,103.6-46.6,103.6-103.6l0,0C629.7,199.1,610.7,165.5,579.6,146.7z"/>
			<text transform="matrix(1 0 0 1 62.25 245.53)" class="st1 st2">สวัสดี. คุณเป็นอย่างไร?</text>
		</g>
	</g>
</g>
</svg>
