<svg xmlns="http://www.w3.org/2000/svg" viewBox="0 0 3142.17 2631"><defs><style>.cls-1,.cls-7{fill:#dbdbdb;}.cls-1,.cls-2,.cls-3,.cls-4,.cls-5,.cls-6{stroke:#000;stroke-miterlimit:10;stroke-width:10px;}.cls-2{fill:#ccc;}.cls-3{fill:#fff;}.cls-4{fill:#e0cdb3;}.cls-5{opacity:0.3;}.cls-5,.cls-8{isolation:isolate;}.cls-6{fill:#e5e5e5;}.cls-8{opacity:0.2;}</style></defs><title>Ресурс 1</title><g id="Слой_2" data-name="Слой 2"><g id="Слой_1-2" data-name="Слой 1"><path class="cls-1" d="M103.67,115c-4.83-2.6,0-8-28,42-13.48,24.06-32.24,102.26-38,173-4.42,54.34-1.09,98.14,6,158,11.92,100.66,25.86,174,32,208,18.75,103.74,25.8,177.78,38,306,0,0,15.16,159.3,12,344a583.15,583.15,0,0,1-16,128c-12.81,53.33-23.17,96.46-58,136-10.84,12.31-24.39,24.65-22,28,4.47,6.28,59.66-26.15,70-32,131.6-74.48,1116.84-52,1116.84-52,394.56,33.29,1252.31,0,1344-4,0,0,99.9-4.38,382,14,57.57,3.75,82.55,8.25,108,16,42.77,13,72.92,31,78,24,4.63-6.35-15.78-27.57-28-42-52.5-62-66.89-132.35-84-216-12.28-60-13.18-105-14-160-1.6-107.51,10.55-187.47,26-286,15.53-99.09,34.19-183.46,52-264,21.8-98.59,27.46-112.32,34-164,10.55-83.39,7.2-137.67,2-222-.26-4.17,4.5-55.5-26.5-97.5-9.24-12.52-27.27-13.76-29-16-31.72-41.05-132.72-2.53-154.5,5.5-91.58,33.75-283.72,51.17-668,86-494.51,45.16-793-91.51-1038-80-28.5,1.34-857.93,8.57-990.84-32-12.1-3.69-24-7.87-36-12a69.72,69.72,0,0,0-20-3C144.81,100.9,104.65,115.5,103.67,115Z"/><path class="cls-2" d="M195.67,144c-11.58-2-48.5-8.73-72,12-12.42,11-16.31,25.39-18,32-28.86,113.12-24,206-24,206,8,153-3.63,82.81,6,190,11.38,126.68,30.56,257.23,62,422,22.21,116.39,51.36,254.21,34,354-6.34,36.43-19.51,112.14-68,150-6.42,5-21.94,16-20,20,3.47,7.17,59.81-13.67,72-18,110-39,1019.16-38.13,1074.84-38,491.35,1.18,984.12,52,1474,14,43.4-3.37,211.41-19.45,304,28,4.37,2.24,44.82,23.2,50,16,3.77-5.24-14.36-21-32-52,0,0-10.59-18.74-22-52-68.29-199.16-30-498-30-498,13.31-103.84,21.33-101.34,54-316,5.58-36.68,13.56-89,22-154,0,0,7.44-57.23,10-152,.33-12,1-50.81-18-92-11-23.79-19.85-29.72-24-32-30.34-16.7-76,13.18-84,18-82.17,49.29-799.75,217.44-1390,36C1349.78,174.5,408.75,181.06,195.67,144Z"/><path class="cls-3" d="M1863.51,191"/><path class="cls-4" d="M1709.58,191,2443,2591.5a26.7,26.7,0,0,1-25.53,34.5h-46.83a26.7,26.7,0,0,1-25.66-19.32L1650.58,191Z"/><path class="cls-4" d="M1548.58,36.25l3,2413.23a28.25,28.25,0,0,0,28.25,28.25h46.5a28.25,28.25,0,0,0,28.25-28.25h0l-3-2413.23A31.25,31.25,0,0,0,1620.33,5h-40.5A31.25,31.25,0,0,0,1548.58,36.25Z"/><path class="cls-5" d="M1548.58,312.41l3,2139.59c0,13.94,12.65,25.23,28.25,25.23h46.5c15.6,0,28.25-11.3,28.25-25.23l-3-2139.59c0-15.42-14-27.91-31.25-27.91h-40.5C1562.58,284.5,1548.58,297,1548.58,312.41Z"/><path class="cls-4" d="M1489.58,191,754.81,2595.8a23.37,23.37,0,0,0,22.35,30.2H831a23.37,23.37,0,0,0,22.46-16.91L1548.58,191Z"/><rect class="cls-4" x="857.08" y="1958" width="1492" height="74" rx="12" ry="12"/><path class="cls-6" d="M3054.51,1957,130.67,1971s93-191.59,93-246c0-387.34-54-1534-54-1534H2970.51V1731.36Z"/><path class="cls-3" d="M169.67,191c-21.71,45.14-24.47,105.1-36,277-11,163.66-5,323-3,387,5.39,170.07,13.27,192.6,18,333,8.51,252.47-.34,357.52-6,408-17.45,155.67-27.21,234.66-78,291-7.24,8-51,49-51,49s154.79-10.66,312-25c98.41-9,886.72-9,1000.84-9,122.9,0,157.76,7.35,336,18,161.83,9.67,305.19,18.24,486,15,143.59-2.57,239.05-4.28,372-21,92.42-11.62,207.61-31.08,339-33,84.51-1.23,126.77-1.85,177,9a892.76,892.76,0,0,0,96,15s-25.95-41.37-54-81c-9.79-13.83-41.35-60.7-66-189-19.9-103.57-27.88-221.62-24-399,2.45-111.87,8.66-200.1,21-372,13.73-191.34,18-231,18-231,14.61-165.71,26.06-253.74-3-339-11.63-34.13-48-136-36-102h0Z"/><path class="cls-7" d="M179.17,162.5c-16.8,26.16.66,76.81,12,100,19.76,40.6,51.46,60.52,63.72,68,52.82,32.21,826.56,27.59,904,20,156.9-15.38,235.35-23.06,284.77-30,120.1-16.86,180.15-25.29,227-34,116.5-21.65,140.6-32.85,211.09-36,59.8-2.67,101.6,2.88,185.2,14,36.74,4.89,79,11.48,274.81,52,115.72,24,138.14,29.34,193.16,38,58.26,9.17,130.11,18.38,215.07,12,13.61-1,65.38-5.33,121.47-30,18.69-8.22,37.57-18.57,55.76-36,10.76-10.31,26.26-25.17,33.85-48,9-27.08,4.44-58-4-72-34.53-57.18-213,40.66-462,48-118.78,3.5-110.82-17.8-328.58-26-106.79-4-149.87-.45-294.72,2-379,6.42-568.46,9.62-675.07-12C1055.8,163.93,209.07,115.89,179.17,162.5Z"/><path class="cls-3" d="M75.67,160c.76.41,11.07-30.15,30-32,5.45-.53,13.17,1.16,28,16,26.08,26.1,28.21,46.87,46,72,14.23,20.09,30,30.93,46,42,33.89,23.37,70.62,32.46,130,38,71,6.63,844.51,3.65,874.84,2,252-13.67,247.4-12.59,278-16,86.45-9.64,81.08-13.63,198-28,101.82-12.51,152.73-18.76,216-20,79.33-1.55,137.3,5.61,250,20,127.56,16.28,126,21.92,282,44,51.91,7.34,135.94,10.9,304,18,41.16,1.74,95.69,3.33,140-30,31.88-24,58-58,58-58,21.74-28.31,28-46.79,54-62,21.61-12.67,38.85-12.53,46-12,6.47.48,16.43,1.34,26,8,18.67,13,27.5,36.5,31.5,59.5,3-49-28-87-65-105-72.08-35.06-166-29.25-302.5-.5-109.66,23.09-164.49,34.63-172,36-61.66,11.21-132.27,20.29-446,24-179.5,2.12-270.79,3.08-346-2-123.63-8.35-230.26-14.61-312-27-31.07-4.71-923.71-29-1051.84-48-27-4-163-19-225-17-15.83.51-49.3-4.17-78,16C83.69,120.5,74.83,159.5,75.67,160Z"/><path class="cls-8" d="M882.58,1994.5h1441a11,11,0,0,1,11,11h0a11,11,0,0,1-11,11h-1441a11,11,0,0,1-11-11h0A11,11,0,0,1,882.58,1994.5Z"/></g></g></svg>