<svg id="Слой_1" data-name="Слой 1" xmlns="http://www.w3.org/2000/svg" viewBox="0 0 1932.67 2079.56"><defs><style>.cls-1,.cls-13,.cls-14,.cls-15,.cls-16,.cls-17,.cls-18,.cls-2,.cls-20,.cls-24,.cls-25,.cls-3,.cls-4,.cls-5,.cls-6,.cls-7{stroke:#000;stroke-linecap:round;stroke-linejoin:round;stroke-width:6px;}.cls-2{fill:#312d38;}.cls-3{fill:#384149;}.cls-26,.cls-4,.cls-8{fill:#fff;}.cls-5{fill:#68b0bc;}.cls-6{fill:none;}.cls-11,.cls-7{fill:#d9d9d9;}.cls-9{fill:#380208;}.cls-10{fill:#6a0006;}.cls-12{fill:#8cccd3;}.cls-13{fill:#bacc9f;}.cls-14{fill:#936f77;}.cls-15{fill:#c1aace;}.cls-16,.cls-19{fill:#72a09f;}.cls-17{fill:#496664;}.cls-18{fill:#8ac4c4;}.cls-20{fill:#d6d6d6;}.cls-21{fill:#4a565e;}.cls-22{fill:#d3eab5;}.cls-23{fill:#282828;}.cls-24{fill:#21272b;}.cls-25{fill:#bbbcbb;}.cls-26{opacity:0.1;}</style></defs><title>talking</title><path class="cls-1" d="M2038,2597c-.29,4.22,2.67,8.78,6,11,4.74,3.16,10.8,2,20,0a129.2,129.2,0,0,0,14-4c20.6-6.33,35-6,40-10,4.18-3.34-9-11.06-16-16C2081.13,2563.28,2039,2582.11,2038,2597Z" transform="translate(-532.93 -562.44)"/><path class="cls-1" d="M1994,2593c2.74,4.43,10.48,15.58,25,21,3.73,1.39,13.56,4.92,25,2,3.4-.87,8-2,12-6a23.38,23.38,0,0,0,6-21c-4.17-16.58-35.3-28.92-54-17C1998.71,2577.92,1995.27,2588.06,1994,2593Z" transform="translate(-532.93 -562.44)"/><path class="cls-1" d="M1949,2586a26.25,26.25,0,0,0,3,13c5.68,10.5,17.49,13.4,24,15a45.53,45.53,0,0,0,24,0c4-1.14,20.48-5.83,24-18,4-13.77-10.24-31.48-26-36C1980.8,2555.06,1959.73,2565.25,1949,2586Z" transform="translate(-532.93 -562.44)"/><path class="cls-1" d="M1995,2538c-5-2.38-8.49,2.49-27,4-11.24.92-12-.71-19,1-3.44.84-14.58,3.74-23,14-2.42,2.95-7.05,8.6-8,17-1.45,12.83,6.76,22.58,8,24,13.67,15.73,47.77,18.5,66,0C2010.92,2578.79,2006.15,2543.35,1995,2538Z" transform="translate(-532.93 -562.44)"/><path class="cls-1" d="M2082,2231c3,14.72,13.73,15.38,43,48,10.34,11.52,25.5,40.34,42,73,27.12,53.67,27.58,89.82,48,95,12.19,3.09,25.29-8.22,32-14,14.89-12.84,22.48-9.33,23-24,3-85-19-184-19-184-21.51-56.51-32.27-84.77-58-92C2143.81,2119.18,2073.58,2189.48,2082,2231Z" transform="translate(-532.93 -562.44)"/><path class="cls-1" d="M1937,1940c-1.61,2.08-3.8,6,4,48,11,59.25,24.69,101.88,27,109,16.48,50.67,24.71,76,38,96,14.09,21.2,42.07,63.3,79,62,21.6-.76,37.14-16,47-26,38.11-38.51,64.34-110.37,43-174C2136.5,1940.19,1961.88,1907.93,1937,1940Z" transform="translate(-532.93 -562.44)"/><path class="cls-1" d="M2051,2270c-8.23-11.07-8.49-32.38-9-75-.27-22.76-.47-39.09,3-59,5.58-32,15.79-45.39,30-78,24.85-57,15-65.12,43-135,16.74-41.72,25.42-62.72,41-70,39.1-18.27,106.27,20.21,133,73,28,55.32,6.1,115.49-1,135-14.24,39.12-43.32,79.32-59,101-9.78,13.52-21.26,28.07-30,52-10.4,28.47-4.76,36.93-13,50C2166.15,2300.26,2078,2306.29,2051,2270Z" transform="translate(-532.93 -562.44)"/><path class="cls-1" d="M2192,2397c-10.6,6.86-5.1,6.54-41,45-26.33,28.21-39.49,42.31-49,46-2.93,1.14-10.54,3.77-15,11-3.8,6.16-4.5,14.29-3,19,8.16,25.59,99.46,7,166,5,3.28-.1,11.67-.31,18-6,9-8.12,8.42-22.49,8-30-3.58-63.59-5.54-95.5-14-101C2241.06,2372.39,2207.74,2386.81,2192,2397Z" transform="translate(-532.93 -562.44)"/><path class="cls-1" d="M2045,2472c-10.6,6.86-5.1,6.54-41,45-26.33,28.21-39.49,42.31-49,46-2.93,1.14-10.54,3.77-15,11-3.8,6.16-4.5,14.29-3,19,8.16,25.59,99.46,7,166,5,3.28-.1,11.67-.31,18-6,9-8.12,8.42-22.49,8-30-3.58-63.59-5.54-95.5-14-101C2094.06,2447.39,2060.74,2461.81,2045,2472Z" transform="translate(-532.93 -562.44)"/><path class="cls-1" d="M2057,2191c-6.45,13.9-9.36,28.1-12,41-6.13,29.93-5.22,51.57-5,72,.73,67.27-6,121.27-9,145-3.27,26.09-7.05,47.72-10,63,9.24-.11,23.11-.35,40-1,20.37-.78,30.55-1.17,35-2,19.43-3.62,33.67-22.6,58-75,27.57-59.36,44.6-96,53-153,4.1-27.81,7.3-51,1-81-4.77-22.76-14.26-68-45-79C2125.79,2107.74,2075.46,2151.2,2057,2191Z" transform="translate(-532.93 -562.44)"/><path class="cls-2" d="M1920,1644c-4.29,6.24-7.25,23.91-13,59-6.87,41.94-10.31,62.92-12,91-3.29,54.62,2.26,96.53,7,131,.82,6,7.55,39,21,105a597.41,597.41,0,0,0,21,78c4.12,12,8,21,8,21s17,30,103,43c38.29,5.79,61,6.51,95,6,32.5-.49,73-9,73-9s.27-34.49,2-49c9.74-81.61,9.15-139.57,13-140,2.92-.32,13.68,31.83,15,74,1.64,52.38-3,107-3,107s28-6,41-13a202.77,202.77,0,0,0,32-22s2.71-18.77,5-56c3-48.92,3-45.69,3-48,.82-78.89-6.18-153.43-7-162-5.48-57-8.4-86-17-109-7.53-20.17-20.62-55.23-51-83-34.92-31.92-77.09-36.71-160-45C2008.49,1614.25,1944.33,1608.61,1920,1644Z" transform="translate(-532.93 -562.44)"/><path class="cls-1" d="M1038,2470c1.47-1.09,3.56-.55,27,13,25.61,14.8,28.11,17,28,20-.29,7.76-18.51,17.23-33,13C1038.38,2509.69,1031.54,2474.78,1038,2470Z" transform="translate(-532.93 -562.44)"/><path class="cls-1" d="M909,2445c-6,7-1.13,8-9,47-7,34.9-14.22,50.52-6,69a40.79,40.79,0,0,0,11,15c11.74,9.66,26.57,9.22,34,9,29-.84,58-1.1,87-2,30.82-1,65,0,65,0h0s9.52-17.59,9-30c-.64-15.42-16.71-20.71-35-40-21.41-22.57-16-32.85-31-50C1002.17,2426.52,930.94,2419.32,909,2445Z" transform="translate(-532.93 -562.44)"/><path class="cls-1" d="M654,2438c-5.91,4.22-5.92,7.93-18,37-14.08,33.89-21.12,50.83-27,59-18.87,26.21-38.4,30.21-46,57-2.12,7.47-2,12.16,0,16,4.29,8.18,15.83,9.8,46,11,60.61,2.4,58.63-2.37,81,1a103.72,103.72,0,0,0,29,0c9.68-1.34,15.85-2.28,21-7,3.06-2.8,6.81-7.9,9-29,1.91-18.35,1-30,1-30-3.81-48.95,8.38-59.2,0-79C735.45,2439.64,677.77,2421,654,2438Z" transform="translate(-532.93 -562.44)"/><path class="cls-3" d="M1197,1764c.22,113.89-88.62,473.77-108,552-19.28,77.83-20.22,139.77-27,151-8.29,13.74-31.36,20-72,20-82,0-90.87-4.76-106-18-8-7,49.23-329.5,39-438-1-10.3,21.66-28.72,19-63-5.53-71.4-8.19-107.78-3-141,6.11-39.12,12.17-77.84,39-102C1019.28,1687.84,1119.77,1722,1197,1764Z" transform="translate(-532.93 -562.44)"/><path class="cls-3" d="M1017,1951c-66,54-119.43,223-144,290-43.33,118.09-74,225-94,259-10.24,17.41-32.32,17.5-67,17-54.52-.78-89-6-107.36-15.89-5.05-2.72-9.8-5.7-8.59-11.3,21.31-98.55,92.31-475.3,132-721.81,90.69-52.94,240.46-61.21,289-25" transform="translate(-532.93 -562.44)"/><path class="cls-1" d="M2041.76,743.4c-7.12-.76-12.87,2.52-21.33-1.38-6.57-3-9.33-7.86-11-6.88-2.3,1.35.79,11.68,4.13,19.27,5.14,11.68,11.14,17.51,9.63,19.27-2.12,2.47-15.33-7.56-17.89-4.82-1.76,1.89,2.36,8.94,6.19,13.76,4.76,6,16.88,21.19,34.4,18.58,10.9-1.63,22.44-9.94,24.77-21.33C2074.11,763,2056.25,744.94,2041.76,743.4Z" transform="translate(-532.93 -562.44)"/><path class="cls-1" d="M735.81,691.1c-3.08-1.08-3.7-8.57-4.13-13.76-.32-3.87.12-4.36,0-9.63-.24-10.54-2.12-13.37-.69-14.45,3.1-2.34,19,5.51,20,17.89C751.84,682.36,740.14,692.62,735.81,691.1Z" transform="translate(-532.93 -562.44)"/><path class="cls-1" d="M1028.24,590.65c1.09-10.69,28.13-17.68,36.47-19.27a115.56,115.56,0,0,1,18.58-2.06c6.84-.05,8.08.73,13.07,0,9.05-1.32,13.62-5.16,15.14-3.44,1.28,1.45-.62,5.69-2.75,8.26-2.67,3.22-5.74,3.83-5.5,4.82s4.36,1.6,8.26.69c5.67-1.32,8.41-5,9.63-4.13,1,.74-.68,3.3-.69,7.57a19.45,19.45,0,0,0,2.06,8.26c1.94,4.56,8.94,24.34,4.13,31.65-5.2,7.91-25.44,3.07-37.84,0C1070.41,618.43,1026.82,604.62,1028.24,590.65Z" transform="translate(-532.93 -562.44)"/><path class="cls-1" d="M1077.09,705.55c4.09-5.16,23.91,5.1,46.79,2.06,7.88-1,12.44-3.18,15.83-6.19,4.74-4.22,6.28-9.37,7.57-8.94s1.05,6.67-.69,12.39C1143.74,714.2,1138,719,1139,720s5.84-2,9.63-5.5c3.52-3.23,4.75-5.83,5.5-5.5,1,.44-.49,5.53-2.06,13.07-2.42,11.6-1.54,12.45-2.75,15.83-3.51,9.81-15.75,16-24.08,17.2C1097.64,759,1071,713.29,1077.09,705.55Z" transform="translate(-532.93 -562.44)"/><path class="cls-1" d="M1477.89,1163.46c-1.22-1.44,4.5-5.56,10.32-18.58,5.4-12.09,5.19-19.11,8.26-33,4.3-19.54,7.15-16.75,12.39-37.16,6.52-25.42,3-33.35,12.39-45.41,3.06-3.94,9.08-11.48,18.58-12.39,10.79-1,18.89,7.17,20.64,8.94,11.81,12,10.22,29.84,9.63,36.47-1,11.51-5.17,23.77-17.89,41.28C1523,1143.79,1481.05,1167.18,1477.89,1163.46Z" transform="translate(-532.93 -562.44)"/><path class="cls-1" d="M1607.93,1153.83c19.32,4,25.52-6.33,51.6,0,20.1,4.88,24.8,13,26.15,15.83,4.32,8.91,1.13,18,.69,19.27-.72,2-4,9.77-16.51,15.83-17.2,8.34-37.94,11.43-90.82,2.06-25.51-4.52-79.59-11.35-91.51-3.44-5.34,3.54-8.26,7.06-12.39,6.19-7.9-1.66-14.4-18.19-10.32-31,1.82-5.7,4.88-7.93,23.39-23.39,22.11-18.46,21-18,24.08-20,9-5.72,24.57-15.53,41.28-14.45C1579.19,1122.46,1579.39,1147.89,1607.93,1153.83Z" transform="translate(-532.93 -562.44)"/><path class="cls-4" d="M1441.08,1179.63l33-29.59c31.39-3.9,71.56,47.48,75,72.93l-38.53,39.91Z" transform="translate(-532.93 -562.44)"/><path class="cls-3" d="M1306.56,1266c4.45-7.16,10.31-16.57,20.64-19.27,5.57-1.45,10.49-.44,19.27-3.44a62.36,62.36,0,0,0,12.39-6.19c19.57-12.75,65-58.83,77.06-70.87,32.15-9,97.09,47.53,98.39,106,0,0-23.05,40.94-150,150.69a62.58,62.58,0,0,1-18.58,6.88,61.5,61.5,0,0,1-21.33-.69C1312.64,1421.76,1284.12,1302.06,1306.56,1266Z" transform="translate(-532.93 -562.44)"/><path class="cls-3" d="M1359.2,1430.08c-17.2,5.5-83-25.5-132.45-54.7-24.55-14.49-46.74-28.84-53.67-33.72-76.06-53.58-110-232.37-71.56-253.21,14.8-8,40.85,7.08,57.11,16.51,12.58,7.3,17.38,12.63,46.1,40.6,32.29,31.44,52.17,50,72.25,64.68a192.88,192.88,0,0,0,41.28,23.39c2.26.93,6.21,1.63,11,4.13,12.35,6.43,18.77,16.68,22,22,17.71,29.07,20.64,76.37,20.64,76.37" transform="translate(-532.93 -562.44)"/><path class="cls-3" d="M1073.31,1078.14c5.2-9.11,20.52-11.59,25.46-12.39,14-2.27,25,1.92,34.4,5.5,7.47,2.85,22.23,8.47,34.4,22,4.14,4.6,10.73,13.18,20,47.48,5.89,21.9,9.93,36.9,11.7,58.49,1.17,14.27,6.16,75-8.26,79.13s-24.45-54.25-86.7-136.24C1087.55,1120.11,1064.69,1093.24,1073.31,1078.14Z" transform="translate(-532.93 -562.44)"/><path class="cls-4" d="M1058.1,1068.51c10.5,13.66,13.75,35,20.25,77.75,2.06,13.52,10.85,74,6.14,160.32-2,36.83-7.48,63.78-18.41,117.66-3.68,18.16-6.77,31.34-11.66,31.65-8.78.56-15.19-40.95-26.39-82.57-15.7-58.32-35.68-132.58-84.07-178.21-50.22-47.35-102.83-37.27-106.78-68.12-3.64-28.44,38.62-56.06,49.71-63.3C939.17,1029.52,1021.83,1021.34,1058.1,1068.51Z" transform="translate(-532.93 -562.44)"/><path class="cls-5" d="M999.69,1157.27c2.29,19.2,6.68,29.35,9.63,40.6,7,26.7,4,52.27,1.38,75-1.38,11.8-2.83,17.36-2.06,28.21,1.2,17,6.54,28.69,10.32,37.84,19.58,47.45,17.55,77.3,26.83,77.75,6,.29,11-11.77,15.14-22,13.55-33.36,14.21-66.57,11-94.26-.28-2.39-6.84-27.51-20-77.75-2.57-9.85-7.27-27.42-17.89-46.79-4.93-9-8.78-14.09-15.83-23.39-8.45-11.17-14-18.41-17.2-17.2C997.31,1136.67,998.71,1149.07,999.69,1157.27Z" transform="translate(-532.93 -562.44)"/><path class="cls-5" d="M980.42,1145.57c2.43,7.67,6.85,7,12.39,19.27,1.23,2.73,2.14,5.26,4.82,6.88,2.9,1.76,6.13,1.38,12.39,0,12.8-2.82,19.2-4.23,21.33-7.57s1.45-7.32,0-15.14a79.44,79.44,0,0,0-11-28.21c-6.43-10.06-9.65-15.09-15.14-15.83-11.36-1.52-20.84,16.26-21.33,17.2C982.4,1125,977.12,1135.16,980.42,1145.57Z" transform="translate(-532.93 -562.44)"/><path class="cls-4" d="M986.61,1100.16c3.87-2.35,17.81,12.11,27.52,25.46,19.13,26.29,20.11,45.89,25.46,45.41,7.41-.66,11-38.8,8.94-70.18-.67-10.37-1-15.62-2.75-19.27-18.39-39.05-116.41-21.64-121.79-20.64-8.72,1.63-54.59,10.18-55,24.08-.27,8.21,15.6,9.4,44,29.59,14.06,10,36.17,25.67,53,52.29,10.11,16,12,26,16.51,25.46,7.77-.87,14.44-31.51,10.32-59.86C990.06,1113.57,983.43,1102.09,986.61,1100.16Z" transform="translate(-532.93 -562.44)"/><path class="cls-3" d="M694.87,1208.87c5-4.09,5.8-8.29,25.46-15.14,6.14-2.14,14.37-5.15,29.59-13.07a252.94,252.94,0,0,0,48.85-33.72c9.6-8.71,10.78-11.37,17.2-14.45,16.43-7.87,34.19-2.63,42.66,0,61.29,19,105.27,74.31,105.27,74.31,73.36,92.22,82.67,216.71,82.57,225a25.72,25.72,0,0,0,1.38,8.94,29.15,29.15,0,0,0,9.63,13.07c12.95,10.7,9.29,76.54,10.32,129.36.54,27.79-4.3,55.46-4.82,83.26,0,2.62,1.64,154.53-1,159.57-9.77,18.72-82.29,40.85-99,42-62.41,4.28-206.57-16.78-251-72,9-37,26.34-96,31-134,1.36-11.1-41.55-18.12-42.62-131.12-1.11-116.77,6.5-117.14-2.06-158.94-5-24.24-9-49-17.2-98.39C676.35,1244.68,680.42,1220.73,694.87,1208.87Z" transform="translate(-532.93 -562.44)"/><path class="cls-3" d="M775.38,1149.25c9.93-3.34,20.74-10.49,32-23.85,13.76-16.34,22.36-18,28.9-29.41,13.13-23,46.49,3.7,52.64,6.86,6.65,3.42,31.84,16.91,59.86,50.32,23.06,27.5,33.85,51.57,50.23,88.88,17.57,40,26.7,71.62,34.4,98.68A757.65,757.65,0,0,1,1054,1436.8c.39,2.64,6.17,42,3.44,42.48-2.21.4-6.49-25.4-18.58-54.24-4.19-10-19.18-44.93-49.54-76.46-42.09-43.72-92.9-59.3-88.07-74.5.68-2.14,33.62-19.79,36.47-25.49,4.7-9.41-84.9-73.48-128-73.19-4.23,0-18.27.37-30.27-7.84-5.63-3.85-12.84-11-11-15C769.46,1150.37,772.41,1150.25,775.38,1149.25Z" transform="translate(-532.93 -562.44)"/><path class="cls-3" d="M1054,1078.83c-7.08,15.28,5.42,29.68,13.79,58.63a178,178,0,0,1,6.85,46s15.1,135.5-24.08,302.06c-.12.5-.77,3.2-1.38,6.88a105.64,105.64,0,0,0-1.38,17.89c.17,27.27,4.82,84.63,4.82,84.63,1.23,26.87,1.08,48,.69,62.61-.36,13.45-1,25,6.19,30.27,4.55,3.32,16.29,145.13,31.45,142.24,42,6,48-4.88,60-9,22.07-7.54,53.68-42.35,55-45,9-18-27.58-131.56-26-136.4,29.45-92.71,30.27-206.42,30.27-206.42.43-59.56.66-91.57-4.13-138.3-4-39-10.23-66.11-22.71-120.41-10.35-45-18.71-72.27-41.28-88.07-11.31-7.92-27.05-13.57-37.16-17.2-22.52-8.09-30.08-6.8-35.09-4.82C1068.36,1065,1058.59,1069,1054,1078.83Z" transform="translate(-532.93 -562.44)"/><path class="cls-3" d="M1012.07,1049.93c-4.41,9.37,10.82,18.1,26.15,49.54,8.91,18.29,12.14,33.75,18.58,64.68a559.73,559.73,0,0,1,11.7,99.08c1,40.13-2.76,70.61-5.5,92.2-4.06,32-7.87,44.35-17.2,106.65-6.81,45.5,1.37,53.08,2.41,53.32,1.71.4-1.7-14.87,18.92-82.22,28.3-92.47,72.93-161.32,64.68-177.52-7.7-15.12-30.73-9.91-38.53-27.52-3.73-8.41-.17-13.45,7.57-44.72,6.54-26.41,9.8-39.62,10.32-56.42.89-29-6.43-45.13-8.94-50.23s-6.23-12.64-13.07-19.27C1065.58,1034.7,1018.9,1035.43,1012.07,1049.93Z" transform="translate(-532.93 -562.44)"/><path class="cls-6" d="M1345.78,1252.91a199.2,199.2,0,0,1,14.45,67.43" transform="translate(-532.93 -562.44)"/><path class="cls-6" d="M1353,1262.54a87.1,87.1,0,0,1,31.65,31.65" transform="translate(-532.93 -562.44)"/><path class="cls-6" d="M1345.78,1248.09a99.34,99.34,0,0,1,17.2,4.82,95.91,95.91,0,0,1,24.77,13.76,89.64,89.64,0,0,1,17.2,17.89" transform="translate(-532.93 -562.44)"/><path class="cls-6" d="M1059.55,1508.87c-.1-2.6-.36-9.18,4.13-15.14.75-1,7.06-9.12,15.83-8.26,9.13.9,14.46,10.92,15.83,17.89,1.71,8.72-1,21.93-11,25.46-7.54,2.65-16.18-1.21-20.64-6.88C1059.87,1517.1,1059.65,1511.62,1059.55,1508.87Z" transform="translate(-532.93 -562.44)"/><path class="cls-6" d="M1067.8,1617.58c.14-2.88.39-7.75,4.13-11.7,3.53-3.73,9.62-6,15.14-4.13,7.26,2.53,9,10.83,9.63,13.76.58,2.74,2.44,14.08-5.5,20-3.84,2.85-9.59,4.12-14.45,2.06C1067.27,1633.53,1067.7,1619.64,1067.8,1617.58Z" transform="translate(-532.93 -562.44)"/><path class="cls-1" d="M942.58,657.73c.4-7.1,21.69-5.13,43.35-26.15,9.5-9.22,7.82-11.94,20.64-25.46,11.43-12.06,20.29-21.39,35.09-26.83,16.71-6.15,31.61-3.89,38.53-2.75,9.75,1.6,24,3.93,35.09,14.45,14,13.28,15.45,32.49,17.89,64.68,1.37,18-.68,19.19,1.38,39.22.86,8.35,2.06,16.35.69,27.52-1.34,10.92-2.33,19.07-6.88,22-10.67,6.93-33.88-19.29-62.61-38.53C1005.47,665.54,941.89,670,942.58,657.73Z" transform="translate(-532.93 -562.44)"/><path class="cls-7" d="M1058.86,663.92c-26.18-12-49.43-14.66-71.56-17.2a292.89,292.89,0,0,0-34-2A285.23,285.23,0,0,0,893,651.54c-27.11,6.19-70.93,16.1-108,53.67-9.53,9.65-31.59,34.24-43.35,71.56-6.13,19.44-7.23,35.27-8.94,59.86a395.76,395.76,0,0,0,.69,71.56c2.08,19.91,1.65,40.09,4.82,59.86.76,4.76,2.74,16.45-2.75,28.21a31.77,31.77,0,0,1-12.39,14.45,30.93,30.93,0,0,1-18.58,4.13c-13.86-1.47-21.49-12.67-23.39-11s4.43,11.88,9.63,19.27a121.22,121.22,0,0,0,20.64,23.39c8.29,7.24,19,16.63,33.72,21.33,26.18,8.4,50.95-2.57,51.6,0,.45,1.76-11.94,3.72-23.39,13.76-13.69,12-19.64,29.95-17.2,31.65,1.69,1.17,6.87-5.74,14.45-11.7,30.79-24.22,79.24-15.61,79.82-11,.27,2.15-10.05,2.19-16.51,11.7-4.08,6-4.52,12.69-4.82,17.2-.55,8.32.31,19,2.75,19.27,2.17.26,3.22-8,7.57-15.14,9.34-15.32,29.87-18.84,41.28-20.64,21.94-3.46,34.83.77,66.05,6.19,44.51,7.73,67.32,11.49,94.26,6.19,16.31-3.2,37.11-7.29,50.23-24.08,3-3.86,8.2-14.27,18.58-35.09s10.25-21.9,13.76-26.15c2.82-3.42,16.92-19.73,38.53-22.71,14.16-2,24.42,2.81,25.46,0,.91-2.45-6.07-8.28-13.76-11-10.54-3.73-19.58-.62-20-2.06s10.74-4.18,22-11c16.81-10.18,27.39-25.83,25.46-28.21-.85-1.05-3.67,1.08-12.39,2.75-5.66,1.09-14.07,2-14.45.69s9.54-3.17,18.58-10.32c10.72-8.48,14.59-20.24,17.89-30.27a83.85,83.85,0,0,0,4.13-33c-1.19-13.88-6.1-27-9.63-26.83-2.32.13-2.33,5.88-7.57,8.26a12,12,0,0,1-8.94,0c-6.37-2.72-8.28-11.46-8.94-14.45-6.15-27.48-21.79-75.93-24.77-84.63-10.09-29.48-27.45-48.53-37.16-59.17C1092.2,679.62,1064.93,666.7,1058.86,663.92Z" transform="translate(-532.93 -562.44)"/><path class="cls-8" d="M720.33,1020.34c2.62-4.43,10.08-1.34,19.27-5.5,3.48-1.58,10.38-5.64,17.89-21.33,15.51-32.42,12.16-69.64,11.7-74.31-2.5-25-11.82-53.23-4.85-57.5,2.76-1.69,3.31,2.32,7.09,3.15,20.26,4.46,22-4.66,25.21-18.12,6.3-26.79-4.65-68.28.79-84.31,3.89-11.45,24.83-23.14,23.64-55.94-.91-24.9,45.53-19.65,52-29.48,9.88-15,37.6-20.5,57.8-13.07,15.85,5.83,24.12,18.54,30.27,15.14,5.61-3.1.26-14.51,6.88-22,7.31-8.29,23.39-5.18,38.53-2.06,11.93,2.46,32.57,6.91,57.11,22a193.62,193.62,0,0,1,45.41,39.91c8.36,10,22.32,26.92,31.65,52.29,4.72,12.83,10.42,33.71,13.76,56.42,1.69,11.51,3.07,25.43,13.07,38.53,3.37,4.41,8.9,11.46,16.51,11.7,9.48.29,14.82-10.23,19.27-8.26,4.72,2.09,2.89,15.78,2.06,22-1.34,10.08-3.72,26.41-15.83,43.35-6.51,9.1-12.48,17.46-23.39,21.33-6.89,2.44-12.82,2.05-13.07,4.13-.32,2.62,8.65,7.15,17.89,7.57,8.08.37,13.17-2.55,13.76-1.38.79,1.58-7.69,8.3-17.89,13.76-16.19,8.66-28.36,9.67-28.21,13.07.08,1.92,4,3.22,11,5.5,10.65,3.49,17.91,3.9,17.89,4.82,0,1.16-11.59-.42-24.08,4.13-10.14,3.69-16.48,9.8-22,15.14-9.15,8.82-14.29,17.59-21.33,29.59-7.22,12.31-6.38,13.37-11.7,20.64-4.46,6.1-10.68,14.62-20.64,20-8.36,4.47-16.21,5-30.27,4.82a468.07,468.07,0,0,1-50.23-3.44c-19.8-2.39-38.17-4.61-60.55-5.5-37.83-1.51-48.85,2.3-55.73,5.5-14.23,6.62-22.9,16.3-24.77,14.45s3.47-12.14,12.39-18.58c8.06-5.82,15.12-5.45,15.14-7.57,0-3.34-17.46-6.77-32.34-7.57-11.07-.6-23.56-1.14-37.84,4.13-11,4.06-17,9.35-17.89,8.26-1.05-1.36,6.95-11.27,18.58-17.89s21.44-6.74,21.33-8.26c-.16-2.26-21.61-2.1-51.6-4.82-25.34-2.3-34.6-4.64-42.66-11.7C723.7,1036.36,717.25,1025.55,720.33,1020.34Z" transform="translate(-532.93 -562.44)"/><path class="cls-9" d="M1083.63,1005.2c.48.91-3.92,3.14-8.26,8.26-4.07,4.79-5.92,9.56-7.57,13.76-3.25,8.32-2.06,10.38-5.5,15.83a27,27,0,0,1-6.41,7.2c-.07-1.18-.26-2.44-.47-3.76a30.13,30.13,0,0,0-3.44-9.63,44.46,44.46,0,0,0-6.19-8.94,51.11,51.11,0,0,0-10.71-8.88c9.05-7.06,13.94-17.54,20.34-15.89.89.23.85.44,3.44,1.38a46.24,46.24,0,0,0,11.7,2.75C1078.21,1007.75,1083.1,1004.21,1083.63,1005.2Z" transform="translate(-532.93 -562.44)"/><path class="cls-10" d="M1055.89,1050.25l-.47.36c-6.16,4.49-12.84,4.71-18.58,4.82a50.27,50.27,0,0,1-26.15-6.19c-11.15-6.22-16.44-14.89-20-20.64-3.81-6.24-8.18-15.7-6.19-17.2s8,7.73,20.64,11.7c3.13,1,12.13,3.81,21.33.69a29,29,0,0,0,8.56-4.75,51.11,51.11,0,0,1,10.71,8.88,44.46,44.46,0,0,1,6.19,8.94,30.13,30.13,0,0,1,3.44,9.63C1055.63,1047.82,1055.82,1049.07,1055.89,1050.25Z" transform="translate(-532.93 -562.44)"/><path class="cls-6" d="M1055.89,1050.25l-.47.36c-6.16,4.49-12.84,4.71-18.58,4.82a50.27,50.27,0,0,1-26.15-6.19c-11.15-6.22-16.44-14.89-20-20.64-3.81-6.24-8.18-15.7-6.19-17.2s8,7.73,20.64,11.7c3.13,1,12.13,3.81,21.33.69a29,29,0,0,0,8.56-4.75c9.05-7.06,13.94-17.54,20.34-15.89.89.23.85.44,3.44,1.38a46.24,46.24,0,0,0,11.7,2.75c7.66.48,12.54-3.06,13.07-2.06s-3.92,3.14-8.26,8.26c-4.07,4.79-5.92,9.56-7.57,13.76-3.25,8.32-2.06,10.38-5.5,15.83A27,27,0,0,1,1055.89,1050.25Z" transform="translate(-532.93 -562.44)"/><path class="cls-6" d="M1035.08,1019a51.11,51.11,0,0,1,10.71,8.88,44.46,44.46,0,0,1,6.19,8.94,30.13,30.13,0,0,1,3.44,9.63c.21,1.33.41,2.59.47,3.76" transform="translate(-532.93 -562.44)"/><path class="cls-1" d="M889.6,663.24c-5.73-8.05-14.43-7.3-33-13.07-25.51-7.92-24.09-14-39.91-16.51-22.19-3.58-40.94,5.72-46.79,8.94-20.17,11.11-29,28.13-36.47,42.66-5,9.66-14.8,29.19-13.76,54.36.42,10.32,2,5.87,6.19,31.65,3.67,22.7,3.68,33.89,11,49.54a61.59,61.59,0,0,0,9.63,15.14c5.45,6.21,13.12,12.27,19.27,14.45,17.9,6.36,39.56-99,117.57-169.13C889.38,675.81,894.86,670.63,889.6,663.24Z" transform="translate(-532.93 -562.44)"/><path class="cls-11" d="M857.94,900.62c7.15-18.61,19.61-29.28,28.21-36.47,4.81-4,35.86-29.24,77.06-27.52,10.46.44,21,.87,31.65,7.57,11.91,7.5,16.21,18,20.64,16.51,4.94-1.66.4-15,6.88-28.21,7.3-14.86,24.06-20.42,31-22.71,20.87-6.92,47.17-3.64,64,11.7,8.76,8,13.61,18,17.2,25.46,4.78,9.88,7.51,15.55,7.57,23.39.14,19.43-16.3,33-21.33,37.16-6.21,5.13-13.67,11.28-24.08,11.7-12.27.49-22.43-7.23-24.08-4.82-1.37,2,6,6.68,4.82,11.7-1.15,4.87-9,4.23-22,10.32-12.5,5.84-15.48,11.18-21.33,9.63-3.28-.87-4.77-3.19-9.63-10.32-16.31-23.9-18.77-25.87-20-25.46-1.86.65,0,6.91-.69,13.76-1.5,14.26-13.54,23.75-24.77,32.34S945,982.43,912.3,981.81c-11.4-.22-29.42-.56-43.35-13.76-11.37-10.77-14.12-24.53-15.14-29.59C850.32,921,855.47,907.07,857.94,900.62Z" transform="translate(-532.93 -562.44)"/><path class="cls-1" d="M877.9,945.34c-8.33-13-7.26-26.31-6.88-30.27,1.45-15.27,9.64-25.14,17.89-35.09,19.9-24,43.3-31.58,62.61-37.84,8.43-2.73,14.9-4,21.33-1.38,10.28,4.26,14.12,16.05,16.51,23.39,8.75,26.83-1.62,51.13-2.75,53.67-9.76,22-27.13,32.38-35.09,37.16-10.49,6.28-21.73,13-37.16,11.7C911.66,966.44,890,964.22,877.9,945.34Z" transform="translate(-532.93 -562.44)"/><path class="cls-1" d="M1026.52,831.81c-4.86,11.17-.57,22.26,4.13,34.4a72.1,72.1,0,0,0,18.58,28.21c6.66,6.14,17.07,15.73,33,16.51,3.07.15,17.25.51,29.59-9.63a38.13,38.13,0,0,0,12.39-17.2c4.42-13-.32-24.65-3.44-32.34a66,66,0,0,0-22-28.21c-4.55-3.26-23.64-16.94-46.1-11C1048.72,813.59,1032.6,817.84,1026.52,831.81Z" transform="translate(-532.93 -562.44)"/><path class="cls-8" d="M939.82,908.19c1.35,4.2,5.53,6.51,6.19,6.88,6,3.3,12.44,1,15.14,0s7-2.52,9.63-6.88c2-3.28,2-6.54,2.06-9.63a20.46,20.46,0,0,0-2.06-10.32c-.84-1.61-2.95-5.69-6.19-6.88C955.5,878,936.17,896.79,939.82,908.19Z" transform="translate(-532.93 -562.44)"/><path class="cls-8" d="M1051.29,873.78c1.35,4.2,5.53,6.51,6.19,6.88,6,3.3,12.44,1,15.14,0s7-2.52,9.63-6.88c2-3.28,2-6.54,2.06-9.63a20.46,20.46,0,0,0-2.06-10.32c-.84-1.61-2.95-5.69-6.19-6.88C1067,843.6,1047.63,862.39,1051.29,873.78Z" transform="translate(-532.93 -562.44)"/><path class="cls-1" d="M1021.7,949.47c-.75,2.66,4.89,18.85,7.57,22a20.16,20.16,0,0,0,4.82,4.13c9,5.24,46.17-14.93,47.48-16.51.71-.85,2.29-3,2.75-8.26.33-3.73-2.74-19.95-4.13-22,0,0-1.3-3.92-4.82-4.13-11.7-.69-45.1,14.52-51.6,21.33A8.21,8.21,0,0,0,1021.7,949.47Z" transform="translate(-532.93 -562.44)"/><path class="cls-8" d="M1039.59,948.09a7.27,7.27,0,0,0,1.38,4.13c.83,1.07,2.48,2.41,6.88,2.75,3.69.29,6.69-.33,15.83-3.44,9.5-3.23,11.12-4.22,12.39-6.19a10.54,10.54,0,0,0,1.38-8.26,9.63,9.63,0,0,0-3.44-4.82c-6.06-4.5-16.05-.1-24.08,3.44-2.91,1.28-6,2.93-8.26,6.19A9.93,9.93,0,0,0,1039.59,948.09Z" transform="translate(-532.93 -562.44)"/><path class="cls-1" d="M1065.74,961.86c1.73,3.82,1.41,7.4.69,12.39-1.52,10.46-2.28,15.69-4.13,20-3,6.94-6.9,11.3-10.32,15.14-4.41,4.95-8.44,9.46-15.14,13.07a46.06,46.06,0,0,1-34.4,3.44,67.42,67.42,0,0,1-11-4.82c-7-3.6-9.52-5.91-11-7.57a22.18,22.18,0,0,1-3.44-4.82c-1.14-2.16-1.81-3.45-1.38-4.82.74-2.31,4.27-3.74,6.19-2.75,1.66.85,1.78,3.33,2.06,4.82,1.63,8.66,14.46,15.77,24.77,17.2,6.81.94,12-.67,16.51-2.06,2.62-.81,21.5-7,31-25.46a57.77,57.77,0,0,0,5.5-31.65c-.56-4.26-1.51-7.19-.69-7.57S1064.36,958.8,1065.74,961.86Z" transform="translate(-532.93 -562.44)"/><path class="cls-1" d="M1058.86,996.26c2.07,0,2.76,3.22,4.82,5.5,5.23,5.8,18,4.27,26.15,0a24.6,24.6,0,0,0,10.32-9.63,18.24,18.24,0,0,0,2.75-9.63c-.14-4.77-2.51-8-2.06-8.26s3,2.44,4.13,6.19c1.28,4.24.18,8-.69,11a25.22,25.22,0,0,1-4.82,9.63c-4.14,5-9.24,6.71-13.76,8.26a32.25,32.25,0,0,1-13.76,2.06,21.22,21.22,0,0,1-9.63-2.75c-1.14-.68-7.7-4.75-6.88-8.94C1055.75,998,1057.33,996.25,1058.86,996.26Z" transform="translate(-532.93 -562.44)"/><path class="cls-1" d="M1523.3,1116c.26-13.65,34.52-22.76,55-28.21,11.91-3.17,36.13-8.45,64-2.06,16.54,3.79,20.85,8.59,22.71,12.39,6.14,12.55-7,29.58-7.57,30.27-23.8,30.05-81.21,16.66-87.38,15.14C1567.43,1142.85,1523,1131.6,1523.3,1116Z" transform="translate(-532.93 -562.44)"/><path class="cls-1" d="M1529.49,1153.14c-1.74-10.57,40.09-25.94,63.3-32.34,17.48-4.82,28.86-5.51,51.6-6.88,13.81-.83,22.83-.57,31.65,4.82,3,1.81,11.67,7.12,14.45,17.89,2.08,8.06.25,16.86-4.13,22.71-6.06,8.08-16.2,9.42-42,10.32-40.53,1.42-66.78-.1-97.16-8C1533.73,1158.1,1530,1156.07,1529.49,1153.14Z" transform="translate(-532.93 -562.44)"/><path class="cls-12" d="M1000,1128c-1.76,1.53.79,4.69,1.38,13.07.64,9.14-1.92,11.9.69,15.83,2.92,4.38,8.7,4.8,8.94,4.82a10.9,10.9,0,0,0,11.7-8.94c2.11-9.53-7.78-18.26-8.94-19.27C1009.6,1129.93,1002.45,1125.92,1000,1128Z" transform="translate(-532.93 -562.44)"/><path class="cls-12" d="M1015.17,1180.32c-1,.4,2.44,8.19,4.82,21.33a160.8,160.8,0,0,1,2.06,37.16c-.84,14-3,18.24-1.38,29.59a80.72,80.72,0,0,0,4.13,15.83c5.79,17.16,12.34,38.53,15.83,52.29,6.23,24.61,5.76,37,8.94,37.16,4.27.19,8.45-22,9.63-28.21a170.44,170.44,0,0,0,2.75-39.22,195.32,195.32,0,0,0-3.44-28.21c-2.92-16.15-4.67-17.33-11.7-44.72-4.9-19.11-5.6-24.59-10.32-36.47-4.22-10.6-9.84-21.77-11-21.33s2.07,9.78,4.82,22c5.09,22.64,5.9,39.85,5.5,39.91s-1.19-15-8.26-33.72C1022.81,1191.12,1016.37,1179.83,1015.17,1180.32Z" transform="translate(-532.93 -562.44)"/><path class="cls-13" d="M2100.59,1133.18c-11.21-9.71-31.66-4.85-69.49,4.13-18.49,4.39-31.17,7.51-46.1,16.51-6,3.62-14.93,9.74-38.53,35.09-13.75,14.77-20.8,23.53-35.78,41.28-37,43.89-43.13,48.74-57.8,70.18-16.41,24-21.25,36.2-24.08,46.79-5.85,21.87-3.61,38.67-2.75,44,1.46,9.07,3.42,21.3,12.39,33a69.74,69.74,0,0,0,27.52,20c35.8,14.09,110.86-28.65,161-86.7,40.25-46.58,53.23-90,69.49-144.49C2115.06,1150.71,2105.85,1137.75,2100.59,1133.18Z" transform="translate(-532.93 -562.44)"/><path class="cls-13" d="M2026.28,1146.94c9.32-6.4,27.64-18.74,54.36-24.77,19.17-4.33,28.09-2.13,100.46,6.88,52.23,6.5,62.26,7.18,79.82,15.14,8.32,3.77,28.05,12.94,46.1,31.65,38.65,40.08,40.16,93.52,40.6,108.71.71,25.15-9.84,57.7-31,121.79-21.45,65.05-23.43,61.18-33,97,0,0-14.24,53.21-16.51,130-.89,30.15,2.24,41.89,8.26,51.6,4.23,6.82,8.42,10.28,7.57,15.14-2.16,12.29-33.66,16.55-51.6,18.58-68.5,7.75-125.28,4.08-152.75,2.06-71.37-5.24-90.64-10-110.09-17.89-16.13-6.51-42.39-9.52-53-29.59-4.73-9-14.07-68.61-14.45-125.23-.65-97.37,20-185.78,20-185.78C1940.52,1278.57,1960.69,1192,2026.28,1146.94Z" transform="translate(-532.93 -562.44)"/><path class="cls-1" d="M2066.18,1142.13c-3.13,3.07,1.62,10.64,8.26,28.21,10,26.59,11,40.73,15.14,40.6,3.08-.1,3.3-8.14,8.94-22.71,9.72-25.07,22.4-35.59,18.58-40.6-2.44-3.2-7.89.76-21.33,0C2077.89,1146.63,2069.77,1138.61,2066.18,1142.13Z" transform="translate(-532.93 -562.44)"/><path class="cls-4" d="M2073.06,1166.9a8.46,8.46,0,0,0-7.57-4.82c-7,0-17.59,12.81-22.71,26.83-2.92,8-3.25,13.85-4.13,13.76-1.19-.12-2.06-11,0-22,2.38-12.83,7.72-20.66,12.39-27.52,2.49-3.65,5.68-7.7,11-9.63,2-.72,4.15-1.5,6.19-.69C2075.48,1145.71,2064.12,1141.44,2073.06,1166.9Z" transform="translate(-532.93 -562.44)"/><path class="cls-4" d="M2102.65,1164.15c-2.16,7.25,1.55,10.53,3.44,23.39,4.39,29.81-4.82,53-4.82,53a231.56,231.56,0,0,0,31-23.39s39.42-35.12,88.07-59.17c17.65-8.73,26.1-10,28.9-10.32,12.53-1.57,20.51,1,22.71-2.75,2.65-4.55-4.66-15.64-13.07-22-8.63-6.55-21.66-10.58-114.22,16.51C2123.91,1145.44,2106.61,1150.9,2102.65,1164.15Z" transform="translate(-532.93 -562.44)"/><path class="cls-14" d="M1932,1155.2c3.07-2.25,7.5-3.2,25.46,0a254.19,254.19,0,0,1,29.59,6.88c26.75,8.54,44.72,15.83,44.72,15.83,26.75,10.85,165.1,69.32,169.26,74.31a20.63,20.63,0,0,1,3.44,6.19,25.74,25.74,0,0,1,.69,13.76c-2.75,13.72-11.06,59.6-20,94.26-7.06,27.55-35.29,207.6-37.16,209.17-13.82,11.65-10.83-183.52-57.11-198.85-68.83-22.8-98.42-12.54-118.35-40.6-6.57-9.25-1.27-7.43-12.39-42-14.3-44.43-31.35-73.17-34.4-114.22C1925.26,1172.48,1924.86,1160.43,1932,1155.2Z" transform="translate(-532.93 -562.44)"/><path class="cls-15" d="M1919.63,1166.9c2.81-3.64,10.42-7.41,17.2-8.94,4.71-1.06,10.85-1.47,27.52,2.75a245.72,245.72,0,0,1,26.15,8.26c20.13,7.43,179.78,75.63,197.47,82.57,1.64.64,6.21,2.42,8.94,6.88,1.91,3.12,2.31,6.56,2.06,12.39-.5,11.95-15.53,86.09-22,108-4.43,15-29.35,197.23-32.34,199.54-23.36,18-86.45-227.94-139.68-281.42C1948.56,1240.3,1907.67,1182.41,1919.63,1166.9Z" transform="translate(-532.93 -562.44)"/><path class="cls-16" d="M1903.8,1164.83c0-3.08,7.83-6,13.76-6.88,10.21-1.6,49.56,12.17,60.55,16.51,56.88,22.49,192.71,76.33,197.47,80.5a27.32,27.32,0,0,1,6.88,8.94c3.28,7.14,1.93,14.24,1.38,17.2-2.81,14.9-19,94.74-22,107.34-.73,3.08-.6,2.24-1.38,5.5-1.9,8-18.26,185.14-19.27,185.78a41.39,41.39,0,0,1-23.39,5.5c-3.29-.21,26.86-197.79,28.21-204.35a36.39,36.39,0,0,0,.69-8.26c0-9.46,3.89-22.64,6.19-31.65,5.5-21.5,1.69-19,7.57-45.41,3.8-17.09,6.59-23.54,2.75-31-4.08-7.9-12.61-11-16.51-12.39-23.7-8.62-46.13-20.65-70.18-28.21-20-6.27-45.18-14.19-74.31-25.46-13.64-5.27-24.76-10-42.66-15.14-8.72-2.52-17.42-5.09-26.15-7.57C1911.17,1169.55,1903.84,1167.8,1903.8,1164.83Z" transform="translate(-532.93 -562.44)"/><path class="cls-17" d="M2155.85,1456c-5.35,53.92-12,123.33-12.61,123.73a41.39,41.39,0,0,1-23.39,5.5c-2-.13,8.66-75.34,17.47-134.51C2142.8,1414,2159.06,1423.69,2155.85,1456Z" transform="translate(-532.93 -562.44)"/><path class="cls-18" d="M1903.8,1164.83c2.79-.65,26.83,7.57,39.91,11.7,5.42,1.71,32.36,8.86,90.14,28.9,38.07,13.2,74.34,31.47,112.84,43.35a34.82,34.82,0,0,1,15.83,9.63,26,26,0,0,1,6.19,24.77c-16.35,71-24.52,106.49-24.77,126.6-.1,8.23-24.08,172-24.77,175.46-16.51,6.19-210.26-68.39-215.36-77.75-1.65-3,3.44-185.09,3.44-185.09a17.84,17.84,0,0,1,.69-7.57c1.48-5,1.27-15.37.69-35.09C1907.35,1236.59,1903.8,1164.83,1903.8,1164.83Z" transform="translate(-532.93 -562.44)"/><path class="cls-16" d="M2143.94,1409.78c-.1,8.23-24.08,172-24.77,175.46-16.51,6.19-210.26-68.39-215.36-77.75-1.19-2.19,1.13-97.77,2.52-150.7C1906.85,1336.44,2144.18,1389.67,2143.94,1409.78Z" transform="translate(-532.93 -562.44)"/><path class="cls-19" d="M1907.59,1322.74a39.86,39.86,0,0,1,13.76-17.89c3.49-2.48,14.14-9.11,50.23-4.82,4.61.55,13.23,1.7,38.53,7.57,10,2.32,19.71,4.7,53.67,13.76,20,5.33,36.06,9.7,55,18.58,6.8,3.18,16.05,7.91,22,17.89a41.59,41.59,0,0,1,5.5,18.58c3.58,44.06,6.16,75.89-10.32,92.2-30.18,29.86-108.21-8.26-139.68-27.52C1946.17,1410.38,1895.75,1355,1907.59,1322.74Z" transform="translate(-532.93 -562.44)"/><path class="cls-13" d="M2236.82,1248.09c-13,17.07-48.56,66.44-70.87,140.36a160,160,0,0,0-6.88,33c-1.26,13.42-4.5,47.94,15.83,79.13,6.83,10.48,18.64,28.61,39.22,31.65,15,2.22,28-4.61,29.59-5.5a50.59,50.59,0,0,0,17.2-15.83c23.88-33.73,37.84-72.93,37.84-72.93,18.88-53,28.41-80,32.34-101.83" transform="translate(-532.93 -562.44)"/><path class="cls-20" d="M2070.31,1498.54c-7.37,8.64-16,12.09-28.9,17.2-11.23,4.46-17.55,7-26.83,6.88a53.77,53.77,0,0,1-24.08-6.19c-14.86-7.48-22.41-19.21-25.46-24.08-14.77-23.61-11.07-48.92-9.63-57.8,2.08-12.9,5.09-31.52,20-44,21.79-18.35,59.41-15.45,83.26,3.44,32.6,25.83,25.92,70.83,21.33,86A49.09,49.09,0,0,1,2070.31,1498.54Z" transform="translate(-532.93 -562.44)"/><path class="cls-13" d="M2199,1422.86c-20.08-8.84-40.22-8.88-80.5-8.94-58-.1-71.2,11.84-76.38,17.89-8.45,9.88-12,23.36-12.39,24.77-1.14,4.43-4.42,17.9,0,32.34,4.88,15.93,16.57,24.66,31,35.09,8.38,6.07,26.43,18.06,55.73,27.52,26.25,8.48,48.26,15.59,75.69,9.63,7.45-1.62,25.56-5.78,42.66-20.64" transform="translate(-532.93 -562.44)"/><path class="cls-20" d="M1936.14,1444.88c-1.64,10.14,5.92,20,11.7,27.52,5.34,7,12.24,15.94,24.77,18.58,13.56,2.85,24.37-3.7,26.15-4.82,15.49-9.72,17-27.51,17.2-30.27.88-12.74-4.32-27-15.14-34.4C1978.41,1406,1939.4,1424.78,1936.14,1444.88Z" transform="translate(-532.93 -562.44)"/><path class="cls-1" d="M1943.71,1331.35c15.81-6.53,31.87-4.58,64-.69,23.43,2.84,43.83,8.78,84.63,20.64,44.86,13,10.29,5.67,64.68,24.77,9.05,3.18,19.72,6.79,26.15,17.2,4.76,7.72,7.9,20.31,2.75,30.27-3.31,6.41-8.8,9.34-45.41,21.33-17.54,5.74-26.31,8.61-30.27,9.63-6.26,1.61-19.91,4.88-61.93,8.94-28,2.71-42,4.06-55,3.44-19.92-.94-34.21-4.07-46.79-6.88-19.62-4.39-25.33-7.63-27.52-8.94-11.36-6.83-21.23-18.11-25.46-29.59C1881.82,1389.83,1909,1345.67,1943.71,1331.35Z" transform="translate(-532.93 -562.44)"/><path class="cls-13" d="M1897,1313.75c42.53-3.2,92.78,14.84,92.78,14.84s-26.54-6-48.85,12.39c-24.25,19.93-34.93,59.14-25.17,91.92a88.47,88.47,0,0,0,16.91,31.24c-8.22,1.21-21,2.9-35.78-.69-16.17-3.94-31.13-7.58-45.41-20.64-22.5-20.58-26.19-55.17-26.49-58.83" transform="translate(-532.93 -562.44)"/><path class="cls-4" d="M1914.12,1427.67c6.88-3.44,15.57-4.23,23.39-4.13,17.45.22,31.65,13.76,31.65,13.76s-.18-10.9,1.38-33c1.06-15.11,3.81-22.34,5.5-26.15a63.34,63.34,0,0,1,9.63-15.14,76.47,76.47,0,0,1,28.21-20.64c16.67-7.22,23.39-5.5,27.52-5.5,0,0-22.79-10.88-46.1-11-25.29-.15-42.06-.24-58.49,11-19.85,13.6-30.73,38-28.9,59.17C1908.12,1398.23,1910,1417.35,1914.12,1427.67Z" transform="translate(-532.93 -562.44)"/><path class="cls-4" d="M1914.12,1427.67c.9-.2,13.07,19.27,35.09,27.52-5.5,17.2,13.76,33.72,31,36.47-.53,2.18-14,1.87-26.15-2.75-3.5-1.34-14-8.66-22-18.58C1918,1453,1912.38,1428.07,1914.12,1427.67Z" transform="translate(-532.93 -562.44)"/><path class="cls-1" d="M2106.78,1360.93c1.34-1.6,10.76.54,29.59,4.82,10,2.27,15,3.4,21.33,5.5,8.44,2.8,20.46,6.78,31,14.45s15.19,15.84,24.77,32.34c10.11,17.41,6,15.84,21.33,46.79,3.49,7.06,7.89,15.62,11,28.21,1.39,5.6,2.71,11.12,2.75,18.58,0,6.28-.07,19.09-8.26,31-2.18,3.15-6.22,8.86-13.76,12.39a26.21,26.21,0,0,1-11,2.75c-10.63,0-18.39-8.48-21.33-11.7-15.08-16.5-11.4-50.06-14.45-72.93C2171,1407.87,2099.58,1369.49,2106.78,1360.93Z" transform="translate(-532.93 -562.44)"/><path class="cls-1" d="M2116.41,1437.31c-3.28,6,2,10.79,6.88,28.9,4.12,15.37,5.19,30.2,6.19,44,.91,12.57.44,16.55,3.44,23.39,1.72,3.91,6.39,14.12,17.89,19.27,1.54.69,11.43,5.11,20.64,2.06,20.27-6.7,21.92-44.47,22-47.48,1.09-33-18.49-71.66-46.79-77.75C2135.78,1427.39,2120.78,1429.28,2116.41,1437.31Z" transform="translate(-532.93 -562.44)"/><path class="cls-1" d="M2129.49,1420.79c-2.7,4.55,10.31,10.67,22.71,33,12.73,23,21,56.22,17.89,75a50.64,50.64,0,0,0,0,17.89c.91,5,1.81,9.92,5.5,14.45,8.05,9.87,22.27,9.08,24.77,8.94,2.86-.16,8.75-.49,14.45-4.13,10.39-6.65,12.61-19.53,13.76-26.83.76-4.81,2.76-20.9-8.94-49.54-8-19.57-14.83-36.26-31.65-50.23C2165.3,1420.55,2133.44,1414.14,2129.49,1420.79Z" transform="translate(-532.93 -562.44)"/><path class="cls-6" d="M1943.71,1646.48a124.85,124.85,0,0,0,29.59,26.83c14.72,9.53,27.66,13.42,40.6,17.2,16,4.68,33.81,8.1,56.42,9.63a375.19,375.19,0,0,0,96.33-6.19" transform="translate(-532.93 -562.44)"/><path class="cls-6" d="M1929.26,1546a225.68,225.68,0,0,0,136.24,125.92" transform="translate(-532.93 -562.44)"/><path class="cls-1" d="M2065.5,803.6c-14.7-1.07-31.87-16.06-34.4-30.27-.49-2.76,0-3.14-.69-17.89-.39-8.53-.83-14.58-1.38-22-1.86-25.47-2.78-38.21-2.75-38.53.38-3.93,2.81-29.13,22.71-43.35,14.68-10.49,31.2-9.53,41.28-8.94,18.21,1.05,31.3,7.82,39.91,12.39,26.23,13.91,25.46,25.25,51.6,40.6,22.87,13.42,38.83,13.77,38.53,18.58-.47,7.59-39.77-.49-77.06,19.27C2096.47,758.2,2092.88,805.6,2065.5,803.6Z" transform="translate(-532.93 -562.44)"/><path class="cls-7" d="M2107.47,720.35c15.2-6,27.78-7.78,46.1-10.32a291.57,291.57,0,0,1,88.07,1.38c15,2.52,36.6,6.3,62.61,17.89,18.63,8.3,46.4,21,70.18,49.54,17.56,21,25,41.14,31.65,59.17a260,260,0,0,1,15.83,78.44c1,30.11,0,48.85,0,48.85-.73,13.27-2,25,2.06,40.6,2.61,10.11,5.13,19.32,13.07,24.08,10.27,6.16,21.36-.05,24.77,5.5,2.52,4.11-1.51,10.8-6.19,18.58a97.48,97.48,0,0,1-20.64,24.08c-7.63,6.46-16.4,13.88-29.59,17.89-16.54,5-29.32,1.44-29.59,3.44s11.08,6.36,23.39,6.88c7.62.32,12.05-1,12.39,0,.64,2-14.88,9.61-31,15.14-22.45,7.72-40.06,13.78-60.55,9.63-22.06-4.47-36.44-18.55-39.22-15.14-1.9,2.33,3.84,10.13,5.5,12.39,8.26,11.21,18.48,15.11,17.89,16.51-.66,1.56-13.36-3.19-24.08-5.5-8.47-1.83-17.64-2.55-52.29,2.75-8.51,1.3-18.49,3-72.25,13.07-7.68,1.44-17.81,3.36-31.65,4.82-19,2-28.57,3-38.53.69-16.83-3.93-28.28-13.67-36.47-20.64-7.83-6.66-12.67-12.58-19.27-20.64-14.85-18.15-13.51-21.81-25.46-34.4-9.34-9.84-16.16-17-27.52-20-9.86-2.53-18.57-.66-19.27-3.44-.59-2.37,5.13-6.29,10.32-8.26,10.85-4.11,19.52.25,20.64-2.06,1.39-2.86-11.89-9.44-23.39-22-12.52-13.68-17.37-28.37-20-36.47a105.39,105.39,0,0,1-4.13-45.41c1.3-11.49,4.48-23.25,8.26-23.39,2.21-.09,2.9,3.88,6.88,5.5,5.65,2.3,12.5-2.34,15.14-4.13,16.12-10.91,24.28-34.34,24.77-35.78,9.73-28.82,12.32-48.38,15.14-60.55C2022.72,779.06,2065.25,737.11,2107.47,720.35Z" transform="translate(-532.93 -562.44)"/><path class="cls-8" d="M2202.42,714.84c-18.15-1.82-31.68.15-44.72,2.06-17.78,2.6-46.19,7-76.38,25.46-10.56,6.44-25.28,15.61-38.53,33-9.67,12.71-14.3,24.22-18.58,35.09-6.06,15.4-5.2,18.83-15.83,61.24-6,23.75-9.19,34.51-18.58,45.41-.95,1.1-7.1,9.52-17.2,14.45-3.3,1.61-6.34,3-10.32,2.75-4.92-.36-7.06-3.06-9.63-2.06-3.62,1.4-4,8.56-4.13,11-.83,18.35-1.25,27.53,2.75,40.6,2.94,9.61,8.88,29,26.15,43.35,17.61,14.6,37.14,15.74,36.47,21.33-.49,4.06-11.15,6.33-13.76,6.88-9.89,2.1-17.72-.15-17.89.69s7.7,2.3,15.83,6.19c8.74,4.19,14.24,9.5,18.58,13.76,14.25,14,15.95,24,25.46,36.47a100.31,100.31,0,0,0,34.4,26.83c28.22,13.06,57.78,6.46,92.89-1.38,6.66-1.49,24.41-5.69,44.72-11,23.79-6.23,38.45-10.68,51.6-3.44,5.22,2.87,10.11,7.54,11.7,6.19s-1.06-8.54-5.5-13.76c-5.61-6.59-12.06-7.89-11.7-9.63.6-2.87,17.89-1.38,17.89-1.38,20.84,1.8,26.07,5.84,42,8.26,7.19,1.09,19.24.73,43.35,0,8.11-.24,27.46-.94,27.52-2.75,0-1.23-8.84-1.41-20.64-6.88-4-1.85-13.66-6.33-13.07-9.63s10.24-3.29,22.71-4.82c13.39-1.64,26.34-7.37,39.79-13.93,22.79-11.13,34.49-30.83,32.3-33.09-1-1-.06,2-7.41,3a33,33,0,0,1-15.83-2.06c-23.1-7.9-41.28-37.16-41.28-37.16-3.61-5.82-15-72.14-17.42-75.65-17.81-25.32-13.74-12.15-26.79-36.24-6.77-12.5-17.3-59-18.91-75.64-2-20.63-23.1-18.57-25.21-33.88-1-7.43-12.86-25.6-29.33-43.49C2250.21,719.64,2222.18,716.83,2202.42,714.84Z" transform="translate(-532.93 -562.44)"/><path class="cls-1" d="M2260.91,723.79c4.74-6.62,9.44-7.66,17.2-13.07,13-9.1,11-14,22-22.71,3.47-2.73,16.23-12.48,34.4-13.07,17.93-.58,30.87,8.09,35.09,11,17,11.77,23.13,28.68,28.9,44.72,7.58,21.07,8.28,38.17,8.94,54.36a239.18,239.18,0,0,1-6.19,64,155.73,155.73,0,0,1-13.07,35.78c-6.86,13.38-12.09,23.25-20.64,24.77s-47.89-92-112.84-168.58C2248.09,733.18,2259.34,726,2260.91,723.79Z" transform="translate(-532.93 -562.44)"/><path class="cls-11" d="M2007.7,899.24c3.47-3.93,9.65-8.58,22-17.89a225.07,225.07,0,0,1,27.52-17.2c8.25-4.39,11.94-5.71,16.51-5.5,8.13.36,13.93,5.31,16.51,7.57,10.8,9.47,13.13,23.15,14.45,31.65,3.25,20.87-2.63,32.52,1.38,34.4,5.5,2.58,20.73-17.43,26.83-25.46,14.81-19.46,16.86-28.83,27.52-32.34,7.78-2.56,14.69-.21,23.39,2.75,23.5,8,37.42,25.24,46.79,37.16,6.32,8,16.06,20.66,22,39.91,4.55,14.71,8.52,27.54,2.75,39.91-7.74,16.59-27.87,21.38-39.22,24.08-6.86,1.63-37.15,7.92-64.68-10.32-8-5.33-28.33-18.77-28.9-35.78-.09-2.6.22-7.13-2.06-8.26-3.43-1.69-11.26,5-15.83,12.39-6.95,11.29-2.74,18.5-8.26,22s-10.48-3.7-26.83-3.44c-7.5.12-12.19,1.75-13.76-.69-1.76-2.74,2-8.12,4.13-11,10.21-14.14,24.44-19.86,24.08-20.64s-10.91,4.52-22.71,8.26c-13.11,4.15-26.28,8.32-40.6,4.82-3.84-.94-20-4.89-27.52-18.58C1982.35,937.25,1997.17,911.17,2007.7,899.24Z" transform="translate(-532.93 -562.44)"/><path class="cls-1" d="M2010.45,923.32c-1.79,4.38-2.88,8-2.75,12.39.38,13.42,11.56,22.09,12.39,22.71,11.32,8.5,25.16,5.88,34.4,4.13,4.12-.78,21.11-4.43,34.4-19.27a47.48,47.48,0,0,0,10.32-16.51c3.89-11,2.23-20.65.69-29.59-1.76-10.18-2.64-15.27-6.88-20-8.91-9.83-23.67-8.48-26.15-8.26-10.7,1-17.53,6.39-26.83,13.76A108.54,108.54,0,0,0,2010.45,923.32Z" transform="translate(-532.93 -562.44)"/><path class="cls-1" d="M2146.69,907.5a68,68,0,0,0-11,19.27,65.44,65.44,0,0,0-3.44,31A62.38,62.38,0,0,0,2145.31,988c13.61,16.56,31.81,20.21,37.84,21.33,6.46,1.2,17.83,3.3,30.27-2.06a42.86,42.86,0,0,0,15.83-11.7c7.81-9.47,9-19.91,9.63-26.83,2.59-26.62-11.41-47-15.14-52.29-4-5.71-12.83-17.82-28.9-24.77-6.4-2.77-14.14-6.12-23.39-4.13C2160.35,889.94,2153.56,898.66,2146.69,907.5Z" transform="translate(-532.93 -562.44)"/><path class="cls-8" d="M2044.17,920.57a18,18,0,0,1,2.06-10.32c4.16-7.86,12.76-9.83,17.89-11,3.6-.83,6.29-1.4,8.94,0,3.73,2,4.78,6.48,5.5,9.63a24.63,24.63,0,0,1-1.38,15.83c-.85,1.88-5.69,12.54-15.14,13.07C2053,938.29,2045.13,929.17,2044.17,920.57Z" transform="translate(-532.93 -562.44)"/><path class="cls-8" d="M2160.45,957c.7,2.07,1.78,5.26,4.82,7.57,4,3,8.73,2.56,13.76,2.06,7.11-.7,12.48-1.22,15.83-5.5,4-5.06,2.4-11.95,1.38-16.51-.57-2.54-2.34-9.91-8.94-15.14-2.21-1.75-5-4-8.94-4.13-7.61-.3-12.93,7.42-14.45,9.63C2163.57,935.48,2156.67,945.84,2160.45,957Z" transform="translate(-532.93 -562.44)"/><path class="cls-1" d="M2051.73,993.51a30.85,30.85,0,0,0-.69,12.39c.61,3.53,1.16,6.66,3.44,9.63,2.52,3.28,6,4.48,13.07,6.88,4.23,1.44,8.09,2.11,15.83,3.44,5.5.95,7.78,1.11,10.32,0a13.54,13.54,0,0,0,5.5-4.82c2.68-3.7,3.11-7.46,3.44-10.32.41-3.53.75-6.57-.69-9.63-1.17-2.48-3.23-4.38-8.26-6.88-8.88-4.42-13.28-3.9-33-6.19-1.5-.17-4.7-.55-6.88,1.38C2053,990.12,2052.37,991.12,2051.73,993.51Z" transform="translate(-532.93 -562.44)"/><path class="cls-8" d="M2061.37,999.7c.18,2.65.27,4,.69,4.82,1.4,2.87,4.82,3.75,8.94,4.82,3,.77,6.24,1.57,10.32.69,2.56-.55,5.22-1.13,6.88-3.44,2.44-3.4,1.48-8.81-1.38-11.7-1.5-1.51-3.29-1.92-6.88-2.75-4.2-1-7.39-.65-13.76,0-2.12.21-3.31.42-4.13,1.38C2061,994.68,2061.14,996.37,2061.37,999.7Z" transform="translate(-532.93 -562.44)"/><path class="cls-10" d="M2133.61,1074a34.56,34.56,0,0,0,8.42-5.1,137.27,137.27,0,0,1-22.86,16.8c-6.92,3.95-10.69,6.08-16.51,8.26-13.86,5.17-22.84,4.42-25.46,4.13-4.75-.53-10.07-1.2-13.76-5.5-1.47-1.71-1.28-2.52-2.49-5.86a42.69,42.69,0,0,1,10.06-9.28,40.16,40.16,0,0,1,9.45-4.56c1.26.81,2.7,1.6,4.31,2.5,9.43,5.22,21.07,4.93,24.08,4.82C2120,1079.81,2128.38,1076.27,2133.61,1074Z" transform="translate(-532.93 -562.44)"/><path class="cls-9" d="M2075.13,1067.13c1,2.48,2.78,4.14,5.32,5.76a40.16,40.16,0,0,0-9.45,4.56,42.69,42.69,0,0,0-10.06,9.28c-.25-.68-.56-1.47-.95-2.39a79.58,79.58,0,0,0-8.26-14.45c-3.5-5.11-4.13-6.88-4.13-6.88a30.14,30.14,0,0,0,4.13,2.06c2.88,1.35,5.39,1.64,8.94,2.06s5.31.63,6.88,0c3-1.2,4-3.82,5.5-3.44C2074.25,1064,2074.59,1065.76,2075.13,1067.13Z" transform="translate(-532.93 -562.44)"/><path class="cls-6" d="M2142,1068.91a137.27,137.27,0,0,1-22.86,16.8c-6.92,3.95-10.69,6.08-16.51,8.26-13.86,5.17-22.84,4.42-25.46,4.13-4.75-.53-10.07-1.2-13.76-5.5-1.47-1.71-1.28-2.52-2.49-5.86-.25-.68-.56-1.47-.95-2.39a79.58,79.58,0,0,0-8.26-14.45c-3.5-5.11-4.13-6.88-4.13-6.88a30.14,30.14,0,0,0,4.13,2.06c2.88,1.35,5.39,1.64,8.94,2.06s5.31.63,6.88,0c3-1.2,4-3.82,5.5-3.44,1.19.3,1.53,2.07,2.06,3.44,1,2.48,2.78,4.14,5.32,5.76,1.26.81,2.7,1.6,4.31,2.5,9.43,5.22,21.07,4.93,24.08,4.82,11.12-.39,19.53-3.94,24.77-6.19a34.56,34.56,0,0,0,8.42-5.1" transform="translate(-532.93 -562.44)"/><path class="cls-6" d="M2143.85,1067.23c-.21.2-.82.78-1.76,1.64" transform="translate(-532.93 -562.44)"/><path class="cls-6" d="M2143.94,1067.13h0l0,0" transform="translate(-532.93 -562.44)"/><path class="cls-6" d="M2143.89,1067.17l0,0" transform="translate(-532.93 -562.44)"/><path class="cls-6" d="M2143.89,1067.17l0,.06" transform="translate(-532.93 -562.44)"/><path class="cls-6" d="M2142.08,1068.86a20.18,20.18,0,0,0,1.76-1.64" transform="translate(-532.93 -562.44)"/><path class="cls-6" d="M2142.08,1068.86l-.06,0" transform="translate(-532.93 -562.44)"/><path class="cls-6" d="M2060.94,1086.73a42.69,42.69,0,0,1,10.06-9.28,40.16,40.16,0,0,1,9.45-4.56" transform="translate(-532.93 -562.44)"/><path class="cls-1" d="M2067.56,1016.9c-2.14,4.12-2.19,8-2.06,13.07.27,10.73.4,16.1,1.38,20.64,1.5,7,2.64,12.29,6.88,17.89a34.9,34.9,0,0,0,10.32,8.94c8,4.6,15.67,4.77,20.64,4.82,8.23.08,14.11-1.81,21.33-4.13a72.54,72.54,0,0,0,20-9.63c3.52-2.48,8-6.15,7.57-6.88-.35-.56-3.49,1-11,4.13-3.82,1.61-10.79,4.55-17.2,6.88-8.43,3.06-12.65,4.6-17.2,4.82a37.92,37.92,0,0,1-15.83-2.75,30.59,30.59,0,0,1-13.07-8.94c-2.86-3.49-4-6.68-5.5-11a66.18,66.18,0,0,1-3.44-19.27c-.43-7-.7-11.39.69-17.2.84-3.53,2-6.53,1.38-6.88S2069.12,1013.9,2067.56,1016.9Z" transform="translate(-532.93 -562.44)"/><path class="cls-1" d="M2036.6,1021.72c.36.16-2.58,4.75-3.44,12.39-.44,3.89-1,9,1.38,14.45,3.79,8.62,12.37,12,15.14,13.07a33,33,0,0,0,13.07,2.06c4-.16,7.87-.15,10.32-2.06.27-.21,1.1-.9,1.38-.69s-.39,2.13-1.38,3.44c-1.79,2.38-6.18,2.12-7.22,2.41-1.94.53-2.13,1.4-5.85,1a35.26,35.26,0,0,1-8.26-1.38,30.41,30.41,0,0,1-6.88-3.44c-3.81-2.32-6-3.65-8.26-6.19a25.5,25.5,0,0,1-5.5-10.32,27.27,27.27,0,0,1-.69-9.63C2031.31,1028,2036.16,1021.52,2036.6,1021.72Z" transform="translate(-532.93 -562.44)"/><path class="cls-6" d="M2055.86,1093.28a13.68,13.68,0,0,0,0,6.19,14.49,14.49,0,0,0,4.82,7.57,17.3,17.3,0,0,0,8.94,4.13" transform="translate(-532.93 -562.44)"/><path class="cls-1" d="M745.45,671.84c-2-4.75-1.75-12.18,0-17.89,1.82-5.92,4.1-6.32,8.26-15.14,4.38-9.29,4.85-15.18,6.88-15.14,1.79,0,3.11,4.66,4.13,8.26,2.5,8.81,1.4,14.14,2.75,14.45,1.52.34,5.57-5.74,6.19-13.07.81-9.57-4.72-15.47-2.75-17.2s7.95,4.94,20,8.94c8.06,2.69,10.28,1.27,20.64,3.44,9.66,2,16.39,5.08,23.39,8.26,20.38,9.25,31.39,14.24,31.65,20.64.49,11.89-36.19,24.21-66.05,26.83C793.16,684.87,752.53,688.44,745.45,671.84Z" transform="translate(-532.93 -562.44)"/><path class="cls-1" d="M2294.28,704.86c12.95-25.24,22.37-33.1,28.9-35.09a24.23,24.23,0,0,0,9.63-4.82c6.43-5.48,7-12.65,8.94-12.39s3.21,6.7,2.06,13.07c-1.67,9.29-8,13.77-6.88,15.14,1.28,1.54,11.55-1.56,16.51-9.63,6.58-10.72-.32-23.44,2.75-24.77,3.53-1.52,14.18,14.65,20.64,26.15a186.93,186.93,0,0,1,10.32,21.33c12.1,30,18.14,45,14.45,61.93-.5,2.29-6.11,26.67-20.64,31.65C2360.36,794.5,2325.61,761.23,2294.28,704.86Z" transform="translate(-532.93 -562.44)"/><path class="cls-1" d="M2113.32,652.57c-5.3-13.42-29.47-16.19-32.34-16.51-5.85-.67-10.3-.16-27.52-.69-7.41-.23-11.11-.34-12.07-.47-2.67-.35-4.2-.73-4.44-.22-.52,1.1,5.46,5.34,11,8.26,11.24,5.9,20,6,20,6.88-.11,1.1-14.43,3.45-29.59-2.06-6.94-2.52-12.69-6.2-13.76-4.82s3.81,4.93,5.5,11.7c1.54,6.13-.4,11.24-1.38,14.45-3.24,10.65-5,30.35,1.38,37.84,9.61,11.28,44.32,2.62,65.37-17.2C2098.69,686.65,2119.17,667.38,2113.32,652.57Z" transform="translate(-532.93 -562.44)"/><path class="cls-21" d="M783.29,1154.17c-.54,4.63,11.13,9.51,13.07,10.32,8.75,3.66,16,3.83,20.64,4.13,8.65.57,17,2.9,33.72,7.57,17.42,4.87,28.74,12.12,49.54,25.46,8.34,5.35,18.63,15,39.22,34.4,2.13,2,6.71,6.43,6.19,11.7-.37,3.75-3.15,6.27-6.19,8.94-9.75,8.57-17.56,6.87-22,14.45a12.32,12.32,0,0,0-2.06,7.57c.87,7.9,11.85,12,20.64,16.51,6.55,3.33,15.83,10.94,34.4,26.15a251.77,251.77,0,0,1,33.72,33.72c23.32,28.62,31,54.25,32.34,53.67s-4.8-27.12-22-55c-12.22-19.82-23.51-38.12-45.41-52.29-13.06-8.45-28.49-14.52-27.52-22,.4-3.07,3.21-3.78,11.7-13.76,4.84-5.69,7.26-8.54,8.26-11,3.41-8.42-3.34-19.67-15.14-33.72-17.91-21.32-28.35-33.75-48.16-44-17.19-8.93-38.43-20-64.68-20.64-5.12-.13-18.1-.07-20.64-6.19-1.2-2.9.33-6.56,3.44-13.76,3.64-8.41,7.31-13.45,6.88-13.76-.72-.53-8.15,15.89-24.77,24.08C790.25,1150.63,783.68,1150.78,783.29,1154.17Z" transform="translate(-532.93 -562.44)"/><path class="cls-21" d="M883.75,1114.95a167.12,167.12,0,0,1,44,26.15c19,15.74,29.6,31.69,38.53,45.41,12.34,19,19.24,35.81,33,69.49,11,26.89,18.19,48.25,22.71,62.61,6.44,20.48,13.26,45.14,12.39,45.41-1.13.36-13.7-40.94-37.84-99.77-13-31.55-20.59-47.1-29.59-62.61-10.06-17.35-20-34.29-37.84-52.29A201.77,201.77,0,0,0,883.75,1114.95Z" transform="translate(-532.93 -562.44)"/><path class="cls-21" d="M1055.07,1124.58c-1.53.42,5.78,25.77,12.39,66.05,3.72,22.71,7.42,45.82,8.26,76.38a475.5,475.5,0,0,1-2.75,64.68c-1.7,15.41-3.22,22.43-9.63,57.11-10.33,55.84-16.58,89.81-15.14,90.14.83.19,3.67-11,12.39-40.6,9.56-32.48,14.34-48.72,20-64.68,9.19-26.12,15.95-45.34,25.46-63.3,5.43-10.25,7.82-22.14,14.45-31.65,1.62-2.33,5.32-7.37,4.82-13.76a17.56,17.56,0,0,0-5.5-11c-3.8-3.51-9.37-5.38-10.32-4.13s3.67,4.52,5.5,9.63c3.36,9.35-4.34,20-7.57,24.77-19.67,29-23,60.13-26.15,59.17-1.53-.47.17-7.69,2.75-29.59,2.46-20.85,4.11-34.8,4.13-48.85,0-15.15-2.28-27.3-6.88-51.6a497.66,497.66,0,0,0-12.39-50.92C1064.27,1147.21,1056.55,1124.18,1055.07,1124.58Z" transform="translate(-532.93 -562.44)"/><path class="cls-21" d="M742.69,1192c.17,2.05,16.16.28,33.72,2.75,48.77,6.88,81.05,42.54,87.38,49.54,18.84,20.81,26.22,40.34,36.47,67.43,13.7,36.21,24.8,65.58,16.51,98.39-8.62,34.11-34.1,55.75-29.59,59.86,2.72,2.48,13.63-4,20.64-10.32,11.66-10.58,13.58-21.84,15.83-21.33,3.57.82,2.44,30.11-6.19,61.24-4,14.44-9.76,34.53-24.77,56.42-10.06,14.67-19.91,23.79-33,35.78-34.29,31.35-56.54,39.15-54.36,46.79,2.23,7.8,28.13,9.24,50.23,4.82,44.2-8.85,67.93-40.09,71.56-36.47,3.15,3.14-11.07,30.4-37.84,46.1-17.19,10.08-32.64,11.34-32.34,15.14s14.91,4.81,40.6,7.57c59.7,6.42,71.23,10.06,94.26,4.82,15.05-3.43,26.7-6.24,35.78-16.51,8.66-9.8,11.37-22.3,11-54.36-.44-39.45-4.83-47.64-6.88-84.63-2.35-42.52,2.53-48.37-4.13-72.93-5.84-21.53-14.87-36.51-22-48.16-24.45-39.87-57.51-66.66-61.93-70.18a310.28,310.28,0,0,1-42-41.28c-5.93-7.06-13-16.15-10.32-24.08,1.75-5.25,7.39-8.93,15.83-14.45,9.95-6.5,13-6.16,13.76-8.94.53-2.06.41-8.34-37.16-29.59-21.45-12.13-32.18-18.2-46.1-22.71-28.1-9.1-50.75-8.53-57.11-8.26C761.4,1185.27,742.51,1189.77,742.69,1192Z" transform="translate(-532.93 -562.44)"/><path class="cls-21" d="M1091.54,1102.56c-3.35,4.81,2.76,10.64,5.5,24.08,1.83,9,1,16.3-.69,31-1.78,15.56-4.66,23.93-4.13,24.08.85.24,8.34-21,12.39-46.79,2.76-17.59,4.81-31.5-1.38-35.09C1099.73,1097.78,1093.86,1099.23,1091.54,1102.56Z" transform="translate(-532.93 -562.44)"/><path class="cls-21" d="M1361.26,1242.24c-.33-2.65,8.41-3.81,18.58-11,6.07-4.3,11-10.95,20.64-24.08,14-19,15.25-23.72,23.39-28.21a40.17,40.17,0,0,1,20-4.82c12.17.2,20.49,6,32.34,14.45a125.07,125.07,0,0,1,33,35.09c7.59,12,11.71,18.58,11,27.52-.66,8.41-5.14,13.18-17.89,27.52-29.86,33.58-34.36,40.08-40.6,38.53-5.5-1.36-2.86-10.18-12.39-20.64-6.47-7.11-16-12.51-18.58-10.32-2.24,1.89,2,8.34,4.82,17.89,6.4,21.65,1.58,45.78-4.13,46.79-3.58.63-8.23-7.71-15.83-21.33-6.7-12-8.8-18.93-11-18.58-2.67.42-2.17,10.85-3.44,20.64-3.89,30-24.31,53.93-28.21,52.29-2.7-1.13,4.11-13.83,4.82-37.16.92-30.31-9.2-54.29-6.88-55,2-.66,7.93,18.64,13.76,17.89,3.47-.44,6.19-7.88,6.19-14.45,0-18.86-22.41-31.32-20.64-33.72,1.25-1.69,13.81,2.62,23.39,13.07,9.15,10,10.9,20.48,13.07,20s2-10.57,0-19.27c-1.25-5.34-3.42-14.64-10.32-21.33C1383.23,1241.21,1361.78,1246.42,1361.26,1242.24Z" transform="translate(-532.93 -562.44)"/><path class="cls-21" d="M1197.5,1150c-1.94,1.4,5.57,10.58,9.63,28.21,2.8,12.17,2.48,21.95,2.06,34.4-.87,26.12-5.77,37.62-1.38,39.91,4,2.11,13-5.1,17.89-12.39,6.29-9.41,5.38-18.45,7.57-18.58,2.44-.15,6.32,10.92,7.57,24.08,3,31.19-11.28,49.22-4.82,54.36,5.54,4.4,21.3-4.67,30.27-12.39,12-10.33,16-21.75,19.27-20.64,4.09,1.37-3.42,18.59,5.5,30.27,5,6.59,9.88,4.34,21.33,12.39,9,6.33,14.06,13.37,19.27,20.64,13.71,19.15,14.28,31.85,19.27,31.65,6.91-.27,12.37-24.86,9.63-26.15-1.65-.77-5.76,7.14-8.26,6.19s-.61-10.44,0-19.27c1.25-18.07-3.39-32.11-6.88-42.66-4.62-14-8.2-24.8-18.58-33.72-7.87-6.76-16.83-10-23.39-12.39-13-4.73-15.38-2.43-25.46-6.88-14.37-6.35-21.92-16.46-23.39-15.14s6.26,8.75,8.94,22c1.72,8.5,1.06,17.59-.69,17.89-2.71.47-5.09-20.72-19.27-47.48a175.74,175.74,0,0,0-19.27-28.9C1214.24,1162.86,1200,1148.21,1197.5,1150Z" transform="translate(-532.93 -562.44)"/><path class="cls-21" d="M1117,1086.05c5.82-3.54,20.46,10.87,23.39,13.76,17.33,17.06,23.26,37.3,25.46,46.1,22.81,91.25,26.15,119.72,26.15,119.72,7.57,64.59,11.35,96.89,11.7,124.54.82,64.85-7.59,65.27-11,150,0,0-.91,22.57-8.26,58.49-5.82,28.46-10.23,36.71-15.83,43.35-10.92,13-29.09,23.06-46.79,20.64-10.69-1.46-21.76-7.55-21.33-11.7.26-2.54,5.23-4.25,15.14-7.57,13.15-4.4,18.9-4.52,19.27-6.88.77-4.88-23.06-9.62-22.71-16.51.06-1.11.79-3.31,15.83-9.63,13.72-5.77,22.87-8,22.71-8.94-.36-1.91-42,6.81-44,.69-.63-1.92,3.24-5,11-11,14.08-10.94,22.62-14.42,22-16.51-.82-2.86-16.77,3.75-34.4-.69-22.27-5.61-37.86-26.47-35.09-31,1.81-2.95,10.73,2.46,31,3.44,11.84.57,30.08-.25,31-4.82,1.14-5.94-28.2-12.74-27.52-21.33.48-6.07,22.33-5.86,22.71-11s-19.65-8.82-19.27-14.45c.29-4.26,12-5.82,11.7-8.26-.26-2.11-9.11-2-21.33-4.13s-18.41-3.26-21.33-6.19c-6.18-6.2-4.34-21.51,14.45-59.86,10.35-21.13,21.19-39.74,37.16-64.68,23.25-36.3,34.69-50.57,40.6-77.75,3-13.83,4.25-29.44,1.38-30.27-.95-.28-3.3.79-22,37.84-4.3,8.51-12.94,25.82-13.76,25.46-1.22-.54,24.2-36.61,12.39-64.68-5.06-12-12.39-11.76-17.89-25.46-6.58-16.38-.67-28.15,1.38-46.1C1136.11,1123.71,1108.54,1091.2,1117,1086.05Z" transform="translate(-532.93 -562.44)"/><path class="cls-22" d="M1949.56,1323.43c.18,2.32-10.45,2-22.71,10.32a58.08,58.08,0,0,0-19.27,22.71,63.91,63.91,0,0,0-6.19,26.83c-.86,23.4,9.46,35.23,3.44,41.28-2.61,2.63-8.16,2-19.27.69s-21.92-2.55-33.72-9.63c-5.49-3.29-12.3-7.5-16.51-15.83-.88-1.74-2.34-5-3.44-12.39a93.3,93.3,0,0,1,.69-31c3.08-16,9.31-27.21,13.76-35.09,3.72-6.59,8-12.42,16.51-24.08,8-10.94,8-10.13,15.83-20.64,13.46-18.16,17.72-26.47,20.64-25.46,1.64.57,1.29,3.55,2.06,14.45,1.35,19.08,3.48,25,0,27.52-2.43,1.75-4.4-.48-11.7-.69-11.66-.33-20.79,5-20.64,5.5s5.28-1.79,13.07-1.38c6.26.33,12.47,2.22,12.39,3.44s-5.23.66-12.39,2.75a45.6,45.6,0,0,0-15.83,8.26c-9.71,8.22-12.88,20.63-11.7,21.33s4.83-8.65,15.83-15.83c9-5.86,18.88-7.76,19.27-6.88.23.52-2.95,1.83-7.57,5.5-6.06,4.83-12,11.69-11,13.07s6.86-3.17,16.51-6.19c2.67-.84,8.93-2.59,24.77-2.75C1924.17,1319.19,1949.29,1319.87,1949.56,1323.43Z" transform="translate(-532.93 -562.44)"/><path class="cls-22" d="M2009.42,1165.87c10.32,2.75,15.14,6.19,26.15,8.94,5.5-13.07,8.94-21.33,15.14-26.83a13.26,13.26,0,0,0-6.88-6.88C2031.44,1146.6,2020.43,1154.86,2009.42,1165.87Z" transform="translate(-532.93 -562.44)"/><path class="cls-22" d="M1986.71,1156.92c7.57-8.26,32.34-14.45,38.53-15.14,2.21,3.51-13.07,10.32-23.39,20C1995.85,1162.09,1987.1,1160.24,1986.71,1156.92Z" transform="translate(-532.93 -562.44)"/><path class="cls-22" d="M2157.35,1211.28c.5,1.69,11.35,4.13,33,8.94,7.59,1.69,14.36,3.13,19.27,8.94,3.24,3.85,4.7,8.47,5.5,11,3,9.42,1.51,16.3,2.75,16.51s2.4-7.8,6.88-15.83c7.54-13.5,21-20.33,22-19.27,1.18,1.29-13.91,16.28-12.39,17.89.61.64,3.31-1.48,10.32-4.13,4.31-1.63,8.2-3.1,8.94-2.06.87,1.22-3.09,5.18-6.88,9.63-1.87,2.19-5.83,8.11-13.76,20-5.32,7.95-13.18,19.69-21.33,34.4-16.48,29.76-9.83,27.81-22,46.79-6.34,9.86-13.7,19.05-10.32,25.46,1.63,3.09,5.06,4.19,6.88,4.82,16.85,5.78,31,17.13,40.6,24.77a103.79,103.79,0,0,1,25.46,31c5.71,11.12,7.78,20.94,11,20.64,3.42-.31,5-11.66,5.5-15.14,2.46-17.43-2-31,0-31.65s5.15,12,11,12.39c5.17.3,9.63-9.15,12.39-15.14,20-43.35,24.08-56.42,24.08-56.42,8.12-25.69,12.18-38.54,13.07-46.1,1.48-12.51,3.48-31.17-4.13-53-6.84-19.58-17.91-31.63-26.15-40.6-11.6-12.62-23.17-25.21-42-29.59-11.84-2.76-21.14-1-33,1.38C2188.38,1184,2155.11,1203.68,2157.35,1211.28Z" transform="translate(-532.93 -562.44)"/><path class="cls-22" d="M2044.51,1490.63c-.81,1.83,7,6.88,14.45,11.7,12.85,8.31,16.8,9,40.6,20.64,10.37,5.09,16.07,8.13,17.89,6.19,1.52-1.62-1.32-4.91-3.44-13.76-2.62-11-.37-14.74-3.44-17.89-4-4.1-11.17-1.14-20.64,0C2064.54,1500.57,2045.77,1487.78,2044.51,1490.63Z" transform="translate(-532.93 -562.44)"/><path class="cls-22" d="M1917.91,1542.92c3.11-.17,3.74,14.85,11,32.34,8.48,20.42,21.16,32.57,38.53,48.85s34.41,32.26,59.86,43.35c53.64,23.36,111.39,10.25,111.47,6.19,0-1.86-16.49,0-43.35-6.88-16.81-4.31-60.17-17.83-96.33-56.42-25.35-27-41.53-60.42-37.84-63.3,1.91-1.5,8.44,5.75,22,15.83,22.59,16.78,42.51,24.94,60.55,32.34,28.72,11.78,51.77,16.53,68.81,20,31.79,6.39,47.78,9.6,70.18,7.57,29-2.63,48.59-12.23,50.92-7.57,1.93,3.85-9.7,13.93-18.58,20-26.46,18-52.37,16.18-52.29,20,.07,3.54,22.89,7.59,46.79,6.19,20.31-1.19,32.06-10.74,35.78-6.19,3.95,4.84-5.58,18.56-7.57,21.33-5.64,7.84-16.5,19.24-43.35,28.9-4.92,1.77-21.81,7.6-52.29,10.32-29.86,2.67-52.73.57-72.93-1.38-27-2.61-44.76-6.49-61.93-10.32-25.72-5.74-35.17-9.7-44-15.83-16.58-11.45-26.86-27.48-25.46-28.9,1.21-1.22,10.52,9,27.52,19.27,19.08,11.5,35.63,15.62,55.73,20.64a334.91,334.91,0,0,0,60.55,8.94,345.5,345.5,0,0,0,66.74-2.75c16.26-2.26,26.8-4.93,37.16-8.94,14.3-5.54,30.57-14.53,29.59-17.2-1.07-2.93-21.95,4.28-53.67,9.63-21.16,3.57-49.25,8.31-83.26,5.5-20.15-1.66-50.12-4.44-82.57-22-16-8.69-27.21-18.41-49.54-37.84-11.07-9.64-17.3-16-22.71-25.46a83.74,83.74,0,0,1-10.32-35.09C1912.09,1559.46,1914.68,1543.1,1917.91,1542.92Z" transform="translate(-532.93 -562.44)"/><path class="cls-23" d="M1977.77,1418.39c4.45,6.42,12.29,4.42,47.48,5.5,36.41,1.12,33.63,3.44,55,2.75,15.59-.5,31.86,3.16,46.79-1.38,1.44-.44,5.62-1.79,9.63,0,5.55,2.47,7.56,9.52,8.94,15.83a162.81,162.81,0,0,1,3.44,42.66c-1.26,17.65-3.79,22.23-.69,31.65,3.62,11,7.66,15,10.32,16.51.89.51,7.45,4.16,12.39,1.38,2.86-1.61,4.25-4.86,5.5-12.39,2.83-17,.33-27.77,2.06-28.21,1.53-.39,6,7.3,7.57,16.51,1.37,8.11-.75,10.17,0,21.33.59,8.75.88,13.13,4.13,17.2a19.71,19.71,0,0,0,18.58,6.88,20.06,20.06,0,0,0,12.39-8.26c3.18-4.51,4.35-10.06,3.44-20.64-1.86-21.51-9.85-34.94-8.26-35.78,1.26-.66,8.71,6.32,11.7,16.51,2.84,9.7-.14,16.28,4.82,22,.58.67,4.73,5.78,8.26,4.82,5.45-1.49,6.41-16.64,5.5-26.83-.51-5.73-1.8-12.11-10.32-32.34-4.71-11.18-6.35-14.07-13.76-30.27-12.22-26.74-12.15-28.5-16.51-35.09a89.12,89.12,0,0,0-26.83-26.83c-7-4.37-18-7.56-39.91-13.76-15-4.26-26.39-7.11-39.22-10.32-22.73-5.68-14.42-3.16-35.09-8.26-20-4.93-23.23-6.18-30.27-5.5-13.5,1.29-23.2,8-27.52,11-1.92,1.35-11.24,8.08-19.27,21.33C1983.81,1383.47,1969.71,1406.77,1977.77,1418.39Z" transform="translate(-532.93 -562.44)"/><path class="cls-23" d="M1535.34,1058.53A31.53,31.53,0,0,1,1534,1042c.88-4.64,2.16-11.42,8.26-15.14.29-.17,7-4.12,13.76-1.38,7.4,3,9.35,11.78,11,19.27,1.46,6.56,3.59,16.17-2.06,24.08-.91,1.27-5.26,7.36-11.7,7.57C1542.24,1076.78,1535.76,1059.68,1535.34,1058.53Z" transform="translate(-532.93 -562.44)"/><path class="cls-23" d="M1514,1125.27c-2-10.32,10.13-19.18,13.07-21.33,8.21-6,24.9-13,37.16-4.13,4.81,3.47,10.17,10.27,9.63,17.89-1,14.88-24,25.94-41.28,22C1531.11,1139.38,1516.06,1135.76,1514,1125.27Z" transform="translate(-532.93 -562.44)"/><path class="cls-23" d="M1523,1152.11c.68-3.48,7.8-4.84,22-7.57,16.81-3.22,25.72-4.81,36.47-1.38,5.71,1.83,15.07,4.82,17.89,13.07a18.11,18.11,0,0,1-4.13,17.89c-9.27,9.14-28.22,2.51-41.28-2.06C1542.94,1168.22,1521.63,1158.86,1523,1152.11Z" transform="translate(-532.93 -562.44)"/><path class="cls-23" d="M1586.95,1099.81c-.62-4.26,14-9.66,21.33-11.7,6.41-1.77,22.14-6.11,35.09,2.06,3.43,2.17,10.07,7.36,8.94,11-.35,1.14-2.13,4.29-25.46,4.13C1610.85,1105.2,1587.71,1105,1586.95,1099.81Z" transform="translate(-532.93 -562.44)"/><path class="cls-23" d="M1600.71,1121.83c1.56-5.09,12-5.78,31.65-6.88,23.64-1.32,30.69,1.15,34.4,2.75,4.26,1.84,15.64,6.76,15.83,14.45.14,5.81-6.16,10.84-11,13.07-7.94,3.65-12.39,0-33-3.44-17.38-2.87-23.09-1.72-30.27-7.57C1607,1133.21,1599.18,1126.81,1600.71,1121.83Z" transform="translate(-532.93 -562.44)"/><path class="cls-23" d="M1617.91,1161.74c1.28-4.68,14.2-4.76,22.71-4.82,13.34-.08,24.39-.15,32.34,7.57,3.91,3.8,8.34,10.71,6.19,14.45-1.84,3.2-9.51,2.41-24.77.69-18-2-23.59-4.32-28.21-7.57C1623.94,1170.49,1616.87,1165.52,1617.91,1161.74Z" transform="translate(-532.93 -562.44)"/><path class="cls-3" d="M692.57,1213.09c17-11.77,35.48-13.67,43.27-14.39,45.14-4.14,78,24.19,86.87,32.51,45.56,42.87,39.13,106.66,38.08,117-2.31,22.95-17,49.18-46.24,101.65-24.23,43.42-20.93,31.45-79.55,124.12-20.63,32.62-26.66,43-42.16,54.05-6.29,4.49-56.83,39.48-98.08,15.36-42.72-25-32-97.54-30.46-108.59,2.63-18.34,7.89-30.65,16.44-50.23,57.78-132.45,57.09-121,65.71-147.56C668.33,1269.74,660,1235.63,692.57,1213.09Z" transform="translate(-532.93 -562.44)"/><path class="cls-24" d="M962.89,1543.25c-12.51-1.16-52.67,55.82-44.12,105,6,34.29,20.8,72.27,32.3,72.27C996,1720.51,1003.86,1547.05,962.89,1543.25Z" transform="translate(-532.93 -562.44)"/><path class="cls-25" d="M971.56,1581.84c-10-.84-45.3,40.09-33.09,72.49,6.25,16.58,12,31.41,20.49,29.94C977.07,1681.11,987,1583.14,971.56,1581.84Z" transform="translate(-532.93 -562.44)"/><path class="cls-1" d="M941.15,1615.13c-.39-1.85,6.61-2.74,17.93-11.41,10.51-8,13.67-14.32,23-25.09,13.1-15.13,14.27-11.32,28.6-26.76,17.85-19.23,18.56-27.87,32.54-34,4.57-2,13.45-5.76,22.24-2,10,4.24,13.19,15.31,13.88,17.7,4.68,16.13-5.24,31.1-8.92,36.65-6.38,9.63-15.88,18.43-35.41,27.76C990.2,1619.36,942.15,1619.91,941.15,1615.13Z" transform="translate(-532.93 -562.44)"/><path class="cls-1" d="M1060.05,1668.67c15.07,12.74,25.45,6.6,45.36,24.6,15.34,13.87,15.58,23.3,15.44,26.38-.45,9.89-7.61,16.4-8.58,17.26-1.57,1.39-8.21,6.67-22.06,6-19.1-.87-38.8-8-80.82-41.49-20.27-16.14-64.55-47.92-78.8-46.66-6.38.57-10.63,2.27-13.84-.46-6.15-5.23-4-22.85,5.69-32.14,4.32-4.15,8.07-4.65,31.72-9.41,28.24-5.69,27.09-5.82,30.68-6.06,10.68-.71,29-1.94,43.18,7C1049.74,1627.39,1037.79,1649.84,1060.05,1668.67Z" transform="translate(-532.93 -562.44)"/><path class="cls-1" d="M1003.7,1595.05c6.73-11.87,41.19-3.54,61.84,1.45,12,2.9,35.78,9.8,57.23,28.69,12.73,11.22,14.23,17.49,14.05,21.71-.59,14-20.27,22.66-21.09,23-35.25,15.07-79.33-24.08-84-28.36C1029.68,1639.71,996,1608.64,1003.7,1595.05Z" transform="translate(-532.93 -562.44)"/><path class="cls-1" d="M991.43,1630.66c3.51-10.12,47.61-3.69,71.06,1.75,17.66,4.1,28,8.92,48.64,18.56,12.53,5.85,20.34,10.39,25.53,19.32,1.75,3,6.86,11.82,4.17,22.61-2,8.08-7.82,14.95-14.45,18-9.18,4.21-18.73.56-41.82-10.94-36.3-18.07-58.65-31.93-81.58-53.37C992.78,1637,990.45,1633.47,991.43,1630.66Z" transform="translate(-532.93 -562.44)"/><path class="cls-4" d="M971.56,1581.84c-22.06,38.61-18.12,73.28-12.61,102.43-31.52-3.15-85.09-12.61-85.09-12.61l12.61-96.91S939.25,1576.32,971.56,1581.84Z" transform="translate(-532.93 -562.44)"/><path class="cls-3" d="M674.52,1502.26c15.76-3.94,35.46-1.58,75.6,7.61,44.86,10.26,67.19,18.68,92.29,22.65,76.52,12.1,97.41,12.08,120.49,12.08-36.24,23.4-55.94,135.14-11.54,175.91-109.59-4.53-321.54-31.83-370.6-89" transform="translate(-532.93 -562.44)"/><path class="cls-21" d="M688.7,1490.44c0-1.78-17.44-4.41-36.24-3.94-14,.35-28.16.84-44.12,7.88-17.35,7.65-29,19.6-28.36,20.49.49.73,8.8-6.38,22.85-11,20-6.63,39.23-4.13,39.4-2.36.13,1.36-11.25.52-25.21,7.88-16.44,8.66-24.62,22.46-27.58,27.58-5,8.67-8.54,18.88-7.09,19.7s7-9.26,16.55-18.91c19.4-19.65,45.5-27.31,47.27-24.43,1.28,2.09-11.46,7.72-22.06,22.85-19.42,27.71-15.41,64.15-12.61,64.61,1.6.26,1.88-11.27,11-26.79,11.9-20.18,30-32.16,31.52-30.73.86.81-4.26,5.15-8.67,15.76-4.74,11.39-5.25,21.78-5.52,28.36-.29,7.1.17,14.43.79,17.33,8.53,39.91,217.87,36.92,251.34,53.58,1.91,1,10.78,5.72,15,2.36,3.18-2.54,2.09-8.49,1.58-12.61-2.36-19,3.18-35.61,8.67-52,3.42-10.21,6-17.79,12.61-26,8.1-10,17-14.34,15.76-17.33-1.09-2.69-9.14-1.33-18.12-.79-6.83.41-17.95-.78-40.18-3.15-38.18-4.08-78.16-16.05-100.85-22.85-17.17-5.14-22.64-7.37-37.82-11a393.12,393.12,0,0,0-50.43-8.67c-12.89-1.36-19.54-2-29.15-1.58-15.82.76-25.52,3.89-26,2.36-.55-1.74,11.41-8,24.43-11.82S688.69,1491.67,688.7,1490.44Z" transform="translate(-532.93 -562.44)"/><path class="cls-21" d="M725.73,1496.74c-2.95,2.44-12.53-10.26-32.3-18.91-20.49-9-39.61-8.19-45.7-7.88-30.24,1.55-48.7,16.46-52.79,11-2.2-2.93,1.86-9,7.88-18.91,0,0,13.3-21.9,27.58-50.43,12.56-25.08,9.46-29.78,23.64-54.37,9.9-17.17,15.57-22.09,20.49-25.21,16.76-10.64,35.22-6.95,35.46-10.24.18-2.62-11.27-7.52-23.64-7.09-13.6.47-21.37,7.16-24.43,3.94-2.15-2.26.41-6.92,3.15-15.76,4.08-13.14,2.12-14.71,5.52-29.94,3.44-15.45,5.53-24.81,11.82-33.88,9.86-14.23,24.5-19.73,30.73-22.06,29.29-11,56.69-.13,67,3.94a111.62,111.62,0,0,1,48.85,37.82c17.08,23.58,19.42,46.91,21.27,65.4.95,9.45,1.3,21.66-.79,22.06-2.26.43-4.57-13.44-12.61-27.58-14.45-25.44-39.52-37.88-41-36.24-1.21,1.36,13.42,13,28.36,38.61,6.74,11.53,12.3,23.77,10.24,25.21s-10-10.77-27.58-19.7c-12-6.08-24.16-8.44-25.21-6.3-.88,1.79,6.84,5.23,12.61,15a51.07,51.07,0,0,1,5.52,16.55c3.2,20.3-12.14,44-29.94,82.73-11.71,25.47-15.84,38.64-23.64,38.61-6.21,0-8.26-8.41-18.12-19.7-19.77-22.64-47.67-30.3-48.85-28.36-1.44,2.36,34,23.81,31.52,28.36-2.52,4.7-44-11.44-44.12-11s28.76,5.51,47.27,27.58C723.06,1480.86,728.49,1494.46,725.73,1496.74Z" transform="translate(-532.93 -562.44)"/><path class="cls-23" d="M1039.32,1525.11c-.51-1.81,5.45-5.9,11.82-7.09,2.33-.44,10.69-1.6,17.33,3.94s6.9,13.78,7.09,18.91c.36,9.76-3.37,18.32-4.73,18.12s1-8.42-3.15-18.12c-1.1-2.55-3.9-9-10.24-12.61C1048.89,1523.43,1039.93,1527.26,1039.32,1525.11Z" transform="translate(-532.93 -562.44)"/><path class="cls-23" d="M1051.14,1599.17c.67-1.69,22.35,5.09,41.76,14.18,0,0,17.19,8.05,27.58,19.7a34.66,34.66,0,0,1,7.09,12.61c.76,2.46,1.93,7.34.79,7.88s-4.21-4.18-7.88-8.67c-5.49-6.71-10.5-10.38-18.91-16.55-5.49-4-7.6-4.89-26-15C1059.1,1604.34,1050.88,1599.81,1051.14,1599.17Z" transform="translate(-532.93 -562.44)"/><path class="cls-23" d="M1131.5,1677.17c5.21,3,6.13,8.79,6.3,10.24.57,4.84-1.59,8.44-3.15,11-2,3.3-5.25,6.88-6.3,6.3s1.8-4.68,1.58-10.24c-.4-10-10.44-15.18-8.67-18.12C1122.45,1674.41,1127.93,1675.12,1131.5,1677.17Z" transform="translate(-532.93 -562.44)"/><path class="cls-23" d="M1115.74,1719.72c2,4.53-2.79,9.78-3.94,11-4.81,5.22-12,6.55-12.61,5.52s7.75-4.24,8.67-11c.65-4.84-3-8-1.58-9.45S1114,1715.78,1115.74,1719.72Z" transform="translate(-532.93 -562.44)"/><path class="cls-1" d="M536,2588c-.15-2.73-.49-10.52,4-18,3.87-6.46,10-9.73,22-16,6.79-3.54,12.13-6.33,20-9,17.68-6,30.25-10.28,42-5,13.54,6.08,20.32,22.3,21,35,1.31,24.44-19.5,44.13-37,49-5.32,1.48-10.9,1.75-16,2-11.24.55-20.6,1-30-3C549,2617.48,536.89,2603.87,536,2588Z" transform="translate(-532.93 -562.44)"/><path class="cls-1" d="M566,2590a29.39,29.39,0,0,0,2,13c3,7.7,8.37,12.11,12,15,8.23,6.56,16.12,8.9,27,12,9.86,2.81,17,4.85,27,5,10.66.16,21.71.33,32-7,1.88-1.34,16-11.7,16-28,0-16.92-15.12-27.91-18-30C630.55,2545.74,568.6,2570.5,566,2590Z" transform="translate(-532.93 -562.44)"/><path class="cls-1" d="M632,2596a69.39,69.39,0,0,0,2,15c1.46,6.11,2.42,10.14,5,14,6.25,9.36,17.91,11.62,25,13,9.21,1.79,16.56.79,22,0,8.31-1.21,14.3-2.07,20-6,11.31-7.79,13.42-22.05,14-26,2.26-15.34-3-35.89-18-45C674.17,2544.11,632.37,2578.36,632,2596Z" transform="translate(-532.93 -562.44)"/><path class="cls-1" d="M1056,2520c3-3.91,10.31-6.94,25-13,17.25-7.11,25.88-10.67,34-11,22.44-.9,38.83,13.09,41,15,2.89,2.54,22.13,19.47,20,43-.32,3.55-1.38,13.66-9,22-8.42,9.21-19.82,10.76-29,12-4.68.63-10.56,1-32-2s-32.13-4.47-36-7C1051.79,2567.1,1044.49,2535.17,1056,2520Z" transform="translate(-532.93 -562.44)"/><path class="cls-1" d="M1036,2506c4.83-6.32,14.55-8.55,34-13,14.25-3.26,21.83-5,32-3,15.7,3.08,25.67,12.71,30,17,5.48,5.43,21.16,21,19,42-.26,2.54-1.67,13.8-10,23-17.91,19.77-59,20.23-84,0C1035.54,2554.65,1024.55,2521,1036,2506Z" transform="translate(-532.93 -562.44)"/><path class="cls-21" d="M749,1790a176,176,0,0,1,43,16c28.43,15.4,58.44,15.71,87,16,30.63.31,53.55-5.19,69-9,28.67-7.08,43-10.62,54-21,15-14.15,18.11-30.84,32-32,6.21-.52,13.12,2.19,17,7,2.67,3.32,3.75,7.45,3,22-.88,17.09-1.33,25.64-4,31-6.07,12.18-19.08,17.54-33,22-46.59,14.94-87,15-87,15-45.46.07-77.67-8.19-112-17,0,0-45.45-11.66-79-38-3.63-2.85-12.46-9.87-11-13C729.59,1785.6,742.52,1788.51,749,1790Z" transform="translate(-532.93 -562.44)"/><path class="cls-21" d="M1144,1666c2.81-3.31,7.42.73,16-3,8.13-3.53,10.61-10,14-9s3.82,7.91,4,10c.1,1.15,3.4,15.43,10,44,5.69,24.64,8.54,37,12,45a20.57,20.57,0,0,1,2,10c-.64,8.68-7.53,14.74-14,20-31.22,25.36-52.79,32-60,34-7.47,2.08-14.66,3.41-16,1-1.15-2.06,2.85-5.3,6-11,4.45-8,4.27-15.62,4-27-.45-18.82-5.84-24.27-1-32,2.06-3.3,4.41-4.49,7-10,2.94-6.25,1.49-8.05,4-12,3.94-6.18,9.38-4.72,14-10,4.3-4.92,4.15-11.41,4-18C1149.58,1679.66,1139.9,1670.84,1144,1666Z" transform="translate(-532.93 -562.44)"/><path class="cls-21" d="M739,1870c1.24-2.09,15.57,5.57,32,11,22.81,7.53,41.85,7.46,79,7,32.6-.4,60.7-.75,97-9,35.69-8.11,59.11-19.27,62-14,2.55,4.64-13.07,17.94-19,23-24.23,20.65-45.79,26.4-45,29,.91,3,30.71-1.59,67-12,40.71-11.68,64.72-23.53,66-21,1.2,2.38-19.74,13.37-55,38-24.8,17.33-24.72,19.07-61,45-29.28,20.92-42.63,29.29-47,32-28.53,17.72-47,22.4-46,26,1,3.78,22.3,3,42-3,25-7.57,35-19.68,38-17,6.39,5.76-32.9,68-72,114a235.63,235.63,0,0,0-29,41c-8.35,15.09-13.64,28.77-19,45-11.27,34.13-16.35,60-21,82-14.66,69.31-15.57,55.34-27,112-6.26,31-22.18,59.73-27,91a20,20,0,0,1-5,11c-5.89,6.12-15.18,6.09-20,6-46.13-.82-66-4-66-4-37.58-6-46.12-8.63-48-15-1.31-4.42,1.59-7.28,6-18,3.42-8.32,5.28-17.21,9-35,17.06-81.58,25-133,25-133,16.23-105.09,27.15-91.83,36-168,9.34-80.36,3.93-153,21-156,3.3-.57,3.71,2.11,16,7a114.13,114.13,0,0,0,42,8c15.07.15,31-2.69,31-5,0-2.47-18.33-.39-40-9-25.72-10.22-44.1-30.71-42-34,1-1.6,6.49,1.54,20,5,21.84,5.59,41.55,6.09,42,4,.53-2.48-26.78-4.64-47-26-3.2-3.38-14.66-15.49-11-24,.35-.81,2.16-4.68,10-7,22.08-6.54,45.73,12.88,47,11C781.71,1905.48,736.72,1873.84,739,1870Z" transform="translate(-532.93 -562.44)"/><path class="cls-21" d="M1057,1919c-.33-1.11,10.41-4.56,28-13,19.76-9.48,29.64-14.21,36-21,11.74-12.53,11.37-23.66,22-27,5.11-1.61,12.11-1.58,17,2,10.2,7.46,7.13,27.17,5,41-1.55,10.06-13,87-13,87-25.6,98.55,9.72-30.73-36,142-11.41,43.12-13.33,50.1-17,66-8,34.79-12.89,62.18-18,91-7.86,44.33-11.8,66.5-13,81-2.08,25.09-9.59,49.83-9,75a32,32,0,0,1-3,15,35,35,0,0,1-9,11c-9.23,7.26-20.45,6.75-34,7-36.18.68-50.26,6.1-53,0-1.5-3.35,2.19-6.22,6-15,6.13-14.12,5.06-26.24,5-35-.2-31,11.84-98.18,24-166,5.16-28.8,8.76-48.89,16-77,9.29-36.09,16.75-65.08,33-100,17.67-38,35.28-60.49,31-64-3.08-2.52-15,6.76-36,23-23,17.81-33.3,28.46-35,27-2.44-2.11,15.77-27.09,23-37,30.65-42,50-60.51,47-64-3.12-3.67-28.19,12.37-37,18-24.46,15.64-34.13,26.66-36,25-2.73-2.41,12.21-30.66,39-52,5.8-4.62,17.28-11.48,40-25,30.05-17.89,39.82-22.78,39-25C1117.05,1903.71,1057.77,1921.6,1057,1919Z" transform="translate(-532.93 -562.44)"/><path class="cls-23" d="M636,2602c-7.57-7.54-5.19-20.07-5-21,2.68-13.11,15.15-19.16,21-22,1.28-.62,17.65-8.26,36-2,5.46,1.86,12.23,4.17,16,11a21.17,21.17,0,0,1,1,18c-4,9.5-14.93,12.34-29,16C658.51,2606.56,644.29,2610.26,636,2602Z" transform="translate(-532.93 -562.44)"/><path class="cls-23" d="M581,2595c-1.31-1-4.82-3.55-6-8-2.27-8.52,5.78-17.18,11-21,6.13-4.49,12.17-5.1,21-6,3.17-.32,20.3-2.06,22,3,.64,1.89-1.63,2.52-4,8-3.62,8.37-3.08,17.86-3,19,.21,3.18.63,3.81,0,5-1.41,2.66-5.34,3-18,3C587.24,2598,584.18,2597.34,581,2595Z" transform="translate(-532.93 -562.44)"/><path class="cls-23" d="M539,2584c-1.85-4.37.56-9.14,2-12,4.31-8.55,12.54-12,15-13,4.53-1.89,10.36-1.93,22-2,3,0,5.76.05,6,1,.36,1.43-5.56,3.06-10,7-5.12,4.54-2.36,9.07-8,18-2,3.14-3,4.71-5,6C554.23,2593.31,542,2591,539,2584Z" transform="translate(-532.93 -562.44)"/><path class="cls-23" d="M1099,2502c1.87-3.22,7.3-3.14,17-3,7,.1,11.71.17,18,2a54.65,54.65,0,0,1,20,11c6.49,5.27,13.15,10.69,12,16-.92,4.24-6.37,6.37-8,7-3.91,1.52-9.49,2.32-33-7-14.56-5.77-18.68-8.56-22-13C1102,2513.68,1096.5,2506.3,1099,2502Z" transform="translate(-532.93 -562.44)"/><path class="cls-23" d="M1082,2488c.47-1.92,9.52-1.13,11-1a36.3,36.3,0,0,1,14,4c1.87,1,5.3,2.81,5,4-.37,1.45-6.05,1.15-9,1a36.51,36.51,0,0,1-14-3C1087.85,2492.48,1081.59,2489.67,1082,2488Z" transform="translate(-532.93 -562.44)"/><path class="cls-23" d="M1922,2572a28.19,28.19,0,0,1,6-19c7-8.63,17.07-9.69,20-10,6.24-.66,10.94.77,15,2,6,1.81,10.6,3.22,12,7,1.57,4.26-1.87,9-4,12-5.58,7.74-13.44,10.71-17,12-4.41,1.6-13.93,5-24,1A27.28,27.28,0,0,1,1922,2572Z" transform="translate(-532.93 -562.44)"/><path class="cls-23" d="M1972,2582c-1.57-2.39-1.29-5.17-1-8,.93-9.15,8.08-14.35,9-15,4.22-3,8.32-3.51,12-4,5.29-.7,10.92-1.45,16,2,3.65,2.48,7.71,7.59,7,13-1,7.41-10.3,10.88-16,13C1991,2586,1976.39,2588.69,1972,2582Z" transform="translate(-532.93 -562.44)"/><path class="cls-23" d="M2017,2586c-1.66-2.93-.68-6.52,0-9,2.15-7.86,8.9-11.44,10-12,6.8-3.46,13.27-1.73,16-1,3.37.9,10.71,2.87,12,8,1.67,6.65-8.09,13.39-9,14C2036.22,2592.59,2020.76,2592.63,2017,2586Z" transform="translate(-532.93 -562.44)"/><path class="cls-23" d="M1995,2538c-1.19-4.16,11-8.42,24-22,7-7.32,10.76-13.76,15-21,20.73-35.37,21-90.46,21-112,0-19.46-1.29-17.77-2-54-.67-34.22.58-29.24,0-54-1-42.2-4.68-59.47,4-64,4.05-2.11,7,.54,18,3,17.47,3.91,31.39,2,46,0,32.38-4.44,41.05-17.1,49-12,9.43,6,4.68,28.61-4,65-22.51,94.38-25.33,88.39-39,145-7.84,32.46-42.78,89.42-50,104-3.91,7.89-9,15.14-13,23-2.22,4.39-3.94,8.11-8,10s-7.55.79-15-1c0,0-5.65-1.36-23-5C2001.16,2539.46,1995.78,2540.72,1995,2538Z" transform="translate(-532.93 -562.44)"/><path class="cls-23" d="M2164,2435c2.61-3.27,4.34-4.78,12-14,9.71-11.68,10.59-13.65,11-16,1.43-8.19-4.52-11.43-3-20,1-5.67,4.45-9,7-12,15.73-18.45,13.24-42.07,18-42,2.11,0,3.47,4.68,10,35,5.82,27,6.55,31.76,5,39-2.83,13.26-10.52,22.1-14,26-9.51,10.68-14.85,9.4-38,25-14.46,9.75-18.83,14.6-21,13C2147.35,2466.31,2153.55,2448.09,2164,2435Z" transform="translate(-532.93 -562.44)"/><path class="cls-6" d="M725,1872a157.43,157.43,0,0,0,53,22,136.38,136.38,0,0,0,42,3c28.72-2.59,50.43-14.47,63-23" transform="translate(-532.93 -562.44)"/><path class="cls-6" d="M965,1982a252.21,252.21,0,0,1,69-37c27.59-9.63,58.55-16.86,60-13,.88,2.34-13.75,10.56-43,27-21.94,12.33-32.76,17.65-49,29-9.13,6.38-16.3,12.1-21,16" transform="translate(-532.93 -562.44)"/><path class="cls-6" d="M951,2066a224.52,224.52,0,0,1,77-53" transform="translate(-532.93 -562.44)"/><path class="cls-6" d="M2095,1794a238.09,238.09,0,0,0-34,46c-10.08,17.77-15.16,32.13-20,46-10.82,31-15.52,57.26-23,99-3.37,18.81-3.38,21.22-6,33a427.12,427.12,0,0,1-18,60" transform="translate(-532.93 -562.44)"/><path class="cls-6" d="M2060,1755a259.24,259.24,0,0,0-23,52c-7.4,23.41-8.39,38.24-14,69-3,16.63-8,41.12-16,71" transform="translate(-532.93 -562.44)"/><path class="cls-26" d="M2086,1739c-3.06,1.87-7.41,5.32-19,29-6,12.33-10.48,21.42-16,37-7.43,21-14.13,46.24-12,47,1.69.61,7.45-14.89,23-42,15.65-27.29,21.87-32.58,25-35,16.8-13,40.4-16.91,44-11,2.65,4.34-6.82,11.86-28,40-9.43,12.52-19.31,25.66-28,41-9.3,16.42-13.87,29.95-23,57a564.85,564.85,0,0,0-18,64c-1.26,5.81-6.27,29.38-10,61-3.46,29.31-1.89,32.19-6,48-5.63,21.63-9.36,36-22,48-6.32,6-12.8,9.49-12,14,1,5.51,12,7.83,23,10,27.21,5.35,40.82,8,58,10,48.36,5.55,54.86,9.23,66,3,11.56-6.47,17.19-17.5,22-29,18.79-44.86,21.75-88.35,25-142,4-65.89,3.93-73.4,7-97,4.82-37.12,7.23-55.68,13-77,12-44.39,27-68.27,17-78-3.32-3.23-6.44-2-29-1-10.11.46-39.23,1.8-65,1C2098.32,1736.3,2093.51,1734.42,2086,1739Z" transform="translate(-532.93 -562.44)"/><path class="cls-26" d="M1924,1700c4.41-.68,6.53,7.08,20,20,5,4.78,21.63,19.95,44,28,26.66,9.6,46.37,3.66,49,12,1.31,4.15-2.82,8-8,15-6.72,9.11-11.48,22.07-21,48-6.84,18.64-5.72,20.14-16,56-10.49,36.6-12.88,39.3-21,70-5.59,21.13-8.52,32.38-11,49a375,375,0,0,0-4,53c-.09,26.12,2.62,38.65,1,39-3.32.71-19.78-50.64-31-108-13.51-69.07-13.71-117.69-14-186C1911.69,1723,1916.87,1701.1,1924,1700Z" transform="translate(-532.93 -562.44)"/></svg>