<svg id="Слой_1" data-name="Слой 1" xmlns="http://www.w3.org/2000/svg" viewBox="0 0 306.5 429.78"><defs><style>.cls-1,.cls-10,.cls-11,.cls-13,.cls-14,.cls-17,.cls-18,.cls-20,.cls-22,.cls-3,.cls-4,.cls-6,.cls-7{stroke:#000;stroke-width:2px;}.cls-1,.cls-11,.cls-17,.cls-18,.cls-20,.cls-22,.cls-3,.cls-4,.cls-6,.cls-7{stroke-linecap:round;stroke-linejoin:round;}.cls-2{fill:#282828;}.cls-3{fill:#0b1523;}.cls-10,.cls-4{fill:none;}.cls-5{fill:#162b4c;}.cls-6{fill:#c5cbd3;}.cls-14,.cls-7,.cls-9{fill:#fff;}.cls-8{fill:#e3e4e5;}.cls-10,.cls-13,.cls-14{stroke-miterlimit:10;}.cls-11{fill:#992c44;}.cls-12{fill:#c4395e;}.cls-15,.cls-18{fill:#e0d9c7;}.cls-16{fill:#9b968c;}.cls-17{fill:#c0c6cc;}.cls-19{fill:#d5dce0;}.cls-20,.cls-21{fill:#d9d9d9;}.cls-22{fill:#6a0006;}.cls-23{fill:#bcbcbc;}</style></defs><title>together</title><path class="cls-1" d="M369.33,680c-.66,2.29.53,2,.82,12.31.06,2.09.12,6,.41,11.7.1,2,.22,3,.21,3.08-.62,5.34,26.88,2.67,43.3,2.46,1.65,0,4.1-.34,5.13-1.44s.19-3.34-1-6.16c-3.44-8-6.36-11.7-6.36-11.7-9.75-12.48-6.93-16.79-12.72-20.11C389.29,664.55,371.8,671.44,369.33,680Z" transform="translate(-147 -285)"/><path class="cls-1" d="M347.75,676.06c1.17,1.77,1.57,6,2.37,14.37.53,5.59,0,4.17.47,8.62.38,3.47.28,7-2,8-9.36,4.11-45.42-.58-48.72.21a3.4,3.4,0,0,1-1.58,0,4,4,0,0,1-2.84-2.46c-.56-1.83.76-4.08,1.26-4.93C303.94,687.5,325,679.34,325,679.34,343.83,672.08,346.65,674.4,347.75,676.06Z" transform="translate(-147 -285)"/><path class="cls-1" d="M390.62,710.11a12.21,12.21,0,0,0,7.88-13c-.08-1.39-.44-7.53-5.25-10.68-3.25-2.13-6.83-1.78-8.93-1.58a12.35,12.35,0,0,0-6.65,2.1c-4.38,3.28-4.38,9.41-4.38,13.13,0,2.43,0,4.74,1.58,7a10.19,10.19,0,0,0,4.9,3.68C384.72,712.76,389.38,710.67,390.62,710.11Z" transform="translate(-147 -285)"/><path class="cls-1" d="M391.32,690.51a11.24,11.24,0,0,1,5.43-5.25c5.48-2.28,10.86,1.54,11.38,1.93A12.64,12.64,0,0,1,412.5,693c1.24,3.41.54,6.41,0,8.75a12.37,12.37,0,0,1-2.1,5.25,12,12,0,0,1-7.53,4.2c-1.35.26-4.51.87-7.35-.53C389.48,707.69,387.72,697.15,391.32,690.51Z" transform="translate(-147 -285)"/><path class="cls-1" d="M407.42,691.21a10.44,10.44,0,0,1,6.13-1.58c4.66.31,7.39,3.87,8.05,4.73a13.36,13.36,0,0,1,2.63,7.35c.18,2.26.42,5.17-1.4,7.35s-4.78,2.48-8.4,2.8c-2.75.25-4.31.39-6.13-.35-3.68-1.49-6-5.58-6.3-9.45A11.84,11.84,0,0,1,407.42,691.21Z" transform="translate(-147 -285)"/><path class="cls-2" d="M376.56,693.66c-.55-1.54.86-3.35,1.4-4,2.19-2.78,5.64-3.19,6.83-3.33s6.45-.54,9.63,3c.42.46,2.8,3.1,1.93,5.6a4.92,4.92,0,0,1-2.8,2.63c-2,.88-3.48.32-9.28-1.05S377,695,376.56,693.66Z" transform="translate(-147 -285)"/><path class="cls-2" d="M397,686.83c.43-1.18,3.84-.92,4.38-.88a10,10,0,0,1,6.65,2.63,6.7,6.7,0,0,1,2.28,4.38,6.17,6.17,0,0,1-1.4,4.2c-2.21,2.56-6.64,2.9-8.23,1.23-.66-.69-.16-1-1.05-4.73a17,17,0,0,0-1.4-4.38C397.48,687.82,396.84,687.39,397,686.83Z" transform="translate(-147 -285)"/><path class="cls-2" d="M412.45,691c.44-.65,2.79.1,4.38.88,2.18,1.07,6,3.68,5.43,6-.29,1.09-1.47,1.63-2.1,1.93-2.06,1-4.93.6-5.78-.88-.52-.9.19-1.4,0-3.15C414.07,693,412,691.7,412.45,691Z" transform="translate(-147 -285)"/><path class="cls-1" d="M330.79,708.31a12.85,12.85,0,0,1-8.29-13.63c.09-1.46.46-7.92,5.53-11.24,3.42-2.24,7.19-1.87,9.39-1.66a13,13,0,0,1,7,2.21c4.61,3.45,4.61,9.91,4.6,13.81,0,2.55,0,5-1.66,7.37a10.72,10.72,0,0,1-5.16,3.87C337,711.09,332.1,708.89,330.79,708.31Z" transform="translate(-147 -285)"/><path class="cls-1" d="M330.06,687.68a11.83,11.83,0,0,0-5.71-5.53c-5.76-2.4-11.42,1.62-12,2a13.3,13.3,0,0,0-4.6,6.08c-1.3,3.59-.57,6.74,0,9.21A13,13,0,0,0,310,705a12.64,12.64,0,0,0,7.92,4.42c1.42.27,4.74.91,7.74-.55C332,705.75,333.84,694.67,330.06,687.68Z" transform="translate(-147 -285)"/><path class="cls-1" d="M313.11,688.41a11,11,0,0,0-6.45-1.66c-4.9.33-7.78,4.07-8.47,5a14.06,14.06,0,0,0-2.76,7.74c-.19,2.38-.44,5.44,1.47,7.74s5,2.61,8.84,2.95c2.89.26,4.53.41,6.45-.37,3.87-1.57,6.31-5.87,6.63-9.95A12.46,12.46,0,0,0,313.11,688.41Z" transform="translate(-147 -285)"/><path class="cls-2" d="M327.29,691a6.49,6.49,0,0,1,.74-4.42c1.6-2.59,4.89-2.93,6.81-3.13,1.55-.16,5.68-.59,8.66,2.21.52.49,2.83,2.67,2.39,5.34-.35,2.16-2.29,3.37-3.68,4.24-.67.42-6.49,4-11.24,1.11A8.12,8.12,0,0,1,327.29,691Z" transform="translate(-147 -285)"/><path class="cls-2" d="M324.16,683.62c-.77-1.4-3.36-1.33-4.6-1.29a10.67,10.67,0,0,0-7.74,4.05c-.73,1-2.45,3.37-1.66,5.71.74,2.17,3.18,3,5.34,3.68.74.24,5.65,1.85,7,0,.72-1-.37-1.9-.37-4.42C322.13,687.19,325.11,685.35,324.16,683.62Z" transform="translate(-147 -285)"/><path class="cls-2" d="M307.4,688.41c-.55-.81-3.57.13-5.71,1.47-1.34.84-3.47,2.17-3.5,4.24a3.83,3.83,0,0,0,1.11,2.58c2.29,2.41,7.38,1.74,8.1,0,.51-1.22-1.45-2.17-1.29-4.6C306.25,690,307.83,689,307.4,688.41Z" transform="translate(-147 -285)"/><path class="cls-3" d="M269,555c-.78,1.39-1.63,3.54-.25,15.71,1.62,14.33,3.25,28.71,11.15,45.1,1.47,3,3.51,6.76,7.6,14.19,4.32,7.86,5.75,10.1,9.88,17.74,0,0,6.13,11.33,8.62,19.76,1.28,4.35,2.08,7.05,1,9.63a2.32,2.32,0,0,0-.25,1.77c.69,1.63,4.59,1.4,7.35,1.27,11.06-.53,4,.6,17.74-.25,8.26-.52,9.45-.84,12.67-.25,4.45.81,5.67,2.08,6.84,1.27,2.56-1.79-.92-9.58-5.07-25.09A172,172,0,0,1,342,636.59a112.25,112.25,0,0,1-.76-24.58c2.58-45.74,5.27-49.85.76-56-6.95-9.47-20.87-10-37.5-10.64C294.84,545,275,544.24,269,555Z" transform="translate(-147 -285)"/><path class="cls-3" d="M313,602.79c2.75,1,6.31,1.6,11.48,5.16,7.17,4.94,11.62,13.09,20.52,29.39,7.16,13.11,5.53,12.64,11.91,24.33a67.11,67.11,0,0,1,6.84,16.22c1,3.67.66,3.93,1.27,5.07,17.23-1.77,40.8-1.77,49.66-3.8.18-1.55-2.33-3.23-4.81-7.6-1.69-3-1.77-5.1-2.28-8.11a13.84,13.84,0,0,1,0-4.56c.93-6.32-1.83-17.36-3.55-24.58-3.72-15.66-1.77-10.29-6.59-30.91-4.58-19.6-5.05-18.91-5.57-24.58a197.41,197.41,0,0,1-.76-26.35c.3-5.28.61-5.85,0-7.09-5.15-10.6-47.52-10.38-69.94,12.92" transform="translate(-147 -285)"/><path class="cls-4" d="M295.63,572.74a170.32,170.32,0,0,1,18.75,8.62A168.45,168.45,0,0,1,333.14,593a165.6,165.6,0,0,1,18.24,15.2" transform="translate(-147 -285)"/><path class="cls-4" d="M311.34,585.15a101.94,101.94,0,0,1,16.47,14.19,77,77,0,0,1,9.63,12.16A72,72,0,0,1,344.79,627" transform="translate(-147 -285)"/><path class="cls-4" d="M326.29,606.94A58.34,58.34,0,0,1,344,630.51" transform="translate(-147 -285)"/><path class="cls-5" d="M305.64,572.86c-.27.8,9,3.39,20.78,11.15,3.17,2.09,6.93,5.11,14.44,11.15,9,7.25,11.25,9.55,13.18,11.91,4.88,6,8.21,12.78,7.35,13.43S357,616,348.21,609.1c-4.67-3.66-5.35-3.55-13.43-9.38-5.9-4.26-11.31-8.48-11.4-8.36s11.14,6.59,18.75,19A62.7,62.7,0,0,1,348,623c1.42,4.34,1.46,6.14,2.53,11.15.73,3.41,4.67,21.69,8.36,21.54,1.66-.07,2.82-3.84,4.05-7.86,2.17-7,1.79-12.15,2.28-12.16s1.85,5.67,1.27,12.67c-.68,8.18-3.54,12.93-2.28,13.68s6-4.38,6.84-5.32c4.76-5.39,5.67-9.37,6.59-9.12,1.33.35,2,9.37-2.79,16-2.39,3.3-4.95,4.35-4.56,5.32.63,1.59,8-.1,17.23-2.28,12.94-3,15.57-4.72,17-7.35,1.1-2.06,1.07-4,1-7.6A41.38,41.38,0,0,0,402.69,638c-2.48-7.25-3.65-14.88-5.57-22.3-4.78-18.36-4.63-17.56-4.81-18.5-2.77-14-2.29-23.1-5.07-23.57-1.19-.2-2.16,1.31-3.29,2.53-1.94,2.1-6.67,5.93-27.37,5.07a185.63,185.63,0,0,1-30.66-4.05C313.94,574.68,305.9,572.11,305.64,572.86Z" transform="translate(-147 -285)"/><path class="cls-5" d="M375.83,678c0-.13,3-.18,10.9-1.52,9.53-1.62,11.31-2.62,12.67-3.8,3.14-2.73,3.58-6,5.07-5.83s3,3.5,2.28,5.83C404.32,680.47,375.85,678.43,375.83,678Z" transform="translate(-147 -285)"/><path class="cls-5" d="M279.8,568c3.54-.86,6.11,2.49,15.71,10.14,6.67,5.31,4.26,2.75,17.23,12.67,7.55,5.77,15.94,12.2,15.46,12.92-.3.44-3.72-1.62-11.91-5.07-9.83-4.14-11.42-3.93-11.91-3.29s0,1.55,1.52,4.56c2.75,5.29,4.12,7.93,5.57,9.88,6.1,8.21,13.18,16,13.18,16,2.27,2.48,20,21.9,17.23,25.34-1.77,2.2-12-2-19-6.84-5.18-3.55-7.85-6.91-8.62-6.33-1,.77,1.75,8.33,7.35,14.7,4.35,4.95,8.71,7.24,22.55,18.5,1.07.87,3.71,3,3.29,3.8-.55,1-5.67-2.25-13.43-2.53-5.9-.22-7,1.53-11.66.51a20.36,20.36,0,0,1-8.87-4.56c-4.82-4.09-6.26-8.9-8.36-14.19-.86-2.16-4.29-8.54-11.15-21.28-7.82-14.53-8.39-12.5-13.43-22.55-5.68-11.33-10.74-21.77-7.6-32.69C273.54,575.65,275.42,569.11,279.8,568Z" transform="translate(-147 -285)"/><path class="cls-3" d="M184.18,418.06c.95-.92,3.26.05,4.44.55,10.38,4.46,14.25,16.63,14.42,17.19.84,2.76,2.17,7.17.55,8.32-2.14,1.51-8.53-3.34-12.2-7.76-2.18-2.63-3.49-5.82-6.1-12.2C183.91,420.8,183.34,418.87,184.18,418.06Z" transform="translate(-147 -285)"/><path class="cls-6" d="M179.19,427.49c1.14-1.15,5.65.91,6.1,1.11a15,15,0,0,1,1.85,1,16.59,16.59,0,0,1,4.25,4c1.25,1.7,2,4.49,3.33,10,.82,3.29.81,3.68.55,3.88-1.23,1-6.71-3.6-10.54-8.32C181.34,435,177.8,428.88,179.19,427.49Z" transform="translate(-147 -285)"/><path class="cls-1" d="M179.19,435.25c-1.93,2.24-3,3.5-3.88,5.55a12.87,12.87,0,0,0-1.11,6.1,8.2,8.2,0,0,0,1.66,5,7.16,7.16,0,0,0,3.33,2.22,8.11,8.11,0,0,0,4.44,0,12,12,0,0,0,6.65-3.88c.8-1,1.47-2.68,2.77-6.1,1.45-3.8,2.18-5.7,2.22-6.65.17-3.95-2.24-8.93-5.55-9.43-2.05-.31-3.94,1.18-6.65,3.33A26.7,26.7,0,0,0,179.19,435.25Z" transform="translate(-147 -285)"/><path class="cls-1" d="M184.73,426.94a22.51,22.51,0,0,0-8.87,2.22c-5.34,2.33-8.53,5.61-11.65,8.87s-4.76,5-5,7.21c-.47,4.38,3.35,8.23,6.1,10,5.82,3.7,12.33,1.46,13.31,1.11,1.68-.61,2.35-1.19,9.43-7.76,7.8-7.25,9.14-8.55,9.43-11.09a9.78,9.78,0,0,0-2.77-7.76C191.77,426.75,187.66,426.86,184.73,426.94Z" transform="translate(-147 -285)"/><path class="cls-1" d="M169.76,441.35c-1.49.71-2.47,2.69-4.44,6.65a28.12,28.12,0,0,0-2.77,8.32,11.6,11.6,0,0,0,0,5,9.41,9.41,0,0,0,7.21,6.65,10,10,0,0,0,6.65-1.11c2.71-1.6,3.69-4.18,5-7.76,1.72-4.73,2.71-7.47,1.66-10.54C181.21,443.11,173.85,439.4,169.76,441.35Z" transform="translate(-147 -285)"/><path class="cls-1" d="M165.88,440.24c-2,.58-3.72,3.9-7.21,10.54a19,19,0,0,0-2.22,6.1,17.49,17.49,0,0,0,0,5.55,10.42,10.42,0,0,0,1.66,5c1.29,1.76,3,2.48,5,3.33a9.44,9.44,0,0,0,4.44,1.11,8.1,8.1,0,0,0,4.44-1.66c2.15-1.62,2.93-3.88,3.88-7.21,2.11-7.39,3.17-11.08,2.77-12.75C177.22,444.27,170.41,438.91,165.88,440.24Z" transform="translate(-147 -285)"/><path class="cls-1" d="M168.65,436.36c-3.31-1-7.6,5-11.65,10.54a23.67,23.67,0,0,0-3.88,8.32,9.39,9.39,0,0,0,0,5.55,8.68,8.68,0,0,0,1.66,2.77,10,10,0,0,0,4.44,2.77c3.81,1,7.78-1.06,10-3.33,3.09-3.19,3.21-7.25,3.33-11.65C172.59,449.39,172.91,437.59,168.65,436.36Z" transform="translate(-147 -285)"/><path class="cls-7" d="M179.19,427.27c3.88-3.33,8.62-6.62,16.08-12.2.5-.38,2.58,1.08,3.88,1.11,3,.06,5.93,4.16,7.21,7.76,1,2.81.92,5.12,2.77,6.1,1.12.59,1.86.12,2.22.55,1.38,1.69-6.65,13-16.08,16.85C193.05,440.8,188.06,428.94,179.19,427.27Z" transform="translate(-147 -285)"/><path class="cls-3" d="M184.18,418.06A100.09,100.09,0,0,1,208,402c.68-.34,2.7.26,4.44,0,3.57-.53,7,4.1,10,8.32,4.43,6.19,8.82,12.34,6.65,16.08-1.31,2.27,1.74-1.25-2.77.55-9.71,3.88-11.09,10-22.74,17.19C200.81,431.93,193.6,421.39,184.18,418.06Z" transform="translate(-147 -285)"/><path class="cls-4" d="M203.59,444.13" transform="translate(-147 -285)"/><path class="cls-8" d="M407.67,419.73c5.52,7.23,5.63,8.11,5.55,8.87-.7,6.11-14.41,7.28-35.38,13.71a145.66,145.66,0,0,1-15.64-6.5c-11.8-5.47-22.81-10.57-25.51-21.07a22.35,22.35,0,0,1-.59-7A45.4,45.4,0,0,1,348.88,402c4.53-1.2,9.67-1.36,20-1.66,12.62-.38,19-.5,23.85,2.22C395.94,404.37,399.85,409.49,407.67,419.73Z" transform="translate(-147 -285)"/><path class="cls-9" d="M377.83,442.31q-3.53,1.08-7.32,2.37c-20.88,7.17-33.61,11.73-41.59,23.85-6.7,10.17-7.2,21.32-10,21.07s-3.85-11.14-4.44-17.19c-2-21-3.06-31.49,2.22-42.7a53.76,53.76,0,0,1,19.37-22,22.35,22.35,0,0,0,.59,7c2.7,10.5,13.71,15.61,25.51,21.07A145.66,145.66,0,0,0,377.83,442.31Z" transform="translate(-147 -285)"/><path class="cls-10" d="M336.09,407.7A45.4,45.4,0,0,1,348.88,402c4.53-1.2,9.67-1.36,20-1.66,12.62-.38,19-.5,23.85,2.22,3.24,1.84,7.15,7,15,17.19,5.52,7.23,5.63,8.11,5.55,8.87-.7,6.11-14.41,7.28-35.38,13.71q-3.53,1.08-7.32,2.37c-20.88,7.17-33.61,11.73-41.59,23.85-6.7,10.17-7.2,21.32-10,21.07s-3.85-11.14-4.44-17.19c-2-21-3.06-31.49,2.22-42.7A53.76,53.76,0,0,1,336.09,407.7Z" transform="translate(-147 -285)"/><path class="cls-3" d="M327.81,400.87a38.11,38.11,0,0,0-3.33-3.88c-1.06-1.09-1.55-1.48-2.22-1.66-1.74-.47-3.46.82-3.88,1.11-4,2.75-31.14,11-57.12,6.65-6.69-1.12-9.46-2.44-11.65-.55-1.81,1.56-3.64,5.66,7.76,35.49,10.44,27.32,14.85,31.39,18.3,33.83,1.67,1.18,15,10.31,26.62,5.55,7.43-3,5.93-8.41,19.41-41.59C321.71,435.81,332.77,408.56,327.81,400.87Z" transform="translate(-147 -285)"/><path class="cls-3" d="M351.1,404.75c-.44-1.38-5.35.77-10.54-2.22-3-1.71-5.62-3.24-7.21-6.1-.36-.65-1-2-2.22-2.22a3.59,3.59,0,0,0-2.77,1.11c-4.5,3.8-6.75,5.69-7.76,7.21-11.06,16.56-13.86,24.4-13.86,24.4-7.38,20.64-11.06,31-14.42,47.14a377.66,377.66,0,0,0-6.1,74.87A90.28,90.28,0,0,0,290.1,575c.21.68.09,3,1.11,3.33,1.18.41,2.75-2.06,5.55-5.55,6.49-8.09,9.37-8.94,13.31-16.08,0,0,.84-1.52,1.66-3.33,7.19-15.74,2.42-46.44,7.21-76,.85-5.23,2.2-11.68,2.77-14.42,2.39-11.4,3.81-18.19,6.65-26.62,4.27-12.66,6.41-19,12.2-23.85C345.53,408.35,351.58,406.26,351.1,404.75Z" transform="translate(-147 -285)"/><path class="cls-11" d="M351.39,418.1A33,33,0,0,0,340,427.66c-2.08,2.62-3.42,5.26-6.11,10.53-2.15,4.22-4.13,8.56-6.16,13.63-4,9.9-6,14.85-5.06,17.46,2.32,6.7,13.4,11.28,19.25,8,2.5-1.41,3.41-3.9,6.16-24.78,2.36-18,3.33-28.58,10.19-33.88,1.07-.82,3.45-2.42,3.16-3C361.06,414.72,355.78,415.94,351.39,418.1Z" transform="translate(-147 -285)"/><path class="cls-11" d="M355.58,405.92a10.55,10.55,0,0,0-6.71,5.49,8.62,8.62,0,0,0-1,4.22,6.71,6.71,0,0,0,2.29,4.57,7.89,7.89,0,0,0,5.69,2.1c2,.1,4.42.21,7-1.81.41-.32,4.51-3.61,4.53-7.45C367.42,408.19,360.92,404.5,355.58,405.92Z" transform="translate(-147 -285)"/><path class="cls-12" d="M347.64,423.22a9.69,9.69,0,0,0-4.19,3.22,63.19,63.19,0,0,0-6.73,10.43c-4.38,8-4.41,7.9-5,9.41-1.94,4.58-3.68,10.4-2.91,10.81.36.19,1.08-.9,3.45-4,4.73-6.25,7.1-9.38,9.23-11,3.17-2.36,4.53-1.93,5.88-4.25,1.22-2.09.46-3,1.55-6.72,1.41-4.75,3.68-6.59,2.95-7.8S347.85,423.14,347.64,423.22Z" transform="translate(-147 -285)"/><path class="cls-12" d="M351.88,412.17c-.91,1.46-.15,3.75-.09,3.95a4.87,4.87,0,0,0,3,2.94c1.39.6,4.52,1.34,5.61-.54.87-1.51,0-4-1-5.33C357.47,410.44,353.19,410.08,351.88,412.17Z" transform="translate(-147 -285)"/><path class="cls-3" d="M354.43,397.54c-5.53.23-5.93,1.57-9.43,1.11-4-.53-5.39-2.55-7.76-1.66-1.9.71-2.79,2.66-3.33,3.88-6.5,14.73-9.75,22.14-10,24.4-.93,9.17,1.4,15.65-1.66,17.19-1,.49-2.31.33-5,0-4.32-.52-5.54-1.73-6.65-1.11-1.67.93-1.23,4.89,0,11.09,1.89,9.54,2.91,14.69,6.1,22.18,1.82,4.28,5.22,13.14,6.65,12.75,1.23-.33-.59-7,0-17.75a89.76,89.76,0,0,1,2.77-17.19,90.91,90.91,0,0,1,7.76-22.18c4-7.75,8.15-12.75,12.75-18.3,5.34-6.44,8-8.27,8.87-8.87,3.69-2.48,6.86-3.45,6.65-4.44C361.9,397.26,355.28,397.51,354.43,397.54Z" transform="translate(-147 -285)"/><path class="cls-3" d="M408.22,414.18c-7.43-2.66-12.77,5.22-35.49,20-23.59,15.3-26.33,12.33-36.6,22.74-3.87,3.92-15.47,16-20,34.38-1.35,5.52-1.64,11.44-2.22,23.29-.62,12.58-.44,28.29-2.22,33.27a9,9,0,0,0-.55,3.88,10.51,10.51,0,0,0,1.66,4.44c8.39,12.56,34.94,22.74,34.94,22.74a118.15,118.15,0,0,0,11.65,3.88,124.84,124.84,0,0,0,18.86,3.33c12.45,1.54,13.53.43,15.53,1.11a2.81,2.81,0,0,0,2.22,0,2.6,2.6,0,0,0,1.11-1.66,8.27,8.27,0,0,0,0-4.44,41.28,41.28,0,0,1-1.11-8.87c-.08-4.61,1.22-5.84,0-7.76-1.35-2.13-3.85-2-3.88-3.33s3-1.68,5-4.44a9.78,9.78,0,0,0,1.66-5c.82-7.07,2.91-46,5.55-58.23,3.73-17.38,25.44-33,31.06-36.6,4.75-3,5.94-5,8.32-8.87a8.58,8.58,0,0,0,1.66-5c-.06-1.32-1.15-3.12-3.33-6.65-1.89-3.06-2.44-3.66-3.33-3.88-1.1-.28-1.63.28-3.88.55a22.14,22.14,0,0,1-3.88,0C426.19,432.69,416.47,417.13,408.22,414.18Z" transform="translate(-147 -285)"/><path class="cls-7" d="M359.56,404.27c-.2,1.47,1.11,2,2.22,6.65a39.31,39.31,0,0,1,.89,6.65,26.54,26.54,0,0,1,0,7.09c-.61,3.47-1.33,3.55-1.33,4.88,8,0,25.62-5.66,32.81-8.87,1.7-.76,6-2.73,8.42-7.09a7.73,7.73,0,0,0,1.33-4c-.13-5.35-9.22-9-11.09-9.76C378.26,394,360.27,399.06,359.56,404.27Z" transform="translate(-147 -285)"/><path class="cls-7" d="M358.23,406.49c0,.48-1.12.44-3.1,1.33-5.07,2.28-8,7.09-9.31,9.31s-1.82,3.66-2.22,3.55c-.62-.17-.17-3.91.44-6.65,1.07-4.79,1.65-7.41,4-8.87C352,402.68,358.26,405.35,358.23,406.49Z" transform="translate(-147 -285)"/><path class="cls-3" d="M409.33,405.86c-4.47-.72-8.54,1.74-13.31,5-4.62,3.15-6.65,3.88-12.2,7.21-9.64,5.78-19.88,11.88-38.82,27.17-10.57,8.53-14.77,12.58-18.3,18.86a105.32,105.32,0,0,0-5.55,10.54c-5.1,11.1-6.27,17.87-5.55,18.3s3.61-9,13.31-17.19a64.59,64.59,0,0,1,23.29-12.2c9.54-2.65,17.7-2.37,17.75-3.88,0-.5-.87-.92-6.1-2.77-9-3.21-11.07-3.63-11.09-4.44,0-1.49,6.82-2.51,15.53-4.44,8.36-1.84,14.81-3.82,27.73-7.76,18-5.51,7-3.3,22.18-8.32,3.62-1.19,8.91-2.86,8.87-5,0-1.08-1.4-1.4-3.88-3.33-1.23-1-5.65-4.37-7.76-9.43-1.39-3.33-1-5.56-3.33-7.21A6.45,6.45,0,0,0,409.33,405.86Z" transform="translate(-147 -285)"/><path class="cls-3" d="M394.91,488.49a75,75,0,0,1,0-8.32A50,50,0,0,1,398.79,463a38,38,0,0,1,8.32-12.75A35.23,35.23,0,0,1,417.65,443c2.85-1.24,5.41-1.75,10.54-2.77,5.77-1.15,7.52-.93,8.87-.55a11.76,11.76,0,0,1,6.1,3.88c2.53,3.23,2.32,7.2,2.22,9.43-.33,7-.3,14.05-.55,21.07-.55,15.53-1.7,32.41-2.22,51,0,1.77-1.29,7.28-3.88,13.31a31.39,31.39,0,0,1-3.88,6.65c-1.1,1.44-3.35,4.38-5.55,5.55-5.37,2.86-14.59-2.62-20-7.76C398.79,532.73,397.08,518.13,396,509,395.41,503.76,395.18,496.62,394.91,488.49Z" transform="translate(-147 -285)"/><path class="cls-3" d="M386.59,506.24a8.64,8.64,0,0,0-4.44,1.66c-10.84,7.72,0,34.63.55,36a14.09,14.09,0,0,0,3.88,5.55,9.8,9.8,0,0,0,3.88,2.22c5.05,1.22,10.13-4.52,10.54-5,5.43-6.3,3.85-15.34,3.33-18.3C402.47,517.79,394.55,505.72,386.59,506.24Z" transform="translate(-147 -285)"/><path class="cls-6" d="M385.48,509.56c-2-.64-5.11,1.43-5.55,1.66-5.52,2.89-6.11,13.53-4.44,20.52a25.9,25.9,0,0,0,3.33,7.76c2,3.31,4.07,6.76,6.65,6.65,2.31-.1,3.9-3,5-5a21.39,21.39,0,0,0,2.22-12.2c-.27-3.54-1.29-6.06-3.33-11.09C387.06,512.2,386.8,510,385.48,509.56Z" transform="translate(-147 -285)"/><path class="cls-5" d="M324.2,487.66c1-2.7,3.32-4.51,9.43-7.21,7.45-3.29,11.23-3.91,18.3-6.1A90.82,90.82,0,0,0,368,467.7c5.61-3,3.94-3,16.64-11.09,6.74-4.31,8.33-5,12.75-8.32,3.19-2.36,5.28-4.15,5.55-3.88s-3.71,4.26-8.87,11.09c-4.81,6.36-5.09,8-10,13.86-4.27,5.08-6.51,6.71-7.21,7.21-5.45,3.86-10.12,4.31-10,5s7.1,1.63,13.31-1.66c6.87-3.64,9.25-10.39,10-10s-1,7-5.55,12.75c-2.06,2.59-4.26,4.45-3.88,5,.62.88,6.9-3.3,7.76-2.22.73.91-2.77,5.06-5.55,7.76-3.23,3.16-4.4,3.3-6.1,5-1.52,1.5-3.52,4.28-4.44,18.86-.55,8.75-.83,13.13,0,17.75,1.06,5.95,2.3,12.85,7.76,17.19,2.88,2.29,5.74,2.92,5.55,3.88-.27,1.36-6.28,1.23-12.2,1.11-6.77-.14-10.15-.22-13.86-1.11a45,45,0,0,1-13.86-6.1c-7.71-5.05-10.93-10.49-11.65-10s2.13,7.74,7.76,13.86c6.81,7.4,14.76,10.18,20.52,12.2,12.6,4.41,25.76,4.55,29.95,2.77.39-.17,2.4-1.07,2.77-.55s-.61,1.3-1.11,2.22c-2.23,4.09,3,9.26,1.11,12.2-.76,1.21-2.38,1.52-3.88,1.66-16.41,1.63-35.49-6.1-35.49-6.1-7.36-3-13.78-7-26.62-15a27.26,27.26,0,0,1-9.43-8.87c-3-4.84-3.92-10.29-3.33-10.54s1.45,2.67,4.44,6.1c3.79,4.35,8.76,7.34,9.43,6.65s-2.71-3.7-6.1-10c-4-7.5-5.83-15.15-5-15.53.61-.27,2.28,3.33,7.21,9.43,1.77,2.19,6.77,8.37,7.76,7.76.75-.46-1.39-4.61-4.44-12.2-3.55-8.82-7.47-20.15-6.65-20.52.56-.25,4,8.11,5,7.76.83-.29.24-6.71-2.77-12.75-1.95-3.89-4.43-6.68-3.88-7.21s3.28,2.53,7.76,2.77c1.39.08,4.12-.06,4.44-1.11.51-1.71-6.16-3.05-8.87-8.87C324.5,495.42,322.74,491.5,324.2,487.66Z" transform="translate(-147 -285)"/><path class="cls-13" d="M385.48,509.56c0-.55-3.22-.27-6.65-2.77a8.8,8.8,0,0,1-3.33-3.88,9.16,9.16,0,0,1,0-6.1,41,41,0,0,0,1.66-3.88,8.29,8.29,0,0,0,.55-2.77c-.11-2.58-2.63-4.64-4.44-5.55a10.22,10.22,0,0,0-8.32,0,11,11,0,0,0-5.55,5,11.6,11.6,0,0,0-1.11,6.1,14.34,14.34,0,0,0,1.11,5,13.21,13.21,0,0,0,5,6.1,18.33,18.33,0,0,0,2.22,1.11,39.88,39.88,0,0,0,6.1,2.22C378.33,511.58,385.46,510.38,385.48,509.56Z" transform="translate(-147 -285)"/><path class="cls-13" d="M377.16,509c-7.29-1.52-10.54-3-13.31-1.11-1.07.73-1.79,1.79-2.77,4.44-3.69,10-.17,13.28-2.77,23.29a26.51,26.51,0,0,0-.55,10,4.72,4.72,0,0,0,5,4.44c6.59.48,9.88.73,11.09.55a22.08,22.08,0,0,0,16.08-9.43,24.87,24.87,0,0,0,5-10c1.42-6.4.37-16-5.55-20C386.95,509.6,386.89,511,377.16,509Z" transform="translate(-147 -285)"/><path class="cls-13" d="M366.63,509c-1.47-1.16-3.07-1.53-6.1-2.22a19.08,19.08,0,0,0-6.65-.55,11.37,11.37,0,0,0-5.55,1.66,10.2,10.2,0,0,0-3.88,5,7.09,7.09,0,0,0-.55,3.88,7.21,7.21,0,0,0,1.66,3.33,10.94,10.94,0,0,0,3.33,2.77c.73.41,2.06,1,6.1,1.66,3.56.54,5.34.81,7.21.55,2.08-.29,4.92-.68,6.65-2.77C371.78,518.79,370.31,511.93,366.63,509Z" transform="translate(-147 -285)"/><path class="cls-13" d="M365.52,526.76c-.93-1.17-1.94-1.63-9.43-3.33-7.9-1.79-9.1-1.81-10.54-1.11a8.6,8.6,0,0,0-4.44,5.55,9,9,0,0,0,0,3.88,9.55,9.55,0,0,0,1.66,3.88c.74,1,2,2.15,5.55,3.33,4.48,1.49,8.12,2.69,12.2,1.11,1.3-.5,4.8-1.86,6.1-5.55A8.35,8.35,0,0,0,365.52,526.76Z" transform="translate(-147 -285)"/><path class="cls-13" d="M363.3,540.62c-1.28-1.14-1.89-.79-7.76-2.22-3.72-.9-5-1.41-7.21-1.11a5.73,5.73,0,0,0-3.88,1.66,5.47,5.47,0,0,0-1.11,3.88,6.46,6.46,0,0,0,1.11,3.33c1.43,2,3.81,2.5,8.32,3.33a19.11,19.11,0,0,0,5.55.55c1.77-.16,6.16-.56,7.21-3.33C366.31,544.62,364.86,542,363.3,540.62Z" transform="translate(-147 -285)"/><path class="cls-14" d="M384.93,509c.82-.17,2.77.55,5,.55,3.81,0,6.78.67,8.32.55,4.89-.36,5.05-1.6,6.65-1.11,4.78,1.45,4.89,12.92,5,23.85a29,29,0,0,1-2.77,11.65,5.89,5.89,0,0,1-2.22,2.77c-2.17,1.29-4.51.15-8.32-.55-5.63-1-7.86.27-10-.55C395.47,537.85,392.69,515.67,384.93,509Z" transform="translate(-147 -285)"/><path class="cls-3" d="M384.93,506.24c1.27-.44,2.14-.63,6.65-1.11a41.93,41.93,0,0,0,5.55-1.11c6.13-1.43,9.21-2.15,10-2.22a22.13,22.13,0,0,1,10,1.66,30.15,30.15,0,0,1,13.31,10c2.29,2.86,6.93,8.64,7.21,17.19a25.59,25.59,0,0,1-3.33,13.31c-1.42,2.58-3.74,6.78-8.32,8.32a14.1,14.1,0,0,1-4.44.55c-8.76.3-14.42,0-14.42,0-13.23-.71-15.18-.6-16.64-1.11C407.67,542.84,397.68,506.24,384.93,506.24Z" transform="translate(-147 -285)"/><path class="cls-3" d="M321.15,499.58a4.77,4.77,0,0,1-.55-3.88c.82-2.22,3.5-2.7,3.88-2.77a5,5,0,0,1,4.44,1.11,4.9,4.9,0,0,1,1.11,4.44,5.1,5.1,0,0,1-2.77,3.33,4.59,4.59,0,0,1-6.1-2.22Z" transform="translate(-147 -285)"/><path class="cls-3" d="M317.83,522.32a4.44,4.44,0,0,1,3.33-2.77,4.88,4.88,0,0,1,5.55,5.55,4.35,4.35,0,0,1-7.21,2.77,5,5,0,0,1-1.66-2.77A4.57,4.57,0,0,1,317.83,522.32Z" transform="translate(-147 -285)"/><path class="cls-10" d="M399.35,501.8a35.55,35.55,0,0,1,7.21-3.33,30,30,0,0,1,13.86-1.66,28.16,28.16,0,0,1,13.31,5.55" transform="translate(-147 -285)"/><path class="cls-10" d="M435.95,509.56a38.13,38.13,0,0,0-6.65-5,33.71,33.71,0,0,0-9.43-3.88c-2.5-.58-5.46-.92-5.55-.55s4.05,1,8.87,3.88a35.51,35.51,0,0,1,10,9.43,39.51,39.51,0,0,1,2.22,3.33" transform="translate(-147 -285)"/><path class="cls-10" d="M391,475.18c.6-1.62,1.52-3.93,2.77-6.65,1-2.18,2.13-4.41,2.77-5.55,4.05-7.15,12.21-11.71,12.75-11.09.41.46-3.93,3.27-7.21,10A41.41,41.41,0,0,0,398.79,473a61.83,61.83,0,0,0-1.11,11.09" transform="translate(-147 -285)"/><path class="cls-10" d="M393.25,557.81a36.38,36.38,0,0,1-5,1.66,41.3,41.3,0,0,1-7.76,1.11c-9.43.36-22.52-3.45-22.74-2.77-.13.41,4.4,2.44,9.43,3.88a67.56,67.56,0,0,0,12.75,2.22,112.7,112.7,0,0,0,13.31.55" transform="translate(-147 -285)"/><path class="cls-13" d="M292.32,512.34c.29.82,1.13,3.44,3.88,21.07,3.43,22,5.15,33.19,5,42.15-.11,6.42-.71,14.06-4.44,22.18a42.89,42.89,0,0,1-5,8.32,33.37,33.37,0,0,1-12.2,10.54c-3.87,1.85-10.21,4.88-13.86,2.77-8.31-4.79,8.89-29.37,7.76-69.32-.43-15.41-3.48-29.1,5.55-38.82,3.54-3.81,11-8.41,12.2-7.21.41.4-.07,1.22,0,3.33A14.79,14.79,0,0,0,292.32,512.34Z" transform="translate(-147 -285)"/><path class="cls-13" d="M254.61,646.54c11.44,1.09,17.86-.45,20,3.33.71,1.28.69,2.72-.55,7.21a95.68,95.68,0,0,1-7.21,18.3c-1.62,3.19-4.59,8.41-10.54,18.86-3.43,6-.92,13.55-4,15.55-5.57,3.59-15.71-1.58-16.5-1.69-1.06-.14-8.59-1.1-11.65-6.65-.86-1.56-1.13-3.63-1.66-7.76a65.36,65.36,0,0,1-.55-8.32,79.53,79.53,0,0,1,2.22-17.75c3.33-14.48,5-21.72,8.87-23.85C237.58,641.24,239.68,645.12,254.61,646.54Z" transform="translate(-147 -285)"/><path class="cls-13" d="M180.3,647.1c-3.77,4.16-4.28,9.77-5,17.75a78.63,78.63,0,0,0,0,13.31c.5,5,1.26,6.79,1.11,11.65a52.27,52.27,0,0,1-.55,7.76c-.39,2.13-.84,3.45-.55,5.55a9.36,9.36,0,0,0,1.66,4.44c1.71,2.25,4.39,2.91,6.65,3.33,5.62,1,6.94,1.52,12.31,2,19.07,1.77,18.4-2.05,21.52-1.47a21.07,21.07,0,0,0,8.32,0c2-.41,4.15-.86,5-2.22,1.87-3-2.12-10.23-7.76-13.86-3.63-2.34-7.79-3.09-7.76-5a2.42,2.42,0,0,1,1.11-1.66c5.1-4,9.44-19.75,11.09-28.28,1.7-8.77,2.55-13.16,1.11-15.53-5.43-8.92-25.61-5.1-34.94-3.33C184.53,643.27,181.84,645.39,180.3,647.1Z" transform="translate(-147 -285)"/><path class="cls-15" d="M276.79,587.76c2.85,4,13,18.55,12.2,39.37-.39,9.87-6.65,26.06-10,33.27-24.89-.49-26.59-1.4-41.75-2a64.31,64.31,0,0,1,5-9.66,21.07,21.07,0,0,0,2.91-7.68s0,0,0-.07c1.1-6.79.55-13.71-1.55-21.75,1.75-.8,3.55-1.71,5.43-2.65a60,60,0,0,0,6.72-3.73l3.08-6.93,2.13-.16c8-.6,12.09-.88,15.53,0,4.77,1.23,6.44,1.74,7.49.83,1.77-1.54-.66-8.11-5.27-12.48-2.84-2.7-6.52-4.13-13.25-4.17-.86-2-3.4-5.71-13.65-10l-1.48-.61c5.61-2.87,11-4,15.34-2.72C269.65,577.84,272,581.15,276.79,587.76Z" transform="translate(-147 -285)"/><path class="cls-16" d="M278.73,594.14c4.61,4.37,7,10.94,5.27,12.48-1,.91-2.72.39-7.49-.83-3.43-.88-7.51-.6-15.53,0l-2.13.16,6.84-15.41c-.06-.17-.13-.35-.22-.57C272.21,590,275.88,591.44,278.73,594.14Z" transform="translate(-147 -285)"/><path class="cls-16" d="M265.7,590.53l-6.84,15.41a71.36,71.36,0,0,0-11.73,1.5,59.7,59.7,0,0,0-6.57,1.81L238,601.43a34.51,34.51,0,0,0-4.33-7.18c3-.6,6.2-1.2,9.59-1.79,10-1.72,17-2.53,22.24-2.51C265.57,590.18,265.64,590.37,265.7,590.53Z" transform="translate(-147 -285)"/><path class="cls-15" d="M265.48,590c-5.22,0-12.29.79-22.24,2.51-3.39.59-6.58,1.18-9.59,1.79-.23-.28-.45-.56-.69-.84a62,62,0,0,1,17.4-14h0l1.48.61C262.08,584.25,264.62,588,265.48,590Z" transform="translate(-147 -285)"/><path class="cls-15" d="M258.85,605.94l-3.08,6.93a60,60,0,0,1-6.72,3.73c-1.88.94-3.69,1.85-5.43,2.65,0-.14-.07-.29-.11-.43l-.73-2.73-2.23-6.82a59.7,59.7,0,0,1,6.57-1.81A71.36,71.36,0,0,1,258.85,605.94Z" transform="translate(-147 -285)"/><path class="cls-15" d="M243.63,619.25c2.1,8,2.66,15,1.55,21.75,0,0,0,0,0,.07a21.07,21.07,0,0,1-2.91,7.68,64.31,64.31,0,0,0-5,9.66c-2.07-.08-4.39-.16-7-.22-2-1.61-10.32-8.66-12.75-20.52a33.54,33.54,0,0,1-.6-4.4,39.48,39.48,0,0,0,7-5.31,42.22,42.22,0,0,0,5.75-6q.32.1.63.17C234.2,623,238.65,621.55,243.63,619.25Z" transform="translate(-147 -285)"/><path class="cls-15" d="M243.52,618.81c0,.14.08.29.11.43-5,2.3-9.43,3.78-13.42,2.89q-.32-.07-.63-.17c.3-.39.6-.79.91-1.22,3.37-4.7,2.59-5.84,5-8.32a12.88,12.88,0,0,1,5.07-3.18l2.23,6.82Z" transform="translate(-147 -285)"/><path class="cls-16" d="M238,601.43l2.57,7.82a12.88,12.88,0,0,0-5.07,3.18c-2.4,2.48-1.62,3.62-5,8.32-.31.43-.61.83-.91,1.22-3.55-1-6.8-3.93-9.48-7.85a69.6,69.6,0,0,1,11.83-19.52l1.72-.35A34.51,34.51,0,0,1,238,601.43Z" transform="translate(-147 -285)"/><path class="cls-15" d="M186.11,650.15a10,10,0,0,0-3-.77c-2-.58-4.26-1.39-4.2-2,.08-.78,3.9-1.07,4.44-1.11,2.86-.21,4.34.32,4.44,0,.15-.48-2.92-2.52-6.65-2.77-1.89-.13-3.26.25-3.33,0s2.57-1.49,5-2.22c7.76-2.33,13.8-.68,13.86-1.11s-8.2-4.41-16.08-1.66c-2,.69-2.87,1.43-4.44,1.11-4.58-.94-6.26-9.16-6.65-11.09-.77-3.79-1.38-6.74.55-8.87a7,7,0,0,1,8.32-1.11c1.41.91,1.64,2.14,2.77,4.44a29.1,29.1,0,0,0,6.1,8.32c3.1,2.75,6.6,3.14,13.31,3.88,5.28.59,8.91,1,13.31-.55a19.28,19.28,0,0,0,3-1.35,33.54,33.54,0,0,0,.6,4.4c2.43,11.86,10.75,18.91,12.75,20.52,2.66.07,5,.14,7,.22a30.07,30.07,0,0,0-1.5,4.77c-21.07.55-48.8-.55-66-.55a15.19,15.19,0,0,1,0-6.07l4.71-4.19a11.79,11.79,0,0,1,5-2.77,10.43,10.43,0,0,1,2.25-.29,9.5,9.5,0,0,1,1.4.07C184.65,649.83,186,650.15,186.11,650.15Z" transform="translate(-147 -285)"/><path class="cls-15" d="M250.35,579.38a62,62,0,0,0-17.4,14c-.34-.42-.71-.82-1.09-1.23a38.46,38.46,0,0,0-18.17-10.55,13.11,13.11,0,0,1,3.75-6.09C224.78,569.19,239.43,574.86,250.35,579.38Z" transform="translate(-147 -285)"/><path class="cls-15" d="M233,593.42c.24.28.47.55.69.84l-1.72.35C232.27,594.2,232.61,593.81,233,593.42Z" transform="translate(-147 -285)"/><path class="cls-15" d="M231.87,592.2c.38.4.74.81,1.09,1.23-.34.39-.69.78-1,1.19-7,1.44-13,2.89-18.22,4.25-1.38-6.15-1.53-12.4,0-17.21A38.46,38.46,0,0,1,231.87,592.2Z" transform="translate(-147 -285)"/><path class="cls-16" d="M229.57,622a42.22,42.22,0,0,1-5.75,6,39.48,39.48,0,0,1-7,5.31,44.53,44.53,0,0,1,3.25-19.14C222.77,618,226,621,229.57,622Z" transform="translate(-147 -285)"/><path class="cls-16" d="M231.93,594.61a69.6,69.6,0,0,0-11.83,19.52,45.35,45.35,0,0,1-6.39-15.27C218.94,597.5,224.94,596,231.93,594.61Z" transform="translate(-147 -285)"/><path class="cls-16" d="M220.1,614.13a44.53,44.53,0,0,0-3.25,19.14,19.28,19.28,0,0,1-3,1.35c-4.4,1.54-8,1.14-13.31.55-6.7-.74-10.21-1.13-13.31-3.88a29.1,29.1,0,0,1-6.1-8.32c-1.14-2.3-1.36-3.53-2.77-4.44a7,7,0,0,0-8.32,1.11c-1.93,2.13-1.33,5.09-.55,8.87.39,1.94,2.07,10.15,6.65,11.09,1.57.32,2.46-.42,4.44-1.11,7.88-2.75,16.15,1.16,16.08,1.66s-6.1-1.22-13.86,1.11c-2.42.73-5.09,1.86-5,2.22s1.44-.13,3.33,0c3.73.25,6.8,2.29,6.65,2.77-.1.32-1.57-.21-4.44,0-.54,0-4.36.33-4.44,1.11-.06.61,2.2,1.42,4.2,2a9.5,9.5,0,0,0-1.4-.07,10.43,10.43,0,0,0-2.25.29,11.79,11.79,0,0,0-5,2.77l-4.71,4.19a25.39,25.39,0,0,1,3.33-8.35c-2.22-5-3.11-6-7.76-16.08a65.72,65.72,0,0,1-5.55-17.75c-.22-1.45-.41-2.75-.55-4a5.4,5.4,0,0,1,.83-.76,6.07,6.07,0,0,1,2.77-1.11c12.37-1.86,18.56-2.78,18.86-2.77,8,.26,16.79-2.94,32-6.92A45.35,45.35,0,0,0,220.1,614.13Z" transform="translate(-147 -285)"/><path class="cls-15" d="M213.7,581.65c-1.53,4.81-1.38,11.06,0,17.21-15.23,4-24,7.18-32,6.92-.3,0-6.48.92-18.86,2.77a6.07,6.07,0,0,0-2.77,1.11,5.4,5.4,0,0,0-.83.76,21.3,21.3,0,0,1,0-6c1.81-11.26,15-17.78,18.3-19.41A53.15,53.15,0,0,1,213.7,581.65Z" transform="translate(-147 -285)"/><path class="cls-15" d="M186.11,650.15c-.07,0-1.46-.32-3-.77A10,10,0,0,1,186.11,650.15Z" transform="translate(-147 -285)"/><path class="cls-4" d="M237.25,658.41c15.17.59,16.86,1.51,41.75,2,3.33-7.21,9.59-23.4,10-33.27.83-20.82-9.35-35.41-12.2-39.37-4.76-6.61-7.14-9.92-11.09-11.09-4.33-1.29-9.73-.16-15.34,2.72" transform="translate(-147 -285)"/><path class="cls-4" d="M243.63,619.25c1.75-.8,3.55-1.71,5.43-2.65a60,60,0,0,0,6.72-3.73" transform="translate(-147 -285)"/><path class="cls-4" d="M265.7,590.53c-.06-.17-.13-.35-.22-.57-.86-2-3.4-5.71-13.65-10l-1.48-.61h0c-10.92-4.53-25.57-10.2-32.9-3.83a13.11,13.11,0,0,0-3.75,6.09" transform="translate(-147 -285)"/><path class="cls-4" d="M238,601.43a34.51,34.51,0,0,0-4.33-7.18c-.23-.28-.45-.56-.69-.84s-.71-.82-1.09-1.23a38.46,38.46,0,0,0-18.17-10.55A53.15,53.15,0,0,0,177.52,585c-3.29,1.62-16.49,8.15-18.3,19.41a21.3,21.3,0,0,0,0,6c.14,1.2.33,2.5.55,4a65.72,65.72,0,0,0,5.55,17.75c4.65,10.07,5.55,11.09,7.76,16.08a25.39,25.39,0,0,0-3.33,8.35,15.19,15.19,0,0,0,0,6.07c17.19,0,44.92,1.11,66,.55a30.07,30.07,0,0,1,1.5-4.77,64.31,64.31,0,0,1,5-9.66,21.07,21.07,0,0,0,2.91-7.68s0,0,0-.07c1.1-6.79.55-13.71-1.55-21.75,0-.14-.07-.29-.11-.43l-.73-2.73" transform="translate(-147 -285)"/><path class="cls-17" d="M265.7,424.16c6.41-2.25,16.15,6.29,17.19,7.21,5.84,5.12,8.09,11.17,10.54,17.75,3,8.15,3.77,15,4.44,21.63a139.18,139.18,0,0,1,.55,17.75c-.31,15.58-2.48,20.55,0,26.06.36.81,1.53,3.19.55,4.44s-3.37.74-4.44.55c-8.09-1.42-14.34-.43-17.19-1.11C261.09,514.54,248.24,430.29,265.7,424.16Z" transform="translate(-147 -285)"/><path class="cls-17" d="M240.74,421.39c-2.06.13-8.81.71-21.07,6.65-7.89,3.83-37.45,19.28-54.9,53.24A127.59,127.59,0,0,0,157,500.14c-3.77,11.68-4.76,20.38-6.65,37.16a306.82,306.82,0,0,0-2.22,32.16c-.19,14.36-.29,21.54.55,25.51a28.18,28.18,0,0,1,.55,10c-.33,2.53-.72,2.66-.55,3.33,1.61,6.42,39.56,2.32,61,0C227,606.4,233.37,605,238,603.84c.94-.25,6.44-1.7,13.86-3.33a102.31,102.31,0,0,1,12.2-2.22c4.57-.43,9.26-.87,15,.55,7.81,1.94,6.81,3.63,8.87,2.77,2.77-8.87-3.15-65.3-3.33-76.53,0-1.95,0-3.88,0-3.88.08-5.05.45-8.81.55-10,.66-7.08.21-8.87,1.11-28.28.29-6.2.47-8.93,0-13.31A65.85,65.85,0,0,0,284,458.55c-3.7-13.39-5.55-20.09-7.76-23.29C265.75,420.12,242,421.31,240.74,421.39Z" transform="translate(-147 -285)"/><path class="cls-13" d="M216.9,490.71c-4-.14-7,2.74-9.43,5-2.8,2.64-5.85,6.75-9.43,20.52a197.69,197.69,0,0,0-3.88,20c-.53,3.26-1.28,9.94-2.77,23.29a44.23,44.23,0,0,0,0,12.75,28.15,28.15,0,0,0,2.22,8.32c2.41,5.15,5.42,6.67,5,10-.13,1-.37.54-2.22,4.44-2.45,5.17-2.4,6.78-2.22,7.76a7.7,7.7,0,0,0,1.66,3.33c2.08,2.66,4.91,4,11.65,6.1,7.24,2.24,10.91,3.34,13.86,2.77A17.29,17.29,0,0,0,229.1,611c9.69-7.91,10.76-22.72,11.65-34.94a135.22,135.22,0,0,0,0-18.3c-.37-6.28-.78-6.7-2.22-21.07-1-9.62-.91-10.72-1.66-14.42a60.7,60.7,0,0,0-5-15.53C228.9,500.77,224.06,491,216.9,490.71Z" transform="translate(-147 -285)"/><path class="cls-13" d="M187.5,615.49a9.21,9.21,0,0,1-.55-3.88,8.33,8.33,0,0,1,1.66-4.44c2.28-2.81,6.25-2.79,8.87-2.77a17.25,17.25,0,0,1,7.21,1.66c2.31,1.1,3.79,1.8,4.44,3.33,1.35,3.19-2,7.44-4.44,9.43a13.17,13.17,0,0,1-6.65,2.77c-1.57.18-5.07.59-7.76-1.66A9.48,9.48,0,0,1,187.5,615.49Z" transform="translate(-147 -285)"/><path class="cls-13" d="M191.94,617.15a7.63,7.63,0,0,0,.55,5.55,10.23,10.23,0,0,0,6.1,5c5.09,1.76,9.63-.63,10.54-1.11a15.21,15.21,0,0,0,6.1-6.1c2.32-4,2.27-7.85,2.22-11.65s-.07-5.84-1.11-6.65-2.86-.9-21.07,11.09A7.71,7.71,0,0,0,191.94,617.15Z" transform="translate(-147 -285)"/><path class="cls-13" d="M203.59,622.14c-.35,1.6,3.42,4.34,7.21,5,4.06.7,7.41-1.1,9.43-2.22,5-2.75,7.47-6.77,9.43-10,3-4.91,6.67-13.28,5-14.42-2.72-1.85-16.26,17.64-27.73,20C206.08,620.65,203.84,621,203.59,622.14Z" transform="translate(-147 -285)"/><path class="cls-17" d="M191.66,468.62a51.2,51.2,0,0,0-3,15.44,354,354,0,0,0,.55,41.59c21.07,0,40.48.55,56,0,0,0,1.66-16.64-1.66-62.11a39.92,39.92,0,0,0-1.66-7.76,34.78,34.78,0,0,0-4.44-8.32c-2.82-4.07-6.38-6.36-9.43-8.32-2.23-1.44-3.78-1.32-5-1.66a7.4,7.4,0,0,0-3.88.18" transform="translate(-147 -285)"/><path class="cls-10" d="M169.76,662.62" transform="translate(-147 -285)"/><path class="cls-18" d="M165.32,632.12c4.65,10.07,5.55,11.09,7.76,16.08" transform="translate(-147 -285)"/><path class="cls-13" d="M200.26,699.23a15.06,15.06,0,0,1,4.44-6.65,15.23,15.23,0,0,1,7.76-3.33,13.13,13.13,0,0,1,7.76.55,13.53,13.53,0,0,1,7.21,15,11.61,11.61,0,0,1-2.77,5c-2.06,2.11-4.41,2.73-6.65,3.33a25.8,25.8,0,0,1-8.87.55c-4.65-.28-7-.42-8.32-1.66C197,708.46,199.84,700.38,200.26,699.23Z" transform="translate(-147 -285)"/><path class="cls-13" d="M211.91,692.57c2.49-3.37,6.47-4.17,7.76-4.44a13.56,13.56,0,0,1,5-.08,12.12,12.12,0,0,1,6.07,2.85,12.66,12.66,0,0,1,3.88,8.87A14.67,14.67,0,0,1,233,707c-1,2.06-2,4.36-4.44,5.55-.58.29-1.52.65-5.55.55-5-.11-7.47-.17-8.87-1.11-3.09-2.06-3.54-6.24-3.88-9.43S209.52,695.81,211.91,692.57Z" transform="translate(-147 -285)"/><path class="cls-13" d="M240.74,697a12,12,0,0,1,4.44-6.1c4.69-3.21,10.1-1.45,11.09-1.11a13.09,13.09,0,0,1,6.1,4.44c.42.56,3.81,5.23,2.22,10.54a8.52,8.52,0,0,1-2.77,4.44c-1,.75-2,1.16-7.76,1.66-6.74.59-7.73.25-8.32,0a10.11,10.11,0,0,1-5-5A11.49,11.49,0,0,1,240.74,697Z" transform="translate(-147 -285)"/><path class="cls-13" d="M225.21,689.8a9.67,9.67,0,0,1,7.21,0,11.23,11.23,0,0,1,6.1,5.55,12.26,12.26,0,0,1,1.11,6.65,12,12,0,0,1-2.22,6.65,8,8,0,0,1-3.33,2.77,7.78,7.78,0,0,1-3.33.55c-4.61-.09-8.31-.17-10.54-2.77-2.77-3.24-1.37-8.21-.55-11.09C220.42,695.44,221.55,691.47,225.21,689.8Z" transform="translate(-147 -285)"/><path class="cls-13" d="M254.05,690.91c2.68-2.8,6.85-2.78,8.32-2.77a14.89,14.89,0,0,1,8.32,2.77,12.88,12.88,0,0,1,5.55,6.1c.23.59,2.23,5.8-.55,9.43-1.54,2-3.83,2.6-6.65,3.33a16.67,16.67,0,0,1-6.1.55,13.73,13.73,0,0,1-6.65-2.22C251.45,704.53,249.82,695.33,254.05,690.91Z" transform="translate(-147 -285)"/><path class="cls-13" d="M262.92,690.91c1.74-2.09,4.49-2.52,6.1-2.77a12.71,12.71,0,0,1,9.43,2.22,12.52,12.52,0,0,1,4.44,13.31c-.38,1.29-1.37,4.63-4.44,6.1a8.82,8.82,0,0,1-5,.55,14.14,14.14,0,0,1-6.1-2.22C262.06,704.42,259.28,695.27,262.92,690.91Z" transform="translate(-147 -285)"/><path class="cls-19" d="M211.94,443.29c-3.71,1.06-5.72,3.7-9.22,8.32a54,54,0,0,0-8.25,16.08,70.44,70.44,0,0,0-2.91,15,123.23,123.23,0,0,0-.49,19.41c.37,10.34,1.4,10.89.49,15.53-.3,1.54-.74,3.14,0,4.44,1.2,2.1,4.42,1.55,9.7,1.11,10.91-.9,16.36-1.36,20.37-.55,2.89.58,5.06,1.41,7.28,0,1.36-.87,2.44-2.4,3.88-7.21,2.44-8.17,3.11-16.48,2.43-16.64-.38-.09-.75,2.53-2.91,7.21-1.74,3.75-4,7.44-4.37,7.21s2.32-5.57,4.37-14.42A87.42,87.42,0,0,0,234.25,486c.52-6.1.89-10.41,0-16.08a52,52,0,0,0-5.82-16.64c-1.87-3.66-2.84-5.52-4.85-7.21C223.17,445.72,218,441.56,211.94,443.29Z" transform="translate(-147 -285)"/><path class="cls-19" d="M208.86,437.19c-2.95,0-6.7,1.14-16.08,10.54a136.64,136.64,0,0,0-10,11.09,142.17,142.17,0,0,0-16.64,26.62,128.56,128.56,0,0,0-7.21,18.86c-2,6.9-2.8,12.73-4.44,24.4-1.45,10.32-2.39,17.07-2.77,26.62-.57,14.27,1,11.93,0,19.41-.68,4.88-1.89,9.69.55,11.65.28.23,1.38,1,5,.55a24.71,24.71,0,0,0,11.65-5c5.69-4.3,8.72-9.3,11.09-13.31,3.91-6.6,5.08-11.24,5.55-11.09s-.29,8.36-4.44,16.64a55.2,55.2,0,0,1-13.31,16.64c-7.78,6.83-14.55,9.45-13.86,11.65.26.83,1.48,1.27,5,1.66,10.41,1.17,15.61,1.76,20-1.11,4.93-3.25,6.06-9.93,8.32-23.29.27-1.58.25-1.7,1.66-17.19,1.36-15,1.77-19.21,0-20-1.17-.5-2.6.83-7.76,5.55-3.07,2.8-13.62,12.43-13.86,12.2s9-6.7,13.86-18.3c2.9-6.89,3.33-13.34,3.88-21.63.09-1.39.18-3.11,0-17.75-.2-16.46-.35-17.14,0-20.52.92-9,1.76-16.13,7.21-21.63a27,27,0,0,1,10-6.1c7.55-2.6,11.73-.17,14.42-3.33,2.35-2.75,2.14-8.08-.55-11.09C213.58,437.18,209.71,437.19,208.86,437.19Z" transform="translate(-147 -285)"/><path class="cls-19" d="M252.67,463.26c-1,.25.23,11.34,3.88,22.18a57.22,57.22,0,0,0,3.33,8.32c5.94,11.77,14.32,16.82,13.31,18.3-.85,1.24-7.19-1.69-8.32-2.22-9.9-4.59-13.62-10.34-15-9.43-1.55,1,.53,10.4,7.21,15.53,4.22,3.24,8,3.06,8.32,5,.42,2.57-7.75,3-14.42,9.43-5.65,5.48-8.17,13.19-7.21,13.86.47.33,1.73-1,3.88-2.77,1.2-1,9.22-7.45,16.64-8.32,8.7-1,15,5.9,16.08,4.44.72-1-1.55-4.66-5-6.65-5.3-3.07-11.56-1.09-11.65-1.66s4.53-1.61,11.09-3.88c4.16-1.44,5.61-2.14,5.55-2.77-.09-1-3.84-.78-8.87-3.33-2.41-1.22-4-2.51-3.88-2.77.22-.44,4.86,3,9.43,1.66,2.51-.72,5.07-2.9,5-5-.1-2.64-4.36-4.43-5.55-5C261.94,501.27,254.56,462.79,252.67,463.26Z" transform="translate(-147 -285)"/><path class="cls-16" d="M246.57,619.65c1.2-2,3.73-1.5,7.76-2.77,6.58-2.07,10.12-6.57,10.54-6.1s-1.68,2.92-5,7.21c-1.35,1.74-1.89,2.38-1.66,2.77.85,1.47,10.86-3.56,11.65-2.22.47.8-3,2.85-6.65,7.76a30.63,30.63,0,0,0-5,8.87c-2,6-.16,8.25-2.77,13.31a16.6,16.6,0,0,1-3.88,5c-3.7,3.16-9,4.65-10,3.33-.54-.75.58-2,2.77-6.1s3.25-6.07,3.88-8.32c1.64-5.86-.05-12.49-1.11-16.64C246.35,622.74,245.65,621.16,246.57,619.65Z" transform="translate(-147 -285)"/><path class="cls-2" d="M201.65,530.36c10.54-2.77,21.63-1.66,30.5-.55a14.81,14.81,0,0,1,1.66,3.33,52.81,52.81,0,0,1,3.88,18.3c.81,16.08,1.11,24.13-.55,33.27-1.55,8.54-2.89,15.46-8.32,22.18a33,33,0,0,1-10,8.32c-6.84,3.67-14.06,4.3-14.42,3.33-.22-.6,2.37-1.38,3.88-4.44,1-2,1.34-4.54.55-5s-1.95,2.2-5.55,4.44a13.06,13.06,0,0,1-6.65,2.22c-1.51,0-4,.1-5.55-1.66a5,5,0,0,1-1.11-4.44,4.83,4.83,0,0,1,2.77-2.77,8.13,8.13,0,0,1,5.55,0c2.67.69,4.25,1.92,4.44,1.66s-2.6-1.88-3.88-5a9.82,9.82,0,0,1-.55-5c.52-4.64,3.89-8.81,7.76-11.09,2.94-1.73,4.72-1.53,5-2.77.47-2.19-4.86-3.72-8.32-8.32-2.71-3.61-3.09-7.54-3.33-13.31C198.62,543.64,198.22,533.92,201.65,530.36Z" transform="translate(-147 -285)"/><path class="cls-2" d="M216.62,611.33c-.74,2.34.62,3.25,0,6.1-1,4.59-5.45,6.44-5,7.21s5.37-.68,9.43-3.88a14.94,14.94,0,0,0,4.44-5c1.7-3.28,2.64-8.57.55-10C223.78,604.24,217.9,607.28,216.62,611.33Z" transform="translate(-147 -285)"/><path class="cls-2" d="M287.6,524.82c-3.06,2.22-1.53,9.27,1.66,23.29,4.13,18.13,4.55,19.51,5,23.85,1.27,12.38-.37,18.64-1.11,21.07-1.9,6.29-4.77,10.34-4.44,10.54s6.07-5.78,8.87-14.42c3.12-9.6,1.41-18.32,0-25.51-2.05-10.49-4-9.39-5-17.75-1.31-11.46,1.66-20.11-1.66-21.63A3.55,3.55,0,0,0,287.6,524.82Z" transform="translate(-147 -285)"/><path class="cls-2" d="M201.09,702.28c-.77-2.17,1.05-4.57,2.22-6.1a16,16,0,0,1,8.32-5.55c1.94-.57,3.29-1,5-.55,4.18,1,5.82,5.83,6.1,6.65.51,1.49,1.43,4.17,0,6.65a7.12,7.12,0,0,1-3.33,2.77c-6.25,3.09-13.06-.19-15-1.11C201.91,703.84,201.33,703,201.09,702.28Z" transform="translate(-147 -285)"/><path class="cls-2" d="M218.84,689.52c0-.48,2.36-1.09,4.44-1.11a9.4,9.4,0,0,1,10,7.76c.35,1.52.93,4-.55,6.1a5.62,5.62,0,0,1-3.88,2.22c-.25,0-2.47.18-3.33-1.11-.58-.87,0-1.65,0-3.33a10.75,10.75,0,0,0-1.66-5.55c-1-1.89-2-3.66-3.88-4.44C219.38,689.84,218.84,689.75,218.84,689.52Z" transform="translate(-147 -285)"/><path class="cls-2" d="M231.59,690.63c.12-.21,2.14.35,3.88,1.66,3.63,2.74,3.83,7.11,3.88,8.32a2.84,2.84,0,0,1-.55,2.22,3.2,3.2,0,0,1-2.77.55,1.9,1.9,0,0,1-1.11-.55c-.52-.63-.2-1.53,0-2.77a10.62,10.62,0,0,0,0-4.44,8.48,8.48,0,0,0-1.66-3.33C232.36,691.21,231.51,690.77,231.59,690.63Z" transform="translate(-147 -285)"/><path class="cls-2" d="M243.8,695.62c0-.28,0-1,2-2.77a12.51,12.51,0,0,1,4.1-2.77,10.16,10.16,0,0,1,6.66,0,10.05,10.05,0,0,1,5.63,3.88c.59.87,2.06,3,1.54,5.55a4.93,4.93,0,0,1-1.54,2.77c-1.25,1-2.71.87-5.12.55a22.06,22.06,0,0,1-7.17-2.22,33.44,33.44,0,0,1-4.1-2.77C244.34,696.74,243.84,696.28,243.8,695.62Z" transform="translate(-147 -285)"/><path class="cls-2" d="M259.33,689.52c.07-.35.84-.44,2-.55a12.18,12.18,0,0,1,3.46,0,8.79,8.79,0,0,1,3.46,1.11c2.51,1.53,3.49,4.24,4,5.55.62,1.73,1.14,3.18.49,4.44a3.9,3.9,0,0,1-5.93.55c-.53-.62-.47-1.08-1-3.33-.58-2.52-.88-3.79-1.48-4.44s-.81-.35-3-1.66C260.11,690.46,259.25,689.92,259.33,689.52Z" transform="translate(-147 -285)"/><path class="cls-2" d="M268.19,689c.15-.64,2.53-.56,2.77-.55a11.79,11.79,0,0,1,5.55,1.66,10.7,10.7,0,0,1,4.44,4.44,3.78,3.78,0,0,1,.55,2.77,3.12,3.12,0,0,1-2.77,2.22,3.75,3.75,0,0,1-2.77-1.66c-1.06-1.23-.69-1.76-1.66-3.33a12.81,12.81,0,0,0-3.33-3.33C269.17,689.79,268.09,689.41,268.19,689Z" transform="translate(-147 -285)"/><path class="cls-2" d="M181.74,668.45a34.17,34.17,0,0,0-.84,8.32c0,4.29.71,4.52.84,8.87a42,42,0,0,1-.84,11.65c-.42,1.74-1.09,3.88-.42,6.1a5.57,5.57,0,0,0,1.26,2.22,3.72,3.72,0,0,0,5.46,0c1.18-1.41.36-2.91,1.26-6.65a22.08,22.08,0,0,1,3.78-7.76c1.65-2.42,2.72-4,4.62-5a11.6,11.6,0,0,1,5.46-1.11c1.94,0,2.36.44,3.36,0,1.72-.76,2.59-3,3.36-5,3-7.8,4.45-11.69,4.2-12.75C202.34,667.89,191.83,666.78,181.74,668.45Z" transform="translate(-147 -285)"/><path class="cls-2" d="M246.57,661.79c2-1.19,3,.21,10,.55,7.43.36,10-1,11.09.55.4.59.51,1.51-4.44,11.09-2.23,4.31-5,9.43-5,9.43h0a69.75,69.75,0,0,0-10.54,1.66c-5.6,1.42-7.39,3.1-8.32,2.22-1.11-1.05,1-3.89,2.77-9.43C245.33,668.15,243.27,663.78,246.57,661.79Z" transform="translate(-147 -285)"/><path class="cls-2" d="M179.46,428.32c-2.25-.1-4.28,1.41-8.32,4.44a36,36,0,0,0-6.65,6.1,31.16,31.16,0,0,0-7.21,16.08c-.62,4.32-.24,7.75,0,7.76s.07-3.72,2.22-7.76a17.74,17.74,0,0,1,1.29-2.05c1.8-2.48,4-4.25,4.26-4s-1.48,1.75-2.77,4.44a16,16,0,0,0-1.66,7.21c0,2.2-.07,6.73,2.22,7.76s6-2,7.76-4.44c.64-.86,1.34-2,2.77-6.65.73-2.35.79-3,2.22-8.32,1.09-4.05,1.51-5.38,2.77-6.65,1.45-1.47,3.44-2.64,3.88-2.22s-1.43,2.15-3.33,6.1c-1.71,3.56-1.41,4.52-1.11,5,.69,1.08,2.38,1.1,2.77,1.11,3,0,5.14-2.67,6.1-3.88A11.28,11.28,0,0,0,187.78,435C187.27,434,184.23,428.53,179.46,428.32Z" transform="translate(-147 -285)"/><path class="cls-2" d="M165.6,440c-.61-.48-4.73,4.18-8.87,8.87a13.53,13.53,0,0,0-2.22,3.33A14,14,0,0,0,153.4,456c-.22,1.26-.44,2.55,0,2.77s1.23-.64,1.66-1.11c3.56-3.86,6.55-9.79,7.21-11.09C164.89,441.47,165.91,440.21,165.6,440Z" transform="translate(-147 -285)"/><path class="cls-5" d="M187.23,416.68c-.21-1,1.49-2,7.21-5.55,3.79-2.37,7.83-4.33,11.65-6.65a7.28,7.28,0,0,1,2.77-1.11A8.94,8.94,0,0,1,215,405c4.87,3.12,3.54,6.55,8.87,11.09,1.17,1,2.34,1.77,2.22,2.77-.18,1.48-3,2.16-5,2.77-11.07,3.46-15.77,11.66-19.41,9.43a7,7,0,0,1-1.11-1.11c-2.48-2.74-2.22-4.35-3.88-6.65a15.93,15.93,0,0,0-5.55-4.44C188.6,417.5,187.39,417.52,187.23,416.68Z" transform="translate(-147 -285)"/><path class="cls-5" d="M261.54,405c.53-1.41,8.62,1.42,17.75,2.22,5.6.49,14,1.23,22.74-2.22,10.18-4,15.26-6,16.64-7.21.31-.27,1.61-1.45,2.77-1.11a1.61,1.61,0,0,1,1.11,1.11c.27,1.33-2.09,2.86-2.77,3.33-3.12,2.13-5.41,5.67-10,12.75-1.29,2-1.94,3.46-5.55,15-4.76,15.21-6.14,20.65-7.21,20.52-1.52-.19,1.87-11.11-3.88-21.07-2.27-3.93-7.73-10.76-16.08-13.86-1-.39-10.59-3.87-15-8.32C261.89,405.93,261.39,405.42,261.54,405Z" transform="translate(-147 -285)"/><path class="cls-5" d="M401.84,497.64c1.6,1.27,4.34-2.5,11.09-3.33,3-.37,5.48,0,9.43.55s5.78.82,7.76,1.66c6.85,2.9,9.23,9.5,10.54,8.87,1-.5-.09-4.86-.55-6.65-.71-2.76-1.89-6-5-11.65-3-5.39-4.7-7.56-4.44-7.76s4.66,3.4,7.76,8.87c1.67,2.95,2.26,5.11,2.77,5,.69-.15,0-4.11,0-10.54,0-4.51.32-4.37.55-11.09.09-2.63.06-6.23,0-13.31-.09-9.75-.19-11.43-1.66-12.75-1.94-1.75-4.69-1.49-8.87-1.11a38.1,38.1,0,0,0-13.86,4.44c-4.13,2.16-7.55,3.94-10.54,7.76-3.72,4.76-5.21,10.67-4.44,11.09.43.24,1.33-1.4,3.88-3.88A35,35,0,0,1,419,456c2.43-.81,6.83-2,7.21-1.11s-4.88,3.11-11.09,9.43a57.21,57.21,0,0,0-6.65,8.32,32.66,32.66,0,0,0-3.88,7.21c-.44,1.2-.72,2.19-1.66,7.21C401.17,496.52,401.34,497.24,401.84,497.64Z" transform="translate(-147 -285)"/><path class="cls-5" d="M391.31,506.51c.18-.6,2.07-.16,6.65-.55a31.33,31.33,0,0,0,6.65-1.11c2.84-.84,2.82-1.38,4.44-1.66,2.7-.48,4.87.64,8.87,2.77a36.43,36.43,0,0,1,8.87,6.1,33.11,33.11,0,0,1,6.65,8.87,24.86,24.86,0,0,1,2.77,8.32,24.25,24.25,0,0,1-.55,8.87,23.24,23.24,0,0,1-1.76,4.21s-.24.43-.46.78c-2.22,3.56-32.79,4.75-33.27,0-.06-.58.39-.7,1.11-2.22,1.15-2.43,1.17-4.59,1.11-7.76-.13-6.49-.19-9.74-.55-11.65-.85-4.41-1.33-6.95-3.33-9.43C395.42,508.22,391,507.42,391.31,506.51Z" transform="translate(-147 -285)"/><path class="cls-5" d="M425.13,503.74a55,55,0,0,1,6.1,5,39.77,39.77,0,0,1,3.88,4.44c4.9,6.8,4.4,15,5,15s.89-3.46.55-6.65a20.4,20.4,0,0,0-2.77-8.32C433.54,506,425.3,503.48,425.13,503.74Z" transform="translate(-147 -285)"/><path class="cls-5" d="M411.82,498.75a24.88,24.88,0,0,1,9.43.55,28.45,28.45,0,0,1,10.54,5,30.67,30.67,0,0,1,5.55,5.55c3,3.74,4.18,6.77,4.44,6.65s-.57-3.78-2.77-7.21A23.22,23.22,0,0,0,429,501,31.89,31.89,0,0,0,411.82,498.75Z" transform="translate(-147 -285)"/><path class="cls-5" d="M407.39,446.62c.24.3,4-3,10.54-5.55a50.24,50.24,0,0,1,5.32-1.67,53.08,53.08,0,0,1,5.78-1.1c5.07-.72,8.12-1.11,11.09.55,2.52,1.41,3.6,3.53,3.88,3.33s-1-4.46-4.44-6.65c-2.71-1.73-5.54-1.49-9.43-1.11a34.14,34.14,0,0,0-12.75,3.88C411.11,441.69,407.13,446.29,407.39,446.62Z" transform="translate(-147 -285)"/><path class="cls-5" d="M318.1,487.11A60.5,60.5,0,0,1,322,481a44.77,44.77,0,0,1,8.32-8.32A59,59,0,0,1,340.84,466a51.65,51.65,0,0,1,10-3.88,56.86,56.86,0,0,1,9.43-1.66c4.52-.41,7.15-.11,7.21-.55s-3.64-1.69-7.21-2.22a31.4,31.4,0,0,0-15,1.11c-6.39,2.15-10.24,5.91-15,10.54a56.17,56.17,0,0,0-6.65,7.76A45.49,45.49,0,0,0,318.1,487.11Z" transform="translate(-147 -285)"/><path class="cls-5" d="M353.6,450.5c0,.05,5.31-1.43,12.2-3.33,12.59-3.47,12.39-3.32,16.08-4.44,6.07-1.83,10.7-3.46,16.64-5.55,10-3.53,8.52-3.4,12.2-4.44,4.33-1.22,8.32-3.68,12.75-4.44.45-.08,2-.33,2.22-1.11.14-.62-.67-1.3-1.11-1.66-1.31-1.11-2.11-.84-3.33-1.66-1.63-1.1-2.07-2.85-2.22-2.77a8.75,8.75,0,0,0,1.11,3.33c.42.86.69,1.23.55,1.66-.28.86-1.84,1.06-2.22,1.11-4.69.67-8.8,3.55-13.31,5-3.66,1.17-1.85.8-15.53,6.1-5.11,2-8.26,3.2-11.65,4.44C364.27,447.74,353.57,450.43,353.6,450.5Z" transform="translate(-147 -285)"/><path class="cls-5" d="M338.62,451.61c2.09-1.92,4.9-4.41,8.32-7.21,5.7-4.67,10.3-7.88,13.31-10,3.19-2.22,7.23-5,12.75-8.32,8.89-5.29,10.14-5,16.64-9.43,4.72-3.21,7.9-6,8.32-5.55s-1.91,3.24-3.88,5.55" transform="translate(-147 -285)"/><path class="cls-5" d="M324.2,441.63c-.21-.14-.78.92-2.22,1.66a8,8,0,0,1-5,.55c-2.48-.46-3.89-1.84-5-1.11a2.43,2.43,0,0,0-.55.55,3.38,3.38,0,0,0-.55,2.22,46,46,0,0,0,1.11,7.76c.69,2.8.18,1.95,1.11,6.65a70.63,70.63,0,0,0,2.22,8.87c1.11,3.38,2.55,6.73,2.77,6.65s-.84-3.15-2.22-8.87c-.62-2.57-1.15-6.34-2.22-13.86-.37-2.61-.72-5.31.55-6.1.59-.36,1,0,2.77,0a8.6,8.6,0,0,0,5-1.11C323.83,444.23,324.49,441.83,324.2,441.63Z" transform="translate(-147 -285)"/><path class="cls-5" d="M322.54,466c-.21,0,0-5.18,1.11-12.2C324.1,451,327.53,430,337.51,415a39.3,39.3,0,0,1,6.65-7.76,34.35,34.35,0,0,1,8.32-5.55c3.62-1.68,7.11-2.48,7.21-2.22s-2.58,1.18-6.1,3.33a52.3,52.3,0,0,0-6.65,5c-1,.91-5.17,4.7-10,12.75a85.51,85.51,0,0,0-7.21,15.53C323.91,452.47,322.89,466.08,322.54,466Z" transform="translate(-147 -285)"/><path class="cls-5" d="M324.76,436.64c-.33,0-1-4.73,0-10a40.48,40.48,0,0,1,1.66-5.55c.93-2.7,1.74-4.62,3.33-8.32,2.88-6.69,4.32-10,4.44-10a58.9,58.9,0,0,1-2.22,6.65c-3.27,8.85-4.3,9.56-5.55,13.86C324.21,431,325.12,436.64,324.76,436.64Z" transform="translate(-147 -285)"/><path class="cls-5" d="M313.67,480.45c-.81-.21-1.25,2.79-5,6.1-3.27,2.89-5.69,3-6.65,5.55-.77,2,0,3.86.55,5.55.65,2.06.43,7.11,0,17.19-.41,9.49-.61,14.24-1.11,17.75-1.2,8.47-2.6,11-1.66,15.53a29,29,0,0,1,1.11,8.32c-.08,2.28-.46,3.68,0,3.88.86.38,3.77-3.74,5.55-7.21,3.58-7,3.72-13.41,3.88-18.86.38-12.66,1-22.71,1.11-25C312.48,492.7,315.28,480.87,313.67,480.45Z" transform="translate(-147 -285)"/><path class="cls-13" d="M237.4,437.31c-2.29,6.22,15.6,18.22,20,29.27,1,2.54,2.29,4.5,4.88,8.42,1.88,2.86,2.76,3.81,4,4,2.55.38,4.95-2.78,6.21-4.43A27,27,0,0,0,277.3,463c2.16-11.25-1.64-16-3.55-20C267.35,429.75,240.13,429.88,237.4,437.31Z" transform="translate(-147 -285)"/><circle cx="177.53" cy="211.06" r="0.89"/><circle cx="179.52" cy="213.94" r="1.11"/><circle cx="174.42" cy="237.22" r="0.89"/><circle cx="176.2" cy="240.77" r="0.89"/><path class="cls-2" d="M359.56,498.28c-.19,0-1.5-2.88-.89-6.21a11.08,11.08,0,0,1,7.54-8.42,10.12,10.12,0,0,1,7.09.44,9.49,9.49,0,0,1,4.43,4.43c.32.73.61,1.69.44,1.77s-.88-1.52-2.22-2.66c-2.53-2.15-6.34-1.53-7.54-1.33a10.78,10.78,0,0,0-5.76,2.66,10.12,10.12,0,0,0-2.66,4A13.42,13.42,0,0,0,359.56,498.28Z" transform="translate(-147 -285)"/><path class="cls-2" d="M344.48,519.12a10.3,10.3,0,0,1,0-6.65,9.66,9.66,0,0,1,2.66-4,10.76,10.76,0,0,1,4.88-2.22,11.13,11.13,0,0,1,4.43-.44,27.43,27.43,0,0,0-4.43,1.33,12.85,12.85,0,0,0-4.43,3.1,9.16,9.16,0,0,0-2.66,4.88c-.36,2.53.82,4.72.44,4.88C345.25,520.05,345,519.89,344.48,519.12Z" transform="translate(-147 -285)"/><path class="cls-2" d="M344,538.63c-.56.18-.72,1.15-.89,2.22a9.81,9.81,0,0,0,0,3.1,6.34,6.34,0,0,0,.89,2.66c.54.83,1.25,1.4,1.33,1.33a8.54,8.54,0,0,1-1.33-2.66,4.79,4.79,0,0,1,.44-3.1,3.54,3.54,0,0,1,1.77-1.77,4.21,4.21,0,0,1,2.22,0,12.36,12.36,0,0,1-2.66-.89C344.76,539,344.48,538.49,344,538.63Z" transform="translate(-147 -285)"/><path class="cls-2" d="M349.8,524a8,8,0,0,1-1.77-.44c-1.1-.5-1.13-1.09-1.77-1.33-1.41-.52-3.77,1.46-4.88,3.55a8.15,8.15,0,0,0-.89,4,11.06,11.06,0,0,0,.89,4,9.65,9.65,0,0,0,1.33,2.66,18.63,18.63,0,0,1-1.33-4.43,8.92,8.92,0,0,1,.44-4.88c.13-.3,1.51-3.47,3.55-3.55.63,0,.76.27,2.22.44A6.22,6.22,0,0,0,349.8,524Z" transform="translate(-147 -285)"/><path class="cls-1" d="M330.26,334.47a9.6,9.6,0,0,1-2.88-2.93c-1.41-2.31-1.5-4.88-1.25-5s.34.68,1.24,1.48c.43.38,1.08.82,1.2.71s-.62-.93-1.07-1.87c-1.27-2.63,0-6.05.43-6,.16,0,0,.64.47,1.52a4.8,4.8,0,0,0,3,2.15c.79.21,1.33.35,1.55.11.6-.65-1.85-3.1-3.23-5.82-2.83-5.55-1.92-13.55,1.53-17.51a29.71,29.71,0,0,1,4.4-4.31c1.27-.91,2.14-1.29,2.76-2.48.9-1.71.42-3.42,1-3.54s1.13.9,1.45,1.66.27,1.3.46,1.33.76-.93.86-2c.14-1.56-.68-2.33-.35-2.69.49-.53,2.76.58,4.35,1.69s1.77,1.71,3,2.15a8.3,8.3,0,0,0,3.11.21,12.48,12.48,0,0,1,5.91,1.8c1.15.63,2.48,1.62,4.92,4.95,3.47,4.72,5.21,7.08,5.58,9.75.71,5.05-2.92,9.29-5.86,12.72-6,7-12.88,9-22.55,11.92C337,335.46,333.26,336.32,330.26,334.47Z" transform="translate(-147 -285)"/><path class="cls-2" d="M348.38,293.86c-.3.62,2,1.4,3.11,3.7,2.51,5.16-4.21,11.3-2.54,13.31,1.81,2.17,13.06-1,13.55-6.77.33-3.83-4.26-7-5.47-7.82C353.38,293.76,348.79,293,348.38,293.86Z" transform="translate(-147 -285)"/><path class="cls-1" d="M432.5,335.27c1.07.17,1.64.64,2.73.43.28-.05.77-.19,2.43-1.49.32-.26,2.77-2.18,2.57-2.47s-.81.39-2.1.51c-1,.09-1.94-.09-2-.28s1.38-.24,3-1.14c.9-.49,2-1.29,1.84-1.65s-1.23,0-2.93-.42c-.55-.15-1.56-.43-1.6-.88s1.3-.86,2.24-1.48c2-1.29,2.29-3.91,2.69-7.12a28.16,28.16,0,0,0-.58-10.23,25.39,25.39,0,0,0-2.92-7.19c-2.47-4.07-3.71-6.1-4.65-6.9a3,3,0,0,1-1.28-2.06c0-.69.46-.76.49-1.58a4.66,4.66,0,0,0-.91-2.46c-.11-.18-.2-.31-.39-.58-.6-.88-.91-1.32-1.07-1.27s.18.91-.29,1.76a4.19,4.19,0,0,1-.91,1c-.14.11-.25.19-.34.25-.31.21-1.16.78-1.35.62s.65-1,.83-2.37c.15-1.12-.19-2.27-.52-2.29s-.34,1.32-1.4,2.6a5.74,5.74,0,0,1-2.61,1.7,9.16,9.16,0,0,1-4.05.23c-3.23-.15-5.84,1.47-7.6,2.56a19.9,19.9,0,0,0-5.69,5.55c-1.55,2.19-1.36,2.79-2.69,3.83-1.9,1.5-3.3,1.05-5.07,2.8a5.62,5.62,0,0,0-1.77,3c-.25,1.47.39,2.35,1.24,4.77s.83,3.25,1.23,4.58c1.67,5.66,7.4,9.84,10.36,12a39,39,0,0,0,7.4,4.23c5.45,2.44,8.08,2.19,11,2.67C429.68,336.79,431,335.94,432.5,335.27Z" transform="translate(-147 -285)"/><path class="cls-2" d="M400.35,305.83c-.43.41-1.22,1.44-.89,4.88a21.42,21.42,0,0,0,2.66,8.42c1.82,3.06,5.32,7.31,6.65,6.65,1.16-.58-.71-4.24-.89-10.2-.07-2.26-.14-13.29,6.65-19.51,4.48-4.1,10.28-4.6,10.2-4.88-.17-.58-6.68-.93-12,2.66-2.25,1.53-6.35,5.17-8,8a8.11,8.11,0,0,1-2.22,2.66C401.51,305.3,401,305.24,400.35,305.83Z" transform="translate(-147 -285)"/><path class="cls-20" d="M310.89,372c.31-.17.82.83,2.21,1.42a6.23,6.23,0,0,0,3.88.17,10.27,10.27,0,0,0,5.23-3.39,18.8,18.8,0,0,0,4.25-7c.95-2.8.87-4.57,1.09-8.19a91.11,91.11,0,0,1,1.89-14.43,47.11,47.11,0,0,1,4-11.45A43.56,43.56,0,0,1,346,314.23,46,46,0,0,1,361,307c11.27-3.49,20.8-2.78,28.14-2.17A82.76,82.76,0,0,1,405,307.6c6.3,1.82,12,3.47,17.69,8.29a35.42,35.42,0,0,1,9,11.49c1.79,3.72,2.35,6.87,3.45,13.16,1.41,8,2.27,12.88,2.07,19.43a30.18,30.18,0,0,0,1.19,10.77,14.73,14.73,0,0,0,2.61,5.08,12,12,0,0,0,5.26,4c3.26,1.16,6,.22,6.25,1,0,.18,0,.46-1.83,1.85a47.4,47.4,0,0,1-4.28,3c-3.36,2.08-3.87,2.16-4.33,2.18-1.11,0-1.86-.34-2.32.13a2,2,0,0,0,.13,2.32c1.33,1.83,5.34.59,5.49,1.24.1.46-1.87,1.34-3.39,1.74a6.51,6.51,0,0,1-3.67.21c-1.15-.33-1.86-1-2-.86s.79.91,1.48,2.24,1,3.19.58,3.45-.85-.8-2.41-1.61c-1.24-.64-2.33-.73-4.5-.91-1.45-.12-2.18-.17-2.32.13-.23.51,1.22,1.79,2.66,2.56,2.11,1.13,3.94,1,3.95,1.33s-3,.73-3.44.78a19.83,19.83,0,0,1-5.8.13c-3.53-.6-5.2-2.46-5.91-1.8-.43.4.08,1.17.38,3.27.34,2.45.19,5.3-.47,5.45-.47.11-.68-1.29-2.07-2.4-2-1.62-5.32-1.63-5.84-.64-.37.71.62,2,1.31,2.64a10.06,10.06,0,0,0,2.6,1.4c0,.23-2.35.29-5.06-.49-2.46-.71-2.65-1.37-4.56-1.87-1.65-.44-2.71-.26-6.38.17-7,.82-6.09.51-7.7.82-3.17.62-3.63,1.21-9.68,3.45-5.12,1.9-7.68,2.84-10.46,3.3a35.72,35.72,0,0,1-10.05.18,35.22,35.22,0,0,1-7.85-1.88,33,33,0,0,1-5.17-2.42c-1.58-.93-1.86-1.29-6.47-4.86a46.37,46.37,0,0,0-6-4.3,16.86,16.86,0,0,0-4.17-1.89,13.19,13.19,0,0,0-7-.19c-1.89.51-2.9,1.33-3.24,1s.37-1.83,1.39-2.79c1.64-1.53,3.8-1.61,3.77-1.76s-2.77.69-5.81-.06a8.43,8.43,0,0,1-5-3.39c-.59-.95-1-2.11-.71-2.28s1.11,1.13,2.82,2c2,1,4.45.92,4.66.32s-1.47-1.64-2-2a10.24,10.24,0,0,0-3.17-1.37c-3.11-.71-5.27.34-5.42-.08s1.8-1.89,4.31-2.57c2.83-.77,5.15-.21,5.2-.49s-3.21-.41-6.14-2.56a13.76,13.76,0,0,1-4-5C311.25,375.05,310.39,372.23,310.89,372Z" transform="translate(-147 -285)"/><path class="cls-9" d="M328,370.21a8.35,8.35,0,0,1-2.9,3.45,11.15,11.15,0,0,1-5.72,1.48c-2,0-3.3-.42-3.48,0s1,1.31,1.65,1.84a11.2,11.2,0,0,0,4.59,2.45c3.41.71,5.67-1.29,6.37-.36.37.5-.07,1.51-1,3.54a6.37,6.37,0,0,1-1.41,2.4c-1.36,1.22-3,.91-3,1.33s2,1.35,4.14,1.31a16,16,0,0,0,4.21-.82c1.1-.36,1.59-.65,1.71-.48s-1,2-2.73,3.06c-1.41.89-2.47,1-2.44,1.3,0,.5,2.49.69,3.53.77a17.05,17.05,0,0,0,3.68,0c2.15-.26,3.11-.84,3.26-.57s-1.17,1.84-3,2.49c-.87.32-1.52.32-1.52.47s2,.16,4.31.92a20.61,20.61,0,0,1,5.2,3,24.3,24.3,0,0,1,3.1,2.31c.71.69,1.11,1.23,1.36,1.12.5-.22-.82-2.57.12-4.65.66-1.46,2.24-2.34,2.59-2.08s-.23.78-.28,2a6.41,6.41,0,0,0,1,3.24c.72,1.44,1.8,2.93,2.09,2.79s-.26-.89-.12-2.12c.15-1.39,1-2.69,1.4-2.6s-.09,1.7.6,3.84a8.47,8.47,0,0,0,2.53,3.73,9.73,9.73,0,0,0,4.76,2.05,42.8,42.8,0,0,0,11.65.7,54,54,0,0,0,10.33-2.13,54.94,54.94,0,0,0,9.68-3.45c3.38-1.62,3.7-2.26,6.21-3.06a19.18,19.18,0,0,1,8.27-.85c5.5.72,8.78,4,9.29,3.35.35-.45-1-2.29-2.52-3.54-2.12-1.72-4-1.81-4-2.29s3.33-1.18,6.92-.78c4.6.51,7.57,2.38,7.85,1.88s-1.22-1.67-2.66-2.56c-2.52-1.55-4.56-1.5-4.57-2.06s2.78-1.18,3.79-1.38a14.63,14.63,0,0,1,5-.28c1.9.26,2.12.73,3.73,1,2.77.38,5.2-.37,5.19-.68s-2,.18-3.92-.94c-2.45-1.44-3.64-4.86-2.84-5.65.48-.47,1.31.35,3.72.76a14.54,14.54,0,0,0,6.93-.59c1.7-.53,4.07-1.59,3.94-2.16s-2.06,0-4.86-.31a15.93,15.93,0,0,1-8.32-3.4,14.58,14.58,0,0,1-4-5.77c-1.44-3.36-1.41-5.92-1.59-10.94-.2-5.81-.33-9.7-.75-13.31-.52-4.48-1-9-3.3-13.94-2.33-5.14-5.29-8.13-10.64-13.53-5.54-5.6-8.31-8.4-12.35-9.56-5.1-1.47-7.74-5.31-11.67-4.37-3.4.81-5.08-.08-9.37,2.08-.3.15-6.91,1-9.75,2.1-.48.19-5.82,3.45-6.17,3.83-2,2.24-4.3,5.64-4.52,5.67-.87.14-.94-2.85-.48-5,.75-3.51,8.59-3.14,7.69-4.31-2-2.6-10.32.8-10.78,1A31.25,31.25,0,0,0,341,323.21a42,42,0,0,0-5.62,10.19,64.6,64.6,0,0,0-4.54,19C330.47,357.73,330.57,365.14,328,370.21Z" transform="translate(-147 -285)"/><path class="cls-21" d="M359.18,339.42c.14-.21,1.17,0,1.78.67s.58,1.9.69,1.9,0-1.44.4-3.12a8.39,8.39,0,0,1,1.56-3.19c.41-.52,1.23-1.4,1.48-1.24s-.41,1.22-.61,2.94.22,3.62.59,3.64.27-.94,1-2c1-1.39,2.79-2.11,3.19-1.73s-.43,1-.26,2.34c.09.64.43,1.72,1.07,1.87.84.2,1.35-1.37,3-2.49a8.24,8.24,0,0,1,5.36-1.08,13.39,13.39,0,0,1,6.32,2.16c2,1.17,7.24,4.52,14.28,12.94,2.9,3.47,3.95,5.23,4.49,7.49a13.48,13.48,0,0,1-.19,7,13.2,13.2,0,0,1-3.19,5.21c-2.22,2.23-4.74,3.16-4.86,3s1.71-1,2.16-2.83c.3-1.2,0-2.58-.54-2.68s-.63.6-1.81,2.23a12.92,12.92,0,0,1-2.17,2.64,6.38,6.38,0,0,1-4.2,1,15.49,15.49,0,0,1-7.88-2.46,16,16,0,0,1-5.7-4.9c-.71-1.05-1.22-2.14-1.47-2s-.13,1.78.57,3.26c1,2.07,2.63,3,2.5,3.15s-2.35-.91-4.59-2.45c-3.77-2.59-4.67-4.28-4.91-4.75-.71-1.42-.76-2.49-.91-2.46s-.46,2.79.87,5.18c.88,1.57,2,2.24,1.88,2.41s-2.49-.7-4-2.68c-.46-.59-.49-.82-.83-.92-1.3-.41-3.88,2.14-4.55,5.1-.19.85-.07,1-.31,1.37-1.6,2.43-10.12.47-10.36-1.74-.07-.6.53-.77,2.34-3a17.56,17.56,0,0,0,2.32-3.42,9.75,9.75,0,0,1-3.48,3.49A15.2,15.2,0,0,1,347,370.3a18,18,0,0,1-2.11.42c-1.08.15-1.29.07-2.11.2a17.49,17.49,0,0,0-2.48.72,11.67,11.67,0,0,1-3.25.76,4.5,4.5,0,0,1-2.16-.46,3.14,3.14,0,0,0,1.74-.1c.22-.09.59-.29.56-.42s-1.08.08-2.14-.27a4.18,4.18,0,0,1-2-1.63,6.27,6.27,0,0,1-1.15-3.23c-.09-.86-.2-3.22,1.73-7.07a30,30,0,0,1,4.85-6.66c1.5-1.71,1.18-2.63,3.52-4.55,1.55-1.28,4.24-7,7.85-8.38,2.24-.87,5.74,1.13,6.26,1.19,2.08.25,2.38,2.6,3.31,2a1.92,1.92,0,0,0,.67-1.78C359.93,340.12,359,339.63,359.18,339.42Z" transform="translate(-147 -285)"/><path class="cls-1" d="M368.28,353c0-.84.26-1.67,1.71-4a21.35,21.35,0,0,1,3.42-4.64,12.16,12.16,0,0,1,4.49-2.77c3.11-1,5.84-.19,8.16.51a22.26,22.26,0,0,1,9,5.3c2.39,2.33,5.85,5.7,5.83,10.7a11.69,11.69,0,0,1-3.23,7.92c-2.73,2.75-6.07,3.13-8.13,3.36a17.42,17.42,0,0,1-10.58-2.31,22.5,22.5,0,0,1-5.29-4.54,25.19,25.19,0,0,1-4.64-6.71A6,6,0,0,1,368.28,353Z" transform="translate(-147 -285)"/><path class="cls-1" d="M354.33,342.59a7.49,7.49,0,0,1,3.28,3.3,10.39,10.39,0,0,1,1.15,6.71,14,14,0,0,1-2.19,5.74,19.45,19.45,0,0,1-5.65,6.13,17.62,17.62,0,0,1-6,2.66,7.42,7.42,0,0,1-3.67.21,7,7,0,0,1-4-3.06,8.33,8.33,0,0,1-1.11-5.94c.17-1,.49-1.82,2.25-4.77a53.64,53.64,0,0,1,3.55-5.62C344.55,344.78,350.18,340.77,354.33,342.59Z" transform="translate(-147 -285)"/><path class="cls-7" d="M356.9,316.12c-1.37,0-2.26-4.08-2.39-4.7a10.32,10.32,0,0,1,3.82-11.25c4.73-4,11.59-4.32,12-3.19s-5,1.91-7.72,7.21c-.92,1.78-.95,2.9-3.22,8.12C358.15,315.15,357.59,316.14,356.9,316.12Z" transform="translate(-147 -285)"/><path class="cls-7" d="M358.73,317.76a15.5,15.5,0,0,1-2-7.24,16.77,16.77,0,0,1,2.24-8.26,19.37,19.37,0,0,1,6-7.31c4.17-3,8.47-3.21,12.2-3.4a25.18,25.18,0,0,1,12.5,2,35.23,35.23,0,0,1,7.65,5.18,60.59,60.59,0,0,0,5.09,4.36,21.48,21.48,0,0,0,5,3c.88.34,6.59,2.59,9.68,0,1.51-1.25,1.72-3.09,2-3s.32,3.64-1.78,6.1-5.72,2.81-8.93,3c-2.8.18-4.91-.19-8.76-.86-4.42-.77-4.05-1.09-7.05-1.54a34.85,34.85,0,0,0-12.37.31,28.07,28.07,0,0,0-5.7,1.87c-3.08,1.33-4.13,2.35-4.67,3a9.22,9.22,0,0,0-1.59,2.61" transform="translate(-147 -285)"/><path class="cls-7" d="M359.38,318.89c.25,0-.22-2.64,1-6.06a16.21,16.21,0,0,1,2.46-4.4,21.18,21.18,0,0,1,6.83-5.81,22.32,22.32,0,0,1,7.39-2.74,23.11,23.11,0,0,1,8.92.27,70.22,70.22,0,0,1,7.1,2.31c4.59,1.61,4.95,1.84,7.51,2.67,4,1.31,7.81,2.24,7.86,2.07a71.17,71.17,0,0,1-7.33-3.07c-4-2.14-4.33-3.31-8.27-5.92-3.1-2.05-7.2-4.77-12.89-5.47a19.72,19.72,0,0,0-10.19,1.16,18.21,18.21,0,0,0-9,7.87,19.06,19.06,0,0,0-2.1,7.28C357.93,314.42,359.06,318.9,359.38,318.89Z" transform="translate(-147 -285)"/><path class="cls-7" d="M360.67,317.85a29.18,29.18,0,0,1,2.1-4,21.12,21.12,0,0,1,4.38-4.7c3.5-2.64,7.37-3,10.65-3.31a40.91,40.91,0,0,1,15.39,1.84c3.35,1,5.29,2.05,9.44,2.56,3.52.43,6.57.24,6.58,0s-4.76,0-10.56-1.92S393,304.65,387.71,303a22.66,22.66,0,0,0-13.58-.59,19,19,0,0,0-9.34,5.95C361.18,312.66,360.52,317.79,360.67,317.85Z" transform="translate(-147 -285)"/><path class="cls-7" d="M365.37,315.26c.13.17,2.12-1.63,5.81-3.42a35.32,35.32,0,0,1,8.36-2.79,47.37,47.37,0,0,1,15.48-.1c2.6.47,3.4.91,5.5,1.43,4.57,1.12,10.12,1.32,10.29.58.24-1.09-10.82-5.64-22.19-5.71a30.46,30.46,0,0,0-10.56,1.56,30.13,30.13,0,0,0-6.21,3.06C368,312.26,365.21,315.06,365.37,315.26Z" transform="translate(-147 -285)"/><path class="cls-7" d="M370.44,315.94c.19.3,2-.43,5.7-1.87,4-1.56,4.79-2.11,6.81-2.71a25.62,25.62,0,0,1,7.11-1c6.6-.17,11.84,1.71,16.25,3.34,5,1.86,7.32,3.39,7.53,3.06.34-.54-5-5.78-12.49-8.59-2.41-.9-11-4.14-20.16-.6C374.66,310.12,370,315.28,370.44,315.94Z" transform="translate(-147 -285)"/><path class="cls-9" d="M377.73,355.31c.36-.52,1-.19,6.24.44a39,39,0,0,0,6.24.44,1.37,1.37,0,0,1,.83.44c.18.36-1.52,1.77-2.91,2.66a9.59,9.59,0,0,1-4.16,1.33,5.56,5.56,0,0,1-3.74-.44C378.28,359.07,377,356.32,377.73,355.31Z" transform="translate(-147 -285)"/><path class="cls-22" d="M347.14,390.08a11.58,11.58,0,0,0,1.33,2.22,10.68,10.68,0,0,0,3.1,2.66,13.82,13.82,0,0,0,6.21,1.77,20.78,20.78,0,0,0,9.76-1.77,16.26,16.26,0,0,0,6.21-4,29,29,0,0,0,2.22-2.66c1.14-1.43,2.54-2.79,2.22-4-1.45-5.37-31.91-2.63-32.37,1.77C345.71,387.11,347,389.88,347.14,390.08Z" transform="translate(-147 -285)"/><path class="cls-7" d="M343,377.45a6.85,6.85,0,0,0-1.39,3.1,7.32,7.32,0,0,0,1.39,5.32,9.61,9.61,0,0,0,3.71,3.1,12.49,12.49,0,0,0,4.64,1.33,13.26,13.26,0,0,0,4.64-.44,2.57,2.57,0,0,0,1.79-2c-.53.22,1.46,1.11,3.78,2.44a17.57,17.57,0,0,0,9.28,1.33,13.25,13.25,0,0,0,7.43-3.55,11.44,11.44,0,0,0,2.79-4.43c.41-1.23,1.27-3.77,0-6.21a6.29,6.29,0,0,0-1.39-1.77" transform="translate(-147 -285)"/><path class="cls-1" d="M353,373.44c-.52.72-.39,1.58,0,3.48a47.77,47.77,0,0,0,1.28,5.54c1.25,3.11,3.21,5.34,3.39,5.23s-1.57-2.18-2.46-5.86c-.52-2.17-1.36-5.65-.07-8.13.18-.34.53-.92.32-1.18S353.64,372.52,353,373.44Z" transform="translate(-147 -285)"/><path class="cls-1" d="M348.17,374.1a2.19,2.19,0,0,1-.1-1.74c1.22-3.21,10.27-1.48,10.76-1.38a4.12,4.12,0,0,1,2.6,1.4,2,2,0,0,1,.48,1.71c-.22.63-1,.89-1.49,1.05a17.59,17.59,0,0,1-6.16.54C349,375.27,348.39,374.53,348.17,374.1Z" transform="translate(-147 -285)"/><path class="cls-9" d="M349.29,371.62c.1-.34.79-.46,2.29-.52a32.53,32.53,0,0,1,4.46.14c2.11.23,3.7.4,3.72.76,0,.16-.3.35-1.32.66-.82.24-6.39,1.84-8.73-.28C349.56,372.23,349.21,371.9,349.29,371.62Z" transform="translate(-147 -285)"/><path class="cls-9" d="M343.62,356.1c.41-.7,1.68-.23,4.42-.37,3.37-.18,4.89-1.09,5.3-.45s-.64,2-1.54,2.8a5.48,5.48,0,0,1-2.58,1.11c-1.14.24-3.1.65-4.49-.51C343.95,358,343.23,356.78,343.62,356.1Z" transform="translate(-147 -285)"/><path class="cls-21" d="M383.06,377.22c-.38.45,1.4,1.64,1.77,4,.1.65.26,2.4-1.77,5.76-2.91,4.82-6.49,6.66-6.21,7.09s4.36-1.15,7.09-4a16.87,16.87,0,0,0,2.16-2.82,32.07,32.07,0,0,0,1.39-2.95c.15,0-1.88,5.51-1.33,5.76.37.17,2.1-1.86,2.66-4.43a7.43,7.43,0,0,0-.89-5.76C386.39,377.65,383.49,376.7,383.06,377.22Z" transform="translate(-147 -285)"/><path class="cls-21" d="M343.15,375c.2.49-3.15,1.25-4,4a7.34,7.34,0,0,0,.44,4.43c.77,2.31,1.95,3.4,1.77,3.55s-3-1.46-4-4.43c-.22-.63-1.24-3.58.44-5.76S343,374.54,343.15,375Z" transform="translate(-147 -285)"/><path class="cls-1" d="M299.64,387.63c1.06.35,1.55.88,2.7.89a6.72,6.72,0,0,0,2.73-.89c.38-.17,3.2-1.46,3-1.75s-.89.2-2.22.07c-1-.1-2-.44-1.93-.61s1.44,0,3.28-.46c1-.27,2.24-.8,2.16-1.15s-1.26-.18-2.9-.92c-.53-.24-1.51-.67-1.47-1.09s1.47-.54,2.54-.92c2.23-.8,3-3.1,4-5.92a23,23,0,0,0,1.22-9.33,21.57,21.57,0,0,0-1.7-7c-1.79-4.13-2.69-6.19-3.5-7.08-.29-.32-1.12-1.18-.93-2.09.13-.62.6-.6.78-1.33a4,4,0,0,0-.49-2.39c-.08-.18-.15-.32-.29-.6-.46-.91-.69-1.36-.87-1.34s0,.86-.6,1.53a4.15,4.15,0,0,1-1.11.75l-.39.16c-.35.13-1.32.49-1.48.31s.84-.78,1.27-2c.35-1,.21-2.08-.12-2.16s-.57,1.12-1.88,2.08a6.18,6.18,0,0,1-3,1,10.62,10.62,0,0,1-4.16-.54,15,15,0,0,0-8.17.9,20,20,0,0,0-6.76,3.95c-2,1.68-1.88,2.26-3.41,3-2.2,1-3.54.34-5.64,1.59a5.2,5.2,0,0,0-2.33,2.38c-.52,1.28.31,2.43,2.39,3.58C274.6,362.52,292.52,373.57,299.64,387.63Z" transform="translate(-147 -285)"/><path class="cls-20" d="M279.75,354.68a84.6,84.6,0,0,1,10.51,7c9.48,8,12.14,20.3,13,24.3a72.58,72.58,0,0,1,1.28,9c.33,4,.49,6,.22,8.11a29.77,29.77,0,0,0-.56,6.89,9.48,9.48,0,0,0,2.62,6.22A7.17,7.17,0,0,0,309,417.9a6.15,6.15,0,0,0,2.68.69c2.51,0,4-1.81,4.4-1.45.07.07.19.33-1.62,3.1a25.47,25.47,0,0,1-2.55,3.52,14.54,14.54,0,0,1-3,2.59c-2.3,1.47-4,1.53-4,2.05s1.64.95,3,1c1.86,0,3-.68,3.22-.34s-.56,1.66-1.69,2.46c-1.52,1.07-3.12,1-3.11,1.31s.68.39,2,.76A11.2,11.2,0,0,1,310,434c1.13.52,2,1.53,1.81,1.76s-.74-.33-2-.44a22,22,0,0,0-2.89.31c-1.06.07-1.57,0-1.61.17s1.12.72,1.39.83a4.73,4.73,0,0,0,2,.44c.6,0,.93-.18,1-.1a4.47,4.47,0,0,1-2.15,1.21,8.1,8.1,0,0,1-3.89.09,15.2,15.2,0,0,1-3.35-.94c-3.78-1.51-6-3.52-6.2-3.24s.68.84,1.56,2.43A15.43,15.43,0,0,1,297,440a16,16,0,0,1,.67,3.18c.24,2.68-.38,5.29-.74,5.28-.17,0-.12-.59-.49-1.57a7.58,7.58,0,0,0-2.63-3.3,9.31,9.31,0,0,0-2.74-1.33c-.87-.32-1.19-.33-1.32-.18s.15.82.49,1.57a19,19,0,0,1,1.09,4.11c.2,1,.57,2.81.31,2.89s-.67-1.2-1.56-2.43c-1.46-2-3.55-3.46-3.92-3.16-.12.1,0,.32.1,1a7.14,7.14,0,0,1-.08,2.29,6.78,6.78,0,0,1-1.3,3.07,6.14,6.14,0,0,1-4,2.38c0-.06.83-.3,1.18-1.1.47-1.08-.35-2.4-.63-2.86-.95-1.53-2.57-2.55-2.85-2.3-.1.08,0,.25.07.64a3.44,3.44,0,0,1-1,2.39,9.1,9.1,0,0,1-1.79,1.49,11.85,11.85,0,0,1-2.43,1.56c-1.23.32-2.29-.11-3.54.38a1.63,1.63,0,0,0-.61.39,2.42,2.42,0,0,0-.51,1.35c-.11.57-.34,1.11-.47,1.68-.48,2-2.24,5-2.73,4.85-.16-.06,0-.42-.14-1.29a8.23,8.23,0,0,0-1.34-3.43c-.61-1-1.36-1.87-1.49-1.79a12.13,12.13,0,0,1,.53,1.89,7.37,7.37,0,0,1-.4,2.32c-.51,2.11-.6,2.35-.72,2.35s-.25-1-.92-2.5a8.36,8.36,0,0,0-1.92-2.72c-.33-.31-1.09-1-1.39-.83s-.06,1,.17,1.61c.49,1.18,1.29,1.49,1.17,1.83s-1.7.43-2.93,0a4.14,4.14,0,0,1-2.49-2c-.4-.93-.14-1.75-.53-1.89s-.76.37-1.22.78a7.88,7.88,0,0,1-3.72,1.7,8.35,8.35,0,0,1-4.6-.48c-3-.94-5-2.81-4.88-3.06s.52.16,1-.1a1.29,1.29,0,0,0,.54-1,2.2,2.2,0,0,0-.82-1.54c-.32-.34-.49-.52-.71-.57-1.06-.27-2.32,1.74-2.4,1.88a4.09,4.09,0,0,0-.72,2.35c.05,1.15.69,1.75.53,1.89s-2-1.22-3.24-2.91a5,5,0,0,1-1.24-2.47c-.11-1.1.37-1.79.12-2s-1.59.74-2.4,1.88a6.08,6.08,0,0,0-1.16,4.35c.17,1,.59,1.52.49,1.57s-1.5-1.55-2.34-3.65a6.81,6.81,0,0,1-.73-3.82c.23-1.39,1-2,.72-2.35-.48-.65-3.11-.12-4.72,1.48a5.92,5.92,0,0,0-1.62,3.1c-.18,1.11.07,1.92-.12,2s-1-1.3-1.27-2.79a9.36,9.36,0,0,1-.06-3.57c.42-2.45,1.55-3.73,1.2-4s-1.11.51-2.47,1.24a16.88,16.88,0,0,1-11.25,1.2c-1.42-.41-2.81-1.09-2.74-1.33s.74,0,1.61-.17c1.7-.42,2.92-2.16,2.65-2.56s-1.15.41-2.89.31c-1.33-.07-2.73-.6-2.71-1,0-.22.84-.45,2.5-.92,2.56-.71,3.4-.95,4-1.73.16-.19.73-.89.51-1.35s-1.46-.45-3.61-.26a11.59,11.59,0,0,0-4.15.77c-1.57.76-2.13,1.76-2.43,1.56s.2-2.2,1.23-3.71a9.88,9.88,0,0,1,2.65-2.56,23.6,23.6,0,0,1,3.4-1.66c-.06-.25-3-.28-6.07,1s-4.77,3.23-5.23,2.84.38-1.67,1.8-4.42a12.64,12.64,0,0,1,2.23-3.49c1.32-1.29,2.47-1.53,2.4-1.88-.14-.74-4.41-.5-6.53-.28-3,.32-4.76.5-6.65,1.69-.7.44-1.36,1-1.54.82s.91-2.15,1.91-3.46c2.69-3.52,5.75-5.23,5.59-5.48s-1.49.86-3.76,1.38a9.6,9.6,0,0,1-5.21-.09c-2.34-.77-4.05-2.53-3.88-2.84s.69.2,1.64.15a4.76,4.76,0,0,0,2.79-1.27,26,26,0,0,0,5.49-6.44,35.76,35.76,0,0,0,3.89-9.2c1.19-4.5.51-5.24,1.37-11.53a58.32,58.32,0,0,1,3.13-13.34,38.75,38.75,0,0,1,5.69-10.69,37.29,37.29,0,0,1,7.06-6.93c7.9-6.18,18.22-10.28,25.51-10.86a56.83,56.83,0,0,0,8-1.18,24.38,24.38,0,0,0,5.36-1.55,14.76,14.76,0,0,0,4.58-2.77c2.67-2.5,3.15-5.42,3.66-5.27s.16,2.65-.2,4.25a8.44,8.44,0,0,1-1.26,3.39c-1.38,1.92-3.4,2.28-3.3,2.63s3.89-.25,5.79-.62A31.34,31.34,0,0,0,267,345c1.36-.6,2.26-1.19,2.5-.92s-.56,1.76-1.65,2.78c-1.6,1.49-3,1.47-3,2,0,.84,4.4.88,9.42,2.9A38,38,0,0,1,279.75,354.68Z" transform="translate(-147 -285)"/><path class="cls-9" d="M277.75,425.62c.58-.41,1.38.47,4.06,1.52,3,1.16,5.89,1.6,6,1.31S285,426.91,285,426.8a29.15,29.15,0,0,0,5.39,1.7,14.13,14.13,0,0,0,5.53.06c2.6-.54,4.17-1.77,4.4-1.45s-.81,1.37-1.72,2.14a12,12,0,0,1-5.58,2.55c-4.32.71-8.17-.91-8.21-.75s2.79.42,4.17,2.48c.7,1,.9,2.37.6,2.54s-.9-1.07-2.49-2c-1.22-.72-1.74-.51-4-1.2-2-.59-3-.89-3.74-1.55C277.37,429.63,276.82,426.28,277.75,425.62Z" transform="translate(-147 -285)"/><path class="cls-9" d="M262.65,352.93c-.15.2.86,1.28,1.85,2.08,1.44,1.16,2.52,1.44,2.46,1.69s-2.31.17-4.25-.2a20.91,20.91,0,0,1-6.06-2c-1.69-.87-2.93-1.82-3.1-1.62s1.51,1.61,1.21,2.15-2.83.14-5-1.09c-3.07-1.75-4.15-4.38-5-4-.55.24-.52,1.57-.4,2.32.4,2.6,2.72,3.66,2.41,4.3s-3.83.33-7-1.21c-2.16-1.06-3.19-2.19-5.45-2.34a8.24,8.24,0,0,0-2.57.28,18.51,18.51,0,0,0-9.23,4.89c-.85.88-2.72,3-4.32,8.27-3.31,10.89-2,23.9-.51,28.67a12.39,12.39,0,0,1,.58,5.47,16.25,16.25,0,0,1-4,8.23c-2.93,2.67-6.88,2.35-6.83,3,0,.48,2.18.71,2.35.72,2.3.23,3.66-.49,3.89-.09s-1.08,1.26-2.3,2.85c-1.49,1.95-1.94,3.85-2.56,6.45-.13.56-1.25,5.23-.38,5.57.45.18.94-1,2.69-2.24s4.12-1.88,4.4-1.45-.66.75-1.4,2.1c-.83,1.51-.5,2.26-1.09,5-.52,2.39-1.15,3.55-.91,3.67s1.12-1.48,3.19-3.59a12.1,12.1,0,0,1,4.23-3.05c1.15-.46,2.88-.88,3.22-.34.17.27-.14.62-.76,2s-.94,2.16-.72,2.35,1.41-.91,3.36-2a19.27,19.27,0,0,1,6.29-2c2.05-.37,2.83-.26,3.86-.41,4.81-.69,10.42-6.21,10.19-11.17-.21-4.49-5.07-5.92-4.32-9.95.48-2.56,2.88-4.23,3.41-4.59,1.75-1.21,2.5-.75,6.61-2a43.76,43.76,0,0,0,6.55-2.65c3.43-1.61,4-2.23,4.26-2.73,1.41-2.3.18-5.14.74-5.28s1.49,2,2,3.36a8.84,8.84,0,0,1,.53,1.89A7.29,7.29,0,0,1,264,399c-1.39,2.23-4,2.55-3.9,3s1.8.23,2.93,0a7.91,7.91,0,0,0,4.65-2.12,8.33,8.33,0,0,0,1.87-3.78c.28-1.16.25-2,.44-2s.71,1.38.63,2.86a10.29,10.29,0,0,1-.94,3.35c-.57,1.4-.94,1.85-.76,2s1.82-.37,2.76-1.6.51-1.72,1.2-4a16.87,16.87,0,0,1,1.84-4.1c1.07-1.7,2.4-3,2.62-2.88s-1.16,1.74-1.48,4.39a7.59,7.59,0,0,0,.41,3.86,7.42,7.42,0,0,0,2.27,3c1.28,1,1.81.84,5.45,2.34a15.48,15.48,0,0,1,4.13,2.16,13.35,13.35,0,0,1,2.2,2.37,18.55,18.55,0,0,1,2.77,4.58c.92,2.28.36,2.47,1.16,4.75a11.63,11.63,0,0,0,3.51,5.48c2.67,2.14,6,2.2,6.06,2s-2.07-.59-3.52-2.55c-1-1.29-1.35-2.91-1-3.15s.88.79,2.42,1.37a7,7,0,0,0,3.28.3c.19,0,3.09-.29,3.15-1s-2.23-.6-4.13-2.16-2.3-3.54-3-6.51c-.61-2.68-.47-3.64-.89-8.36-.43-4.88,1.07-8,.47-9.32-2-4.52-2.14-3.8-1.77-4.36s1.19,1.16,1.39.83-.41-11.07-2.7-13c-.89-.77-6.4-14.27-13.92-10.06.36-2.56,2.82-4.26,2-5.42-.63-.9-2.5-.71-2.68-.69-1.34.15-1.45,1.18-2.47,1.24s-1.9-.86-3.17-2.26a7.66,7.66,0,0,1-2-3c-.32-1.08-.22-1.82-.53-1.89s-1.09.81-1.11,1.75c0,1.36,1.43,2.18,1.24,2.47s-2.79-.78-5.1-2.06c-1.32-.73-2.48-1.47-4.85-2.73C263.28,353,262.75,352.8,262.65,352.93Z" transform="translate(-147 -285)"/><path class="cls-23" d="M273.42,401.86a3.36,3.36,0,0,1-.44,2,4.82,4.82,0,0,1-2.11,1.53,8.4,8.4,0,0,1-1.25.46c-.43.12-4.18,1.2-4.5.48-.15-.34.61-.7,1.4-2.1.38-.67,1-2.08.72-2.35s-1.77,1.27-4.26,2.73c-3,1.77-6.32,2.55-6.61,2-.13-.24.42-.56,1.11-1.75s1.23-2.89,1-3-1.13,1.58-3.23,3.27a15.1,15.1,0,0,1-3.36,2,28.72,28.72,0,0,1-6.29,2c-4.36,1-4.38.67-7.33,1.43a38.8,38.8,0,0,0-6.58,2.33c-4.08,1.88-5.35,3.36-5.77,3.87a12.15,12.15,0,0,0-1.65,2.78,9,9,0,0,0-.91,3.67,8.69,8.69,0,0,0,.67,3.18,15.48,15.48,0,0,0,2.41,4.3,23.93,23.93,0,0,0,3.95,4c.59.51,1.66,1.42,1.82,1.28s-.65-.92-1.24-2.47a4.08,4.08,0,0,1-.31-2.89c.09-.26.35-1,.86-1.07.78-.15,1.92,1.16,1.88,2.4a2.3,2.3,0,0,1-.51,1.35c-.42.51-.93.59-.9.75s1,.22,2,.12a10.87,10.87,0,0,0,2.54-.6,22.85,22.85,0,0,0,4.62-2.45,20,20,0,0,0,3-2.27c1.2-1.13,1.76-2,2.08-1.85s.25,1.15-.12,2c-.71,1.56-2.43,2.05-2.37,2.2s1.8-.29,4.08-1.41a33,33,0,0,0,4-2.38c2.56-1.69,3.85-2.54,4.51-3.41,1.67-2.18,1.42-4.11,2.16-4.13s2.1,2.57,1.84,5c-.09.87-.3,1-.18,1.32.88,2.73,15.15.95,15.22-.65,0-.41-.93-.46-1.81-1.76a6.68,6.68,0,0,1-1-2.83,7.61,7.61,0,0,1,0-3.25c.19-.82.58-1.75.79-1.71s0,1.18.28,2.57a7.94,7.94,0,0,0,1.66,3.4,11.58,11.58,0,0,0,4.24,3.12c2.51,1.34,4.66,1.95,4.74,1.77s-1-.53-1.81-1.76c-.35-.57-.7-1.42-.49-1.57s1.58,2,4.24,3.12c1.67.71,3.26.69,5.93.67a6.75,6.75,0,0,0,2.57-.28,4.56,4.56,0,0,1-2.68-.69c-.09-.07-1-.8-.82-1.54.19-.93,1.86-1.26,2.79-1.27.35,0,2.09,0,2.71,1s-.43,2.3,0,2.61c.59.47,4.24-1.6,5.31-5.12a9.46,9.46,0,0,0-.26-5.5A8.56,8.56,0,0,0,300,413c-1.22-1.43-2.66-2-4.85-2.73-2.59-.92-3-.62-6.35-1.6-2.86-.83-2.31-1-5.06-1.73s-4-.83-5.74-2a8.1,8.1,0,0,1-2.17-2c-2.13-3-1.21-7-1.4-7A15,15,0,0,0,273.42,401.86Z" transform="translate(-147 -285)"/><path class="cls-1" d="M258.54,405.73c.54.18.82,1,.82,1.54,0,.4-.14.67-.79,1.71-.93,1.48-1,1.41-1.11,1.75-.41.86-.23,1.29-.33,3a18,18,0,0,1-.59,3.64,11.68,11.68,0,0,1-1.3,3.07,11.49,11.49,0,0,1-3.23,3.27c-3.49,2.42-7.53,2.81-10.08,3a29.13,29.13,0,0,1-9.5-.61c-4.68-1.17-5.84-2.86-6.23-3.56a4.24,4.24,0,0,1-.6-2.54c.2-1.8,1.75-2.92,3.16-3.92a19.38,19.38,0,0,1,5.58-2.55c2.72-.87,3.13-.68,7.29-1.76,1.06-.27,2.94-.77,5.36-1.55,3.34-1.08,3.36-1.31,5.65-1.91a11.19,11.19,0,0,0,3.15-1C257.25,406.49,257.84,405.49,258.54,405.73Z" transform="translate(-147 -285)"/><path class="cls-1" d="M279.73,403.13c.29-.06.63,0,2.1,1.4,2,1.87,2.38,2.63,3.63,3.51a10.77,10.77,0,0,0,2.74,1.33,34,34,0,0,0,5.67,1.34c2.27.44,3,.56,4,1.2a3.81,3.81,0,0,1,1.85,2.08,3.71,3.71,0,0,1-.37,2.64c-1.21,2.59-4.09,3.66-6.66,4.61a14.94,14.94,0,0,1-4.75,1.16,15.73,15.73,0,0,1-6-1,8.83,8.83,0,0,1-3.78-1.87,5.57,5.57,0,0,1-1.56-2.43c-.36-1.22-.14-2.22.23-3.93s.67-1.8.94-3.35,0-1.77.3-3.28C278.36,405.4,278.74,403.35,279.73,403.13Z" transform="translate(-147 -285)"/><path class="cls-1" d="M276.95,428.8a2,2,0,0,0-.14-1.29c-.79-1.58-4.24-1.37-7-1.21-2.26.14-3.94.68-7.29,1.76-.69.22-1.82.61-2.11,1.53a1.75,1.75,0,0,0,.14,1.29c.21.37.63.72,2.39,1a17.67,17.67,0,0,0,3.28.3,28.39,28.39,0,0,0,5.47-.58,12.3,12.3,0,0,0,3.15-1C276.62,429.79,276.88,429.08,276.95,428.8Z" transform="translate(-147 -285)"/><path class="cls-1" d="M270.3,430.49a3.78,3.78,0,0,1-.4,2.32,8.76,8.76,0,0,1-.79,1.71c-1.36,2.22-3.73,3.51-3.87,3.34a12.92,12.92,0,0,0,2.3-2.85,6.67,6.67,0,0,0,.8-4.64c-.25-.93-.68-1.39-.49-1.57S269.92,429.21,270.3,430.49Z" transform="translate(-147 -285)"/><path class="cls-9" d="M256.86,424.93c-.58-.12-.79,1.11-2.62,2.88s-3.56,2.48-6.12,3.58c-3.14,1.35-2.88.61-5.22,1.73-.25.12-.9.44-1.08.24-.36-.4,1.58-2.49,1.33-2.74s-1.27.77-3,2c-1,.68-1,.57-4.58,2.77-1.54.94-2.2,1.35-2.69,2.24s-.58,1.73-.79,1.71,0-.91-.53-1.89a6.85,6.85,0,0,0-2.17-2c-.29-.22-.28-.19-.8-.57a21.53,21.53,0,0,0-2.37-1.7c-.12.12,2,1.47,2.34,3.65a5.75,5.75,0,0,1-1.2,4c-1.73,2.5-4.58,3.26-4.51,3.41a53,53,0,0,0,5.68-1.58c1.2-.35,2-.56,2.25-.24.33.48-1,1.53-1.59,3.42-.47,1.66-.36,3.46.06,3.57s.83-1.72,2.52-3.85a16.5,16.5,0,0,1,4.48-3.73c2.76-1.77,5.46-2.77,5.58-2.55s-1,.57-1.76,1.81-1,3.14-.62,3.32,1.16-1.87,3.48-3.95c1.41-1.26,3-2,6.12-3.58a17.13,17.13,0,0,0,4.58-2.77c.31-.28.84-.79.9-.75s-2.88,3.14-2.55,3.52,3-.8,4.55-3.09C258.88,430.3,258,425.17,256.86,424.93Z" transform="translate(-147 -285)"/><path class="cls-9" d="M274.68,426.74a.32.32,0,0,1-.11.58c-9.81,1.8-12.32,1.93-12.41,1.59s1.25-1.51,4.62-2.45c1.74-.48,5.54-.75,7.14-.11A5.14,5.14,0,0,1,274.68,426.74Z" transform="translate(-147 -285)"/><path class="cls-9" d="M240.21,417.51a2.49,2.49,0,0,0,.22,2.47c.93,1.32,3,1.28,4.56,1.26a12.81,12.81,0,0,0,6.07-1.78c.28-.15,1.43-1.13,1.18-1.76s.15-.88-3.27-1.79a20.75,20.75,0,0,0-4.49-.43C244.09,415.45,241.08,415.74,240.21,417.51Z" transform="translate(-147 -285)"/><path class="cls-9" d="M279.67,414.23a2.63,2.63,0,0,0,0,2.28c.64,1.28,2.27,1.42,3.47,1.52a8.8,8.8,0,0,0,4.86-1.14c.22-.11,1.2-.92,1-1.52s.18-.8-2.43-1.9a14.11,14.11,0,0,0-3.47-.76C282.84,412.66,280.47,412.68,279.67,414.23Z" transform="translate(-147 -285)"/><path class="cls-4" d="M256.91,443.52a13.31,13.31,0,0,1,3.55-3.55,14.33,14.33,0,0,1,6.21-2.22,5.78,5.78,0,0,1,2.66,0,5.39,5.39,0,0,1,2.66,1.77" transform="translate(-147 -285)"/><path class="cls-9" d="M261.56,443.29c.66-.94,1.92-1.07,4.43-1.33,2.72-.28,4.08-.42,4.88.44,1.06,1.14.64,3.22,0,4.43a5.46,5.46,0,0,1-4,2.66c-.32,0-3.28.41-4.88-1.77C261.13,446.53,260.67,444.57,261.56,443.29Z" transform="translate(-147 -285)"/><path class="cls-1" d="M208.87,383.19c-1.06.35-1.55.88-2.7.89a6.72,6.72,0,0,1-2.73-.89c-.38-.17-3.2-1.46-3-1.75s.89.2,2.22.07c1-.1,2-.44,1.93-.61s-1.44,0-3.28-.46c-1-.27-2.24-.8-2.16-1.15s1.26-.18,2.9-.92c.53-.24,1.51-.67,1.47-1.09s-1.47-.54-2.54-.92c-2.23-.8-3-3.1-4-5.92a23,23,0,0,1-1.22-9.33,21.57,21.57,0,0,1,1.7-7c1.79-4.13,2.69-6.19,3.5-7.08.29-.32,1.12-1.18.93-2.09-.13-.62-.6-.6-.78-1.33a4,4,0,0,1,.49-2.39c.08-.18.15-.32.29-.6.46-.91.69-1.36.87-1.34s0,.86.6,1.53a4.15,4.15,0,0,0,1.11.75l.39.16c.35.13,1.32.49,1.48.31s-.84-.78-1.27-2c-.35-1-.21-2.08.12-2.16s.57,1.12,1.88,2.08a6.18,6.18,0,0,0,3,1,10.62,10.62,0,0,0,4.16-.54,15,15,0,0,1,8.17.9,20,20,0,0,1,6.76,3.95c2,1.68,1.88,2.26,3.41,3,2.2,1,3.54.34,5.64,1.59a5.2,5.2,0,0,1,2.33,2.38c.52,1.28-.31,2.43-2.39,3.58C233.91,358.08,216,369.13,208.87,383.19Z" transform="translate(-147 -285)"/></svg>