<svg xmlns="http://www.w3.org/2000/svg" viewBox="0 0 105.57 97.64"><defs><style>.cls-1{fill:#0091b5;}.cls-2{fill:#ed3a4f;}.cls-3{fill:#fdb913;}.cls-4{fill:#69c400;}</style></defs><title>2</title><g id="Слой_2" data-name="Слой 2"><g id="Слой_1-2" data-name="Слой 1"><g id="Слой_2-2" data-name="Слой 2"><g id="Layer_1" data-name="Layer 1"><polygon class="cls-1" points="66.03 76.29 72.09 71.15 64.61 68.46 66.03 76.29"/><polygon class="cls-1" points="53.73 49.18 49.13 51.56 53.48 54.35 53.73 49.18"/><polygon class="cls-1" points="50.88 33.33 60.84 36.15 58.3 26.12 50.88 33.33"/><polygon class="cls-2" points="57.33 69.89 52.81 63.54 49.57 70.63 57.33 69.89"/><polygon class="cls-2" points="72.98 42.01 69.18 37 66.74 42.8 72.98 42.01"/><polygon class="cls-2" points="65.04 91.59 57.28 90.25 60 97.64 65.04 91.59"/><polygon class="cls-3" points="103.73 18.67 105.57 13.5 100.17 14.49 103.73 18.67"/><polygon class="cls-3" points="73.21 25.26 63.56 23.01 66.43 32.48 73.21 25.26"/><polygon class="cls-3" points="73.05 55.16 79.2 49.93 71.61 47.22 73.05 55.16"/><polygon class="cls-3" points="89.2 80.67 80.7 83.19 87.14 89.29 89.2 80.67"/><polygon class="cls-3" points="39.22 80.41 44.82 85.67 46.57 78.19 39.22 80.41"/><polygon class="cls-3" points="89.23 53.55 95.2 49.24 88.48 46.23 89.23 53.55"/><path class="cls-1" d="M85.24,0a13.72,13.72,0,0,1,5.48,3.93,5.8,5.8,0,0,1,1.09,4.12c0,3.94-5.31,4.41-5.59,8V14.32c.18,3.44,4.38,4,6.3,6.12.61.68,1.31,2.57.51,3.38S91,25,90.26,25.91c-1.12,1.26-.66,1.9-.38,3.46a10.39,10.39,0,0,1-.23,4.9c.18-.52-.18-1.23,0-1.76.59-1.71-.24-3.85-.22-5.72a4.31,4.31,0,0,1,1.19-3c.5-.56,2.58-1.34,2.63-2.11v1.73C92.58,21,89.41,20.35,87.71,19c-1.38-1.11-1.51-2.62-1.5-4.22,0-3.76,5.5-4.28,5.59-8.12q0,.87,0,1.73C91.49,5.16,88,3,85.24,1.88c-.22-.09.19-1.68,0-1.76Z"/><path class="cls-3" d="M39.23,28.7c2.63.55,5.16,2.46,7.25,4.06s3.32,2.93,3.32,5.43-.19,3.94-2.08,5.68C45.39,46,42,47.42,42,51V48.26c.42,3.43,5.36,3.8,5.42,7.16a23.9,23.9,0,0,1,0,3.29c-.33,2.72-3.59,3.22-3.69,6.22V62a10.73,10.73,0,0,0,2.73,5.41c.5.61-.48,2.41,0,3a10.84,10.84,0,0,1-2.74-7.66,4.5,4.5,0,0,1,.9-3.25c1.07-1.34,2.58-1.85,2.81-3.72q0,1.39,0,2.79c0-2.26-2.35-3.22-3.88-4.44S42,51.24,42,49.42a6.88,6.88,0,0,1,2.31-5.74c2.06-1.88,5.42-3.29,5.53-6.48v2.94c-.29-2.33-2.7-3.91-4.46-5.18a17.44,17.44,0,0,0-6.1-3.2c-.22,0,.18-3,0-3Z"/><circle class="cls-2" cx="84.6" cy="71.61" r="0.66"/><circle class="cls-2" cx="57.71" cy="53.97" r="1.08"/><circle class="cls-2" cx="80.96" cy="34.61" r="1.16"/><circle class="cls-1" cx="46.5" cy="92.09" r="0.51"/><circle class="cls-1" cx="72.68" cy="61.7" r="0.79"/><circle class="cls-1" cx="41.1" cy="32.93" r="0.72"/><circle class="cls-1" cx="48.77" cy="21.61" r="0.48"/><circle class="cls-1" cx="76.78" cy="18.3" r="0.45"/><circle class="cls-3" cx="47.9" cy="93.21" r="0.99"/><circle class="cls-3" cx="49.07" cy="67.16" r="1.15"/><circle class="cls-3" cx="37.74" cy="43.03" r="0.73"/><circle class="cls-3" cx="48.02" cy="31.43" r="0.61"/><polygon class="cls-2" points="7.03 56.27 0 57.15 4.28 62.81 7.03 56.27"/><polygon class="cls-2" points="47.4 38.43 44.8 42.17 49.34 42.56 47.4 38.43"/><polygon class="cls-2" points="40.42 29.45 36.11 31.13 39.73 34.02 40.42 29.45"/><polygon class="cls-1" points="94.45 87.23 92.64 81.18 88.3 85.77 94.45 87.23"/><polygon class="cls-1" points="99.83 73.72 93.61 74.37 97.27 79.43 99.83 73.72"/><polygon class="cls-1" points="40.89 63.63 35.52 59.78 34.87 66.35 40.89 63.63"/><polygon class="cls-1" points="50.52 40.46 43.01 39.42 45.86 46.44 50.52 40.46"/><polygon class="cls-1" points="64.78 26.22 61.87 29.14 65.86 30.21 64.78 26.22"/><polygon class="cls-4" points="46.71 60.9 41.88 62.59 45.77 65.93 46.71 60.9"/><polygon class="cls-4" points="29.43 50.92 34.19 45.16 26.82 43.92 29.43 50.92"/><polygon class="cls-4" points="10.08 43.15 2.93 46.53 9.44 51.03 10.08 43.15"/><polygon class="cls-4" points="7.38 22.93 3.13 19.25 2.06 24.77 7.38 22.93"/><polygon class="cls-3" points="33.36 30.18 30.34 22.54 25.24 28.98 33.36 30.18"/><polygon class="cls-3" points="78.2 25.53 72.84 26.47 76.33 30.65 78.2 25.53"/><polygon class="cls-3" points="48.23 55.54 50.62 50.68 45.21 51.03 48.23 55.54"/><polygon class="cls-3" points="65.92 59.21 57.91 61.49 63.89 67.29 65.92 59.21"/><polygon class="cls-3" points="55.32 75.39 58.65 70.02 52.34 69.82 55.32 75.39"/><polygon class="cls-3" points="69.73 82.84 63.06 83.19 66.7 88.8 69.73 82.84"/></g></g></g></g></svg>