<svg xmlns="http://www.w3.org/2000/svg" viewBox="0 0 89.01 109.07"><defs><style>.cls-1{fill:#0091b5;}.cls-2{fill:#ed3a4f;}.cls-3{fill:#fdb913;}</style></defs><title>3</title><g id="Слой_2" data-name="Слой 2"><g id="Слой_1-2" data-name="Слой 1"><g id="Слой_2-2" data-name="Слой 2"><g id="Layer_1" data-name="Layer 1"><polygon class="cls-1" points="38.27 70.98 37.59 62.21 30.33 67.18 38.27 70.98"/><polygon class="cls-1" points="40.16 42.48 49.75 43.27 45.64 34.57 40.16 42.48"/><polygon class="cls-1" points="89.01 41.03 82.17 39.45 84.23 46.16 89.01 41.03"/><polygon class="cls-2" points="67.3 58.15 65.03 52.75 61.5 57.42 67.3 58.15"/><polygon class="cls-2" points="69.9 87.83 66.38 79.1 60.58 86.51 69.9 87.83"/><polygon class="cls-2" points="15.13 75.12 22.11 79.12 22.08 71.07 15.13 75.12"/><polygon class="cls-3" points="21.35 42.1 26.35 36.85 19.3 35.15 21.35 42.1"/><polygon class="cls-3" points="71.45 43.41 72.96 37.36 66.96 39.08 71.45 43.41"/><polygon class="cls-3" points="50.35 53.97 59.9 54.29 55.4 45.86 50.35 53.97"/><polygon class="cls-3" points="45.55 93.47 47.39 88.3 41.99 89.29 45.55 93.47"/><polygon class="cls-3" points="15.03 100.06 5.38 97.81 8.25 107.28 15.03 100.06"/><polygon class="cls-3" points="68.65 66.59 72.78 61.97 66.71 60.7 68.65 66.59"/><path class="cls-1" d="M27.06,74.8a13.72,13.72,0,0,1,5.48,3.93,5.8,5.8,0,0,1,1.09,4.12c0,3.94-5.31,4.41-5.59,8V89.12c.18,3.44,4.38,4,6.3,6.12.61.68,1.31,2.57.51,3.38s-2,1.17-2.77,2.09c-1.12,1.26-.66,1.9-.38,3.46a10.39,10.39,0,0,1-.23,4.9c.18-.52-.18-1.23,0-1.76.59-1.71-.24-3.85-.22-5.72a4.31,4.31,0,0,1,1.19-3c.5-.56,2.58-1.34,2.63-2.11v1.73c-.67-2.37-3.84-3.06-5.54-4.42C28.15,92.68,28,91.17,28,89.57c0-3.76,5.5-4.28,5.59-8.12q0,.87,0,1.73c-.31-3.22-3.85-5.39-6.56-6.5-.22-.09.19-1.68,0-1.76Z"/><path class="cls-2" d="M48.2,60.48c4.3-1.24,6.44,4.19,4.54,7.4a4,4,0,0,1-4.8,1.45c-.77-.37-.54-1.83-.46-2.52s1.25-1.25,1.9-1.37a5.52,5.52,0,0,1,3.09.6c1.56.68,3.46,2.14,3.49,4,0,1.58,0,2.76-1.21,4a7.79,7.79,0,0,1-6.21,2.16c-.1,0,.08-1.67,0-1.69a7.77,7.77,0,0,0,5-1.21,6.23,6.23,0,0,0,2-1.77c.34-.47.25-1.32.43-.42A3.22,3.22,0,0,0,55.43,70a7.48,7.48,0,0,0-4.28-2.74c-1.16-.31-3.42-.15-3.6,1.43V67c.17,1.16,2,1,2.82.83a3.82,3.82,0,0,0,3.06-3.43V66a4,4,0,0,0-5.13-3.8c.14,0-.16-1.64,0-1.69Z"/><path class="cls-2" d="M13.68,29.14A3.86,3.86,0,0,0,12,33.29c.38,1.79,1.89,3.13,2.16,4.88.13.87.24,1.75.3,2.63.09,1.25-.71,1.53-1.6,2.17-3,2.15-1.29,5.41-1,8.35A16.25,16.25,0,0,1,10,60.92c.22-.44-.41-1.3-.19-1.75a18,18,0,0,0,2-5.87c.23-2-.54-3.81-.84-5.72-.4-2.54-.4-4.91,1.92-6.56,1.16-.82,1.61-1.13.85-2.52A12.06,12.06,0,0,1,12,34.09c-.3-2.28-.87-5.33,1.5-6.69-.19.11.41,1.63.19,1.75Z"/><path class="cls-2" d="M37.15,0c-2,.41-3.87,1.85-5.43,3s-2.48,2.19-2.49,4.07.14,3,1.56,4.26c1.75,1.61,4.27,2.66,4.31,5.38V14.62c-.31,2.57-4,2.85-4.06,5.37a17.89,17.89,0,0,0,0,2.47c.25,2,2.69,2.42,2.76,4.63V24.88a8,8,0,0,1-2,4.05c-.37.46.36,1.8,0,2.24a8.12,8.12,0,0,0,2-5.71A3.38,3.38,0,0,0,33.15,23c-.8-1-1.93-1.39-2.11-2.79v2.09C31,20.64,32.8,19.92,34,19s1.17-2.16,1.16-3.52a5.15,5.15,0,0,0-1.73-4.3c-1.56-1.45-4.06-2.45-4.14-4.86q0,1.1,0,2.21c.22-1.75,2-2.93,3.34-3.88a13.07,13.07,0,0,1,4.57-2.4c.17,0-.13-2.22,0-2.24Z"/><circle class="cls-2" cx="17.43" cy="85.93" r="0.88"/><circle class="cls-2" cx="16.64" cy="80.54" r="1.1"/><circle class="cls-2" cx="17.88" cy="66.16" r="0.76"/><circle class="cls-2" cx="7.03" cy="25.35" r="0.74"/><circle class="cls-2" cx="33.2" cy="35.57" r="0.81"/><circle class="cls-2" cx="75.89" cy="39.7" r="0.47"/><circle class="cls-1" cx="18.6" cy="93.1" r="0.45"/><circle class="cls-1" cx="30.48" cy="69.88" r="1.23"/><circle class="cls-1" cx="27" cy="53.09" r="0.58"/><circle class="cls-1" cx="79.61" cy="35.47" r="0.63"/><circle class="cls-3" cx="6.13" cy="66.56" r="1.23"/><circle class="cls-3" cx="11.89" cy="43.54" r="1.17"/><circle class="cls-3" cx="38.05" cy="43.88" r="0.61"/><polygon class="cls-2" points="21.52 18.98 14.23 16.55 15.77 24.08 21.52 18.98"/><polygon class="cls-1" points="6.6 101.02 3.69 103.94 7.68 105.01 6.6 101.02"/><polygon class="cls-1" points="26.79 72.42 27.24 64.75 20.37 68.2 26.79 72.42"/><polygon class="cls-1" points="29.5 55.75 34.79 51.13 28.15 48.86 29.5 55.75"/><polygon class="cls-1" points="24.49 26.4 21.82 22.36 19.65 26.69 24.49 26.4"/><polygon class="cls-3" points="11.29 38.78 17.31 40.45 15.74 34.4 11.29 38.78"/><polygon class="cls-3" points="1.43 83.1 6.25 78.67 0 76.71 1.43 83.1"/><polygon class="cls-3" points="20.02 100.33 14.66 101.27 18.15 105.45 20.02 100.33"/></g></g></g></g></svg>