<svg xmlns="http://www.w3.org/2000/svg" viewBox="0 0 75.97 86.43"><defs><style>.cls-1{fill:#0091b5;}.cls-2{fill:#ed3a4f;}.cls-3{fill:#fdb913;}.cls-4{fill:#69c400;}</style></defs><title>4</title><g id="Слой_2" data-name="Слой 2"><g id="Слой_1-2" data-name="Слой 1"><g id="Слой_2-2" data-name="Слой 2"><g id="Layer_1" data-name="Layer 1"><polygon class="cls-1" points="10.93 82.75 20.52 83.54 16.41 74.84 10.93 82.75"/><polygon class="cls-1" points="35.08 56.46 30.12 54.31 30.74 59.67 35.08 56.46"/><polygon class="cls-1" points="59.78 81.3 52.94 79.72 55 86.43 59.78 81.3"/><polygon class="cls-2" points="18.91 37.15 13.22 35.96 15.03 41.48 18.91 37.15"/><polygon class="cls-2" points="48.88 50.84 44.85 43.78 40.75 50.8 48.88 50.84"/><polygon class="cls-3" points="74.07 46.04 70.89 50.07 75.97 50.81 74.07 46.04"/><polygon class="cls-3" points="42.22 83.68 43.73 77.63 37.73 79.35 42.22 83.68"/><path class="cls-2" d="M7.92,40.27c-2,.41-3.87,1.85-5.43,3S0,45.46,0,47.34s.14,3,1.56,4.26C3.31,53.21,5.83,54.26,5.87,57V54.89c-.31,2.57-4,2.85-4.06,5.37a17.89,17.89,0,0,0,0,2.47c.25,2,2.69,2.42,2.76,4.63V65.15a8,8,0,0,1-2,4.05c-.37.46.36,1.8,0,2.24a8.12,8.12,0,0,0,2-5.71,3.38,3.38,0,0,0-.67-2.43c-.8-1-1.93-1.39-2.11-2.79V62.6c0-1.69,1.76-2.41,2.91-3.33s1.17-2.16,1.16-3.52a5.15,5.15,0,0,0-1.73-4.3C2.59,50,.09,49,0,46.59q0,1.1,0,2.21C.23,47,2,45.87,3.35,44.92a13.07,13.07,0,0,1,4.57-2.4c.17,0-.13-2.22,0-2.24Z"/><circle class="cls-2" cx="37.59" cy="58.89" r="1.07"/><circle class="cls-2" cx="46.66" cy="79.97" r="0.47"/><circle class="cls-2" cx="68.64" cy="41.76" r="0.64"/><circle class="cls-1" cx="25.03" cy="42.82" r="0.66"/><circle class="cls-1" cx="50.38" cy="75.74" r="0.63"/><circle class="cls-3" cx="20.01" cy="53.28" r="1.13"/><circle class="cls-3" cx="41.36" cy="44.33" r="1.17"/><circle class="cls-3" cx="58.07" cy="44.11" r="0.89"/><polygon class="cls-2" points="14.27 37.5 9.17 42.4 15.96 44.37 14.27 37.5"/><polygon class="cls-2" points="32.42 42.99 33.18 34.64 25.56 38.15 32.42 42.99"/><polygon class="cls-2" points="44.62 29.31 39.19 29.68 42.23 34.2 44.62 29.31"/><polygon class="cls-2" points="52.25 3.92 45.03 2.91 47.77 9.67 52.25 3.92"/><polygon class="cls-2" points="62.56 8.01 57.63 11.89 63.45 14.22 62.56 8.01"/><polygon class="cls-2" points="73.15 10.84 69.58 6.11 67.27 11.57 73.15 10.84"/><polygon class="cls-1" points="64.1 8.46 59.58 7.41 60.93 11.85 64.1 8.46"/><polygon class="cls-4" points="63.23 2.21 57.73 0 58.56 5.88 63.23 2.21"/><polygon class="cls-3" points="67.54 8.24 70.04 1.66 63.1 2.78 67.54 8.24"/><polygon class="cls-3" points="28.81 11.64 24.54 17.59 31.83 18.32 28.81 11.64"/><polygon class="cls-3" points="17.7 27.02 13.85 27.58 16.26 30.64 17.7 27.02"/></g></g></g></g></svg>