<svg xmlns="http://www.w3.org/2000/svg" viewBox="0 0 535.66 174.69"><defs><style>.cls-1{fill:#a10000;}.cls-1,.cls-2,.cls-3{fill-rule:evenodd;}.cls-2{fill:#750000;}.cls-3{fill:#d40000;}</style></defs><title>band</title><g id="Слой_2" data-name="Слой 2"><g id="OBJECTS"><polygon class="cls-1" points="90.92 76.36 3.13 91.49 28.36 57.16 0 32.07 87.79 16.94 90.92 76.36"/><polygon class="cls-2" points="483.94 59.41 54.85 174.69 51.72 115.27 480.81 0 483.94 59.41"/><polygon class="cls-2" points="90.92 76.36 47.82 98.79 44.69 39.38 87.79 16.94 90.92 76.36"/><polygon class="cls-3" points="483.94 59.41 47.82 98.79 44.69 39.38 480.81 0 483.94 59.41"/><polygon class="cls-1" points="236.05 98.51 532.54 83.2 507.31 117.53 535.66 142.61 239.18 157.93 236.05 98.51"/><polygon class="cls-2" points="236.05 98.51 487.85 75.9 490.98 135.31 239.18 157.93 236.05 98.51"/><polygon class="cls-3" points="51.72 115.27 487.85 75.9 490.98 135.31 54.85 174.69 51.72 115.27"/></g></g></svg>