<svg xmlns="http://www.w3.org/2000/svg" xmlns:xlink="http://www.w3.org/1999/xlink" viewBox="0 0 200.68 229.57"><defs><style>.cls-1{fill:none;}.cls-2{fill:#0091b5;}.cls-3{fill:#ed3a4f;}.cls-4{fill:#fdb913;}.cls-5{clip-path:url(#clip-path);}.cls-6{fill:#69c400;}</style><clipPath id="clip-path" transform="translate(-119.07)"><rect id="_Обтравочный_контур_" data-name="&lt;Обтравочный контур&gt;" class="cls-1" y="14.97" width="288" height="288"/></clipPath></defs><title>confetti_1</title><g id="Слой_2" data-name="Слой 2"><g id="Layer_1" data-name="Layer 1"><polygon class="cls-2" points="20.96 41.25 15.71 38.34 15.81 44.34 20.96 41.25"/><polygon class="cls-2" points="29.96 92.19 24.93 84.03 20.37 92.46 29.96 92.19"/><polygon class="cls-2" points="61.97 61.96 55.36 67.23 63.23 70.31 61.97 61.96"/><polygon class="cls-2" points="71.7 107.62 65.45 112.13 72.49 115.29 71.7 107.62"/><polygon class="cls-2" points="88.79 55.84 97.21 58.79 95.55 50.02 88.79 55.84"/><polygon class="cls-2" points="143.6 47.75 139.89 52.2 145.6 53.19 143.6 47.75"/><polygon class="cls-2" points="108.03 95.93 115.33 99.31 114.6 91.29 108.03 95.93"/><polygon class="cls-2" points="137.32 77.26 146.53 80.79 144.98 71.06 137.32 77.26"/><polygon class="cls-2" points="153.5 116.26 148.59 108.61 144.42 116.69 153.5 116.26"/><polygon class="cls-2" points="156.54 156.24 150.55 152.53 150.33 159.57 156.54 156.24"/><polygon class="cls-2" points="100.26 157.19 107.18 156.3 102.95 150.75 100.26 157.19"/><polygon class="cls-2" points="134.38 192.35 138.8 184.67 129.94 184.69 134.38 192.35"/><polygon class="cls-2" points="106.26 185.42 98.34 189.12 105.5 194.13 106.26 185.42"/><polygon class="cls-2" points="128.7 209.68 125.69 205.17 123.29 210.03 128.7 209.68"/><polygon class="cls-3" points="20.29 65.3 15.44 68.77 20.87 71.24 20.29 65.3"/><polygon class="cls-3" points="41.93 74.03 38.2 78.11 43.6 79.3 41.93 74.03"/><polygon class="cls-3" points="43.02 40.44 48.09 33.96 39.95 32.81 43.02 40.44"/><polygon class="cls-3" points="79.74 53.32 77.12 47.64 73.51 52.76 79.74 53.32"/><polygon class="cls-3" points="113.81 43.06 123.07 49.94 124.39 38.49 113.81 43.06"/><polygon class="cls-3" points="80.9 128.22 73.25 121.14 70.94 131.3 80.9 128.22"/><polygon class="cls-3" points="125.79 91.98 118.16 97.07 126.38 101.14 125.79 91.98"/><polygon class="cls-3" points="159.24 49.43 155.31 40.68 149.7 48.46 159.24 49.43"/><polygon class="cls-3" points="131.98 123.61 140.98 120.98 134.2 114.5 131.98 123.61"/><polygon class="cls-3" points="160.26 139.14 151.21 135.45 152.53 145.13 160.26 139.14"/><polygon class="cls-3" points="124 137.47 129.05 138.9 127.76 133.81 124 137.47"/><polygon class="cls-3" points="144.7 217.61 138.98 212.02 137 219.77 144.7 217.61"/><polygon class="cls-3" points="154.64 192.47 162.54 188.16 154.86 183.47 154.64 192.47"/><polygon class="cls-4" points="107.66 129.6 101.21 129.98 104.76 135.38 107.66 129.6"/><polygon class="cls-4" points="116.34 169.6 110.29 174.56 117.61 177.33 116.34 169.6"/><polygon class="cls-4" points="148.3 88.38 156.05 92.66 155.89 83.81 148.3 88.38"/><polygon class="cls-4" points="75.44 118.66 80.49 119.66 78.83 114.78 75.44 118.66"/><polygon class="cls-4" points="117.99 105.32 113.17 103.59 114.08 108.62 117.99 105.32"/><polygon class="cls-4" points="86.47 77.09 91.8 74.58 86.96 71.22 86.47 77.09"/><polygon class="cls-4" points="16.44 44.38 13.26 48.41 18.34 49.15 16.44 44.38"/><polygon class="cls-4" points="50.55 86.36 54.45 80.19 47.15 79.9 50.55 86.36"/><polygon class="cls-4" points="11.23 82.24 7.3 86.36 12.83 87.71 11.23 82.24"/><polygon class="cls-4" points="123.43 127.24 129.48 133.01 131.45 124.89 123.43 127.24"/><path class="cls-4" d="M235.25,142.75a20.44,20.44,0,0,1,7.19,4,5.58,5.58,0,0,1,1.95,4.87c0,2.5-1.72,4.34-3.88,5.42-1.41.7-5.56,1-5.6-1.43,0-1.82.16-2.55,2.09-3.15a6.08,6.08,0,0,1,6.25,1.35,6.4,6.4,0,0,1,2.37,4.64c0,2.09-.53,3.1-2.86,3.31,0,0-.06-1.74,0-1.75,1.31-.12,2.72-.48,2.85-2,0,.54,0,1.09,0,1.63,0-2.22-2.29-4.38-4.11-5.36-1.42-.76-6.2-.69-6.58,1.44V154c.2,2.2,3.82,2,5.22,1.47,2.12-.76,4.2-2.86,4.24-5.21,0,.54,0,1.09,0,1.63-.34-3.84-5.92-6.42-9.13-7.4-.17-.05.15-1.7,0-1.75Z" transform="translate(-119.07)"/><path class="cls-4" d="M144.94,54.41a13.72,13.72,0,0,1,5.48,3.89,5.8,5.8,0,0,1,1.09,4.12c0,3.94-5.31,4.41-5.59,8q0-.87,0-1.73c.18,3.44,4.38,4,6.3,6.12.61.68,1.31,2.57.51,3.38s-2,1.17-2.77,2.09c-1.12,1.26-.66,1.9-.38,3.46a10.39,10.39,0,0,1-.23,4.9c.18-.52-.18-1.23,0-1.76.59-1.71-.24-3.85-.22-5.72a4.31,4.31,0,0,1,1.19-3c.5-.56,2.58-1.34,2.63-2.11q0,.87,0,1.73c-.67-2.37-3.84-3.06-5.54-4.42-1.38-1.11-1.51-2.62-1.5-4.22,0-3.76,5.5-4.28,5.59-8.12q0,.87,0,1.73c-.31-3.22-3.85-5.39-6.56-6.5-.22-.09.19-1.68,0-1.76Z" transform="translate(-119.07)"/><path class="cls-2" d="M264.36,160.24c-1.2-.94-2.75-1.66-4.09-.57s-.94,2.62-.23,3.92,1.37,3,2.84,3.28a1.69,1.69,0,0,0,1.59-1q.14-.51.07.2a1.87,1.87,0,0,0-.16-.41,1.8,1.8,0,0,0-.6-.65c-1.12-.83-2.88.12-3.68,1a6.8,6.8,0,0,0-1.46,4,7.18,7.18,0,0,0,.24,2.1,1.93,1.93,0,0,0,1,1.58c1.12.58,3.09.17,3.27-1.24v1.26c-.12-1.29-2.72.39-3.14.74-1.76,1.48-1.15,4.15.43,5.43.21.17-.2,1.1,0,1.26-2.81-2.27-2.09-9,2.22-9.14.61,0,.49.68.49,1.08,0,.78-.07,1.43-.85,1.82a2.74,2.74,0,0,1-3-.38c-.6-.62-.62-2.11-.68-2.93a13.12,13.12,0,0,1,.48-5c.59-1.79,2.91-4.1,4.88-2.64,1,.72.91,3,.11,3.79-2,1.95-4.07-2.68-4.54-4a7.52,7.52,0,0,1-.06-4c.69-2.53,3.3-2,4.89-.73.21.16-.2,1.11,0,1.26Z" transform="translate(-119.07)"/><path class="cls-3" d="M246.27,60.61c2.63.55,5.16,2.46,7.25,4.06s3.32,2.93,3.32,5.43-.19,3.94-2.08,5.68c-2.33,2.14-5.7,3.55-5.75,7.18q0-1.4,0-2.79c.42,3.43,5.36,3.8,5.42,7.16a23.9,23.9,0,0,1,0,3.29c-.33,2.72-3.59,3.23-3.69,6.17q0-1.47,0-2.94a10.73,10.73,0,0,0,2.73,5.41c.5.61-.48,2.41,0,3a10.84,10.84,0,0,1-2.74-7.66,4.5,4.5,0,0,1,.9-3.25c1.07-1.34,2.58-1.85,2.81-3.72q0,1.39,0,2.79c0-2.26-2.35-3.22-3.88-4.44S249,83.09,249,81.27a6.88,6.88,0,0,1,2.31-5.74c2.06-1.88,5.42-3.29,5.53-6.48q0,1.47,0,2.94c-.29-2.33-2.7-3.91-4.46-5.18a17.44,17.44,0,0,0-6.1-3.2c-.22,0,.18-3,0-3Z" transform="translate(-119.07)"/><path class="cls-2" d="M217,87c-2.05.43-4,1.92-5.66,3.16s-2.59,2.28-2.59,4.23.15,3.08,1.62,4.43c1.82,1.67,4.45,2.77,4.49,5.6q0-1.09,0-2.18c-.33,2.68-4.18,3-4.23,5.59a18.53,18.53,0,0,0,0,2.57c.26,2.12,2.8,2.52,2.88,4.82q0-1.15,0-2.3a8.38,8.38,0,0,1-2.13,4.22c-.39.48.37,1.88,0,2.34a8.46,8.46,0,0,0,2.14-6,3.52,3.52,0,0,0-.7-2.53c-.84-1-2-1.45-2.19-2.9q0,1.09,0,2.18c0-1.76,1.83-2.51,3-3.47s1.22-2.25,1.21-3.67a5.36,5.36,0,0,0-1.8-4.48c-1.61-1.47-4.23-2.56-4.31-5.05q0,1.15,0,2.3c.23-1.82,2.1-3,3.48-4a13.58,13.58,0,0,1,4.76-2.5c.17,0-.14-2.31,0-2.34Z" transform="translate(-119.07)"/><circle class="cls-3" cx="11.01" cy="40.1" r="0.64"/><circle class="cls-3" cx="20.49" cy="49.82" r="1.16"/><circle class="cls-3" cx="27.11" cy="45.48" r="0.89"/><circle class="cls-3" cx="56.74" cy="50.79" r="1.04"/><circle class="cls-3" cx="89.69" cy="35.33" r="1.2"/><circle class="cls-3" cx="100.02" cy="84.58" r="0.89"/><circle class="cls-3" cx="148.32" cy="86.63" r="0.51"/><circle class="cls-3" cx="140.66" cy="108.62" r="0.54"/><circle class="cls-3" cx="155.98" cy="113.55" r="0.48"/><circle class="cls-3" cx="131.77" cy="139.73" r="0.49"/><circle class="cls-3" cx="148.62" cy="170.93" r="0.58"/><circle class="cls-3" cx="161.7" cy="187.91" r="1.01"/><circle class="cls-3" cx="143.15" cy="203.2" r="0.47"/><circle class="cls-3" cx="136.9" cy="212.31" r="0.91"/><circle class="cls-2" cx="19.93" cy="31.45" r="0.51"/><circle class="cls-2" cx="47.77" cy="63.9" r="1"/><circle class="cls-2" cx="77.27" cy="59.78" r="1.13"/><circle class="cls-2" cx="96.58" cy="62.98" r="1.12"/><circle class="cls-2" cx="103.14" cy="72.22" r="0.97"/><circle class="cls-2" cx="118.84" cy="95.84" r="0.66"/><circle class="cls-2" cx="151.25" cy="110.73" r="1.28"/><circle class="cls-2" cx="151.46" cy="144.91" r="0.48"/><circle class="cls-2" cx="140.5" cy="156.86" r="0.99"/><circle class="cls-2" cx="163.68" cy="173.91" r="0.73"/><circle class="cls-2" cx="118.69" cy="191.23" r="0.82"/><circle class="cls-2" cx="145.04" cy="201.59" r="1.01"/><circle class="cls-2" cx="133" cy="211.99" r="0.92"/><circle class="cls-4" cx="27.4" cy="71.58" r="1.16"/><circle class="cls-4" cx="53.4" cy="48.48" r="0.48"/><circle class="cls-4" cx="75.11" cy="68.26" r="0.88"/><circle class="cls-4" cx="95.5" cy="67.55" r="0.65"/><circle class="cls-4" cx="123.5" cy="80.02" r="0.45"/><circle class="cls-4" cx="139.95" cy="99.25" r="1.13"/><circle class="cls-4" cx="142.76" cy="119.03" r="1.24"/><circle class="cls-4" cx="152.09" cy="142.38" r="0.86"/><circle class="cls-4" cx="130.77" cy="167.37" r="0.92"/><circle class="cls-4" cx="150.45" cy="180.07" r="0.53"/><circle class="cls-4" cx="118.1" cy="189.39" r="0.52"/><circle class="cls-4" cx="144.75" cy="197.29" r="0.84"/><circle class="cls-4" cx="142.35" cy="212.76" r="0.48"/><g class="cls-5"><polygon class="cls-3" points="4.93 6.35 0 10.22 5.82 12.56 4.93 6.35"/><polygon class="cls-3" points="15.53 9.17 11.95 4.45 9.64 9.91 15.53 9.17"/><polygon class="cls-3" points="38.09 28.41 32.31 33.75 39.82 36.08 38.09 28.41"/><polygon class="cls-3" points="52.54 26.41 58.16 21.02 50.68 18.85 52.54 26.41"/><polygon class="cls-3" points="103.05 30.37 106.81 25.38 100.61 24.61 103.05 30.37"/><polygon class="cls-3" points="120.2 32.39 116.87 28.25 114.94 33.21 120.2 32.39"/><polygon class="cls-3" points="108.13 56.94 109 52.42 104.66 53.93 108.13 56.94"/><polygon class="cls-3" points="141.6 33.32 135.58 36.07 140.97 39.91 141.6 33.32"/><polygon class="cls-3" points="156.24 38.99 160.28 38.64 157.96 35.32 156.24 38.99"/><polygon class="cls-3" points="154.33 61.64 159.35 60.95 156.25 56.94 154.33 61.64"/><polygon class="cls-3" points="123.64 80.22 130.51 82.81 129.32 75.56 123.64 80.22"/><polygon class="cls-3" points="152.7 80.48 147 84.08 152.97 87.22 152.7 80.48"/><polygon class="cls-3" points="159.77 94.98 165.35 92.38 160.31 88.85 159.77 94.98"/><polygon class="cls-3" points="152.98 107.56 157.2 107.38 154.94 103.82 152.98 107.56"/><polygon class="cls-3" points="138.44 116.94 141.87 121.19 143.84 116.09 138.44 116.94"/><polygon class="cls-3" points="161.75 131.69 165.31 134.32 165.81 129.92 161.75 131.69"/><polygon class="cls-3" points="183.26 152.03 178.56 147.93 177.37 154.05 183.26 152.03"/><polygon class="cls-3" points="181.55 165.28 177.45 163.44 177.91 167.91 181.55 165.28"/><polygon class="cls-3" points="155.13 180.86 159.63 178.32 155.17 175.69 155.13 180.86"/><polygon class="cls-3" points="154.72 194.27 150.57 200.01 157.62 200.73 154.72 194.27"/><polygon class="cls-3" points="137.58 210.44 132.8 207.45 132.6 213.08 137.58 210.44"/><polygon class="cls-3" points="159.3 213.8 154.44 211.4 154.79 216.8 159.3 213.8"/><polygon class="cls-2" points="6.47 6.8 1.95 5.75 3.3 10.19 6.47 6.8"/><polygon class="cls-2" points="192.37 26.19 189.9 19.1 185 24.79 192.37 26.19"/><polygon class="cls-2" points="172.57 39.13 170.98 35.41 168.56 38.65 172.57 39.13"/><polygon class="cls-2" points="142.81 60 147.86 53.27 139.51 52.27 142.81 60"/><polygon class="cls-2" points="143.33 76.18 139.11 71.14 136.85 77.32 143.33 76.18"/><polygon class="cls-2" points="159.74 95.97 167.85 96.62 164.36 89.27 159.74 95.97"/><polygon class="cls-2" points="151.97 101.92 148.63 94.31 143.71 101.01 151.97 101.92"/><polygon class="cls-2" points="169.5 133.78 172.91 131.92 169.59 129.89 169.5 133.78"/><polygon class="cls-2" points="141.1 127.41 140.68 119.42 133.97 123.78 141.1 127.41"/><polygon class="cls-2" points="141.59 146.05 136.07 141.38 134.79 148.49 141.59 146.05"/><polygon class="cls-2" points="157.44 166.59 161.68 161.13 154.82 160.19 157.44 166.59"/><polygon class="cls-2" points="129.51 166.74 132.28 170.48 134.13 166.21 129.51 166.74"/><polygon class="cls-2" points="128.06 188.94 129.7 180.91 121.92 183.51 128.06 188.94"/><polygon class="cls-2" points="137.25 198.43 143.1 192.6 135.13 190.45 137.25 198.43"/><polygon class="cls-2" points="134.54 206.51 139.28 206.24 136.68 202.27 134.54 206.51"/><polygon class="cls-2" points="133.5 223.13 126.76 224.32 131.16 229.57 133.5 223.13"/><polygon class="cls-6" points="26.84 16.96 32.64 13.05 26.36 9.98 26.84 16.96"/><polygon class="cls-6" points="50.31 13.76 46.31 15.76 50.04 18.23 50.31 13.76"/><polygon class="cls-6" points="65.14 7.43 66.91 2.07 61.38 3.22 65.14 7.43"/><polygon class="cls-6" points="121.02 26.07 124.57 24.34 121.3 22.13 121.02 26.07"/><polygon class="cls-6" points="141.81 23.11 135.66 28.86 143.72 31.31 141.81 23.11"/><polygon class="cls-6" points="192.01 10.73 185.88 15.13 192.75 18.23 192.01 10.73"/><polygon class="cls-6" points="156.42 39.85 149.6 40.5 153.57 46.08 156.42 39.85"/><polygon class="cls-6" points="175.06 63.71 180.82 67.67 181.37 60.7 175.06 63.71"/><polygon class="cls-6" points="159.47 73.91 153.25 70.28 153.22 77.48 159.47 73.91"/><polygon class="cls-6" points="124.88 76.68 119.95 74.85 120.83 80.03 124.88 76.68"/><polygon class="cls-6" points="156.17 94.27 149.81 91.16 150.29 98.23 156.17 94.27"/><polygon class="cls-6" points="145.95 102.97 140.48 101.04 141.54 106.74 145.95 102.97"/><polygon class="cls-6" points="125.19 113.57 130.65 115.21 129.34 109.66 125.19 113.57"/><polygon class="cls-6" points="153.54 125.4 160.02 125.15 156.56 119.67 153.54 125.4"/><polygon class="cls-6" points="143.96 138.04 138.02 141.45 143.94 144.89 143.96 138.04"/><polygon class="cls-6" points="143.14 152.72 139.08 158.56 146.17 159.16 143.14 152.72"/><polygon class="cls-6" points="142.12 166.75 135.41 167.11 139.07 172.74 142.12 166.75"/><polygon class="cls-6" points="114.09 181.04 119.36 175.59 112 173.76 114.09 181.04"/><polygon class="cls-6" points="145.38 193.62 138.88 190.62 139.53 197.76 145.38 193.62"/><polygon class="cls-6" points="137.34 206.53 145.45 204.71 139.82 198.6 137.34 206.53"/><polygon class="cls-6" points="119.55 216.94 124.29 220.89 125.33 214.81 119.55 216.94"/><polygon class="cls-4" points="189.9 200.51 184.37 205.09 191.1 207.59 189.9 200.51"/><polygon class="cls-4" points="164.85 179.7 159.91 184.1 166.19 186.18 164.85 179.7"/><polygon class="cls-4" points="147.18 162.94 144.93 166.1 148.79 166.47 147.18 162.94"/><polygon class="cls-4" points="148.47 146.42 153.81 152.23 156.17 144.7 148.47 146.42"/><polygon class="cls-4" points="149.12 135.5 145.01 137.92 149.17 140.27 149.12 135.5"/><polygon class="cls-4" points="148.88 121.28 142.93 122.51 146.97 127.06 148.88 121.28"/><polygon class="cls-4" points="155.04 120.86 157.19 117.5 153.2 117.32 155.04 120.86"/><polygon class="cls-4" points="200.68 103.03 196.42 105.45 200.65 107.93 200.68 103.03"/><polygon class="cls-4" points="158.07 104.69 150.09 107.03 156.11 112.77 158.07 104.69"/><polygon class="cls-4" points="161.5 76.66 158.07 84.25 166.36 83.42 161.5 76.66"/><polygon class="cls-4" points="160.19 61.46 164.28 57.4 158.72 55.88 160.19 61.46"/><polygon class="cls-4" points="131.39 61.15 136.66 56.08 129.63 54.05 131.39 61.15"/><polygon class="cls-4" points="121.29 40.48 124.87 38.73 121.56 36.51 121.29 40.48"/><polygon class="cls-4" points="109.64 36.78 107 32.95 105 37.15 109.64 36.78"/><polygon class="cls-4" points="89.99 31.25 83.08 30.7 86.06 36.96 89.99 31.25"/><polygon class="cls-4" points="52.1 32.87 48.34 34.39 51.54 36.89 52.1 32.87"/><polygon class="cls-4" points="47.68 22.87 44.18 19.22 42.78 24.07 47.68 22.87"/><polygon class="cls-4" points="30.53 25.16 34.74 23.94 31.57 20.9 30.53 25.16"/><polygon class="cls-4" points="9.91 6.57 12.41 0 5.47 1.12 9.91 6.57"/></g></g></g></svg>