<svg xmlns="http://www.w3.org/2000/svg" viewBox="0 0 177.2 122.99"><defs><style>.cls-1{fill:#0091b5;}.cls-2{fill:#ed3a4f;}.cls-3{fill:#fdb913;}</style></defs><title>confetti_2</title><g id="Слой_2" data-name="Слой 2"><g id="Layer_1" data-name="Layer 1"><polygon class="cls-1" points="18.97 84.98 18.29 76.21 11.03 81.18 18.97 84.98"/><polygon class="cls-1" points="3.39 31.67 9.51 26.69 2.13 23.88 3.39 31.67"/><polygon class="cls-1" points="20.86 56.48 30.45 57.27 26.34 48.57 20.86 56.48"/><polygon class="cls-1" points="45 30.19 40.05 28.04 40.67 33.4 45 30.19"/><polygon class="cls-1" points="69.7 55.02 62.87 53.45 64.92 60.16 69.7 55.02"/><polygon class="cls-1" points="88.51 16.65 83.26 13.73 83.36 19.73 88.51 16.65"/><polygon class="cls-1" points="97.51 67.59 92.48 59.42 87.92 67.86 97.51 67.59"/><polygon class="cls-1" points="129.52 37.35 122.92 42.63 130.79 45.7 129.52 37.35"/><polygon class="cls-1" points="139.25 83.01 133 87.53 140.04 90.68 139.25 83.01"/><polygon class="cls-1" points="156.34 31.23 164.76 34.18 163.1 25.41 156.34 31.23"/><polygon class="cls-2" points="48 72.15 45.73 66.75 42.19 71.42 48 72.15"/><polygon class="cls-2" points="50.59 101.83 47.08 93.1 41.28 100.5 50.59 101.83"/><polygon class="cls-2" points="28.84 10.88 23.14 9.69 24.96 15.21 28.84 10.88"/><polygon class="cls-2" points="58.81 24.57 54.77 17.51 50.68 24.53 58.81 24.57"/><polygon class="cls-2" points="87.84 40.69 82.99 44.16 88.42 46.63 87.84 40.69"/><polygon class="cls-2" points="109.48 49.42 105.76 53.5 111.15 54.69 109.48 49.42"/><polygon class="cls-2" points="110.58 15.83 115.65 9.35 107.5 8.2 110.58 15.83"/><polygon class="cls-2" points="147.3 28.71 144.67 23.03 141.06 28.15 147.3 28.71"/><polygon class="cls-2" points="148.45 103.61 140.81 96.53 138.5 106.69 148.45 103.61"/><polygon class="cls-3" points="175.22 104.99 168.76 105.37 172.32 110.77 175.22 104.99"/><polygon class="cls-3" points="142.99 94.05 148.04 95.05 146.38 90.17 142.99 94.05"/><polygon class="cls-3" points="2.04 56.1 7.04 50.85 0 49.15 2.04 56.1"/><polygon class="cls-3" points="154.02 52.48 159.35 49.98 154.52 46.61 154.02 52.48"/><polygon class="cls-3" points="83.99 19.77 80.81 23.8 85.89 24.54 83.99 19.77"/><polygon class="cls-3" points="118.1 61.75 122 55.58 114.7 55.29 118.1 61.75"/><polygon class="cls-3" points="78.79 57.63 74.85 61.75 80.38 63.1 78.79 57.63"/><polygon class="cls-3" points="52.15 57.41 53.65 51.35 47.65 53.08 52.15 57.41"/><polygon class="cls-3" points="31.05 67.97 40.59 68.29 36.1 59.86 31.05 67.97"/><polygon class="cls-3" points="26.24 107.47 28.09 102.3 22.68 103.29 26.24 107.47"/><polygon class="cls-3" points="49.34 80.59 53.48 75.97 47.41 74.7 49.34 80.59"/><path class="cls-1" d="M7.76,88.8a13.72,13.72,0,0,1,5.48,3.89,5.8,5.8,0,0,1,1.09,4.12c0,3.94-5.31,4.41-5.59,8q0-.87,0-1.73c.18,3.44,4.38,4,6.3,6.12.61.68,1.31,2.57.51,3.38s-2,1.17-2.77,2.09c-1.12,1.26-.66,1.9-.38,3.46a10.39,10.39,0,0,1-.23,4.9c.18-.52-.18-1.23,0-1.76.59-1.71-.24-3.85-.22-5.72a4.31,4.31,0,0,1,1.19-3c.5-.56,2.58-1.34,2.63-2.11q0,.87,0,1.73c-.67-2.37-3.84-3.06-5.54-4.42-1.38-1.11-1.51-2.62-1.5-4.22,0-3.76,5.5-4.28,5.59-8.12q0,.87,0,1.73c-.31-3.22-3.85-5.39-6.56-6.5-.22-.09.19-1.68,0-1.76Z"/><path class="cls-3" d="M93.42,29.8a13.72,13.72,0,0,1,5.48,3.89A5.8,5.8,0,0,1,100,37.8c0,3.94-5.31,4.41-5.59,8q0-.87,0-1.73c.18,3.44,4.38,4,6.3,6.12.61.68,1.31,2.57.51,3.38s-2,1.17-2.77,2.09c-1.12,1.26-.66,1.9-.38,3.46a10.39,10.39,0,0,1-.23,4.9c.18-.52-.18-1.23,0-1.76.59-1.71-.24-3.85-.22-5.72a4.31,4.31,0,0,1,1.19-3c.5-.56,2.58-1.34,2.63-2.11q0,.87,0,1.73c-.67-2.37-3.84-3.06-5.54-4.42-1.38-1.11-1.51-2.62-1.5-4.22,0-3.76,5.5-4.28,5.59-8.12q0,.87,0,1.73c-.31-3.22-3.85-5.39-6.56-6.5-.22-.09.19-1.68,0-1.76Z"/><path class="cls-2" d="M28.9,74.48c4.3-1.24,6.44,4.19,4.54,7.4a4,4,0,0,1-4.8,1.45c-.77-.37-.54-1.83-.46-2.52s1.25-1.25,1.9-1.37a5.52,5.52,0,0,1,3.09.6c1.56.68,3.46,2.14,3.49,4,0,1.58,0,2.76-1.21,4a7.79,7.79,0,0,1-6.21,2.16c-.1,0,.08-1.67,0-1.69a7.77,7.77,0,0,0,5-1.21,6.23,6.23,0,0,0,2-1.77c.34-.47.25-1.32.43-.42A3.22,3.22,0,0,0,36,84a7.48,7.48,0,0,0-4.28-2.74c-1.16-.31-3.42-.15-3.6,1.43V81c.17,1.16,2,1,2.82.83A3.82,3.82,0,0,0,34,78.39q0,.79,0,1.57a4,4,0,0,0-5.13-3.8c.14,0-.16-1.64,0-1.69Z"/><path class="cls-2" d="M17.84,14c-2,.41-3.87,1.85-5.43,3S9.93,19.23,9.92,21.1s.14,3,1.56,4.26C13.23,27,15.75,28,15.79,30.74q0-1,0-2.09c-.31,2.57-4,2.85-4.06,5.37a17.89,17.89,0,0,0,0,2.47c.25,2,2.69,2.42,2.76,4.63q0-1.1,0-2.21a8,8,0,0,1-2,4.05c-.37.46.36,1.8,0,2.24a8.12,8.12,0,0,0,2.05-5.74A3.38,3.38,0,0,0,13.84,37c-.8-1-1.93-1.39-2.11-2.79q0,1,0,2.09c0-1.69,1.76-2.41,2.91-3.33s1.17-2.16,1.16-3.52a5.15,5.15,0,0,0-1.73-4.3c-1.54-1.41-4.06-2.46-4.14-4.85q0,1.1,0,2.21c.22-1.75,2-2.93,3.34-3.88a13.07,13.07,0,0,1,4.57-2.4c.17,0-.13-2.22,0-2.24Z"/><path class="cls-1" d="M165.5,62.43c-2.05.43-4,1.92-5.66,3.16s-2.59,2.28-2.59,4.23.15,3.08,1.62,4.43c1.82,1.67,4.45,2.77,4.49,5.6q0-1.09,0-2.18c-.33,2.68-4.18,3-4.23,5.59a18.53,18.53,0,0,0,0,2.57c.26,2.12,2.8,2.52,2.88,4.82q0-1.15,0-2.3a8.38,8.38,0,0,1-2.13,4.22c-.39.48.37,1.88,0,2.34a8.46,8.46,0,0,0,2.14-6,3.52,3.52,0,0,0-.7-2.53c-.84-1-2-1.45-2.19-2.9q0,1.09,0,2.18c0-1.76,1.83-2.51,3-3.47s1.22-2.25,1.21-3.67a5.36,5.36,0,0,0-1.8-4.48c-1.6-1.47-4.23-2.56-4.31-5.05q0,1.15,0,2.3c.23-1.82,2.1-3,3.48-4a13.58,13.58,0,0,1,4.76-2.5c.17,0-.14-2.31,0-2.34Z"/><circle class="cls-2" cx="13.89" cy="49.57" r="0.81"/><circle class="cls-2" cx="9.78" cy="19.86" r="0.57"/><circle class="cls-2" cx="47.51" cy="32.62" r="1.07"/><circle class="cls-2" cx="56.59" cy="53.7" r="0.47"/><circle class="cls-2" cx="78.57" cy="15.49" r="0.64"/><circle class="cls-2" cx="88.04" cy="25.21" r="1.16"/><circle class="cls-2" cx="94.66" cy="20.87" r="0.89"/><circle class="cls-2" cx="124.29" cy="26.18" r="1.04"/><circle class="cls-2" cx="157.24" cy="10.72" r="1.2"/><circle class="cls-2" cx="167.57" cy="59.97" r="0.89"/><circle class="cls-1" cx="11.17" cy="83.88" r="1.23"/><circle class="cls-1" cx="7.7" cy="67.08" r="0.58"/><circle class="cls-1" cx="14.22" cy="30.32" r="0.51"/><circle class="cls-1" cx="34.96" cy="16.55" r="0.66"/><circle class="cls-1" cx="60.31" cy="49.47" r="0.63"/><circle class="cls-1" cx="87.48" cy="6.84" r="0.51"/><circle class="cls-1" cx="115.33" cy="39.29" r="1"/><circle class="cls-1" cx="144.82" cy="35.17" r="1.13"/><circle class="cls-1" cx="164.13" cy="38.37" r="1.12"/><circle class="cls-1" cx="170.7" cy="47.61" r="0.97"/><circle class="cls-3" cx="18.75" cy="57.88" r="0.61"/><circle class="cls-3" cx="29.94" cy="27.01" r="1.13"/><circle class="cls-3" cx="51.29" cy="18.06" r="1.17"/><circle class="cls-3" cx="68" cy="17.84" r="0.89"/><circle class="cls-3" cx="94.95" cy="46.97" r="1.16"/><circle class="cls-3" cx="120.95" cy="23.87" r="0.48"/><circle class="cls-3" cx="142.66" cy="43.66" r="0.88"/><circle class="cls-3" cx="163.05" cy="42.94" r="0.65"/><polygon class="cls-2" points="24.2 11.23 19.09 16.13 25.89 18.1 24.2 11.23"/><polygon class="cls-2" points="42.34 16.72 43.11 8.37 35.49 11.88 42.34 16.72"/><polygon class="cls-2" points="54.55 3.04 49.11 3.41 52.16 7.93 54.55 3.04"/><polygon class="cls-2" points="105.64 3.8 99.87 9.14 107.38 11.47 105.64 3.8"/><polygon class="cls-2" points="170.6 5.76 174.37 0.77 168.16 0 170.6 5.76"/><polygon class="cls-2" points="175.68 32.33 176.55 27.81 172.21 29.32 175.68 32.33"/><polygon class="cls-1" points="7.49 86.42 7.94 78.75 1.07 82.19 7.49 86.42"/><polygon class="cls-1" points="10.2 69.75 15.48 65.13 8.84 62.86 10.2 69.75"/><polygon class="cls-1" points="5.18 40.4 2.51 36.35 0.34 40.69 5.18 40.4"/><polygon class="cls-3" points="177.2 12.17 174.55 8.34 172.55 12.55 177.2 12.17"/><polygon class="cls-3" points="157.54 6.65 150.64 6.09 153.61 12.35 157.54 6.65"/><polygon class="cls-3" points="119.65 8.26 115.9 9.78 119.09 12.28 119.65 8.26"/><polygon class="cls-3" points="27.62 0.75 23.77 1.31 26.18 4.36 27.62 0.75"/></g></g></svg>