<?xml version="1.0" encoding="utf-8"?>
<!-- Generator: Adobe Illustrator 21.0.0, SVG Export Plug-In . SVG Version: 6.00 Build 0)  -->
<svg version="1.1" id="Слой_1" xmlns="http://www.w3.org/2000/svg" xmlns:xlink="http://www.w3.org/1999/xlink" x="0px" y="0px"
	 viewBox="0 0 1030.1 114" style="enable-background:new 0 0 1030.1 114;" xml:space="preserve">
<style type="text/css">
	.st0{fill:#D40000;stroke:#000000;stroke-width:3;stroke-linecap:round;stroke-linejoin:round;}
	.st1{fill:none;stroke:#000000;stroke-width:3;stroke-linecap:round;stroke-linejoin:round;}
</style>
<title>poster</title>
<path class="st0" d="M965.6,94c0,0-337.1,7-449.5,7c-112.6,0-450.5-7-450.5-7V24c0,0,337.9,7,450.5,7c112.4,0,449.5-7,449.5-7V94z"
	/>
<line class="st1" x1="65.6" y1="24.5" x2="16.6" y2="14.5"/>
<line class="st1" x1="65.6" y1="94.5" x2="16.6" y2="104.5"/>
<line class="st1" x1="965.6" y1="24.5" x2="1016.6" y2="14.5"/>
<line class="st1" x1="965.6" y1="94.5" x2="1016.6" y2="104.5"/>
<path class="st1" d="M15.6,13.5c-0.3-0.5-0.1-1.1,2-5c2.9-5.3,3.5-5.7,4-6c1.7-1,4.7-1.7,7,0c1.8,1.4,2.6,3.8,2,6
	c-0.9,3.1-4.9,4-9,5C19.5,14,16.4,14.8,15.6,13.5z"/>
<path class="st1" d="M15.6,13.5c0.1-0.6-1-1.4-3-3c-2.5-2-3.8-3-5-3c-2.8-0.1-4.7,2.6-5,3c-0.5,0.8-1.4,1.9-1,3c0.5,1.4,2.6,1.8,4,2
	C9.9,16.3,15.4,15.3,15.6,13.5z"/>
<path class="st1" d="M15.6,14.5c-0.7,0.6-1.4,1.3-2,2c-0.8,0.9-1.5,1.9-2,3c-0.6,1.3-0.9,2.6-1,4"/>
<path class="st1" d="M16.6,14.5c0.8,0.6,1.4,1.2,2,2c1.1,1.5,1.8,3.2,2,5c0.1,1,0.1,2,0,3"/>
<path class="st1" d="M15.6,104.5c-0.9-0.8-0.5-2.6,0-5c0.6-2.9,1.1-5.1,3-6c1.3-0.5,2.7-0.5,4,0c0.3,0.1,2.6,1.1,3,3
	c0.6,2.6-2.6,5-4,6C21,103,17.1,105.8,15.6,104.5z"/>
<path class="st1" d="M15.6,104.5c-0.3-1.7-2.7-2.7-4-3c-1.7-0.4-3.6,0-5,1c-0.3,0.2-2.4,1.9-2,4c0.4,1.9,2.6,2.8,4,3
	C12,110,15.9,106.9,15.6,104.5z"/>
<path class="st1" d="M16.6,104.5c1.3-0.4,2.7-0.4,4,0c1.2,0.4,2.2,1.1,3,2c1.4,1.4,2.4,3.1,3,5"/>
<path class="st1" d="M17.6,105.5c0.1,1,0.1,2,0,3c-0.1,1.4-0.5,2.7-1,4"/>
<path class="st1" d="M1016.6,13.5c1.3-1.9-1.8-5.7-2-6c-1-1.2-2.8-3.5-5-3c-1.7,0.6-2.9,2.2-3,4c0,1.6,0.8,3,2,4
	C1011.1,14.7,1015.4,15.2,1016.6,13.5z"/>
<path class="st1" d="M1016.6,14.5c-0.1-0.9,1.2-1.8,3-3c2-1.3,3.9-2.6,6-2c1.3,0.4,2.8,1.5,3,3c0.3,2.3-2.8,3.9-3,4
	C1022,18.4,1016.8,16.4,1016.6,14.5z"/>
<path class="st1" d="M1014.6,14.5c-1.5,0.2-2.9,0.9-4,2c-0.8,0.9-1.5,1.9-2,3c-0.5,0.8-0.8,1.5-1,2"/>
<path class="st1" d="M1015.6,14.5c-0.1,0.7-0.1,1.3,0,2c0.1,1.5,0.8,3,2,4c0.9,0.6,1.9,1,3,1"/>
<path class="st1" d="M1015.6,103.5c-1-0.2-1.5-1.9-2-4c-0.6-2.3-1-4,0-5s2.8-0.7,4,0c1.3,0.9,2.1,2.4,2,4
	C1019.5,101.3,1017.1,103.9,1015.6,103.5z"/>
<path class="st1" d="M1016.1,104.5c0.1-1.1,3-1.8,4-2c1-0.3,2-0.3,3,0c0.9,0.3,1.7,1.1,2,2c0.3,1.1-0.1,2.3-1,3
	C1021.8,109.4,1015.9,106.2,1016.1,104.5z"/>
<path class="st1" d="M1014.6,103.5c-1.2,0.4-2.2,1.1-3,2c-1.4,1.4-1.4,3.6,0,5"/>
<path class="st1" d="M1015.6,105.5c0.4,2.2,1.5,4.3,3,6"/>
</svg>
