<svg xmlns="http://www.w3.org/2000/svg" xmlns:xlink="http://www.w3.org/1999/xlink" viewBox="0 0 197.63 539.44"><defs><style>.cls-1,.cls-15{fill:none;}.cls-2{fill:#c3a980;}.cls-3{opacity:0.88;}.cls-4{clip-path:url(#clip-path);}.cls-5{fill:#821b1b;}.cls-6{fill:#9e3b2a;}.cls-7{fill:#8e472b;}.cls-8{fill:#802d20;}.cls-9{fill:#932a28;}.cls-10{fill:#85291b;}.cls-11{fill:#975035;}.cls-12{opacity:0.1;}.cls-12,.cls-13{isolation:isolate;}.cls-13{opacity:0.2;}.cls-14{fill:#d8cec5;stroke-linecap:round;stroke-linejoin:round;}.cls-14,.cls-15{stroke:#000;stroke-width:2px;}.cls-15{stroke-miterlimit:10;}</style><clipPath id="clip-path"><polygon class="cls-1" points="171.67 124.98 38.31 51.49 37.25 505.34 170.71 429.18 171.67 124.98"/></clipPath></defs><title>12</title><g id="Слой_2" data-name="Слой 2"><g id="Слой_1-2" data-name="Слой 1"><polygon class="cls-2" points="171.67 124.98 38.31 51.49 37.26 505.34 170.72 429.18 171.67 124.98"/><g class="cls-3"><g class="cls-4"><path class="cls-5" d="M76.81,44.91c0,2.56-1.57,3.67-3.53,2.47L33.87,23.18a10.34,10.34,0,0,1-4.41-7.94V3.06c0-2.89,2-3.91,4.41-2.29L73.28,27.12a9.28,9.28,0,0,1,3.53,7Z"/><path class="cls-6" d="M116.88,70c0,2.28-1.25,3.37-2.8,2.41L83.2,53.48a8.59,8.59,0,0,1-3.41-6.69V36.08c0-2.54,1.53-3.57,3.41-2.32L114.07,54.4c1.55,1,2.8,3.72,2.8,6Z"/><path class="cls-6" d="M149.08,90.2c0,2.06-1,3.1-2.27,2.33L122,77.28c-1.49-.92-2.71-3.5-2.71-5.77V62c0-2.27,1.22-3.29,2.71-2.29l24.83,16.6c1.26.84,2.27,3.19,2.27,5.25Z"/><path class="cls-6" d="M175.53,106.77c0,1.87-.84,2.88-1.88,2.24L153.2,96.47c-1.22-.75-2.21-3-2.21-5.06V82.79c0-2,1-3,2.21-2.22l20.41,13.64c1,.7,1.88,2.78,1.88,4.65Z"/><path class="cls-6" d="M197.63,120.62c0,1.72-.71,2.68-1.59,2.14L179,112.28c-1-.62-1.84-2.64-1.84-4.5V99.92c0-1.86.83-2.82,1.84-2.14L196,109.19c.88.59,1.59,2.46,1.59,4.18Z"/><path class="cls-6" d="M53.85,54.73c0,2.72-1.77,4-4,2.73L5,32.7a10.64,10.64,0,0,1-5-8.39V11.25C0,8.15,2.29,7,5,8.71l44.84,27.2a9.43,9.43,0,0,1,4,7.34Z"/><path class="cls-6" d="M98.77,80.1c0,2.41-1.39,3.59-3.12,2.64L61.06,63.64a8.7,8.7,0,0,1-3.84-7V45.26c0-2.7,1.73-3.84,3.84-2.55l34.59,21c1.73,1,3.12,3.84,3.12,6.25Z"/><path class="cls-7" d="M134.44,100.24c0,2.16-1.12,3.29-2.51,2.53L104.44,87.59c-1.66-.92-3-3.6-3-6V71.52c0-2.39,1.36-3.5,3-2.5L131.93,85.7c1.39.84,2.51,3.27,2.51,5.43Z"/><path class="cls-8" d="M163.44,116.61c0,2-.92,3-2.06,2.41L139,106.67c-1.34-.74-2.43-3.08-2.43-5.23v-9c0-2.14,1.09-3.22,2.43-2.41l22.37,13.57c1.14.69,2.06,2.84,2.06,4.79Z"/><path class="cls-6" d="M187.48,130.19c0,1.79-.77,2.82-1.72,2.29L167.2,122.23c-1.1-.61-2-2.68-2-4.63v-8.2c0-1.95.9-3,2-2.31l18.56,11.26c1,.58,1.72,2.5,1.72,4.29Z"/><path class="cls-6" d="M76.81,90.48c0,2.56-1.57,3.87-3.53,2.91L33.87,74.06a8.91,8.91,0,0,1-4.41-7.39V54.48c0-2.89,2-4.15,4.41-2.83L73.28,73.12c2,1.07,3.53,4,3.53,6.56Z"/><path class="cls-6" d="M116.88,110.62c0,2.28-1.25,3.52-2.8,2.76L83.2,98.25c-1.87-.92-3.41-3.73-3.41-6.27V81.27c0-2.54,1.53-3.76,3.41-2.74l30.87,16.82c1.55.85,2.8,3.37,2.8,5.66Z"/><path class="cls-6" d="M149.08,126.81c0,2.06-1,3.23-2.27,2.61L122,117.25c-1.49-.73-2.71-3.17-2.71-5.43v-9.55c0-2.27,1.22-3.44,2.71-2.62l24.83,13.53c1.26.69,2.27,2.91,2.27,5Z"/><path class="cls-6" d="M175.53,140.11c0,1.87-.84,3-1.88,2.47l-20.41-10c-1.22-.6-2.21-2.74-2.21-4.79v-8.62c0-2,1-3.16,2.21-2.5l20.41,11.12c1,.57,1.88,2.55,1.88,4.42Z"/><path class="cls-6" d="M197.63,151.22c0,1.72-.71,2.77-1.59,2.34L179,145.19c-1-.5-1.84-2.41-1.84-4.27v-7.85c0-1.86.83-2.92,1.84-2.37L196,140c.88.48,1.59,2.26,1.59,4Z"/><path class="cls-6" d="M53.85,103.14c0,2.72-1.77,4.17-4,3.22L5,87.16a9.13,9.13,0,0,1-5-7.77V66.33c0-3.1,2.27-4.51,5-3.17L49.85,84.81a8.14,8.14,0,0,1,4,6.85Z"/><path class="cls-9" d="M98.77,123c0,2.41-1.39,3.77-3.12,3L61.07,111.15c-2.11-.9-3.84-3.83-3.84-6.53V93.25c0-2.7,1.73-4,3.84-3l34.59,16.7c1.73.83,3.12,3.46,3.12,5.87Z"/><path class="cls-6" d="M134.44,138.66c0,2.16-1.12,3.43-2.51,2.84l-27.49-11.77c-1.66-.71-3-3.23-3-5.62V114c0-2.39,1.36-3.67,3-2.87l27.49,13.27c1.39.67,2.51,3,2.51,5.12Z"/><path class="cls-6" d="M163.44,151.45c0,2-.92,3.15-2.06,2.66L139,144.53c-1.34-.57-2.43-2.78-2.43-4.93v-9c0-2.14,1.09-3.36,2.43-2.71l22.37,10.8c1.14.55,2.06,2.58,2.06,4.54Z"/><path class="cls-8" d="M187.48,162c0,1.79-.77,2.91-1.72,2.51l-18.56-8c-1.1-.47-2-2.44-2-4.38V144c0-1.95.9-3.09,2-2.56l18.56,9c1,.46,1.72,2.28,1.72,4.07Z"/><path class="cls-5" d="M76.81,136c0,2.56-1.57,4.06-3.53,3.34L33.87,125c-2.42-.89-4.41-4-4.41-6.85V105.91c0-2.89,2-4.4,4.41-3.38l39.41,16.59c2,.82,3.53,3.56,3.53,6.12Z"/><path class="cls-7" d="M116.88,151.23c0,2.28-1.25,3.67-2.8,3.11L83.2,143c-1.87-.69-3.41-3.31-3.41-5.85V126.47c0-2.54,1.53-4,3.41-3.17l30.87,13c1.55.65,2.8,3,2.8,5.31Z"/><path class="cls-6" d="M149.08,163.43c0,2.06-1,3.35-2.27,2.89L122,157.22c-1.49-.55-2.71-2.83-2.71-5.1v-9.55c0-2.27,1.22-3.59,2.71-3L146.81,150c1.26.53,2.27,2.63,2.27,4.68Z"/><path class="cls-6" d="M175.53,173.45c0,1.87-.84,3.09-1.88,2.7l-20.45-7.47c-1.22-.45-2.21-2.47-2.21-4.51v-8.62c0-2,1-3.28,2.21-2.77l20.41,8.59c1,.44,1.88,2.31,1.88,4.19Z"/><path class="cls-6" d="M197.63,181.83c0,1.72-.71,2.86-1.59,2.53L179,178.11c-1-.37-1.84-2.18-1.84-4v-7.85c0-1.86.83-3,1.84-2.6L196,170.84c.88.37,1.59,2.06,1.59,3.78Z"/><path class="cls-6" d="M53.85,151.54c0,2.72-1.77,4.39-4,3.71L5,141.6a7.82,7.82,0,0,1-5-7.14V121.41c0-3.1,2.27-4.79,5-3.79l44.84,16.1c2.21.79,4,3.64,4,6.36Z"/><path class="cls-6" d="M98.77,165.79c0,2.41-1.39,3.94-3.12,3.41L61.06,158.67c-2.11-.64-3.84-3.36-3.84-6.05V141.24c0-2.7,1.73-4.26,3.84-3.51l34.59,12.42c1.73.62,3.12,3.07,3.12,5.48Z"/><path class="cls-6" d="M134.44,177.09c0,2.16-1.12,3.57-2.51,3.15l-27.49-8.37c-1.66-.51-3-2.86-3-5.25V156.55c0-2.39,1.36-3.84,3-3.24l27.49,9.87c1.39.5,2.51,2.65,2.51,4.81Z"/><path class="cls-7" d="M163.44,186.29c0,2-.92,3.27-2.06,2.92L139,182.4c-1.34-.41-2.43-2.48-2.43-4.62v-9c0-2.14,1.09-3.49,2.43-3l22.37,8c1.14.41,2.06,2.33,2.06,4.28Z"/><path class="cls-6" d="M187.48,193.91c0,1.79-.77,3-1.72,2.72L167.2,191c-1.1-.34-2-2.19-2-4.13v-8.2c0-1.95.9-3.2,2-2.8l18.56,6.66c1,.34,1.72,2.07,1.72,3.86Z"/><path class="cls-6" d="M76.81,181.61c0,2.56-1.57,4.26-3.53,3.78l-39.41-9.56c-2.42-.59-4.41-3.41-4.41-6.3V157.34c0-2.89,2-4.64,4.41-3.92l39.41,11.71c2,.58,3.53,3.12,3.53,5.69Z"/><path class="cls-6" d="M116.88,191.83c0,2.28-1.25,3.83-2.8,3.45L83.2,187.8c-1.87-.45-3.41-2.89-3.41-5.43V171.66c0-2.54,1.53-4.14,3.41-3.59l30.87,9.17c1.55.46,2.8,2.68,2.8,5Z"/><path class="cls-6" d="M149.08,200c0,2.06-1,3.48-2.27,3.17l-24.83-6c-1.49-.36-2.71-2.49-2.71-4.76v-9.57c0-2.27,1.22-3.74,2.71-3.3l24.83,7.4c1.26.37,2.27,2.34,2.27,4.4Z"/><path class="cls-6" d="M175.53,206.79c0,1.87-.84,3.19-1.88,2.94l-20.45-5c-1.22-.3-2.21-2.19-2.21-4.24v-8.62c0-2,1-3.41,2.21-3L173.61,195c1,.31,1.88,2.08,1.88,4Z"/><path class="cls-6" d="M197.63,212.43c0,1.72-.71,2.94-1.59,2.73L179,211c-1-.25-1.84-2-1.84-3.82v-7.85c0-1.86.83-3.13,1.84-2.83L196,201.56c.88.26,1.59,1.87,1.59,3.59Z"/><path class="cls-6" d="M53.85,200c0,2.72-1.77,4.61-4,4.21L5,196.1a6.69,6.69,0,0,1-5-6.52V176.49c0-3.1,2.27-5.07,5-4.42l44.84,10.54c2.21.52,4,3.14,4,5.86Z"/><path class="cls-6" d="M98.77,208.63c0,2.41-1.39,4.11-3.12,3.8l-34.59-6.25c-2.11-.38-3.84-2.88-3.84-5.58V189.23c0-2.7,1.73-4.48,3.84-4l34.59,8.13c1.73.41,3.12,2.69,3.12,5.09Z"/><path class="cls-6" d="M134.44,215.52c0,2.16-1.12,3.71-2.51,3.46l-27.49-5c-1.66-.3-3-2.48-3-4.87v-10c0-2.39,1.36-4,3-3.62l27.49,6.46c1.39.33,2.51,2.34,2.51,4.5Z"/><path class="cls-6" d="M163.44,221.13c0,2-.92,3.38-2.06,3.17l-22.37-4c-1.34-.24-2.43-2.18-2.43-4.32v-9c0-2.14,1.09-3.63,2.43-3.31l22.37,5.26c1.14.27,2.06,2.07,2.06,4Z"/><path class="cls-5" d="M187.48,225.77c0,1.79-.77,3.1-1.72,2.93l-18.56-3.35c-1.1-.2-2-1.94-2-3.89v-8.2c0-1.95.9-3.31,2-3.05l18.56,4.37c1,.22,1.72,1.86,1.72,3.65Z"/><path class="cls-9" d="M76.81,227.17c0,2.56-1.57,4.45-3.53,4.22l-39.41-4.68c-2.42-.29-4.41-2.87-4.41-5.76V208.77c0-2.89,2-4.89,4.41-4.47l39.41,6.83c2,.34,3.53,2.69,3.53,5.25Z"/><path class="cls-6" d="M116.88,232.43c0,2.28-1.25,4-2.8,3.8L83.2,232.57c-1.87-.22-3.41-2.46-3.41-5V216.86c0-2.54,1.53-4.33,3.41-4l30.87,5.35c1.55.27,2.8,2.33,2.8,4.62Z"/><path class="cls-8" d="M149.08,236.66c0,2.06-1,3.61-2.27,3.46L122,237.17c-1.49-.18-2.71-2.16-2.71-4.42v-9.56c0-2.27,1.22-3.89,2.71-3.63l24.83,4.3c1.26.22,2.27,2.06,2.27,4.12Z"/><path class="cls-6" d="M175.53,240.13c0,1.87-.84,3.29-1.88,3.17l-20.45-2.42c-1.22-.14-2.21-1.92-2.21-4v-8.62c0-2,1-3.53,2.21-3.32l20.41,3.54c1,.18,1.88,1.85,1.88,3.72Z"/><path class="cls-9" d="M197.63,243c0,1.72-.71,3-1.59,2.93l-17.07-2c-1-.12-1.84-1.73-1.84-3.59v-7.84c0-1.86.83-3.23,1.84-3.05l17.07,3c.88.15,1.59,1.67,1.59,3.39Z"/><path class="cls-6" d="M53.85,248.36c0,2.72-1.77,4.83-4,4.7L5,250.51a5.74,5.74,0,0,1-5-5.89v-13c0-3.1,2.27-5.35,5-5l44.84,5c2.21.25,4,2.65,4,5.37Z"/><path class="cls-6" d="M98.77,251.48c0,2.41-1.39,4.28-3.12,4.18l-34.59-2c-2.11-.12-3.84-2.4-3.84-5.1V237.22c0-2.7,1.73-4.69,3.84-4.46l34.59,3.85c1.73.19,3.12,2.3,3.12,4.71Z"/><path class="cls-10" d="M134.44,254c0,2.16-1.12,3.85-2.51,3.77l-27.49-1.56c-1.66-.09-3-2.11-3-4.5V241.59c0-2.39,1.36-4.18,3-4l27.49,3.06c1.39.15,2.51,2,2.51,4.19Z"/><path class="cls-6" d="M163.44,256c0,2-.92,3.49-2.06,3.43L139,258.15c-1.34-.08-2.43-1.88-2.43-4v-9c0-2.14,1.09-3.76,2.43-3.61L161.38,244c1.14.13,2.06,1.82,2.06,3.77Z"/><path class="cls-6" d="M187.48,257.63c0,1.79-.77,3.2-1.72,3.14l-18.56-1.05c-1.1-.06-2-1.69-2-3.64v-8.2c0-1.95.9-3.42,2-3.3l18.56,2.07c1,.11,1.72,1.64,1.72,3.43Z"/><path class="cls-6" d="M76.81,272.74c0,2.56-1.57,4.64-3.53,4.65l-39.41.2c-2.42,0-4.41-2.32-4.41-5.21V260.2c0-2.89,2-5.14,4.41-5l39.41,1.95c2,.1,3.53,2.25,3.53,4.81Z"/><path class="cls-6" d="M116.88,273c0,2.28-1.25,4.14-2.8,4.15l-30.87.16c-1.87,0-3.41-2-3.41-4.58V262c0-2.54,1.53-4.52,3.41-4.43l30.87,1.53c1.55.08,2.8,2,2.8,4.27Z"/><path class="cls-7" d="M149.08,273.28c0,2.06-1,3.73-2.27,3.74l-24.83.13c-1.49,0-2.71-1.82-2.71-4.09v-9.55c0-2.27,1.22-4,2.71-4l24.83,1.23c1.26.06,2.27,1.78,2.27,3.84Z"/><path class="cls-6" d="M175.53,273.48c0,1.87-.84,3.4-1.88,3.4L153.2,277c-1.22,0-2.21-1.65-2.21-3.69v-8.62c0-2,1-3.65,2.21-3.59l20.41,1c1,.05,1.88,1.61,1.88,3.49Z"/><path class="cls-6" d="M197.63,273.64c0,1.72-.71,3.12-1.59,3.12l-17.07.09c-1,0-1.84-1.5-1.84-3.36v-7.85c0-1.86.83-3.33,1.84-3.28l17.07.84c.88,0,1.59,1.47,1.59,3.19Z"/><path class="cls-6" d="M53.85,296.77c0,2.72-1.77,5-4,5.19L5,305c-2.77.19-5-2.17-5-5.27v-13A5.44,5.44,0,0,1,5,281l44.84-.56c2.21,0,4,2.16,4,4.88Z"/><path class="cls-6" d="M98.77,294.32c0,2.41-1.39,4.45-3.12,4.57l-34.59,2.32c-2.11.14-3.84-1.93-3.84-4.63V285.21c0-2.7,1.73-4.91,3.84-4.93l34.59-.43c1.73,0,3.12,1.91,3.12,4.32Z"/><path class="cls-6" d="M134.44,292.38c0,2.16-1.12,4-2.51,4.08l-27.49,1.84c-1.66.11-3-1.73-3-4.12V284.1c0-2.39,1.36-4.34,3-4.36l27.49-.34c1.39,0,2.51,1.72,2.51,3.88Z"/><path class="cls-6" d="M163.44,290.8c0,2-.92,3.61-2.06,3.68L139,296c-1.34.09-2.43-1.58-2.43-3.72v-9c0-2.14,1.09-3.9,2.43-3.91l22.37-.28c1.14,0,2.06,1.56,2.06,3.52Z"/><path class="cls-6" d="M187.48,289.5c0,1.79-.77,3.29-1.72,3.36L167.2,294.1c-1.1.07-2-1.44-2-3.39v-8.2c0-2,.9-3.53,2-3.55l18.56-.23c1,0,1.72,1.43,1.72,3.22Z"/><path class="cls-8" d="M76.81,318.3c0,2.56-1.57,4.84-3.53,5.09l-39.41,5.08c-2.42.31-4.41-1.78-4.41-4.67V311.62c0-2.89,2-5.38,4.41-5.56l39.41-2.93c2-.15,3.53,1.81,3.53,4.37Z"/><path class="cls-6" d="M116.88,313.64c0,2.28-1.25,4.29-2.8,4.49l-30.87,4c-1.87.24-3.41-1.62-3.41-4.16V307.24c0-2.54,1.53-4.71,3.41-4.85l30.87-2.3c1.55-.12,2.8,1.64,2.8,3.92Z"/><path class="cls-9" d="M149.08,309.89c0,2.06-1,3.86-2.27,4L122,317.09c-1.49.19-2.71-1.49-2.71-3.75v-9.55c0-2.27,1.22-4.19,2.71-4.3l24.83-1.85c1.26-.09,2.27,1.5,2.27,3.56Z"/><path class="cls-6" d="M175.53,306.82c0,1.87-.84,3.5-1.88,3.64l-20.45,2.62c-1.22.16-2.21-1.37-2.21-3.42V301c0-2,1-3.78,2.21-3.87l20.41-1.52c1-.08,1.88,1.38,1.88,3.25Z"/><path class="cls-6" d="M197.63,304.25c0,1.72-.71,3.21-1.59,3.32L179,309.77c-1,.13-1.84-1.27-1.84-3.14v-7.85c0-1.86.83-3.43,1.84-3.51L196,294c.88-.07,1.59,1.28,1.59,3Z"/><path class="cls-6" d="M53.85,345.18c0,2.72-1.77,5.26-4,5.69L5,359.43c-2.77.53-5-1.55-5-4.64V341.73a6.33,6.33,0,0,1,5-6.29l44.84-6.11c2.21-.3,4,1.66,4,4.38Z"/><path class="cls-6" d="M98.77,337.17c0,2.41-1.39,4.63-3.12,5l-34.59,6.6c-2.11.4-3.84-1.45-3.84-4.15V333.2c0-2.7,1.73-5.12,3.84-5.41l34.59-4.71c1.73-.24,3.12,1.53,3.12,3.94Z"/><path class="cls-6" d="M134.44,330.81c0,2.16-1.12,4.12-2.51,4.39l-27.49,5.25c-1.66.32-3-1.36-3-3.75V326.62c0-2.39,1.36-4.51,3-4.74l27.49-3.75c1.39-.19,2.51,1.41,2.51,3.57Z"/><path class="cls-6" d="M163.44,325.64c0,2-.92,3.72-2.06,3.94L139,333.85c-1.34.26-2.43-1.27-2.43-3.42v-9c0-2.14,1.09-4,2.43-4.22l22.37-3c1.14-.16,2.06,1.31,2.06,3.26Z"/><path class="cls-6" d="M187.48,321.36c0,1.79-.77,3.39-1.72,3.57l-18.56,3.54c-1.1.21-2-1.2-2-3.14v-8.2c0-2,.9-3.65,2-3.8l18.56-2.53c1-.13,1.72,1.22,1.72,3Z"/><path class="cls-6" d="M76.81,363.87c0,2.56-1.57,5-3.53,5.53l-39.41,10c-2.42.61-4.41-1.23-4.41-4.12V363c0-2.89,2-5.63,4.41-6.11l39.41-7.81c2-.39,3.53,1.38,3.53,3.94Z"/><path class="cls-7" d="M116.88,354.24c0,2.28-1.25,4.45-2.8,4.84L83.2,366.89c-1.87.47-3.41-1.2-3.41-3.74V352.44c0-2.54,1.53-4.9,3.41-5.27L114.07,341c1.55-.31,2.8,1.3,2.8,3.58Z"/><path class="cls-6" d="M149.08,346.51c0,2.06-1,4-2.27,4.3L122,357.09c-1.49.38-2.71-1.15-2.71-3.42v-9.55c0-2.27,1.22-4.34,2.71-4.64l24.83-4.92c1.26-.25,2.27,1.22,2.27,3.28Z"/><path class="cls-5" d="M175.53,340.16c0,1.87-.84,3.61-1.88,3.87l-20.45,5.16c-1.22.31-2.21-1.1-2.21-3.14v-8.62c0-2,1-3.9,2.21-4.14l20.41-4c1-.21,1.88,1.15,1.88,3Z"/><path class="cls-6" d="M197.63,334.85c0,1.72-.71,3.29-1.59,3.52L179,342.68c-1,.26-1.84-1-1.84-2.91v-7.85c0-1.86.83-3.54,1.84-3.74L196,324.8c.88-.17,1.59,1.08,1.59,2.8Z"/><path class="cls-6" d="M53.85,393.59c0,2.72-1.77,5.48-4,6.18L5,413.88c-2.77.87-5-.92-5-4V396.81a7.4,7.4,0,0,1,5-6.92l44.84-11.66c2.21-.58,4,1.17,4,3.89Z"/><path class="cls-6" d="M98.77,380c0,2.41-1.39,4.8-3.12,5.34L61.06,396.21c-2.11.66-3.84-1-3.84-3.68V381.19c0-2.7,1.73-5.33,3.84-5.88l34.59-9c1.73-.45,3.12,1.14,3.12,3.55Z"/><path class="cls-6" d="M134.44,369.24c0,2.16-1.12,4.26-2.51,4.7l-27.49,8.65c-1.66.52-3-1-3-3.38V369.14c0-2.39,1.36-4.68,3-5.11l27.49-7.15c1.39-.36,2.51,1.1,2.51,3.26Z"/><path class="cls-6" d="M163.44,360.48c0,2-.92,3.83-2.06,4.19l-22.37,7c-1.34.42-2.43-1-2.43-3.12v-9c0-2.14,1.09-4.17,2.43-4.52l22.37-5.82c1.14-.3,2.06,1,2.06,3Z"/><path class="cls-6" d="M187.48,353.22c0,1.79-.77,3.48-1.72,3.78l-18.56,5.84c-1.1.35-2-1-2-2.89v-8.2c0-2,.9-3.76,2-4l18.56-4.83c1-.25,1.72,1,1.72,2.79Z"/><path class="cls-6" d="M76.81,409.43c0,2.56-1.57,5.23-3.53,6L33.87,430.27c-2.42.91-4.41-.68-4.41-3.57V414.48c0-2.89,2-5.87,4.41-6.65l39.41-12.69c2-.63,3.53.94,3.53,3.5Z"/><path class="cls-6" d="M116.88,394.85c0,2.28-1.25,4.6-2.8,5.19L83.2,411.66c-1.87.71-3.41-.78-3.41-3.32V397.63c0-2.54,1.53-5.09,3.41-5.7L114.08,382c1.55-.5,2.8,1,2.8,3.23Z"/><path class="cls-6" d="M149.08,383.12c0,2.06-1,4.11-2.27,4.58L122,397c-1.49.56-2.71-.81-2.71-3.08v-9.55c0-2.27,1.22-4.49,2.71-5l24.83-8c1.26-.41,2.27.94,2.27,3Z"/><path class="cls-6" d="M175.53,373.5c0,1.87-.84,3.71-1.88,4.1l-20.45,7.69c-1.22.46-2.21-.82-2.21-2.87V373.8c0-2,1-4,2.21-4.41l20.41-6.57c1-.34,1.88.91,1.88,2.79Z"/><path class="cls-9" d="M197.63,365.45c0,1.72-.71,3.38-1.59,3.71L179,375.59c-1,.38-1.84-.82-1.84-2.68v-7.85c0-1.86.83-3.64,1.84-4l17.07-5.5c.88-.28,1.59.88,1.59,2.6Z"/><path class="cls-9" d="M53.85,442c0,2.72-1.77,5.7-4,6.67L5,468.32c-2.77,1.22-5-.3-5-3.39v-13a8.64,8.64,0,0,1,5-7.54l44.84-17.22c2.21-.85,4,.68,4,3.4Z"/><path class="cls-6" d="M98.77,422.86c0,2.41-1.39,5-3.12,5.73L61.06,443.76c-2.11.93-3.84-.5-3.84-3.2V429.18c0-2.7,1.73-5.55,3.84-6.36l34.59-13.28c1.73-.66,3.12.75,3.12,3.16Z"/><path class="cls-10" d="M134.44,407.67c0,2.16-1.12,4.4-2.51,5l-27.49,12c-1.66.73-3-.61-3-3V411.66c0-2.39,1.36-4.85,3-5.49l27.49-10.56c1.39-.53,2.51.79,2.51,3Z"/><path class="cls-9" d="M163.44,395.32c0,2-.92,4-2.06,4.45L139,409.58c-1.34.59-2.43-.67-2.43-2.82v-9c0-2.14,1.09-4.3,2.43-4.82l22.37-8.59c1.14-.44,2.06.8,2.06,2.76Z"/><path class="cls-6" d="M187.48,385.08c0,1.79-.77,3.58-1.72,4l-18.56,8.14c-1.1.48-2-.7-2-2.64v-8.2c0-2,.9-3.87,2-4.29l18.56-7.1c1-.37,1.72.79,1.72,2.58Z"/><path class="cls-6" d="M76.81,455c0,2.56-1.57,5.42-3.53,6.4L33.87,481.11c-2.42,1.21-4.41-.14-4.41-3v-12.2a8.45,8.45,0,0,1,4.41-7.2l39.41-17.57c2-.87,3.53.5,3.53,3.06Z"/><path class="cls-6" d="M116.88,435.45c0,2.28-1.25,4.76-2.8,5.53L83.2,456.43c-1.87.94-3.41-.35-3.41-2.89V442.83c0-2.54,1.53-5.28,3.41-6.12L114.08,423c1.55-.69,2.8.6,2.8,2.88Z"/><path class="cls-6" d="M149.08,419.74c0,2.06-1,4.23-2.27,4.86L122,437c-1.49.75-2.71-.48-2.71-2.74V424.7c0-2.27,1.22-4.65,2.71-5.31l24.83-11.07c1.26-.56,2.27.65,2.27,2.71Z"/><path class="cls-6" d="M175.53,406.84c0,1.87-.84,3.81-1.88,4.34L153.2,421.39c-1.22.61-2.21-.55-2.21-2.6v-8.62c0-2,1-4.14,2.21-4.69l20.41-9.1c1-.47,1.88.68,1.88,2.55Z"/><path class="cls-6" d="M197.63,396.06c0,1.72-.71,3.47-1.59,3.91L179,408.51c-1,.51-1.84-.59-1.84-2.45v-7.85c0-1.86.83-3.74,1.84-4.19L196,386.41c.88-.39,1.59.69,1.59,2.41Z"/><path class="cls-6" d="M53.85,490.4a9,9,0,0,1-4,7.17L5,522.78c-2.77,1.56-5,.33-5-2.77V507a10.08,10.08,0,0,1,5-8.17L49.86,476c2.21-1.12,4,.18,4,2.9Z"/><path class="cls-8" d="M98.77,465.71c0,2.41-1.39,5.14-3.12,6.11L61.06,491.27c-2.11,1.19-3.84,0-3.84-2.73V477.17c0-2.7,1.73-5.76,3.84-6.83l34.59-17.56c1.73-.88,3.12.37,3.12,2.78Z"/><path class="cls-6" d="M134.44,446.1c0,2.16-1.12,4.54-2.51,5.32l-27.49,15.46c-1.66.93-3-.24-3-2.63V454.17c0-2.39,1.36-5,3-5.86l27.49-14c1.39-.71,2.51.48,2.51,2.64Z"/><path class="cls-6" d="M163.44,430.16c0,2-.92,4.06-2.06,4.7L139,447.44c-1.34.75-2.43-.37-2.43-2.52v-9c0-2.14,1.09-4.44,2.43-5.12l22.37-11.36c1.14-.58,2.06.54,2.06,2.5Z"/><path class="cls-10" d="M187.48,417c0,1.79-.77,3.67-1.72,4.21L167.2,431.59c-1.1.62-2-.45-2-2.4V421c0-2,.9-4,2-4.54L185.76,407c1-.48,1.72.58,1.72,2.37Z"/><path class="cls-6" d="M76.81,500.56a8.83,8.83,0,0,1-3.53,6.84L33.87,532c-2.42,1.51-4.41.41-4.41-2.48V517.34a9.81,9.81,0,0,1,4.41-7.74l39.41-22.45c2-1.12,3.53.07,3.53,2.63Z"/><path class="cls-6" d="M116.88,476c0,2.28-1.25,4.91-2.8,5.88L83.2,501.2c-1.87,1.17-3.41.07-3.41-2.47V488c0-2.54,1.53-5.47,3.41-6.54l30.87-17.59c1.55-.88,2.8.26,2.8,2.54Z"/><path class="cls-11" d="M149.08,456.36c0,2.06-1,4.36-2.27,5.15L122,477c-1.49.93-2.71-.14-2.71-2.41V465c0-2.27,1.22-4.8,2.71-5.65l24.83-14.15c1.26-.72,2.27.37,2.27,2.43Z"/><path class="cls-6" d="M175.53,440.18c0,1.87-.84,3.92-1.88,4.57L153.2,457.49c-1.22.76-2.21-.28-2.21-2.32v-8.62c0-2,1-4.27,2.21-5L173.64,430c1-.59,1.88.45,1.88,2.32Z"/><path class="cls-6" d="M197.63,426.66c0,1.72-.71,3.56-1.59,4.11L179,441.43c-1,.63-1.84-.36-1.84-2.23v-7.85c0-1.86.83-3.84,1.84-4.42L196,417.2c.88-.5,1.59.49,1.59,2.21Z"/><path class="cls-6" d="M98.77,508.55a8.68,8.68,0,0,1-3.12,6.5L61.06,538.78c-2.11,1.45-3.84.45-3.84-2.25V525.16a9.54,9.54,0,0,1,3.84-7.31L95.65,496c1.73-1.09,3.12,0,3.12,2.39Z"/><path class="cls-6" d="M134.44,484.53c0,2.16-1.12,4.68-2.51,5.63L104.44,509c-1.66,1.14-3,.13-3-2.26v-10c0-2.39,1.36-5.18,3-6.23l27.49-17.36c1.39-.88,2.51.17,2.51,2.33Z"/><path class="cls-6" d="M163.44,465c0,2-.92,4.18-2.06,5L139,485.31c-1.34.92-2.43-.07-2.43-2.21v-9c0-2.14,1.09-4.57,2.43-5.42l22.37-14.13c1.14-.72,2.06.29,2.06,2.25Z"/><path class="cls-6" d="M187.48,448.8c0,1.79-.77,3.77-1.72,4.42L167.2,466c-1.1.76-2-.2-2-2.15v-8.2c0-2,.9-4.09,2-4.79l18.56-11.73c1-.6,1.72.36,1.72,2.16Z"/></g></g><path class="cls-12" d="M145.55,325.5c0,1.37-.68,2.61-1.52,2.75s-1.54-.85-1.54-2.24.69-2.62,1.54-2.76S145.55,324.13,145.55,325.5Z"/><path class="cls-12" d="M103.62,271.35c0,1.57-.88,2.83-2,2.83s-2-1.29-2-2.88.9-2.85,2-2.83S103.62,269.78,103.62,271.35Z"/><path class="cls-13" d="M49.32,239.73A1.38,1.38,0,0,1,48,241.27a1.7,1.7,0,0,1-1.34-1.78c0-.92.6-1.61,1.34-1.54A1.7,1.7,0,0,1,49.32,239.73Z"/><path class="cls-13" d="M125.95,406.28a1.9,1.9,0,0,1-.87,1.69c-.48.2-.87-.24-.87-1a1.9,1.9,0,0,1,.87-1.69C125.56,405.11,125.95,405.55,125.95,406.28Z"/><path class="cls-13" d="M107,184.39c0,.78-.43,1.3-1,1.15a1.73,1.73,0,0,1-1-1.68c0-.78.44-1.3,1-1.15A1.73,1.73,0,0,1,107,184.39Z"/><path class="cls-13" d="M159.84,129.93c0,.66-.31,1-.69.84a1.85,1.85,0,0,1-.69-1.55c0-.66.31-1,.69-.84A1.86,1.86,0,0,1,159.84,129.93Z"/><path class="cls-14" d="M30.2,37V514l145-83.4V120.39Zm138.3,388.5L44,493.09V57.88l124.5,67.6Z"/><line class="cls-15" x1="43.7" y1="57.49" x2="30.7" y2="36.49"/><line class="cls-15" x1="168.7" y1="125.49" x2="175.7" y2="120.49"/><line class="cls-15" x1="168.7" y1="425.49" x2="175.7" y2="430.49"/><line class="cls-15" x1="43.7" y1="493.49" x2="30.7" y2="513.49"/></g></g></svg>