<svg xmlns="http://www.w3.org/2000/svg" viewBox="0 0 59.78 57.12"><defs><style>.cls-1{fill:#0091b5;}.cls-2{fill:#ed3a4f;}.cls-3{fill:#fdb913;}</style></defs><title>1</title><g id="Слой_2" data-name="Слой 2"><g id="Слой_1-2" data-name="Слой 1"><g id="Слой_2-2" data-name="Слой 2"><g id="Layer_1" data-name="Layer 1"><polygon class="cls-1" points="10.93 53.44 20.52 54.23 16.41 45.53 10.93 53.44"/><polygon class="cls-1" points="35.08 27.15 30.12 25 30.74 30.36 35.08 27.15"/><polygon class="cls-1" points="59.78 51.99 52.94 50.41 55 57.12 59.78 51.99"/><polygon class="cls-2" points="18.91 7.84 13.22 6.65 15.03 12.17 18.91 7.84"/><polygon class="cls-2" points="48.88 21.53 44.85 14.47 40.75 21.49 48.88 21.53"/><polygon class="cls-3" points="42.22 54.37 43.73 48.32 37.73 50.04 42.22 54.37"/><path class="cls-2" d="M7.92,11c-2,.41-3.87,1.85-5.43,3S0,16.15,0,18s.14,3,1.56,4.26c1.75,1.61,4.27,2.66,4.31,5.38V25.58c-.31,2.57-4,2.85-4.06,5.37a17.89,17.89,0,0,0,0,2.47c.25,2,2.69,2.42,2.76,4.63V35.84a8,8,0,0,1-2,4.05c-.37.46.36,1.8,0,2.24a8.12,8.12,0,0,0,2-5.71A3.38,3.38,0,0,0,3.92,34C3.12,33,2,32.6,1.81,31.2v2.09c0-1.69,1.76-2.41,2.91-3.33s1.17-2.16,1.16-3.52a5.15,5.15,0,0,0-1.73-4.3C2.59,20.69.09,19.69,0,17.28q0,1.1,0,2.21c.22-1.75,2-2.93,3.34-3.88a13.07,13.07,0,0,1,4.57-2.4c.17,0-.13-2.22,0-2.24Z"/><circle class="cls-2" cx="37.59" cy="29.58" r="1.07"/><circle class="cls-2" cx="46.66" cy="50.66" r="0.47"/><circle class="cls-1" cx="25.03" cy="13.51" r="0.66"/><circle class="cls-1" cx="50.38" cy="46.43" r="0.63"/><circle class="cls-3" cx="8.82" cy="54.84" r="0.61"/><circle class="cls-3" cx="20.01" cy="23.97" r="1.13"/><circle class="cls-3" cx="41.36" cy="15.02" r="1.17"/><circle class="cls-3" cx="58.07" cy="14.8" r="0.89"/><polygon class="cls-2" points="14.27 8.19 9.17 13.09 15.96 15.06 14.27 8.19"/><polygon class="cls-2" points="32.42 13.68 33.18 5.33 25.56 8.84 32.42 13.68"/><polygon class="cls-2" points="44.62 0 39.19 0.37 42.23 4.89 44.62 0"/></g></g></g></g></svg>