<svg xmlns="http://www.w3.org/2000/svg" xmlns:xlink="http://www.w3.org/1999/xlink" viewBox="0 0 163.38 212.71"><defs><style>.cls-1{fill:none;}.cls-2{fill:#0091b5;}.cls-3{fill:#ed3a4f;}.cls-4{fill:#fdb913;}.cls-5{clip-path:url(#clip-path);}.cls-6{fill:#69c400;}</style><clipPath id="clip-path"><rect id="_Обтравочный_контур_" data-name="&lt;Обтравочный контур&gt;" class="cls-1" x="25.96" y="16.63" width="288" height="288"/></clipPath></defs><title>confetti</title><g id="Слой_2" data-name="Слой 2"><g id="Layer_1" data-name="Layer 1"><polygon class="cls-2" points="66.03 191.36 72.09 186.22 64.61 183.53 66.03 191.36"/><polygon class="cls-2" points="53.73 164.25 49.13 166.63 53.48 169.42 53.73 164.25"/><polygon class="cls-2" points="50.88 148.4 60.84 151.22 58.3 141.19 50.88 148.4"/><polygon class="cls-2" points="96.45 111.25 95.77 102.48 88.51 107.45 96.45 111.25"/><polygon class="cls-2" points="52.17 99.13 49.06 93.1 45.4 98.81 52.17 99.13"/><polygon class="cls-2" points="54.57 55.81 48.77 63.19 58.06 64.52 54.57 55.81"/><polygon class="cls-2" points="80.87 57.94 86.99 52.96 79.62 50.15 80.87 57.94"/><polygon class="cls-2" points="98.34 82.75 107.93 83.54 103.82 74.84 98.34 82.75"/><polygon class="cls-2" points="122.49 56.46 117.53 54.31 118.15 59.67 122.49 56.46"/><polygon class="cls-2" points="147.19 81.3 140.35 79.72 142.41 86.43 147.19 81.3"/><polygon class="cls-3" points="57.33 184.96 52.81 178.61 49.57 185.7 57.33 184.96"/><polygon class="cls-3" points="72.98 157.08 69.18 152.07 66.74 157.87 72.98 157.08"/><polygon class="cls-3" points="54.53 117.78 44.6 120.25 51.7 127.61 54.53 117.78"/><polygon class="cls-3" points="125.48 98.42 123.21 93.02 119.68 97.69 125.48 98.42"/><polygon class="cls-3" points="56.24 86.42 62.05 84.95 57.87 80.66 56.24 86.42"/><polygon class="cls-3" points="45.51 85.49 43.48 76.35 36.58 82.68 45.51 85.49"/><polygon class="cls-3" points="128.08 128.1 124.56 119.37 118.76 126.78 128.08 128.1"/><polygon class="cls-3" points="57.77 46.33 62.9 52.69 65.85 45.07 57.77 46.33"/><polygon class="cls-3" points="106.32 37.15 100.63 35.96 102.44 41.48 106.32 37.15"/><polygon class="cls-3" points="136.29 50.84 132.26 43.78 128.16 50.8 136.29 50.84"/><polygon class="cls-3" points="73.31 115.39 80.29 119.39 80.26 111.34 73.31 115.39"/><polygon class="cls-3" points="65.04 206.66 57.28 205.32 60 212.71 65.04 206.66"/><polygon class="cls-4" points="79.53 82.37 84.53 77.12 77.48 75.42 79.53 82.37"/><polygon class="cls-4" points="161.48 46.04 158.3 50.07 163.38 50.81 161.48 46.04"/><polygon class="cls-4" points="156.27 83.9 152.34 88.02 157.87 89.37 156.27 83.9"/><polygon class="cls-4" points="129.63 83.68 131.14 77.63 125.14 79.35 129.63 83.68"/><polygon class="cls-4" points="108.53 94.24 118.08 94.56 113.58 86.13 108.53 94.24"/><polygon class="cls-4" points="36.5 110.35 44.67 113.55 43.35 104.88 36.5 110.35"/><polygon class="cls-4" points="103.73 133.74 105.57 128.57 100.17 129.56 103.73 133.74"/><polygon class="cls-4" points="57.74 55.78 53.21 50.87 51.22 57.26 57.74 55.78"/><polygon class="cls-4" points="73.21 140.33 63.56 138.08 66.43 147.55 73.21 140.33"/><polygon class="cls-4" points="73.05 170.23 79.2 165 71.61 162.29 73.05 170.23"/><polygon class="cls-4" points="126.83 106.86 130.96 102.24 124.89 100.97 126.83 106.86"/><polygon class="cls-4" points="89.2 195.74 80.7 198.26 87.14 204.36 89.2 195.74"/><polygon class="cls-4" points="39.22 195.48 44.82 200.74 46.57 193.26 39.22 195.48"/><polygon class="cls-4" points="89.23 168.62 95.2 164.31 88.48 161.3 89.23 168.62"/><path class="cls-2" d="M85.24,115.07A13.72,13.72,0,0,1,90.72,119a5.8,5.8,0,0,1,1.09,4.12c0,3.94-5.31,4.41-5.59,8q0-.87,0-1.73c.18,3.44,4.38,4,6.3,6.12.61.68,1.31,2.57.51,3.38s-2,1.17-2.77,2.09c-1.12,1.26-.66,1.9-.38,3.46a10.39,10.39,0,0,1-.23,4.9c.18-.52-.18-1.23,0-1.76.59-1.71-.24-3.85-.22-5.72a4.31,4.31,0,0,1,1.19-3c.5-.56,2.58-1.34,2.63-2.11q0,.87,0,1.73c-.67-2.37-3.84-3.06-5.54-4.42-1.38-1.11-1.51-2.62-1.5-4.22,0-3.76,5.5-4.28,5.59-8.12q0,.87,0,1.73c-.31-3.22-3.85-5.39-6.56-6.5-.22-.09.19-1.68,0-1.76Z"/><path class="cls-3" d="M106.38,100.75c4.3-1.24,6.44,4.19,4.54,7.4a4,4,0,0,1-4.8,1.45c-.77-.37-.54-1.83-.46-2.52s1.25-1.25,1.9-1.37a5.52,5.52,0,0,1,3.09.6c1.56.68,3.46,2.14,3.49,4,0,1.58,0,2.76-1.21,4a7.79,7.79,0,0,1-6.21,2.16c-.1,0,.08-1.67,0-1.69a7.77,7.77,0,0,0,5-1.21,6.23,6.23,0,0,0,2-1.77c.34-.47.25-1.32.43-.42a3.22,3.22,0,0,0-.54-1.09,7.48,7.48,0,0,0-4.28-2.74c-1.16-.31-3.42-.15-3.6,1.43v-1.69c.17,1.16,2,1,2.82.83a3.82,3.82,0,0,0,3.06-3.43q0,.79,0,1.57a4,4,0,0,0-5.13-3.8c.14,0-.16-1.64,0-1.69Z"/><path class="cls-3" d="M71.86,69.41a3.86,3.86,0,0,0-1.7,4.15c.38,1.79,1.89,3.13,2.16,4.88.13.87.24,1.75.3,2.63.09,1.25-.71,1.53-1.6,2.17-3,2.15-1.29,5.41-1,8.35a16.25,16.25,0,0,1-1.81,9.6c.22-.44-.41-1.3-.19-1.75a18,18,0,0,0,2-5.87c.23-2-.54-3.81-.84-5.72-.4-2.54-.4-4.91,1.92-6.56,1.16-.82,1.61-1.13.85-2.52a12.06,12.06,0,0,1-1.78-4.41c-.3-2.28-.87-5.33,1.5-6.69-.19.11.41,1.63.19,1.75Z"/><path class="cls-4" d="M39.23,143.77c2.63.55,5.16,2.46,7.25,4.06s3.32,2.93,3.32,5.43-.19,3.94-2.08,5.68c-2.33,2.14-5.7,3.55-5.75,7.18q0-1.4,0-2.79c.42,3.43,5.36,3.8,5.42,7.16a23.9,23.9,0,0,1,0,3.29C47.06,176.5,43.8,177,43.7,180q0-1.47,0-2.94a10.73,10.73,0,0,0,2.73,5.41c.5.61-.48,2.41,0,3a10.84,10.84,0,0,1-2.74-7.66,4.5,4.5,0,0,1,.9-3.25c1.07-1.34,2.58-1.85,2.81-3.72q0,1.39,0,2.79c0-2.26-2.35-3.22-3.88-4.44s-1.56-2.88-1.55-4.7a6.88,6.88,0,0,1,2.31-5.74c2.06-1.88,5.42-3.29,5.53-6.48q0,1.47,0,2.94c-.29-2.33-2.7-3.91-4.46-5.18a17.44,17.44,0,0,0-6.1-3.2c-.22,0,.18-3,0-3Z"/><path class="cls-3" d="M95.33,40.27c-2,.41-3.87,1.85-5.43,3s-2.48,2.19-2.49,4.07.14,3,1.56,4.26c1.75,1.61,4.27,2.66,4.31,5.38q0-1,0-2.09c-.31,2.57-4,2.85-4.06,5.37a17.89,17.89,0,0,0,0,2.47c.25,2,2.69,2.42,2.76,4.63q0-1.1,0-2.21a8,8,0,0,1-2,4.05c-.37.46.36,1.8,0,2.24A8.12,8.12,0,0,0,92,65.73a3.38,3.38,0,0,0-.67-2.43c-.8-1-1.93-1.39-2.11-2.79q0,1,0,2.09c0-1.69,1.76-2.41,2.91-3.33s1.17-2.16,1.16-3.52a5.15,5.15,0,0,0-1.73-4.3C90,50,87.5,49,87.42,46.59q0,1.1,0,2.21c.22-1.75,2-2.93,3.34-3.88a13.07,13.07,0,0,1,4.57-2.4c.17,0-.13-2.22,0-2.24Z"/><circle class="cls-3" cx="84.6" cy="186.68" r="0.66"/><circle class="cls-3" cx="57.71" cy="169.04" r="1.08"/><circle class="cls-3" cx="80.96" cy="149.68" r="1.16"/><circle class="cls-3" cx="75.61" cy="126.2" r="0.88"/><circle class="cls-3" cx="74.82" cy="120.81" r="1.1"/><circle class="cls-3" cx="76.06" cy="106.43" r="0.76"/><circle class="cls-3" cx="65.21" cy="65.62" r="0.74"/><circle class="cls-3" cx="91.38" cy="75.84" r="0.81"/><circle class="cls-3" cx="87.26" cy="46.13" r="0.57"/><circle class="cls-3" cx="125" cy="58.89" r="1.07"/><circle class="cls-3" cx="134.07" cy="79.97" r="0.47"/><circle class="cls-3" cx="156.05" cy="41.76" r="0.64"/><circle class="cls-2" cx="46.5" cy="207.16" r="0.51"/><circle class="cls-2" cx="72.68" cy="176.77" r="0.79"/><circle class="cls-2" cx="41.1" cy="148" r="0.72"/><circle class="cls-2" cx="48.77" cy="136.68" r="0.48"/><circle class="cls-2" cx="76.78" cy="133.37" r="0.45"/><circle class="cls-2" cx="88.66" cy="110.15" r="1.23"/><circle class="cls-2" cx="85.18" cy="93.36" r="0.58"/><circle class="cls-2" cx="91.71" cy="56.59" r="0.51"/><circle class="cls-2" cx="112.44" cy="42.82" r="0.66"/><circle class="cls-2" cx="137.79" cy="75.74" r="0.63"/><circle class="cls-4" cx="47.9" cy="208.28" r="0.99"/><circle class="cls-4" cx="49.07" cy="182.23" r="1.15"/><circle class="cls-4" cx="37.74" cy="158.1" r="0.73"/><circle class="cls-4" cx="48.02" cy="146.5" r="0.61"/><circle class="cls-4" cx="48.44" cy="127.07" r="1.05"/><circle class="cls-4" cx="64.31" cy="106.83" r="1.23"/><circle class="cls-4" cx="70.07" cy="83.81" r="1.17"/><circle class="cls-4" cx="96.23" cy="84.15" r="0.61"/><circle class="cls-4" cx="107.42" cy="53.28" r="1.13"/><circle class="cls-4" cx="128.77" cy="44.33" r="1.17"/><circle class="cls-4" cx="145.48" cy="44.11" r="0.89"/><g class="cls-5"><polygon class="cls-3" points="7.03 171.34 0 172.22 4.28 177.88 7.03 171.34"/><polygon class="cls-3" points="47.4 153.5 44.8 157.24 49.34 157.63 47.4 153.5"/><polygon class="cls-3" points="40.42 144.52 36.11 146.2 39.73 149.09 40.42 144.52"/><polygon class="cls-3" points="15.07 114.93 16.34 110.43 11.81 111.57 15.07 114.93"/><polygon class="cls-3" points="35.96 104.6 40.92 110.02 43.13 103.01 35.96 104.6"/><polygon class="cls-3" points="15.07 90.48 8.85 93.08 14.21 97.17 15.07 90.48"/><polygon class="cls-3" points="32.93 90.2 29.35 84.78 26.45 90.59 32.93 90.2"/><polygon class="cls-3" points="44.88 79.16 48.36 73.51 41.73 73.32 44.88 79.16"/><polygon class="cls-3" points="57.19 58.11 59.63 54.03 54.87 53.96 57.19 58.11"/><polygon class="cls-3" points="79.7 59.25 72.41 56.82 73.95 64.35 79.7 59.25"/><polygon class="cls-3" points="56.49 13.18 53.65 16.71 58.13 17.41 56.49 13.18"/><polygon class="cls-3" points="101.68 37.5 96.58 42.4 103.37 44.37 101.68 37.5"/><polygon class="cls-3" points="119.83 42.99 120.59 34.64 112.97 38.15 119.83 42.99"/><polygon class="cls-3" points="132.03 29.31 126.6 29.68 129.64 34.2 132.03 29.31"/><polygon class="cls-3" points="139.66 3.92 132.44 2.91 135.18 9.67 139.66 3.92"/><polygon class="cls-3" points="149.97 8.01 145.04 11.89 150.86 14.22 149.97 8.01"/><polygon class="cls-3" points="160.56 10.84 156.99 6.11 154.68 11.57 160.56 10.84"/><polygon class="cls-2" points="94.45 202.3 92.64 196.25 88.3 200.84 94.45 202.3"/><polygon class="cls-2" points="99.83 188.79 93.61 189.44 97.27 194.5 99.83 188.79"/><polygon class="cls-2" points="40.89 178.7 35.52 174.85 34.87 181.42 40.89 178.7"/><polygon class="cls-2" points="50.52 155.53 43.01 154.49 45.86 161.51 50.52 155.53"/><polygon class="cls-2" points="64.78 141.29 61.87 144.21 65.86 145.28 64.78 141.29"/><polygon class="cls-2" points="54.25 127.44 51.75 122.31 48.55 127.04 54.25 127.44"/><polygon class="cls-2" points="84.97 112.69 85.42 105.02 78.55 108.47 84.97 112.69"/><polygon class="cls-2" points="87.68 96.02 92.97 91.4 86.33 89.13 87.68 96.02"/><polygon class="cls-2" points="44.12 87.35 37.03 88.18 41.29 93.91 44.12 87.35"/><polygon class="cls-2" points="82.67 66.67 80 62.63 77.83 66.96 82.67 66.67"/><polygon class="cls-2" points="47.11 48.83 51.01 54.55 54.01 48.32 47.11 48.83"/><polygon class="cls-2" points="44.07 30.29 51.59 27.06 45.03 22.16 44.07 30.29"/><polygon class="cls-2" points="70.31 31.41 73.58 25.64 66.95 25.69 70.31 31.41"/><polygon class="cls-2" points="151.51 8.46 146.99 7.41 148.34 11.85 151.51 8.46"/><polygon class="cls-6" points="46.71 175.97 41.88 177.66 45.77 181 46.71 175.97"/><polygon class="cls-6" points="29.43 165.99 34.19 160.23 26.82 158.99 29.43 165.99"/><polygon class="cls-6" points="10.08 158.22 2.93 161.6 9.44 166.1 10.08 158.22"/><polygon class="cls-6" points="7.38 138 3.13 134.32 2.06 139.84 7.38 138"/><polygon class="cls-6" points="32.15 115.64 35.16 119.99 37.42 115.21 32.15 115.64"/><polygon class="cls-6" points="6.26 96.92 10.61 101.69 12.56 95.53 6.26 96.92"/><polygon class="cls-6" points="32.76 75.55 37.91 82.21 41.1 74.42 32.76 75.55"/><polygon class="cls-6" points="4.4 48.28 7.22 43.03 1.26 43.21 4.4 48.28"/><polygon class="cls-6" points="38.13 50.26 40.12 44.06 33.76 45.43 38.13 50.26"/><polygon class="cls-6" points="19.21 23.72 14.4 23.86 16.93 27.95 19.21 23.72"/><polygon class="cls-6" points="62.81 40.61 60.21 37 58.38 41.05 62.81 40.61"/><polygon class="cls-6" points="54.79 33.87 59.29 27.77 51.75 26.91 54.79 33.87"/><polygon class="cls-6" points="70.26 31.9 71.31 25.86 65.56 27.97 70.26 31.9"/><polygon class="cls-6" points="63.7 7.97 67.22 1.12 59.52 1.5 63.7 7.97"/><polygon class="cls-6" points="150.64 2.21 145.14 0 145.97 5.88 150.64 2.21"/><polygon class="cls-4" points="154.95 8.24 157.45 1.66 150.51 2.78 154.95 8.24"/><polygon class="cls-4" points="116.22 11.64 111.95 17.59 119.24 18.32 116.22 11.64"/><polygon class="cls-4" points="105.11 27.02 101.26 27.58 103.67 30.64 105.11 27.02"/><polygon class="cls-4" points="65.09 8.16 61.33 1.62 57.55 8.15 65.09 8.16"/><polygon class="cls-4" points="79.59 42.46 71.75 40.58 74.04 48.31 79.59 42.46"/><polygon class="cls-4" points="47.48 39.38 50.63 41.95 51.28 37.94 47.48 39.38"/><polygon class="cls-4" points="37.01 40.31 32.02 37.8 32.34 43.38 37.01 40.31"/><polygon class="cls-4" points="39.97 57.61 45.09 63.92 47.99 56.33 39.97 57.61"/><polygon class="cls-4" points="69.47 79.05 75.49 80.72 73.92 74.67 69.47 79.05"/><polygon class="cls-4" points="56.97 87.11 48.73 88.69 54.22 95.03 56.97 87.11"/><polygon class="cls-4" points="32.81 108.74 30.78 103.13 26.94 107.69 32.81 108.74"/><polygon class="cls-4" points="59.61 123.37 64.43 118.94 58.18 116.98 59.61 123.37"/><polygon class="cls-4" points="33.36 145.25 30.34 137.61 25.24 144.05 33.36 145.25"/><polygon class="cls-4" points="78.2 140.6 72.84 141.54 76.33 145.72 78.2 140.6"/><polygon class="cls-4" points="48.23 170.61 50.62 165.75 45.21 166.1 48.23 170.61"/><polygon class="cls-4" points="65.92 174.28 57.91 176.56 63.89 182.36 65.92 174.28"/><polygon class="cls-4" points="55.32 190.46 58.65 185.09 52.34 184.89 55.32 190.46"/><polygon class="cls-4" points="69.73 197.91 63.06 198.26 66.7 203.87 69.73 197.91"/></g></g></g></svg>