<?xml version="1.0" encoding="utf-8"?>
<!-- Generator: Adobe Illustrator 21.0.0, SVG Export Plug-In . SVG Version: 6.00 Build 0)  -->
<svg version="1.1" id="Слой_1" xmlns="http://www.w3.org/2000/svg" xmlns:xlink="http://www.w3.org/1999/xlink" x="0px" y="0px"
	 viewBox="0 0 220 346" style="enable-background:new 0 0 220 346;" xml:space="preserve">
<style type="text/css">
	.st0{opacity:0.5;}
	.st1{fill:#FFFFFF;}
	.st2{fill:#5F8AA4;}
	.st3{fill:#B1D2EC;}
</style>
<title>Ресурс 1</title>
<g id="Слой_2">
	<g id="OBJECTS">
		<g class="st0">
			
				<image style="overflow:visible;enable-background:new    ;" width="360" height="238" xlink:href="FD812C14.png"  transform="matrix(6.123234e-17 1 -1 6.123234e-17 238 0)">
			</image>
		</g>
		<path class="st1" d="M114.7,323.8l91-120.6c3.9-5.1-2.3-18.5-9.9-18.5H169l1.4-144.1c0-5.3-4.3-9.6-9.7-9.7h-109
			c-5.3,0-9.6,4.3-9.7,9.7l-1.5,144.1H13.8c-7.6,0-10.9,13.3-7,18.5l91,120.6C101.6,328.9,110.9,328.9,114.7,323.8z"/>
		<path class="st2" d="M111.9,307.7l76.3-101.2c3.3-4.3-0.7-9.8-7.1-9.8h-22.5V51.2c0-4.5-3.6-8.1-8.1-8.2H59.1
			c-4.5,0-8.1,3.7-8.1,8.2v145.5H28.5c-6.4,0-10.4,5.5-7.1,9.8l76.3,101.2C100.9,311.9,108.7,311.9,111.9,307.7z"/>
		<path class="st3" d="M109.1,49.5H65.5c-4.1,0.1-7.4,3.5-7.3,7.7V202H38.1c-5.7,0-9.3,5.2-6.4,9.2L98.5,299c2.9,4,9.9,4,12.7,0"/>
	</g>
</g>
</svg>
