<svg xmlns="http://www.w3.org/2000/svg" viewBox="0 0 1259.9 740.29"><defs><style>.cls-1{fill:#d6d6d6;}.cls-2{fill:#fff;}</style></defs><title>1</title><g id="Слой_2" data-name="Слой 2"><g id="Layer_1" data-name="Layer 1"><path class="cls-1" d="M1136.61,385.45a291.12,291.12,0,0,0,7.52-65.54C1144.13,152.62,1002.27,17,827.28,17c-120.36,0-225,64.16-278.66,158.65A231.9,231.9,0,0,0,440.23,149C316.07,149,215.41,245.27,215.41,364c0,3.13.11,6.24.25,9.34h-.73C108.93,373.32,23,455.47,23,556.8s85.93,183.49,191.93,183.49h853c106,0,191.93-82.15,191.93-183.49C1259.9,478.6,1208.69,411.86,1136.61,385.45Z"/><path class="cls-2" d="M1113.61,368.45a291.12,291.12,0,0,0,7.52-65.54C1121.13,135.62,979.27,0,804.28,0c-120.36,0-225,64.16-278.66,158.65A231.9,231.9,0,0,0,417.23,132C293.07,132,192.41,228.27,192.41,347c0,3.13.11,6.24.25,9.34h-.73C85.93,356.32,0,438.47,0,539.8S85.93,723.29,191.93,723.29h853c106,0,191.93-82.15,191.93-183.49C1236.9,461.6,1185.69,394.86,1113.61,368.45Z"/></g></g></svg>