<svg xmlns="http://www.w3.org/2000/svg" viewBox="0 0 1284.44 715.97"><defs><style>.cls-1{fill:#d6d6d6;}.cls-2{fill:#fff;}</style></defs><title>2</title><g id="Слой_2" data-name="Слой 2"><g id="Layer_1" data-name="Layer 1"><path class="cls-1" d="M1060.84,370.67c-26.53,0-59.8-.47-95.68-.26a225.48,225.48,0,0,0,10.08-66.55C975.23,145.43,808.81,17,603.51,17,403.8,17,240.91,138.53,232.17,291,111.84,315.11,23,399.5,23,499.91c0,119.22,125.24,215.4,279.72,215.86,216.13.66,382.73-.35,508.81-2.85,71.65,1.86,154.29,2.85,249.3,2.85,123.49,0,223.6-77.25,223.6-172.55S1184.33,370.67,1060.84,370.67Z"/><path class="cls-2" d="M1037.84,353.67c-26.53,0-59.8-.47-95.68-.26a225.48,225.48,0,0,0,10.08-66.55C952.23,128.43,785.81,0,580.51,0,380.8,0,217.91,121.53,209.17,274,88.84,298.11,0,382.5,0,482.91c0,119.22,125.24,215.4,279.72,215.86,216.13.66,382.73-.35,508.81-2.85,71.65,1.86,154.29,2.85,249.3,2.85,123.49,0,223.6-77.25,223.6-172.55S1161.33,353.67,1037.84,353.67Z"/></g></g></svg>