<svg xmlns="http://www.w3.org/2000/svg" viewBox="0 0 1251.53 715.78"><defs><style>.cls-1{fill:#d6d6d6;}.cls-2{fill:#fff;}</style></defs><title>4</title><g id="Слой_2" data-name="Слой 2"><g id="Layer_1" data-name="Layer 1"><path class="cls-1" d="M1251.53,543.22c0-84.48-60.72-154.73-140.89-169.6a116.48,116.48,0,0,0-173-126.34C911.39,116,795.46,17,656.4,17A286.5,286.5,0,0,0,421.73,138.86,158,158,0,0,0,171.78,267.47,159,159,0,0,0,174,294C86.5,321.5,23,403.29,23,499.91c0,111.76,84.93,203.68,193.76,214.75l-.78,1.12h876.86l-.41-.57C1181.44,708.33,1251.53,634,1251.53,543.22Z"/><path class="cls-2" d="M1228.53,526.22c0-84.48-60.72-154.73-140.89-169.6a116.48,116.48,0,0,0-173-126.34C888.39,99,772.46,0,633.4,0A286.5,286.5,0,0,0,398.73,121.86,158,158,0,0,0,148.78,250.47,159,159,0,0,0,151,277C63.5,304.5,0,386.29,0,482.91,0,594.67,84.93,686.59,193.76,697.66l-.78,1.12h876.86l-.41-.57C1158.44,691.33,1228.53,617,1228.53,526.22Z"/></g></g></svg>