<svg xmlns="http://www.w3.org/2000/svg" viewBox="0 0 1277.52 769.47"><defs><style>.cls-1{fill:#d6d6d6;}.cls-2{fill:#fff;}</style></defs><title>6</title><g id="Слой_2" data-name="Слой 2"><g id="Layer_1" data-name="Layer 1"><path class="cls-1" d="M1136.62,325.69c.66-7.91,1-15.9,1-24,0-157.24-127.47-284.7-284.7-284.7A283.68,283.68,0,0,0,659.26,93,230.69,230.69,0,0,0,364.85,200a116.55,116.55,0,0,0-149.36,71.16C105,298.17,23,397.84,23,516.67c0,138.06,110.68,250.25,248.14,252.74l0,.06h770.73l0-.12c1.57,0,3.13.12,4.7.12,127.58,0,231-103.42,231-231C1277.52,442.85,1219.43,360.8,1136.62,325.69Z"/><path class="cls-2" d="M1113.62,308.69c.66-7.91,1-15.9,1-24C1114.64,127.47,987.17,0,829.93,0A283.68,283.68,0,0,0,636.26,76,230.69,230.69,0,0,0,341.85,183a116.55,116.55,0,0,0-149.36,71.16C82,281.17,0,380.84,0,499.67,0,637.73,110.68,749.92,248.14,752.41l0,.06h770.73l0-.12c1.57,0,3.13.12,4.7.12,127.58,0,231-103.42,231-231C1254.52,425.85,1196.43,343.8,1113.62,308.69Z"/></g></g></svg>