<svg xmlns="http://www.w3.org/2000/svg" viewBox="0 0 1329.15 1013.74"><defs><style>.cls-1{fill:#d6d6d6;}.cls-2{fill:#fff;}</style></defs><title>7</title><g id="Слой_2" data-name="Слой 2"><g id="Layer_1" data-name="Layer 1"><path class="cls-1" d="M1278.07,640.33a264.69,264.69,0,0,0,51.08-156.65c0-146.89-119.08-266-266-266a265.85,265.85,0,0,0-75.26,10.87C949.19,105.93,834.51,17,699.05,17c-104.58,0-196.78,53-251.2,133.61A138,138,0,0,0,239.19,269.08c0,3.68.19,7.3.47,10.9A236.29,236.29,0,0,0,74.08,390.41,264.67,264.67,0,0,0,23,547.06C23,694,142.08,813,289,813a265.89,265.89,0,0,0,75.26-10.87C403,924.82,517.63,1013.74,653.1,1013.74c104.58,0,196.78-53,251.2-133.61A138,138,0,0,0,1113,761.67c0-3.67-.19-7.3-.47-10.9A236.32,236.32,0,0,0,1278.07,640.33Z"/><path class="cls-2" d="M1255.07,623.33a264.69,264.69,0,0,0,51.08-156.65c0-146.89-119.08-266-266-266a265.85,265.85,0,0,0-75.26,10.87C926.19,88.93,811.51,0,676.05,0,571.47,0,479.28,53,424.86,133.61A138,138,0,0,0,216.19,252.08c0,3.68.19,7.3.47,10.9A236.29,236.29,0,0,0,51.08,373.41,264.67,264.67,0,0,0,0,530.06C0,677,119.08,796,266,796a265.89,265.89,0,0,0,75.26-10.87C380,907.82,494.63,996.74,630.1,996.74c104.58,0,196.78-53,251.2-133.61A138,138,0,0,0,1090,744.67c0-3.67-.19-7.3-.47-10.9A236.32,236.32,0,0,0,1255.07,623.33Z"/></g></g></svg>