<svg xmlns="http://www.w3.org/2000/svg" viewBox="0 0 1251.53 715.78"><defs><style>.cls-1{fill:#d6d6d6;}.cls-2{fill:#fff;}</style></defs><title>9</title><g id="Слой_2" data-name="Слой 2"><g id="Layer_1" data-name="Layer 1"><path class="cls-1" d="M23,497.76c0-120.41,97.61-218,218-218a217.14,217.14,0,0,1,90.32,19.6C333.74,143,461.21,17,618.13,17,751.74,17,864,108.34,895.91,232a252,252,0,0,1,102.83-21.8c139.61,0,252.79,113.18,252.79,252.8,0,138.06-110.68,250.26-248.14,252.74l0,.06H232.68l.07-.21C116.18,711.22,23,615.4,23,497.76Z"/><path class="cls-2" d="M0,480.76c0-120.41,97.61-218,218-218a217.14,217.14,0,0,1,90.32,19.6C310.74,126,438.21,0,595.13,0,728.74,0,841,91.34,872.91,215a252,252,0,0,1,102.83-21.8c139.61,0,252.79,113.18,252.79,252.8,0,138.06-110.68,250.26-248.14,252.74l0,.06H209.68l.07-.21C93.18,694.22,0,598.4,0,480.76Z"/></g></g></svg>