<?xml version="1.0" encoding="utf-8"?>
<!-- Generator: Adobe Illustrator 21.0.0, SVG Export Plug-In . SVG Version: 6.00 Build 0)  -->
<svg version="1.1" id="Layer_1" xmlns="http://www.w3.org/2000/svg" xmlns:xlink="http://www.w3.org/1999/xlink" x="0px" y="0px"
	 viewBox="0 0 512 512" style="enable-background:new 0 0 512 512;" xml:space="preserve">
<style type="text/css">
	.st0{fill:#FBD33B;}
	.st1{fill:#E86436;}
	.st2{fill:#91CFE5;}
	.st3{fill:#114B7F;}
	.st4{fill:#A0C663;}
	.st5{fill:#648C3A;}
	.st6{fill:#08B39B;}
	.st7{opacity:0.1;enable-background:new    ;}
	.st8{fill:#FFFFFF;}
	.st9{font-family:'GraphikLCG-Bold';}
	.st10{font-size:248.1976px;}
</style>
<path class="st0" d="M848.3,81.5V-7c0-6.5-5.3-11.8-11.8-11.8h-177c-6.5,0-11.8,5.3-11.8,11.8v88.5L848.3,81.5L848.3,81.5z"/>
<path class="st1" d="M683.1,81.5V-18.7h-23.5c-6.5,0-11.8,5.3-11.8,11.8v88.5L683.1,81.5L683.1,81.5z"/>
<path class="st2" d="M905.6,81.5V17.3c0-6.5-5.3-11.8-11.8-11.8h-177c-6.5,0-11.8,5.3-11.8,11.8v64.2H905.6z"/>
<g>
	<path class="st3" d="M740.4,81.5v-76h-23.5c-6.5,0-11.8,5.3-11.8,11.8v64.2L740.4,81.5L740.4,81.5z"/>
	<path class="st3" d="M815.5,75.2V35c0-4.3-3.5-7.8-7.8-7.8c-4.3,0-7.8,3.5-7.8,7.8v40.2L815.5,75.2L815.5,75.2z"/>
	<path class="st3" d="M787.3,75.2V35c0-4.3-3.5-7.8-7.8-7.8c-4.3,0-7.8,3.5-7.8,7.8v40.2L787.3,75.2L787.3,75.2z"/>
	<path class="st3" d="M871.6,47.1h-19.8c-4.3,0-7.8,3.5-7.8,7.8s3.5,7.8,7.8,7.8h19.8c4.3,0,7.8-3.5,7.8-7.8
		C879.5,50.6,876,47.1,871.6,47.1z"/>
	<path class="st3" d="M851.8,42.8h19.8c4.3,0,7.8-3.5,7.8-7.8s-3.5-7.8-7.8-7.8h-19.8c-4.3,0-7.8,3.5-7.8,7.8S847.5,42.8,851.8,42.8
		z"/>
</g>
<path class="st4" d="M413.2,461c0,5.4-4.4,9.9-9.8,9.9H94.6c-5.4,0-9.8-4.4-9.8-9.9V58.5c0-5.4,4.4-9.9,9.8-9.9h308.7
	c5.4,0,9.8,4.4,9.8,9.9L413.2,461L413.2,461z"/>
<g>
	<path class="st5" d="M332.3,357.5H200.7c-4.3,0-7.8,3.5-7.8,7.8s3.5,7.8,7.8,7.8h131.6c4.3,0,7.8-3.5,7.8-7.8
		S336.6,357.5,332.3,357.5z"/>
	<path class="st5" d="M309.4,390.9h-85.7c-4.3,0-7.8,3.5-7.8,7.8s3.5,7.8,7.8,7.8h85.7c4.3,0,7.8-3.5,7.8-7.8
		S313.7,390.9,309.4,390.9z"/>
</g>
<path class="st6" d="M123.1,48.7H94.6c-5.4,0-9.8,4.4-9.8,9.9V461c0,5.4,4.4,9.9,9.8,9.9h28.5V48.7z"/>
<path class="st7" d="M105.9,461V58.5c0-5.4,4.4-9.9,9.8-9.9H94.6c-5.4,0-9.8,4.4-9.8,9.9V461c0,5.4,4.4,9.9,9.8,9.9h21.1
	C110.4,470.9,105.9,466.4,105.9,461z"/>
<text transform="matrix(1 0 0 1 171.6143 320.8291)" class="st8 st9 st10">A</text>
</svg>
