<svg xmlns="http://www.w3.org/2000/svg" viewBox="0 0 202.81 563.24"><defs><style>.cls-1{fill:#319fdd;}.cls-2{fill:#fcbf65;}.cls-3{fill:#65cefc;}.cls-4{fill:#bababa;}.cls-5{fill:#707070;}.cls-6{fill:#f96767;}</style></defs><title>Ресурс 1</title><g id="Слой_2" data-name="Слой 2"><g id="Слой_1-2" data-name="Слой 1"><rect class="cls-1" x="0.11" width="202.7" height="48.65" rx="9.66" ry="9.66"/><rect class="cls-2" x="0.11" y="145.95" width="202.7" height="90.27" rx="10.34" ry="10.34"/><rect class="cls-3" x="0.11" y="64.86" width="48.65" height="48.65" rx="11.35" ry="11.35"/><rect class="cls-3" x="77.14" y="64.86" width="48.65" height="48.65" rx="11.35" ry="11.35"/><rect class="cls-3" x="154.05" y="64.86" width="48.65" height="48.65" rx="11.35" ry="11.35"/><rect class="cls-1" x="115.86" y="487.13" width="86.95" height="48.65" rx="11.35" ry="11.35"/><rect class="cls-4" x="0.11" y="117.57" width="48.65" height="11.89" rx="5.95" ry="5.95"/><rect class="cls-4" x="77.03" y="117.57" width="48.65" height="11.89" rx="5.95" ry="5.95"/><rect class="cls-4" x="154.16" y="117.57" width="48.65" height="11.89" rx="5.95" ry="5.95"/><rect class="cls-4" y="306.76" width="48.65" height="11.89" rx="5.95" ry="5.95"/><rect class="cls-5" x="16.32" y="333.51" width="170.27" height="27.03" rx="13.52" ry="13.52"/><rect class="cls-3" x="0.11" y="450.7" width="202.7" height="30.61" rx="8.97" ry="8.97"/><rect class="cls-4" x="0.11" y="491.25" width="101.14" height="72" rx="8.97" ry="8.97"/><rect class="cls-4" x="33.89" y="368.76" width="134.7" height="10.82" rx="5.41" ry="5.41"/><rect class="cls-4" x="76.92" y="306.76" width="48.65" height="11.89" rx="5.95" ry="5.95"/><rect class="cls-2" x="115.92" y="544.52" width="86.84" height="18.72" rx="9.36" ry="9.36"/><rect class="cls-6" x="57.82" y="407.85" width="86.84" height="18.72" rx="9.36" ry="9.36"/><rect class="cls-4" x="154.05" y="306.76" width="48.65" height="11.89" rx="5.95" ry="5.95"/><rect class="cls-1" x="0.11" y="252.7" width="48.65" height="48.65" rx="24.32" ry="24.32"/><rect class="cls-1" x="77.14" y="252.7" width="48.65" height="48.65" rx="24.32" ry="24.32"/><rect class="cls-1" x="154.16" y="252.7" width="48.65" height="48.65" rx="24.32" ry="24.32"/></g></g></svg>