<?xml version="1.0" encoding="utf-8"?>
<!-- Generator: Adobe Illustrator 21.0.0, SVG Export Plug-In . SVG Version: 6.00 Build 0)  -->
<svg version="1.1" id="Слой_1" xmlns="http://www.w3.org/2000/svg" xmlns:xlink="http://www.w3.org/1999/xlink" x="0px" y="0px"
	 viewBox="0 0 109.7 109.7" style="enable-background:new 0 0 109.7 109.7;" xml:space="preserve">
<style type="text/css">
	.st0{stroke:#FFFFFF;stroke-miterlimit:10;}
	.st1{fill:#F1F2F2;}
</style>
<title>google-o</title>
<g id="Слой_2">
	<g id="objects">
		<circle class="st0" cx="54.8" cy="54.8" r="54.8"/>
		<path class="st1" d="M42.2,51.7v7.6h12.6c-0.5,3.3-3.8,9.6-12.6,9.6c-7.7,0-14-6.3-14-14s6.3-14,14-14c3.3-0.1,6.5,1.2,8.8,3.4
			l6-5.8c-4-3.8-9.3-5.9-14.8-5.8c-12.2,0.3-22,10.4-21.7,22.6c0.3,11.9,9.8,21.4,21.7,21.7c12.8,0,21.3-9,21.3-21.7
			c0-1.2-0.1-2.5-0.3-3.7H42.2z"/>
		<path class="st1" d="M89.7,51.7h-6.3v-6.3H77v6.3h-6.3V58H77v6.3h6.3V58h6.3L89.7,51.7z"/>
	</g>
</g>
</svg>
