<?xml version="1.0" encoding="utf-8"?>
<!-- Generator: Adobe Illustrator 21.0.0, SVG Export Plug-In . SVG Version: 6.00 Build 0)  -->
<svg version="1.1" id="Слой_1" xmlns="http://www.w3.org/2000/svg" xmlns:xlink="http://www.w3.org/1999/xlink" x="0px" y="0px"
	 viewBox="0 0 109.7 109.7" style="enable-background:new 0 0 109.7 109.7;" xml:space="preserve">
<style type="text/css">
	.st0{stroke:#FFFFFF;stroke-miterlimit:10;}
	.st1{fill:#F1F2F2;stroke:#FFFFFF;stroke-miterlimit:10;}
</style>
<title>instagram-o</title>
<g id="Слой_2">
	<g id="objects">
		<circle class="st0" cx="54.8" cy="54.8" r="54.8"/>
		<path class="st1" d="M77.1,27H32.6c-3.1,0-5.6,2.5-5.6,5.5c0,0,0,0,0,0.1v44.4c0,3.1,2.5,5.6,5.6,5.6h44.5c3.1,0,5.6-2.5,5.6-5.6
			V32.6C82.6,29.5,80.2,27,77.1,27C77.1,27,77.1,27,77.1,27z M54.8,43.7c6.1,0,11.1,5,11.1,11.1s-5,11.1-11.1,11.1
			s-11.1-5-11.1-11.1C43.7,48.7,48.7,43.7,54.8,43.7z M34,77.1c-0.7,0-1.3-0.5-1.4-1.2c0,0,0-0.1,0-0.1V52h5.8
			c-0.2,0.9-0.3,1.8-0.3,2.8c-0.2,9.2,7.1,16.9,16.3,17.1c9.2,0.2,16.9-7.1,17.1-16.3c0-0.3,0-0.5,0-0.8c0-0.9,0-1.9-0.3-2.8h5.8
			v23.6c0,0.7-0.5,1.3-1.2,1.4c0,0-0.1,0-0.1,0H34z M77.1,39.6c0,0.7-0.5,1.3-1.2,1.4c0,0-0.1,0-0.1,0h-5.6c-0.7,0-1.3-0.5-1.4-1.2
			c0,0,0-0.1,0-0.1V34c0-0.7,0.5-1.3,1.2-1.4c0,0,0.1,0,0.1,0h5.6c0.7,0,1.3,0.5,1.4,1.2c0,0.1,0,0.1,0,0.2L77.1,39.6z"/>
	</g>
</g>
</svg>
