<?xml version="1.0" encoding="iso-8859-1"?>
<!-- Generator: Adobe Illustrator 19.0.0, SVG Export Plug-In . SVG Version: 6.00 Build 0)  -->
<svg version="1.1" id="Capa_1" xmlns="http://www.w3.org/2000/svg" xmlns:xlink="http://www.w3.org/1999/xlink" x="0px" y="0px"
	 viewBox="0 0 512 512" style="enable-background:new 0 0 512 512;" xml:space="preserve">
<path style="fill:#AEA8AF;" d="M480.452,356.202H143.774c-13.282,0-24.048-10.767-24.048-24.048V107.702
	c0-13.282,10.767-24.048,24.048-24.048h336.677c13.282,0,24.048,10.767,24.048,24.048v224.452
	C504.5,345.435,493.733,356.202,480.452,356.202z"/>
<path style="fill:#9C969E;" d="M119.726,131.75h248.5c26.563,0,48.097,21.534,48.097,48.097v176.355H143.774
	c-13.282,0-24.048-10.767-24.048-24.048V131.75z"/>
<rect x="119.73" y="123.73" style="fill:#5D5360;" width="384.77" height="48.1"/>
<path style="fill:#4B3F4E;" d="M368.226,131.188h-248.5v40.641h295.93l-0.055-0.56C411.778,148.529,392.051,131.188,368.226,131.188
	z"/>
<path style="fill:#AEA8AF;" d="M368.233,428.347H31.556c-13.282,0-24.048-10.767-24.048-24.048V179.847
	c0-13.282,10.767-24.048,24.048-24.048h336.677c13.282,0,24.048,10.767,24.048,24.048v224.452
	C392.281,417.58,381.515,428.347,368.233,428.347z"/>
<path style="fill:#9C969E;" d="M31.556,243.976v-88.177c-13.282,0-24.048,10.767-24.048,24.048v224.452
	c0,13.282,10.767,24.048,24.048,24.048h336.677c13.282,0,24.048-10.767,24.048-24.048H191.878
	C103.335,404.298,31.556,332.52,31.556,243.976z"/>
<path style="fill:#FFD164;" d="M103.701,292.073H71.636c-8.854,0-16.032-7.178-16.032-16.032v-16.032
	c0-8.854,7.178-16.032,16.032-16.032h32.065c8.854,0,16.032,7.178,16.032,16.032v16.032
	C119.733,284.895,112.555,292.073,103.701,292.073z"/>
<circle style="fill:#FFE17D;" cx="312.12" cy="235.96" r="32.06"/>
<circle style="fill:#E6646E;" cx="247.99" cy="235.96" r="32.06"/>
<path d="M368.226,148.299H31.548C14.152,148.299,0,162.451,0,179.847v224.452c0,17.396,14.152,31.548,31.548,31.548h336.677
	c17.396,0,31.549-14.152,31.549-31.548V179.847C399.774,162.451,385.622,148.299,368.226,148.299z M384.774,404.299
	c0,9.124-7.424,16.548-16.549,16.548H31.548c-9.125,0-16.548-7.424-16.548-16.548V179.847c0-9.125,7.423-16.548,16.548-16.548
	h336.677c9.125,0,16.549,7.423,16.549,16.548L384.774,404.299L384.774,404.299z"/>
<path d="M71.629,299.572h32.064c12.976,0,23.532-10.557,23.532-23.532v-16.032c0-12.976-10.557-23.532-23.532-23.532H71.629
	c-12.976,0-23.532,10.557-23.532,23.532v16.032C48.097,289.016,58.653,299.572,71.629,299.572z M112.226,260.008v16.032
	c0,4.705-3.828,8.532-8.532,8.532h-8.532v-33.097h8.532C108.398,251.476,112.226,255.303,112.226,260.008z M63.097,260.008
	c0-4.705,3.828-8.532,8.532-8.532h8.532v33.097h-8.532c-4.705,0-8.532-3.827-8.532-8.532V260.008z"/>
<path d="M55.597,339.653h48.097c4.142,0,7.5-3.357,7.5-7.5s-3.358-7.5-7.5-7.5H55.597c-4.142,0-7.5,3.357-7.5,7.5
	S51.455,339.653,55.597,339.653z"/>
<path d="M135.758,339.653h48.097c4.142,0,7.5-3.357,7.5-7.5s-3.358-7.5-7.5-7.5h-48.097c-4.142,0-7.5,3.357-7.5,7.5
	S131.616,339.653,135.758,339.653z"/>
<path d="M215.919,364.733H55.597c-4.142,0-7.5,3.357-7.5,7.5s3.358,7.5,7.5,7.5H215.92c4.142,0,7.5-3.357,7.5-7.5
	S220.062,364.733,215.919,364.733z"/>
<path d="M264.016,324.653h-48.097c-4.142,0-7.5,3.357-7.5,7.5s3.358,7.5,7.5,7.5h48.097c4.142,0,7.5-3.357,7.5-7.5
	S268.158,324.653,264.016,324.653z"/>
<path d="M344.177,324.653H296.08c-4.142,0-7.5,3.357-7.5,7.5s3.358,7.5,7.5,7.5h48.097c4.142,0,7.5-3.357,7.5-7.5
	S348.319,324.653,344.177,324.653z"/>
<path d="M312.113,196.396c-13.182,0-24.871,6.486-32.064,16.427c-7.194-9.942-18.883-16.427-32.064-16.427
	c-21.816,0-39.564,17.748-39.564,39.564s17.749,39.564,39.564,39.564c13.182,0,24.871-6.486,32.064-16.427
	c7.194,9.942,18.883,16.427,32.064,16.427c21.816,0,39.564-17.748,39.564-39.564S333.929,196.396,312.113,196.396z M247.984,260.524
	c-13.545,0-24.564-11.02-24.564-24.564c0-13.544,11.02-24.564,24.564-24.564s24.564,11.02,24.564,24.564
	C272.548,249.504,261.529,260.524,247.984,260.524z M312.113,260.524c-13.545,0-24.564-11.02-24.564-24.564
	c0-13.544,11.02-24.564,24.564-24.564s24.564,11.02,24.564,24.564C336.677,249.504,325.658,260.524,312.113,260.524z"/>
<path d="M480.452,76.153H143.774c-17.396,0-31.549,14.152-31.549,31.548v16.032c0,4.143,3.358,7.5,7.5,7.5H497v33.098h-72.661
	c-4.142,0-7.5,3.357-7.5,7.5s3.358,7.5,7.5,7.5H497v152.822c0,9.125-7.423,16.548-16.548,16.548h-56.115c-4.142,0-7.5,3.357-7.5,7.5
	s3.358,7.5,7.5,7.5h56.115c17.396,0,31.548-14.152,31.548-31.548V107.701C512,90.306,497.848,76.153,480.452,76.153z
	 M127.226,116.233v-8.532c0-9.124,7.424-16.548,16.549-16.548h336.677c9.125,0,16.548,7.424,16.548,16.548v8.532H127.226z"/>
<g>
</g>
<g>
</g>
<g>
</g>
<g>
</g>
<g>
</g>
<g>
</g>
<g>
</g>
<g>
</g>
<g>
</g>
<g>
</g>
<g>
</g>
<g>
</g>
<g>
</g>
<g>
</g>
<g>
</g>
</svg>
