<svg xmlns="http://www.w3.org/2000/svg" viewBox="0 0 1312.65 749.66"><defs><style>.cls-1{fill:#d6d6d6;}.cls-2{fill:#fff;}</style></defs><title>3</title><g id="Слой_2" data-name="Слой 2"><g id="Layer_1" data-name="Layer 1"><path class="cls-1" d="M1312.65,483.69c0-146.9-119.08-266-266-266a265.93,265.93,0,0,0-75.26,10.87C932.68,105.93,818,17,682.55,17,578,17,485.77,70,431.35,150.61A138,138,0,0,0,222.68,269.08c0,3.67.19,7.3.47,10.9C109.81,297.34,23,395.26,23,513.45c0,122.86,93.8,223.77,213.69,235.12l.06,1.1h836.48l.06-1.33C1207.69,735,1312.65,621.59,1312.65,483.69Z"/><path class="cls-2" d="M1289.65,466.69c0-146.9-119.08-266-266-266a265.93,265.93,0,0,0-75.26,10.87C909.68,88.93,795,0,659.55,0,555,0,462.77,53,408.35,133.61A138,138,0,0,0,199.68,252.08c0,3.67.19,7.3.47,10.9C86.81,280.34,0,378.26,0,496.45,0,619.31,93.8,720.22,213.69,731.57l.06,1.1h836.48l.06-1.33C1184.69,718,1289.65,604.59,1289.65,466.69Z"/></g></g></svg>