<svg xmlns="http://www.w3.org/2000/svg" viewBox="0 0 1251.53 715.78"><defs><style>.cls-1{fill:#d6d6d6;}.cls-2{fill:#fff;}</style></defs><title>5</title><g id="Слой_2" data-name="Слой 2"><g id="Layer_1" data-name="Layer 1"><path class="cls-1" d="M1251.53,543.22c0-84.48-60.72-154.73-140.88-169.6a116.48,116.48,0,0,0-173-126.34C911.39,116,795.46,17,656.4,17,498,17,369.54,145.43,369.54,303.86c0,8.47.39,16.85,1.11,25.14a214.87,214.87,0,0,0-131.79-45C119.65,284,23,380.7,23,499.91c0,111.76,84.93,203.68,193.76,214.75l-.78,1.12h876.86l-.41-.57C1181.43,708.33,1251.53,634,1251.53,543.22Z"/><path class="cls-2" d="M1228.53,526.22c0-84.48-60.72-154.73-140.88-169.6a116.48,116.48,0,0,0-173-126.34C888.39,99,772.46,0,633.4,0,475,0,346.54,128.43,346.54,286.86c0,8.47.39,16.85,1.11,25.14a214.87,214.87,0,0,0-131.79-45C96.65,267,0,363.7,0,482.91,0,594.67,84.93,686.59,193.76,697.66l-.78,1.12h876.86l-.41-.57C1158.43,691.33,1228.53,617,1228.53,526.22Z"/></g></g></svg>