<svg xmlns="http://www.w3.org/2000/svg" viewBox="0 0 1329.15 901.29"><defs><style>.cls-1{fill:#d6d6d6;}.cls-2{fill:#fff;}</style></defs><title>8</title><g id="Слой_2" data-name="Слой 2"><g id="Layer_1" data-name="Layer 1"><path class="cls-1" d="M1221.48,340.51c-4.86-120.67-104.17-217-226-217A227.87,227.87,0,0,0,971,124.82a392.19,392.19,0,0,0-505.38-29.4c-3.31-.2-6.64-.35-10-.35A158.12,158.12,0,0,0,303.83,209,158.12,158.12,0,0,0,104.61,401.38a195.73,195.73,0,0,0-30.53,30C42,464.47,23,505.27,23,549.44c0,93,84,171.19,197.84,193.88a158.08,158.08,0,0,0,238,104.78c52.58,33.19,120.3,53.19,194.24,53.19,62.77,0,121.07-14.41,169.43-39.07a158,158,0,0,0,205.58-55c49.83-15.69,84.85-52.76,84.85-96a80.09,80.09,0,0,0-.47-8.22c70.11-8.09,130-39.45,165.57-83.26,32.09-33.13,51.08-73.94,51.08-118.1C1329.15,435.62,1286.8,377,1221.48,340.51Z"/><path class="cls-2" d="M1198.48,323.51c-4.86-120.67-104.17-217-226-217A227.87,227.87,0,0,0,948,107.82a392.19,392.19,0,0,0-505.38-29.4c-3.31-.2-6.64-.35-10-.35A158.12,158.12,0,0,0,280.83,192,158.12,158.12,0,0,0,81.61,384.38a195.73,195.73,0,0,0-30.53,30C19,447.47,0,488.27,0,532.44c0,93,84,171.19,197.84,193.88a158.08,158.08,0,0,0,238,104.78c52.58,33.19,120.3,53.19,194.24,53.19,62.77,0,121.07-14.41,169.43-39.07a158,158,0,0,0,205.58-55c49.83-15.69,84.85-52.76,84.85-96a80.09,80.09,0,0,0-.47-8.22c70.11-8.09,130-39.45,165.57-83.26,32.09-33.13,51.08-73.94,51.08-118.1C1306.15,418.62,1263.8,360,1198.48,323.51Z"/></g></g></svg>