<svg xmlns="http://www.w3.org/2000/svg" viewBox="0 0 249.6 345.6"><defs><style>.cls-1{fill:#f2f2f2;}.cls-2{fill:#ff7058;}.cls-3{fill:#ffd15c;}.cls-4{fill:#f1543f;}.cls-5{fill:#cdd6e0;}.cls-6{fill:#f8b64c;}</style></defs><title>1-1</title><g id="Слой_2" data-name="Слой 2"><g id="Capa_1" data-name="Capa 1"><rect class="cls-1" y="34.13" width="249.6" height="311.47"/><path class="cls-2" d="M249.6,34.13H0V10.67C0,4.27,4.27,0,10.67,0H238.93c6.4,0,10.67,4.27,10.67,10.67V34.13Z"/><circle class="cls-3" cx="27.73" cy="17.07" r="6.4"/><circle class="cls-3" cx="53.33" cy="17.07" r="6.4"/><path class="cls-4" d="M148.27,23.47h84.27a6.88,6.88,0,0,0,6.4-6.4h0a6.88,6.88,0,0,0-6.4-6.4H148.27a6.88,6.88,0,0,0-6.4,6.4h0A6.15,6.15,0,0,0,148.27,23.47Z"/><rect class="cls-3" x="16" y="66.13" width="217.6" height="57.6"/><rect class="cls-5" x="16" y="154.67" width="98.13" height="16"/><rect class="cls-5" x="16" y="202.67" width="98.13" height="16"/><rect class="cls-5" x="135.47" y="154.67" width="98.13" height="16"/><rect class="cls-5" x="135.47" y="202.67" width="98.13" height="16"/><rect class="cls-6" x="16" y="249.6" width="58.67" height="57.6"/><rect class="cls-6" x="94.93" y="249.6" width="58.67" height="57.6"/><rect class="cls-6" x="174.93" y="249.6" width="58.67" height="57.6"/></g></g></svg>