<svg xmlns="http://www.w3.org/2000/svg" viewBox="0 0 43.73 306.13"><defs><style>.cls-1{fill:#54c0eb;}.cls-2{fill:#cdd6e0;}.cls-3{fill:#ffd15c;}.cls-4{fill:#334a5e;}.cls-5{fill:#ff7058;}</style></defs><title>1-3</title><g id="Слой_2" data-name="Слой 2"><g id="Capa_1" data-name="Capa 1"><path class="cls-1" d="M21.33,33.07a7.29,7.29,0,0,0-7.47,7.47V275.2l15.12,0L28.82,40.31C28.52,35.25,25.6,33.07,21.33,33.07Z"/><path class="cls-2" d="M7.47,33.07A7.29,7.29,0,0,0,0,40.53V275.2H13.87V40.53C14,35.58,11.73,33.07,7.47,33.07Z"/><path class="cls-2" d="M36.27,33.07a7.29,7.29,0,0,0-7.47,7.47V275.2H42.67V40.53C42.52,35.37,40.53,33.07,36.27,33.07Z"/><path class="cls-3" d="M41.86,36.21s-2.4-3.14-5.6-3.14a7.29,7.29,0,0,0-7.47,7.47,7.29,7.29,0,0,0-7.47-7.47,7.29,7.29,0,0,0-7.47,7.47,6.94,6.94,0,0,0-7.33-7.17c-3.2,0-5.77,3.76-5.77,3.76l12-22.19L21.33,0l8.53,14.93Z"/><polygon class="cls-4" points="29.87 14.93 12.87 14.93 21.33 0 29.87 14.93"/><rect class="cls-3" y="275.2" width="42.67" height="11.73"/><path class="cls-5" d="M7.47,306.13h28.8a7.29,7.29,0,0,0,7.47-7.47V286.93H1.07v11.73C0,302.93,3.2,306.13,7.47,306.13Z"/></g></g></svg>