<svg xmlns="http://www.w3.org/2000/svg" viewBox="0 0 66 335.3"><defs><style>.cls-1{fill:#55bfe9;}.cls-2{fill:#ffd15c;}.cls-3{fill:#acb3ba;}.cls-4{fill:#cdd6e0;}</style></defs><title>2-5</title><g id="Слой_2" data-name="Слой 2"><g id="Capa_1" data-name="Capa 1"><path class="cls-1" d="M54.28,311.89v0Z"/><polygon class="cls-2" points="44.7 317.21 44.7 317.21 54.28 317.21 44.7 317.21"/><rect class="cls-3" width="42.37" height="335.3"/><rect class="cls-4" x="41.51" width="24.48" height="335.3"/><rect class="cls-4" y="11.72" width="9.58" height="2.13"/><rect class="cls-4" y="34.07" width="9.58" height="2.13"/><rect class="cls-4" y="56.42" width="9.58" height="2.13"/><rect class="cls-4" y="77.71" width="9.58" height="2.13"/><rect class="cls-4" y="100.06" width="9.58" height="2.13"/><rect class="cls-4" y="122.42" width="9.58" height="2.13"/><rect class="cls-4" y="143.7" width="9.58" height="2.13"/><rect class="cls-4" y="166.05" width="9.58" height="2.13"/><rect class="cls-4" y="188.41" width="9.58" height="2.13"/><rect class="cls-4" y="210.76" width="9.58" height="2.13"/><rect class="cls-4" y="232.06" width="9.58" height="2.13"/><rect class="cls-4" y="254.41" width="9.58" height="2.13"/><rect class="cls-4" y="276.76" width="9.58" height="2.13"/><rect class="cls-4" y="298.05" width="9.58" height="2.13"/><rect class="cls-4" y="320.4" width="9.58" height="2.13"/></g></g></svg>