<svg xmlns="http://www.w3.org/2000/svg" viewBox="0 0 294.4 295.87"><defs><style>.cls-1{fill:#84dbff;}.cls-2{fill:none;stroke:#54c0eb;stroke-miterlimit:10;stroke-width:35px;}</style></defs><title>3-1</title><g id="Слой_2" data-name="Слой 2"><g id="Capa_1" data-name="Capa 1"><path class="cls-1" d="M264.53,119.47c-3.2-11.73-7.47-23.47-13.87-34.13l17.07-25.6L234.67,26.67l-25.6,17.07a120.77,120.77,0,0,0-34.13-13.87L169.6,0H123.73L118.4,29.87c-11.73,3.2-23.47,7.47-33.07,13.87L59.73,26.67,26.67,59.73l17.07,25.6a120.77,120.77,0,0,0-13.87,34.13L0,124.8v23.47H84.27a62.93,62.93,0,0,1,125.87,0H294.4V124.8Z"/><path class="cls-1" d="M29.87,176.4c3.2,11.73,7.47,23.47,13.87,34.13l-17.07,25.6L59.73,269.2l25.6-17.07A120.77,120.77,0,0,0,119.47,266l5.33,29.87h45.87L176,266c11.73-3.2,23.47-7.47,33.07-13.87l25.6,17.07,33.07-33.07-17.07-25.6a120.77,120.77,0,0,0,13.87-34.13l29.87-5.33V147.6H210.13a62.93,62.93,0,0,1-125.87,0H0v23.47Z"/><circle class="cls-2" cx="147.02" cy="150.25" r="65.75"/></g></g></svg>