<svg xmlns="http://www.w3.org/2000/svg" viewBox="0 0 169.6 168.53"><defs><style>.cls-1{fill:#cdd6e0;}</style></defs><title>3-2_1</title><g id="Слой_2" data-name="Слой 2"><g id="Capa_1" data-name="Capa 1"><path class="cls-1" d="M169.6,65.07,158.93,40.53,141.87,44.8a98.85,98.85,0,0,0-14.93-14.93L131.2,12.8,106.67,2.13l-9.6,14.93a71.49,71.49,0,0,0-21.33,0L64,0,39.47,10.67l3.2,17.07A98.8,98.8,0,0,0,27.73,42.67l-17.07-3.2L0,64l14.93,9.6a71.49,71.49,0,0,0,0,21.33L0,105.6l10.67,24.53,17.07-4.27c4.27,6.4,9.6,10.67,14.93,14.93L38.4,157.87l24.53,10.67,9.6-14.93a71.49,71.49,0,0,0,21.33,0l9.6,14.93L128,157.87l-2.13-16c6.4-4.27,10.67-9.6,14.93-14.93l17.07,4.27,10.67-24.53-14.93-9.6a71.49,71.49,0,0,0,0-21.33ZM98.13,118.4c-19.2,7.47-40.53-1.07-48-20.27s1.07-40.53,20.27-48,40.53,1.07,48,20.27S117.33,110.93,98.13,118.4Z"/></g></g></svg>