<?xml version="1.0" encoding="utf-8"?>
<!-- Generator: Adobe Illustrator 21.0.0, SVG Export Plug-In . SVG Version: 6.00 Build 0)  -->
<svg version="1.1" id="Capa_1" xmlns="http://www.w3.org/2000/svg" xmlns:xlink="http://www.w3.org/1999/xlink" x="0px" y="0px"
	 viewBox="0 0 187.7 308.1" style="enable-background:new 0 0 187.7 308.1;" xml:space="preserve">
<style type="text/css">
	.st0{fill:#F2F2F2;}
	.st1{fill:#4F4F4F;}
	.st2{fill:#CDD6E0;}
</style>
<path class="st0" d="M175.7,308.1H10.7c-6.4,0-10.7-4.3-10.7-10.7V18.4C0,12,4.3,7.7,10.7,7.7h164c6.4,0,10.7,4.3,10.7,10.7v279.1
	C186.4,302.7,181.1,308.1,175.7,308.1z"/>
<rect x="21.3" y="39.7" class="st1" width="142.7" height="215.2"/>
<g>
	<g>
		<path class="st2" d="M110.8,27.9H75.6c-2.1,0-4.3-2.1-4.3-4.3l0,0c0-2.1,2.1-4.3,4.3-4.3h35.1c2.1,0,4.3,2.1,4.3,4.3l0,0
			C115,25.8,112.9,27.9,110.8,27.9z"/>
		<path class="st2" d="M107.6,288.9H77.8c-4.3,0-7.5-3.2-7.5-7.5l0,0c0-4.3,3.2-7.5,7.5-7.5h29.8c4.3,0,7.5,3.2,7.5,7.5l0,0
			C115,285.7,111.8,288.9,107.6,288.9z"/>
	</g>
</g>
<image style="overflow:visible;" width="216" height="67" xlink:href="3D92E853.jpg"  transform="matrix(1 0 0 1 -317 260)">
</image>
</svg>
