<svg xmlns="http://www.w3.org/2000/svg" viewBox="0 0 29.93 336.06"><defs><style>.cls-1{fill:#f05540;}.cls-2{fill:#55bfe9;}.cls-3{fill:#334a5e;}.cls-4{fill:#ffd05c;}.cls-5{fill:#40596b;}.cls-6{fill:#89d6f7;}</style></defs><title>4-2</title><g id="Слой_2" data-name="Слой 2"><g id="Capa_1" data-name="Capa 1"><rect class="cls-1" x="0.07" y="311.53" width="29.87" height="24.53"/><rect class="cls-2" x="0.07" y="301.93" width="29.87" height="9.6"/><polygon class="cls-3" points="8.6 12.87 15 0.07 21.4 12.87 8.6 12.87"/><path class="cls-4" d="M.07,28.8l9.6-18.13L15,0l5.33,10.67,9.6,18.13h0A5.72,5.72,0,0,1,25.66,32a5.87,5.87,0,0,1-5.33-3.2A5.87,5.87,0,0,1,15,32a5.87,5.87,0,0,1-5.33-3.2A5.87,5.87,0,0,1,4.33,32,5.72,5.72,0,0,1,.07,28.8Z"/><path class="cls-5" d="M26.67,31a5.87,5.87,0,0,1-5.33-3.2A5.87,5.87,0,0,1,16,31a5.87,5.87,0,0,1-5.33-3.2A5.87,5.87,0,0,1,5.33,31,5.87,5.87,0,0,1,0,27.8V301.93H29.87V27.8A3.41,3.41,0,0,1,26.67,31Z"/><path class="cls-6" d="M.07,27.8Z"/><polygon class="cls-3" points="9.66 10.73 15 0.07 20.33 10.73 9.66 10.73"/></g></g></svg>