<svg xmlns="http://www.w3.org/2000/svg" viewBox="0 0 111.2 155.67"><defs><style>.cls-1{fill:#feb82d;stroke:#000;stroke-miterlimit:10;stroke-width:5px;}</style></defs><title>Ресурс 1</title><g id="Слой_2" data-name="Слой 2"><g id="Слой_1-2" data-name="Слой 1"><g id="Слой_2-2" data-name="Слой 2"><g id="Слой_2-2-2" data-name="Слой 2-2"><rect class="cls-1" x="37.23" y="2.5" width="25.13" height="150.67"/><path class="cls-1" d="M40.29,144.44H2.5V11H40.23m19,0H68.1c24.4,0,38,15.2,38,34,0,16.8-16.6,30-23.2,30.6,8.56.69,25.8,16.4,25.8,32.8,0,20.6-13.8,36-38.8,36H59.3M40.13,31.64H25.9v34.6H40.13m19.2,0h4c12,0,18.8-7.2,18.8-17.2s-6.8-17.4-18.8-17.4h-4m.06,92.2h4.9c12.8,0,20.4-7,20.4-18.6,0-10-7-18.4-20.4-18.4h-4.9m-19.26,0H25.9v37H40.2"/></g></g></g></g></svg>