<?xml version="1.0" encoding="utf-8"?>
<!-- Generator: Adobe Illustrator 21.0.0, SVG Export Plug-In . SVG Version: 6.00 Build 0)  -->
<svg version="1.1" id="Слой_1" xmlns="http://www.w3.org/2000/svg" xmlns:xlink="http://www.w3.org/1999/xlink" x="0px" y="0px"
	 viewBox="0 0 2540.1 722.6" style="enable-background:new 0 0 2540.1 722.6;" xml:space="preserve">
<style type="text/css">
	.st0{stroke:#000000;stroke-width:5;stroke-miterlimit:10;}
	.st1{fill:#A93C00;stroke:#000000;stroke-width:5;stroke-miterlimit:10;}
	.st2{fill:#F48C38;stroke:#000000;stroke-width:5;stroke-miterlimit:10;}
	.st3{fill:#C25011;stroke:#000000;stroke-width:5;stroke-miterlimit:10;}
	.st4{fill:#FBE9B9;stroke:#000000;stroke-width:5;stroke-miterlimit:10;}
	.st5{fill:#191415;stroke:#000000;stroke-width:5;stroke-miterlimit:10;}
	.st6{fill:#3B3C42;stroke:#000000;stroke-width:5;stroke-miterlimit:10;}
	.st7{fill:#FA7E04;stroke:#000000;stroke-width:5;stroke-miterlimit:10;}
	.st8{fill:#FD870B;stroke:#000000;stroke-width:5;stroke-miterlimit:10;}
	.st9{fill:#D53700;stroke:#000000;stroke-width:5;stroke-miterlimit:10;}
	.st10{fill:#2E3947;stroke:#000000;stroke-width:5;stroke-miterlimit:10;}
	.st11{fill:#FF8C41;stroke:#000000;stroke-width:5;stroke-miterlimit:10;}
	.st12{fill:#707B9A;stroke:#000000;stroke-width:5;stroke-miterlimit:10;}
	.st13{fill:#FE8608;stroke:#000000;stroke-width:5;stroke-miterlimit:10;}
	.st14{fill:#390A01;stroke:#000000;stroke-width:5;stroke-miterlimit:10;}
	.st15{fill:#070504;stroke:#000000;stroke-width:5;stroke-miterlimit:10;}
	.st16{fill:#400900;stroke:#000000;stroke-width:5;stroke-miterlimit:10;}
	.st17{fill:#8F2506;stroke:#000000;stroke-width:5;stroke-miterlimit:10;}
	.st18{fill:#EF5A01;stroke:#000000;stroke-width:5;stroke-miterlimit:10;}
	.st19{fill:#FD9713;stroke:#000000;stroke-width:5;stroke-miterlimit:10;}
	.st20{fill:#FECD4C;stroke:#000000;stroke-width:5;stroke-miterlimit:10;}
	.st21{fill:#140B0E;stroke:#000000;stroke-width:5;stroke-miterlimit:10;}
	.st22{fill:#1D1A1C;stroke:#000000;stroke-width:5;stroke-miterlimit:10;}
	.st23{fill:#090001;stroke:#000000;stroke-width:5;stroke-miterlimit:10;}
	.st24{fill:#432F2D;stroke:#000000;stroke-width:5;stroke-miterlimit:10;}
	.st25{fill:#110403;stroke:#000000;stroke-width:5;stroke-miterlimit:10;}
	.st26{fill:#130301;stroke:#000000;stroke-width:5;stroke-miterlimit:10;}
	.st27{fill:#51555F;stroke:#000000;stroke-width:5;stroke-miterlimit:10;}
	.st28{fill:#0D090D;stroke:#000000;stroke-width:5;stroke-miterlimit:10;}
	.st29{fill:#621E08;stroke:#000000;stroke-width:5;stroke-miterlimit:10;}
	.st30{fill:#FFA524;stroke:#000000;stroke-width:5;stroke-miterlimit:10;}
	.st31{fill:#FE9600;stroke:#000000;stroke-width:5;stroke-miterlimit:10;}
	.st32{fill:#8A2601;stroke:#000000;stroke-width:5;stroke-miterlimit:10;}
	.st33{fill:#EE6304;stroke:#000000;stroke-width:5;stroke-miterlimit:10;}
	.st34{fill:#FC7A01;stroke:#000000;stroke-width:5;stroke-miterlimit:10;}
	.st35{fill:#E8EAF3;stroke:#000000;stroke-width:5;stroke-miterlimit:10;}
	.st36{fill:#463D45;stroke:#000000;stroke-width:5;stroke-miterlimit:10;}
	.st37{fill:#FF9E1C;stroke:#000000;stroke-width:5;stroke-miterlimit:10;}
	.st38{fill:#FD8617;stroke:#000000;stroke-width:5;stroke-miterlimit:10;}
	.st39{fill:#FF9119;stroke:#000000;stroke-width:5;stroke-miterlimit:10;}
	.st40{fill:#FEEA7C;stroke:#000000;stroke-width:5;stroke-miterlimit:10;}
	.st41{fill:#E56A0D;stroke:#000000;stroke-width:5;stroke-miterlimit:10;}
	.st42{fill:#BF3404;stroke:#000000;stroke-width:5;stroke-miterlimit:10;}
	.st43{fill:#FCCF4A;stroke:#000000;stroke-width:5;stroke-miterlimit:10;}
	.st44{fill:#0C0100;stroke:#000000;stroke-width:5;stroke-miterlimit:10;}
	.st45{fill:#504337;stroke:#000000;stroke-width:5;stroke-miterlimit:10;}
	.st46{fill:#FAEA8E;stroke:#000000;stroke-width:5;stroke-miterlimit:10;}
	.st47{fill:#FEA116;stroke:#000000;stroke-width:5;stroke-miterlimit:10;}
	.st48{fill:#FC7106;stroke:#000000;stroke-width:5;stroke-miterlimit:10;}
	.st49{fill:#FD8114;stroke:#000000;stroke-width:5;stroke-miterlimit:10;}
	.st50{fill:#FC7E00;stroke:#000000;stroke-width:5;stroke-miterlimit:10;}
	.st51{fill:#F36709;stroke:#000000;stroke-width:5;stroke-miterlimit:10;}
	.st52{fill:#FE7102;stroke:#000000;stroke-width:5;stroke-miterlimit:10;}
	.st53{fill:#F97402;stroke:#000000;stroke-width:5;stroke-miterlimit:10;}
	.st54{fill:#DF918A;stroke:#000000;stroke-width:5;stroke-miterlimit:10;}
	.st55{fill:#FED750;stroke:#000000;stroke-width:5;stroke-miterlimit:10;}
	.st56{fill:#FC9E0A;stroke:#000000;stroke-width:5;stroke-miterlimit:10;}
	.st57{fill:#FEDD63;stroke:#000000;stroke-width:5;stroke-miterlimit:10;}
	.st58{fill:#DD4910;stroke:#000000;stroke-width:5;stroke-miterlimit:10;}
	.st59{fill:#440400;stroke:#000000;stroke-width:5;stroke-miterlimit:10;}
	.st60{fill:#250A00;stroke:#000000;stroke-width:5;stroke-miterlimit:10;}
	.st61{fill:#070000;stroke:#000000;stroke-width:5;stroke-miterlimit:10;}
	.st62{fill:#383737;stroke:#000000;stroke-width:5;stroke-miterlimit:10;}
	.st63{fill:#444F60;stroke:#000000;stroke-width:5;stroke-miterlimit:10;}
	.st64{fill:#FC6400;stroke:#000000;stroke-width:5;stroke-miterlimit:10;}
	.st65{fill:#FD8000;stroke:#000000;stroke-width:5;stroke-miterlimit:10;}
	.st66{fill:#FDB938;stroke:#000000;stroke-width:5;stroke-miterlimit:10;}
	.st67{fill:#F76F00;stroke:#000000;stroke-width:5;stroke-miterlimit:10;}
	.st68{fill:#F38528;stroke:#000000;stroke-width:5;stroke-miterlimit:10;}
	.st69{fill:#F3A665;stroke:#000000;stroke-width:5;stroke-miterlimit:10;}
	.st70{fill:#FEB82D;stroke:#000000;stroke-width:5;stroke-miterlimit:10;}
	.st71{fill:#FEDFB7;stroke:#000000;stroke-width:5;stroke-miterlimit:10;}
	.st72{fill:#21181A;stroke:#000000;stroke-width:5;stroke-miterlimit:10;}
	.st73{fill:#404657;stroke:#000000;stroke-width:5;stroke-miterlimit:10;}
	.st74{fill:#C08D9B;stroke:#000000;stroke-width:5;stroke-miterlimit:10;}
	.st75{fill:#91D6E5;stroke:#000000;stroke-width:5;stroke-miterlimit:10;}
	.st76{fill:#D1D5E5;stroke:#000000;stroke-width:5;stroke-miterlimit:10;}
	.st77{fill:#DFE3EA;stroke:#000000;stroke-width:5;stroke-miterlimit:10;}
	.st78{fill:#7F7F7F;stroke:#000000;stroke-width:5;stroke-miterlimit:10;}
</style>
<title>car</title>
<polygon class="st0" points="2430.4,466.6 2270.4,441.6 2108.4,233.6 2279.4,189.6 2411.4,265.6 2456.4,360.6 "/>
<path class="st0" d="M1093.4,621.6l-206-17l-204-316c0,0,224.6-70.5,226.8-73.3s367.2,172.3,367.2,172.3l-129,211L1093.4,621.6z"/>
<polygon class="st1" points="68.9,510.1 15.9,573.1 86.9,559.4 113.9,516.1 "/>
<polygon class="st2" points="60.9,507.1 68.9,510.1 15.9,573.1 "/>
<path class="st3" d="M2.9,432.1c2,10,6.5,17.3,23,42c6.2,9.3,38.6,49.3,41,50c8.9,2.7,15.2-9.2,32-17c8.4-3.9,14.4-1.9,28-2
	c29.4-0.2,39.2,3,46-2c11.6-8.5,5.7-53.8-22-79c-39-35.6-100.7-12.2-138,2C9.8,427.2,4.8,427.3,2.9,432.1z"/>
<path class="st4" d="M600.9,187.1c19-3,37.6-8.8,55-17c0.4-0.2,63-20.5,188-61c108.7-35.2,153.6-47.6,153-50
	c-0.7-2.6-53.2,8.8-94,19c-91.3,22.8-103.2,34.3-205,64c-18,5.2-41.3,13.8-88,31c-16.9,6.2-33.6,12.5-33,15
	C577.6,190.8,598.7,187.4,600.9,187.1z"/>
<ellipse class="st5" cx="2219.8" cy="417.3" rx="201" ry="187.8"/>
<ellipse class="st6" cx="2246.2" cy="421" rx="178.6" ry="184"/>
<ellipse class="st5" cx="866.9" cy="493.1" rx="243" ry="227"/>
<ellipse class="st6" cx="898.9" cy="497.6" rx="216" ry="222.5"/>
<path id="_Контур_" class="st7" d="M16.4,406.6c3.8-5.5,8-10.6,12.5-15.5c25.2-26.8,75-58,75-58c16.1-10,26-16.2,44-26
	c12.7-6.9,66.4-35.8,153-68c38.7-14.3,67.3-24.8,107-34c24-5.5,43.8-8.7,65-12c45.5-7.2,55-6.1,55-6s-9.7,0.6-18,7
	c-3.5,2.8-3.9,4.3-4,5c-0.8,6.3,12.5,10.2,13,14c1.8,12.6-130.7,40.7-146,44C167.1,301.7,16.9,439.1,16.4,406.6z"/>
<path class="st8" d="M1125.9,307.1c3.7-0.2,10.5-0.8,24-2c30.1-2.7,576.1-55,599-59c4-0.7,8-1,12-1c3.7,0.1,7.4,0.4,11,1
	c5.6,0.9,8.5,1.2,9,2c2.9,4.4-9.8,19.6-24,30c-7.4,5.4-13.8,8.5-21,12c-10,4.8-20.4,8.8-31,12c-53.6,16-91,21-91,21
	c-87.6,11.7-150,16-150,16c-135.9,9.4-264.2,12.7-288,17c-4.3,0.8-8.6,1.1-13,1c-9.4-0.4-18.6-2.8-27-7c-21.6-10.4-44.3-33.6-40-41
	C1097.8,305.8,1103.5,308,1125.9,307.1z"/>
<path class="st8" d="M1598.9,48.1c3,7,8.6,17.2,21,46c4.9,11.7,8.9,23.7,12,36c3.5,13.3,5.3,24.6,6,29c0.5,2.3,0.9,4.6,1,7
	c0,3.4-0.6,4,0,5c2.3,3.7,16.1,1.8,18-4c0.3-1,0.3-2,0-3c-2-10.9-4.8-21.2-5-22c-1.1-3.9-1.1-4.5-2-8c-5.1-19.8-11.3-33.2-21-58
	c-7-18-11-23-15-29C1610.9,42.6,1601.6,44.5,1598.9,48.1z"/>
<path class="st9" d="M1790.4,38.6c15.5,3.5,54.3,8.4,137,25c22.2,4.5,40,8.2,76,16c95.6,20.7,144.2,31.2,187,42c0,0,27,6.3,82,22
	c23.5,6.7,31.2,9.3,31,10c-0.3,1.4-28.4-4.7-55-9c0,0-67-10.9-139-9c-63.6,1.6-60.8,11.4-112,13c-65.5,2-214.4-59.8-223-83
	c-1.7-5.5-2.7-11.2-3-17c-0.7-10.1,1.2-11.6,2-12c1.8-0.9,3.3,1.1,8,2C1785.7,39.4,1788.9,38.2,1790.4,38.6z"/>
<path class="st8" d="M1164.9,106.1c8.1,18.5,16,64,16,64c5,28.8,7.5,43.2,7,50c-1.1,15.9-5.1,26.9,1,32c5.1,4.2,15.3,2.9,19-2
	c1.5-2,1.7-5.7,2-13c0.2-3.3,0.2-6.7,0-10c-1.6-25.1-7-56-7-56c-12.6-71.8-13.2-70-17-75C1178.1,85.8,1163.8,103.7,1164.9,106.1z"/>
<path class="st10" d="M1002.9,187.1c2.3-15.7,32.2-22.8,50-28c51.7-15.1,36.1-24.3,116-58c49.6-21,101.2-36.7,154-47
	c40.6-7.7,70.6-9.8,101-12c103.2-7.3,125.8,5.3,252,14c8,0.6,27.7,1.9,49,13c12.1,6.4,22.9,14.9,32,25c11.1,11.8,21.6,23.1,23,40
	c0.4,4.4,1.1,12.9-3,20c-11.6,20.1-54.4,15.8-64,15c-1.6-0.1-75.8,10.9-224,33c-119.9,17.9-188.3,39.7-287,42
	c-16.1,0.4-32.4-0.8-65-3c-71.5-4.9-103.1-12.5-124-34C1003,196.9,1002.4,190.7,1002.9,187.1z"/>
<path class="st11" d="M1054.4,44.6c29-6.7,67.6-14.7,113.5-21.5c8.3-1.2,37.8-5.5,84-10c71-6.8,145.2-13.7,241-9
	c29.7,1.5,50.3,3.5,86,7c60.6,6,168.4,18.7,168,25c-0.3,5-69.1,4.2-94,4C1543,39,1364.4,39.3,1054.4,44.6z"/>
<path class="st10" d="M579.9,194.1c0.1-2.3,2.2-3.6,35-16c74.9-28.3,114-41,114-41c64.7-21.1,97.1-31.7,111-36
	c63.5-19.7,55.6-15.8,103-31c23.2-7.4,45.2-14.8,78-23c8.2-2,24.6-6.1,45-10c0,0,78.6-15,188-10c11.7,0.5,22.9,1.4,23,3
	s-13,3.6-16,4c-61.7,9.2-233,84.9-249,92c-10.1,4.5-30.4,13.6-56,27c-29.6,15.5-49.1,27.8-64,38c-5.4,3.7-9.3,6.5-10,7
	C830.8,234.4,578.8,220.2,579.9,194.1z"/>
<path class="st12" d="M498.9,196.1c4-4.5,8.8-3.8,28-6c12.8-1.5,24.8-3.4,35-5c13.5-2.2,16.2-2.9,23-3s15.2,0.6,21,1
	c5.4,0.4,9.1,0.8,11,1c12,1.1,24,1.4,36,1c12.7-0.4,25.4-1.7,38-4c18.6-3,39.7-4,82-6c66.6-3.1,161.1,8.7,161,18
	c0,5.7-34.8,7.8-144,19c-180.5,18.6-284.2,33.2-294,6C494.4,213.8,493,202.6,498.9,196.1z"/>
<path class="st13" d="M380.9,409.1c0,0,21.3,6.3,309-48c2-0.4,28.4-3.8,29-3c1.4,1.8-4.6,8.6-5,9c-13.2,15-22.1,55.5-27,78
	c-6.3,28.9-8,51-10,77c-1.6,20.3-2.3,30.4-2,44c0.4,15.7,0.5,31.3,1,47c0.1,3.2,0.1,3.4,0,4c-7.4,37.3-256.2-12.9-272-23
	c-1.4-0.9-2.7-1.9-4-3c-7.7-6.8-10.2-15.5-11-18c-4-12.6-14.5-26.4-33-71c-13.8-33.4-28.8-71.9-33-76c-0.3-0.3-2.2-2-2-4
	L380.9,409.1z"/>
<polygon class="st9" points="1750.4,232.6 1804.4,190.6 1854.4,190.6 1942.4,215.6 1830.4,457.6 1736.4,460.6 1686.4,436.6 "/>
<polygon class="st14" points="77.9,518.1 25.9,570.1 117.9,554.1 130.9,529.1 "/>
<polygon class="st15" points="106.9,534.1 94.9,558.1 154.9,568.1 167.9,539.1 "/>
<path class="st16" d="M66.9,524.1c13-7,60.5,0.9,84,5c15.9,2.8,29.8,6.1,30,11c0.1,2.8-4.1,5.7-6,6
	C144.9,551.1,77.9,532.1,66.9,524.1z"/>
<path class="st17" d="M66.9,524.1c7.2-7.4,15.7-13.5,25-18c3.8-2,7.9-3.7,12-5c7.4-2.2,12.6-2.1,33-1s23,1.5,27,3
	c5.8,2.2,16.4,6.2,18,15c0.8,5.2-1.1,10.5-5,14c-3.9,3.5-8.9,3.9-11,4C154.3,536.7,94.9,531.1,66.9,524.1z"/>
<path class="st18" d="M128.9,442.1c14,31,25,59,40,77c18,12,131,25.5,154-22c13.4-27.7,7.2-62.3-14-84
	C250.9,406.1,184.9,433.1,128.9,442.1z"/>
<path class="st19" d="M2.9,432.1c-2.8-4.2,11-18.5,23-31c1.3-1.4,3.3-3.4,5.9-5.9c4.7-4.4,8.9-7.7,12.1-10.1
	c25.8-19.7,53.2-37.1,82-52c38.3-18.9,79.2-39.1,141-62c57.2-21.1,98.8-32.2,151-46c25-6.8,50.4-12.1,76-16c16.6-2.6,33.3-4.2,50-5
	c19.9-0.8,35.2,0.1,51,1c21.1,1.2,31.6,1.8,32,3c5.6,16.7-272.2,100-363,167c-10.2,7.5-51.3,39.3-112,51c-4.2,0.8-7.3,1.3-12,2
	c-62.7,9.6-112.8,4.7-124,6c-2,0.2-4,0.2-6,0C6.1,433.6,3.7,433.4,2.9,432.1z"/>
<path class="st20" d="M128.9,442.1c7.6-9.2,18-21,31-34c3.8-3.8,34.6-34.3,74-61c16.7-11.3,41.2-26.1,142-67
	c131.5-53.3,181.3-65.2,198-69c30.2-6.9,55.4-11,74-14c48-7.8,96.4-13.1,145-16c46.7-2.8,80.7-4.7,127,0c26.8,2.7,57.2,7.5,57,9
	s-32.3-1.1-56-2c-68.7-2.6-122.3,7.6-167,16c-89.3,16.9-263.2,49.7-384,162c-14.2,13.2-31,30.6-61,47
	C178.9,435.1,171.9,434.1,128.9,442.1z"/>
<path class="st8" d="M94.9,558.1"/>
<polygon class="st21" points="95.4,557.6 16.4,570.6 12.4,580.6 23.4,592.6 131.4,618.6 169.4,569.6 "/>
<polygon class="st22" points="12.4,580.6 139.8,607.7 131.4,618.6 23.4,592.6 "/>
<polygon class="st23" points="212.4,471.6 316.4,458.6 362.4,572.6 257.4,566.6 "/>
<polygon class="st24" points="184.4,469.6 325.4,446.6 319.4,441.6 187.4,463.6 "/>
<polygon class="st25" points="190.9,474.6 183.9,469.1 324.9,446.1 315.9,458.1 "/>
<polygon class="st26" points="199.9,514.1 190.9,474.1 212.4,471.6 230.6,510.1 "/>
<polygon class="st27" points="206.9,580.1 199.9,514.1 230.9,510.1 256.9,566.1 "/>
<polygon class="st28" points="383.9,593.1 206.9,580.1 256.9,566.1 361.9,572.1 "/>
<polygon class="st29" points="212.9,590.1 206.9,580.1 383.9,593.1 372.9,599.1 "/>
<polygon class="st30" points="125.9,615.1 211.9,589.1 206.9,580.1 199.9,514.1 168.9,518.1 "/>
<polygon class="st31" points="372.9,599.1 291.9,636.1 125.9,615.1 211.9,589.1 "/>
<polygon class="st32" points="294.9,646.1 291.9,636.1 125.9,615.1 132.9,630.1 "/>
<polygon class="st33" points="308.9,413.1 391.9,588.1 291.9,636.1 294.9,646.1 687.9,649.1 674.9,568.1 401.9,582.1 326.9,429.1 
	691.9,361.1 "/>
<path class="st34" d="M342.9,438.1c0,0,2.2,2.7,18,35c0,0,11.3,23.2,25,38c1.7,1.9,3.8,3.6,6,5c6.8,4.1,13.9,4.2,18,4
	c15.2-0.5,30.3-2.9,45-7c0,0,59.4-18.3,86-34c7.8-4.6,16-10,16-10l3-2c13.8-9.5,10.4-39.9,28-72c1.7-3.2,2.3-3.8,2-5
	C572.9,394.1,389.9,432.1,342.9,438.1z"/>
<path class="st35" d="M594.9,407.1c-0.3,1.3-0.3,2.7,0,4c0.9,3.5,4.1,5.5,5,6c1.8,1.1,3.9,1.8,6,2c77-5,90-11,90-11
	c1.8-2.2,2-9,6-20C660.9,394.1,611.9,404.1,594.9,407.1z"/>
<path class="st36" d="M979.9,193.1c2.2,4.3,11.9,5.5,19,4c4.4-1,8.6-3,12-6c1.3-1.1,33.5-19,98-55c30.1-16.8,53.7-26,82-37
	c83.4-32.5,150.6-43.1,171-46c31.2-4.5,53.8-5.7,79-7c0,0,108-5.7,203,10c35.8,5.9,42.2,11.8,58,13c3.3,0.3,12.8,0.8,22,7
	c2.2,1.5,4.2,3.1,6,5c10,9.8,19,20.5,27,32c17.3,26.3,13.7,28.1,20,34c16.7,15.8,42.3,3.4,107-7c58.5-9.4,88.6-7.5,90-17
	c0.5-3.6-18,1.3-47-13c-69.1-34.2-120.7-45-132-47c-14.6-2.5-20.4-14.3-57-18c-78.8-8-122.7-12.5-181-15c-82.3-3.5-123.5-5.3-178,1
	c-34.7,4-75.5,14.3-157,35c-56.5,14.3-153.5,40.3-213,90C1002.7,161.2,975.2,184.2,979.9,193.1z"/>
<path class="st37" d="M896.4,193.6c31.7-29,55-40,55-40c217.7-102.2,307-121,307-121c53.7-11.3,108.2-18.3,163-21
	c51.6-2.5,90-0.4,167,4c60.7,3.4,92.7,7.4,155,15c0,0,63.3,7.8,63,11c-0.1,0.7-3.8,0.2-10,2c-9.4,2.8-12.3,7.3-19,10
	c-4.5,1.8-5.7,0.7-21,0c-24.4-1.1-36.5-1.7-43,3c-1,0.7-4,3.1-8,3c-2.1-0.1-4.2-0.8-6-2c-2.8-1.8-16.2-7.4-58-12
	c-103.4-11.4-155-11-155-11c-55.1,0.4-112.7,0.9-187,16c0,0-111.7,22.7-270,108c-18.9,10.3-36.9,22-54,35c-3.4,3.3-7.1,6.4-11,9
	c-29.1,19.4-64.3,12.3-77,9c0.4-4.2,1.8-8.3,4-12C892.8,197.3,894.4,195.3,896.4,193.6z"/>
<path class="st38" d="M1194.9,230.1c11-1,16.1-1.4,26-1c29.7,1.2,47.4-3.1,91-11c38.9-7-45.2,9,136-22c155.1-26.6,232.7-39.9,233-40
	c5.7-2.3,11.9-3.3,18-3c2.4,0.1,4.7,0.5,7,1c20.4,4.6,30.6,6.9,40,10c31.6,10.5,25.6,14.8,44,19c2.8,0.6,7.9,1.7,9,5
	c1,3.2-2.2,6.4-12,17c-20.1,21.8-15,17.2-18,20c-3.8,3.5-8.2,7.2-11,14c-0.9,2.2-1.6,4.6-2,7c-3.7,21.6-46.1,157.2-53,181
	c-1.6,5.4-2.8,10.4-3,11c-0.6,2.3-1,4-1,4c-3,12.2-529.6,117.3-535,81c-0.1-0.4,0-0.7,0-9c0,0,0.1-13.1,0-36c0-15.9-2.2-47.6-7-81
	c-6.7-47-10.1-70.6-18-96c-1.1-3.2-1.8-6.6-2-10C1151.9,271.1,1170.9,244.1,1194.9,230.1z"/>
<path class="st39" d="M1045.9,285.1c5,3,12.3,8.8,21,16c11.1,9,17.3,22.3,27,50c15,42.8,18.8,80.6,21,104c3,31.5,7,81,7,81
	s30.1-6.1,42-13c6-46-6-174-27-232C1086.9,300.1,1039.4,281.2,1045.9,285.1z"/>
<polygon class="st40" points="1698.9,442.1 1718.9,474.1 1162.9,533.1 1162.9,523.1 "/>
<polygon class="st8" points="1122.9,538.1 1162.9,533.1 1162.9,523.1 1121.4,530.6 "/>
<polygon class="st41" points="1093.9,622.1 1122.9,538.1 1718.9,474.1 1699.9,583.1 "/>
<path class="st42" d="M1182.9,550.1c0.1,2,24.8,29.2,36,39c11.4,10,11.5,10.2,13,11c12.4,6.9,25.3,5.5,30,5
	c33.3-3.4,118.7-8.8,250-17l35-2l105-6c0,0-355.8,12.3-378,14c-7,0.6-14,0.6-21,0c-2.8-0.2-6.1-0.5-9-1c-17.9-3.2-49.2-36.6-49-39
	c0.5-4.8,13.9-7.1,19-8c30.3-5.2,422-44,422-44C1177.9,538.1,1182.5,543.7,1182.9,550.1z"/>
<polygon class="st43" points="1698.9,442.1 1807.9,461.1 1718.9,474.1 "/>
<polygon class="st44" points="1928.9,223.1 1904.9,237.1 1804.9,455.1 1873.9,414.1 1954.9,244.1 "/>
<polygon class="st45" points="1945.3,236.3 1865.4,411.6 1804.4,454.6 1898.4,433.6 1999.4,233.6 "/>
<polygon class="st45" points="1901.9,205.1 1944.9,236.1 1998.9,233.1 1929.9,203.1 "/>
<polygon class="st46" points="1718.9,474.1 1895.9,419.1 1986.9,230.1 2063.9,260.1 1960.9,302.1 1901.9,420.1 "/>
<polygon class="st47" points="2015.9,443.1 2076.9,451.1 2102.9,331.1 2029.9,363.1 "/>
<polygon class="st48" points="2027.9,524.1 2083.9,542.1 2076.9,451.1 2015.9,442.1 "/>
<path class="st49" d="M2102.9,331.1l-27,15l-49.5,98.4l20,81.1l37.5,16.5l3,16l-388,25l20-109l183-54l20.1-40.2l164.9-67.8l22-35
	l14,7C2111.9,302.1,2102.9,331.1,2102.9,331.1z"/>
<polygon class="st50" points="2063.9,260.1 2108.9,277.1 2087.4,312.1 1921.9,380.1 1960.9,302.1 "/>
<polygon class="st8" points="1232.9,187.1 1244.9,187.1 1271.9,233.1 1269.9,246.1 "/>
<polygon class="st51" points="1202.9,191.1 1232.9,187.1 1269.9,246.1 1218.9,246.1 1224.9,234.1 "/>
<polygon class="st52" points="1200.7,160.9 1196.9,191.1 1224.9,191.1 1224.9,161.1 1272.9,126.1 1223.9,150.1 "/>
<polygon class="st53" points="1224.4,194.1 1230.9,174.1 1301.9,128.1 1303.9,112.1 1272.9,126.1 1224.4,161.1 "/>
<polygon class="st54" points="1227.4,190.6 1233.4,181.6 1299.4,136.6 1299.4,129.7 1230.4,173.6 1224.4,193.6 "/>
<polygon class="st8" points="1183.9,114.1 1189.9,117.1 1280.9,89.1 1272.9,85.1 "/>
<polygon class="st55" points="1223.9,150.1 1189.9,117.1 1280.9,89.1 1305.9,107.1 "/>
<polygon class="st8" points="1303.9,112.1 1305.9,107.1 1223.9,150.1 "/>
<polygon class="st56" points="1183.9,113.1 1175.9,165.1 1200.9,162.1 1223.9,150.1 1189.9,117.1 "/>
<polygon class="st8" points="1198.5,178.2 1175.9,165.1 1199.9,162.1 "/>
<polygon class="st57" points="1148.9,295.1 1798.9,187.1 1752.9,165.1 "/>
<polygon class="st58" points="1642.9,229.1 1653.9,218.1 1744.9,203.1 1753.9,209.1 1735.9,230.1 1652.9,239.1 "/>
<polygon class="st59" points="1650.9,227.1 1654.9,223.1 1731.9,210.1 1741.9,214.1 1732.9,223.1 1657.9,233.1 "/>
<polygon class="st60" points="1697.9,57.1 1748.9,51.1 1779.9,55.1 1736.9,57.1 "/>
<polygon class="st61" points="1793.9,140.1 1699.4,57.6 1736.9,57.1 1818.9,108.1 1798.9,142.1 "/>
<polygon class="st62" points="1786.9,54.1 1736.9,57.1 1818.9,108.1 1942.9,110.1 "/>
<polygon class="st63" points="1798.9,142.1 1959.9,116.1 1942.9,110.1 1818.9,108.1 "/>
<polygon class="st64" points="1694.1,153 1951.9,110.1 2002.9,136.1 1753.9,165.1 "/>
<path class="st65" d="M1786.9,54.1l91,71l125,11C2002.9,136.1,1885.9,70.1,1786.9,54.1z"/>
<path class="st66" d="M1752.9,165.1l250-29l87-8.5c3.3-0.3,6.7-0.5,10-0.7l37.6-1.2c12.2-0.4,24.4,0.6,36.3,2.9l130,25.5
	l-123.4-18.3c-16.3-2.4-32.9-2.4-49.3,0.1l-332.3,51.2L1752.9,165.1z"/>
<path class="st67" d="M1798.9,187.1l295.8-47.7c26-4.2,57-9.9,82.8-4.8c0,0,235.5,2.5,321.5,56.5c-14,26-77,99-101,107
	c-136-169-275-14-275-14l-223.4-71.7c-29.6-9.5-60.4-14.4-91.5-14.6l-14.3-0.1L1798.9,187.1z"/>
<path class="st68" d="M2397.9,298.1c48,38,35,153,35,153s63.1-47.4,74-71c21.1-45.9-8-190-8-190S2424.9,289.1,2397.9,298.1z"/>
<path class="st69" d="M2429.9,467.1l4.6-54.5l79.6-68.5l17.3,12.6c6.5,4.7,8.2,13.7,3.9,20.5l-20.3,31.9L2429.9,467.1z"/>
<path class="st70" d="M368.9,385.1c-6-7.3-8.9-16.6-8-26c1.3-11.7,10.1-25.2,60-51c19.5-10.1,39.5-19.1,60-27
	c113.7-43,129.8-57.9,190-69c13.1-2.4,10.1-1.3,45-7c81.7-13.3,76.2-15.8,106-19c44.7-4.7,83.6-1.9,137,2c12.7,0.9,21.1,1.6,33,3
	c13.1,1.6,58,7.1,100,21c2.9,1,14.4,4.8,30,9c12,3.2,18.2,4.8,27,6c4.7,0.6,12.2,1.1,27,2c9.2,0.6,16.3-1.2,17,1
	c0.5,1.6-2.8,3.9-4,5c-13,12-35,41-46,52c-0.8,0.8-1.1,4.5-4,7c-2.3,1.8-5.1,2.9-8,3c-16,1.8-19.2,7.3-32,6c-1.3-0.1-4.9-1.1-12-3
	c-10.6-2.8-17.4-5.2-31-10c-1.7-0.6-3.4-1.2-5-2c-4.4-2-8.4-4.7-12-8c-9.6-8.6-35.9-20.5-37-21c-19.1-8.6-35.5-11.2-48-13
	c-18.2-2.7-36.7-3-55-1c-14.3,1.6-28.3,4.6-42,9c-2.4,0.8-39.4,12.9-65,33c-2.8,2.3-12.7,10.2-27,20c0,0-4.5,3.1-9,6
	c-38.2,24.8-182,39-182,39C454.5,363.8,393.9,414.3,368.9,385.1z"/>
<path class="st71" d="M314.9,395.1c5.8-7,15.2-16,29-21c3.9-1.4,7.9-2.4,12-3c31.9-4.8,369.4-57.1,375-58c0.6-0.1,3.3-0.5,7-1
	c21.7-2.8,24.5-3.1,25-2c0.6,1.3-2.4,3.4-9,9c0,0-9,7.7-20,19c-6.2,6.4-10.2,11.2-14,17c-1.7,2.7-2.9,4.8-3,5
	c-12.5,22.2-339.1,33.7-394,54c-3.2,1.2-18.1,7.1-21,3C299.3,413.3,307.8,402.8,314.9,395.1z"/>
<path class="st72" d="M279.9,374.1c-1-6,0.6-14.7,6-27c3.2-7.1,7.2-13.8,12-20c25.2-31.2,271.7-78.8,273-67c0.1,0.9-1.3,1.5-12,6
	c-142.7,60.3-164.6,73.4-183,89c-5.5,4.9-11.6,9.3-18,13C332.1,372,306,374.1,279.9,374.1z"/>
<polygon class="st73" points="324.9,446.1 391.4,587.6 360.7,604.6 310.4,448.9 "/>
<path class="st73" d="M1699.4,56.6c0,0,56.1-8.9,57-8.4s31,6.4,31,6.4L1699.4,56.6z"/>
<path class="st74" d="M311.4,364.6c-0.1-0.2-0.6,0-10,1c-4.7,0.5-5.5,0.6-6,0c-2-2.1,2.2-9.9,6-15c9.4-12.7,23-17.9,26-19
	c134.8-49.8,193-61,193-61c22.9-4.4,40.1-7.2,40-8c-0.2-1.1-37.5,2.5-76,9c-76.7,12.9-126.1,31.6-140,37c-9,3.5-22.3,9-33,14
	c-2.1,0.9-4.1,1.9-6,3c-8.7,5.6-11.8,15.1-18,34c-0.5,1.6-1.5,4.6,0,7c0.3,0.6,1.5,2.1,5,3C301.6,371.8,311.7,365.4,311.4,364.6z"/>
<path class="st75" d="M307.4,330.6c3.1,4.1,24-9.2,50-20c10.7-4.4,27.1-9,60-18c45.7-12.6,63.2-15.8,63-17c-0.3-1.7-36.9,1.9-76,12
	c-19.3,5-13.8,5-48,15c-14.5,4.3-27.4,13-42,17c-1.9,0.5-3.7,1.5-5,3C307.3,325,306.3,329.1,307.4,330.6z"/>
<path class="st76" d="M294.4,347.6c0.2,0.1,2.6-6.7,9-14c4.2-4.8,9-8.5,17-13c8.8-5,19-9.6,39-16c18.2-5.8,27.1-7.6,27-8
	c-0.2-0.7-22.5,3.2-47,11c-21.6,6.9-26.9,11.1-30,14C297.7,332.6,294.1,347.4,294.4,347.6z"/>
<path class="st76" d="M315.4,366.6c0.3,0.7,19.3-8,34-15c24.5-11.8,39.1-20,54-28c46.6-24.9,76.4-36.2,76-37s-40.7,13.5-84,36
	c-3,1.6-14.3,7.7-37,20C320.7,363,315.2,366.2,315.4,366.6z"/>
<path class="st76" d="M512.4,275.6c0.3,0.7,7-2.7,20-5c8.3-1.5,13-1.4,13-2c0-0.8-7.7-2.4-16-1C519.5,269.3,512,274.8,512.4,275.6z"
	/>
<ellipse class="st77" cx="900.1" cy="497.3" rx="179.8" ry="185.3"/>
<ellipse class="st78" cx="900.2" cy="497.3" rx="172.1" ry="177.3"/>
<ellipse class="st77" cx="2245.1" cy="417.3" rx="150.8" ry="155.3"/>
<ellipse class="st78" cx="2245.2" cy="417.3" rx="144.2" ry="148.6"/>
</svg>
