<?xml version="1.0" encoding="utf-8"?>
<!-- Generator: Adobe Illustrator 21.0.0, SVG Export Plug-In . SVG Version: 6.00 Build 0)  -->
<svg version="1.1" id="Слой_1" xmlns="http://www.w3.org/2000/svg" xmlns:xlink="http://www.w3.org/1999/xlink" x="0px" y="0px"
	 viewBox="0 0 641.3 165.4" style="enable-background:new 0 0 641.3 165.4;" xml:space="preserve">
<style type="text/css">
	.st0{stroke:#000000;stroke-width:3;stroke-linecap:round;stroke-linejoin:round;}
	.st1{fill:#D9D9D9;}
	.st2{fill:#FFFFFF;}
	.st3{fill:#129F58;stroke:#000000;stroke-width:3;stroke-linecap:round;stroke-linejoin:round;}
	.st4{fill:#107A43;}
	.st5{fill:none;stroke:#000000;stroke-width:3;stroke-linecap:round;stroke-linejoin:round;}
	.st6{fill:none;}
</style>
<title>logoDiaVita</title>
<path class="st0" d="M10.5,112.1c3.8-4.6,7.1-9.7,9.9-15C25.2,88,30.1,75.8,32,65.3c0.4-2.2-0.2-4.6-1.7-6.3l-0.3-0.3
	C17.6,46.2,14.9,42.6,16.8,28.8C18.2,18.4,28.6,9.8,32.3,7c0.6,0.6,1.2,1.2,1.9,1.6c1.6-0.3,1.9-5.2,3.3-5.4
	c1.4,1.4,1.1,4.6,3.4,4.5c0.6,0,0.7-1.6,0.8-2.5c0.4,0,1.1,0.4,2.3,1.9c1.3,0.7,2.5,1.5,3.6,2.4c2.2,2,3,5.8,8.3,10.4
	c1.9,1.6,4.4,2.3,6.8,1.9c9.2-1.5,11.6-5.4,26.9-6.3c14.4-0.9,23.2,4.9,33.2,5.3c1.7,0.1,3.5-0.3,5-1.2c1.3-0.9,2.5-2,3.4-3.3
	c1.8-2.2,4.4-8.1,8.8-10.6c0.9-0.5,1.7-2.1,2.6-2.3c0.8,1.3,0.7,2.4,1.5,2.5c1,0.1,2.3-3,3-4.5c1.3,0.7,2.3,3.6,3.4,4.8
	c0.8,0,1.3-0.6,1.9-1.4c1.1,0.4,2,1.2,2.7,2.2c9.3,8.1,13.4,12.8,14.2,23.7c0.1,2,0.6,8.9-3.4,15.1c-4.3,6.6-7.3,8-11.8,12.7
	c-1.3,1.4-0.6,5.3,1.1,13.5c4.8,23.3,2.8,33.3,16.3,45.2c-0.5,1.1-1.9,1.9-3.9,2.4c1.5,3.2-0.5,9.8-1.8,10.2c0,0.1-0.3-2-1.3-1.8
	c-0.6,1.9-1.6,3.7-2.9,5.1c-5.6,6.5-13.5,9.2-26.2,15.8c-10.3,5.3-11.4,7.2-20.8,11.4c-3.3,1.5-25.9,7.5-42.4-0.6
	c-4.6-2.1-8.9-4.9-12.8-8.2c-2.7-2.2-5.5-4.3-8.5-6.2c-10.9-7.1-29.2-19.1-29.7-23c-2.1,0.2-4,3.8-4,3.8c-1.4-0.4-4.8-7.2-2.3-12.1
	C13.3,113.6,11.6,113.2,10.5,112.1z"/>
<path class="st1" d="M18.5,111.3c0.3-0.7,0.8-1.4,1.3-2c5-5.6,11-21,12.1-24.4c3.4-10.5,3.2-13.1,5.9-22.8c2-7.7,5.8-14.9,11.1-20.9
	c5.2-5.9,11.6-10.7,18.8-14c7.4-3.4,15.5-5.2,23.7-5.2c6.3-0.2,12.5,0.6,18.6,2.3c6.5,1.9,12.6,5,18.1,9c3.8,2.8,11.9,9,16.9,19.9
	c3,6.6,4,12.8,4.7,17.8c0.6,3.9,0.6,6.2,1.9,16c0.6,4.9,1,7.3,1.3,8.8c1.4,5.6,3.5,10.9,6.4,15.9c1.5,2.6,2.3,3.8,3.8,5.1
	c0.3,0.2,1.1,1,1,1c-1.5,0.4-2.8-0.7-3.8-1.4c1.5,1.8,2.1,5.1,1.4,5.7c-0.4-0.4-1.9-1.7-2.8-1.3c0.3,1,0,2.8-1,5.1
	c-1.2,2.7-3.1,5.1-5.5,6.9c-1.5,1.2-1,0.6-8.5,5.4c-1.4,1-2.8,1.8-4.3,2.6c-1.8,0.9-2.4,1-4.5,2c-1.1,0.6-2,1.1-3.8,2.2
	c-1.2,0.7-2.8,1.6-4.6,2.8c-2.9,1.9-3.4,2.4-5.4,3.7c-2.3,1.5-4.7,2.9-7.3,3.9c-3.3,1.3-6.8,2.1-10.3,2.6c-3,0.5-6,0.8-9,0.9
	c-3,0.1-6-0.1-9-0.5c-3.4-0.5-6.6-1.3-9.8-2.5c-2.6-0.9-5.2-2.2-7.5-3.7c-3.3-2.2-3.4-3.2-8.2-6.6c-0.5-0.3-2.2-1.6-4.6-3.1
	c-3.2-2-5.6-3.2-6.1-3.4c0,0-18.8-9.6-24.5-17.6c-0.9-1-1.6-2.2-1.9-3.6c-0.1-0.9-0.1-1.8,0-2.7c-0.7-0.4-2,0.6-2.8,1.8
	c-0.6-0.4-0.6-4.5,1.7-6.9c-0.7-0.5-2,0.7-3.6,1.8C18.5,111.5,18.5,111.4,18.5,111.3z"/>
<path class="st2" d="M80.3,40.7c0.9-1.8-4.2-6-3.5-6.9c0.9-1.2,8.5,1.5,15.5,5.1c7.6-4.4,14.3-6.5,15-5.5c0.6,0.8-4.3,4.7-3.6,6.3
	c6.5-2.4,18.2-3.6,19-1.6c0.4,1.2-4.1,2.9-4.9,5c9.8,0.9,17.8,4,17.8,5.1c0,0.5-3.6,1.1-5.5,2.3c4.1,3.3,16.5,10.3,14.9,14.3
	c0,0-2.7-0.6-3.4,0.3c2,2,3.2,4.6,3.3,7.4c1,9.3-0.4,11.8,2.6,22.8c2.2,7.9,5.8,9.6,7,19.1c0.8,6.1-0.8,7.3-1.1,7.4
	c-1.1-1.7-7.2-5.4-7.2-5.4c1.9,3.6,3.1,8.9,2.3,9.4c-0.7,0.4-3.1-1.2-4.8-3.6c0.3,2.6,0.7,3.5-0.3,7c-2.2,8.1-19.2,11-20,9.3
	c-0.2-0.5,1-1.2,0.8-2.4c-0.3-1.7-3-2.6-3.9-2.9c-5.1-1.6-7.3,0.6-13.6,0.1c-3.2-0.2-6.3-0.5-8.8-2.7c-3.1-2.7-3.2-6.5-4.8-6.5
	c-1.2,0-1.3,2.1-3.6,4.3c-2,1.8-4.5,3-7.1,3.3c-3.1,0.3-6.2-0.4-8.9-2c-3.5-2-6.5-4.8-8.7-8.2c-2.2-3.2-2.4-4.9-5.2-7.4
	c-1.4-1.4-3.1-2.3-5-2.7c-2.8-0.5-5.7,0.6-5.7,1.4c2.6,0.2,4.3,1.4,4.2,2.2s-4.1,0-6.1,1.9c1.7,0.2,2.7,0.4,3.1,1.5
	c0.3,0.9-1.4,1.6-2.6,3.6c-1.6,2.9,0.1,5.2-1.2,6.1c-1.5,1.1-6.1-0.9-7.9-4.3c-1.6-3-1.3-4.5-1.5-6.5c-1-0.3-2.4,3.3-3.1,3.1
	c-1-0.3-0.2-6.2,0.8-9.9c-2.8-0.8-3.5,7-5.6,6.6c-1.7-0.3-3.7-6.1-1.7-10.8c1-2.3,2.4-3.7,5-8.4c4.1-7.5,7.3-24.5,11.1-31.2
	c-1.2-1.1-2.6-0.4-3.8-0.6C38.5,64,49,56,54.1,51.7c-0.7-1.8-6.2-1.2-6.2-1.9c-0.1-1.4,7.9-4.8,19.6-6.2c0.1-1.9-5.8-3.5-5.6-4.2
	C62.3,38.1,72,37.2,80.3,40.7z"/>
<path class="st1" d="M84.1,74.4c0.9-0.4,1.1-2.7,0.3-4.3c-1.1-2.5-2.2-3-3.8-3.9c1-0.6,2.2-0.7,3.3-0.4c2.1,0.6,2.6,2.4,3.6,2.2
	c0.6-0.1,0.7-0.9,1.5-2.7c0.6-1.5,1.6-2.7,2.9-3.6c1.6,0.9,2.8,2.3,3.4,4.1c0.5,1.5,0.5,2.7,1,2.8s0.6-0.9,1.5-1.7
	c1.6-1.4,4.2-1.5,5-0.9c-0.8,0.9-1.3,1-2.1,2.7c-0.4,0.9-0.6,1.9-0.5,2.9c0,0.3,0.1,2,0.8,2.2s1.1-0.9,1.4-1.3
	c1.8-2.1,3.8-2.6,7.1-3.4c6-1.4,12.3-0.9,18,1.6c3.5,1.5,10.5,4.4,13.8,12c0.5,1.1,3.2,7.7,0.5,14.6c-2.2,5.5-7.1,9.4-7.7,9
	c-0.1-0.1,0-0.4-0.1-1c-0.2-0.7-0.7-1.4-1.3-1.7c-1.9,2.8-4.4,5.1-7.4,6.7c-0.3-0.1-0.3-0.2-1.1-1c-1.1-1-2.3-2-3.6-2.9
	c-3.7-2.8-7.6-7.8-8.3-7.3c-0.4,0.3,0.5,1.8,0,2.1c-2.9-0.1-9.3-7.2-11-12.9c-1.1-0.1-2.2,2.4-2.4,2.9c-1,2.7-1.1,5.6-0.1,8.3
	c1.1,2.4,2.7,4.7,4.6,6.5c1.5,1.6,2,1.8,1.9,2.2c-0.5,2.9-24.7,1.4-24.8-0.4c0-0.4,0.9-0.4,2.4-1.9c1-1,1.7-2.1,2.3-3.3
	c0.7-1.5,1.2-3.2,1.3-4.9c0.2-1.7,0.1-3.4-0.3-5.1c-0.4-1.9-1.4-4.7-2.2-4.6c-0.4,0-0.6,0.8-0.7,1.3c-0.6,2-1.8,3.2-4.3,5.7
	c-2.5,2.5-5.6,4.4-8.9,5.5c0.9-0.4,1.7-1,2.4-1.7c0.6-0.7,1.2-1.5,1.1-1.6s-1.3,1.1-3.5,2.2c-1.2,0.6-2.4,1.1-3.6,1.4
	c-1.3,0.2-2.7,0.5-4,0.8c-0.8,0.2-1.6,0.5-2.2,1c-0.8,0.5-1.4,1.3-1.6,2.2c-0.4,0.1-1,0-2.1-1c-2.8-2.3-3.2-3.8-4.2-4.6
	c-0.7,0.1-0.8,1-1,2.4c-1.6,0.7-9.6-6.3-9-14.9c0.4-7.2,6.7-11.6,8-12.4c2.1-1.5,4.5-2.7,6.9-3.4c4.8-1.5,6.5-1.2,12.2-1.5
	c2.5-0.2,5.1-0.1,7.6,0.4C81.2,71,82.8,74.9,84.1,74.4z"/>
<path class="st0" d="M84.4,84.8c0.2-0.6,0.4-1.3,0.4-1.9c0.1-0.9-0.1-1.7-0.4-2.5c-0.4-0.6-0.8-1.1-1.3-1.6c-1-1.1-1.2-1.2-1.7-1.8
	c-0.7-0.8-0.8-1.1-1.5-1.9c0,0-0.8-1.1-2.3-2.6c-2.1-2.2-3.6-3.7-5.6-4.5s-3.6-0.3-6.5,0.4c-3.5,0.9-6.8,2.5-9.7,4.6
	c-2.2,1.5-4.2,3.5-5.8,5.7c-1.2,1.6-2.2,3.4-2.7,5.4c-0.7,2.1-0.8,4.4-0.3,6.6c0.3,1.5,1.1,2.9,2.1,4c1.3,1.4,2.8,1.9,4.8,2.6
	c1.9,0.6,3.9,1,5.9,1.1c2.9,0.3,5.8,0.1,8.7-0.6c2.1-0.5,4.1-1.4,6-2.5c1.6-1.1,3.1-2.2,4.5-3.6c1.4-1.1,2.6-2.4,3.6-3.8
	C83.4,87,84,85.9,84.4,84.8z"/>
<path class="st0" d="M102.8,74.8c-0.5,1.2-0.9,2.3-1.3,3.6c-0.4,1-0.6,2.1-0.7,3.2c0,1,0.1,2.1,0.4,3.1c0.2,1.3,0.6,2.5,1.3,3.7
	c0.4,0.7,1,1.4,1.6,2c2.1,2.2,3.2,2.9,5.2,4.8c1.7,1.6,1.3,1.5,2.8,2.9c1.5,1.4,3.1,2.7,4.8,3.8c2.3,1.4,3.7,2.3,5.9,2.6
	c1.4,0.2,2.9,0,4.3-0.4c1.5-0.4,3-1.1,4.3-2.1c1.7-1.2,3.2-2.8,4.3-4.6c1.3-2,2.1-4.2,2.6-6.6c0.3-1.6,0.4-3.2,0.3-4.8
	c-0.2-1.5-0.6-2.9-1.2-4.3c-0.7-1.5-1.7-2.8-2.9-4c-1.2-1.3-2.5-2.5-3.9-3.6c-1.9-1.6-3.9-2.9-6.1-4.1c-3.5-1.8-7.2-2.9-11.1-3.3
	c-2.4-0.3-4.8,0.6-6.6,2.2C105,70.6,103.6,72.6,102.8,74.8z"/>
<path class="st2" d="M111.2,87c0,0.4,0.2,0.8,0.5,1.1c0.5,0.7,1.1,1.2,1.8,1.6c0.8,0.6,1.6,1,2.6,1.1c0.8,0.2,1.6,0.2,2.3,0
	c1.1-0.3,2-0.8,2.7-1.6c0.6-0.7,1-1.4,1.3-2.2c0.4-0.7,0.6-1.5,0.5-2.3c0-0.4-0.2-0.7-0.5-0.9c-0.2-0.1-0.4-0.2-0.6-0.2
	c-0.7-0.1-1.4,0-2.1,0.1c-2,0.3-4,0.9-6,1.5C111.5,85.9,111.3,86.6,111.2,87z"/>
<path class="st2" d="M64.1,83.4c-0.3,0-0.6,0-0.9,0c-0.3,0-0.6,0.1-0.9,0.3c-0.2,0.2-0.3,0.5-0.2,0.7c0,0.4,0.1,0.7,0.3,1.1
	c0.3,0.6,0.8,1.1,1.4,1.4c2.3,1.2,4.8,1.8,7.3,1.8c0.7,0,1.4-0.2,1.9-0.6c0.1-0.1,0.6-0.5,0.4-0.9c-0.1-0.2-0.2-0.4-0.4-0.4
	C70.2,85.3,67.2,84.2,64.1,83.4z"/>
<path class="st0" d="M58.1,117c0.2,0.2,0.1,0.6,0.1,0.7c-0.2,0.8-1.3,1-1.3,1.5c0,0.3,0.2,0.4,0.6,0.8c0.6,0.6,1.2,1.3,1.8,1.8
	c1.1,0.9,0.7,0.8,2.7,2.6c1.3,1.1,2.5,2.1,3.3,2.8c2.3,1.9,4.9,3.5,7.6,4.8c2.4,1,4.8,1.7,7.4,2c2.2,0.3,3.9,0.4,6-0.3
	c1.5-0.5,2.8-1.5,3.8-2.7c0.7-1,1.2-2.2,1.4-3.4c0.3-1.2,0.4-2.5,0.3-3.8c-0.2-1.2-0.6-2.3-1.2-3.3c-0.5-0.9-1.2-1.8-2-2.5
	c-1-0.9-2.1-1.6-3.3-2.1c-1.4-0.7-1.6-0.6-3.9-1.6c-1-0.4-1.9-0.9-2.8-1.6c-0.8-0.6-1.5-1.4-1.8-2.4c-0.2-0.8-0.2-1.6,0.1-2.4
	c0.4-0.8,1-1.5,1.8-2c0.6-0.4,1.3-0.8,2-1c2.1-0.7,4.3-1.2,6.5-1.5c2-0.2,4-0.3,6-0.3c2.1,0,4.1,0.2,6.2,0.6c1.5,0.3,3,0.6,4.5,1.1
	c1.9,0.6,2.7,1.1,3.4,1.8c0.4,0.5,0.8,1.1,1,1.8c0.2,0.5,0.3,1.1,0.2,1.7c-0.1,0.7-0.4,1.3-0.9,1.8c-0.6,0.6-1.4,1.1-2.2,1.4
	c-1.1,0.6-1.8,0.8-2.9,1.3s-1.9,0.9-2.9,1.4c-0.9,0.4-1.7,0.9-2.6,1.5c-0.7,0.5-1.3,1.1-1.8,1.7c-0.5,0.7-0.9,1.4-1.2,2.2
	c-0.4,1.2-0.6,2.4-0.5,3.7c0.1,1.3,0.3,2.5,0.8,3.7c0.4,1.5,1.2,2.9,2.3,4c1,1,2.3,1.7,3.6,2.2c1.4,0.5,2.9,0.8,4.4,0.8
	c1.7,0.1,1.8-0.2,4.5-0.3c1.5-0.1,3-0.1,4.5,0.1c1.4,0.2,2.8,0.7,4.1,1.3c0.4,0.2,3.2,1.5,3,2.2c-0.1,0.2-0.5,0.4-0.8,0.4
	c-0.5,0.1-1.1,0.1-1.6-0.1c-0.9-0.3-1.1-0.6-1.6-0.5c-0.2,0.1-0.4,0.3-0.6,0.5c-0.1,0.1-0.9,0.8-2.4,2.1c-1.4,1.1-3.8,1.9-5.9,2.5
	c-2.4,0.7-4.8,1.2-7.2,1.5c-2,0.4-3.9,0.6-5.9,0.8c-3.4,0.2-6.8,0-10.2-0.4c-2.2-0.3-4.4-0.8-6.6-1.4c-2.3-0.6-4.6-1.4-6.8-2.4
	c-1.7-0.8-3.2-1.7-4.8-2.7c-3.2-2.1-5.1-4.1-8.2-7.4c-3.7-3.9-4.3-5.3-4.3-6.4c0-0.1,0-0.9-0.3-1c-0.6-0.2-1.7,2.7-2.6,2.5
	c-0.6-0.1-0.8-1.3-0.8-1.5c-0.2-0.9,0-1.9,0.4-2.8c0.7-1.5,1.8-2.7,3.2-3.6C55.1,117.9,57.5,116.4,58.1,117z"/>
<path class="st2" d="M106.2,138c1.6-0.1,2.6-0.1,3.7-0.3c0.3,1.1-0.6,3.3-1.8,3.4S106.2,139.2,106.2,138z"/>
<path class="st2" d="M75.4,136.2c1.4,0.3,2.9,0.5,4.4,0.4c-1.1,2.6-0.4,4.8-2,4.8S74.8,137.8,75.4,136.2z"/>
<path class="st2" d="M83.9,106.3c0.4-1.1,4.7-1.8,8.2-1.9c4.9-0.2,9.4,1.3,9.2,1.8s-2.6,0-8.8-0.1C88.8,106.1,83.8,107,83.9,106.3z"
	/>
<path class="st2" d="M80.3,148.9c0.1-0.2,0.4-0.2,1.1-0.2c1,0,1.9,0.1,2.9,0.4c2.5,0.7,5.1,1.2,7.6,1.3c2.6,0.2,4.6,0.3,6.9-0.4
	c1.3-0.5,2.6-0.8,3.9-1c0.8-0.1,2.8-0.4,3.1,0.3c0.1,0.2,0,0.4-0.2,0.8c-0.6,0.9-1.5,1.7-2.5,2.1c-3.1,1.3-6.5,2-9.9,2
	c-2.5-0.1-5.1-0.6-7.5-1.3c-1.5-0.3-2.9-1-4.1-2C81.5,150.8,80,149.4,80.3,148.9z"/>
<path class="st0" d="M57.6,124.7c-3.1-0.7-5.6-1.1-7.1-1.3c-29.6-3.9-45.8-1.8-48-0.8c-0.3,0.1-0.7,0.6-0.9,1.7
	c-0.2,1.7,0.2,3.5,1,5c13.2-1.3,46-2.7,57.2-2.4C59.7,126.2,58.8,125.4,57.6,124.7z"/>
<path class="st0" d="M2.4,122.7c1.4,0.1,2.7,0.8,3.5,2c1.4,1.8,1.1,4.4,0.9,5.9c-0.2,1.8-0.6,1.8-1,4c-0.3,1.8-0.5,3.7-0.5,5.5
	c0,2.2,0.3,4.5,1,6.6c0.5,2,1.4,3.8,2.7,5.4c0.8,1,1.9,1.9,3.1,2.4c1.3,0.6,2.7,0.8,4.1,0.6c0.7-0.1,1.4-0.4,2-0.6
	c2.9-1.1,4-1.6,4-1.6c2.8-1.3,5.7-2.4,8.5-3.8c6.1-2.9,12.3-5.3,18.8-7.2c2.6-0.8,5.2-1.3,10.3-2.4c5.8-1.2,9.3-1.8,11.2-0.8
	c0.2,0.1,0.6,0.3,0.9,0.1c0.7-0.4,0.3-2.9-0.9-4.6c-0.9-1.3-2.1-1.9-4.1-2.9c-1.6-0.8-3.2-1.6-4.7-2.6c-1.6-1-3.3-3.7-4.6-4
	C47.1,121.9,10.3,119.5,2.4,122.7z"/>
<path class="st3" d="M8.8,124.4c3.2-0.7,11-2.2,50.2,1.2c5.2,6.3,12.5,5.6,11.7,10.8c-21-0.1-49.8,13.7-54.9,15.1
	c-0.6,0.2-1.3,0.2-1.9,0c-0.8-0.3-1.5-0.9-1.9-1.6c-1.1-1.6-2-3.4-2.6-5.3c-0.7-2.7-1-5.4-0.8-8.2c0.1-1.7,0.4-3.4,0.8-5.1
	c0.4-1.2,0.6-2.5,0.6-3.7C9.8,126.5,9.4,125.4,8.8,124.4z"/>
<path class="st3" d="M3.7,124.7c-0.5,0.2-0.7,1.8,0.2,2.6c0.8-0.2,1.6-0.2,2.4,0.1C6.5,125.3,4.5,124.4,3.7,124.7z"/>
<path class="st4" d="M9.5,130.8c14.5,1.9,42.1-2.4,51.8-2.9c1.9,1.4,3.8,2.5,5.9,3.5c-13.2,0-39.7,5.6-58.6,7.6
	C8.6,136.3,8.9,133.5,9.5,130.8z"/>
<path class="st5" d="M8.8,124.4c3.2-0.7,11-2.2,50.2,1.2c5.2,6.3,12.5,5.6,11.7,10.8c-21-0.1-49.8,13.7-54.9,15.1
	c-0.6,0.2-1.3,0.2-1.9,0c-0.8-0.3-1.5-0.9-1.9-1.6c-1.1-1.6-2-3.4-2.6-5.3c-0.7-2.7-1-5.4-0.8-8.2c0.1-1.7,0.4-3.4,0.8-5.1
	c0.4-1.2,0.6-2.5,0.6-3.7C9.8,126.5,9.4,125.4,8.8,124.4z"/>
<path class="st0" d="M10.6,153.1c0.2-0.3,1.2,0.5,2.7,0.3c2.3-0.4,3.5-2.8,3.8-3.3c0.6-1.4,0.8-2.9,0.6-4.3c-0.1-1.3-0.5-2.6-1-3.8
	c-0.4-1-1-2-1.7-2.9c-1.2-1.7-1.8-1.8-1.9-2.2c4-2.2,24.2-3.8,52.2-6.3c3.5,2,7.8,2.3,6.5,8.3C56.7,136.2,25,152.6,16.6,155
	c-1,0.3-2,0.3-3,0C11.8,154.5,10.4,153.4,10.6,153.1z"/>
<path class="st3" d="M18.7,138.4c15.2-2.7,30.4-3.1,49.1-5.7c1.8,0.6,2.9,2.4,2.7,4.3c-9.7-0.3-31.2,4.1-50.2,13.6
	C21.1,147.3,22.1,144.1,18.7,138.4z"/>
<path class="st0" d="M30.6,134.4c0.2-0.6-0.1-1-0.2-1.8c0-0.8,0.1-1.6,0.5-2.3c0.8-2,3.1-3.1,3.9-3.5c5.2-2.4,10.5-0.4,11.2-0.1
	c1.8,0.7,3.5,1.8,4.8,3.1c1.5,1.4,1.8,2.2,1.7,2.8c-0.1,0.3-0.2,0.5-0.4,0.7c-0.6,0.4-1.5,0.4-2.1,0c-0.7-0.4-0.5-1-1.2-1.8
	c-0.5-0.5-1.1-1-1.7-1.3c-1.4-0.7-3-1.2-4.6-1.5c-1.6-0.2-3.3-0.2-4.9,0.1c-0.9,0.1-1.8,0.3-2.6,0.8c-0.6,0.4-1.2,1-1.5,1.7
	c-0.5,0.9-0.5,2-0.3,2.9c0.2,0.5,0.4,0.6,0.3,0.8c-0.2,1.1-4,1.3-4.1,0.8C29.3,135.5,30.3,135.3,30.6,134.4z"/>
<path class="st4" d="M20.7,143c21.3-5.2,21.1-5.4,49.4-8.3c0.4,0.7,0.5,1.5,0.4,2.2c-13.6-0.8-32.3,5.4-50.2,13.6
	C21,147.1,21.4,144.8,20.7,143z"/>
<path class="st6" d="M70.5,137c-13.7,0.4-32.3,5.4-50.2,13.6c0.7-3.4,1.2-5.7,0.5-7.5"/>
<path class="st5" d="M18.7,138.4c15.2-2.7,30.4-3.1,49.1-5.7c1.8,0.6,2.9,2.4,2.7,4.3c-9.7-0.3-31.2,4.1-50.2,13.6
	C21.1,147.3,22.1,144.1,18.7,138.4z"/>
<path id="DiaVita_Club_копия" class="st4" d="M200.1,115.8c0.6,0.6,1.4,0.9,2.2,0.9h18.5c9.5,0,16.5-1.9,20.9-5.7
	s6.5-9.8,6.5-17.9c0-8.2-2.2-14.2-6.5-18s-11.3-5.8-20.9-5.7h-18.5c-0.8,0-1.6,0.3-2.2,0.9c-0.6,0.6-0.9,1.4-0.9,2.3v41.2
	C199.2,114.4,199.5,115.2,200.1,115.8z M211.6,78.6h8.8c5.9,0,9.9,1.1,12.1,3.3s3.2,5.9,3.2,11.1s-1.1,8.9-3.2,11.1
	s-6.2,3.2-12.1,3.2h-8.8V78.6z M255.3,76.3c0.7,0.7,1.7,1.1,2.8,1h4.1c1,0.1,2-0.3,2.8-1c0.7-0.8,1.1-1.7,1-2.8v-1.1
	c0.2-1.9-1.3-3.6-3.2-3.8c-0.2,0-0.4,0-0.6,0h-4.1c-1-0.1-2,0.3-2.8,1c-0.7,0.8-1.1,1.8-1,2.8v1.1C254.2,74.5,254.6,75.5,255.3,76.3
	L255.3,76.3z M255,116c0.4,0.4,0.9,0.6,1.4,0.6h7.4c0.5,0,1.1-0.2,1.4-0.6c0.4-0.4,0.6-0.9,0.6-1.4V83.3c0-1.1-0.8-1.9-1.9-2h-7.5
	c-1.1,0-1.9,0.8-2,1.9c0,0,0,0.1,0,0.1v31.3C254.4,115.1,254.6,115.7,255,116L255,116z M287.6,117.3c4.3,0.1,8.5-1.2,12-3.7v1
	c0,0.5,0.2,1,0.6,1.4c0.4,0.4,0.9,0.6,1.5,0.6h6.4c0.5,0,1.1-0.2,1.5-0.6c0.4-0.4,0.6-0.9,0.6-1.4V94.2c0-4.9-1.6-8.5-4.8-10.9
	s-7.4-3.5-12.6-3.5c-12,0-18,3.2-18,9.5c0,1.1,0.9,2,2,2h5c1.6,0,3.1-0.7,4-2c1.1-1.3,3-2,5.7-2s4.6,0.5,5.7,1.5s1.6,2.8,1.6,5.4
	h-10.9c-4-0.2-7.9,0.9-11.3,3c-2.9,1.9-4.5,5.1-4.4,8.5c-0.1,3.4,1.5,6.7,4.4,8.6C279.8,116.4,283.7,117.5,287.6,117.3L287.6,117.3z
	 M288.5,101.7h10.1v5.1c-2.9,1.9-6.3,3-9.8,3c-1.4,0.1-2.8-0.3-3.9-1.2c-0.9-0.7-1.4-1.8-1.4-2.9c0-1.1,0.5-2.2,1.3-2.9
	C285.9,102,287.1,101.6,288.5,101.7L288.5,101.7z M327.2,113.2c0.7,2,2.6,3.4,4.7,3.4h4.8c2.1,0,4-1.4,4.7-3.4l19-41.2
	c0.1-0.3,0.2-0.6,0.2-0.9c-0.1-0.4-0.3-0.9-0.6-1.2c-0.4-0.5-1.1-0.8-1.8-0.7H351c-1.7,0-3,1.1-3.9,3.1l-12.8,28.5l-12.8-28.5
	c-0.9-2.1-2.2-3.1-3.9-3.1h-7.2c-0.7,0-1.3,0.2-1.7,0.7c-0.3,0.3-0.5,0.7-0.6,1.2c0,0.3,0.1,0.6,0.2,0.9L327.2,113.2z M366.4,76.2
	c0.7,0.7,1.7,1.1,2.8,1h4.1c1,0.1,2-0.3,2.8-1c0.7-0.8,1.1-1.7,1-2.8v-1.1c0.2-1.9-1.3-3.6-3.2-3.8c-0.2,0-0.4,0-0.6,0h-4.1
	c-1-0.1-2,0.3-2.8,1c-0.7,0.8-1.1,1.8-1,2.8v1.1C365.3,74.5,365.7,75.5,366.4,76.2L366.4,76.2z M366,116c0.4,0.4,0.9,0.6,1.5,0.6
	h7.4c0.5,0,1.1-0.2,1.4-0.6c0.4-0.4,0.6-0.9,0.6-1.4V83.3c0-0.5-0.2-1-0.6-1.4c-0.4-0.4-0.9-0.6-1.5-0.6h-7.4c-1.1,0-1.9,0.8-2,1.9
	c0,0,0,0.1,0,0.1v31.3C365.5,115.1,365.7,115.7,366,116L366,116z M398.2,107.6c-1.1-1.5-1.7-3.3-1.6-5.2V90.3h9.2
	c0.5,0,1-0.2,1.4-0.6c0.4-0.4,0.6-0.9,0.6-1.5v-3.9c0-0.5-0.2-1.1-0.6-1.5c-0.4-0.4-0.9-0.6-1.4-0.6h-9.2v-11c0-0.5-0.2-1.1-0.6-1.5
	c-0.4-0.4-0.9-0.6-1.4-0.6h-7.4c-1.1,0-2,0.9-2,2c0,0,0,0.1,0,0.1v31.1c0,9.9,4.7,14.9,14.2,14.9c2.9,0.1,5.9-0.2,8.8-0.7
	c0.6-0.1,1.1-0.3,1.5-0.7c0.4-0.3,0.6-0.8,0.6-1.3v-3.5c0-0.5-0.2-1.1-0.6-1.5c-0.4-0.4-0.9-0.6-1.5-0.6H407l-4.5,0.4
	C400.8,109.6,399.2,108.9,398.2,107.6z M428.8,117.3c4.3,0.1,8.5-1.2,12-3.7v1c0,0.5,0.2,1,0.6,1.4c0.4,0.4,0.9,0.6,1.4,0.6h6.4
	c1,0,1.9-0.8,2-1.8c0-0.1,0-0.1,0-0.2V94.2c0-4.9-1.6-8.5-4.8-10.9s-7.4-3.5-12.6-3.5c-12,0-18,3.2-18,9.5c0,1.1,0.8,2,1.9,2h5.1
	c1.6,0,3.1-0.7,4-2c1.1-1.3,3-2,5.7-2s4.6,0.5,5.7,1.5s1.6,2.8,1.6,5.4h-10.9c-4-0.2-7.9,0.9-11.3,3c-2.9,1.9-4.5,5.1-4.4,8.5
	c-0.1,3.4,1.5,6.7,4.4,8.6C421,116.4,424.9,117.5,428.8,117.3L428.8,117.3z M429.7,101.6h10.1v5.1c-2.9,1.9-6.3,3-9.8,3
	c-1.4,0.1-2.8-0.3-3.9-1.2c-0.9-0.7-1.4-1.8-1.4-2.9c0-1.1,0.5-2.2,1.3-2.9C427.1,102,428.4,101.6,429.7,101.6z M505.5,116.9h8
	c4.7,0.1,9.3-1.3,13.3-3.9c3.7-2.3,5.8-6.3,5.7-10.6c0-0.9-0.3-1.8-0.9-2.5c-0.6-0.8-1.5-1.2-2.5-1.2h-3.9c-2,0-3.6,1.2-4.8,3.7
	c-1.3,3.3-4.6,5.4-8.1,5.2h-6.6c-4.8,0-8.1-1-9.8-3.1s-2.5-5.9-2.5-11.5s0.9-9.4,2.6-11.5s5-3.1,9.8-3.1h5.9
	c3.5-0.2,6.8,1.9,8.1,5.2c1.1,2.4,2.7,3.6,4.7,3.6h3.9c0.8,0,1.6-0.3,2.3-0.9c0.8-0.7,1.3-1.7,1.2-2.8c0.1-4.3-2.1-8.4-5.8-10.7
	c-3.9-2.6-8.6-4-13.3-3.9h-7.4c-8.2,0-14.3,2-18.4,5.9S481,84.8,481,93c0,8.2,2,14.2,6.1,18.1S497.3,116.9,505.5,116.9L505.5,116.9z
	 M538.9,116c0.4,0.4,0.9,0.6,1.4,0.6h7.4c0.5,0,1.1-0.2,1.4-0.6c0.4-0.4,0.6-0.9,0.6-1.4V71.3c0-0.6-0.2-1.1-0.6-1.5
	c-0.4-0.4-0.9-0.6-1.4-0.6h-7.4c-0.5,0-1.1,0.2-1.4,0.6c-0.4,0.4-0.6,0.9-0.6,1.5v43.3C538.3,115.1,538.5,115.7,538.9,116L538.9,116
	z M561.9,113.4c2.8,2.7,6.6,4.1,10.5,3.9c4.5-0.1,8.8-1.8,12.2-4.8v2.1c0,0.5,0.2,1.1,0.6,1.4c0.4,0.4,0.9,0.6,1.4,0.6h7.4
	c1.1,0,2-0.8,2-1.9c0,0,0-0.1,0-0.1V82.5c0-0.6-0.2-1.1-0.6-1.5c-0.4-0.4-0.9-0.6-1.5-0.6h-7.3c-0.5,0-1.1,0.2-1.4,0.6
	c-0.4,0.4-0.6,0.9-0.6,1.5v22.1c-3.2,3.2-6.1,4.7-8.9,4.8c-4.2,0-6.3-2.6-6.3-7.9V82.5c0-0.6-0.2-1.1-0.6-1.5
	c-0.4-0.4-0.9-0.6-1.4-0.6h-7.4c-0.5,0-1.1,0.2-1.4,0.6c-0.4,0.4-0.6,0.9-0.6,1.5v18.9C557.9,106.8,559.2,110.8,561.9,113.4
	L561.9,113.4z M602.6,113.6c2.4,1.3,5.1,2.2,7.8,2.6c3.3,0.7,6.6,1.1,9.9,1.1c14,0,21-6.2,21-18.7c0-6.1-1.6-10.8-4.8-14
	c-3.2-3.2-7.5-4.9-12.9-4.8c-3.2,0.1-6.5,0.6-9.5,1.7V71.3c0-0.5-0.2-1.1-0.6-1.5c-0.4-0.4-0.9-0.6-1.4-0.6h-7.4
	c-0.5,0-1.1,0.2-1.4,0.6c-0.4,0.4-0.6,0.9-0.6,1.5L602.6,113.6L602.6,113.6z M621.2,87.8c3,0,5.2,0.9,6.4,2.6s1.9,4.4,1.9,8.3
	s-0.7,6.5-1.9,8.2s-3.4,2.5-6.3,2.5c-2.4,0.1-4.9-0.2-7.2-0.8V89.1C616.4,88.3,618.8,87.9,621.2,87.8L621.2,87.8L621.2,87.8z"/>
</svg>
