<?xml version="1.0" encoding="utf-8"?>
<!-- Generator: Adobe Illustrator 21.0.0, SVG Export Plug-In . SVG Version: 6.00 Build 0)  -->
<svg version="1.1" id="Capa_1" xmlns="http://www.w3.org/2000/svg" xmlns:xlink="http://www.w3.org/1999/xlink" x="0px" y="0px"
	 viewBox="0 0 512 512" style="enable-background:new 0 0 512 512;" xml:space="preserve">
<style type="text/css">
	.st0{fill:#FFFFFF;}
</style>
<g>
	<g>
		<path class="st0" d="M469.5,106.4h-85.9l-36.3-52.8c-1.9-2.7-4.9-4.3-8.2-4.3H172.9c-3.3,0-6.4,1.6-8.2,4.3l-36.3,52.8h-28.1v-30
			c0-5.5-4.5-10-10-10H42.5c-5.5,0-10,4.5-10,10v31.2C13.9,112.1,0,128.9,0,148.9v255c0,23.4,19.1,42.5,42.5,42.5h166.7
			c23.2,10.4,49,16.3,76.1,16.3s52.8-5.8,76.1-16.3h108.2c23.4,0,42.5-19.1,42.5-42.5v-255C512,125.5,492.9,106.4,469.5,106.4z
			 M178.2,69.3h155.6l24.7,35.8c-22.5-9.7-47.3-15-73.2-15c-27.1,0-52.8,5.8-76.1,16.3h-56.5L178.2,69.3z M52.5,86.4h27.7v20H52.5
			V86.4z M42.5,426.4c-12.4,0-22.5-10.1-22.5-22.5v-255c0-12.4,10.1-22.5,22.5-22.5H175c-46,33.9-76,88.5-76,150
			c0,61.5,29.9,116.1,76,150L42.5,426.4L42.5,426.4z M285.3,442.7c-91.7,0-166.3-74.6-166.3-166.3s74.6-166.3,166.3-166.3
			c91.7,0,166.3,74.6,166.3,166.3S376.9,442.7,285.3,442.7z M492,403.9L492,403.9c0,12.4-10.1,22.5-22.5,22.5h-74
			c46-33.9,76-88.5,76-150c0-61.5-29.9-116.1-76-150h74c12.4,0,22.5,10.1,22.5,22.5V403.9z"/>
	</g>
</g>
<g>
	<g>
		<path class="st0" d="M75.9,388.3H58.1v-45.9c0-5.5-4.5-10-10-10s-10,4.5-10,10v55.9c0,5.5,4.5,10,10,10h27.7c5.5,0,10-4.5,10-10
			C85.9,392.8,81.4,388.3,75.9,388.3z"/>
	</g>
</g>
<g>
	<g>
		<path class="st0" d="M48.1,304.6c-5.5,0-10,4.5-10,10v0.5c0,5.5,4.5,10,10,10c5.5,0,10-4.5,10-10v-0.5
			C58.1,309,53.7,304.6,48.1,304.6z"/>
	</g>
</g>
<g>
	<g>
		<path class="st0" d="M285.3,130.2c-80.6,0-146.2,65.6-146.2,146.2s65.6,146.2,146.2,146.2c80.6,0,146.2-65.6,146.2-146.2
			S365.9,130.2,285.3,130.2z M285.3,402.6c-69.6,0-126.2-56.6-126.2-126.2c0-69.6,56.6-126.2,126.2-126.2
			c69.6,0,126.2,56.6,126.2,126.2C411.4,346,354.8,402.6,285.3,402.6z"/>
	</g>
</g>
<g>
	<g>
		<path class="st0" d="M374.1,210.4c-14-18.8-33.2-32.5-55.5-39.5c-5.3-1.7-10.9,1.3-12.5,6.5c-1.7,5.3,1.3,10.9,6.5,12.5
			c37.9,12,63.4,46.7,63.4,86.5c0,5.5,4.5,10,10,10s10-4.5,10-10C395.9,252.4,388.4,229.6,374.1,210.4z"/>
	</g>
</g>
<g>
	<g>
		<path class="st0" d="M286.4,165.7l-1.1,0c-5.5,0-10,4.5-10,10c0,5.5,4.5,10,10,10l0.9,0c0,0,0.1,0,0.1,0c5.5,0,10-4.4,10-9.9
			C296.3,170.3,291.9,165.8,286.4,165.7z"/>
	</g>
</g>
<g>
	<g>
		<path class="st0" d="M85.9,140.8c-16.5,0-30,13.5-30,30c0,16.5,13.5,30,30,30c16.5,0,30-13.5,30-30
			C115.9,154.3,102.4,140.8,85.9,140.8z M85.9,180.8c-5.5,0-10-4.5-10-10c0-5.5,4.5-10,10-10c5.5,0,10,4.5,10,10
			C95.9,176.3,91.4,180.8,85.9,180.8z"/>
	</g>
</g>
</svg>
