<?xml version="1.0" encoding="utf-8"?>
<!-- Generator: Adobe Illustrator 21.0.0, SVG Export Plug-In . SVG Version: 6.00 Build 0)  -->
<svg version="1.1" id="Layer_1" xmlns="http://www.w3.org/2000/svg" xmlns:xlink="http://www.w3.org/1999/xlink" x="0px" y="0px"
	 viewBox="0 0 512 512" style="enable-background:new 0 0 512 512;" xml:space="preserve">
<style type="text/css">
	.st0{fill:#FFFFFF;}
</style>
<g>
	<g>
		<g>
			<path class="st0" d="M124.7,272.4c1.1,0.4,2.2,0.6,3.3,0.6c3.3,0,6.5-2,7.9-5.3L238,21c0.7-0.9,3.3-3.9,9.4-3.9
				c4.3,0,9,2.9,12.6,7.8c6.4,8.6,8.2,20.7,5,31.8l-42.7,110.9c-1.7,4.4,0.5,9.3,4.9,11c4.4,1.7,9.3-0.5,11-4.9l42.9-111.6
				c5-16.9,2.2-34.6-7.5-47.5C266.8,5.3,257.2,0,247.4,0c-14.1,0-22.1,8.3-25,13.8L120,261.3C118.2,265.6,120.3,270.6,124.7,272.4z"
				/>
			<path class="st0" d="M109.4,238.8c0.5,0.1,1,0.1,1.5,0.1c4.1,0,7.7-2.9,8.4-7.1l34.1-196.3c0.1-0.4,0.1-0.9,0.1-1.4
				c0.1-3.9,1.7-8.6,8.5-8.6c7.6,0,9,2.8,11.9,14.8c0.4,1.5,0.8,3,1.2,4.5c1.2,4.5,5.9,7.2,10.5,6c4.5-1.2,7.2-5.9,6-10.5
				c-0.4-1.3-0.7-2.7-1-4.1c-2.6-10.4-6.8-27.8-28.5-27.8c-18.3,0-25.2,14.5-25.6,24.8l-34,195.6C101.7,233.6,104.8,238,109.4,238.8
				z"/>
			<path class="st0" d="M442.7,300c-2.6-2.6-5.3-4.7-8-6.2c0.6-0.5,1.2-1,1.8-1.5c16.3-14.6,5.8-32.9,1.5-40.5
				c-16-28.1-82-89.6-105.3-89.6c-29.7,0-108.4,36.6-142.6,70.8c-10.7,10.7-11,29.5-11,31.6c0,4.7,3.8,8.5,8.5,8.5h0
				c4.7,0,8.5-3.8,8.5-8.5c0-3.5,1.2-14.7,6-19.6c32.6-32.6,107.3-65.8,130.5-65.8c12.1,0.4,73.2,50.7,90.9,81.7
				c5.8,10.1,6.2,14.5,1.6,18.6c-4.3,3.8-9.3,1.7-22.6-9.2c-1.7-1.4-3.3-2.7-4.9-4c-3.1-2.5-7.1-5.6-11.5-9.2
				c-30.8-24.9-45.1-35.3-53.5-35.3c-12.2,0-68.3,36.8-68.3,59.7c0,20.7,37,76.8,59.7,76.8c24.8,0,70.1-31.6,82.8-46.7
				c2-1.9,12.3-11,23.6,0.4c10.9,10.9-0.8,24.9-1.7,26l-85.2,82.7c-17.2,17.2-25.6,54-27.6,74.3H183.8
				C123,398.2,91.9,306.9,85,279.5c-6.5-25.9-8.3-143.9-8.3-202.7c0-3.8,4.7-8.5,8.5-8.5c9.5,0,9.8,1.2,12.4,8.8l0.9,2.5
				c1.6,4.4,6.4,6.8,10.9,5.2c4.4-1.6,6.8-6.4,5.2-10.9l-0.8-2.3c-3.1-9.1-6.9-20.4-28.6-20.4c-13.2,0-25.6,12.4-25.6,25.6
				c0,7,0.1,172.5,8.8,206.9C75.7,312.2,108.3,408,171.9,508c1.6,2.5,4.3,4,7.2,4h145.1c4.7,0,8.5-3.8,8.5-8.5
				c0-16.8,8.8-56.4,23-70.7l85.5-83C449.6,340.4,460.6,317.9,442.7,300z M394.5,300.1c-12.1,14.4-52.9,41.2-70.3,41.2
				c-10.4,0-42.7-45.2-42.7-59.7c0-9.5,39.9-39.3,51.1-42.5c7.2,2.5,31.1,21.9,42.9,31.4c4.5,3.6,8.5,6.9,11.7,9.4
				c1.4,1.1,2.9,2.4,4.5,3.6c3.6,3,8,6.6,12.9,9.5C400.6,294.9,397.2,297.4,394.5,300.1z"/>
		</g>
	</g>
</g>
</svg>
