<?xml version="1.0" encoding="utf-8"?>
<!-- Generator: Adobe Illustrator 21.0.0, SVG Export Plug-In . SVG Version: 6.00 Build 0)  -->
<svg version="1.1" id="Layer_1" xmlns="http://www.w3.org/2000/svg" xmlns:xlink="http://www.w3.org/1999/xlink" x="0px" y="0px"
	 viewBox="0 0 512 512" style="enable-background:new 0 0 512 512;" xml:space="preserve">
<style type="text/css">
	.st0{fill:#FFFFFF;}
</style>
<g>
	<g>
		<path class="st0" d="M503.5,230.4c4.7,0,8.5-3.8,8.5-8.5V34.1C512,15.3,496.7,0,477.9,0H256c-4.7,0-8.5,3.8-8.5,8.5v59.7
			c0,18.8,15.3,25.6,25.6,25.6c8.5,0,15.8-4.6,20.7-12.9c4.6-7.9,12.9-12.7,22-12.7c14.8,0,25.6,14.4,25.6,34.1
			s-10.8,34.1-25.6,34.1c-9.1,0-17.6-4.9-22.1-12.9c-4.6-8.1-12.1-12.7-20.6-12.7c-10.3,0-25.6,6.8-25.6,25.6v110.9H136.5
			c-6.9,0-8.4-4.7-8.5-8.5c0-2.3,1.4-4.2,4-5.7c13.3-7.6,21.6-21.7,21.6-36.9c0-24.3-22-42.7-51.2-42.7s-51.2,18.3-51.2,42.7
			c0,15,8.1,29.1,21.1,36.7c4.5,2.6,4.5,5.1,4.5,5.9c-0.1,3.9-1.7,8.6-8.5,8.6H17.1V34.1c0-9.4,7.7-17.1,17.1-17.1h187.7
			c4.7,0,8.5-3.8,8.5-8.5S226.6,0,221.9,0H34.1C15.3,0,0,15.3,0,34.1V256c0,4.7,3.8,8.5,8.5,8.5h59.7c18.8,0,25.6-15.3,25.6-25.6
			c0-8.5-4.6-15.8-12.9-20.7c-7.9-4.6-12.7-12.9-12.7-22c0-14.8,14.4-25.6,34.1-25.6s34.1,10.8,34.1,25.6c0,9.1-4.9,17.6-12.9,22.1
			c-8.1,4.6-12.7,12.1-12.7,20.6c0,10.3,6.8,25.6,25.6,25.6h110.9v110.9c0,6.9-4.7,8.4-8.5,8.5c-2.3,0-4.2-1.4-5.7-4.1
			c-7.6-13.3-21.7-21.5-36.9-21.5c-24.3,0-42.7,22-42.7,51.2c0,29.2,18.3,51.2,42.7,51.2c15,0,29.1-8.1,36.7-21.1
			c2.6-4.5,5.1-4.5,5.9-4.5c3.9,0.1,8.6,1.7,8.6,8.5v51.2H34.1c-9.4,0-17.1-7.7-17.1-17.1V290.1c0-4.7-3.8-8.5-8.5-8.5
			S0,285.4,0,290.1v187.7C0,496.7,15.3,512,34.1,512H256c4.7,0,8.5-3.8,8.5-8.5v-59.7c0-18.8-15.3-25.6-25.6-25.6
			c-8.5,0-15.8,4.6-20.7,12.9c-4.6,7.9-12.9,12.7-22,12.7c-14.8,0-25.6-14.4-25.6-34.1s10.8-34.1,25.6-34.1
			c9.1,0,17.6,4.9,22.1,12.9c4.6,8.1,12.1,12.7,20.6,12.7c10.3,0,25.6-6.8,25.6-25.6V264.5h110.9c6.9,0,8.4,4.7,8.5,8.5
			c0,2.3-1.4,4.2-4.1,5.7c-13.3,7.6-21.5,21.7-21.5,36.9c0,24.3,22,42.7,51.2,42.7c29.2,0,51.2-18.3,51.2-42.7
			c0-15-8.1-29.1-21.1-36.7c-4.5-2.6-4.5-5.1-4.5-5.9c0.1-3.9,1.7-8.6,8.5-8.6h51.2v213.3c0,9.4-7.7,17.1-17.1,17.1H290.1
			c-4.7,0-8.5,3.8-8.5,8.5s3.8,8.5,8.5,8.5h187.7c18.8,0,34.1-15.3,34.1-34.1V256c0-4.7-3.8-8.5-8.5-8.5h-59.7
			c-18.8,0-25.6,15.3-25.6,25.6c0,8.5,4.6,15.8,12.9,20.7c7.9,4.6,12.7,12.9,12.7,22c0,14.8-14.4,25.6-34.1,25.6
			s-34.1-10.8-34.1-25.6c0-9.1,4.9-17.6,12.9-22.1c8.1-4.6,12.7-12.1,12.7-20.6c0-10.3-6.8-25.6-25.6-25.6H264.5V136.5
			c0-6.9,4.7-8.4,8.5-8.5c2.3,0,4.2,1.4,5.7,4c7.6,13.3,21.7,21.6,36.9,21.6c24.3,0,42.7-22,42.7-51.2s-18.3-51.2-42.7-51.2
			c-15,0-29.1,8.1-36.7,21.1c-2.6,4.5-5.1,4.5-5.9,4.5c-3.9-0.1-8.6-1.7-8.6-8.5V17.1h213.3c9.4,0,17.1,7.7,17.1,17.1v187.7
			C494.9,226.6,498.8,230.4,503.5,230.4z"/>
	</g>
</g>
</svg>
