<svg id="Слой_1" data-name="Слой 1" xmlns="http://www.w3.org/2000/svg" viewBox="0 0 359.45 413.11"><defs><style>.cls-1{fill:#f7f7f7;}.cls-1,.cls-10,.cls-11,.cls-2,.cls-3,.cls-7,.cls-8{stroke:#000;stroke-width:3px;}.cls-1,.cls-10,.cls-11,.cls-2,.cls-3,.cls-7{stroke-linecap:round;stroke-linejoin:round;}.cls-2{fill:#efefef;}.cls-3{fill:#e0e0e0;}.cls-4{fill:#f9f8d7;}.cls-5{fill:#dbdad5;}.cls-6{fill:#b7b6b3;}.cls-7,.cls-8{fill:none;}.cls-8{stroke-miterlimit:10;}.cls-13,.cls-9{fill:#fff;}.cls-9{opacity:0.54;}.cls-10{fill:#bcbcbc;}.cls-11{fill:#747a84;}.cls-12{fill:#4e545c;}.cls-13{opacity:0.5;}</style></defs><title>bin</title><path class="cls-1" d="M166,368.36a16.15,16.15,0,0,1-9.07-7.78,17.11,17.11,0,0,1-1.3-9.07,18,18,0,0,1,2.59-9.07c2.19-3.36,3.77-2.68,6.48-6.48,2.59-3.56,1.83-5.11,3.89-6.48,2.59-1.69,5.83-.83,9.07,0A27.87,27.87,0,0,1,188,334.66c3.69,3,8.92,7.15,9.07,13,.17,6.33-5.78,10.8-10.37,14.26C182.52,365,174.38,371.13,166,368.36Z" transform="translate(-124 -33.31)"/><path class="cls-2" d="M172.43,363.17c.69-3.68,1.85-5.59,1.3-9.07-.49-3.08-1.71-3.46-1.3-5.18.66-2.73,3.89-2.59,7.78-6.48,2.73-2.76,2-3.77,3.89-5.18,4.16-3.12,11.42-1,15.55,1.3,7,3.89,9.71,10.65,11.67,15.55,2.09,5.18,4.48,11.25,2.59,18.15-1.65,6-5.61,9.33-13,15.55-6.31,5.34-9.46,8-13,7.78-8.22-.53-14.61-13.26-15.55-22A39.13,39.13,0,0,1,172.43,363.17Z" transform="translate(-124 -33.31)"/><path class="cls-1" d="M128.36,360.58a11.13,11.13,0,0,1,3.89-5.18,15.44,15.44,0,0,1,9.07-3.89c3.07-.14,4.12.93,6.48,0,2.16-.86,2.09-2.1,3.89-2.59a7.36,7.36,0,0,1,7.78,3.89c1.36,2.9-.17,6.48,0,6.48s.78-6.8,3.89-7.78a4,4,0,0,1,3.89,1.3c1.69,1.91.76,5.08,1.3,5.18s.78-3,2.59-3.89c2.16-1,5.43,1.71,6.48,2.59s7,6,6.48,13c-.16,2.06-.7,1.84-2.59,9.07-1.17,4.47-.84,4.11-1.3,5.18-1.8,4.25-6.48,8.81-11.67,9.07-3.6.18-4.15-1.85-7.78-1.3-2.49.38-2.67,1.4-7.78,3.89-3.71,1.81-5.61,2.71-7.78,2.59s-2.7-1.09-6.48-2.59c-5.69-2.27-6.71-.88-9.07-2.59-3.68-2.67-4.72-8.63-3.89-13,.92-4.76,3.55-4.69,3.89-9.07C130,366.27,127.16,364.58,128.36,360.58Z" transform="translate(-124 -33.31)"/><path class="cls-2" d="M188,378.73c-.44,1.61.57,3.24,2.59,6.48a30.38,30.38,0,0,0,10.37,10.37c2.92,1.7,4.29,1.78,5.18,1.3,1.3-.69,1.3-2.37,2.59-2.59,1-.17,1.52.8,2.59,1.3,2.83,1.3,7.09-1.87,9.07-3.89.87-.88,4.85-5,3.89-9.07-.65-2.77-3.15-4-2.59-5.18s2.92-.16,5.18-1.3c3.11-1.57,4.78-6.48,3.89-10.37-1.39-6-8.84-8.55-10.37-9.07-3.8-1.3-5.5-.43-10.37-2.59-1.75-.78-3.51-1.76-3.89-1.3s1.18,2,2.59,5.18a17,17,0,0,1,1.3,3.89c.54,3.1,0,7.87-2.59,9.07-.83.39-1.41.19-6.48-1.3-5.55-1.63-7.08-2-7.78-1.3s.41,1.87,0,3.89C192.52,375.48,188.76,375.91,188,378.73Z" transform="translate(-124 -33.31)"/><path class="cls-3" d="M188,370.95c-.6.71,3,3,3.89,7.78.7,3.68-.27,8.36-2.59,9.07-1.92.6-4.26-1.68-5.18-2.59-3.6-3.53-2.79-6.86-5.18-7.78s-6,1.39-7.78,3.89c-2.59,3.56-1.72,7.7-2.59,7.78s-2.31-5.33-2.59-6.48c-1.65-6.82-1-9.51-2.59-10.37-2.18-1.13-6,2.29-7.78,3.89a19.44,19.44,0,0,0-6.48,11.67,10.87,10.87,0,0,0,0,3.89c.83,4,3.72,4.68,3.89,7.78.13,2.59-1.79,3.31-1.3,5.18.16.6.78,2.13,6.48,3.89,6.34,2,11.67,3.59,16.85,1.3,3-1.3,4.39-3.24,6.48-2.59s1.84,2.51,3.89,3.89c3,2,7.08.65,9.07,0a18.51,18.51,0,0,0,10.37-9.07c1.63-3.46,1.52-6.34,1.3-11.67-.17-4.24-.35-7.48-2.59-10.37-.88-1.13-2.32-2.06-5.18-3.89C194.95,374,188.76,370,188,370.95Z" transform="translate(-124 -33.31)"/><path class="cls-1" d="M305,173.36a16.15,16.15,0,0,1-9.07-7.78,17.11,17.11,0,0,1-1.3-9.07,18,18,0,0,1,2.59-9.07c2.19-3.36,3.77-2.68,6.48-6.48,2.59-3.56,1.83-5.11,3.89-6.48,2.59-1.69,5.83-.83,9.07,0A27.87,27.87,0,0,1,327,139.66c3.69,3,8.92,7.15,9.07,13,.17,6.33-5.78,10.8-10.37,14.26C321.52,170,313.38,176.13,305,173.36Z" transform="translate(-124 -33.31)"/><path class="cls-2" d="M311.43,168.17c.69-3.68,1.85-5.59,1.3-9.07-.49-3.08-1.71-3.46-1.3-5.18.66-2.73,3.89-2.59,7.78-6.48,2.73-2.76,2-3.77,3.89-5.18,4.16-3.12,11.42-1,15.55,1.3,7,3.89,9.71,10.65,11.67,15.55,2.09,5.18,4.48,11.25,2.59,18.15-1.65,6-5.61,9.33-13,15.55-6.31,5.34-9.46,8-13,7.78-8.22-.53-14.61-13.26-15.55-22A39.13,39.13,0,0,1,311.43,168.17Z" transform="translate(-124 -33.31)"/><path class="cls-1" d="M267.36,165.58a11.13,11.13,0,0,1,3.89-5.18,15.44,15.44,0,0,1,9.07-3.89c3.07-.14,4.12.93,6.48,0,2.16-.86,2.09-2.1,3.89-2.59a7.36,7.36,0,0,1,7.78,3.89c1.36,2.9-.17,6.48,0,6.48s.78-6.8,3.89-7.78a4,4,0,0,1,3.89,1.3c1.69,1.91.76,5.08,1.3,5.18s.78-3,2.59-3.89c2.16-1,5.43,1.71,6.48,2.59s7,6,6.48,13c-.16,2.06-.7,1.84-2.59,9.07-1.17,4.47-.84,4.11-1.3,5.18-1.8,4.25-6.48,8.81-11.67,9.07-3.6.18-4.15-1.85-7.78-1.3-2.49.38-2.67,1.4-7.78,3.89-3.71,1.81-5.61,2.71-7.78,2.59s-2.7-1.09-6.48-2.59c-5.69-2.27-6.71-.88-9.07-2.59-3.68-2.67-4.72-8.63-3.89-13,.92-4.76,3.55-4.69,3.89-9.07C269,171.27,266.16,169.58,267.36,165.58Z" transform="translate(-124 -33.31)"/><path class="cls-2" d="M327,183.73c-.44,1.61.57,3.24,2.59,6.48a30.38,30.38,0,0,0,10.37,10.37c2.92,1.7,4.29,1.78,5.18,1.3,1.3-.69,1.3-2.37,2.59-2.59,1-.17,1.52.8,2.59,1.3,2.83,1.3,7.09-1.87,9.07-3.89.87-.88,4.85-5,3.89-9.07-.65-2.77-3.15-4-2.59-5.18s2.92-.16,5.18-1.3c3.11-1.57,4.78-6.48,3.89-10.37-1.39-6-8.84-8.55-10.37-9.07-3.8-1.3-5.5-.43-10.37-2.59-1.75-.78-3.51-1.76-3.89-1.3s1.18,2,2.59,5.18a17,17,0,0,1,1.3,3.89c.54,3.1,0,7.87-2.59,9.07-.83.39-1.41.19-6.48-1.3-5.55-1.63-7.08-2-7.78-1.3s.41,1.87,0,3.89C331.52,180.48,327.76,180.91,327,183.73Z" transform="translate(-124 -33.31)"/><path class="cls-3" d="M327,175.95c-.6.71,3,3,3.89,7.78.7,3.68-.27,8.36-2.59,9.07-1.92.6-4.26-1.68-5.18-2.59-3.6-3.53-2.79-6.86-5.18-7.78s-6,1.39-7.78,3.89c-2.59,3.56-1.72,7.7-2.59,7.78s-2.31-5.33-2.59-6.48c-1.65-6.82-1-9.51-2.59-10.37-2.18-1.13-6,2.29-7.78,3.89a19.44,19.44,0,0,0-6.48,11.67,10.87,10.87,0,0,0,0,3.89c.83,4,3.72,4.68,3.89,7.78.13,2.59-1.79,3.31-1.3,5.18.16.6.78,2.13,6.48,3.89,6.34,2,11.67,3.59,16.85,1.3,3-1.3,4.39-3.24,6.48-2.59s1.84,2.51,3.89,3.89c3,2,7.08.65,9.07,0a18.51,18.51,0,0,0,10.37-9.07c1.63-3.46,1.52-6.34,1.3-11.67-.17-4.24-.35-7.48-2.59-10.37-.88-1.13-2.32-2.06-5.18-3.89C333.95,179,327.76,175,327,175.95Z" transform="translate(-124 -33.31)"/><path class="cls-4" d="M174.52,50.28A36.07,36.07,0,0,1,178.14,46c4.82-5.29,5.91-5.56,6.65-5.44,1.78.3,2.67,3.13,3,4.23C190.1,52,193.67,58.73,195.66,66c.6,2.18,3,7.9,7.85,19.33,1.76,4.17,5.83,13.67,13.29,29.6,10.3,22,15,30.52,14.5,30.81-.79.45-12.35-18.67-21.14-33.23C183.88,69,189.2,73.77,184.79,69,181.51,65.47,171.92,55.67,174.52,50.28Z" transform="translate(-124 -33.31)"/><path class="cls-4" d="M257.28,45.45c6.37,17.65,11.21,31.53,14.5,41.08L279,107.67s3.53,10.28,8.46,24.77c2.92,8.59,4.55,13.4,6.65,19.94,2.76,8.63,5.18,16.19,4.83,16.31s-4.2-9.63-13.9-33.83c-21.08-52.62-13-31-14.5-35,0,0-7.62-20.17-15.1-29-3.81-4.49-5.72-6.74-6.65-7.25a2.32,2.32,0,0,1-1.21-1.21c-.58-1.74,2.16-4,3.62-5.44C253.31,54.87,255.79,51.44,257.28,45.45Z" transform="translate(-124 -33.31)"/><path class="cls-5" d="M329.18,215.72a4.9,4.9,0,0,1-2.48.59C311.12,174.72,280.57,78.7,266.59,42.4a14.41,14.41,0,0,0,1.75-5.18C277.15,63.63,318.77,188.5,329.18,215.72Z" transform="translate(-124 -33.31)"/><path class="cls-5" d="M326.7,216.31l.08.21a12.29,12.29,0,0,1-7.77,1.9,24,24,0,0,0,3.76-2.7l-.27-.51A11.18,11.18,0,0,0,326.7,216.31Z" transform="translate(-124 -33.31)"/><path class="cls-5" d="M322.51,215.21l.27.51a24,24,0,0,1-3.76,2.7c-1.17,0-2.33-.18-3.44-.3-8.39-.93-16.43-5.43-23.79-12.58a227.27,227.27,0,0,1-17.58-29,280.19,280.19,0,0,1-13.29-31.42L258.29,138c-6.48-27.37-7.93-57.83-2-84.75a46.94,46.94,0,0,1,3.93-10.16c.76,2,1.59,4.27,2.47,6.73a42.31,42.31,0,0,0-2.4,8.23c-10.83,55.61,7.57,124.61,54.43,152.89A73.41,73.41,0,0,0,322.51,215.21Z" transform="translate(-124 -33.31)"/><path class="cls-5" d="M326.7,216.31a11.18,11.18,0,0,1-4.19-1.1C304.82,180.87,276.75,89,262.73,49.8a70.22,70.22,0,0,1,3.86-7.4C280.57,78.7,311.12,174.72,326.7,216.31Z" transform="translate(-124 -33.31)"/><path class="cls-5" d="M315.57,218.12c1.11.13,2.27.25,3.44.3a33.17,33.17,0,0,1-14.78,4.08c-2.92-4.22-7.35-9.75-12.45-17C299.14,212.69,307.19,217.19,315.57,218.12Z" transform="translate(-124 -33.31)"/><path class="cls-5" d="M322.51,215.21a73.41,73.41,0,0,1-7.74-4.29C267.9,182.64,249.51,113.64,260.33,58a42.31,42.31,0,0,1,2.4-8.23C276.75,89,304.82,180.87,322.51,215.21Z" transform="translate(-124 -33.31)"/><path class="cls-6" d="M304.23,222.5c-10.64.66-22.43-2.17-31.89-5.18l-.14-.24a15.33,15.33,0,0,0,1.75-1.37c-15.93-24.2-48.39-90.58-69.16-138.87A20.3,20.3,0,0,0,211.51,78a37,37,0,0,0,20.35-6c3.78,4.4,7.27,13.72,9.11,18.73C245.44,102.9,253.9,126,258.29,138c6.69,28.27,18.74,53.24,33.49,67.56C296.89,212.75,301.31,218.28,304.23,222.5Z" transform="translate(-124 -33.31)"/><path class="cls-5" d="M274.2,176.54a227.27,227.27,0,0,0,17.58,29C277,191.22,265,166.25,258.29,138l2.62,7.15A280.19,280.19,0,0,0,274.2,176.54Z" transform="translate(-124 -33.31)"/><path class="cls-5" d="M273.95,215.72a15.33,15.33,0,0,1-1.75,1.37c-9.68-15.48-18.27-29.39-25.87-41.88-7.75-14.64-10.8-21.62-10.8-21.62C220.76,119.67,205.2,88.8,198.92,74a30.33,30.33,0,0,0,5.87,2.87C225.55,125.14,258,191.53,273.95,215.72Z" transform="translate(-124 -33.31)"/><path class="cls-5" d="M272.2,217.09c-.22.16-.44.3-.66.43-4.39-5.16-8-11.27-11.84-18-5.5-9.67-9.91-17.75-13.37-24.29C253.93,187.7,262.52,201.6,272.2,217.09Z" transform="translate(-124 -33.31)"/><path class="cls-5" d="M259.7,199.5c3.84,6.75,7.44,12.86,11.84,18a17.21,17.21,0,0,1-2.46,1.26c-5.6-6.22-12.45-16-23.27-31.36a540.78,540.78,0,0,1-29.6-47.73c-10.06-17.82-15.44-29.11-28.39-48.94-3.4-5.21-8.19-12.5-11.75-17-3.47-8.67-6.18-16.14-7.83-21.8,5.66-9.48,15-16,20.06-17.11,2.71,8.5,7.47,20.72,13.45,34.92-3.21-2.66-4.77-5.34-5.48-5s.31,3.69,2.65,9.2c-2.82-1.71-4.71-3.14-5.82-2.34-3.55,2.54,5.13,24.58,53.24,103.57C249.79,181.75,254.2,189.83,259.7,199.5Z" transform="translate(-124 -33.31)"/><path class="cls-5" d="M266.59,42.4a70.22,70.22,0,0,0-3.86,7.4c-.88-2.46-1.71-4.71-2.47-6.73,1.49-3.09,2.88-5.87,3.27-8.26C264.44,36.91,265.46,39.46,266.59,42.4Z" transform="translate(-124 -33.31)"/><path class="cls-6" d="M245.81,187.42c10.81,15.39,17.66,25.14,23.27,31.36-6.27,2.6-13.81,1.69-19.94.94l-1-.13c-.44-.4-.87-.8-1.29-1.23a14.89,14.89,0,0,0,2.26-1.85c-18.84-25.34-55.6-99.18-73.07-142.79,3.56,4.53,8.35,11.82,11.75,17,13,19.83,18.34,31.11,28.39,48.94A540.78,540.78,0,0,0,245.81,187.42Z" transform="translate(-124 -33.31)"/><path class="cls-5" d="M260.26,43.07a46.94,46.94,0,0,0-3.93,10.16c-6,26.91-4.53,57.38,2,84.75C253.9,126,245.44,102.9,241,90.76c-1.84-5-5.33-14.32-9.11-18.73,12-7.63,20.72-21.43,26.07-34.81C258.63,38.85,259.4,40.81,260.26,43.07Z" transform="translate(-124 -33.31)"/><path class="cls-5" d="M246.87,218.37c.42.42.85.83,1.29,1.23-.88-.12-1.76-.26-2.62-.42A13.63,13.63,0,0,0,246.87,218.37Z" transform="translate(-124 -33.31)"/><path class="cls-5" d="M249.13,216.52a14.89,14.89,0,0,1-2.26,1.85c-5.65-5.58-10.26-13.21-16.77-24.3-12.71-21.68-19.07-32.53-24.77-43.5-4-7.64-15-29.09-26.58-58-.94-2.34-1.77-4.45-2.5-6.34l.68,1.5c5.62,12.35,8.48,18.64,12.69,27.19,9,18.26,17.83,34,18.12,33.83s-4.06-8.29-12.69-26.58c-3.94-8.34-2-4.42-10.87-23.56-5.65-12.2-9.59-20.59-12.08-27.79-.14-.42-.3-.83-.45-1.25.77-.08,2.39,1.6,4.4,4.16C193.52,117.34,230.29,191.18,249.13,216.52Z" transform="translate(-124 -33.31)"/><path class="cls-5" d="M246.87,218.37a13.63,13.63,0,0,1-1.33.8,57.76,57.76,0,0,1-7.42-1.86,7.92,7.92,0,0,0,3-1.59c-23.69-28.87-62.44-104.3-77.63-150.93A48.44,48.44,0,0,1,164.73,60a6.17,6.17,0,0,0,.72,1.13c.82,1-.66-.19,10.8,25.08.72,1.89,1.55,4,2.5,6.34,11.59,28.91,22.61,50.36,26.58,58,5.7,11,12.06,21.82,24.77,43.5C236.6,205.15,241.22,212.79,246.87,218.37Z" transform="translate(-124 -33.31)"/><path class="cls-5" d="M235.54,153.59s3,7,10.8,21.62c-48.11-79-56.79-101-53.24-103.57,1.11-.8,3,.63,5.82,2.34C205.2,88.8,220.76,119.67,235.54,153.59Z" transform="translate(-124 -33.31)"/><path class="cls-5" d="M238.11,217.31a57.76,57.76,0,0,0,7.42,1.86,22,22,0,0,1-8.42,2.4,13.73,13.73,0,0,0,2.4-1.85q-.92-1.1-1.87-2.29Z" transform="translate(-124 -33.31)"/><path class="cls-5" d="M241.12,215.72a7.92,7.92,0,0,1-3,1.59l-.74-.24C214.2,187.67,178.15,116,162.72,77.91a63.73,63.73,0,0,1,0-7.07,43.27,43.27,0,0,1,.82-6C178.69,111.42,217.44,186.85,241.12,215.72Z" transform="translate(-124 -33.31)"/><path class="cls-5" d="M237.66,217.43q1,1.2,1.87,2.29a13.73,13.73,0,0,1-2.4,1.85,44.49,44.49,0,0,1-11.86-.64c-1.43-1.31-2.79-2.6-4.1-3.88.71-.25,1.41-.54,2.11-.85a40.35,40.35,0,0,0,5.84,1.12C232.26,217.68,235.15,218,237.66,217.43Z" transform="translate(-124 -33.31)"/><path class="cls-5" d="M238.11,217.31l-.46.12-.28-.36Z" transform="translate(-124 -33.31)"/><path class="cls-5" d="M237.37,217.07l.28.36c-2.5.59-5.39.25-8.54-.11a40.35,40.35,0,0,1-5.84-1.12,24.46,24.46,0,0,0,5-3A61.18,61.18,0,0,0,237.37,217.07Z" transform="translate(-124 -33.31)"/><path class="cls-5" d="M225.26,220.93a44.49,44.49,0,0,0,11.86.64,21.91,21.91,0,0,1-8,2.78Q227.09,222.62,225.26,220.93Z" transform="translate(-124 -33.31)"/><path class="cls-5" d="M237.37,217.07a61.18,61.18,0,0,1-9.12-3.9,23.15,23.15,0,0,0,2.47-2.25c-26.12-29.78-50.2-78.66-66-115.47a173,173,0,0,1-2-17.53C178.15,116,214.2,187.67,237.37,217.07Z" transform="translate(-124 -33.31)"/><path class="cls-5" d="M230.72,210.92a23.15,23.15,0,0,1-2.47,2.25c-28-14.72-45.56-50.18-55.39-82.58,11.25,18.33,16.91,27.48,17.36,27.22s-7.19-14.12-20.54-41.69l-1.5-3.11c-1.45-6.24-2.59-12.17-3.46-17.57C180.52,132.25,204.6,181.13,230.72,210.92Z" transform="translate(-124 -33.31)"/><path class="cls-5" d="M225.26,220.93q1.84,1.69,3.85,3.42c-7.86,1.24-16.75-.72-20-4.63l-.75-.91a34.24,34.24,0,0,0,7.15-.34A71.47,71.47,0,0,0,225.26,220.93Z" transform="translate(-124 -33.31)"/><path class="cls-5" d="M228.25,213.17a24.46,24.46,0,0,1-5,3,42.73,42.73,0,0,1-4.41-1.45c-2.92-3-5.56-5.85-8.1-8.6-14.44-15.71-26.27-33.55-36-49.93-2.69-10.46-5.26-22.3-8-35.62,1.64,2.74,2.75,4.58,3.5,5.8l2.57,4.19C182.69,163,200.22,198.46,228.25,213.17Z" transform="translate(-124 -33.31)"/><path class="cls-5" d="M221.16,217.05c1.3,1.27,2.66,2.57,4.1,3.88a71.47,71.47,0,0,1-9.75-2.46A30.13,30.13,0,0,0,221.16,217.05Z" transform="translate(-124 -33.31)"/><path class="cls-5" d="M223.28,216.2c-.7.31-1.41.6-2.11.85-.79-.78-1.55-1.54-2.3-2.3A42.73,42.73,0,0,0,223.28,216.2Z" transform="translate(-124 -33.31)"/><path class="cls-6" d="M218.87,214.75c.75.76,1.51,1.52,2.3,2.3a30.13,30.13,0,0,1-5.65,1.41c-1.73-.56-2.88-1-3.2-1.14a40.83,40.83,0,0,1-9.36-5.25c-6.19-7.93-12.64-17-18.85-26.75-.9-2.13-1.76-4.36-2.61-6.7C191.79,196,204.6,209.21,218.87,214.75Z" transform="translate(-124 -33.31)"/><path class="cls-6" d="M212.31,217.32c.32.13,1.47.58,3.2,1.14a34.24,34.24,0,0,1-7.15.34q-2.66-3.22-5.41-6.74A40.83,40.83,0,0,0,212.31,217.32Z" transform="translate(-124 -33.31)"/><path class="cls-6" d="M210.77,206.15c2.54,2.75,5.18,5.63,8.1,8.6-14.27-5.53-27.08-18.78-37.38-36.13-2.39-6.62-4.6-14.06-6.75-22.4C184.49,172.59,196.32,190.43,210.77,206.15Z" transform="translate(-124 -33.31)"/><path class="cls-5" d="M195.06,122.17c8.63,18.29,12.9,26.47,12.69,26.58s-9.13-15.57-18.12-33.83c-4.2-8.54-7.07-14.83-12.69-27.19l-.68-1.5c-5.55-14.4-5.32-16.32-4.75-16.62a.34.34,0,0,1,.16,0c.15.42.3.83.45,1.25,2.49,7.2,6.43,15.59,12.08,27.79C193.06,117.75,191.12,113.83,195.06,122.17Z" transform="translate(-124 -33.31)"/><path class="cls-6" d="M202.94,212.07q2.75,3.52,5.41,6.74a23.59,23.59,0,0,1-4.85-.69c-34.42-40-60.2-88.58-64-112.86a94.05,94.05,0,0,1-.9-22c1.2,3.34,2.53,7.67,3.93,11.72,2.45,7,5.53,13.47,10.29,22.3,6.15,23.51,18.18,47.39,31.31,68C189.19,197.45,195.17,206.24,202.94,212.07Z" transform="translate(-124 -33.31)"/><path class="cls-5" d="M201.75,69.73q1.47,3.48,3,7.12A30.33,30.33,0,0,1,198.92,74c-2.34-5.51-3.4-8.8-2.65-9.2S198.54,67.07,201.75,69.73Z" transform="translate(-124 -33.31)"/><path class="cls-5" d="M169.68,116.13c13.35,27.56,21.1,41.37,20.54,41.69s-6.11-8.89-17.36-27.22c-1.82-6-3.38-11.93-4.68-17.57Z" transform="translate(-124 -33.31)"/><path class="cls-6" d="M184.09,185.32c6.2,9.77,12.66,18.82,18.85,26.75C195.17,206.24,189.19,197.45,184.09,185.32Z" transform="translate(-124 -33.31)"/><path class="cls-6" d="M181.48,178.62c.85,2.34,1.71,4.57,2.61,6.7-13.12-20.64-25.16-44.52-31.31-68,2.5,4.64,5.47,10,9,16.36l2,3.51A182.78,182.78,0,0,0,181.48,178.62Z" transform="translate(-124 -33.31)"/><path class="cls-6" d="M174.73,156.22c2.14,8.34,4.36,15.79,6.75,22.4a182.78,182.78,0,0,1-17.7-41.46C167.12,143.1,170.75,149.54,174.73,156.22Z" transform="translate(-124 -33.31)"/><path class="cls-5" d="M176.06,73.72c-2-2.56-3.64-4.24-4.4-4.16-.86-2.4-1.81-4.77-2.57-7.21-1.25-4-1.78-6.51-2.42-7.44.49-1.09.82-1.69.82-1.69.24-.44.49-.88.75-1.3C169.88,57.58,172.58,65.06,176.06,73.72Z" transform="translate(-124 -33.31)"/><path class="cls-5" d="M171.65,69.57a.34.34,0,0,0-.16,0c-.57.3-.8,2.22,4.75,16.62-11.45-25.27-10-24-10.8-25.08a6.17,6.17,0,0,1-.72-1.13,47.84,47.84,0,0,1,1.93-5.1c.64.93,1.17,3.43,2.42,7.44C169.84,64.8,170.79,67.17,171.65,69.57Z" transform="translate(-124 -33.31)"/><path class="cls-5" d="M172.86,130.59l-2.57-4.19c-.75-1.22-1.86-3.06-3.5-5.8q-1.69-8.46-3.48-17.73c1.34,2.83,2.94,6.15,4.88,10.14C169.48,118.67,171,124.58,172.86,130.59Z" transform="translate(-124 -33.31)"/><path class="cls-5" d="M168.23,51.92c-.26.43-.51.86-.75,1.3,0,0-.33.6-.82,1.69a.79.79,0,0,0-.6-.41c-.86,0-1.87,1.9-1.81,3.62a4.75,4.75,0,0,0,.48,1.89,48.44,48.44,0,0,0-1.24,4.77c-.69-2.14-1.35-4.23-1.94-6.25,1.48-4.23,3.54-8.39,5.93-9.32C167.7,50.07,167.94,51,168.23,51.92Z" transform="translate(-124 -33.31)"/><path class="cls-5" d="M166.78,120.6c2.69,13.32,5.26,25.16,8,35.62-4-6.68-7.62-13.12-10.95-19.06a208.06,208.06,0,0,1-6.9-33.19c.5.92,1.17,2,2.53,4.31Z" transform="translate(-124 -33.31)"/><path class="cls-5" d="M166.78,120.6l-7.37-12.32c-1.36-2.28-2-3.39-2.53-4.31a181.29,181.29,0,0,1-1.4-20c.83,2.4,1.73,4.89,2.71,7.42,1.18,3.08,2.75,6.56,5.1,11.51Q165.09,112.15,166.78,120.6Z" transform="translate(-124 -33.31)"/><path class="cls-5" d="M166.06,54.51a.79.79,0,0,1,.6.41,47.84,47.84,0,0,0-1.93,5.1,4.75,4.75,0,0,1-.48-1.89C164.19,56.41,165.2,54.48,166.06,54.51Z" transform="translate(-124 -33.31)"/><path class="cls-5" d="M164.72,95.44c.86,5.41,2,11.33,3.46,17.57-1.93-4-3.53-7.31-4.88-10.14q-1.83-9.49-3.79-19.84C161.12,87,162.86,91.12,164.72,95.44Z" transform="translate(-124 -33.31)"/><path class="cls-5" d="M163.79,137.16l-2-3.51c-3.58-6.41-6.54-11.72-9-16.36A122.17,122.17,0,0,1,148.49,87c6.92,13.7,7.18,14.78,8.4,17A208.06,208.06,0,0,0,163.79,137.16Z" transform="translate(-124 -33.31)"/><path class="cls-5" d="M163.49,64.79a43.27,43.27,0,0,0-.82,6,63.73,63.73,0,0,0,0,7.07c-1.4-3.46-2.63-6.63-3.67-9.48.11-.78.25-1.58.42-2.4a60.56,60.56,0,0,1,2.08-7.49C162.14,60.56,162.8,62.65,163.49,64.79Z" transform="translate(-124 -33.31)"/><path class="cls-5" d="M162.72,77.91a173,173,0,0,0,2,17.53c-1.86-4.32-3.6-8.47-5.21-12.41l0-.19a43.4,43.4,0,0,1-.42-14.41C160.1,71.28,161.33,74.46,162.72,77.91Z" transform="translate(-124 -33.31)"/><path class="cls-5" d="M163.3,102.87c-2.35-5-3.91-8.44-5.1-11.51-1-2.54-1.88-5-2.71-7.42,0-.63,0-1.27,0-1.9,0-3.27,0-6.16.11-8.73,1.21,3.06,2.52,6.31,3.92,9.73Q161.49,93.39,163.3,102.87Z" transform="translate(-124 -33.31)"/><path class="cls-5" d="M160.28,54c.39,1.46.82,3,1.27,4.52A60.56,60.56,0,0,0,159.47,66c-.17.82-.3,1.62-.42,2.4-.89-2.45-1.64-4.65-2.22-6.57A21.27,21.27,0,0,1,160.28,54Z" transform="translate(-124 -33.31)"/><path class="cls-5" d="M159.47,82.84l0,.19c-1.4-3.42-2.71-6.67-3.92-9.73a60.58,60.58,0,0,1,1.24-11.44c.59,1.92,1.34,4.12,2.22,6.57A43.4,43.4,0,0,0,159.47,82.84Z" transform="translate(-124 -33.31)"/><path class="cls-5" d="M156.89,104c-1.21-2.23-1.48-3.31-8.4-17a87.68,87.68,0,0,1,.58-10.52c.39-3.36.82-6.1,1.29-8.38,1.36,4.3,3,9.8,5.13,15.88A181.29,181.29,0,0,0,156.89,104Z" transform="translate(-124 -33.31)"/><path class="cls-5" d="M156.83,61.87a60.58,60.58,0,0,0-1.24,11.44c-1.45-3.67-2.75-7.05-3.91-10.1a21.65,21.65,0,0,1,3.79-6.78A42.48,42.48,0,0,0,156.83,61.87Z" transform="translate(-124 -33.31)"/><path class="cls-5" d="M155.47,82c0,.63,0,1.26,0,1.9-2.11-6.08-3.77-11.58-5.13-15.88a38.24,38.24,0,0,1,1.32-4.85c1.15,3.05,2.46,6.43,3.91,10.1C155.5,75.88,155.47,78.76,155.47,82Z" transform="translate(-124 -33.31)"/><path class="cls-5" d="M151.68,63.21a38.24,38.24,0,0,0-1.32,4.85c-1.85-5.86-3.15-9.49-4.24-9.32-.54.08-1,1.87-1.81,5.44-.79,3.33-1.43,6-1.21,9.06a19.68,19.68,0,0,0,2.42,7.85c1.11,2.18,2.1,4.13,3,5.87a122.17,122.17,0,0,0,4.3,30.33C148,108.45,145,102,142.5,95c-1.41-4-2.73-8.38-3.93-11.72,0-.4.06-.82.1-1.23.83-9.22,3.2-25.61,8.81-30.41C148.47,54.51,149.89,58.45,151.68,63.21Z" transform="translate(-124 -33.31)"/><path class="cls-5" d="M150.36,68.06c-.48,2.28-.9,5-1.29,8.38A87.68,87.68,0,0,0,148.49,87c-.88-1.74-1.86-3.69-3-5.87a19.68,19.68,0,0,1-2.42-7.85c-.22-3.07.42-5.73,1.21-9.06.85-3.57,1.27-5.35,1.81-5.44C147.22,58.57,148.51,62.2,150.36,68.06Z" transform="translate(-124 -33.31)"/><path class="cls-7" d="M266.59,42.4a14.41,14.41,0,0,0,1.75-5.18c8.81,26.41,50.43,151.29,60.84,178.5a4.9,4.9,0,0,1-2.48.59" transform="translate(-124 -33.31)"/><path class="cls-7" d="M260.26,43.07c1.49-3.09,2.88-5.87,3.27-8.26.9,2.1,1.92,4.65,3.06,7.59,14,36.3,44.52,132.32,60.11,173.91l.08.21a12.29,12.29,0,0,1-7.77,1.9" transform="translate(-124 -33.31)"/><path class="cls-7" d="M204.78,76.85A20.3,20.3,0,0,0,211.51,78a37,37,0,0,0,20.35-6c12-7.63,20.72-21.43,26.07-34.81.69,1.63,1.47,3.59,2.33,5.85.76,2,1.59,4.27,2.47,6.73,14,39.18,42.09,131.07,59.77,165.41l.27.51a24,24,0,0,1-3.76,2.7,33.17,33.17,0,0,1-14.78,4.08c-10.64.66-22.43-2.17-31.89-5.18l-.14-.24" transform="translate(-124 -33.31)"/><path class="cls-7" d="M168.23,51.92c5.66-9.48,15-16,20.06-17.11,2.71,8.5,7.47,20.72,13.45,34.92q1.47,3.48,3,7.12c20.77,48.29,53.23,114.68,69.16,138.87a15.33,15.33,0,0,1-1.75,1.37c-.22.16-.44.3-.66.43a17.21,17.21,0,0,1-2.46,1.26c-6.27,2.6-13.81,1.69-19.94.94l-1-.13c-.88-.12-1.76-.26-2.62-.42" transform="translate(-124 -33.31)"/><path class="cls-7" d="M161.55,58.54c1.48-4.23,3.54-8.39,5.93-9.32.22.85.47,1.75.75,2.7,1.65,5.66,4.36,13.13,7.83,21.8,17.47,43.61,54.23,117.46,73.07,142.79a14.89,14.89,0,0,1-2.26,1.85,13.63,13.63,0,0,1-1.33.8,22,22,0,0,1-8.42,2.4" transform="translate(-124 -33.31)"/><path class="cls-7" d="M156.83,61.87A21.27,21.27,0,0,1,160.28,54c.39,1.46.82,3,1.27,4.52.59,2,1.24,4.1,1.94,6.25,15.19,46.63,53.94,122.06,77.63,150.93a7.92,7.92,0,0,1-3,1.59l-.46.12" transform="translate(-124 -33.31)"/><path class="cls-7" d="M151.68,63.21a21.65,21.65,0,0,1,3.79-6.78,42.48,42.48,0,0,0,1.36,5.44c.59,1.92,1.34,4.12,2.22,6.57,1,2.85,2.27,6,3.67,9.48,15.43,38,51.47,109.75,74.65,139.16l.28.36q1,1.2,1.87,2.29a13.73,13.73,0,0,1-2.4,1.85,21.91,21.91,0,0,1-8,2.78c-7.86,1.24-16.75-.72-20-4.63l-.75-.91" transform="translate(-124 -33.31)"/><path class="cls-7" d="M138.56,83.26c0-.4.06-.82.1-1.23.83-9.22,3.2-25.61,8.81-30.41,1,2.89,2.42,6.82,4.21,11.58,1.15,3.05,2.46,6.43,3.91,10.1,1.21,3.06,2.52,6.31,3.92,9.73,1.61,3.94,3.35,8.09,5.21,12.41,15.79,36.81,39.87,85.69,66,115.47a23.15,23.15,0,0,1-2.47,2.25,24.46,24.46,0,0,1-5,3c-.7.31-1.41.6-2.11.85a30.13,30.13,0,0,1-5.65,1.41,34.24,34.24,0,0,1-7.15.34,23.59,23.59,0,0,1-4.85-.69c-34.42-40-60.2-88.58-64-112.86A94.05,94.05,0,0,1,138.56,83.26Z" transform="translate(-124 -33.31)"/><path class="cls-8" d="M102.93,156.91" transform="translate(-124 -33.31)"/><path class="cls-9" d="M241,69.61c1.07-2.46,3.64-2.36,9.06-8.46,2.43-2.73,4.15-4.67,5.44-7.85,1.52-3.77,1.6-7.24,2.42-7.25.61,0,1.09,1.95,1.21,2.42,1.58,6.37,4.84,12.28,6,18.73s6.66,23.92,17.52,58.6c12.26,39.14,23.65,60.08,21.75,61-1.71.85-12.26-15.35-20.54-31.42C264.83,118.46,238.45,75.42,241,69.61Z" transform="translate(-124 -33.31)"/><path class="cls-9" d="M146.12,58.74c1.4,0,2.35,5.3,3,8.46,1.46,6.88,6,17.07,15.1,37.46C176,131,186.13,146.5,185.39,146.94s-8.48-11.08-15.1-22.35C161.45,109.56,162,106.22,154,92c-3.19-5.64-5.26-11.88-8.46-17.52a15.22,15.22,0,0,1-1.81-4.83C142.72,64.33,144.68,58.73,146.12,58.74Z" transform="translate(-124 -33.31)"/><path class="cls-9" d="M176.33,47.26c.15-1.17.95-2,3-3.62,3.33-2.66,5-4,6-3.62,1.25.44,1.65,2.3,1.81,3,1.24,5.47,4.74,10.25,6,15.71.72,3,1.37,4.17,13.29,29.6,15.16,32.32,13,28.05,17.52,37.46,9.24,19.14,13.77,27.53,13.29,27.79-.64.36-9.61-14.29-16.31-26-3.65-6.37-4.28-7.76-15.1-27.79C197,83.36,192.59,75.13,192,74.44c-2-2.52-6.39-9.94-15.1-24.77A3.87,3.87,0,0,1,176.33,47.26Z" transform="translate(-124 -33.31)"/><path class="cls-9" d="M164.25,58.13c.26-1.72,1.14-3.69,1.81-3.62s1.07,2.68,1.21,3.62c.35,2.47,3.05,9.1,8.46,22.35,2.46,6,4.68,11.21,6.65,15.71,2.83,6.47,7.32,16.49,15.1,32.62,8.85,18.33,14.11,28.28,13.9,28.39s-7.58-13-14.5-26c-25.26-47.4-22.82-50.94-27.79-58a33.31,33.31,0,0,1-4.83-12.69A7.93,7.93,0,0,1,164.25,58.13Z" transform="translate(-124 -33.31)"/><path class="cls-4" d="M99,64.78" transform="translate(-124 -33.31)"/><path class="cls-10" d="M343.5,174.17c1.89,9.5,8.44,16.29,15.68,16.88,5.44.45,9.73-2.77,10.85-3.62s9-7,7.24-14.47c-1.51-6.33-8.92-9.07-13.27-9.65C356.37,162.29,348.47,166.62,343.5,174.17Z" transform="translate(-124 -33.31)"/><path class="cls-3" d="M364,148.84c3.5-.66,4.46-1.21,7.24-1.21a28.4,28.4,0,0,1,7.24,1.21,56.41,56.41,0,0,1,7.24,2.41,31.84,31.84,0,0,1,7.24,3.62c2.27,1.62,3.86,2.74,4.82,4.82,1.1,2.41.72,4.57,0,8.44-.88,4.74-1.42,7.6-3.62,9.65s-5.26,2.3-9.65,2.41c-14.83.39-22.31.54-25.32-1.21a21.24,21.24,0,0,1-9.65-12.06c-1.66-5.9-.86-14.23,3.62-16.88C355.5,148.65,356.47,150.25,364,148.84Z" transform="translate(-124 -33.31)"/><path class="cls-3" d="M366.41,198.28c.13.19,1.7,2.53,3.62,2.41.75,0,1.09-.43,3.62-2.41s3-2.23,3.62-2.41a8.13,8.13,0,0,1,3.62,0c3.62.46,4.23,1.3,6,1.21s3.12-1.09,4.82-2.41A21,21,0,0,0,399,182.61c.57-2.47,1-4.33,0-6-.81-1.42-1.81-1.41-3.62-3.62-1.57-1.92-1.21-2.41-2.41-3.62a8.22,8.22,0,0,0-6-2.41c-2.88.18-4.82,2.33-6,3.62C375.68,176.41,362.09,191.71,366.41,198.28Z" transform="translate(-124 -33.31)"/><path class="cls-2" d="M365.21,175.37a10.08,10.08,0,0,1,0-4.82,10.37,10.37,0,0,1,4.82-6c1.31-.76,3-1.71,4.82-1.21a6.22,6.22,0,0,1,3.62,3.62c1.64,3.55.17,6.83,1.21,7.24.68.27,1.21-1.12,3.62-2.41a7.36,7.36,0,0,1,4.82-1.21,6.38,6.38,0,0,1,3.62,2.41,10.55,10.55,0,0,1,2.41,7.24,11.09,11.09,0,0,1-3.62,7.24c-2.12,2.06-4.35,2.76-7.24,3.62-5.26,1.57-8.09,2.41-10.85,1.21C368.3,190.45,367.25,185.35,365.21,175.37Z" transform="translate(-124 -33.31)"/><path class="cls-2" d="M343.5,180.2c-2.33.1-4,2.27-6,4.82a20.74,20.74,0,0,0-3.62,7.24c-.87,3.2-.12,3.62-1.21,7.24-.76,2.59-1.37,3.22-1.21,4.82s1,2.15,2.41,4.82c1.77,3.38,1,3.77,2.41,6,.63,1,2.86,4.61,6,4.82,1.83.12,1.76-1,6-2.41a25.32,25.32,0,0,1,6-1.21c2.12-.14,2.22.14,3.62,0a12.84,12.84,0,0,0,7.24-3.62c2.8-2.7,1.85-4.18,4.82-7.24,2.34-2.41,3.08-1.64,4.82-3.62,4.15-4.68,2.5-11.73,2.41-12.06-.45-1.8-1.21-4.82-3.62-6-2.15-1.11-4.51-.31-4.82-1.21s1.85-1.57,2.41-3.62c.75-2.73-1.93-5.54-2.41-6-1.56-1.57-4.82-3.62-7.24-2.41a5.56,5.56,0,0,0-2.41,3.62c-1,3.44.93,5,0,7.24s-4.4,4-7.24,3.62C347.72,184.53,346.92,180.05,343.5,180.2Z" transform="translate(-124 -33.31)"/><path class="cls-1" d="M327.83,170.55a9.12,9.12,0,0,0,0,4.82c.53,1.78,1.58,3,3.62,4.82,4.37,4,6.55,6,9.65,7.24,2.77,1.11,5.39,2.16,8.44,1.21,2.7-.84,5.55-3.2,6-6,.18-1-.14-1.06,0-2.41.39-3.44,2.58-4.27,2.41-6-.28-2.82-6.25-4.15-6-4.82.14-.45,2.62.4,6,0,2.06-.24,4.43-.52,6-2.41a6.37,6.37,0,0,0,1.21-6c-1-2.82-4.34-3.9-7.24-4.82s-4.82-.89-4.82-1.21,3.62.08,8.44-1.21c3-.81,5.4-2,6-1.21.39.51-.31,1.21,0,2.41a4.34,4.34,0,0,0,2.41,2.41,10.18,10.18,0,0,0,9.65,0,9.37,9.37,0,0,0,4.82-8.44c-.24-3.16-2.41-5.11-4.82-7.24-2.06-1.83-4.43-3.94-7.24-3.62-2.23.25-3.53,1.91-4.82,1.21-.83-.46-.78-1.41-1.21-2.41-1.09-2.53-4.29-3.08-10.85-4.82-8.21-2.18-8-2.62-9.65-2.41-3.79.46-6.22,2.77-9.65,6-4.59,4.37-8.57,8.15-8.44,13.27a15.39,15.39,0,0,0,3.62,9.65c1.07,1.13,2.63,2.26,2.41,3.62-.14,1-1,1.21-2.41,2.41A12.87,12.87,0,0,0,327.83,170.55Z" transform="translate(-124 -33.31)"/><path class="cls-2" d="M252.15,155.69a26.3,26.3,0,0,1-1.59-14.28,23,23,0,0,1,6.35-12.7,19.25,19.25,0,0,1,7.93-4.76c2.11-.62,5.09-1.49,7.93,0a7.93,7.93,0,0,1,3.17,3.17c2.57,4.76-.35,11,0,11.11s.92-5.19,4.76-7.93a9,9,0,0,1,6.35-1.59c5.35.87,7.73,7.33,7.93,7.93,1.43,4.08-.21,5.87,1.59,7.93,2.27,2.6,5.78.75,7.93,3.17,2.52,2.86.4,8.47,0,9.52-2.3,6.09-7.62,9.16-11.11,11.11-4.94,2.75-12.6,7-22.22,4.76C258,170,252.8,157.34,252.15,155.69Z" transform="translate(-124 -33.31)"/><path class="cls-2" d="M277.54,163.62a17.89,17.89,0,0,1,3.17-9.52,12.19,12.19,0,0,1,6.35-4.76,10.28,10.28,0,0,1,6.35,0c3.94,1.4,5.54,5.19,6.35,4.76s-.67-2.35,0-4.76c.83-3,4.33-5.47,6.35-4.76,1.49.52,1,2.38,3.17,4.76,1.86,2,2.92,1.43,4.76,3.17a11.82,11.82,0,0,1,3.17,7.93c.08,4.28-2.3,7.51-1.59,7.93.46.29,1.32-1.24,3.17-1.59a6.35,6.35,0,0,1,4.76,1.59c2.78,2.25,3,6,3.17,7.93a16.79,16.79,0,0,1-3.17,11.11c-1.87,2.44-3.17,2.65-9.52,6.35-8.43,5-7.76,5.62-12.7,7.93-5.6,2.62-10,4.76-14.28,3.17s-6.09-5.59-7.93-9.52C275.46,187.52,276.16,179.55,277.54,163.62Z" transform="translate(-124 -33.31)"/><path class="cls-1" d="M250.56,198.53c-7-2-8.16-1.24-11.11-3.17-3.9-2.57-5.74-6.46-7.93-11.11-3-6.35-1.89-7.82-4.76-11.11s-5.32-3.25-6.35-6.35a8.24,8.24,0,0,1,1.59-7.93c2.38-2.46,5.49-1.32,6.35-3.17,1.11-2.4-3.82-4.87-3.17-7.93.87-4.08,10.2-2.4,15.87-9.52,1.24-1.59,1.68-2.76,3.17-3.17,3.17-.89,7.35,2.89,9.52,6.35.67,1.08,1.17,2.16,3.17,9.52,1.7,6.35,2.43,9.52,3.17,9.52s0-5.21,3.17-7.93a8.66,8.66,0,0,1,6.35-1.59c6.09.49,10.06,5.92,12.7,9.52a30,30,0,0,1,6.35,15.87c.19,2.78-.92,7.19-3.17,15.87-2.82,10.95-3.73,12-4.76,12.7-3.78,2.63-9.28.94-17.46-1.59C257.15,201.41,257.23,200.44,250.56,198.53Z" transform="translate(-124 -33.31)"/><path class="cls-3" d="M247.39,206.47c-2.75-4.94-4.9-8.84-4.76-14.28a16,16,0,0,1,3.17-9.52c.4-.51,3.06-3.82,4.76-3.17,1.21.46,1.08,2.59,1.59,4.76.92,3.94,3.81,6.35,9.52,11.11,6.55,5.43,9.84,8.14,12.7,7.93,3.41-.24,3.27-2.62,12.7-9.52,4.54-3.32,4.06-2.4,9.52-6.35,3.32-2.4,4.9-3.76,7.93-4.76,1.76-.59,5.76-1.89,7.93,0,.73.63.71,1.17,1.59,4.76,1.46,6,2.16,7.2,1.59,9.52a5.46,5.46,0,0,1-1.59,3.17c-2.19,1.84-5.08,0-6.35,1.59s.75,3.08,0,6.35c-.11.49-.84,3.75-3.17,4.76-2.76,1.21-4.87-2-9.52-1.59a14.39,14.39,0,0,0-4.76,1.59c-7.3,3.17-8.46,6.35-14.28,7.93-2.21.62-4.65,1.27-6.35,0s-1.59-4.4-3.17-4.76c-1-.24-1.59.94-3.17,1.59-2.94,1.24-6.35-.68-7.93-1.59C251.54,213.86,249.77,210.75,247.39,206.47Z" transform="translate(-124 -33.31)"/><polygon class="cls-11" points="16.98 153.8 286.43 153.8 248.37 385.19 61.48 383.85 16.98 153.8"/><polygon class="cls-12" points="17.29 159.54 21.19 175.55 283.03 174.47 284.92 159.54 17.29 159.54"/><polygon class="cls-12" points="37.52 159.84 255.66 340.89 252.55 359.76 19.24 167.55 17.29 159.54 37.52 159.84"/><polygon class="cls-12" points="95.15 159.84 262.57 299.1 259.73 315.74 73.77 159.54 95.15 159.84"/><polygon class="cls-12" points="138.42 159.84 267.4 269.5 265.16 282.81 119.39 159.54 138.42 159.84"/><polygon class="cls-12" points="190.07 159.84 273.44 232.74 270.64 249.79 168.17 159.84 190.07 159.84"/><polygon class="cls-12" points="233.27 159.84 279.41 196.48 277.07 211.8 213.93 159.84 233.27 159.84"/><polygon class="cls-12" points="24.83 194.34 249.34 379.26 249.28 384.89 234.78 385.19 29.7 219.22 24.83 194.34"/><polygon class="cls-12" points="34.93 246.57 208.5 384.9 188.56 384.58 39.86 271.76 34.93 246.57"/><polygon class="cls-12" points="44.39 295.48 157.15 383.98 132.98 384.58 49.7 319.34 44.39 295.48"/><polygon class="cls-12" points="52.95 339.73 103.98 383.98 85.55 384.04 57.23 361.86 52.95 339.73"/><polygon class="cls-12" points="26.18 201.34 62.6 159.84 76.89 159.84 29.11 216.22 26.18 201.34"/><polygon class="cls-12" points="32.99 237.48 98.24 159.54 114.55 159.54 36.02 251.37 32.99 237.48"/><polygon class="cls-12" points="135.09 159.84 151.1 159.54 43.22 289.12 40.22 273.92 135.09 159.84"/><polygon class="cls-12" points="49.7 322.94 184.63 159.84 202.91 159.84 52.95 339.73 49.7 322.94"/><polygon class="cls-12" points="59.27 372.45 239.91 159.84 255.66 159.84 69.44 383.61 61.39 383.68 59.27 372.45"/><polygon class="cls-12" points="87.66 384.04 280.49 159.84 284.92 159.54 281.59 182.95 110.53 383.68 87.66 384.04"/><polygon class="cls-12" points="138.42 384.58 274.78 224.64 268.69 261.32 163.79 384.58 138.42 384.58"/><polygon class="cls-12" points="188.56 384.58 261.94 302.65 255.66 339.73 214.84 384.28 188.56 384.58"/><line class="cls-7" x1="26.18" y1="201.34" x2="62.6" y2="159.84"/><line class="cls-7" x1="98.04" y1="159.84" x2="33.11" y2="237.17"/><line class="cls-7" x1="135.09" y1="159.84" x2="40.22" y2="273.92"/><line class="cls-7" x1="184.63" y1="159.84" x2="49.7" y2="322.94"/><line class="cls-7" x1="239.91" y1="159.84" x2="59.27" y2="372.45"/><line class="cls-7" x1="280.49" y1="159.84" x2="87.66" y2="384.04"/><line class="cls-7" x1="274.78" y1="224.64" x2="138.42" y2="384.58"/><line class="cls-7" x1="261.95" y1="302.65" x2="188.56" y2="384.58"/><line class="cls-7" x1="233.27" y1="159.84" x2="279.41" y2="196.48"/><line class="cls-7" x1="190.07" y1="159.84" x2="273.45" y2="232.74"/><line class="cls-7" x1="138.42" y1="159.84" x2="267.4" y2="269.5"/><line class="cls-7" x1="95.15" y1="159.84" x2="262.57" y2="299.1"/><line class="cls-7" x1="37.53" y1="159.84" x2="255.66" y2="340.89"/><line class="cls-7" x1="24.83" y1="194.34" x2="249.34" y2="379.26"/><line class="cls-7" x1="34.93" y1="246.57" x2="208.5" y2="384.9"/><line class="cls-7" x1="44.39" y1="295.48" x2="157.14" y2="383.98"/><line class="cls-7" x1="52.95" y1="339.73" x2="103.98" y2="383.98"/><polygon class="cls-7" points="16.98 153.5 286.43 153.5 248.37 384.89 61.48 383.55 16.98 153.5"/><rect class="cls-11" x="12.15" y="148.97" width="278.51" height="10.87" rx="5.44" ry="5.44"/><rect class="cls-13" x="17.29" y="151.08" width="267.63" height="2.42" rx="1.21" ry="1.21"/><path class="cls-1" d="M305,119.36a16.15,16.15,0,0,1-9.07-7.78,17.11,17.11,0,0,1-1.3-9.07,18,18,0,0,1,2.59-9.07c2.19-3.36,3.77-2.68,6.48-6.48,2.59-3.56,1.83-5.11,3.89-6.48,2.59-1.69,5.83-.83,9.07,0A27.87,27.87,0,0,1,327,85.66c3.69,3,8.92,7.15,9.07,13,.17,6.33-5.78,10.8-10.37,14.26C321.52,116,313.38,122.13,305,119.36Z" transform="translate(-124 -33.31)"/><path class="cls-2" d="M311.43,114.17c.69-3.68,1.85-5.59,1.3-9.07-.49-3.08-1.71-3.46-1.3-5.18.66-2.73,3.89-2.59,7.78-6.48,2.73-2.76,2-3.77,3.89-5.18,4.16-3.12,11.42-1,15.55,1.3,7,3.89,9.71,10.65,11.67,15.55,2.09,5.18,4.48,11.25,2.59,18.15-1.65,6-5.61,9.33-13,15.55-6.31,5.34-9.46,8-13,7.78-8.22-.53-14.61-13.26-15.55-22A39.13,39.13,0,0,1,311.43,114.17Z" transform="translate(-124 -33.31)"/><path class="cls-1" d="M267.36,111.58a11.13,11.13,0,0,1,3.89-5.18,15.44,15.44,0,0,1,9.07-3.89c3.07-.14,4.12.93,6.48,0,2.16-.86,2.09-2.1,3.89-2.59a7.36,7.36,0,0,1,7.78,3.89c1.36,2.9-.17,6.48,0,6.48s.78-6.8,3.89-7.78a4,4,0,0,1,3.89,1.3c1.69,1.91.76,5.08,1.3,5.18s.78-3,2.59-3.89c2.16-1,5.43,1.71,6.48,2.59s7,6,6.48,13c-.16,2.06-.7,1.84-2.59,9.07-1.17,4.47-.84,4.11-1.3,5.18-1.8,4.25-6.48,8.81-11.67,9.07-3.6.18-4.15-1.85-7.78-1.3-2.49.38-2.67,1.4-7.78,3.89-3.71,1.81-5.61,2.71-7.78,2.59s-2.7-1.09-6.48-2.59c-5.69-2.27-6.71-.88-9.07-2.59-3.68-2.67-4.72-8.63-3.89-13,.92-4.76,3.55-4.69,3.89-9.07C269,117.27,266.16,115.58,267.36,111.58Z" transform="translate(-124 -33.31)"/><path class="cls-2" d="M327,129.73c-.44,1.61.57,3.24,2.59,6.48a30.38,30.38,0,0,0,10.37,10.37c2.92,1.7,4.29,1.78,5.18,1.3,1.3-.69,1.3-2.37,2.59-2.59,1-.17,1.52.8,2.59,1.3,2.83,1.3,7.09-1.87,9.07-3.89.87-.88,4.85-5,3.89-9.07-.65-2.77-3.15-4-2.59-5.18s2.92-.16,5.18-1.3c3.11-1.57,4.78-6.48,3.89-10.37-1.39-6-8.84-8.55-10.37-9.07-3.8-1.3-5.5-.43-10.37-2.59-1.75-.78-3.51-1.76-3.89-1.3s1.18,2,2.59,5.18a17,17,0,0,1,1.3,3.89c.54,3.1,0,7.87-2.59,9.07-.83.39-1.41.19-6.48-1.3-5.55-1.63-7.08-2-7.78-1.3s.41,1.87,0,3.89C331.52,126.48,327.76,126.91,327,129.73Z" transform="translate(-124 -33.31)"/><path class="cls-3" d="M327,121.95c-.6.71,3,3,3.89,7.78.7,3.68-.27,8.36-2.59,9.07-1.92.6-4.26-1.68-5.18-2.59-3.6-3.53-2.79-6.86-5.18-7.78s-6,1.39-7.78,3.89c-2.59,3.56-1.72,7.7-2.59,7.78s-2.31-5.33-2.59-6.48c-1.65-6.82-1-9.51-2.59-10.37-2.18-1.13-6,2.29-7.78,3.89a19.44,19.44,0,0,0-6.48,11.67,10.87,10.87,0,0,0,0,3.89c.83,4,3.72,4.68,3.89,7.78.13,2.59-1.79,3.31-1.3,5.18.16.6.78,2.13,6.48,3.89,6.34,2,11.67,3.59,16.85,1.3,3-1.3,4.39-3.24,6.48-2.59s1.84,2.51,3.89,3.89c3,2,7.08.65,9.07,0a18.51,18.51,0,0,0,10.37-9.07c1.63-3.46,1.52-6.34,1.3-11.67-.17-4.24-.35-7.48-2.59-10.37-.88-1.13-2.32-2.06-5.18-3.89C333.95,125,327.76,121,327,121.95Z" transform="translate(-124 -33.31)"/><path class="cls-2" d="M404.56,395.55a26.3,26.3,0,0,1-8.95-11.25,23,23,0,0,1-1.39-14.13,19.25,19.25,0,0,1,4.18-8.25c1.46-1.65,3.52-4,6.72-4.22a7.93,7.93,0,0,1,4.38,1c4.71,2.66,5.57,9.51,5.91,9.4s-2-4.88-.19-9.25a9,9,0,0,1,4.53-4.72c5-2.11,10.45,2.09,10.94,2.49,3.38,2.69,3,5.08,5.57,5.87,3.31,1,5.29-2.44,8.41-1.54,3.66,1.07,4.85,7,5.07,8.06,1.3,6.38-1.57,11.81-3.49,15.32-2.72,5-6.92,12.66-16.27,15.86C417.16,404.57,406,396.6,404.56,395.55Z" transform="translate(-124 -33.31)"/><path class="cls-2" d="M430.28,388.74A17.89,17.89,0,0,1,427.9,379a12.19,12.19,0,0,1,2.84-7.41,10.28,10.28,0,0,1,5.37-3.38c4.08-.91,7.45,1.44,7.91.65s-1.81-1.63-2.53-4c-.9-3,.75-6.94,2.84-7.41,1.54-.35,2.09,1.5,5.22,2.34,2.64.7,3.23-.35,5.72.15a11.82,11.82,0,0,1,6.91,5c2.35,3.58,2,7.58,2.88,7.56.54,0,.46-1.75,1.84-3a6.35,6.35,0,0,1,4.87-1.19c3.55.43,5.73,3.42,6.91,5a16.79,16.79,0,0,1,3.23,11.09c-.28,3.07-1.28,3.93-4.68,10.44-4.5,8.68-3.58,8.89-6.52,13.48-3.35,5.2-5.93,9.35-10.4,10.29s-8.13-1.48-11.79-3.84C441.24,410.08,437.59,403,430.28,388.74Z" transform="translate(-124 -33.31)"/><path class="cls-1" d="M426,432.66c-7,2-7.56,3.29-11.09,3.23-4.67-.1-8.3-2.41-12.63-5.18-5.92-3.78-5.76-5.62-9.94-6.87s-6.23.08-8.75-2a8.24,8.24,0,0,1-2.88-7.56c.71-3.35,3.95-4,3.68-6.07-.34-2.62-5.83-2.09-6.91-5-1.43-3.92,7.36-7.46,8.36-16.51.2-2,0-3.23,1-4.38,2.21-2.44,7.76-1.47,11.44.3,1.14.56,2.14,1.2,7.76,6.37,4.82,4.47,7.12,6.77,7.76,6.37s-2.77-4.41-1.54-8.41a8.66,8.66,0,0,1,4.53-4.72c5.42-2.83,11.67-.35,15.82,1.3a30,30,0,0,1,13.82,10.05c1.64,2.25,3,6.58,5.76,15.12,3.44,10.77,3.22,12.13,2.73,13.28-1.79,4.24-7.36,5.74-15.62,8C433.13,431.59,432.69,430.72,426,432.66Z" transform="translate(-124 -33.31)"/><path class="cls-3" d="M427.57,441.07c-5-2.72-8.86-4.87-11.63-9.56a16,16,0,0,1-2.38-9.75c.07-.64.56-4.87,2.34-5.22,1.27-.25,2.29,1.62,3.88,3.19,2.87,2.84,6.6,3.35,14,4.33,8.44,1.1,12.66,1.65,15,0,2.76-2,1.37-4,5.68-14.82,2.08-5.22,2.16-4.19,4.68-10.44,1.53-3.79,2.15-5.79,4.18-8.25,1.18-1.43,3.87-4.67,6.72-4.22,1,.15,1.23.61,3.88,3.19,4.45,4.34,5.66,4.95,6.41,7.22a5.46,5.46,0,0,1,.35,3.53c-.87,2.72-4.3,2.7-4.53,4.72s2.27,2.21,3.38,5.37c.17.48,1.28,3.62-.15,5.72-1.7,2.49-5.16.94-8.9,3.73a14.39,14.39,0,0,0-3.19,3.88c-4.49,6.57-3.78,9.88-7.87,14.32-1.54,1.7-3.26,3.55-5.37,3.38s-3.68-2.88-5.22-2.34c-1,.36-.84,1.64-1.84,3-1.83,2.61-5.74,2.8-7.56,2.88C435,445.11,431.86,443.43,427.57,441.07Z" transform="translate(-124 -33.31)"/></svg>