<?xml version="1.0" encoding="utf-8"?>
<!-- Generator: Adobe Illustrator 21.0.0, SVG Export Plug-In . SVG Version: 6.00 Build 0)  -->
<svg version="1.1" id="Слой_1" xmlns="http://www.w3.org/2000/svg" xmlns:xlink="http://www.w3.org/1999/xlink" x="0px" y="0px"
	 viewBox="0 0 315 315" style="enable-background:new 0 0 315 315;" xml:space="preserve">
<style type="text/css">
	.st0{fill:#D0D2D3;stroke:#000000;stroke-width:5;stroke-miterlimit:10;}
	.st1{fill:#FFFFFF;stroke:#000000;stroke-width:5;stroke-miterlimit:10;}
	.st2{fill:#773249;stroke:#000000;stroke-width:5;stroke-miterlimit:10;}
	.st3{fill:#4B4B70;stroke:#000000;stroke-width:5;stroke-miterlimit:10;}
	.st4{fill:#2B2B38;stroke:#000000;stroke-width:5;stroke-miterlimit:10;}
</style>
<title>clock</title>
<circle class="st0" cx="157.5" cy="157.5" r="155"/>
<circle class="st1" cx="157.5" cy="157.5" r="129.1"/>
<path class="st2" d="M156.6,18.9h1.9c3.3,0,6,2.7,6,6v23.8c0,3.3-2.7,6-6,6h-1.9c-3.3,0-6-2.7-6-6V24.9
	C150.6,21.5,153.2,18.9,156.6,18.9z"/>
<path class="st3" d="M24.9,150.6h23.8c3.3,0,6,2.7,6,6v1.9c0,3.3-2.7,6-6,6H24.9c-3.3,0-6-2.7-6-6v-1.9
	C18.9,153.2,21.5,150.6,24.9,150.6z"/>
<path class="st3" d="M266.4,150.6h23.8c3.3,0,6,2.7,6,6v1.9c0,3.3-2.7,6-6,6h-23.8c-3.3,0-6-2.7-6-6v-1.9
	C260.4,153.2,263,150.6,266.4,150.6z"/>
<path class="st3" d="M156.6,18.9h1.9c3.3,0,6,2.7,6,6v23.8c0,3.3-2.7,6-6,6h-1.9c-3.3,0-6-2.7-6-6V24.9
	C150.6,21.5,153.2,18.9,156.6,18.9z"/>
<path class="st3" d="M150.6,266.4c0-3.3,2.7-6,6-6h1.9c3.3,0,6,2.7,6,6v23.8c0,3.3-2.7,6-6,6h-1.9c-3.3,0-6-2.7-6-6L150.6,266.4z"/>
<path class="st4" d="M152.4,178.7c-2.3,2.3-6.1,2.3-8.5,0l-1.3-1.3c-2.3-2.3-2.3-6.1,0-8.5l57.5-57.5c2.3-2.3,6.1-2.3,8.5,0l1.3,1.3
	c2.3,2.3,2.3,6.1,0,8.5L152.4,178.7z"/>
</svg>
