<svg id="Слой_1" data-name="Слой 1" xmlns="http://www.w3.org/2000/svg" viewBox="0 0 74.01 57"><defs><style>.cls-1,.cls-2{fill:#d8e2c9;}.cls-1,.cls-4{stroke:#000;stroke-width:2px;}.cls-1{stroke-miterlimit:10;}.cls-3{fill:#4c3815;}.cls-4{fill:none;stroke-linecap:round;stroke-linejoin:round;}.cls-5{opacity:0.2;}</style></defs><title>cup</title><path class="cls-1" d="M268.5,245.5a14.69,14.69,0,0,1,5-5,13.12,13.12,0,0,1,9-2c1.19.2,5.57,1.1,8,5,3.15,5,.46,11,0,12-1.29,2.84-2.9,4-11,10-11,8.15-12.65,9.37-13,9-.55-.58,10.51-10.51,15-14,3.38-2.63,5.81-4.57,7-8,.44-1.27,1.46-4.21,0-7-1.61-3.08-5.11-3.81-6-4a11,11,0,0,0-7,1c-6.39,3-8.22,10.33-9,10C266,252.27,266.64,248.58,268.5,245.5Z" transform="translate(-219 -229)"/><path class="cls-2" d="M270,230v55H220V230h6.5v20a1.5,1.5,0,0,0,3,0V230h8v28a1.5,1.5,0,0,0,3,0V235.24a4.38,4.38,0,0,0,1.5.26h3a4.47,4.47,0,0,0,2.5-.76V253a1.5,1.5,0,0,0,3,0V230Z" transform="translate(-219 -229)"/><path class="cls-3" d="M250.5,230v23a1.5,1.5,0,0,1-3,0V234.74a4.6,4.6,0,0,0,.68-.56A4.47,4.47,0,0,0,249.5,231a4.15,4.15,0,0,0-.12-1Z" transform="translate(-219 -229)"/><path class="cls-3" d="M249.38,230a4.15,4.15,0,0,1,.12,1,4.47,4.47,0,0,1-1.32,3.18,4.6,4.6,0,0,1-.68.56V230Z" transform="translate(-219 -229)"/><path class="cls-3" d="M247.5,230v4.74a4.47,4.47,0,0,1-2.5.76h-3a4.38,4.38,0,0,1-1.5-.26V230Z" transform="translate(-219 -229)"/><path class="cls-3" d="M240.5,235.24V258a1.5,1.5,0,0,1-3,0V231A4.51,4.51,0,0,0,240.5,235.24Z" transform="translate(-219 -229)"/><path class="cls-3" d="M240.5,230v5.24a4.51,4.51,0,0,1-3-4.24,4.15,4.15,0,0,1,.12-1Z" transform="translate(-219 -229)"/><path class="cls-3" d="M229.5,230v20a1.5,1.5,0,0,1-3,0V230Z" transform="translate(-219 -229)"/><polygon class="cls-4" points="31.5 1 51 1 51 56 1 56 1 1 7.5 1 10.5 1 18.5 1 18.62 1 21.5 1 28.5 1 30.38 1 31.5 1"/><rect class="cls-5" x="36" y="4" width="11" height="49" rx="2.25" ry="2.25"/></svg>