<svg id="Слой_1" data-name="Слой 1" xmlns="http://www.w3.org/2000/svg" viewBox="0 0 373.78 506"><defs><style>.cls-1{fill:#59564b;}.cls-1,.cls-10,.cls-11,.cls-12,.cls-13,.cls-14,.cls-2,.cls-3,.cls-4,.cls-5,.cls-6,.cls-7,.cls-8,.cls-9{stroke:#000;stroke-linecap:round;stroke-linejoin:round;stroke-width:3px;}.cls-2{fill:#7c7969;}.cls-3{fill:#ffd08c;}.cls-4{fill:#c6c9ce;}.cls-5{fill:#688ab0;}.cls-6{fill:#c2ad7e;}.cls-7{fill:#ac7330;}.cls-8{fill:#d2b7a4;}.cls-9{fill:#5e2009;}.cls-10{fill:#7c7bb2;}.cls-11{fill:#af8988;}.cls-12{fill:#254351;}.cls-13{fill:#3b4b60;}.cls-14{fill:#99604e;}</style></defs><title>cupboard1</title><rect class="cls-1" x="1.5" y="1.5" width="370.78" height="460.41"/><rect class="cls-2" x="1.5" y="1.5" width="17.49" height="503"/><rect class="cls-2" x="354.79" y="1.5" width="17.49" height="503"/><rect class="cls-2" x="18.99" y="1.5" width="335.8" height="11.51"/><rect class="cls-2" x="18.99" y="450.4" width="335.8" height="39.14"/><rect class="cls-2" x="18.99" y="162.64" width="335.8" height="11.51"/><rect class="cls-2" x="18.99" y="323.79" width="335.8" height="11.51"/><rect class="cls-3" x="29" y="30" width="36" height="131"/><rect class="cls-4" x="65" y="49" width="21" height="112"/><rect class="cls-5" x="86" y="49" width="21" height="112"/><rect class="cls-6" x="200.5" y="52.5" width="21" height="112" transform="translate(-95.74 102.42) rotate(-26.35)"/><rect class="cls-7" x="254.5" y="63.83" width="21" height="112" transform="translate(-65.89 244.84) rotate(-50.34)"/><rect class="cls-8" x="283" y="26" width="64" height="134"/><rect class="cls-5" x="262" y="33" width="21" height="127"/><rect class="cls-9" x="306" y="180" width="38" height="141"/><rect class="cls-10" x="272" y="192" width="34" height="129"/><rect class="cls-6" x="237" y="185" width="35" height="136"/><rect class="cls-11" x="216" y="209" width="21" height="112"/><rect class="cls-5" x="174" y="185" width="42" height="136"/><rect class="cls-12" x="152" y="188" width="22" height="133"/><rect class="cls-4" x="25" y="199.5" width="17" height="122"/><rect class="cls-13" x="42" y="209" width="23" height="112"/><rect class="cls-5" x="47" y="346.5" width="25" height="102"/><rect class="cls-14" x="72" y="354.5" width="24" height="94"/><rect class="cls-11" x="96" y="346.5" width="14" height="102"/><rect class="cls-9" x="163" y="420" width="109" height="28"/><rect class="cls-13" x="171" y="397" width="109" height="23"/><rect class="cls-7" x="149" y="378" width="137" height="19"/><rect class="cls-12" x="364.72" y="356.42" width="24" height="94" transform="translate(-174.32 131.14) rotate(-17.7)"/></svg>