<svg id="Слой_1" data-name="Слой 1" xmlns="http://www.w3.org/2000/svg" viewBox="0 0 463 193"><defs><style>.cls-1{fill:#4c4c4c;}.cls-1,.cls-10,.cls-11,.cls-12,.cls-13,.cls-14,.cls-15,.cls-2,.cls-3,.cls-4,.cls-5,.cls-6,.cls-7,.cls-8,.cls-9{stroke:#000;stroke-linecap:round;stroke-linejoin:round;stroke-width:2px;}.cls-2{fill:#cccbd3;}.cls-3{fill:none;}.cls-4{fill:#898989;}.cls-5{fill:#e5dfcc;}.cls-6{fill:#262625;}.cls-7{fill:#9e9e9e;}.cls-8{fill:#717789;}.cls-9{fill:#8e97ad;}.cls-10{fill:#9fa7c1;}.cls-11{fill:#525763;}.cls-12{fill:#3f3c47;}.cls-13{fill:#6f6b7c;}.cls-14{fill:#555360;}.cls-15{fill:#232228;}</style></defs><title>folders</title><polygon class="cls-1" points="162.5 163.5 279 132 155 137 162.5 163.5"/><polygon class="cls-2" points="163 151 255 127 221 121 137 143 163 151"/><polygon class="cls-2" points="161 144 252 123 221 118 134 138 161 144"/><polygon class="cls-2" points="162 138 245 118 223 113 181 107 134 127 162 138"/><polygon class="cls-2" points="150 136 243 114 203 107 127 126 150 136"/><polygon class="cls-2" points="155 128 236 111 172 105 138 120 155 128"/><path class="cls-3" d="M213.5,357.5c13,1,13,26,0,28" transform="translate(-51.5 -236.5)"/><polygon class="cls-4" points="5 72 167 104 162 163 1 127 5 72"/><polygon class="cls-5" points="13.5 82 10 119 93 138 97.5 99 13.5 82"/><ellipse class="cls-6" cx="180.5" cy="363" rx="13.5" ry="14" transform="translate(-266.94 213.57) rotate(-75.96)"/><polygon class="cls-7" points="5 72 140 69 270 101 167 105 5 72"/><polygon class="cls-8" points="243 168 345 129 309 96 238 151 243 168"/><polygon class="cls-2" points="243 157 313 138 291 103 233 124 243 157"/><polygon class="cls-2" points="243 151 317 133 311 116 233 124 243 151"/><polygon class="cls-2" points="246.39 144.5 313 131 306 112 233 124 246.39 144.5"/><polygon class="cls-9" points="243 168 273 126 118 1 91 50 243 168"/><polygon class="cls-10" points="233 6 118 1 273 126 343 112 233 6"/><polygon class="cls-5" points="99 47 119 11 213.5 88.5 194 122 99 47"/><ellipse class="cls-11" cx="280.5" cy="363.5" rx="13" ry="16" transform="translate(-229.87 111.07) rotate(-50.36)"/><polygon class="cls-12" points="315 192 462 183 428 117 321 121 315 192"/><polygon class="cls-2" points="327 178 445 189 428 128 327 127 327 178"/><polygon class="cls-2" points="330 175 448 185 429 126 327 127 330 175"/><polygon class="cls-2" points="332 172 448 179 428 121 327 127 332 172"/><polygon class="cls-2" points="330 175 450 175 428 121 327 127 330 175"/><polygon class="cls-2" points="338 169 452 169 415 110 338 117 338 169"/><path class="cls-3" d="M382.5,390.5c8.53,3.11,13.27,10.69,12,17s-8.3,9.35-10,10a19.05,19.05,0,0,1-15-1" transform="translate(-51.5 -236.5)"/><polygon class="cls-13" points="333 161 462 163 379 32 240 16 333 161"/><polygon class="cls-14" points="315 192 333 161 240 16 223 52 315 192"/><polygon class="cls-5" points="229 51 240.5 26.5 303 124.5 289.5 144.5 229 51"/><ellipse class="cls-15" cx="358" cy="386" rx="6.5" ry="11.5" transform="translate(-196.54 -5.79) rotate(-30)"/></svg>