<svg id="Слой_1" data-name="Слой 1" xmlns="http://www.w3.org/2000/svg" viewBox="0 0 273.68 268.51"><defs><style>.cls-1{fill:#bdc1c1;}.cls-1,.cls-2,.cls-5{stroke:#000;stroke-miterlimit:10;stroke-width:2px;}.cls-2,.cls-3{fill:#ddebed;}.cls-4{fill:#4c3815;}.cls-5{fill:none;}.cls-6{opacity:0.2;}.cls-7{fill:#fff;opacity:0.8;}</style></defs><title>kit</title><path class="cls-1" d="M294,200c0,1.63-2.41,23-6,23s-7-21.41-7-23,2.91-3,6.5-3S294,198.32,294,200Z" transform="translate(-79.66 -133.49)"/><path class="cls-2" d="M120.63,230.42,98.76,189.93c-.65-1.21-.35-2.39.57-2.19l12.12,2.72a2.25,2.25,0,0,1,1.3,1.18l14.12,26.15a2.25,2.25,0,0,1,.27,1.73l-4.37,11.63C122.44,232,121.28,231.62,120.63,230.42Z" transform="translate(-79.66 -133.49)"/><path class="cls-3" d="M165.13,180.23c12.33,22.84,20.56,42.31,18.37,43.49s-45.75,24.71-68.09-16.64c-8.29-15.36-7.5-28.26-3.1-38.47a4.73,4.73,0,0,0,1.43-.4,4,4,0,0,0,2.16-2.31,3.81,3.81,0,0,0-.07-2.23c-.1-.4-.22-.77-.34-1.12A56.32,56.32,0,0,1,124.1,152c-.7,3.63-2.52,5.89-2.18,6.11s2.24-1.63,3.45-4.14a13.12,13.12,0,0,0,1.2-4.26A68.58,68.58,0,0,1,138.83,141c1.08-.59,4.49,3.39,9.15,10.31l-13.85,8a2.5,2.5,0,0,0,2.5,4.34l14.1-8.14c2.12,3.31,4.41,7.07,6.81,11.17l-18.41,10.63a2.5,2.5,0,1,0,2.5,4.34L160,171Q162.55,175.45,165.13,180.23Z" transform="translate(-79.66 -133.49)"/><path class="cls-4" d="M160,171l-18.41,10.63a2.5,2.5,0,1,1-2.5-4.34l18.41-10.63C158.36,168.11,159.19,169.55,160,171Z" transform="translate(-79.66 -133.49)"/><path class="cls-4" d="M150.73,155.53l-14.1,8.14a2.5,2.5,0,0,1-2.5-4.34l13.85-8Q149.3,153.28,150.73,155.53Z" transform="translate(-79.66 -133.49)"/><path class="cls-3" d="M126.44,145.43a16.06,16.06,0,0,1,.13,4.28c-.82.72-1.64,1.48-2.47,2.29a15.43,15.43,0,0,0,.25-2,14,14,0,0,0-1.09-6.23,9.94,9.94,0,0,0-3.73-4.8,6.58,6.58,0,0,0-4.07-1.21,7,7,0,0,0-4.4,2.37,10.42,10.42,0,0,0-2.9,7.25,23.21,23.21,0,0,0,4.82,11,13,13,0,0,1,2.51,4.16,44.59,44.59,0,0,0-3.18,6.06,4,4,0,0,1-3.52-1.14c-1-1.17-.91-3-.54-3.12s.76,1.17,1.83,1.29a2.06,2.06,0,0,0,1.76-.95c1.28-1.83-1.45-4.82-1.5-4.88-1.93-2.22-3.8-7.11-4.35-10.15-.28-1.57-1.1-6,1.48-9.89.23-.35,4-5.89,9.68-5.23,4.28.5,6.7,4.19,7.32,5.14A13.23,13.23,0,0,1,126.44,145.43Z" transform="translate(-79.66 -133.49)"/><path class="cls-3" d="M126.57,149.71a13.12,13.12,0,0,1-1.2,4.26c-1.21,2.51-3.12,4.34-3.45,4.14s1.48-2.48,2.18-6.11C124.93,151.19,125.75,150.43,126.57,149.71Z" transform="translate(-79.66 -133.49)"/><path class="cls-3" d="M115.83,163.67a3.81,3.81,0,0,1,.07,2.23,4,4,0,0,1-2.16,2.31,4.73,4.73,0,0,1-1.43.4,44.59,44.59,0,0,1,3.18-6.06C115.61,162.9,115.73,163.27,115.83,163.67Z" transform="translate(-79.66 -133.49)"/><path class="cls-5" d="M115.49,162.55a13,13,0,0,0-2.51-4.16,23.21,23.21,0,0,1-4.82-11,10.42,10.42,0,0,1,2.9-7.25,7,7,0,0,1,4.4-2.37,6.58,6.58,0,0,1,4.07,1.21,9.94,9.94,0,0,1,3.73,4.8,14,14,0,0,1,1.09,6.23,15.43,15.43,0,0,1-.25,2" transform="translate(-79.66 -133.49)"/><path class="cls-5" d="M126.57,149.71a16.06,16.06,0,0,0-.13-4.28,13.23,13.23,0,0,0-2-5.75c-.62-1-3-4.64-7.32-5.14-5.68-.66-9.45,4.88-9.68,5.23-2.58,3.92-1.76,8.32-1.48,9.89.55,3,2.42,7.93,4.35,10.15,0,.06,2.78,3.05,1.5,4.88a2.06,2.06,0,0,1-1.76.95c-1.07-.12-1.5-1.42-1.83-1.29s-.45,2,.54,3.12a4,4,0,0,0,3.52,1.14" transform="translate(-79.66 -133.49)"/><path class="cls-5" d="M148,151.33c-4.66-6.92-8.07-10.9-9.15-10.31a68.58,68.58,0,0,0-12.26,8.69c-.82.72-1.64,1.48-2.47,2.29a56.32,56.32,0,0,0-8.61,10.55,44.59,44.59,0,0,0-3.18,6.06c-4.4,10.21-5.19,23.11,3.1,38.47,22.34,41.35,65.91,17.82,68.09,16.64s-6-20.65-18.37-43.49q-2.58-4.77-5.09-9.19c-.85-1.49-1.68-2.93-2.5-4.34-2.4-4.1-4.69-7.86-6.81-11.17Q149.31,153.28,148,151.33Z" transform="translate(-79.66 -133.49)"/><path class="cls-6" d="M112,181c-.78.23-.34,5.15,1,10,.42,1.53,2.25,8.14,6,13,11.79,15.29,39.08,8.68,46,7,4-1,7.21-2.42,8-5,.63-2.05-.49-4.06-1-5-7.28-13.39-12-25-12-25-3,2-3.44,2.56-12,7-4.32,2.24-15.31,7.79-25,6a14.06,14.06,0,0,1-7-3C113.27,183.65,112.61,180.82,112,181Z" transform="translate(-79.66 -133.49)"/><path class="cls-2" d="M162.65,264.86l-45.63-6c-1.36-.18-2.14-1.12-1.44-1.74l9.3-8.24a2.25,2.25,0,0,1,1.72-.37l29.46,3.86a2.25,2.25,0,0,1,1.56.8l6.87,10.35C165,264.33,164,265,162.65,264.86Z" transform="translate(-79.66 -133.49)"/><path class="cls-3" d="M107.67,235.43a4,4,0,0,1-3,2.17c-1.52.12-2.94-1-2.84-1.38s1.39.07,2.11-.73a2.07,2.07,0,0,0,.26-2c-.73-2.11-4.75-1.64-4.83-1.64-2.93.27-8-1.08-10.77-2.42-1.44-.68-5.49-2.6-7.16-7-.14-.39-2.43-6.69,1.43-10.91,2.92-3.18,7.32-3,8.45-2.93a13.38,13.38,0,0,1,5.82,1.77,16.7,16.7,0,0,1,3.54,2.4c.1,1.08.24,2.2.41,3.34a14.3,14.3,0,0,0-1.49-1.38A13.91,13.91,0,0,0,93.93,212a9.9,9.9,0,0,0-6.08.21,6.54,6.54,0,0,0-3.36,2.58,6.91,6.91,0,0,0-.65,5,10.41,10.41,0,0,0,4.17,6.6,23.24,23.24,0,0,0,11.77,2.55,13,13,0,0,1,4.84.4A46.74,46.74,0,0,0,107.67,235.43Z" transform="translate(-79.66 -133.49)"/><path class="cls-3" d="M158.38,200.87c20.69,3.17,35.94,7,35.66,9.1-.32,2.46-6.75,51.56-53.36,45.45-17.31-2.27-27.3-10.46-33-20a4.72,4.72,0,0,0,.52-1.41,4,4,0,0,0-.6-3.1,4,4,0,0,0-1.86-1.25,11.24,11.24,0,0,0-1.11-.38,56.26,56.26,0,0,1-3.51-13.16c2.53,2.7,3.3,5.5,3.68,5.35s0-2.77-1.34-5.22a12.66,12.66,0,0,0-2.75-3.47,69.16,69.16,0,0,1,.13-15c.23-1.68,10.12-1.87,24.55-.75l-2.09,15.61a2,2,0,0,0,4,.53l2.12-15.82c5.73.51,12,1.21,18.64,2.07,2.17.28,4.3.58,6.39.88l-3.12,23.34a2,2,0,0,0,4,.53Z" transform="translate(-79.66 -133.49)"/><path class="cls-3" d="M103.45,216.26c1.33,2.45,1.7,5.07,1.34,5.22s-1.15-2.65-3.68-5.35c-.17-1.14-.31-2.26-.41-3.34A12.66,12.66,0,0,1,103.45,216.26Z" transform="translate(-79.66 -133.49)"/><path class="cls-3" d="M107.59,230.92a4,4,0,0,1,.6,3.1,4.72,4.72,0,0,1-.52,1.41,46.74,46.74,0,0,1-3-6.14,11.24,11.24,0,0,1,1.11.38A4,4,0,0,1,107.59,230.92Z" transform="translate(-79.66 -133.49)"/><path class="cls-4" d="M158.38,200.87l-3.12,23.28a2,2,0,0,1-4-.53l3.12-23.34Z" transform="translate(-79.66 -133.49)"/><path class="cls-4" d="M129.38,197.33l-2.12,15.82a2,2,0,0,1-4-.53L125.38,197C126.68,197.1,128,197.21,129.38,197.33Z" transform="translate(-79.66 -133.49)"/><path class="cls-5" d="M104.62,229.29a13,13,0,0,0-4.84-.4A23.24,23.24,0,0,1,88,226.34a10.41,10.41,0,0,1-4.17-6.6,6.91,6.91,0,0,1,.65-5,6.54,6.54,0,0,1,3.36-2.58,9.9,9.9,0,0,1,6.08-.21,13.91,13.91,0,0,1,5.69,2.76,14.3,14.3,0,0,1,1.49,1.38" transform="translate(-79.66 -133.49)"/><path class="cls-5" d="M100.7,212.79a16.7,16.7,0,0,0-3.54-2.4,13.38,13.38,0,0,0-5.82-1.77c-1.13-.05-5.53-.25-8.45,2.93-3.86,4.22-1.57,10.52-1.43,10.91,1.67,4.38,5.72,6.3,7.16,7,2.78,1.34,7.84,2.69,10.77,2.42.08,0,4.1-.47,4.83,1.64a2.07,2.07,0,0,1-.26,2c-.72.8-2,.38-2.11.73s1.32,1.5,2.84,1.38a4,4,0,0,0,3-2.17" transform="translate(-79.66 -133.49)"/><path class="cls-5" d="M125.38,197c-14.43-1.12-24.32-.93-24.55.75a69.16,69.16,0,0,0-.13,15c.1,1.08.24,2.2.41,3.34a56.26,56.26,0,0,0,3.51,13.16,46.74,46.74,0,0,0,3,6.14c5.71,9.53,15.7,17.72,33,20,46.61,6.11,53-43,53.36-45.45.28-2.13-15-5.93-35.66-9.1l-4-.59c-2.09-.3-4.22-.6-6.39-.88-6.61-.86-12.91-1.56-18.64-2.07C128,197.21,126.68,197.1,125.38,197Z" transform="translate(-79.66 -133.49)"/><path class="cls-6" d="M172,207c7,0,12,1,17,4,0,8-4.21,18.9-11,25-16.43,14.77-45.29,14.16-60,2-4.16-3.44-9.83-10-9-11,.62-.76,4.76,1.77,7,3,12.46,6.85,35.14,11.46,45,3C169.84,225.42,169,216,172,207Z" transform="translate(-79.66 -133.49)"/><path class="cls-2" d="M179,292.83l-45.92,3c-1.37.09-2.32-.68-1.75-1.43l7.51-9.89a2.25,2.25,0,0,1,1.61-.7l29.65-2a2.25,2.25,0,0,1,1.69.48l8.75,8.82C181.23,291.85,180.39,292.74,179,292.83Z" transform="translate(-79.66 -133.49)"/><path class="cls-4" d="M141.08,253.77a2,2,0,0,1-4,.36l-1.93-21.24,4-.39Z" transform="translate(-79.66 -133.49)"/><path class="cls-4" d="M159.42,260.59a2,2,0,0,1-1.81,2.17l-1.71.16a2,2,0,0,1-2.17-1.81L151,231.55l.87-.06c1.63-.11,3.25-.21,4.84-.29Z" transform="translate(-79.66 -133.49)"/><path class="cls-4" d="M188.5,242.91a2,2,0,1,1-4,.16L184,230.58c1.42,0,2.76.08,4,.14Z" transform="translate(-79.66 -133.49)"/><path class="cls-3" d="M119.59,273.22a5,5,0,0,1-.23,1.46,43.25,43.25,0,0,1-4.18-5.41c.37,0,.75.08,1.15.15a3.88,3.88,0,0,1,2.06.87A4,4,0,0,1,119.59,273.22Z" transform="translate(-79.66 -133.49)"/><path class="cls-3" d="M111.48,256.71c1.78,2.15,2.65,4.65,2.33,4.86s-1.64-2.37-4.65-4.53c-.4-1.09-.75-2.15-1.06-3.19A12.84,12.84,0,0,1,111.48,256.71Z" transform="translate(-79.66 -133.49)"/><path class="cls-3" d="M119.36,274.68a3.93,3.93,0,0,1-2.5,2.72c-1.48.42-3.08-.4-3.06-.79s1.38-.21,1.93-1.13a2.07,2.07,0,0,0-.13-2c-1.13-1.93-5-.69-5.06-.67-2.83.83-8,.5-11-.27-1.54-.39-5.88-1.48-8.38-5.46-.22-.35-3.69-6.08-.72-11,2.23-3.69,6.59-4.35,7.71-4.52a13.29,13.29,0,0,1,6.06.6,16,16,0,0,1,3.93,1.66c.31,1,.66,2.1,1.06,3.19a15,15,0,0,0-1.73-1.06,14,14,0,0,0-6.12-1.6,9.84,9.84,0,0,0-5.92,1.4,6.55,6.55,0,0,0-2.8,3.19,6.9,6.9,0,0,0,.33,5,10.39,10.39,0,0,0,5.39,5.65,23.1,23.1,0,0,0,12,.21,12.74,12.74,0,0,1,4.83-.55A43.25,43.25,0,0,0,119.36,274.68Z" transform="translate(-79.66 -133.49)"/><path class="cls-3" d="M199.1,232.88c.16,2.48,3.43,51.88-43.46,55-17.42,1.15-28.82-4.94-36.28-13.19a5,5,0,0,0,.23-1.46,4,4,0,0,0-1.2-2.93,3.88,3.88,0,0,0-2.06-.87c-.4-.07-.78-.12-1.15-.15a55.82,55.82,0,0,1-6-12.23c3,2.16,4.31,4.76,4.65,4.53s-.55-2.71-2.33-4.86a12.84,12.84,0,0,0-3.38-2.86,69.54,69.54,0,0,1-2.8-14.77c-.12-1.91,12.28-4.38,29.86-6.19l1.93,21.24a2,2,0,0,0,4-.36l-1.93-21.27c3.78-.35,7.77-.67,11.89-.95l2.69,29.56a2,2,0,0,0,2.17,1.81l1.71-.16a2,2,0,0,0,1.81-2.17l-2.67-29.39c10.46-.59,19.92-.79,27.23-.62l.52,12.49a2,2,0,1,0,4-.16L188,230.72C194.86,231.05,199,231.79,199.1,232.88Z" transform="translate(-79.66 -133.49)"/><path class="cls-5" d="M115.18,269.27a12.74,12.74,0,0,0-4.83.55,23.1,23.1,0,0,1-12-.21A10.39,10.39,0,0,1,92.92,264a6.9,6.9,0,0,1-.33-5,6.55,6.55,0,0,1,2.8-3.19,9.84,9.84,0,0,1,5.92-1.4,14,14,0,0,1,6.12,1.6,15,15,0,0,1,1.73,1.06" transform="translate(-79.66 -133.49)"/><path class="cls-5" d="M108.1,253.85a16,16,0,0,0-3.93-1.66,13.29,13.29,0,0,0-6.06-.6c-1.12.17-5.48.83-7.71,4.52-3,4.89.5,10.62.72,11,2.5,4,6.84,5.07,8.38,5.46,3,.77,8.21,1.1,11,.27.08,0,3.93-1.26,5.06.67a2.07,2.07,0,0,1,.13,2c-.55.92-1.91.77-1.93,1.13s1.58,1.21,3.06.79a3.93,3.93,0,0,0,2.5-2.72" transform="translate(-79.66 -133.49)"/><path class="cls-5" d="M135.16,232.89c-17.58,1.81-30,4.28-29.86,6.19a69.54,69.54,0,0,0,2.8,14.77c.31,1,.66,2.1,1.06,3.19a55.82,55.82,0,0,0,6,12.23,43.25,43.25,0,0,0,4.18,5.41c7.46,8.25,18.86,14.34,36.28,13.19,46.89-3.11,43.62-52.51,43.46-55-.07-1.09-4.24-1.83-11.11-2.16-1.25-.06-2.59-.11-4-.14-7.31-.17-16.77,0-27.23.62-1.59.08-3.21.18-4.84.29l-.87.06c-4.12.28-8.11.6-11.89.95Z" transform="translate(-79.66 -133.49)"/><path class="cls-6" d="M109,242c0,7,5.64,20.49,9,25a43,43,0,0,0,8,8c16.06,11.6,52.72-7.71,52-10-.47-1.51-16.81,5.46-35-1-6.82-2.42-9.21-5.06-10-6-6-7.17-6-11-7-19C120,239,113,240,109,242Z" transform="translate(-79.66 -133.49)"/><path class="cls-2" d="M165.07,320.93l41.09-20.72c1.23-.62,1.65-1.76.78-2.12l-11.5-4.7a2.25,2.25,0,0,0-1.74.22L167.17,307a2.25,2.25,0,0,0-1.21,1.27l-3.06,12C162.67,321.2,163.84,321.54,165.07,320.93Z" transform="translate(-79.66 -133.49)"/><path class="cls-3" d="M222.74,244.26c5,2.7,5,9.41,4.95,9.82-.12,4.69-3.31,7.83-4.44,9-2.19,2.18-6.51,5.12-9.37,5.84-.08,0-4,.91-4,3.15a2.07,2.07,0,0,0,.9,1.78c1,.52,2-.3,2.24,0s-.75,1.85-2.23,2.24a3.93,3.93,0,0,1-3.53-1.07,44.5,44.5,0,0,0,.85-6.8,13.33,13.33,0,0,1,4.44-2,23.15,23.15,0,0,0,10.26-6.29,10.4,10.4,0,0,0,1.77-7.61,6.91,6.91,0,0,0-2.25-4.46,6.6,6.6,0,0,0-4-1.33,9.85,9.85,0,0,0-5.81,1.81A13.85,13.85,0,0,0,208,252.8a14.27,14.27,0,0,0-.95,1.8c-.21-1.14-.46-2.23-.71-3.29a16.43,16.43,0,0,1,2.54-3.43,13.33,13.33,0,0,1,4.91-3.59C214.85,243.86,218.94,242.22,222.74,244.26Z" transform="translate(-79.66 -133.49)"/><path class="cls-3" d="M207.06,254.6a56.55,56.55,0,0,1,1,13.58c-.3.22-.61.46-.92.73a3.91,3.91,0,0,0-1.34,1.79,4,4,0,0,0,.46,3.13,4.7,4.7,0,0,0,1,1.15c-2.24,10.88-9,21.92-24.55,29.78-42,21.16-64.26-23.05-65.38-25.27-1-2,13.62-11.48,33.64-21.95L161.16,277a3,3,0,1,0,5.31-2.79L156.29,254.8l1-.49q2.16-1.09,4.28-2.13l4.62,8.78a3,3,0,1,0,5.31-2.79l-4.52-8.6c2.57-1.23,5.06-2.39,7.45-3.47L181.16,259a3,3,0,1,0,5.31-2.79l-6.57-12.5c12.15-5.24,20.63-7.93,21.35-6.5a68.81,68.81,0,0,1,5.1,14.14,12.76,12.76,0,0,0-1.46,4.19c-.44,2.75.08,5.34.46,5.36S205.57,258,207.06,254.6Z" transform="translate(-79.66 -133.49)"/><path class="cls-3" d="M207.17,268.91c.31-.27.62-.51.92-.73a44.5,44.5,0,0,1-.85,6.8,4.7,4.7,0,0,1-1-1.15,4,4,0,0,1-.46-3.13A3.91,3.91,0,0,1,207.17,268.91Z" transform="translate(-79.66 -133.49)"/><path class="cls-3" d="M206.35,251.31c.25,1.06.5,2.15.71,3.29-1.49,3.37-1.3,6.26-1.71,6.26s-.9-2.61-.46-5.36A12.76,12.76,0,0,1,206.35,251.31Z" transform="translate(-79.66 -133.49)"/><path class="cls-4" d="M186.47,256.17a3,3,0,1,1-5.31,2.79L174.4,246.1q2.86-1.29,5.5-2.43Z" transform="translate(-79.66 -133.49)"/><path class="cls-4" d="M171.47,258.17a3,3,0,1,1-5.31,2.79l-4.62-8.78c1.83-.9,3.64-1.78,5.41-2.61Z" transform="translate(-79.66 -133.49)"/><path class="cls-4" d="M166.47,274.17a3,3,0,1,1-5.31,2.79L151,257.54c1.74-.9,3.52-1.82,5.34-2.74Z" transform="translate(-79.66 -133.49)"/><path class="cls-5" d="M208.09,268.18a13.33,13.33,0,0,1,4.44-2,23.15,23.15,0,0,0,10.26-6.29,10.4,10.4,0,0,0,1.77-7.61,6.91,6.91,0,0,0-2.25-4.46,6.6,6.6,0,0,0-4-1.33,9.85,9.85,0,0,0-5.81,1.81A13.85,13.85,0,0,0,208,252.8a14.27,14.27,0,0,0-.95,1.8" transform="translate(-79.66 -133.49)"/><path class="cls-5" d="M206.35,251.31a16.43,16.43,0,0,1,2.54-3.43,13.33,13.33,0,0,1,4.91-3.59c1-.43,5.14-2.07,8.94,0,5,2.7,5,9.41,4.95,9.82-.12,4.69-3.31,7.83-4.44,9-2.19,2.18-6.51,5.12-9.37,5.84-.08,0-4,.91-4,3.15a2.07,2.07,0,0,0,.9,1.78c1,.52,2-.3,2.24,0s-.75,1.85-2.23,2.24a3.93,3.93,0,0,1-3.53-1.07" transform="translate(-79.66 -133.49)"/><path class="cls-5" d="M179.9,243.67c12.15-5.24,20.63-7.93,21.35-6.5a68.81,68.81,0,0,1,5.1,14.14c.25,1.06.5,2.15.71,3.29a56.55,56.55,0,0,1,1,13.58,44.5,44.5,0,0,1-.85,6.8c-2.24,10.88-9,21.92-24.55,29.78-42,21.16-64.26-23.05-65.38-25.27-1-2,13.62-11.48,33.64-21.95,1.74-.9,3.52-1.82,5.34-2.74l1-.49q2.16-1.09,4.28-2.13c1.83-.9,3.64-1.78,5.41-2.61,2.57-1.23,5.06-2.39,7.45-3.47Q177.27,244.81,179.9,243.67Z" transform="translate(-79.66 -133.49)"/><path class="cls-6" d="M125,278c.39-1.29,1.55-.66,8-5,2.61-1.76,9.07-6,10-6,2,2,7.29,7.87,13,12a33.62,33.62,0,0,0,17,6,32.33,32.33,0,0,0,15-3c3.79-1.65,8.9-3.88,12-9s2.44-10,3-10,1.66,6.24,0,13a31.65,31.65,0,0,1-6,12,36.52,36.52,0,0,1-12,10c-12,5.94-24.65,1.76-33-1C137.6,292.24,123.63,282.56,125,278Z" transform="translate(-79.66 -133.49)"/><path class="cls-2" d="M117.37,338.76l43.81,14.09c1.31.42,2.41-.1,2-1l-4.89-11.42a2.25,2.25,0,0,0-1.39-1.07l-28.29-9.1a2.25,2.25,0,0,0-1.75.05l-10.63,6.43C115.47,337.27,116.06,338.34,117.37,338.76Z" transform="translate(-79.66 -133.49)"/><path class="cls-3" d="M212.26,324.64c1.69,5.47-3.07,10.19-3.37,10.47-3.38,3.26-7.86,3.26-9.45,3.27-3.09,0-8.23-.93-10.78-2.42-.06,0-3.5-2.18-5.06-.58a2.07,2.07,0,0,0-.62,1.9c.31,1,1.67,1.22,1.6,1.57s-1.83.79-3.16,0a3.91,3.91,0,0,1-1.75-3.25A45,45,0,0,0,185,331.4a13.06,13.06,0,0,1,4.55,1.7,23.1,23.1,0,0,0,11.73,2.73,10.44,10.44,0,0,0,6.6-4.18,7,7,0,0,0,1.53-4.76,6.6,6.6,0,0,0-1.94-3.78,9.85,9.85,0,0,0-5.4-2.79,13.86,13.86,0,0,0-6.33.07,14.56,14.56,0,0,0-1.93.61c.64-1,1.24-1.91,1.8-2.84a16.38,16.38,0,0,1,4.21-.66,13.33,13.33,0,0,1,6,.88C206.92,318.82,211,320.52,212.26,324.64Z" transform="translate(-79.66 -133.49)"/><path class="cls-3" d="M164.83,287.89c21.65,7.29,37.79,14.46,37.1,16.62a69.34,69.34,0,0,1-6.29,13.65,12.87,12.87,0,0,0-4,2c-2.25,1.65-3.7,3.86-3.44,4.14s2.17-1.91,5.62-3.26A56.62,56.62,0,0,1,185,331.4c-.37-.06-.75-.1-1.16-.13a4,4,0,0,0-2.21.33,4,4,0,0,0-1.87,2.55,4.52,4.52,0,0,0-.12,1.48c-9.24,6.19-21.78,9.34-38.41,4-44.74-14.4-29.57-61.53-28.81-63.9.51-1.59,10-.07,23.67,3.51l-7.85,23.56a2.5,2.5,0,1,0,4.74,1.58L141,280.54c5.45,1.51,11.41,3.29,17.62,5.29l1.52.49-6.91,20.75a2.5,2.5,0,0,0,4.74,1.58Z" transform="translate(-79.66 -133.49)"/><path class="cls-3" d="M195.64,318.16c-.56.93-1.16,1.88-1.8,2.84-3.45,1.35-5.34,3.57-5.62,3.26s1.19-2.49,3.44-4.14A12.87,12.87,0,0,1,195.64,318.16Z" transform="translate(-79.66 -133.49)"/><path class="cls-3" d="M183.87,331.27c.41,0,.79.07,1.16.13a45,45,0,0,1-5.36,4.23,4.52,4.52,0,0,1,.12-1.48,4,4,0,0,1,1.87-2.55A4,4,0,0,1,183.87,331.27Z" transform="translate(-79.66 -133.49)"/><path class="cls-4" d="M164.83,287.89l-6.91,20.76a2.5,2.5,0,0,1-4.74-1.58l6.91-20.75C161.7,286.84,163.28,287.37,164.83,287.89Z" transform="translate(-79.66 -133.49)"/><path class="cls-4" d="M141,280.54,133,304.37a2.5,2.5,0,1,1-4.74-1.58l7.85-23.56Q138.46,279.84,141,280.54Z" transform="translate(-79.66 -133.49)"/><path class="cls-5" d="M185,331.4a13.06,13.06,0,0,1,4.55,1.7,23.1,23.1,0,0,0,11.73,2.73,10.44,10.44,0,0,0,6.6-4.18,7,7,0,0,0,1.53-4.76,6.6,6.6,0,0,0-1.94-3.78,9.85,9.85,0,0,0-5.4-2.79,13.86,13.86,0,0,0-6.33.07,14.56,14.56,0,0,0-1.93.61" transform="translate(-79.66 -133.49)"/><path class="cls-5" d="M195.64,318.16a16.38,16.38,0,0,1,4.21-.66,13.33,13.33,0,0,1,6,.88c1,.44,5.12,2.14,6.39,6.26,1.69,5.47-3.07,10.19-3.37,10.47-3.38,3.26-7.86,3.26-9.45,3.27-3.09,0-8.23-.93-10.78-2.42-.06,0-3.5-2.18-5.06-.58a2.07,2.07,0,0,0-.62,1.9c.31,1,1.67,1.22,1.6,1.57s-1.83.79-3.16,0a3.91,3.91,0,0,1-1.75-3.25" transform="translate(-79.66 -133.49)"/><path class="cls-5" d="M164.83,287.89c21.65,7.29,37.79,14.46,37.1,16.62a69.34,69.34,0,0,1-6.29,13.65c-.56.93-1.16,1.88-1.8,2.84A56.62,56.62,0,0,1,185,331.4a45,45,0,0,1-5.36,4.23c-9.24,6.19-21.78,9.34-38.41,4-44.74-14.4-29.57-61.53-28.81-63.9.51-1.59,10-.07,23.67,3.51q2.34.61,4.83,1.31c5.45,1.51,11.41,3.29,17.62,5.29l1.52.49C161.7,286.84,163.28,287.37,164.83,287.89Z" transform="translate(-79.66 -133.49)"/><path class="cls-6" d="M115,302c-.62.22.15,5.12,2,10a40.77,40.77,0,0,0,8,13,43.33,43.33,0,0,0,12,9,42.06,42.06,0,0,0,13,5,35,35,0,0,0,18-1,38.08,38.08,0,0,0,12-7,50.32,50.32,0,0,0,8-8c5.47-6.84,8-11,8-16-2-4-12-8-19-10-2,3-2.56,4.67-7,11a35.45,35.45,0,0,1-10,10c-11.83,7.34-25.74,2.46-27,2a27.74,27.74,0,0,1-10-6C117.22,308.47,115.73,301.75,115,302Z" transform="translate(-79.66 -133.49)"/><path class="cls-2" d="M125.49,398h46c1.37,0,2.27-.83,1.65-1.54L165,387.09a2.25,2.25,0,0,0-1.65-.59H133.64a2.25,2.25,0,0,0-1.65.59l-8.15,9.37C123.22,397.17,124.12,398,125.49,398Z" transform="translate(-79.66 -133.49)"/><path class="cls-2" d="M190.5,357.5a14.47,14.47,0,0,1,7-5,13.29,13.29,0,0,1,6-1c1.13.1,5.52.47,8,4,3.28,4.68.2,10.64,0,11-2.23,4.13-6.48,5.5-8,6-2.94,1-8.12,1.64-11,1-.07,0-4-1-5,1a2.05,2.05,0,0,0,0,2c.61.89,2,.64,2,1s-1.5,1.32-3,1c-1.75-.37-2.9-2.31-3-4a4,4,0,0,1,1-3,3.9,3.9,0,0,1,2-1,12.49,12.49,0,0,1,6,0,23.16,23.16,0,0,0,12-1,10.39,10.39,0,0,0,5-6,6.94,6.94,0,0,0,0-5,6.59,6.59,0,0,0-3-3,9.88,9.88,0,0,0-6-1,13.92,13.92,0,0,0-6,2c-4.1,2.5-5.58,6.24-6,6S188.87,359.76,190.5,357.5Z" transform="translate(-79.66 -133.49)"/><path class="cls-3" d="M195.5,339.5c0,2.49,0,52-47,52s-47-49.51-47-52c0-1.46,7.26-2.76,18.5-3.58V357a2,2,0,0,0,4,0V335.66c4.83-.29,10.23-.49,16-.59V365a2,2,0,0,0,4,0V335l4.5,0q3.31,0,6.5,0v20a2,2,0,0,0,4,0v-9a2,2,0,0,0,4,0V335.22C181.86,335.8,195.5,337.5,195.5,339.5Z" transform="translate(-79.66 -133.49)"/><path class="cls-4" d="M163,335.22V346a2,2,0,0,1-4,0V335.11Z" transform="translate(-79.66 -133.49)"/><path class="cls-4" d="M159,346v9a2,2,0,0,1-4,0V335l4,.07Z" transform="translate(-79.66 -133.49)"/><path class="cls-4" d="M144,335v30a2,2,0,0,1-4,0V335.07Z" transform="translate(-79.66 -133.49)"/><path class="cls-4" d="M124,335.66V357a2,2,0,0,1-4,0V335.92Z" transform="translate(-79.66 -133.49)"/><path class="cls-5" d="M163,335.22c18.86.58,32.5,2.28,32.5,4.28,0,2.49,0,52-47,52s-47-49.51-47-52c0-1.46,7.26-2.76,18.5-3.58l4-.26c4.83-.29,10.23-.49,16-.59l4-.05,4.5,0q3.31,0,6.5,0l4,.07Z" transform="translate(-79.66 -133.49)"/><path class="cls-6" d="M111,361c-.82.59,2.07,6,4,9a39,39,0,0,0,8,9,40.26,40.26,0,0,0,10,6,42.79,42.79,0,0,0,20,3,38.17,38.17,0,0,0,29-16c9.74-13.37,9.65-29.87,9-30-.35-.07-.64,4.78-4,12-2.26,4.86-6.17,13.24-15,19-8.11,5.29-16.27,5.68-23,6-5.46.26-11.37.54-18-2C118.1,372.05,112.2,360.13,111,361Z" transform="translate(-79.66 -133.49)"/><path class="cls-6" d="M148,394a15.39,15.39,0,0,0,8,0c4.19-1.2,9-3,9-3,.39.2.27.26,2,2,2.54,2.55,3,2.65,3,3H146C145.9,395.34,146.88,394.62,148,394Z" transform="translate(-79.66 -133.49)"/><path class="cls-1" d="M262,248c-4.09-8.7,7.05-31,26-31,20,0,24.68,18.58,25,28C316,334,267.64,260,262,248Z" transform="translate(-79.66 -133.49)"/><path class="cls-1" d="M317,296c.6-3.18,1.74-9.27,7-14,1.69-1.52,6.18-5.55,12-5,7.33.7,11.44,8.16,13,11a29,29,0,0,1,3,18c-1.16,8.06-4.67,10.1-12,23-3.6,6.34-8,14.15-11,24-4.66,15.51-2.9,27-4,27s-4.06-11.77-2-25a60.45,60.45,0,0,1,9-24c3.28-5,5.33-6.34,10-14,4.94-8.1,5.71-11.63,6-14a24.11,24.11,0,0,0-2-13c-1.23-2.63-3-6.42-7-8a11.47,11.47,0,0,0-8,0c-11.08,4.2-10.74,28.17-13,28C316.77,309.91,315.74,302.7,317,296Z" transform="translate(-79.66 -133.49)"/><path class="cls-1" d="M246.85,243.26l10.91,25.18a2.24,2.24,0,0,1,.17,1.17l-16.6,128.87a2.24,2.24,0,0,0,2.22,2.52h84a2.24,2.24,0,0,0,2.23-2.41l-10.69-138a2.24,2.24,0,0,0-1.65-2l-68-18.38A2.24,2.24,0,0,0,246.85,243.26Z" transform="translate(-79.66 -133.49)"/><path class="cls-6" d="M306.75,260.11l4.58,1.36a2.72,2.72,0,0,1,1.94,2.41l9.51,129.2a2.72,2.72,0,0,1-2.72,2.92h-70a2.72,2.72,0,0,1-2.7-3.08l1.27-9.55a2.72,2.72,0,0,1,2.7-2.36h56.71a2.72,2.72,0,0,0,2.72-2.9l-7.55-115.2A2.72,2.72,0,0,1,306.75,260.11Z" transform="translate(-79.66 -133.49)"/><path class="cls-7" d="M294.88,257.82l2.66.76a2.16,2.16,0,0,1,1.56,1.93l7.74,114.18a2.16,2.16,0,0,1-2.16,2.31h-5.62a2.16,2.16,0,0,1-2.16-2.07L292.12,260A2.16,2.16,0,0,1,294.88,257.82Z" transform="translate(-79.66 -133.49)"/><path class="cls-6" d="M285,220a17.08,17.08,0,0,1,10,4,18.44,18.44,0,0,1,5,8c1.32,3.49,3.5,11.65,2,17a3,3,0,0,0,0,2c.87,2,5,3.1,7,2,1-6,2-17-4-26S285,220,285,220Z" transform="translate(-79.66 -133.49)"/><path class="cls-7" d="M266,241a21.89,21.89,0,0,1,3-9c1-1.39,3.39-5.73,8-8a19.8,19.8,0,0,1,11-1c5.33.87,9.28,4.4,9,5s-5.54-3.24-12-3a13.92,13.92,0,0,0-10,5c-3.31,4.34-3,8-3,12A4.83,4.83,0,0,1,266,241Z" transform="translate(-79.66 -133.49)"/><path class="cls-7" d="M284,200c1.42-1.3,4.68-1,5-1,1.59.15,3,.72,3,1s-2.57-.31-4,1c-1,.93-1,2.45-1,4,.17,6.25,1.28,9.89,1,10C287.46,215.2,280.63,203.08,284,200Z" transform="translate(-79.66 -133.49)"/><path class="cls-6" d="M250.59,246.35l9.13,21a.63.63,0,0,0,.9.29l18.25-11a.63.63,0,0,0-.11-1.13l-27.38-10A.63.63,0,0,0,250.59,246.35Z" transform="translate(-79.66 -133.49)"/></svg>