<svg id="Слой_1" data-name="Слой 1" xmlns="http://www.w3.org/2000/svg" viewBox="0 0 169.89 75"><defs><style>.cls-1,.cls-2{fill:#eae6d6;}.cls-1,.cls-4,.cls-6,.cls-7,.cls-8,.cls-9{stroke:#000;stroke-width:2px;}.cls-1{stroke-miterlimit:10;}.cls-3{fill:#4c3815;}.cls-4{fill:none;}.cls-4,.cls-6,.cls-7,.cls-8,.cls-9{stroke-linecap:round;stroke-linejoin:round;}.cls-5{opacity:0.2;}.cls-6{fill:#8594aa;}.cls-7{fill:#e2d9cc;}.cls-8{fill:#b7cbea;}.cls-9{fill:#94a6bf;}</style></defs><title>kit3</title><path class="cls-1" d="M313.5,236.5a14.69,14.69,0,0,1,5-5,13.12,13.12,0,0,1,9-2c1.19.2,5.57,1.1,8,5,3.15,5,.46,11,0,12-1.29,2.84-2.9,4-11,10-11,8.15-12.65,9.37-13,9-.55-.58,10.51-10.51,15-14,3.38-2.63,5.81-4.57,7-8,.44-1.27,1.46-4.21,0-7-1.61-3.08-5.11-3.81-6-4a11,11,0,0,0-7,1c-6.39,3-8.22,10.33-9,10C311,243.27,311.64,239.58,313.5,236.5Z" transform="translate(-171.61 -220)"/><path class="cls-2" d="M315,221v55H265V221h6.5v20a1.5,1.5,0,0,0,3,0V221h8v28a1.5,1.5,0,0,0,3,0V226.24a4.38,4.38,0,0,0,1.5.26h3a4.47,4.47,0,0,0,2.5-.76V244a1.5,1.5,0,0,0,3,0V221Z" transform="translate(-171.61 -220)"/><path class="cls-3" d="M295.5,221v23a1.5,1.5,0,0,1-3,0V225.74a4.6,4.6,0,0,0,.68-.56A4.47,4.47,0,0,0,294.5,222a4.15,4.15,0,0,0-.12-1Z" transform="translate(-171.61 -220)"/><path class="cls-3" d="M294.38,221a4.15,4.15,0,0,1,.12,1,4.47,4.47,0,0,1-1.32,3.18,4.6,4.6,0,0,1-.68.56V221Z" transform="translate(-171.61 -220)"/><path class="cls-3" d="M292.5,221v4.74a4.47,4.47,0,0,1-2.5.76h-3a4.38,4.38,0,0,1-1.5-.26V221Z" transform="translate(-171.61 -220)"/><path class="cls-3" d="M285.5,226.24V249a1.5,1.5,0,0,1-3,0V222A4.51,4.51,0,0,0,285.5,226.24Z" transform="translate(-171.61 -220)"/><path class="cls-3" d="M285.5,221v5.24a4.51,4.51,0,0,1-3-4.24,4.15,4.15,0,0,1,.12-1Z" transform="translate(-171.61 -220)"/><path class="cls-3" d="M274.5,221v20a1.5,1.5,0,0,1-3,0V221Z" transform="translate(-171.61 -220)"/><polygon class="cls-4" points="123.89 1 143.39 1 143.39 56 93.39 56 93.39 1 99.89 1 102.89 1 110.89 1 111.01 1 113.89 1 120.89 1 122.77 1 123.89 1"/><rect class="cls-5" x="128.39" y="4" width="11" height="49" rx="2.25" ry="2.25"/><path class="cls-6" d="M290,294l43-9-42-3s-23,7-22,7S290,294,290,294Z" transform="translate(-171.61 -220)"/><path class="cls-7" d="M323.5,269.5c.21,1.37-3.64,2.37-5,7a7.51,7.51,0,0,0,0,5c1.15,2.77,3.85,2.89,4,4l-36,7-1-19Z" transform="translate(-171.61 -220)"/><polygon class="cls-8" points="2.89 49.5 116.89 55.5 168.89 49.5 57.89 41.5 2.89 49.5"/><path class="cls-9" d="M177.5,286.5c-4-3-7-11-3-17l114,6c-1,2-4,12,1.5,18.5Z" transform="translate(-171.61 -220)"/></svg>