<svg id="Слой_1" data-name="Слой 1" xmlns="http://www.w3.org/2000/svg" viewBox="0 0 504 292.04"><defs><style>.cls-1{fill:#efefef;}.cls-1,.cls-2,.cls-3,.cls-4{stroke:#000;stroke-linecap:round;stroke-linejoin:round;}.cls-2{fill:#e0e0e0;}.cls-3{fill:#f7f7f7;}.cls-4{fill:none;}</style></defs><title>paper1</title><path class="cls-1" d="M67.5,320.5a55.85,55.85,0,0,0-12,3c-5.2,1.92-10,3-17,11,41-10,52-9,63,4,22.52-5.38,26.24-13.26,57-20,15.26-3.35,24.92-3.72,25-6,.12-3.47-22-10.38-46-9C109.44,305.11,91.06,317.4,67.5,320.5Z" transform="translate(-4 -87)"/><path class="cls-1" d="M117.5,297.5c-53-4-85,21-113,19,.57,9.57,39,3,52,16,42-14,67-13,81-24C137.14,303.2,126.52,298.18,117.5,297.5Z" transform="translate(-4 -87)"/><path class="cls-1" d="M249.5,322.5c6,7,19,9,24,30,44-20,65-20,92-23-20-8-38-21.93-63-23C285.08,305.76,240.22,311.68,249.5,322.5Z" transform="translate(-4 -87)"/><path class="cls-1" d="M59.5,156.5a81.5,81.5,0,0,0,9,7,91.29,91.29,0,0,0,15,8c4.26,1.89,2.27.73,16,6a114.54,114.54,0,0,0,12,4c2.3.62,4,1,4,1,6.39,1.48,7.53,1.17,9,2,3.89,2.21,3.95,9,4,11,.23,8.69,3.87,58.4,22,89,4,6.71,14,21.49,10,27a14,14,0,0,1-5,4,13.28,13.28,0,0,1-7,1,16.34,16.34,0,0,1-6-2s-2.29-1.17-13-6c-4.52-2-7.92-3.23-13-5a91.52,91.52,0,0,0-10-3c-2.79-.65-4.88-1-5-1C97.06,298.74,85.24,262.83,59.5,156.5Z" transform="translate(-4 -87)"/><path class="cls-2" d="M117.5,183.5c0,7,7,41.13,12,63,2.88,12.51,16,64,21,70,2.61.55,6.75-.89,14-4,11.93-5.11,20-4,23-5,23.54-7.89,30.73-126-1-136-6.28-2-7.28,2.41-34,7C131.15,182.16,121.17,177,117.5,183.5Z" transform="translate(-4 -87)"/><path class="cls-3" d="M59.5,155.5c61,9,60.44-5,101,4,20.6,4.57,46.15,15,40,15s-30,4-83,9C90.57,177.39,61.5,163.5,59.5,155.5Z" transform="translate(-4 -87)"/><path class="cls-2" d="M110.5,88.5c.12-.84,1,.57,6,5a156.18,156.18,0,0,0,33,22c4.87,2.54,12.25,5.36,27,11a29,29,0,0,0,9,2,26.83,26.83,0,0,0,3,0c11.41-.51,28.54,208.93,27,209-2.46.11-26.06-10.62-32-12-2.71-.63-4.6-.93-5-1C149.5,288.5,108.5,102.5,110.5,88.5Z" transform="translate(-4 -87)"/><path class="cls-1" d="M173.5,125.5c6,2,5.64,2,27,4,13.28,1.26,31.52-1.83,72-6,0,0,33.68-3.47,46-8a66.33,66.33,0,0,1,7-2c8-2,8.81-1.34,9-1,.39.7-.77,1.63-2,4a26.14,26.14,0,0,0-2,7c-1.9,11.22-16,173.06-12,188a7,7,0,0,1,0,4c-1.19,3.65-5.74,5.28-8,6-12.92,4.12-38.92,6.6-43,7a297.92,297.92,0,0,0-32,5c-15.76,3.29-16.69,4-20,4C200.5,290.5,180.5,156.5,173.5,125.5Z" transform="translate(-4 -87)"/><path class="cls-3" d="M110.5,87.5a89.61,89.61,0,0,0,27,11,31.88,31.88,0,0,0,11,1c4.47-.46,6.27-1.77,11-2a30.24,30.24,0,0,1,9,1c11.36,2.65,28.91,3.76,35,4a132.35,132.35,0,0,0,34-3c7.23-1.62,12.2-4.41,14-5,22,16,80,12,83,18-17,5-87.79,38.62-161,13C133.53,111.51,121.5,103.5,110.5,87.5Z" transform="translate(-4 -87)"/><path class="cls-1" d="M334.5,263.5c4,0,8.2,0,34,2,1.19.09,9.12.4,25,1,22.35.85,28.49,1,34-2,.85-.46,3.12-1.77,4-1,1.52,1.33-2.3,7.93-4,11-8.94,16.11-9.64,25.2-24,52-1.69,3.15-5.19,9.57-8,9-8-12-26.46-15.08-42-16a93.34,93.34,0,0,0-11,0c.23-.78.63-2.2,1-4C348.87,289.13,339.5,271.5,334.5,263.5Z" transform="translate(-4 -87)"/><path class="cls-2" d="M407.5,281.5c-3.21,6-12.88,52.12-12,54,10,5,16-15,99-18-2-14-9-34,13-61-21-8-61,11-89,10C418.5,266.5,414.5,268.5,407.5,281.5Z" transform="translate(-4 -87)"/><path class="cls-2" d="M334.5,263.5c34-2,76-2,84-13,26,4,88.77,1.29,89,6-42-7-45.07,8.75-89,10C377.63,267.66,342.5,265.5,334.5,263.5Z" transform="translate(-4 -87)"/><path class="cls-3" d="M328.5,256.5c7,4,70,9,84-5,83.38-3.41,89.85-3.22,90-2-39,3-41.48,14.92-86,17C369.11,268.71,338.5,264.5,328.5,256.5Z" transform="translate(-4 -87)"/><path class="cls-3" d="M149.5,299.5c-.55,1.18,3,2.83,7,8,1.85,2.37,7.68,9.82,7,18-.15,1.79-.86,6.63-7,13-15,15.58-39.17,16-39,17,.1.56,8-.44,20-1,9.7-.45,12.54-.17,14,0a52.29,52.29,0,0,1,17,5c5.45,2.71,14.09,7,15,14,.36,2.77-.66,4.69,0,5,1.4.65,7.27-7.36,11-16a64.92,64.92,0,0,0,5-21,81.15,81.15,0,0,0-1-20s-1.29-7.52-9-23c-.44-.88-1.37-2.69-3-3C184.12,295,150.86,296.56,149.5,299.5Z" transform="translate(-4 -87)"/><path class="cls-4" d="M105.5,199.5a61.76,61.76,0,0,0-9-3c-2.91-.72-7.64-1.16-17-2-3.64-.33-4.87-.41-5,0-.39,1.21,9.16,5.23,11,6a109.74,109.74,0,0,0,18,6,114.77,114.77,0,0,0,21,3" transform="translate(-4 -87)"/><path class="cls-4" d="M65.5,197.5c3.44,1.56,8.22,3.67,14,6,6.11,2.47,11.7,4.72,19,7a181.46,181.46,0,0,0,20,5" transform="translate(-4 -87)"/><path class="cls-4" d="M71.5,217.5c2.54,1.38,5.93,3.14,10,5,7.64,3.5,14.24,6.47,23,8a67.12,67.12,0,0,0,11,1" transform="translate(-4 -87)"/><path class="cls-4" d="M84.5,238.5a80.57,80.57,0,0,0,10,9c5.92,4.49,10.93,7,17,10a171.49,171.49,0,0,0,19,8" transform="translate(-4 -87)"/><path class="cls-4" d="M81.5,225.5c4,1.73,7.4,3,10,4a139.79,139.79,0,0,0,16,5c4.08,1,7.53,1.61,10,2" transform="translate(-4 -87)"/><path class="cls-4" d="M80.5,231.5a57.8,57.8,0,0,0,6,6,61.85,61.85,0,0,0,14,9,73.79,73.79,0,0,0,10,4" transform="translate(-4 -87)"/><path class="cls-4" d="M92.5,259.5a69,69,0,0,0,9,6,74.77,74.77,0,0,0,23,8,78,78,0,0,0,8,1" transform="translate(-4 -87)"/><path class="cls-4" d="M98.5,270.5a104.79,104.79,0,0,0,15,5c3.54.89,6.89,1.53,10,2" transform="translate(-4 -87)"/><path class="cls-4" d="M114.5,280.5a78.5,78.5,0,0,0,21,3" transform="translate(-4 -87)"/><path class="cls-4" d="M175.5,158.5c9,1.2,20.15,2.37,33,3a385.14,385.14,0,0,0,39,0c17.51-.95,33.21-1.8,53-7,12.23-3.22,21.61-6.94,22-6s-9.87,6.31-18,10a212.47,212.47,0,0,1-38,13c-37.08,9.13-59.13,10.57-59,13,.1,1.89,13.57,2.61,21,3s22.21.79,44-2a321.54,321.54,0,0,0,33-6" transform="translate(-4 -87)"/><path class="cls-4" d="M216.5,192.5c6.62.73,15.11,1.5,25,2,15.48.78,26.26.47,43,0,13.75-.39,19.46-.89,26-2a140.47,140.47,0,0,0,17-4" transform="translate(-4 -87)"/><path class="cls-4" d="M224.5,209.5a317.64,317.64,0,0,0,35,3c9.57.28,18.77.52,31-1,2.77-.35,9-1.19,17-3a179.71,179.71,0,0,0,26-8" transform="translate(-4 -87)"/><path class="cls-4" d="M244.5,219.5c8.28.34,15.4.23,21,0a168.49,168.49,0,0,0,22-2c5.73-.94,10.5-2.07,14-3" transform="translate(-4 -87)"/><path class="cls-4" d="M235.5,230.5a148.6,148.6,0,0,0,18-1,152.11,152.11,0,0,0,21-4c4-1.07,7.45-2.14,10-3" transform="translate(-4 -87)"/><path class="cls-4" d="M228.5,258.5c5.84.34,14.09.74,24,1,11.91.31,18,.45,26,0a202.13,202.13,0,0,0,25-3" transform="translate(-4 -87)"/><path class="cls-4" d="M236.5,262.5c7.51.69,13.67.92,18,1s6.76,0,21,0h7" transform="translate(-4 -87)"/><path class="cls-4" d="M241.5,271.5a119.52,119.52,0,0,0,15,3c6.88.92,11.87,1,30,1h18" transform="translate(-4 -87)"/><path class="cls-4" d="M226.5,286.5c9.1.42,16.9.28,23,0a230.72,230.72,0,0,0,34-4c3.75-.75,6.85-1.47,9-2" transform="translate(-4 -87)"/><path class="cls-4" d="M230.5,298.5a162.77,162.77,0,0,0,73-11" transform="translate(-4 -87)"/><path class="cls-4" d="M202.5,300.5a150.06,150.06,0,0,0,20,4,145.77,145.77,0,0,0,28,1,137.36,137.36,0,0,0,32-6" transform="translate(-4 -87)"/><path class="cls-4" d="M108.5,101.5a82.71,82.71,0,0,0,8,13c7.66,10.2,15.78,16.06,24,22,6.73,4.86,11.09,8,18,11,6.5,2.81,12.17,4.14,12,5-.21,1.06-9.16.09-10,0a77.72,77.72,0,0,1-11-2" transform="translate(-4 -87)"/><path class="cls-4" d="M128.5,145.5a44.56,44.56,0,0,0,11,8c10.09,5.17,19.69,5.1,25,5a62.16,62.16,0,0,0,10-1" transform="translate(-4 -87)"/><path class="cls-4" d="M130.5,166.5a44.77,44.77,0,0,0,15,7,46.3,46.3,0,0,0,17,1,47.15,47.15,0,0,0,16-5" transform="translate(-4 -87)"/><path class="cls-4" d="M136.5,185.5c6.54,2.08,12.29,3.73,17,5,7.35,2,11.2,2.79,16,3,2.22.1,4.19,0,6,0a126.77,126.77,0,0,0,13-1" transform="translate(-4 -87)"/><path class="cls-4" d="M138.5,191.5a69.25,69.25,0,0,0,8,5,67.6,67.6,0,0,0,20,7,90.37,90.37,0,0,0,13,1c4.94.18,9.07.11,12,0" transform="translate(-4 -87)"/><path class="cls-4" d="M131.5,199.5a58.17,58.17,0,0,0,11,5,65.53,65.53,0,0,0,16,3,103.84,103.84,0,0,0,19,0" transform="translate(-4 -87)"/><path class="cls-4" d="M148.5,211.5c4.34,1,9,2.31,14,4a163.37,163.37,0,0,1,17,7c2.46,1.17,4.5,2.21,6,3" transform="translate(-4 -87)"/><path class="cls-4" d="M144.5,230.5a99.32,99.32,0,0,1,17,5,95.48,95.48,0,0,1,19,10,89.25,89.25,0,0,1,14,12" transform="translate(-4 -87)"/><path class="cls-4" d="M157.5,238.5a53,53,0,0,1,13,6,54.55,54.55,0,0,1,14,13,61.22,61.22,0,0,1,9,16" transform="translate(-4 -87)"/><path class="cls-4" d="M165.5,269.5c7.51,3.86,13.57,7.34,18,10a60.68,60.68,0,0,1,10,7,51.63,51.63,0,0,1,8,9" transform="translate(-4 -87)"/><path class="cls-4" d="M338.5,278.5c10,.07,18.2,0,24,0,13.9-.1,18.81-.32,27,0,9.72.38,17.67,1.28,23,2" transform="translate(-4 -87)"/><path class="cls-4" d="M352.5,283.5a117,117,0,0,1,13-1,132.83,132.83,0,0,1,18,1,179.73,179.73,0,0,1,26,5" transform="translate(-4 -87)"/><path class="cls-4" d="M353.5,300.5c6.44.24,11.87.64,16,1,11.58,1,15.86,2.05,19,3a64.92,64.92,0,0,1,8,3" transform="translate(-4 -87)"/><path class="cls-4" d="M417.5,285.5c8.19-2.52,15.6-4.48,22-6,3.08-.73,10.39-2.16,25-5,8.83-1.72,14.29-2.75,22-3,2.91-.1,5.33-.06,7,0" transform="translate(-4 -87)"/><path class="cls-4" d="M486.5,275.5a94.85,94.85,0,0,0-14,2,109.17,109.17,0,0,0-16,5,124,124,0,0,0-20,9,107.1,107.1,0,0,0-12,8" transform="translate(-4 -87)"/><path class="cls-4" d="M400.5,319.5c5.64-2.42,12.71-5.23,21-8a255,255,0,0,1,25-7,219.66,219.66,0,0,1,24-4c6-.63,11.1-.89,15-1" transform="translate(-4 -87)"/><path class="cls-4" d="M423.5,313.5a104.64,104.64,0,0,1,18-5c4.88-.89,8.95-1.26,17-2,5.38-.49,9.86-.8,13-1" transform="translate(-4 -87)"/><path class="cls-4" d="M437.5,314.5a90.43,90.43,0,0,1,17-2c1.61,0,2.74,0,13,0h7" transform="translate(-4 -87)"/></svg>