<svg id="Слой_1" data-name="Слой 1" xmlns="http://www.w3.org/2000/svg" xmlns:xlink="http://www.w3.org/1999/xlink" viewBox="0 0 370.9 103"><defs><style>.cls-1,.cls-2,.cls-3,.cls-4,.cls-5,.cls-6{stroke:#000;stroke-linecap:round;stroke-linejoin:round;stroke-width:2px;}.cls-1{fill:url(#Безымянный_градиент_6);}.cls-2{fill:#bababa;}.cls-3{fill:#a3a3a3;}.cls-4{fill:#939393;}.cls-5{fill:#d8d8d8;}.cls-6{fill:#fff;}</style><linearGradient id="Безымянный_градиент_6" x1="253.06" y1="335.5" x2="253.06" y2="242.47" gradientUnits="userSpaceOnUse"><stop offset="0" stop-color="#fff"/><stop offset="1" stop-opacity="0.1"/></linearGradient></defs><title>paper</title><path class="cls-1" d="M124,248a29.21,29.21,0,0,0-33.5-.5c-7.55,4.77-11.05,11.27-13,15-6.19,11.84-5.4,23.14-5,28,.42,5,1.15,13.89,7,23,1.76,2.74,11,15,29,22,9-3,12-5.29,30-10a195.52,195.52,0,0,1,20-4c45.15-7.35,142-13,142-13,62.42-3.64,67.8-3.41,80-2,26,3,42,9,53,12,3-10-12.6-16.17-15-18-38.07-29.07-128.21-24.51-189-30A459.21,459.21,0,0,1,124,248Z" transform="translate(-71.23 -233.5)"/><path class="cls-2" d="M122.5,258.5c-4.85-4.11-12.59-6.12-16-7-5-1.29-7.2-1.09-8-1-6.82.81-11.19,5.89-13,8-4.56,5.3-5.81,10.79-7,16a53,53,0,0,0,0,24c1.28,5.23,2.81,11.15,8,16a18.24,18.24,0,0,0,9,5c5.13,1,9.36-.81,12-2a39.18,39.18,0,0,0,20-22C131.66,284.13,132.12,266.64,122.5,258.5Z" transform="translate(-71.23 -233.5)"/><path class="cls-3" d="M123.5,265.5c-3.87-4.45-9.55-6.23-12-7-3.67-1.15-7.07-2.22-11-1-6.17,1.91-9.07,8-10,10a25.33,25.33,0,0,0-2,7c-.44,2.55-1.26,8.2,0,23,.62,7.23,1.26,11.19,4,15a10.27,10.27,0,0,0,3,3c5.37,3.19,12.93-.89,15-2,10.4-5.61,14-16.83,15-20C126.78,289.49,131.51,274.69,123.5,265.5Z" transform="translate(-71.23 -233.5)"/><path class="cls-4" d="M100.5,257.5c4,1,6.93,4.78,9,9,2.56,5.21,0,11-1,15,8,0,28,1,35-2,2.45-5.37-1.66-17.09-6-21C124.5,257.5,102.5,255.5,100.5,257.5Z" transform="translate(-71.23 -233.5)"/><path class="cls-5" d="M99.5,250.5c26,10,26,60,1,66,1,2,41-4,41-4,3.55-4.23,5.46-14,6-20C149.74,267.87,133.5,247.5,99.5,250.5Z" transform="translate(-71.23 -233.5)"/><path class="cls-6" d="M109.5,242.5c17,14,28,73-13,77,4,2.59,62.69-3.38,79-5,0,0,15.57-1.55,58-3,98.09-3.35,147-10,192-8,21-13,21-56-1-69C424.5,234.5,135.5,245.5,109.5,242.5Z" transform="translate(-71.23 -233.5)"/></svg>