<svg id="Слой_1" data-name="Слой 1" xmlns="http://www.w3.org/2000/svg" viewBox="0 0 512 276.06"><defs><style>.cls-1{fill:#efefef;}.cls-1,.cls-2,.cls-3,.cls-4{stroke:#000;stroke-linecap:round;stroke-linejoin:round;}.cls-2{fill:#e0e0e0;}.cls-3{fill:#f7f7f7;}.cls-4{fill:none;}</style></defs><title>paper2</title><path class="cls-1" d="M186.5,351.5c-.22,2.52,14.88,1.95,31,14,13.41,10,17,18,22,25,35-9,62-10,77-13-15-15-44.88-22.7-55-25C222.09,343.54,186.83,347.66,186.5,351.5Z" transform="translate(4 -121.94)"/><path class="cls-2" d="M194.5,179.5c3.22-2,2.89-.55,19-4s19.51-5.57,73-25c6.85-2.49,13.29-4.81,21-10,14-9.43,16-11,19-18,0,26-9,147-19,231-5.26,4.23-25,8-68,13C224.5,319.5,158.54,201.89,194.5,179.5Z" transform="translate(4 -121.94)"/><path class="cls-1" d="M64.5,189.5c8,2,8.33,2.76,28,3a133,133,0,0,0,17-1c11.58-1.26,17.68-3.07,27-5,9.62-2,18.74-3,37-5,21.3-2.34,32-4,35-5,9,26,31,150,31,190-14-2-9.59-6.61-44-7-41.6-.48-55-2-75,0-1-14-4.14-23.5-11-53C93.87,239.34,75.5,207.5,64.5,189.5Z" transform="translate(4 -121.94)"/><path class="cls-3" d="M64.5,189.5c0,.22,6.15-2.75,12-3a190.83,190.83,0,0,0,20-2c20.45-3.46,34-36.56,63-46,13.31-4.33,12.08,2.1,58,2,12.53,0,26.76-.06,42-2,43.8-5.58,66.53-17,67-16-20,32-44.11,37.47-118,54-64,6-87,15.38-114,16C73.93,193,64.49,189.17,64.5,189.5Z" transform="translate(4 -121.94)"/><path class="cls-4" d="M259.5,138.5c43.8-5.58,66.53-17,67-16,.63,1.28-21,40-118,54" transform="translate(4 -121.94)"/><path class="cls-3" d="M75.5,308.5c.66-.16,1.16,3.28,4,7,4.24,5.56,10.54,7.57,15,9a41.78,41.78,0,0,0,12,2c4.24.06,11.44.17,18-4,5-3.15,6.19-6.6,8-6,2.62.87,2.24,8.86,2,14-.5,10.57-2.67,10.46-2,17,.61,6,2.73,9,1,14a14.23,14.23,0,0,1-3,5c-3.39,3.61-8,4.43-13,5-12.5,1.44-13.94-.16-21,1-3.41.56-15,2-22,8-8.8,7.57-10,9-10,17-5-5-6.79-7.87-12-14-16.62-19.55-55.3-8.65-56-13,19-2,25.19-18.53,51-17,2.37.14,14.87,1,27-5,4.8-2.38,6.29-4.23,7-6,2-4.94-2.34-8.69-5-20C74.86,315.51,74.58,308.72,75.5,308.5Z" transform="translate(4 -121.94)"/><path class="cls-1" d="M343.5,318.5c17,14,24,29,33,45,46-11,78-19,108-29-36-2-30.76-12.5-64-18C390,311.45,353.5,311.5,343.5,318.5Z" transform="translate(4 -121.94)"/><path class="cls-3" d="M326.5,302.5c7,1,18,1,39-5,61,13,113-7,142-18-4,8-15.54,24.26-32,32-9.92,4.66-22.31,7.42-25,8-8.86,1.91-15.61,2.4-27,6-5.83,1.84-9.72,3.5-11,4C377.5,326.5,346.5,317.5,326.5,302.5Z" transform="translate(4 -121.94)"/><path class="cls-4" d="M84.5,210.5c4.38,1,10.55,2.14,18,3,21.69,2.51,38.61.53,51-1a287.58,287.58,0,0,0,36-7c5.7-1.48,10.47-2.9,14-4" transform="translate(4 -121.94)"/><path class="cls-4" d="M97.5,215.5a152.56,152.56,0,0,0,19,3c11.8,1.11,21.06.59,31,0,5.23-.31,12.43-.88,21-2" transform="translate(4 -121.94)"/><path class="cls-4" d="M91.5,228.5c4.13.4,10,.86,17,1,10.8.22,29,.47,51-5a168.6,168.6,0,0,0,35-13" transform="translate(4 -121.94)"/><path class="cls-4" d="M108.5,249.5a193.39,193.39,0,0,0,44,3,198.12,198.12,0,0,0,50-9c5.76-1.82,10.53-3.61,14-5" transform="translate(4 -121.94)"/><path class="cls-4" d="M118.5,256.5a137.78,137.78,0,0,0,28,5,151.32,151.32,0,0,0,30-1,200.6,200.6,0,0,0,31-6" transform="translate(4 -121.94)"/><path class="cls-4" d="M107.5,262.5c6.13,1.45,14.3,3.26,24,5a385.08,385.08,0,0,0,49,6,362.91,362.91,0,0,0,40,0" transform="translate(4 -121.94)"/><path class="cls-4" d="M123.5,277.5c7.31,1.63,17.19,3.55,29,5a218.33,218.33,0,0,0,26,2,185.31,185.31,0,0,0,35-3" transform="translate(4 -121.94)"/><path class="cls-4" d="M131.5,299.5a109.47,109.47,0,0,0,51,4" transform="translate(4 -121.94)"/><path class="cls-4" d="M152.5,312.5a86.16,86.16,0,0,0,19,2,88,88,0,0,0,22-3,89.63,89.63,0,0,0,25-11" transform="translate(4 -121.94)"/><path class="cls-4" d="M212.5,215.5a234.14,234.14,0,0,0,26-6c17.52-5.12,29.89-11,49-20,14.52-6.86,20.3-10.33,23-12a179.36,179.36,0,0,0,22-16" transform="translate(4 -121.94)"/><path class="cls-4" d="M242.5,215.5c23.06-2.31,39-7.48,48-11,8.83-3.46,18.66-8.33,20-9,8.14-4.06,14.89-7.91,20-11" transform="translate(4 -121.94)"/><path class="cls-4" d="M229.5,233.5a199,199,0,0,0,33-4,146,146,0,0,0,30-9,135,135,0,0,0,14-7" transform="translate(4 -121.94)"/><path class="cls-4" d="M234.5,244.5a118,118,0,0,0,24,0,93.1,93.1,0,0,0,29-7,85.47,85.47,0,0,0,13-7" transform="translate(4 -121.94)"/><path class="cls-4" d="M259.5,254.5a100.93,100.93,0,0,0,25,0c3.05-.39,6.48-1,23-5,8.27-2,15.13-3.75,20-5" transform="translate(4 -121.94)"/><path class="cls-4" d="M262.5,266.5a55,55,0,0,0,20,2c8.37-.73,14.38-3.24,21-6a107.5,107.5,0,0,0,20-11" transform="translate(4 -121.94)"/><path class="cls-4" d="M244.5,312.5a88.91,88.91,0,0,0,19-1,94.73,94.73,0,0,0,23-7,98.39,98.39,0,0,0,16-9" transform="translate(4 -121.94)"/><path class="cls-4" d="M251.5,321.5a87.9,87.9,0,0,0,51-9c2.91-1.49,5.28-2.91,7-4" transform="translate(4 -121.94)"/><path class="cls-4" d="M249.5,339.5a54.89,54.89,0,0,0,28-4" transform="translate(4 -121.94)"/></svg>