<svg xmlns="http://www.w3.org/2000/svg" xmlns:xlink="http://www.w3.org/1999/xlink" viewBox="0 0 476.14 258.7"><defs><style>.cls-1{fill:none;}.cls-2{isolation:isolate;}.cls-3{fill:#d69169;}.cls-4{fill:#a09c8b;stroke-width:3px;}.cls-10,.cls-11,.cls-12,.cls-13,.cls-14,.cls-15,.cls-16,.cls-17,.cls-18,.cls-19,.cls-20,.cls-21,.cls-22,.cls-23,.cls-24,.cls-25,.cls-26,.cls-27,.cls-28,.cls-29,.cls-30,.cls-31,.cls-32,.cls-4,.cls-42,.cls-43,.cls-44,.cls-49,.cls-5,.cls-6,.cls-7,.cls-8,.cls-9{stroke:#000;}.cls-10,.cls-11,.cls-12,.cls-13,.cls-14,.cls-15,.cls-16,.cls-17,.cls-18,.cls-19,.cls-20,.cls-21,.cls-22,.cls-23,.cls-24,.cls-25,.cls-26,.cls-27,.cls-28,.cls-29,.cls-30,.cls-31,.cls-32,.cls-4,.cls-5,.cls-6,.cls-7,.cls-8,.cls-9{stroke-linecap:round;stroke-linejoin:round;}.cls-5{fill:#ff0;}.cls-10,.cls-11,.cls-12,.cls-13,.cls-14,.cls-15,.cls-16,.cls-17,.cls-18,.cls-19,.cls-20,.cls-21,.cls-22,.cls-23,.cls-24,.cls-25,.cls-26,.cls-27,.cls-28,.cls-29,.cls-30,.cls-31,.cls-32,.cls-42,.cls-43,.cls-44,.cls-49,.cls-5,.cls-6,.cls-7,.cls-8,.cls-9{stroke-width:2px;}.cls-13,.cls-33,.cls-6{fill:#fff;}.cls-6{opacity:0.5;}.cls-13,.cls-6{mix-blend-mode:screen;}.cls-7{fill:url(#linear-gradient);}.cls-14,.cls-19,.cls-24,.cls-29,.cls-37,.cls-8{mix-blend-mode:multiply;}.cls-8{fill:url(#radial-gradient);}.cls-9{fill:url(#Silver);}.cls-10{fill:url(#linear-gradient-2);}.cls-11{fill:url(#linear-gradient-3);}.cls-12{fill:#29abe2;}.cls-13{opacity:0.3;}.cls-14{fill:url(#radial-gradient-2);}.cls-15{fill:url(#Silver-2);}.cls-16{fill:url(#linear-gradient-4);}.cls-17{fill:url(#linear-gradient-5);}.cls-18{fill:#fa89be;}.cls-19{fill:url(#radial-gradient-3);}.cls-20{fill:url(#Silver-3);}.cls-21{fill:url(#linear-gradient-6);}.cls-22{fill:url(#linear-gradient-7);}.cls-23{fill:#f7931e;}.cls-24{fill:url(#radial-gradient-4);}.cls-25{fill:url(#Silver-4);}.cls-26{fill:url(#linear-gradient-8);}.cls-27{fill:url(#linear-gradient-9);}.cls-28{fill:#8af9d1;}.cls-29{fill:url(#radial-gradient-5);}.cls-30{fill:url(#Silver-5);}.cls-31{fill:url(#linear-gradient-10);}.cls-32{fill:url(#linear-gradient-11);}.cls-33,.cls-34,.cls-35,.cls-47,.cls-48,.cls-53,.cls-54{fill-rule:evenodd;}.cls-34{fill:#dadada;}.cls-36{clip-path:url(#clip-path);}.cls-37{fill:#514943;opacity:0.6;}.cls-38{fill:#b99a6f;}.cls-39{fill:url(#linear-gradient-12);}.cls-40{fill:url(#linear-gradient-13);}.cls-41{fill:url(#linear-gradient-14);}.cls-42{fill:#eae3dd;}.cls-42,.cls-43,.cls-44,.cls-49{stroke-miterlimit:10;}.cls-43,.cls-45{fill:#00a3e1;}.cls-44,.cls-46{fill:#00abec;}.cls-47{fill:#e71d73;}.cls-48{fill:#ad1656;}.cls-49{fill:#dad9ca;}.cls-50{fill:#85d5f6;}.cls-51{fill:url(#radial-gradient-6);}.cls-52{fill:#77bcda;}.cls-53{fill:#36a9e1;}.cls-54{fill:#297fa9;}</style><linearGradient id="linear-gradient" x1="331.18" y1="198.57" x2="328.89" y2="204.54" gradientUnits="userSpaceOnUse"><stop offset="0.06" stop-color="#ff0"/><stop offset="0.13" stop-color="#fcea07"/><stop offset="0.25" stop-color="#f9cb11"/><stop offset="0.38" stop-color="#f6b318"/><stop offset="0.52" stop-color="#f4a11e"/><stop offset="0.66" stop-color="#f29721"/><stop offset="0.84" stop-color="#f29422"/></linearGradient><radialGradient id="radial-gradient" cx="550.82" cy="132.59" r="0.29" gradientTransform="translate(705.19 -272.61) rotate(116.35)" gradientUnits="userSpaceOnUse"><stop offset="0"/><stop offset="0.19" stop-color="#030303"/><stop offset="0.32" stop-color="#0c0c0c"/><stop offset="0.44" stop-color="#1c1c1c"/><stop offset="0.54" stop-color="#323232"/><stop offset="0.64" stop-color="#4e4e4e"/><stop offset="0.74" stop-color="#717171"/><stop offset="0.83" stop-color="#9b9b9b"/><stop offset="0.92" stop-color="#cacaca"/><stop offset="1" stop-color="#fff"/></radialGradient><linearGradient id="Silver" x1="550.82" y1="131.41" x2="550.01" y2="131.99" gradientTransform="matrix(0.56, 0.83, -0.83, 0.56, 141.84, -367.89)" gradientUnits="userSpaceOnUse"><stop offset="0" stop-color="#e5e2df"/><stop offset="0" stop-color="#ded9d6"/><stop offset="0.06" stop-color="#cfcac9"/><stop offset="0.18" stop-color="#a8a4a7"/><stop offset="0.26" stop-color="#8b878d"/><stop offset="0.52" stop-color="#f3f4f4"/><stop offset="0.58" stop-color="#e5e5e6"/><stop offset="0.7" stop-color="#c0bec0"/><stop offset="0.86" stop-color="#858085"/><stop offset="0.88" stop-color="#807b80"/><stop offset="1" stop-color="#d1d3d4"/><stop offset="1" stop-color="#a7a9ac"/></linearGradient><linearGradient id="linear-gradient-2" x1="529.8" y1="170.1" x2="524.56" y2="174.01" gradientTransform="translate(137.81 -357.68) rotate(50.18)" gradientUnits="userSpaceOnUse"><stop offset="0.18" stop-color="red"/><stop offset="0.76" stop-color="#8c171b"/></linearGradient><linearGradient id="linear-gradient-3" x1="552.71" y1="-175.66" x2="552.46" y2="-170.83" gradientTransform="matrix(0, 1.14, -1.07, 0, 159.97, -477.56)" xlink:href="#linear-gradient-2"/><radialGradient id="radial-gradient-2" cx="237.21" cy="195.91" r="0.27" gradientTransform="translate(111.64 -84.95) rotate(26.36)" xlink:href="#radial-gradient"/><linearGradient id="Silver-2" x1="237.21" y1="194.79" x2="236.45" y2="195.34" gradientTransform="matrix(1, 0, 0, 1, 0, 0)" xlink:href="#Silver"/><linearGradient id="linear-gradient-4" x1="211.63" y1="202.89" x2="206.68" y2="206.58" gradientTransform="matrix(1, -0.1, 0.1, 1, 6.06, 9.02)" gradientUnits="userSpaceOnUse"><stop offset="0.18" stop-color="#8cc63f"/><stop offset="0.76" stop-color="#006837"/></linearGradient><linearGradient id="linear-gradient-5" x1="287.17" y1="-269.62" x2="286.93" y2="-265.06" gradientTransform="matrix(1.14, 0, 0, 1.07, -95.03, 475.15)" xlink:href="#linear-gradient-4"/><radialGradient id="radial-gradient-3" cx="240.35" cy="166.54" r="0.27" gradientTransform="matrix(-0.44, 0.9, -0.9, -0.44, 489.83, 135.61)" xlink:href="#radial-gradient"/><linearGradient id="Silver-3" x1="240.35" y1="165.46" x2="239.61" y2="165.99" gradientTransform="matrix(0.59, 0.81, -0.81, 0.59, 227.24, -15.29)" xlink:href="#Silver"/><linearGradient id="linear-gradient-6" x1="217.58" y1="174.8" x2="212.78" y2="178.38" gradientTransform="translate(224.02 -5.48) rotate(48.37)" xlink:href="#linear-gradient-2"/><linearGradient id="linear-gradient-7" x1="301.98" y1="-290.68" x2="301.76" y2="-286.27" gradientTransform="matrix(0, 1.14, -1.07, 0, -71.85, -75.52)" xlink:href="#linear-gradient-2"/><radialGradient id="radial-gradient-4" cx="280.25" cy="-23.79" r="0.29" gradientTransform="translate(122.47 100.92) rotate(26.35)" xlink:href="#radial-gradient"/><linearGradient id="Silver-4" x1="280.25" y1="-24.98" x2="279.44" y2="-24.4" gradientTransform="translate(104.83 236.9) rotate(-1.86)" xlink:href="#Silver"/><linearGradient id="linear-gradient-8" x1="276.03" y1="-11.63" x2="270.77" y2="-7.71" gradientTransform="matrix(0.99, -0.13, 0.13, 0.99, 111.04, 245.44)" gradientUnits="userSpaceOnUse"><stop offset="0.18" stop-color="#29abe2"/><stop offset="0.76" stop-color="#1b1464"/></linearGradient><linearGradient id="linear-gradient-9" x1="415.67" y1="-427.35" x2="415.42" y2="-422.51" gradientTransform="matrix(1.14, 0, 0, 1.07, -95.44, 651.59)" xlink:href="#linear-gradient-8"/><radialGradient id="radial-gradient-5" cx="239.76" cy="167.35" r="0.27" gradientTransform="matrix(-0.9, 0.44, 0.44, 0.9, 217.7, 20.65)" xlink:href="#radial-gradient"/><linearGradient id="Silver-5" x1="239.76" y1="166.26" x2="239.02" y2="166.8" gradientTransform="matrix(-0.59, 0.81, 0.81, 0.59, 82.8, -15.29)" xlink:href="#Silver"/><linearGradient id="linear-gradient-10" x1="216.91" y1="175.55" x2="212.12" y2="179.12" gradientTransform="matrix(-0.66, 0.75, 0.75, 0.66, 86.02, -5.48)" xlink:href="#linear-gradient-2"/><linearGradient id="linear-gradient-11" x1="301.19" y1="-290.3" x2="300.96" y2="-285.89" gradientTransform="matrix(-1.14, 0, 0, 1.07, 417.81, 578.49)" xlink:href="#linear-gradient-2"/><clipPath id="clip-path" transform="translate(-19.36 -127.44)"><rect class="cls-1" x="21" y="123" width="261.28" height="55"/></clipPath><linearGradient id="linear-gradient-12" x1="184.03" y1="-63.58" x2="184.03" y2="-75.93" gradientTransform="translate(-77.28 77.65) rotate(9.65)" gradientUnits="userSpaceOnUse"><stop offset="0"/><stop offset="1" stop-color="#202020"/></linearGradient><linearGradient id="linear-gradient-13" x1="183.87" y1="-61.98" x2="183.87" y2="-64.51" gradientTransform="translate(-57.92 205.1) rotate(9.65)" xlink:href="#linear-gradient-12"/><linearGradient id="linear-gradient-14" x1="177.07" y1="-74.94" x2="191.34" y2="-74.94" gradientTransform="translate(-57.92 205.1) rotate(9.65)" gradientUnits="userSpaceOnUse"><stop offset="0.02" stop-color="#e4e4e4"/><stop offset="0.41" stop-color="#fff"/><stop offset="1" stop-color="#b0b0b0"/></linearGradient><radialGradient id="radial-gradient-6" cx="481.04" cy="-221.4" r="107.05" gradientTransform="translate(186.57 789.39) rotate(-45) scale(1.17)" gradientUnits="userSpaceOnUse"><stop offset="0" stop-color="#dfe0e1"/><stop offset="1" stop-color="#c4c5c7"/></radialGradient></defs><title>task tabel</title><g class="cls-2"><g id="Слой_1" data-name="Слой 1"><rect class="cls-3" x="6.64" y="8.56" width="464" height="244"/><path class="cls-4" d="M22,129.79V384.64H494V129.79ZM482.79,374.93H33.21V139.5H482.79Z" transform="translate(-19.36 -127.44)"/><path class="cls-5" d="M312.92,161.67l1.8,28s.33,8.83,3.27,11l12.92,6.22s6.22,3.93,10,4.25c0,0,11,1.31,16,.82,0,0,12.6-1.15,14.07-1.31l-4.25-53.69Z" transform="translate(-19.36 -127.44)"/><polygon class="cls-6" points="347.89 35.88 293.93 40.04 293.56 34.22 347.38 29.44 347.89 35.88"/><path class="cls-7" d="M316.94,199.42s2,3.3,7.51-.38c0,0,7.61,10.48,15.87,11.95A55,55,0,0,1,316.94,199.42Z" transform="translate(-19.36 -127.44)"/><ellipse class="cls-8" cx="341.93" cy="162.13" rx="0.23" ry="0.34" transform="translate(13.32 252.79) rotate(-60.56)"/><path class="cls-9" d="M342.66,160.32l-1,1.78s.16.24.38.18l1.09-1.91Z" transform="translate(-19.36 -127.44)"/><path class="cls-10" d="M345.37,158.26l1.39-3.3-2-.63-1.59,2.77a2.72,2.72,0,0,0-2.22,1.32,4,4,0,0,0,1.87,2,2.92,2.92,0,0,0,2.67.32A2.61,2.61,0,0,0,345.37,158.26Z" transform="translate(-19.36 -127.44)"/><ellipse class="cls-11" cx="346.07" cy="154.13" rx="1.28" ry="2.06" transform="translate(36.84 270.6) rotate(-64.09)"/><path class="cls-6" d="M347.57,155.17l-.12,0-.14,0h-.52l-.12,0-.25-.06-.26-.09-.25-.12-.22-.13-.2-.14-.09-.07-.08-.07-.13-.13-.09-.11-.07-.1.1.08.11.09.15.1.17.11.2.12.23.12.23.1.24.09.24.07.12,0,.11,0,.21,0,.18,0h.26Z" transform="translate(-19.36 -127.44)"/><ellipse class="cls-6" cx="343.69" cy="158.73" rx="0.4" ry="0.25" transform="translate(-41.31 129.4) rotate(-39.81)"/><ellipse class="cls-6" cx="344.22" cy="159.74" rx="0.23" ry="0.15" transform="translate(-41.82 130.01) rotate(-39.82)"/><rect class="cls-12" x="194.01" y="64.48" width="49.9" height="50.08"/><rect class="cls-13" x="194.01" y="64.47" width="49.9" height="6.02"/><ellipse class="cls-14" cx="237.21" cy="195.91" rx="0.32" ry="0.22" transform="translate(-81.68 -1.76) rotate(-26.36)"/><path class="cls-15" d="M236.18,194.38l.87,1.72s.27,0,.34-.21l-.91-1.87Z" transform="translate(-19.36 -127.44)"/><path class="cls-16" d="M236,191.16l-1.84-2.84-1.57,1.26,1.32,2.71a2.57,2.57,0,0,0-.15,2.44,3.76,3.76,0,0,0,2.59-.37,2.76,2.76,0,0,0,1.67-1.92A2.47,2.47,0,0,0,236,191.16Z" transform="translate(-19.36 -127.44)"/><ellipse class="cls-17" cx="233.16" cy="188.43" rx="1.95" ry="1.21" transform="translate(-82.23 13.72) rotate(-29.87)"/><path class="cls-6" d="M234.77,187.81l0,.11-.05.12a1.15,1.15,0,0,1-.09.15l-.05.08-.07.08-.07.09-.08.08-.18.17-.2.15-.22.13-.22.1-.22.08-.1,0-.1,0-.17,0h-.25l.11,0,.12,0,.16-.06.18-.08.2-.09.21-.12.2-.13.2-.14.18-.15.08-.07.08-.08.14-.14.11-.13.08-.1Z" transform="translate(-19.36 -127.44)"/><ellipse class="cls-6" cx="235.49" cy="192.73" rx="0.24" ry="0.37" transform="translate(-37.06 -103.51) rotate(-5.61)"/><ellipse class="cls-6" cx="236.56" cy="192.85" rx="0.14" ry="0.22" transform="translate(-37.11 -103.35) rotate(-5.62)"/><path class="cls-18" d="M210.28,272.27,259,277.8,253.92,326s-33-1.65-46.48-8.83a107.51,107.51,0,0,1,1-27.54C211,275,210.28,272.27,210.28,272.27Z" transform="translate(-19.36 -127.44)"/><path class="cls-6" d="M259,277.8l-.64,6-48.29-5.48c.5-4.94.17-6.1.17-6.1Z" transform="translate(-19.36 -127.44)"/><ellipse class="cls-19" cx="233.9" cy="277.04" rx="0.21" ry="0.31" transform="translate(-139.37 228.39) rotate(-62.38)"/><path class="cls-20" d="M234.51,275.36l-.85,1.66s.15.21.36.15l.94-1.78Z" transform="translate(-19.36 -127.44)"/><path class="cls-21" d="M236.93,273.4l1.18-3.06-1.88-.52-1.37,2.58a2.49,2.49,0,0,0-2,1.27,3.64,3.64,0,0,0,1.77,1.82,2.67,2.67,0,0,0,2.45.21A2.39,2.39,0,0,0,236.93,273.4Z" transform="translate(-19.36 -127.44)"/><ellipse class="cls-22" cx="237.45" cy="269.6" rx="1.17" ry="1.89" transform="translate(-124.97 248.81) rotate(-65.9)"/><path class="cls-6" d="M238.85,270.51l-.11,0-.13,0-.17,0h-.31l-.11,0-.23,0-.24-.07-.23-.1-.21-.11-.19-.13-.08-.06-.07-.06-.12-.11-.08-.1-.07-.09.09.07.1.08.14.09.16.1.19.1.21.1.22.09.22.07.22.06.11,0,.1,0,.19,0h.4Z" transform="translate(-19.36 -127.44)"/><ellipse class="cls-6" cx="235.4" cy="273.88" rx="0.36" ry="0.23" transform="translate(-141.85 98.1) rotate(-41.63)"/><ellipse class="cls-6" cx="235.92" cy="274.79" rx="0.21" ry="0.14" transform="translate(-142.33 98.74) rotate(-41.64)"/><path class="cls-23" d="M357,206.54l50.85-10.66s3.78,30.84,14.85,47.9l-53.4,12S357.49,214.91,357,206.54Z" transform="translate(-19.36 -127.44)"/><path class="cls-6" d="M409,203.27l-50.54,10.6c0,.58.12,1.31.25,2.18a72.44,72.44,0,0,1-1.73-9.5l50.85-10.66S408.21,198.77,409,203.27Z" transform="translate(-19.36 -127.44)"/><ellipse class="cls-24" cx="384.17" cy="204" rx="0.34" ry="0.23" transform="translate(-70.16 78.43) rotate(-28.22)"/><path class="cls-25" d="M383,202.42l1,1.79s.29,0,.35-.23l-1-1.95Z" transform="translate(-19.36 -127.44)"/><path class="cls-26" d="M382.73,199l-2-2.95-1.63,1.39,1.5,2.84a2.73,2.73,0,0,0-.08,2.59,4,4,0,0,0,2.74-.49,2.93,2.93,0,0,0,1.7-2.1A2.62,2.62,0,0,0,382.73,199Z" transform="translate(-19.36 -127.44)"/><ellipse class="cls-27" cx="379.6" cy="196.2" rx="2.07" ry="1.28" transform="translate(-65.81 101.56) rotate(-31.74)"/><path class="cls-6" d="M381.29,195.49l0,.12a.81.81,0,0,1-.05.13,1.21,1.21,0,0,1-.09.16l-.06.09-.07.09-.07.1-.08.09-.19.18-.21.17-.23.15-.23.12-.23.09-.11,0-.1,0-.18,0h-.26l.12,0,.13,0,.17-.07.19-.09.21-.11.22-.13.21-.14.2-.16.19-.16.09-.08.08-.08.14-.16.11-.14.08-.11Z" transform="translate(-19.36 -127.44)"/><ellipse class="cls-6" cx="382.23" cy="200.69" rx="0.25" ry="0.4" transform="translate(-42.19 -76.08) rotate(-7.46)"/><ellipse class="cls-6" cx="383.37" cy="200.78" rx="0.15" ry="0.24" transform="translate(-42.14 -76.09) rotate(-7.44)"/><path class="cls-28" d="M100.76,272.27,52,277.8,57.12,326s33-1.65,46.48-8.83a107.51,107.51,0,0,0-1-27.54C100,275,100.76,272.27,100.76,272.27Z" transform="translate(-19.36 -127.44)"/><path class="cls-6" d="M52,277.8l.64,6,48.29-5.48c-.5-4.94-.17-6.1-.17-6.1Z" transform="translate(-19.36 -127.44)"/><ellipse class="cls-29" cx="77.15" cy="277.04" rx="0.31" ry="0.21" transform="translate(-139.01 -60.1) rotate(-27.62)"/><path class="cls-30" d="M76.54,275.36l.85,1.66s-.15.21-.36.15l-.94-1.78Z" transform="translate(-19.36 -127.44)"/><path class="cls-31" d="M74.11,273.4l-1.18-3.06,1.88-.52,1.37,2.58a2.49,2.49,0,0,1,2,1.27,3.64,3.64,0,0,1-1.77,1.82,2.67,2.67,0,0,1-2.45.21A2.39,2.39,0,0,1,74.11,273.4Z" transform="translate(-19.36 -127.44)"/><ellipse class="cls-32" cx="73.6" cy="269.6" rx="1.89" ry="1.17" transform="translate(-123.04 -73.89) rotate(-24.1)"/><path class="cls-6" d="M72.19,270.51l.11,0,.13,0,.17,0h.31l.11,0,.23,0,.24-.07.23-.1.21-.11.19-.13.08-.06.07-.06.12-.11.08-.1.07-.09-.09.07-.1.08-.14.09L74,270l-.19.1-.21.1-.22.09-.22.07-.22.06-.11,0-.1,0-.19,0h-.4Z" transform="translate(-19.36 -127.44)"/><ellipse class="cls-6" cx="75.64" cy="273.88" rx="0.23" ry="0.36" transform="translate(-198.68 21.04) rotate(-48.37)"/><ellipse class="cls-6" cx="75.12" cy="274.79" rx="0.14" ry="0.21" transform="translate(-199.51 20.91) rotate(-48.36)"/><path class="cls-33" d="M92.44,170.17a18,18,0,0,1,1.83,0c1.68.16,3.36.41,5,.56,2,.18,4,.22,6.05.44,3.51.4,7-.19,10.43-.45,1.14-.08,2.27-.16,3.41-.21,2.15-.11,4.31-.29,6.46-.28,2.84,0,5.67.21,8.5.29,1.27,0,2.54,0,3.8,0s2.52.17,3.78.23c.89,0,1.77,0,2.66.06,3.47,0,7-.06,10.41.09a120.24,120.24,0,0,0,16.25-.32c1.18-.11,2.37-.14,3.73-.21-.17,1.12-.26,2.12-.46,3.09-.82,4-1.68,8-2.52,12-.29,1.38-.56,2.76-.86,4.14s.3,1.92,1.82,1.57c2.27-.52,4.55-1.05,6.79-1.68q4.88-1.36,9.71-2.88a37.23,37.23,0,0,0,4-1.6,8.53,8.53,0,0,1,3.15-.82c.06.69.12,1.29.16,1.9.2,3.09.41,6.17.6,9.26.24,3.82.51,7.65.7,11.47.16,3.38.31,6.77.32,10.15s-.19,6.54-.29,9.81c0,1.46-.07,2.92-.12,4.38q-.16,4.39-.34,8.78c-.14,3.38-.22,6.76-.45,10.14-.12,1.8-.48,3.59-.76,5.38s-.58,3.46-.83,5.19c-.51,3.57-1,7.15-1.47,10.72-.37,2.69-.8,5.37-1.15,8.06-.17,1.28-.19,2.58-.36,3.86-.23,1.84-.51,3.68-.8,5.52-.26,1.61-.47,3.24-.84,4.83-.32,1.33-.85,1.61-2.41,1.63-3.71,0-7.42.11-11.13.05s-7.47-.3-11.21-.37c-2.85-.05-5.71.06-8.57.07-6.21,0-12.44,0-18.65,0-2.79,0-5.59.13-8.38.14-2.34,0-4.68-.11-7-.13q-5.22,0-10.43,0c-1.08,0-2.15.17-3.23.19-3.68.06-7.35.2-11,.08s-7.33-.5-11-.79c-.68-.05-1.34-.22-2.1-.35.52-2.48,1.07-4.79,1.48-7.11s.77-4.92,1.08-7.39c.55-4.49,1.21-9,1.51-13.5.26-3.89.81-7.75,1.26-11.62.13-1.12,0-2.26.06-3.39.24-4.69.55-9.38.74-14.08s.27-9.5.41-14.24c.17-5.71.38-11.42.51-17.13,0-1.92-.1-3.85-.11-5.77q-.09-11.1-.14-22.2C92.43,175.25,92.44,172.78,92.44,170.17Z" transform="translate(-19.36 -127.44)"/><path class="cls-34" d="M195.57,182.27c-7,3.79-14.65,5.32-22.25,7.28-.47-1.74.34-3.22.51-4.75s.5-3.24.77-4.86.47-3.12.8-4.67.77-3,1.2-4.68a10.58,10.58,0,0,1,1.57.62C183.87,174.82,189.56,178.45,195.57,182.27Z" transform="translate(-19.36 -127.44)"/><path class="cls-35" d="M83.23,295.74c.2-.84.31-1.48.49-2.1.7-2.46,1.9-4.89,2-7.37a67.77,67.77,0,0,1,1.45-9.16c.74-4,1-8,1.32-11.95.4-4.49,1.07-9,1.27-13.46.13-2.77.23-5.54.33-8.31.14-3.73.29-7.45.4-11.18.11-3.9.19-7.79.28-11.69.1-4.18.24-8.37.29-12.55,0-3.45,0-6.9-.05-10.35s-.22-6.76-.31-10.14c-.06-2.2,0-4.41-.1-6.61-.09-2.81-.27-5.61-.39-8.42,0-1.13,0-2.26,0-3.38,0-.82.58-1.16,1.52-1a3.61,3.61,0,0,1,.74.16,27.64,27.64,0,0,0,7.26,1.16c2.9.23,5.81.46,8.72.6a39.32,39.32,0,0,0,4-.17c4.11-.23,8.21-.5,12.33-.68,3-.13,6.08-.22,9.11-.16s5.94.4,8.91.5c3.91.12,7.83.12,11.74.18,2.58,0,5.17.19,7.75.14s5.29-.27,7.93-.5c1.69-.15,3.36-.47,5.05-.69a2,2,0,0,1,1.09.11c1.34.75,2.64,1.54,3.93,2.34,2.54,1.58,5.07,3.18,7.6,4.78,1.76,1.11,3.49,2.24,5.27,3.33a12.63,12.63,0,0,0,2.29,1.17c2.09.75,2.45,1.4,2.49,3.42.06,3.22.33,6.44.51,9.65.28,5,.62,10,.83,15.07.16,4,.24,8,.23,12,0,3.73-.21,7.45-.33,11.18-.1,3.22,0,6.45-.36,9.64-.51,4.33-.21,8.7-1.21,13a71.83,71.83,0,0,0-1,7.75c-.36,3-.66,6.08-1.07,9.11-.66,4.88-1.38,9.76-2.08,14.64-.36,2.46-.75,4.92-1.06,7.39a9,9,0,0,0,.13,2.19c.14,1.12-.51,1.85-1.71,1.61-3.69-.75-7.43-.46-11.14-.5q-7.21-.08-14.39-.47c-1.2-.07-2.41,0-3.61,0-3.55,0-7.1.09-10.64.11-3.36,0-6.73,0-10.09,0-3.62,0-7.23.15-10.85.17-1.32,0-2.65-.18-4-.25-.63,0-1.26,0-1.9,0l-11.21.31c-1.58,0-3.16.15-4.74.17-1.9,0-3.8,0-5.7,0-.12,0-.25-.08-.37-.06-3,.47-5.93-.12-8.9-.23C90.11,296.13,86.89,295.93,83.23,295.74Zm9.21-125.57c0,2.62,0,5.08,0,7.54q.05,11.1.14,22.2c0,1.92.16,3.85.11,5.77-.14,5.71-.34,11.42-.51,17.13-.14,4.75-.22,9.5-.41,14.24s-.51,9.38-.74,14.08c-.06,1.13.07,2.27-.06,3.39-.45,3.87-1,7.73-1.26,11.62-.3,4.51-1,9-1.51,13.5-.3,2.47-.65,4.93-1.08,7.39s-1,4.63-1.48,7.11c.76.13,1.42.3,2.1.35,3.66.29,7.32.67,11,.79s7.35,0,11-.08c1.08,0,2.15-.18,3.23-.19q5.21,0,10.43,0c2.34,0,4.68.13,7,.13,2.79,0,5.59-.13,8.38-.14,6.21,0,12.44,0,18.65,0,2.85,0,5.72-.12,8.57-.07,3.74.07,7.47.31,11.21.37s7.42,0,11.13-.05c1.56,0,2.09-.29,2.41-1.63.37-1.59.59-3.21.84-4.83.29-1.84.57-3.68.8-5.52.16-1.28.18-2.58.36-3.86.35-2.69.78-5.37,1.15-8.06.5-3.57,1-7.15,1.47-10.72.25-1.73.56-3.46.83-5.19s.64-3.58.76-5.38c.23-3.38.31-6.76.45-10.14q.18-4.39.34-8.78c.05-1.46.08-2.92.12-4.38.1-3.27.29-6.54.29-9.81s-.16-6.77-.32-10.15c-.19-3.83-.45-7.65-.7-11.47-.19-3.09-.4-6.17-.6-9.26,0-.61-.1-1.22-.16-1.9a8.53,8.53,0,0,0-3.15.82,37.23,37.23,0,0,1-4,1.6q-4.83,1.52-9.71,2.88c-2.24.62-4.51,1.15-6.79,1.68-1.51.35-2.12-.2-1.82-1.57s.57-2.76.86-4.14c.84-4,1.7-8,2.52-12,.2-1,.3-2,.46-3.09-1.36.08-2.55.1-3.73.21a120.24,120.24,0,0,1-16.25.32c-3.46-.15-6.94-.06-10.41-.09-.89,0-1.77,0-2.66-.06-1.26-.06-2.52-.19-3.78-.23s-2.53,0-3.8,0c-2.83-.08-5.67-.27-8.5-.29-2.15,0-4.31.17-6.46.28-1.14.06-2.28.13-3.41.21-3.47.25-6.91.85-10.43.45-2-.23-4-.27-6.05-.44-1.69-.15-3.37-.4-5-.56A18,18,0,0,0,92.44,170.17Zm103.13,12.11c-6-3.82-11.71-7.45-17.41-11.06a10.58,10.58,0,0,0-1.57-.62c-.43,1.65-.88,3.15-1.2,4.68s-.54,3.11-.8,4.67-.6,3.24-.77,4.86-1,3-.51,4.75C180.93,187.59,188.56,186.06,195.57,182.27Z" transform="translate(-19.36 -127.44)"/><g class="cls-36"><path class="cls-37" d="M95.31,174q-10.24,0-19.65-.75c-39.66-3.18-54-15.2-54.6-15.71a1.14,1.14,0,0,1,1.49-1.73h0c.14.12,14.59,12.13,53.67,15.19,36.12,2.83,101.24-1.62,206.31-38.91a1.14,1.14,0,1,1,.76,2.15c-46.66,16.56-89.45,28.1-127.18,34.31A377.73,377.73,0,0,1,95.31,174Z" transform="translate(-19.36 -127.44)"/><path class="cls-38" d="M94,169.43q-10.24,0-19.65-.75c-39.66-3.18-54-15.2-54.6-15.71a1.14,1.14,0,0,1,1.49-1.73h0c.14.12,14.59,12.13,53.67,15.19,36.12,2.83,101.24-1.62,206.31-38.91a1.14,1.14,0,1,1,.76,2.15c-46.66,16.56-89.45,28.1-127.18,34.31A377.73,377.73,0,0,1,94,169.43Z" transform="translate(-19.36 -127.44)"/></g><polygon class="cls-39" points="127.2 35.76 124.29 48.3 104.72 44.98 106.43 32.3 127.2 35.76"/><path class="cls-40" d="M144.06,175.33a.8.8,0,0,1-.93.65l-18.63-3.17a.8.8,0,0,1-.67-.92h0a.8.8,0,0,1,.93-.65l18.63,3.17a.8.8,0,0,1,.67.92Z" transform="translate(-19.36 -127.44)"/><path class="cls-41" d="M140.91,174.14l-.86-.15c0-2.09-.37-10.21-.48-12.38,0-.44-.08-.85-.12-1.27-.2-1.83-.26-3,.94-3.65a3,3,0,0,0,1.39-3.19,4.2,4.2,0,0,0-3.47-3.37s0,.08,0,.08l0,.08h0s0-.08,0-.08a4.17,4.17,0,0,0-4.38,2,3,3,0,0,0,.26,3.46c.91,1,.47,2.1-.32,3.76-.18.38-.36.71-.53,1.12-.83,2-3.81,9.56-4.55,11.52l-.86-.15a.51.51,0,0,0-.17,1l1.27.22a.46.46,0,0,0,.55-.26c0-.1,3.76-9.66,4.7-11.92.16-.38.34-.75.51-1.12.77-1.61,1.56-3.27.17-4.87a2,2,0,0,1-.12-2.32,3.28,3.28,0,0,1,6,1,2.05,2.05,0,0,1-.88,2.15c-1.84,1-1.65,2.89-1.45,4.66,0,.41.09.83.11,1.24.13,2.44.49,12.67.5,12.77a.46.46,0,0,0,.44.43l1.27.22a.51.51,0,1,0,.17-1Z" transform="translate(-19.36 -127.44)"/><path class="cls-42" d="M354.18,223.28a3.37,3.37,0,0,1-.3,2.17,2.42,2.42,0,1,1-1.55-.2c0-.74.06-1.46.12-2.18l-4.85-.6a5.74,5.74,0,0,1-.2,2.09,2.42,2.42,0,1,1-1.8.12,3.9,3.9,0,0,1,.25-1.77c0-.22,0-.43,0-.65l-3.32-.41a11,11,0,0,1-1,2,2.42,2.42,0,1,1-1.32-.08c.1-.71.25-1.44.41-2.16L336,221a8,8,0,0,1-.63,2.08,2.42,2.42,0,1,1-1.65-.08c-.06-.26-.12-.51-.18-.7a12.54,12.54,0,0,1,.17-1.59l-4.06-.51a7.72,7.72,0,0,1-.66,2,2.42,2.42,0,1,1-1.95.13,17.6,17.6,0,0,1,.09-2.5l-5.64-.7a12,12,0,0,1,.07,2.19,2.43,2.43,0,1,1-1.15.55,1.27,1.27,0,0,1-.46-1,8.61,8.61,0,0,0,.15-1.92l-3-.38a12.66,12.66,0,0,0-1.06,1.94h0a2.42,2.42,0,1,1-1.21.16c-.09-.74-.13-1.48-.17-2.22l-.06-.19-2.69-.33a8.56,8.56,0,0,1-1.25,2.06,2.41,2.41,0,1,1-1.29-.26c0-.72-.16-1.34-1.21-1.29,0-.23,0-.45,0-.68a10.17,10.17,0,0,1-2.4,2.35,2.42,2.42,0,1,1-.44-.52,19,19,0,0,1,.26-2.46l-1.69-.21c-1.5.92-2.93,2-4.58,2.22a2.42,2.42,0,1,1-1.61-.92l.27.05a4.37,4.37,0,0,0,.94-2l-5.35-.66a11.69,11.69,0,0,1-1.52,2,2.41,2.41,0,1,1-1.08-.17c.15-.69.32-1.37.47-2.06l-6.25-.78a17.12,17.12,0,0,0-.2,2.06l.28,0a2.42,2.42,0,1,1-.73,0,17.89,17.89,0,0,1-.92-2.29l-1.94-.24L268.87,317.45l48.46,6c1.28-1.13,2.52-2.29,3.71-3.45-.14,1.1,1,.87,1.28,1.65,2.24-3.06,3-.37,4.66,1.32.73-2.88,2.74-4.12,5.21-3.07a21,21,0,0,1,1-4.71c2.7,2.19,6.36,2.65,7.78,6.17,1.23-1,1.37-2.06,3.15-1.47.81.1.9,1.11,1.13,2.12l12.23-98.36Z" transform="translate(-19.36 -127.44)"/><polygon class="cls-43" points="327.48 111.52 269.5 104.31 269.5 104.31 327.48 111.52 327.48 111.52"/><polygon class="cls-43" points="326.46 119.75 268.47 112.53 268.47 112.53 326.46 119.75 326.46 119.75"/><polygon class="cls-43" points="324.36 136.61 266.38 129.4 266.38 129.4 324.36 136.61 324.36 136.61"/><polygon class="cls-43" points="325.38 128.39 267.4 121.17 267.4 121.17 325.38 128.39 325.38 128.39"/><polygon class="cls-43" points="323.34 144.84 265.35 137.62 265.35 137.62 323.34 144.84 323.34 144.84"/><polygon class="cls-43" points="319.19 178.16 261.21 170.94 261.21 170.94 319.19 178.16 319.19 178.16"/><polygon class="cls-43" points="318.17 186.38 260.19 179.17 260.19 179.17 318.17 186.38 318.17 186.38"/><polygon class="cls-43" points="322.31 153.06 264.33 145.85 264.33 145.85 322.31 153.06 322.31 153.06"/><polygon class="cls-43" points="321.24 161.71 263.25 154.49 263.25 154.49 321.24 161.71 321.24 161.71"/><polygon class="cls-43" points="320.22 169.93 262.23 162.72 262.23 162.72 320.22 169.93 320.22 169.93"/><polygon class="cls-44" points="326.75 111.43 268.77 104.22 268.77 104.22 326.75 111.43 326.75 111.43"/><polygon class="cls-44" points="325.73 119.65 267.75 112.44 267.75 112.44 325.73 119.65 325.73 119.65"/><polygon class="cls-44" points="323.63 136.52 265.65 129.31 265.65 129.31 323.63 136.52 323.63 136.52"/><polygon class="cls-44" points="324.66 128.3 266.67 121.08 266.67 121.08 324.66 128.3 324.66 128.3"/><polygon class="cls-44" points="322.61 144.75 264.63 137.53 264.63 137.53 322.61 144.75 322.61 144.75"/><polygon class="cls-44" points="318.46 178.06 260.48 170.85 260.48 170.85 318.46 178.06 318.46 178.06"/><polygon class="cls-44" points="317.44 186.29 259.46 179.08 259.46 179.08 317.44 186.29 317.44 186.29"/><polygon class="cls-44" points="321.59 152.97 263.6 145.76 263.6 145.76 321.59 152.97 321.59 152.97"/><polygon class="cls-44" points="320.51 161.61 262.53 154.4 262.53 154.4 320.51 161.61 320.51 161.61"/><polygon class="cls-44" points="319.49 169.84 261.5 162.63 261.5 162.63 319.49 169.84 319.49 169.84"/><polygon class="cls-45" points="327.48 111.52 269.5 104.31 269.5 104.31 327.48 111.52 327.48 111.52"/><polygon class="cls-45" points="326.46 119.75 268.47 112.53 268.47 112.53 326.46 119.75 326.46 119.75"/><polygon class="cls-45" points="324.36 136.61 266.38 129.4 266.38 129.4 324.36 136.61 324.36 136.61"/><polygon class="cls-45" points="325.38 128.39 267.4 121.17 267.4 121.17 325.38 128.39 325.38 128.39"/><polygon class="cls-45" points="323.34 144.84 265.35 137.62 265.35 137.62 323.34 144.84 323.34 144.84"/><polygon class="cls-45" points="319.19 178.16 261.21 170.94 261.21 170.94 319.19 178.16 319.19 178.16"/><polygon class="cls-45" points="318.17 186.38 260.19 179.17 260.19 179.17 318.17 186.38 318.17 186.38"/><polygon class="cls-45" points="322.31 153.06 264.33 145.85 264.33 145.85 322.31 153.06 322.31 153.06"/><polygon class="cls-45" points="321.24 161.71 263.25 154.49 263.25 154.49 321.24 161.71 321.24 161.71"/><polygon class="cls-45" points="320.22 169.93 262.23 162.72 262.23 162.72 320.22 169.93 320.22 169.93"/><polygon class="cls-46" points="326.75 111.43 268.77 104.22 268.77 104.22 326.75 111.43 326.75 111.43"/><polygon class="cls-46" points="325.73 119.65 267.75 112.44 267.75 112.44 325.73 119.65 325.73 119.65"/><polygon class="cls-46" points="323.63 136.52 265.65 129.31 265.65 129.31 323.63 136.52 323.63 136.52"/><polygon class="cls-46" points="324.66 128.3 266.67 121.08 266.67 121.08 324.66 128.3 324.66 128.3"/><polygon class="cls-46" points="322.61 144.75 264.63 137.53 264.63 137.53 322.61 144.75 322.61 144.75"/><polygon class="cls-46" points="318.46 178.06 260.48 170.85 260.48 170.85 318.46 178.06 318.46 178.06"/><polygon class="cls-46" points="318.17 186.38 260.19 179.17 260.19 179.17 318.17 186.38 318.17 186.38"/><polygon class="cls-46" points="318.46 178.06 260.48 170.85 260.48 170.85 318.46 178.06 318.46 178.06"/><polygon class="cls-46" points="320.22 169.93 262.23 162.72 262.23 162.72 320.22 169.93 320.22 169.93"/><polygon class="cls-46" points="320.51 161.61 262.53 154.4 262.53 154.4 320.51 161.61 320.51 161.61"/><polygon class="cls-46" points="321.59 152.97 263.6 145.76 263.6 145.76 321.59 152.97 321.59 152.97"/><polygon class="cls-46" points="322.61 144.75 264.63 137.53 264.63 137.53 322.61 144.75 322.61 144.75"/><polygon class="cls-46" points="324.36 136.61 266.38 129.4 266.38 129.4 324.36 136.61 324.36 136.61"/><polygon class="cls-46" points="325.38 128.39 267.4 121.17 267.4 121.17 325.38 128.39 325.38 128.39"/><polygon class="cls-46" points="326.46 119.75 268.47 112.53 268.47 112.53 326.46 119.75 326.46 119.75"/><polygon class="cls-46" points="326.75 111.43 268.77 104.22 268.77 104.22 326.75 111.43 326.75 111.43"/><polygon class="cls-46" points="317.44 186.29 259.46 179.08 259.46 179.08 317.44 186.29 317.44 186.29"/><polygon class="cls-46" points="321.59 152.97 263.6 145.76 263.6 145.76 321.59 152.97 321.59 152.97"/><polygon class="cls-46" points="320.51 161.61 262.53 154.4 262.53 154.4 320.51 161.61 320.51 161.61"/><polygon class="cls-46" points="319.49 169.84 261.5 162.63 261.5 162.63 319.49 169.84 319.49 169.84"/><path class="cls-47" d="M305.13,222.58l.67.57a9.11,9.11,0,0,1-.24.93c-.16.44-.14.61.24.85a3.52,3.52,0,0,0,.84.4,4,4,0,0,0,1.76.06.47.47,0,0,0,.42-.44c0-.23,0-.47,0-.7a7.86,7.86,0,0,1,.1-.88.45.45,0,0,1,.62-.3,1.42,1.42,0,0,1,.59,2.37,3.2,3.2,0,0,1-.54.57,2.68,2.68,0,0,1-1,.52,5.69,5.69,0,0,1-3.51-.31,2.48,2.48,0,0,1-.76-.46,1.87,1.87,0,0,1,.12-2.89A2.73,2.73,0,0,1,305.13,222.58Z" transform="translate(-19.36 -127.44)"/><path class="cls-47" d="M307.65,219.71a8.06,8.06,0,0,1,1,.16,1.46,1.46,0,0,1,1,.95,1.38,1.38,0,0,1-.5,1.64c-.34.29-.78.29-1.11.56a.16.16,0,0,1-.09,0,3,3,0,0,1-2.14-.65,1.5,1.5,0,0,1,0-2A2.36,2.36,0,0,1,307.65,219.71Z" transform="translate(-19.36 -127.44)"/><path class="cls-48" d="M306.28,223.31a3.7,3.7,0,0,0,2.07.15,2.35,2.35,0,0,1-.11,1.23.37.37,0,0,1-.23.2,2.16,2.16,0,0,1-1.46-.07.71.71,0,0,1-.44-.83C306.15,223.78,306.21,223.57,306.28,223.31Z" transform="translate(-19.36 -127.44)"/><path class="cls-35" d="M309.77,222.6a2.54,2.54,0,0,0,.35.23,1.84,1.84,0,0,1,.55,2.65,5.94,5.94,0,0,1-.91,1.05,3.71,3.71,0,0,1-2,.64,6.13,6.13,0,0,1-3.12-.57,2.53,2.53,0,0,1-1.09-.91,2.21,2.21,0,0,1-.12-2.28,2,2,0,0,1,.86-1.12c.21-.12.45-.21.72-.33,0-.15,0-.31,0-.48a2,2,0,0,1,.84-1.68,3.13,3.13,0,0,1,3-.42,2,2,0,0,1,1.42,2.06,2.08,2.08,0,0,1-.19.62A5.25,5.25,0,0,1,309.77,222.6Zm-4.64,0a2.73,2.73,0,0,0-.69.3,1.87,1.87,0,0,0-.12,2.89,2.48,2.48,0,0,0,.76.46,5.69,5.69,0,0,0,3.51.31,2.68,2.68,0,0,0,1-.52,3.2,3.2,0,0,0,.54-.57,1.42,1.42,0,0,0-.59-2.37.45.45,0,0,0-.62.3,7.86,7.86,0,0,0-.1.88c0,.23,0,.47,0,.7a.47.47,0,0,1-.42.44,4,4,0,0,1-1.76-.06,3.52,3.52,0,0,1-.84-.4c-.39-.24-.4-.41-.24-.85a9.11,9.11,0,0,0,.24-.93Zm2.52-2.87a2.36,2.36,0,0,0-1.79.7,1.5,1.5,0,0,0,0,2A3,3,0,0,0,308,223a.16.16,0,0,0,.09,0c.32-.27.77-.27,1.11-.56a1.38,1.38,0,0,0,.5-1.64,1.46,1.46,0,0,0-1-.95A8.06,8.06,0,0,0,307.65,219.71Zm-1.38,3.6c-.07.26-.13.47-.17.68a.71.71,0,0,0,.44.83,2.16,2.16,0,0,0,1.46.07.37.37,0,0,0,.23-.2,2.35,2.35,0,0,0,.11-1.23A3.7,3.7,0,0,1,306.28,223.31Z" transform="translate(-19.36 -127.44)"/><path d="M307.84,228.59c.08-.35.15-.71.26-1.05.35-1.16-1.45-1.65-1.81-.5-.11.35-.18.7-.26,1.05-.26,1.18,1.55,1.68,1.81.5Z" transform="translate(-19.36 -127.44)"/><path d="M305.25,227.11a5.19,5.19,0,0,1,0,1,.94.94,0,0,0,.94.94,1,1,0,0,0,.94-.94,5.19,5.19,0,0,0,0-1,1,1,0,0,0-.94-.94,1,1,0,0,0-.94.94Z" transform="translate(-19.36 -127.44)"/><path d="M304,227.57a4.71,4.71,0,0,1,1.39-.13,6.2,6.2,0,0,1,1.25.16,5.88,5.88,0,0,1,1.2.4,4.22,4.22,0,0,1,1.19.76,3.27,3.27,0,0,1-1.38.4,4.35,4.35,0,0,1-2.6-.6A3.09,3.09,0,0,1,304,227.57Z" transform="translate(-19.36 -127.44)"/><path class="cls-49" d="M379.12,288.75c.75,0,1.49,0,2.2.07,3.58.6-.89,5.66,1.79,8.95l3.58-3.58a5.76,5.76,0,0,0,0,8.35s-1.19.6-.89,1.49c1.19-1.79,3.58-2.39,5.37-3-2.68,1.49-2.38,5.37-1.49,6.26,2.39,4.17,2.39,6.56,3.58,10.73.3,1.49,2.09,2.68,1.79,4.77,0,1.79-3,1.19-4.47.3l5.67,5.67c-1.49.3-2.68.89-3.88.3l2.09,2.09c-1.49.89-3.58.6-5.07,1.49,1.79,1.19,3,3.58,2.09,5.67-.3.3-2.09-.3-1.79,0,.89,2.09,1.19,4.17,2.39,5.37,2.38,1.79,5.66.89,5.37,5.37a8.82,8.82,0,0,1,3-.6c-1.19,3,.9,4.47,3.28,5.66-.89.89-1.79,2.38-.6,3,.6.59,1.79-1.79,3.28-.3a4.16,4.16,0,0,0-1.3,2.87c2.16-1.12,4.66-1.61,5.47-4.06l-1.49-1.49a4.21,4.21,0,0,1,2.68-.3l-.9-.9c.9-2.09,3.28-1.49,5.07-2.68l-.89-.89c1.19-.6,2.39,0,3.28-.3.6-.59-.89-.89-.6-1.19a1.12,1.12,0,0,1,1.79,0l-.9-.89c.6-.6,1.19,0,1.49.3.3-1.49,1.49-1.49,2.68-1.49l-1.19-1.19c.3.3,1.19,0,1.49.3-1.79-1.19.89-1.49,1.19-2.38l-.89-.89c2.09-1.49,3.58-3,6.26-3.28,0-.6-2.39-1.19-.89-2.09s3.28-1.49,4.77-2.39c.59-.59,2.68-.3,3.87-.3,1.19-.6-.3-.89-.3-1.49s.3-.3.6,0l-.89-.89c.59-.6,2.09.89,2.38,0,0-1.19-2.38-2.39-.89-3.28.89-.89,2.39,1.19,3.88.3-1.49-1.49-1.79-3.58-2.09-5.67,2.09,1.49,4.17,2.39,6.56,1.79-.89-.89-.89-2.09-1.79-3,1.19-.6,2.39,1.19,2.68.3,1.19-2.38,2.68-4.47,3.58-7.16.3.3,1.19.6,1.49.3,0-.6-1.49-2.09-.3-2.68l1.49,1.49c.48-1.92,1.15-4.42,2.49-5.17L407.87,260Z" transform="translate(-19.36 -127.44)"/><path class="cls-50" d="M409.36,261.49,381.89,289a1.57,1.57,0,0,1,.37.22l27.4-27.4Z" transform="translate(-19.36 -127.44)"/><path class="cls-50" d="M412.59,264.72,382.21,295.1c0,.18,0,.36,0,.55L412.88,265Z" transform="translate(-19.36 -127.44)"/><path class="cls-50" d="M415.82,267.95l-30.89,30.89c0,.17,0,.34.07.51l31.11-31.11Z" transform="translate(-19.36 -127.44)"/><path class="cls-50" d="M419,271.17l-31,31c.33-.17.68-.31,1-.45l30.29-30.29Z" transform="translate(-19.36 -127.44)"/><path class="cls-50" d="M422.27,274.4l-32.73,32.73a1.31,1.31,0,0,0,.14.17l.1.18,32.79-32.79Z" transform="translate(-19.36 -127.44)"/><path class="cls-50" d="M425.5,277.62l-33.92,33.92.14.44,34.07-34.07Z" transform="translate(-19.36 -127.44)"/><path class="cls-50" d="M428.72,280.85l-35.83,35.83.12.47,36-36Z" transform="translate(-19.36 -127.44)"/><path class="cls-50" d="M391.74,324.28l.29.29.69-.68-.48-.1Z" transform="translate(-19.36 -127.44)"/><path class="cls-50" d="M431.95,284.08l-37.1,37.09a3.63,3.63,0,0,1,.14.45l37.25-37.25Z" transform="translate(-19.36 -127.44)"/><path class="cls-50" d="M435.17,287.3,395,327.51l.29.29,40.2-40.2Z" transform="translate(-19.36 -127.44)"/><path class="cls-50" d="M393.18,329.3l-.29.29.29.29.58-.58A3,3,0,0,1,393.18,329.3Z" transform="translate(-19.36 -127.44)"/><path class="cls-50" d="M389.94,339l.16.43,1-1a3.5,3.5,0,0,1-.54,0Z" transform="translate(-19.36 -127.44)"/><path class="cls-50" d="M438.4,290.53l-46.65,46.65a3.75,3.75,0,0,1-.14.72l47.09-47.08Z" transform="translate(-19.36 -127.44)"/><path class="cls-50" d="M390.58,338.35a3.5,3.5,0,0,0,.54,0l.49-.49a3.75,3.75,0,0,0,.14-.72Z" transform="translate(-19.36 -127.44)"/><path class="cls-50" d="M441.63,293.76l-49.74,49.74.17.18.14.1L441.92,294Z" transform="translate(-19.36 -127.44)"/><path class="cls-50" d="M444.85,297,396.2,345.63a2.86,2.86,0,0,1,.32.26l48.62-48.62Z" transform="translate(-19.36 -127.44)"/><path class="cls-50" d="M448.08,300.21l-48.27,48.27.59,0v0l48-48Z" transform="translate(-19.36 -127.44)"/><path class="cls-50" d="M451.3,303.44,401.77,353l.34.24,49.49-49.49Z" transform="translate(-19.36 -127.44)"/><path class="cls-50" d="M454.53,306.66l-49.76,49.75a1.42,1.42,0,0,1,.69-.11L454.82,307Z" transform="translate(-19.36 -127.44)"/><path class="cls-50" d="M443.41,324.24l.47.11,1.75-1.75c-.06-.14-.12-.27-.19-.4Z" transform="translate(-19.36 -127.44)"/><path class="cls-50" d="M446.6,321.63l2-2,.75-1.33-3.09,3.09Z" transform="translate(-19.36 -127.44)"/><path class="cls-50" d="M429.54,338.11l-.25.25.34,0A.35.35,0,0,0,429.54,338.11Z" transform="translate(-19.36 -127.44)"/><path class="cls-50" d="M436.78,331.16l.15.15.29-.29A.54.54,0,0,0,436.78,331.16Z" transform="translate(-19.36 -127.44)"/><path class="cls-50" d="M422.9,344.75l0,0a.46.46,0,0,1,.19.1Z" transform="translate(-19.36 -127.44)"/><path class="cls-50" d="M439.73,327.91l.41.18,1.11-1.11c-.07-.13-.14-.25-.2-.39Z" transform="translate(-19.36 -127.44)"/><path class="cls-50" d="M434.08,333.57a4,4,0,0,1,.67-.09l2.18-2.18-.15-.15a.54.54,0,0,1,.44-.14l1.23-1.23-.25-.33Z" transform="translate(-19.36 -127.44)"/><path class="cls-50" d="M406.54,261.33,455,309.82c.07-.13.14-.25.21-.37L406.83,261Z" transform="translate(-19.36 -127.44)"/><path class="cls-50" d="M403.31,264.55l48.57,48.57a1,1,0,0,1,0-.6l-48.26-48.26Z" transform="translate(-19.36 -127.44)"/><path class="cls-50" d="M400.09,267.78l49.69,49.69.2-.39-49.59-49.59Z" transform="translate(-19.36 -127.44)"/><path class="cls-50" d="M396.86,271l50.64,50.64v0l.18-.35-50.54-50.55Z" transform="translate(-19.36 -127.44)"/><path class="cls-50" d="M393.64,274.23l50.08,50.08a6.6,6.6,0,0,0,.71.13l-50.5-50.5Z" transform="translate(-19.36 -127.44)"/><path class="cls-50" d="M390.41,277.46l50.94,50.94a1.47,1.47,0,0,0,.5-.09L390.7,277.17Z" transform="translate(-19.36 -127.44)"/><path class="cls-50" d="M387.18,280.69l50.4,50.4c.3.09.62.24.9.32l-51-51Z" transform="translate(-19.36 -127.44)"/><path class="cls-50" d="M384,283.91l49.77,49.77a1.78,1.78,0,0,1,.44-.14l-49.92-49.93Z" transform="translate(-19.36 -127.44)"/><path class="cls-50" d="M380.73,287.14l48.7,48.7.39-.2L381,286.85Z" transform="translate(-19.36 -127.44)"/><path class="cls-50" d="M389.67,302.53l36.84,36.84.38-.21-37-37C389.82,302.29,389.74,302.41,389.67,302.53Z" transform="translate(-19.36 -127.44)"/><path class="cls-50" d="M382.22,294.5c0,.19,0,.38,0,.57l1.8,1.8.29-.29Z" transform="translate(-19.36 -127.44)"/><path class="cls-50" d="M389.67,302.53c.07-.12.15-.24.23-.35l-.54-.54-.42.16Z" transform="translate(-19.36 -127.44)"/><path class="cls-50" d="M384.93,297.79l4,4,.42-.16L385,297.28C385,297.45,385,297.62,384.93,297.79Z" transform="translate(-19.36 -127.44)"/><path class="cls-50" d="M391.21,310.53,423.73,343a2.13,2.13,0,0,0,.33-.26l-33.25-33.25C391,309.88,391.09,310.2,391.21,310.53Z" transform="translate(-19.36 -127.44)"/><path class="cls-50" d="M394.27,320l26.28,26.28a1.42,1.42,0,0,1,.33-.25l-27.43-27.43A12,12,0,0,0,394.27,320Z" transform="translate(-19.36 -127.44)"/><path class="cls-50" d="M390.57,323.1l5.67,5.67h-.08l20.28,20.28.62,0-25.55-25.55A6,6,0,0,1,390.57,323.1Z" transform="translate(-19.36 -127.44)"/><path class="cls-50" d="M392.68,331.76l19.7,19.7.43-.15-19.65-19.65Z" transform="translate(-19.36 -127.44)"/><path class="cls-50" d="M391.74,337.27l18.68,18.68c0-.11.09-.22.13-.34l-1.49-1.49.08,0-17.37-17.37A3.89,3.89,0,0,1,391.74,337.27Z" transform="translate(-19.36 -127.44)"/><path class="cls-50" d="M392.67,344.07l-1.25-1.25a4.11,4.11,0,0,0,.64.86A5.21,5.21,0,0,0,392.67,344.07Z" transform="translate(-19.36 -127.44)"/><path class="cls-50" d="M404.54,356.53a2,2,0,0,1,.41-.17l-1.73-1.73L403,355Z" transform="translate(-19.36 -127.44)"/><path class="cls-50" d="M397.59,349l-.15-.15c0,.07,0,.14,0,.21Z" transform="translate(-19.36 -127.44)"/><path class="cls-1" d="M382.66,270.07h3.46C385,270.07,383.84,270,382.66,270.07Z" transform="translate(-19.36 -127.44)"/><polygon class="cls-51" points="377.09 144.22 378.27 144.19 377.69 143.61 377.09 144.22"/><rect class="cls-52" x="404.83" y="264.28" width="4.15" height="0.41" transform="translate(-87.2 237.75) rotate(-45)"/><polygon class="cls-52" points="389.45 135.43 390.49 134.39 390.49 134.39 390.19 134.1 390.19 134.1 389.16 135.13 389.45 135.43"/><polygon class="cls-52" points="383 141.88 385.93 138.95 385.64 138.65 382.71 141.59 383 141.88"/><polygon class="cls-52" points="382.41 141.88 380.16 144.14 380.76 144.12 382.71 142.17 382.41 141.88"/><polygon class="cls-52" points="389.45 141.88 392.38 138.95 392.09 138.65 389.16 141.59 389.45 141.88"/><polygon class="cls-52" points="392.68 138.65 393.71 137.62 393.71 137.62 393.42 137.32 392.39 138.36 392.68 138.65"/><polygon class="cls-52" points="388.87 141.88 386.78 143.97 387.38 143.95 389.16 142.17 388.87 141.88"/><polygon class="cls-52" points="395.9 141.88 396.94 140.84 396.94 140.84 396.65 140.55 396.65 140.55 395.61 141.59 395.9 141.88"/><polygon class="cls-52" points="395.32 141.88 393.4 143.8 394 143.78 395.61 142.17 395.32 141.88"/><polygon class="cls-52" points="395.61 141.59 392.68 138.65 392.39 138.36 389.45 135.43 389.16 135.13 387.66 133.64 387.37 133.93 388.87 135.43 389.16 135.72 392.09 138.65 392.38 138.95 395.32 141.88 395.61 142.17 397.14 143.7 397.71 143.69 395.9 141.88 395.61 141.59"/><polygon class="cls-52" points="389.16 141.59 386.23 138.65 385.93 138.36 384.44 136.87 384.15 137.16 385.64 138.65 385.93 138.95 388.87 141.88 389.16 142.17 390.85 143.86 391.42 143.85 389.45 141.88 389.16 141.59"/><polygon class="cls-52" points="382.71 141.59 381.21 140.09 380.92 140.38 382.41 141.88 382.71 142.17 384.56 144.02 385.13 144.01 383 141.88 382.71 141.59"/><polygon class="cls-52" points="377.99 143.32 377.69 143.61 377.69 143.61 378.27 144.19 378.84 144.17 377.99 143.32 377.99 143.32"/><path class="cls-53" d="M413.23,263.59a1.77,1.77,0,0,1-.58.56.39.39,0,0,0-.22.46,2.23,2.23,0,0,0,.91,1.57,1.49,1.49,0,0,0,1.19.32.54.54,0,0,0,.44-.34,2.67,2.67,0,0,1,.39-.52c.27.12.34.39.48.61a.72.72,0,0,1,.06.61,1.17,1.17,0,0,1-1.38,1,3.48,3.48,0,0,1-2.49-1.22c-.16-.17-.33-.34-.49-.5a3.32,3.32,0,0,1-.69-1.1,1.25,1.25,0,0,1,0-.52,1.42,1.42,0,0,1,2.12-1.11Z" transform="translate(-19.36 -127.44)"/><path class="cls-54" d="M416.17,264.22l-.58.74c-.13.16-.26.33-.41.48s-.44.45-.67.67a.41.41,0,0,1-.43.08,1.75,1.75,0,0,1-.36-.13,2.1,2.1,0,0,1-.88-1,.66.66,0,0,1,.2-.82c.19-.16.36-.33.54-.51s.37-.4.55-.59l.29-.28Z" transform="translate(-19.36 -127.44)"/><path class="cls-53" d="M415.67,263.47l-1-.87a1.12,1.12,0,0,1-.31-.76c0-.32.37-.61.75-.54a2.93,2.93,0,0,1,.77.22,3.89,3.89,0,0,1,1.4,1,1.86,1.86,0,0,1,.46,1,.62.62,0,0,1-.85.72,3.4,3.4,0,0,1-1-.65l-.22-.17Z" transform="translate(-19.36 -127.44)"/><path class="cls-33" d="M409.69,269.48a.83.83,0,0,1,.22-.64c.35-.42.72-.84,1.08-1.25l.68-.75c.42.25.42.25.55.55A8,8,0,0,1,409.69,269.48Z" transform="translate(-19.36 -127.44)"/><path class="cls-35" d="M411.53,266.6a5.74,5.74,0,0,1-.41-.49c-.21-.31-.39-.64-.58-1a.37.37,0,0,1-.06-.16,2,2,0,0,1,.38-1.52,1.94,1.94,0,0,1,.62-.37s.1,0,.14,0c.57-.38,1.07-.09,1.58.15l.32.15.73-.73c0-.12-.07-.27-.12-.41A.92.92,0,0,1,415,261a2.4,2.4,0,0,1,1.24.33,5.92,5.92,0,0,1,1.12.78,2.06,2.06,0,0,1,.74,1.61.9.9,0,0,1-.88.91.94.94,0,0,1-.61-.12.27.27,0,0,0-.38.07l-.61.7a3.47,3.47,0,0,1,.2.3,4.93,4.93,0,0,1,.37.75,1.49,1.49,0,0,1-.94,1.74,2.59,2.59,0,0,1-1.45,0c-.4-.11-.79-.28-1.24-.45a1.42,1.42,0,0,0-.72.55,15.19,15.19,0,0,1-1.28,1.21,2.2,2.2,0,0,1-.79.44.33.33,0,0,1-.39-.07.36.36,0,0,1-.1-.42,3.54,3.54,0,0,1,.29-.52,22.64,22.64,0,0,1,1.62-1.83Zm1.7-3-.31-.19a1.42,1.42,0,0,0-2.12,1.11,1.25,1.25,0,0,0,0,.52,3.32,3.32,0,0,0,.69,1.1c.17.16.34.33.49.5a3.48,3.48,0,0,0,2.49,1.22,1.17,1.17,0,0,0,1.38-1,.72.72,0,0,0-.06-.61c-.14-.22-.21-.49-.48-.61a2.67,2.67,0,0,0-.39.52.54.54,0,0,1-.44.34,1.49,1.49,0,0,1-1.19-.32,2.23,2.23,0,0,1-.91-1.57.39.39,0,0,1,.22-.46A1.77,1.77,0,0,0,413.23,263.59Zm2.94.63-1.74-1.35-.29.28c-.19.2-.36.4-.55.59s-.35.35-.54.51a.66.66,0,0,0-.2.82,2.1,2.1,0,0,0,.88,1,1.75,1.75,0,0,0,.36.13.41.41,0,0,0,.43-.08c.23-.22.46-.44.67-.67s.28-.32.41-.48Zm-.5-.74,0,0,.22.17a3.4,3.4,0,0,0,1,.65.62.62,0,0,0,.85-.72,1.86,1.86,0,0,0-.46-1,3.89,3.89,0,0,0-1.4-1,2.93,2.93,0,0,0-.77-.22c-.39-.07-.79.23-.75.54a1.12,1.12,0,0,0,.31.76Zm-6,6a8,8,0,0,0,2.53-2.1c-.13-.3-.13-.3-.55-.55l-.68.75c-.36.41-.73.82-1.08,1.25A.83.83,0,0,0,409.69,269.48Z" transform="translate(-19.36 -127.44)"/></g></g></svg>