<svg xmlns="http://www.w3.org/2000/svg" xmlns:xlink="http://www.w3.org/1999/xlink" viewBox="0 0 475 257.86"><defs><style>.cls-1{isolation:isolate;}.cls-2{fill:#514f4e;}.cls-3{fill:#a09c8b;stroke-width:3px;}.cls-10,.cls-11,.cls-12,.cls-13,.cls-14,.cls-15,.cls-16,.cls-17,.cls-18,.cls-19,.cls-20,.cls-21,.cls-22,.cls-23,.cls-24,.cls-25,.cls-26,.cls-27,.cls-28,.cls-29,.cls-3,.cls-30,.cls-31,.cls-4,.cls-5,.cls-6,.cls-7,.cls-8,.cls-9{stroke:#000;stroke-linecap:round;stroke-linejoin:round;}.cls-4{fill:#ff0;}.cls-10,.cls-11,.cls-12,.cls-13,.cls-14,.cls-15,.cls-16,.cls-17,.cls-18,.cls-19,.cls-20,.cls-21,.cls-22,.cls-23,.cls-24,.cls-25,.cls-26,.cls-27,.cls-28,.cls-29,.cls-30,.cls-31,.cls-4,.cls-5,.cls-6,.cls-7,.cls-8,.cls-9{stroke-width:2px;}.cls-12,.cls-5{fill:#fff;mix-blend-mode:screen;}.cls-5{opacity:0.5;}.cls-6{fill:url(#linear-gradient);}.cls-13,.cls-18,.cls-23,.cls-28,.cls-7{mix-blend-mode:multiply;}.cls-7{fill:url(#radial-gradient);}.cls-8{fill:url(#Silver);}.cls-9{fill:url(#linear-gradient-2);}.cls-10{fill:url(#linear-gradient-3);}.cls-11{fill:#29abe2;}.cls-12{opacity:0.3;}.cls-13{fill:url(#radial-gradient-2);}.cls-14{fill:url(#Silver-2);}.cls-15{fill:url(#linear-gradient-4);}.cls-16{fill:url(#linear-gradient-5);}.cls-17{fill:#fa89be;}.cls-18{fill:url(#radial-gradient-3);}.cls-19{fill:url(#Silver-3);}.cls-20{fill:url(#linear-gradient-6);}.cls-21{fill:url(#linear-gradient-7);}.cls-22{fill:#f7931e;}.cls-23{fill:url(#radial-gradient-4);}.cls-24{fill:url(#Silver-4);}.cls-25{fill:url(#linear-gradient-8);}.cls-26{fill:url(#linear-gradient-9);}.cls-27{fill:#8af9d1;}.cls-28{fill:url(#radial-gradient-5);}.cls-29{fill:url(#Silver-5);}.cls-30{fill:url(#linear-gradient-10);}.cls-31{fill:url(#linear-gradient-11);}</style><linearGradient id="linear-gradient" x1="331.18" y1="198.57" x2="328.89" y2="204.54" gradientUnits="userSpaceOnUse"><stop offset="0.06" stop-color="#ff0"/><stop offset="0.13" stop-color="#fcea07"/><stop offset="0.25" stop-color="#f9cb11"/><stop offset="0.38" stop-color="#f6b318"/><stop offset="0.52" stop-color="#f4a11e"/><stop offset="0.66" stop-color="#f29721"/><stop offset="0.84" stop-color="#f29422"/></linearGradient><radialGradient id="radial-gradient" cx="550.82" cy="132.59" r="0.29" gradientTransform="translate(705.19 -272.61) rotate(116.35)" gradientUnits="userSpaceOnUse"><stop offset="0"/><stop offset="0.19" stop-color="#030303"/><stop offset="0.32" stop-color="#0c0c0c"/><stop offset="0.44" stop-color="#1c1c1c"/><stop offset="0.54" stop-color="#323232"/><stop offset="0.64" stop-color="#4e4e4e"/><stop offset="0.74" stop-color="#717171"/><stop offset="0.83" stop-color="#9b9b9b"/><stop offset="0.92" stop-color="#cacaca"/><stop offset="1" stop-color="#fff"/></radialGradient><linearGradient id="Silver" x1="550.82" y1="131.41" x2="550.01" y2="131.99" gradientTransform="matrix(0.56, 0.83, -0.83, 0.56, 141.84, -367.89)" gradientUnits="userSpaceOnUse"><stop offset="0" stop-color="#e5e2df"/><stop offset="0" stop-color="#ded9d6"/><stop offset="0.06" stop-color="#cfcac9"/><stop offset="0.18" stop-color="#a8a4a7"/><stop offset="0.26" stop-color="#8b878d"/><stop offset="0.52" stop-color="#f3f4f4"/><stop offset="0.58" stop-color="#e5e5e6"/><stop offset="0.7" stop-color="#c0bec0"/><stop offset="0.86" stop-color="#858085"/><stop offset="0.88" stop-color="#807b80"/><stop offset="1" stop-color="#d1d3d4"/><stop offset="1" stop-color="#a7a9ac"/></linearGradient><linearGradient id="linear-gradient-2" x1="529.8" y1="170.1" x2="524.56" y2="174.01" gradientTransform="translate(137.81 -357.68) rotate(50.18)" gradientUnits="userSpaceOnUse"><stop offset="0.18" stop-color="red"/><stop offset="0.76" stop-color="#8c171b"/></linearGradient><linearGradient id="linear-gradient-3" x1="552.71" y1="-175.66" x2="552.46" y2="-170.83" gradientTransform="matrix(0, 1.14, -1.07, 0, 159.97, -477.56)" xlink:href="#linear-gradient-2"/><radialGradient id="radial-gradient-2" cx="237.21" cy="195.91" r="0.27" gradientTransform="translate(111.64 -84.95) rotate(26.36)" xlink:href="#radial-gradient"/><linearGradient id="Silver-2" x1="237.21" y1="194.79" x2="236.45" y2="195.34" gradientTransform="matrix(1, 0, 0, 1, 0, 0)" xlink:href="#Silver"/><linearGradient id="linear-gradient-4" x1="211.63" y1="202.89" x2="206.68" y2="206.58" gradientTransform="matrix(1, -0.1, 0.1, 1, 6.06, 9.02)" gradientUnits="userSpaceOnUse"><stop offset="0.18" stop-color="#8cc63f"/><stop offset="0.76" stop-color="#006837"/></linearGradient><linearGradient id="linear-gradient-5" x1="287.17" y1="-269.62" x2="286.93" y2="-265.06" gradientTransform="matrix(1.14, 0, 0, 1.07, -95.03, 475.15)" xlink:href="#linear-gradient-4"/><radialGradient id="radial-gradient-3" cx="240.35" cy="166.54" r="0.27" gradientTransform="matrix(-0.44, 0.9, -0.9, -0.44, 489.83, 135.61)" xlink:href="#radial-gradient"/><linearGradient id="Silver-3" x1="240.35" y1="165.46" x2="239.61" y2="165.99" gradientTransform="matrix(0.59, 0.81, -0.81, 0.59, 227.24, -15.29)" xlink:href="#Silver"/><linearGradient id="linear-gradient-6" x1="217.58" y1="174.8" x2="212.78" y2="178.38" gradientTransform="translate(224.02 -5.48) rotate(48.37)" xlink:href="#linear-gradient-2"/><linearGradient id="linear-gradient-7" x1="301.98" y1="-290.68" x2="301.76" y2="-286.27" gradientTransform="matrix(0, 1.14, -1.07, 0, -71.85, -75.52)" xlink:href="#linear-gradient-2"/><radialGradient id="radial-gradient-4" cx="237" cy="13.82" r="0.29" gradientTransform="translate(135.92 125.41) rotate(26.35)" xlink:href="#radial-gradient"/><linearGradient id="Silver-4" x1="237" y1="12.63" x2="236.2" y2="13.21" gradientTransform="translate(104.83 236.9) rotate(-1.86)" xlink:href="#Silver"/><linearGradient id="linear-gradient-8" x1="229.32" y1="21.58" x2="224.06" y2="25.5" gradientTransform="matrix(0.99, -0.13, 0.13, 0.99, 111.04, 245.44)" gradientUnits="userSpaceOnUse"><stop offset="0.18" stop-color="#29abe2"/><stop offset="0.76" stop-color="#1b1464"/></linearGradient><linearGradient id="linear-gradient-9" x1="366.47" y1="-417" x2="366.22" y2="-412.16" gradientTransform="matrix(1.14, 0, 0, 1.07, -81.21, 679.51)" xlink:href="#linear-gradient-8"/><radialGradient id="radial-gradient-5" cx="144.55" cy="180.96" r="0.27" gradientTransform="matrix(-0.9, 0.44, 0.44, 0.9, 193.34, -18.28)" xlink:href="#radial-gradient"/><linearGradient id="Silver-5" x1="144.55" y1="179.87" x2="143.82" y2="180.41" gradientTransform="matrix(-0.59, 0.81, 0.81, 0.59, 82.8, -15.29)" xlink:href="#Silver"/><linearGradient id="linear-gradient-10" x1="120.83" y1="179.79" x2="116.03" y2="183.36" gradientTransform="matrix(-0.66, 0.75, 0.75, 0.66, 86.02, -5.48)" xlink:href="#linear-gradient-2"/><linearGradient id="linear-gradient-11" x1="223.04" y1="-323.59" x2="222.81" y2="-319.18" gradientTransform="matrix(-1.14, 0, 0, 1.07, 395.47, 545.12)" xlink:href="#linear-gradient-2"/></defs><title>task tabel2</title><g class="cls-1"><g id="Слой_1" data-name="Слой 1"><rect class="cls-2" x="5.5" y="7.71" width="464" height="244"/><path class="cls-3" d="M22,129.79V384.64H494V129.79ZM482.79,374.93H33.21V139.5H482.79Z" transform="translate(-20.5 -128.29)"/><path class="cls-4" d="M312.92,161.67l1.8,28s.33,8.83,3.27,11l12.92,6.22s6.22,3.93,10,4.25c0,0,11,1.31,16,.82,0,0,12.6-1.15,14.07-1.31l-4.25-53.69Z" transform="translate(-20.5 -128.29)"/><polygon class="cls-5" points="346.75 35.04 292.79 39.2 292.42 33.38 346.24 28.6 346.75 35.04"/><path class="cls-6" d="M316.94,199.42s2,3.3,7.51-.38c0,0,7.61,10.48,15.87,11.95A55,55,0,0,1,316.94,199.42Z" transform="translate(-20.5 -128.29)"/><ellipse class="cls-7" cx="341.93" cy="162.13" rx="0.23" ry="0.34" transform="translate(12.18 251.95) rotate(-60.56)"/><path class="cls-8" d="M342.66,160.32l-1,1.78s.16.24.38.18l1.09-1.91Z" transform="translate(-20.5 -128.29)"/><path class="cls-9" d="M345.37,158.26l1.39-3.3-2-.63-1.59,2.77a2.72,2.72,0,0,0-2.22,1.32,4,4,0,0,0,1.87,2,2.92,2.92,0,0,0,2.67.32A2.61,2.61,0,0,0,345.37,158.26Z" transform="translate(-20.5 -128.29)"/><ellipse class="cls-10" cx="346.07" cy="154.13" rx="1.28" ry="2.06" transform="translate(35.7 269.75) rotate(-64.09)"/><path class="cls-5" d="M347.57,155.17l-.12,0-.14,0h-.52l-.12,0-.25-.06-.26-.09-.25-.12-.22-.13-.2-.14-.09-.07-.08-.07-.13-.13-.09-.11-.07-.1.1.08.11.09.15.1.17.11.2.12.23.12.23.1.24.09.24.07.12,0,.11,0,.21,0,.18,0h.26Z" transform="translate(-20.5 -128.29)"/><ellipse class="cls-5" cx="343.69" cy="158.73" rx="0.4" ry="0.25" transform="translate(-42.45 128.56) rotate(-39.81)"/><ellipse class="cls-5" cx="344.22" cy="159.74" rx="0.23" ry="0.15" transform="translate(-42.96 129.17) rotate(-39.82)"/><rect class="cls-11" x="192.87" y="63.63" width="49.9" height="50.08"/><rect class="cls-12" x="192.87" y="63.63" width="49.9" height="6.02"/><ellipse class="cls-13" cx="237.21" cy="195.91" rx="0.32" ry="0.22" transform="translate(-82.82 -2.6) rotate(-26.36)"/><path class="cls-14" d="M236.18,194.38l.87,1.72s.27,0,.34-.21l-.91-1.87Z" transform="translate(-20.5 -128.29)"/><path class="cls-15" d="M236,191.16l-1.84-2.84-1.57,1.26,1.32,2.71a2.57,2.57,0,0,0-.15,2.44,3.76,3.76,0,0,0,2.59-.37,2.76,2.76,0,0,0,1.67-1.92A2.47,2.47,0,0,0,236,191.16Z" transform="translate(-20.5 -128.29)"/><ellipse class="cls-16" cx="233.16" cy="188.43" rx="1.95" ry="1.21" transform="translate(-83.37 12.88) rotate(-29.87)"/><path class="cls-5" d="M234.77,187.81l0,.11-.05.12a1.15,1.15,0,0,1-.09.15l-.05.08-.07.08-.07.09-.08.08-.18.17-.2.15-.22.13-.22.1-.22.08-.1,0-.1,0-.17,0h-.25l.11,0,.12,0,.16-.06.18-.08.2-.09.21-.12.2-.13.2-.14.18-.15.08-.07.08-.08.14-.14.11-.13.08-.1Z" transform="translate(-20.5 -128.29)"/><ellipse class="cls-5" cx="235.49" cy="192.73" rx="0.24" ry="0.37" transform="translate(-38.2 -104.36) rotate(-5.61)"/><ellipse class="cls-5" cx="236.56" cy="192.85" rx="0.14" ry="0.22" transform="translate(-38.25 -104.19) rotate(-5.62)"/><path class="cls-17" d="M210.28,272.27,259,277.8,253.92,326s-33-1.65-46.48-8.83a107.51,107.51,0,0,1,1-27.54C211,275,210.28,272.27,210.28,272.27Z" transform="translate(-20.5 -128.29)"/><path class="cls-5" d="M259,277.8l-.64,6-48.29-5.48c.5-4.94.17-6.1.17-6.1Z" transform="translate(-20.5 -128.29)"/><ellipse class="cls-18" cx="233.9" cy="277.04" rx="0.21" ry="0.31" transform="translate(-140.51 227.55) rotate(-62.38)"/><path class="cls-19" d="M234.51,275.36l-.85,1.66s.15.21.36.15l.94-1.78Z" transform="translate(-20.5 -128.29)"/><path class="cls-20" d="M236.93,273.4l1.18-3.06-1.88-.52-1.37,2.58a2.49,2.49,0,0,0-2,1.27,3.64,3.64,0,0,0,1.77,1.82,2.67,2.67,0,0,0,2.45.21A2.39,2.39,0,0,0,236.93,273.4Z" transform="translate(-20.5 -128.29)"/><ellipse class="cls-21" cx="237.45" cy="269.6" rx="1.17" ry="1.89" transform="translate(-126.11 247.97) rotate(-65.9)"/><path class="cls-5" d="M238.85,270.51l-.11,0-.13,0-.17,0h-.31l-.11,0-.23,0-.24-.07-.23-.1-.21-.11-.19-.13-.08-.06-.07-.06-.12-.11-.08-.1-.07-.09.09.07.1.08.14.09.16.1.19.1.21.1.22.09.22.07.22.06.11,0,.1,0,.19,0h.4Z" transform="translate(-20.5 -128.29)"/><ellipse class="cls-5" cx="235.4" cy="273.88" rx="0.36" ry="0.23" transform="translate(-142.99 97.26) rotate(-41.63)"/><ellipse class="cls-5" cx="235.92" cy="274.79" rx="0.21" ry="0.14" transform="translate(-143.47 97.9) rotate(-41.64)"/><path class="cls-22" d="M315,245.54l50.85-10.66s3.78,30.84,14.85,47.9l-53.4,12S315.49,253.91,315,245.54Z" transform="translate(-20.5 -128.29)"/><path class="cls-5" d="M367,242.27l-50.54,10.6c0,.58.12,1.31.25,2.18a72.44,72.44,0,0,1-1.73-9.5l50.85-10.66S366.21,237.77,367,242.27Z" transform="translate(-20.5 -128.29)"/><ellipse class="cls-23" cx="342.17" cy="243" rx="0.34" ry="0.23" transform="translate(-94.73 62.37) rotate(-28.22)"/><path class="cls-24" d="M341,241.42l1,1.79s.29,0,.35-.23l-1-1.95Z" transform="translate(-20.5 -128.29)"/><path class="cls-25" d="M340.73,238l-2-2.95-1.63,1.39,1.5,2.84a2.73,2.73,0,0,0-.08,2.59,4,4,0,0,0,2.74-.49,2.93,2.93,0,0,0,1.7-2.1A2.62,2.62,0,0,0,340.73,238Z" transform="translate(-20.5 -128.29)"/><ellipse class="cls-26" cx="337.6" cy="235.2" rx="2.07" ry="1.28" transform="translate(-93.74 84.46) rotate(-31.74)"/><path class="cls-5" d="M339.29,234.49l0,.12a.81.81,0,0,1-.05.13,1.21,1.21,0,0,1-.09.16l-.06.09-.07.09-.07.1-.08.09-.19.18-.21.17-.23.15-.23.12-.23.09-.11,0-.1,0-.18,0h-.26l.12,0,.13,0,.17-.07.19-.09.21-.11.22-.13.21-.14.2-.16.19-.16.09-.08.08-.08.14-.16.11-.14.08-.11Z" transform="translate(-20.5 -128.29)"/><ellipse class="cls-5" cx="340.23" cy="239.69" rx="0.25" ry="0.4" transform="translate(-48.76 -82.05) rotate(-7.46)"/><ellipse class="cls-5" cx="341.37" cy="239.78" rx="0.15" ry="0.24" transform="translate(-48.68 -82.05) rotate(-7.44)"/><path class="cls-27" d="M167.76,203.27,119,208.8l5.12,48.2s33-1.65,46.48-8.83a107.51,107.51,0,0,0-1-27.54C167,206,167.76,203.27,167.76,203.27Z" transform="translate(-20.5 -128.29)"/><path class="cls-5" d="M119,208.8l.64,6,48.29-5.48c-.5-4.94-.17-6.1-.17-6.1Z" transform="translate(-20.5 -128.29)"/><ellipse class="cls-28" cx="144.15" cy="208.04" rx="0.31" ry="0.21" transform="translate(-100.53 -37.74) rotate(-27.62)"/><path class="cls-29" d="M143.54,206.36l.85,1.66s-.15.21-.36.15l-.94-1.78Z" transform="translate(-20.5 -128.29)"/><path class="cls-30" d="M141.11,204.4l-1.18-3.06,1.88-.52,1.37,2.58a2.49,2.49,0,0,1,2,1.27,3.64,3.64,0,0,1-1.77,1.82,2.67,2.67,0,0,1-2.45.21A2.39,2.39,0,0,1,141.11,204.4Z" transform="translate(-20.5 -128.29)"/><ellipse class="cls-31" cx="140.6" cy="200.6" rx="1.89" ry="1.17" transform="translate(-90.16 -53.38) rotate(-24.1)"/><path class="cls-5" d="M139.19,201.51l.11,0,.13,0,.17,0h.31l.11,0,.23,0,.24-.07.23-.1.21-.11.19-.13.08-.06.07-.06.12-.11.08-.1.07-.09-.09.07-.1.08-.14.09-.16.1-.19.1-.21.1-.22.09-.22.07-.22.06-.11,0-.1,0-.19,0h-.4Z" transform="translate(-20.5 -128.29)"/><ellipse class="cls-5" cx="142.64" cy="204.88" rx="0.23" ry="0.36" transform="translate(-125.76 47.11) rotate(-48.37)"/><ellipse class="cls-5" cx="142.12" cy="205.79" rx="0.14" ry="0.21" transform="translate(-126.6 46.98) rotate(-48.36)"/></g></g></svg>