<svg xmlns="http://www.w3.org/2000/svg" viewBox="0 0 109.66 109.67"><defs><style>.cls-1{fill:#dc4335;}.cls-2{fill:#f1f2f2;}</style></defs><title>google-o</title><g id="Слой_2" data-name="Слой 2"><g id="objects"><circle class="cls-1" cx="54.83" cy="54.83" r="54.83"/><path class="cls-2" d="M42.16,51.67v7.6H54.74c-.51,3.26-3.8,9.56-12.57,9.56a14,14,0,0,1,0-28A12.48,12.48,0,0,1,51,44.26l6-5.79a21.25,21.25,0,0,0-14.85-5.79,22.17,22.17,0,0,0,0,44.33C55,77,63.45,68,63.45,55.34a20.44,20.44,0,0,0-.35-3.67Z"/><path class="cls-2" d="M89.67,51.67H83.33V45.33H77v6.33H70.67V58H77v6.33h6.33V58h6.33Z"/></g></g></svg>