<svg xmlns="http://www.w3.org/2000/svg" viewBox="0 0 109.66 109.67"><defs><style>.cls-1{fill:#4060a5;}.cls-2{fill:#f1f2f2;}</style></defs><title>instagram-o</title><g id="Слой_2" data-name="Слой 2"><g id="objects"><circle class="cls-1" cx="54.83" cy="54.83" r="54.83"/><path class="cls-2" d="M77.06,27H32.6A5.57,5.57,0,0,0,27,32.61V77.06a5.57,5.57,0,0,0,5.56,5.56H77.06a5.57,5.57,0,0,0,5.56-5.56V32.61A5.57,5.57,0,0,0,77.06,27ZM54.83,43.72A11.11,11.11,0,1,1,43.72,54.83,11.14,11.14,0,0,1,54.83,43.72ZM34,77.06a1.31,1.31,0,0,1-1.38-1.38V52.05h5.84a9.25,9.25,0,0,0-.29,2.78,16.68,16.68,0,1,0,33.35,0,9.3,9.3,0,0,0-.28-2.78h5.83V75.68a1.31,1.31,0,0,1-1.38,1.38Zm43.07-37.5a1.31,1.31,0,0,1-1.38,1.38H70.11a1.31,1.31,0,0,1-1.38-1.38V34a1.31,1.31,0,0,1,1.38-1.38h5.56A1.31,1.31,0,0,1,77.06,34Zm0,0"/></g></g></svg>