<svg xmlns="http://www.w3.org/2000/svg" viewBox="0 0 109.66 109.67"><defs><style>.cls-1{fill:#339dc3;}.cls-2{fill:#f1f2f2;}</style></defs><title>twitter-o</title><g id="Слой_2" data-name="Слой 2"><g id="objects"><circle class="cls-1" cx="54.83" cy="54.83" r="54.83"/><path class="cls-2" d="M88.68,33.84a27.71,27.71,0,0,1-8,2.19,13.93,13.93,0,0,0,6.11-7.68A27.79,27.79,0,0,1,78,31.71,13.9,13.9,0,0,0,54.32,44.38,39.42,39.42,0,0,1,25.7,29.87,13.9,13.9,0,0,0,30,48.41a13.81,13.81,0,0,1-6.29-1.74c0,.06,0,.12,0,.18A13.9,13.9,0,0,0,34.85,60.46a13.92,13.92,0,0,1-6.27.24,13.9,13.9,0,0,0,13,9.64A28,28,0,0,1,21,76.1a39.28,39.28,0,0,0,21.29,6.24c25.54,0,39.51-21.16,39.51-39.51q0-.9,0-1.8a28.18,28.18,0,0,0,6.93-7.19Zm0,0"/></g></g></svg>