<svg id="Слой_1" data-name="Слой 1" xmlns="http://www.w3.org/2000/svg" viewBox="0 0 3115.02 2496.18"><defs><style>.cls-1{fill:#b7a98b;}.cls-1,.cls-12,.cls-13,.cls-14,.cls-15,.cls-16,.cls-17,.cls-18,.cls-19,.cls-2,.cls-20,.cls-23,.cls-24,.cls-25,.cls-26,.cls-3,.cls-4,.cls-5,.cls-6,.cls-8{stroke:#000;}.cls-1,.cls-13,.cls-14,.cls-15,.cls-16,.cls-17,.cls-18,.cls-19,.cls-2,.cls-20,.cls-23,.cls-24,.cls-25,.cls-26,.cls-3,.cls-33,.cls-4,.cls-5,.cls-6,.cls-8{stroke-linecap:round;stroke-linejoin:round;}.cls-1,.cls-12,.cls-13,.cls-14,.cls-15,.cls-16,.cls-17,.cls-18,.cls-19,.cls-2,.cls-20,.cls-23,.cls-24,.cls-25,.cls-26,.cls-3,.cls-33,.cls-4,.cls-5,.cls-6,.cls-8{stroke-width:6px;}.cls-2{fill:#838e93;}.cls-3{fill:#f9a64d;}.cls-5{fill:#e2e1e0;}.cls-6{fill:#5b4936;}.cls-7{fill:#7c644d;}.cls-8{fill:#e2d1a8;}.cls-9{fill:#fff;}.cls-10{fill:#d9d9d9;}.cls-11{fill:#c9eaf4;}.cls-12,.cls-14,.cls-33{fill:none;}.cls-12{stroke-miterlimit:10;}.cls-13{fill:#9eb5b7;}.cls-15{fill:#15211a;}.cls-16,.cls-31{fill:#273d31;}.cls-17{fill:#636863;}.cls-18{fill:#272827;}.cls-19{fill:#476857;}.cls-20{fill:#768787;}.cls-21{fill:#282828;}.cls-22{fill:#d2782f;}.cls-23{fill:#aaa;}.cls-24{fill:#e0e0e0;}.cls-25{fill:#efefef;}.cls-26{fill:#f7f7f7;}.cls-27{fill:#c0d9dd;}.cls-28{fill:#5d7a6a;}.cls-29{fill:#929992;}.cls-30{fill:#efe8d8;}.cls-32{fill:#fed978;}.cls-33{stroke:#bcbcbc;}</style></defs><title>alone</title><path class="cls-1" d="M623.5,2206.5c-1,10,29.06,36.31,58,53,39.43,22.74,86.76,34.33,89,29C774.62,2278.67,708.5,2159.5,623.5,2206.5Z" transform="translate(-58.5 -390.96)"/><polygon class="cls-2" points="461 2137.54 460.7 2139.54 455 2177.54 485 2154.54 461 2137.54"/><polygon class="cls-2" points="441 2127.54 434 2171.54 469 2147.54 441 2127.54"/><polygon class="cls-2" points="422 2120.54 409 2158.54 446 2136.54 422 2120.54"/><polygon class="cls-2" points="409 2094.54 393 2143.54 428 2123.54 409 2094.54"/><path class="cls-3" d="M526.5,2409.5c-9,3.3-19.21,11.37-20,12-8.41,6.73-13,13-21,24a141.3,141.3,0,0,0-18,32c-1.75,4.48-3.07,8.67-3,14,0,1.85.27,8.47,5,17,2.63,4.75,7.86,12.26,23,22,4.56,2.93,19.58,12.22,45,19,17.87,4.77,26.8,7.15,35,4,13-5,18.69-18.43,25-34,10.82-26.7,18.32-45.19,11-66C596.54,2419.52,552.34,2400.06,526.5,2409.5Z" transform="translate(-58.5 -390.96)"/><path class="cls-4" d="M691.5,2151.5c-11.59,1.82-20.24,12.8-33,29-9.69,12.3-14.78,23-21,36-8.23,17.24-12.78,31.08-19,50-4.14,12.58-3.57,12-10,33-14,45.54-16.56,47.83-15,55,4.88,22.4,39.21,41.49,69,39,49.55-4.14,75.84-67.07,85-89,7.3-17.48,15.9-38.05,13-65C755.49,2192.92,718.3,2147.29,691.5,2151.5Z" transform="translate(-58.5 -390.96)"/><path class="cls-5" d="M551.88,2366.8c6.87-13.36,14.77-27.22,23.31-41.17a16.67,16.67,0,0,1,18.41-7.41c48.85,12.59,73.66,39.93,95.89,73.28,11.05,16.58-24.88,32.44-39,37-39.63,12.79-92.47-14-100.15-50.84A16.44,16.44,0,0,1,551.88,2366.8Z" transform="translate(-58.5 -390.96)"/><rect class="cls-6" x="517.46" y="2385" width="118.57" height="60.1" rx="12" ry="12" transform="matrix(0.87, 0.5, -0.5, 0.87, 1226.29, -355.77)"/><rect class="cls-7" x="524.81" y="2384.58" width="83.5" height="40.06" rx="12" ry="12" transform="translate(1219.71 -352.08) rotate(30)"/><path class="cls-8" d="M623.5,2206.5c6-4,19.09-8.5,44-8,31,.63,54.33,22.66,60,28,26.08,24.58,19.93,43.75,36,49,28.49,9.3,69.47-43.86,85-64,25.16-32.63,37.73-48.95,34-68-8.84-45.1-102.49-72.33-155-49a149.52,149.52,0,0,0-15,8c-12.13,7.24-30.38,20.1-62,60C631.17,2186.89,626.5,2200.5,623.5,2206.5Z" transform="translate(-58.5 -390.96)"/><path d="M1331.5,826.5c.94,8.65.26,14.62-1,25-.84,6.91-1.56,10-4,13a17.5,17.5,0,0,1-6.79,4.91c-1.06-10.33-2.7-20-3.74-29.7a8.2,8.2,0,0,0,3.53-.21c4.56-1.33,6.38-6.3,7-8,.43-1.17,2.44-7.13-.6-12.35a21.46,21.46,0,0,0-2-8.59,14.33,14.33,0,0,1,3.6,2.94C1328.86,815.05,1330.54,817.63,1331.5,826.5Z" transform="translate(-58.5 -390.96)"/><path class="cls-9" d="M1325.9,819.15c3,5.22,1,11.18.6,12.35-.62,1.7-2.44,6.67-7,8a8.2,8.2,0,0,1-3.53.21,142.19,142.19,0,0,1-.92-18.94c3.33,2.31,5.6,3.76,6.45,3.73,4.08-.15,2.13,2.42,4-3A7.61,7.61,0,0,0,1325.9,819.15Z" transform="translate(-58.5 -390.96)"/><path d="M1323.9,810.56a21.46,21.46,0,0,1,2,8.59c-.12-.22-.26-.44-.4-.65a15,15,0,0,0-11-6.13q-2.05-2.29-4-4.27a22.43,22.43,0,0,1,8,.4A19.17,19.17,0,0,1,1323.9,810.56Z" transform="translate(-58.5 -390.96)"/><path class="cls-9" d="M1325.5,818.5c.14.21.28.43.4.65a7.61,7.61,0,0,1-.4,2.35c-1.87,5.42.08,2.85-4,3-.85,0-3.12-1.42-6.45-3.73.06-2.4.21-4.83.45-7.27l-1-1.13A15,15,0,0,1,1325.5,818.5Z" transform="translate(-58.5 -390.96)"/><path class="cls-9" d="M1319.71,869.41a153.24,153.24,0,0,1-.21,37.09,36.82,36.82,0,0,1-4,12c-1,1.84-5,9.1-16,17-12.57,9-18,10-22,14,3,1,3.77,2.42,8,6,6.65,5.63,8.12,14,9,19,2.51,14.3-3.38,26-6,31a55.7,55.7,0,0,1-3.64,6,33.3,33.3,0,0,1-14.36,3c-3.7-.09-13.83-.35-19-7-3-3.86-2.78-7.89-7-10-2.89-1.45-4.47-.29-9-2-4.26-1.61-5.19-3.5-7-4-6.7-1.85-16.85,17.71-22,25-9.58,13.57-23.91,15.89-95,25-58.4,7.48-84.13,10.45-88,1-2.48-6.06,5.29-14.11,3-16-3.2-2.65-16.58,14.69-39,25-23.52,10.82-50.22,10.78-53,4-1.26-3.07,3.22-5.45,8-17,2.67-6.46,7.64-18.48,4-22-4.82-4.66-20.46,9.72-51,19-10.06,3.06-30.87,9.39-35,3-3.73-5.77,10-16.06,18-42,1.74-5.63,7.82-25.3,2-29-5.14-3.27-13.72,9.64-34,19-19,8.75-36.17,8.88-53,9-24.82.18-47.08-4.85-47-8,0-1.88,8.06-1.48,18-8,6.42-4.21,13.17-11,12-13-2.06-3.5-25.26,13.53-60,16-8.93.63-22.27,1.45-38-4-19.87-6.88-32.25-19.84-38-26A109.49,109.49,0,0,1,630.41,940q0-.74.09-1.47c1.15-15,9.64-26.14,10-26s-3.06,5.51-2,12c1.33,8.13,8.72,13.13,10,14,13.89,9.41,32.94,1.65,37,0,13.41-5.46,21-14.88,25-20,8.49-10.83,13.58-23.32,17-42a214,214,0,0,0,2-61c-.52-5.6-2.89-56.07,10-105,2.2-8.37,12.32-45,40-85,11.75-17,29.61-42.27,60.91-64a114.57,114.57,0,0,0-4.91,25,153.38,153.38,0,0,0,1,32c.54,4.08,1.17,8.81,2.24,13.89-4.21,12.19-2.27,25.82-.24,40.11,2.06,14.52,4.87,34.3,21,52a80.32,80.32,0,0,0,42,24c34.34,7.24,61-11.46,67-16,16.92-12.72,24.61-28.76,30-40a110.61,110.61,0,0,0,11-36,159.6,159.6,0,0,0,1.5-22.19h0c2.69-10,3.09-19.24,3.5-28.8.88-20.42-2.73-36.31-5-46-2.91-12.4-5.07-21.62-11-33-1.43-2.74-2.83-5.43-4.25-8.07,5.28,0,10.36,0,15.25.07,30.84.35,51.18.58,78,9a216.24,216.24,0,0,1,71,39c25.83,21.23,40.2,43,48,55,12,18.49,18.38,33.55,30,61,2.2,5.2,4.13,10,5.82,14.29-7-9.81-17-19.92-30.82-26.29-15.73-7.26-41.17-11.87-50-1-7.13,8.78,4.94,19.4-2,40-3.41,10.11-9.32,18.21-21,34-15.47,20.9-18.71,21-26,34-6.66,11.87-9.44,21.58-13,34-6.15,21.44-9.22,32.17-5,44,5,14.06,17.32,21.57,18,21s-8.62-8.8-10-22c-.72-6.91.76-14.72,3-15,3.3-.41,3.67,16,14,31,15.41,22.32,43.2,27.16,48,28,6.6,1.15,25.79,4.49,44-5,10.85-5.65,17.9-14.06,19-13s-4.52,9.19-11,16c-9,9.46-16.56,12.9-16,14,.67,1.31,12.48-1.37,23-9,11.76-8.52,17-19.66,19-24a71,71,0,0,0,6-33,139.16,139.16,0,0,0-6-34c-2.24-6.79-5.11-13.42-3-15,17.06-9.48,42.25,4.66,59.65,16.32a8.46,8.46,0,0,0-.65.68c-.65.76-1.81,2.34-3,9a87.37,87.37,0,0,0-1,21c.51,9,.81,13.6,3,18,1.44,2.89,4.27,8.56,10,10a15,15,0,0,0,9-1ZM1088.5,755.5a33.23,33.23,0,0,0-.59-7,41,41,0,0,0,.59-7c.17-11.09-4.21-15.59-8-27-2.67-8-3.11-18.69-4-40-.92-22,0-33.91-1-34s-2.57,13.62-8,43c-4.07,22-6.1,33-8,37-2.59,5.43-6.86,12.66-7,23a29.79,29.79,0,0,0,.71,7.22,36.73,36.73,0,0,0-.71,6.78c-.1,7.17,1.85,11.1,3,13,1,1.67,4.79,7.91,12,9,8,1.22,14-5,15-6C1088.19,767.58,1088.43,759.83,1088.5,755.5Z" transform="translate(-58.5 -390.96)"/><path d="M1319.71,869.41l-.21.09a15,15,0,0,1-9,1c-5.73-1.44-8.56-7.11-10-10-2.19-4.4-2.49-9-3-18a87.37,87.37,0,0,1,1-21c1.19-6.66,2.35-8.24,3-9a8.46,8.46,0,0,1,.65-.68c1.45,1,2.85,1.92,4.18,2.85-2.41,2.28-2.67,5.79-2.83,7.83a16.46,16.46,0,0,0,4,12c.58.64,4.09,4.51,8.47,5.21C1317,849.37,1318.65,859.08,1319.71,869.41Z" transform="translate(-58.5 -390.96)"/><path class="cls-9" d="M1315.5,813.5c-.24,2.44-.39,4.87-.45,7.27-2.41-1.67-5.36-3.79-8.72-6.1l.17-.17a10.55,10.55,0,0,1,8-2.13Z" transform="translate(-58.5 -390.96)"/><path class="cls-9" d="M1315.05,820.77a142.19,142.19,0,0,0,.92,18.94c-4.38-.7-7.89-4.57-8.47-5.21a16.46,16.46,0,0,1-4-12c.16-2,.42-5.55,2.83-7.83C1309.69,817,1312.64,819.1,1315.05,820.77Z" transform="translate(-58.5 -390.96)"/><path d="M1314.5,812.37a10.55,10.55,0,0,0-8,2.13l-.17.17c-1.33-.93-2.73-1.88-4.18-2.85a14.22,14.22,0,0,1,8.32-3.72Q1312.45,810.08,1314.5,812.37Z" transform="translate(-58.5 -390.96)"/><path class="cls-10" d="M1310.47,808.1a14.22,14.22,0,0,0-8.32,3.72c-17.4-11.66-42.59-25.8-59.65-16.32-2.11,1.58.76,8.21,3,15a139.16,139.16,0,0,1,6,34,71,71,0,0,1-6,33c-2,4.34-7.24,15.48-19,24-10.52,7.63-22.33,10.31-23,9-.56-1.1,7-4.54,16-14,6.48-6.81,12-15,11-16s-8.15,7.35-19,13c-18.21,9.49-37.4,6.15-44,5-4.8-.84-32.59-5.68-48-28-10.33-15-10.7-31.41-14-31-2.24.28-3.72,8.09-3,15,1.38,13.2,10.65,21.46,10,22s-13-6.94-18-21c-4.22-11.83-1.15-22.56,5-44,3.56-12.42,6.34-22.13,13-34,7.29-13,10.53-13.1,26-34,11.68-15.79,17.59-23.89,21-34,6.94-20.6-5.13-31.22,2-40,8.83-10.87,34.27-6.26,50,1,13.78,6.37,23.79,16.48,30.82,26.29a292.36,292.36,0,0,1,11.18,33.71,262.21,262.21,0,0,1,7,37,63,63,0,0,0,3,14C1283.34,790.52,1295.44,793,1310.47,808.1Zm-75,27.4c1-7.49,3.58-31.13-2-67a222.19,222.19,0,0,0-6-28,133.86,133.86,0,0,0-14-33c-7.79-12.92-12.38-15.11-15-16-8.85-3-17.13,1.51-18,2-4.43,2.5-7,6-11,13a195.38,195.38,0,0,0-12,25c-5.42,13.76-6.71,10.43-23,40-12.31,22.34-14.06,28.74-15,34a74.24,74.24,0,0,0,0,26c1.31,7.35,3.8,21.24,15,33,12.46,13.08,28.15,15.59,37,17,7.63,1.22,20.65,3.13,35-3a46.7,46.7,0,0,0,20-15C1230.74,857.85,1233.49,851.12,1235.5,835.5Z" transform="translate(-58.5 -390.96)"/><path class="cls-10" d="M1284.86,1011.51a69.35,69.35,0,0,1-18.36,18c-50.83,34.42-117,38-117,38-159.61,8.64-169.76,42.27-277,27-50.74-7.22-93-13.24-120-39-9.83-9.38-28.29-31.54-53-40a115.43,115.43,0,0,1-26-12,101.17,101.17,0,0,1-19-15c-8-8.12-25.09-25.58-24.09-48.53A109.49,109.49,0,0,0,640.5,952.5c5.75,6.16,18.13,19.12,38,26,15.73,5.45,29.07,4.63,38,4,34.74-2.47,57.94-19.5,60-16,1.17,2-5.58,8.79-12,13-9.94,6.52-18,6.12-18,8-.08,3.15,22.18,8.18,47,8,16.83-.12,34-.25,53-9,20.28-9.36,28.86-22.27,34-19,5.82,3.7-.26,23.37-2,29-8,25.94-21.73,36.23-18,42,4.13,6.39,24.94.06,35-3,30.54-9.28,46.18-23.66,51-19,3.64,3.52-1.33,15.54-4,22-4.78,11.55-9.26,13.93-8,17,2.78,6.78,29.48,6.82,53-4,22.42-10.31,35.8-27.65,39-25,2.29,1.89-5.48,9.94-3,16,3.87,9.45,29.6,6.48,88-1,71.09-9.11,85.42-11.43,95-25,5.15-7.29,15.3-26.85,22-25,1.81.5,2.74,2.39,7,4,4.53,1.71,6.11.55,9,2,4.22,2.11,4,6.14,7,10,5.17,6.65,15.3,6.91,19,7A33.3,33.3,0,0,0,1284.86,1011.51Z" transform="translate(-58.5 -390.96)"/><path d="M1233.5,768.5c5.58,35.87,3,59.51,2,67-2,15.62-4.76,22.35-9,28a46.7,46.7,0,0,1-20,15c-14.35,6.13-27.37,4.22-35,3-8.85-1.41-24.54-3.92-37-17-11.2-11.76-13.69-25.65-15-33a74.24,74.24,0,0,1,0-26c.94-5.26,2.69-11.66,15-34,16.29-29.57,17.58-26.24,23-40a195.38,195.38,0,0,1,12-25c4-7,6.57-10.5,11-13,.87-.49,9.15-5,18-2,2.62.89,7.21,3.08,15,16a133.86,133.86,0,0,1,14,33A222.19,222.19,0,0,1,1233.5,768.5Zm-33,32a73.5,73.5,0,0,0-2-25c-.92-3.76-4.46-18.23-8-18-2.41.16-2,6.94-7,18a85.15,85.15,0,0,1-12,19c-8.84,10.74-14.61,12.42-14,17,.74,5.51,9.82,8.59,14,10,3.52,1.19,8.8,3,15,1a20.06,20.06,0,0,0,9-6C1199.3,812,1199.85,807.13,1200.5,800.5Z" transform="translate(-58.5 -390.96)"/><path class="cls-9" d="M1198.5,775.5a73.5,73.5,0,0,1,2,25c-.65,6.63-1.2,11.52-5,16a20.06,20.06,0,0,1-9,6c-6.2,2-11.48.19-15-1-4.18-1.41-13.26-4.49-14-10-.61-4.58,5.16-6.26,14-17a85.15,85.15,0,0,0,12-19c5-11.06,4.59-17.84,7-18C1194,757.27,1197.58,771.74,1198.5,775.5Z" transform="translate(-58.5 -390.96)"/><path class="cls-10" d="M1087.91,748.49a33.23,33.23,0,0,1,.59,7c-.07,4.33-.31,12.08-6,18-1,1-7,7.22-15,6-7.21-1.09-11-7.33-12-9-1.15-1.9-3.1-5.83-3-13a36.73,36.73,0,0,1,.71-6.78,19.36,19.36,0,0,0,2.29,5.78c1,1.67,4.79,7.91,12,9,8,1.22,14-5,15-6A21.18,21.18,0,0,0,1087.91,748.49Z" transform="translate(-58.5 -390.96)"/><path class="cls-11" d="M1080.5,714.5c3.79,11.41,8.17,15.91,8,27a41,41,0,0,1-.59,7c-1.3-6.63-4.53-11.31-7.41-20-2.67-8-3.11-18.69-4-40-.92-22,0-33.91-1-34s-2.57,13.62-8,43c-4.07,22-6.1,33-8,37-2,4.16-5,9.36-6.29,16.22a29.79,29.79,0,0,1-.71-7.22c.14-10.34,4.41-17.57,7-23,1.9-4,3.93-15,8-37,5.43-29.38,6.89-43.09,8-43s.08,12,1,34C1077.39,695.81,1077.83,706.47,1080.5,714.5Z" transform="translate(-58.5 -390.96)"/><path class="cls-11" d="M1087.91,748.49a21.18,21.18,0,0,1-5.41,11c-1,1-7,7.22-15,6-7.21-1.09-11-7.33-12-9a19.36,19.36,0,0,1-2.29-5.78c1.34-6.86,4.31-12.06,6.29-16.22,1.9-4,3.93-15,8-37,5.43-29.38,6.89-43.09,8-43s.08,12,1,34c.89,21.31,1.33,32,4,40C1083.38,737.18,1086.61,741.86,1087.91,748.49Z" transform="translate(-58.5 -390.96)"/><path d="M1009.5,559.5c2.27,9.69,5.88,25.58,5,46-.41,9.56-.81,18.8-3.5,28.8-.23-10.17-2.2-20.72-8.5-28.8-16.88-21.63-56.22-14.41-102-6-46.59,8.55-55.38,20.82-58,25a38.16,38.16,0,0,0-3.76,7.89c-1.07-5.08-1.7-9.81-2.24-13.89a153.38,153.38,0,0,1-1-32,114.57,114.57,0,0,1,4.91-25q4.37-3,9.09-6c23.09-14.32,43.15-20.52,58-25,33.83-10.2,62.43-12,86.75-12.07,1.42,2.64,2.82,5.33,4.25,8.07C1004.43,537.88,1006.59,547.1,1009.5,559.5Z" transform="translate(-58.5 -390.96)"/><path class="cls-10" d="M1011,634.31a159.6,159.6,0,0,1-1.5,22.19,110.61,110.61,0,0,1-11,36c-5.39,11.24-13.08,27.28-30,40-6,4.54-32.66,23.24-67,16a80.32,80.32,0,0,1-42-24c-16.13-17.7-18.94-37.48-21-52-2-14.29-4-27.92.24-40.11a89.16,89.16,0,0,0,3.76,13.11c10.85,28.8,36.13,43.31,41,46,7.42,4.09,25.64,14.13,49,11,11.22-1.5,18.93-5.42,26-9,8.77-4.45,36.13-18.32,49-49A80.59,80.59,0,0,0,1011,634.31Z" transform="translate(-58.5 -390.96)"/><path d="M1011,634.3h0a80.59,80.59,0,0,1-3.5,10.19c-12.87,30.68-40.23,44.55-49,49-7.07,3.58-14.78,7.5-26,9-23.36,3.13-41.58-6.91-49-11-4.87-2.69-30.15-17.2-41-46a89.16,89.16,0,0,1-3.76-13.11,38.16,38.16,0,0,1,3.76-7.89c2.62-4.18,11.41-16.45,58-25,45.78-8.41,85.12-15.63,102,6C1008.8,613.58,1010.77,624.13,1011,634.3Z" transform="translate(-58.5 -390.96)"/><path d="M970.5,487.5c10.94,9,17.57,19.51,23.75,30.93-24.32.12-52.92,1.87-86.75,12.07-14.85,4.48-34.91,10.68-58,25q-4.72,2.94-9.09,6c2.09-6.79,4.77-14,8.09-23,5.8-15.62,9.42-25.37,17-38,4.41-7.35,13.15-21.9,27-35,1.4-1.33,6.51-6.1,13-13,7.3-7.77,11-11.74,13-16,5.15-10.91,2.58-20.61,5-21,2.09-.34,5,6.77,6,10a46.54,46.54,0,0,1,2,15c-.2,5-1.13,7.3,0,8,1.66,1,6.09-2.36,9-6,6.89-8.64,5.35-18.93,7-19s3.37,9.64,4,16a78,78,0,0,1,0,15c-.34,3.54-2,5.15-1,7,1.51,2.84,6.57,3.42,10,3,5.39-.66,8-3.93,9-3s-.69,5.74-4,9c-2.6,2.56-4.38,2.45-5,4C959,478.34,967.53,485.05,970.5,487.5Z" transform="translate(-58.5 -390.96)"/><path class="cls-12" d="M1319.71,869.41a153.24,153.24,0,0,1-.21,37.09,36.82,36.82,0,0,1-4,12c-1,1.84-5,9.1-16,17-12.57,9-18,10-22,14,3,1,3.77,2.42,8,6,6.65,5.63,8.12,14,9,19,2.51,14.3-3.38,26-6,31a55.7,55.7,0,0,1-3.64,6,69.35,69.35,0,0,1-18.36,18c-50.83,34.42-117,38-117,38-159.61,8.64-169.76,42.27-277,27-50.74-7.22-93-13.24-120-39-9.83-9.38-28.29-31.54-53-40a115.43,115.43,0,0,1-26-12,101.17,101.17,0,0,1-19-15c-8-8.12-25.09-25.58-24.09-48.53q0-.74.09-1.47c1.15-15,9.64-26.14,10-26s-3.06,5.51-2,12c1.33,8.13,8.72,13.13,10,14,13.89,9.41,32.94,1.65,37,0,13.41-5.46,21-14.88,25-20,8.49-10.83,13.58-23.32,17-42a214,214,0,0,0,2-61c-.52-5.6-2.89-56.07,10-105,2.2-8.37,12.32-45,40-85,11.75-17,29.61-42.27,60.91-64" transform="translate(-58.5 -390.96)"/><path class="cls-12" d="M994.25,518.43c5.28,0,10.36,0,15.25.07,30.84.35,51.18.58,78,9a216.24,216.24,0,0,1,71,39c25.83,21.23,40.2,43,48,55,12,18.49,18.38,33.55,30,61,2.2,5.2,4.13,10,5.82,14.29a292.36,292.36,0,0,1,11.18,33.71,262.21,262.21,0,0,1,7,37,63,63,0,0,0,3,14c19.84,9,31.94,11.51,47,26.6" transform="translate(-58.5 -390.96)"/><path class="cls-12" d="M1011,634.31a80.59,80.59,0,0,1-3.5,10.19c-12.87,30.68-40.23,44.55-49,49-7.07,3.58-14.78,7.5-26,9-23.36,3.13-41.58-6.91-49-11-4.87-2.69-30.15-17.2-41-46a89.16,89.16,0,0,1-3.76-13.11c-1.07-5.08-1.7-9.81-2.24-13.89a153.38,153.38,0,0,1-1-32,114.57,114.57,0,0,1,4.91-25c2.09-6.79,4.77-14,8.09-23,5.8-15.62,9.42-25.37,17-38,4.41-7.35,13.15-21.9,27-35,1.4-1.33,6.51-6.1,13-13,7.3-7.77,11-11.74,13-16,5.15-10.91,2.58-20.61,5-21,2.09-.34,5,6.77,6,10a46.54,46.54,0,0,1,2,15c-.2,5-1.13,7.3,0,8,1.66,1,6.09-2.36,9-6,6.89-8.64,5.35-18.93,7-19s3.37,9.64,4,16a78,78,0,0,1,0,15c-.34,3.54-2,5.15-1,7,1.51,2.84,6.57,3.42,10,3,5.39-.66,8-3.93,9-3s-.69,5.74-4,9c-2.6,2.56-4.38,2.45-5,4-1.53,3.84,7,10.55,10,13,10.94,9,17.57,19.51,23.75,30.93,1.42,2.64,2.82,5.33,4.25,8.07,5.93,11.38,8.09,20.6,11,33,2.27,9.69,5.88,25.58,5,46-.41,9.56-.81,18.8-3.5,28.8Z" transform="translate(-58.5 -390.96)"/><path class="cls-12" d="M1119.5,805.5a74.24,74.24,0,0,0,0,26c1.31,7.35,3.8,21.24,15,33,12.46,13.08,28.15,15.59,37,17,7.63,1.22,20.65,3.13,35-3a46.7,46.7,0,0,0,20-15c4.24-5.65,7-12.38,9-28,1-7.49,3.58-31.13-2-67a222.19,222.19,0,0,0-6-28,133.86,133.86,0,0,0-14-33c-7.79-12.92-12.38-15.11-15-16-8.85-3-17.13,1.51-18,2-4.43,2.5-7,6-11,13a195.38,195.38,0,0,0-12,25c-5.42,13.76-6.71,10.43-23,40C1122.19,793.84,1120.44,800.24,1119.5,805.5Z" transform="translate(-58.5 -390.96)"/><path class="cls-12" d="M1087.91,748.49a41,41,0,0,0,.59-7c.17-11.09-4.21-15.59-8-27-2.67-8-3.11-18.69-4-40-.92-22,0-33.91-1-34s-2.57,13.62-8,43c-4.07,22-6.1,33-8,37-2.59,5.43-6.86,12.66-7,23a29.79,29.79,0,0,0,.71,7.22,19.36,19.36,0,0,0,2.29,5.78c1,1.67,4.79,7.91,12,9,8,1.22,14-5,15-6A21.18,21.18,0,0,0,1087.91,748.49Z" transform="translate(-58.5 -390.96)"/><path class="cls-12" d="M1319.71,869.41l-.21.09a15,15,0,0,1-9,1c-5.73-1.44-8.56-7.11-10-10-2.19-4.4-2.49-9-3-18a87.37,87.37,0,0,1,1-21c1.19-6.66,2.35-8.24,3-9a8.46,8.46,0,0,1,.65-.68,14.22,14.22,0,0,1,8.32-3.72,22.43,22.43,0,0,1,8,.4,19.17,19.17,0,0,1,5.4,2.06,14.33,14.33,0,0,1,3.6,2.94c1.36,1.55,3,4.13,4,13,.94,8.65.26,14.62-1,25-.84,6.91-1.56,10-4,13A17.5,17.5,0,0,1,1319.71,869.41Z" transform="translate(-58.5 -390.96)"/><path d="M1283.72,945.45c-3.35,2.23-6.77,4.25-10.14,6.32-1.68,1-3.35,2.08-5,3.13-.81.52-1.58,1.06-2.31,1.6a24.45,24.45,0,0,0-2.07,1.88,47,47,0,0,0-3.92,4c-1.18,1.45-2,3.15-3.29,4.42a13.62,13.62,0,0,1-2.08,1.75,28.59,28.59,0,0,1-8.53,4.2l-.85-.53a14.29,14.29,0,0,1,.68-7,16.64,16.64,0,0,1,1.37-3,12.15,12.15,0,0,1,1.92-2.61,23.4,23.4,0,0,1,5.38-3.64c1.84-1.11,3.67-2.17,5.53-3.09.95-.46,1.83-.8,2.88-1.37s1.94-.87,2.89-1.24c1.9-.76,3.8-1.4,5.69-2.05,3.78-1.3,7.61-2.41,11.36-3.62Z" transform="translate(-58.5 -390.96)"/><path class="cls-8" d="M876.5,2138.5c1.51-1.37,17.52-16.3,16-36-2-26.33-33.92-42-76-62-20.39-9.69-101.92-48.44-117-28-4.42,6-1.28,18,5,42,3.29,12.56,6.12,23.39,13,35,2.19,3.69,13,21.28,40,37" transform="translate(-58.5 -390.96)"/><path class="cls-8" d="M873.5,2102.5c17.68-16,21.42-38.51,23-48,.91-5.46,3.62-22.85-2-41-12.72-41.13-59.41-57.79-74-63-43.6-15.57-111.08-17.79-128,14-7.5,14.09-2.66,30.32,5,56,5,16.81,13.11,44,39,67" transform="translate(-58.5 -390.96)"/><path class="cls-8" d="M786.5,2010.5c10.41-.21,65.16-2.38,108-47,6.62-6.89,51.07-54.72,42-120-7.61-54.76-48-86.49-69-103-87.61-68.84-231.18-78.31-266-24-13,20.31-9.68,47.75-6,78,4.35,35.76,16.53,60.4,32,91,26.34,52.1,40.78,80.67,75,102" transform="translate(-58.5 -390.96)"/><path class="cls-8" d="M742.5,1873.5c45.7,5.57,81-11.07,102-21,48.87-23.06,76.78-56.7,90-73,24.29-29.94,53.75-66.25,56-113,3.5-72.88-60.43-144.61-132-169-108.27-36.9-224.94,37.61-258,117-14.55,34.92-14.05,73.53-14,76a191.18,191.18,0,0,0,14,67.71" transform="translate(-58.5 -390.96)"/><path class="cls-4" d="M1176,1380c14.19,4.57,25.46,23.38,48,61,20.52,34.26,23,50.41,23.5,60.5.39,7.69,1,23.94-7,41-16.82,35.69-63.33,57.23-102,47-17.82-4.71-29.1-14.88-37-22-4.73-4.26-40.58-37.49-40-82C1062.32,1422.66,1135.38,1366.92,1176,1380Z" transform="translate(-58.5 -390.96)"/><path class="cls-4" d="M1208.5,1448.5c10.87.83,23.91,5.22,50,14a524.19,524.19,0,0,1,61,25c7.84,3.8,23.23,12.53,54,30,33.46,19,35.84,20.73,39,25,15,20.27,14.37,52.94,0,76-14.88,23.88-40.37,30.83-52,34-5.9,1.61-15.64,3.7-40,3-14-.4-48.88-2.18-101-16a465.14,465.14,0,0,1-60-20c-28-11.59-42.23-17.64-52-30-21.51-27.22-13.42-64.22-13-66C1106,1474.45,1164.8,1445.17,1208.5,1448.5Z" transform="translate(-58.5 -390.96)"/><path class="cls-13" d="M1068.5,1546.5c7.3,2,14.1,3.78,69-33,31.15-20.87,38-27.94,51-39,21.85-18.63,31.22-32.18,37-45-45-70-77-139-87-154-55.16,3.06-93.26,108.68-98,162C1036.62,1481.17,1044.41,1540,1068.5,1546.5Z" transform="translate(-58.5 -390.96)"/><path class="cls-13" d="M965.5,1035.5c-19.36-1.76-38.13,2.25-51,5a237.22,237.22,0,0,0-69,27c-34.93,20.4-58,45.94-75,68-19.55,25.33-51.52,72.48-95,191-44.76,122-67.14,183-73,219,0,0-3.61,22.17-17,48-16.33,31.51-31,36.77-35,38-7.86,2.42-14.52,1.59-15,4-.85,4.3,19.24,12.49,32,16,38.94,10.71,76.24-3.86,91-10,66.6-27.7,106.94-63.69,138-84,41.38-27.06,129.35-72.13,208-46,44.77,14.87,77.48,50.58,98,37,9.77-6.46,11-20.14,12-32,11.52-141.9,11-173,11-173-1.3-77.88-1.34-89.91-6-114-4.61-23.81-9.74-50.3-25-81C1088,1135.48,1041.78,1042.45,965.5,1035.5Z" transform="translate(-58.5 -390.96)"/><path class="cls-14" d="M628.5,1593.5a163.85,163.85,0,0,0,31,1c19.84-1.25,39.14-6.13,68-19,42.74-19.05,40.84-26.35,75-41,41.86-17.95,72.44-18.87,72-22s-33-5.3-66,5c-6.14,1.91-3.4,1.48-37,14-24,8.94-30.68,11.13-39,13a164.3,164.3,0,0,1-37,4" transform="translate(-58.5 -390.96)"/><path class="cls-15" d="M878.5,1404.5c-5,1-11.38.67-24-2a55.27,55.27,0,0,1-25-13c-7.62-6.73-14.08-16.44-19-36-6-23.88-5.32-44.9-3-68,3.22-32.07,6.11-60.93,19-99,9.88-29.16,17.4-51.38,37-76a192.27,192.27,0,0,1,57-48c15.26-8.43,33.87-18.71,59-20,32.67-1.68,57.7,12.8,58,12s-28.26-16.78-57-23c-81.57-17.66-159.62,43.88-175,56,0,0-127,100.16-110,361a54.54,54.54,0,0,0,7,23c8.88,14.24,23.42,19.17,26,20,9,2.89,16.72,2.41,27,1a276.6,276.6,0,0,0,55-13c50-18,55-21,60-23C869.5,1437.5,876.5,1415.5,878.5,1404.5Z" transform="translate(-58.5 -390.96)"/><path class="cls-16" d="M1080.5,1200.5c-6.34,5,13.37,27.5,8,65a98.58,98.58,0,0,1-11,33c-2.57,4.71-16.33,29.93-43,42-4.47,2-6,4-5,9,13,21,10,39,4,59,9.74,6.71,21.14,5.63,27,5,45.73-4.94,72.68-58.11,77-67,7.81-16.07,21.67-44.61,13-78C1138.28,1221.44,1088.87,1193.95,1080.5,1200.5Z" transform="translate(-58.5 -390.96)"/><path class="cls-17" d="M1035.5,1349.5a23.67,23.67,0,0,0-3.75-2.42,9.85,9.85,0,0,0-11.42,1.65c-13.53,13.15-24.46,18-41.43,27.63a10.91,10.91,0,0,0-5.49,9.82c.24,7.7,1,20.82,1.67,33.17a8.86,8.86,0,0,0,8.93,8.37c13.89-.1,29-2.61,48.42-10a12.29,12.29,0,0,0,5.48-4.17C1052.79,1393.42,1050.79,1361.67,1035.5,1349.5Z" transform="translate(-58.5 -390.96)"/><path class="cls-18" d="M878.5,1404.5c37-3,62-8,95-21,10.11,11.87,9,29,4,41-35,10-68,17-107,32C858.37,1440.8,877.53,1406.32,878.5,1404.5Z" transform="translate(-58.5 -390.96)"/><path class="cls-18" d="M977.5,1386.5c-8,6-31,29.19-37,58-5,24-2.07,43.66,1,47,12-10,25-10,32-6-4-15-9.2-25.55-4-47,3.07-12.67,9-16,13-21C986.1,1401.39,983.09,1387.6,977.5,1386.5Z" transform="translate(-58.5 -390.96)"/><path class="cls-18" d="M988.5,1383.5a71.05,71.05,0,0,0,20-11c8,7,13,30,8,43-6,3-17.94,6.26-24,4C994.5,1413.5,996.5,1394.5,988.5,1383.5Z" transform="translate(-58.5 -390.96)"/><path class="cls-18" d="M1016.5,1367.5a153,153,0,0,0,16-13c9,9,11,40,1,57-.19.32-6,3-9,2C1027.5,1401.5,1027.5,1381.5,1016.5,1367.5Z" transform="translate(-58.5 -390.96)"/><path class="cls-19" d="M1052.5,1354.5c12,12,9,26,10,32,48-9,102-77,82-115-6.34-12.06-21.61-17.42-33-17C1113.5,1284.5,1093.5,1334.5,1052.5,1354.5Z" transform="translate(-58.5 -390.96)"/><path class="cls-20" d="M1248.5,1020.5c-21.85-3.25-104.77,62.61-107,140-1.6,55.67,35.57,116.66,56,115C1264.5,1277.5,1295.5,1027.5,1248.5,1020.5Z" transform="translate(-58.5 -390.96)"/><path class="cls-4" d="M1217.5,1025.5c33,.93,66-2.18,99-3s41.07-4.16,76-3c26.84.89,33.13,3.23,37,5,37.31,17.06,42.71,69.74,43,73,.81,9.18,2.15,38.79-18,67-15.88,22.23-37.29,31.38-48,36a132.12,132.12,0,0,1-31,9c-81.59,14.16-168,14-168,14-35-.07-44.36-1.43-69,1-25.42,2.51-31.67,5.57-36,2-30.15-24.86,67.48-175,82-185,1.73-1.19,9.47-5.34,17-11a23.91,23.91,0,0,1,5-3A24.91,24.91,0,0,1,1217.5,1025.5Z" transform="translate(-58.5 -390.96)"/><path class="cls-14" d="M957.5,1286.5c43.3-9,71.35-15.1,88-19,3.66-.86,13.09-3.09,14-1s-6.65,7.14-11,10c-30.6,20.09-56,30-56,30-19.43,7.58-39.14,15.36-66,26" transform="translate(-58.5 -390.96)"/><path class="cls-13" d="M877.5,1110.5c4.55-13,13.58-32.85,32-50,24.22-22.55,51.63-28.35,83-35,28.35-6,49.61-6.38,85-7,39.3-.69,42.85,2,85,2,69.2,0,75-1,86,0-48,41-124,224-51,255-65.65,3.32-120.25,1.12-196.51-4.31" transform="translate(-58.5 -390.96)"/><path class="cls-19" d="M577.5,1089.5c-22-2.87-23.73,24.85-139,139-13.58,13.45-34.35,33.66-51,67a229.52,229.52,0,0,0-23,85c-1.82,25-3.4,46.7,7,72,14.88,36.18,43.85,54.37,56,62,10.68,6.7,43.09,27.05,85,24,49.21-3.58,81.71-37.26,94-50C710.55,1380.67,646.37,1098.49,577.5,1089.5Z" transform="translate(-58.5 -390.96)"/><path class="cls-19" d="M562.5,1141.5c-33.41,25.66-63.09,48.45-89,91-35.76,58.73-39.6,114.49-41,139-1.26,22.06-2.56,49.78,9,83,10.94,31.44,27.57,51,31,55,8.06,9.3,31.21,35.33,71,47,2.88.85,52.2,14.62,98-6,28.23-12.71,50.07-36.21,100-171,66.65-179.92,57.2-217.56,46-241-4.9-10.26-27.19-53.49-70-65C668.27,1060.27,620.78,1096.74,562.5,1141.5Z" transform="translate(-58.5 -390.96)"/><path class="cls-19" d="M748.5,1072.5c-20.26,16.86-25.83,36.45-37,68-35.7,100.8-47.14,93.45-84,206-5.66,17.3-10.78,37.53-21,78-12.26,48.51-16.15,69.85-7,93,3.15,8,9.87,25,26,32,20.34,8.84,43.42-3.52,63-14a152.69,152.69,0,0,0,39-30c19.53-20.74,28.64-42.1,33-53,25.54-63.91,29.5-131.18,51-237,5.95-29.28,9.65-59,17-88,11.39-44.89,23.93-70.07,15.5-80.5C830.18,1029.91,778.18,1047.81,748.5,1072.5Z" transform="translate(-58.5 -390.96)"/><path class="cls-14" d="M602.5,1092.5c.79,10.54,18.21,17.07,42,26a208.67,208.67,0,0,0,90,12,217.83,217.83,0,0,0,68-18c13.26-5.95,19.67-10.52,25-16,10.77-11.08,23.45-32.4,18-46-10.72-26.79-90.23-19.92-137-10C666,1049.52,600.92,1071.57,602.5,1092.5Z" transform="translate(-58.5 -390.96)"/><path class="cls-16" d="M737.5,1102.5c19.63-1,33.88-6,45-10,0,0,26.31-9.43,47-28,3.23-2.9,8-7.62,10-15,.53-2,2.14-7.94,0-13-4.59-10.87-24.08-11.74-30-12-14.42-.64-31.61,2.69-54,16-35.49,21.1-32.76,36.78-56,44C668.7,1094.07,717.12,1103.57,737.5,1102.5Z" transform="translate(-58.5 -390.96)"/><path class="cls-19" d="M439.5,1146.5a51.6,51.6,0,0,0-5,23c.48,27.21,23.12,44.8,29,49,22.24,15.9,47.11,13.69,66,12,38.79-3.46,66-21.72,78-30,29.33-20.21,48.61-46.37,54-54,6-8.46,14-21.16,29-39,4.38-5.21,10.89-12.66,19-21,23.75-24.41,37.06-38.09,58-48,12.28-5.81,37.81-17.89,60-8C839.22,1035.72,843,1049,844,1048s-3.67-18.43-16.5-28.5c-14.51-11.39-29.24-13.71-52-17-35-5.06-55.94-8.8-75,1a225.45,225.45,0,0,0-28,17c-7-2-18.19-2.34-24-2-69,4-74.47,42.06-101,61-9.19,6.56-24.79,14.37-56,30C460.93,1124.81,447.25,1130.55,439.5,1146.5Z" transform="translate(-58.5 -390.96)"/><path class="cls-21" d="M1155,1513c.75-5.73,5.43-8.32,21-20,26.85-20.15,24-20.76,31-24,17.75-8.18,35.41-3.94,56,1,17.6,4.23,32.07,11.48,61,26,16.53,8.3,10.79,6.36,35,19,25.14,13.12,31.71,15.4,32,20,.7,11-32.59,22.21-54,27-33.41,7.48-59.27,4-96-1-27.84-3.77-45.7-8.7-63-20C1170.83,1536.32,1153.43,1525,1155,1513Z" transform="translate(-58.5 -390.96)"/><path class="cls-14" d="M521.5,1119.5a87.89,87.89,0,0,0-22,26c-9.56,17.25-10.53,32.9-11,42-.84,16.48,1.8,36.68,6,37,2.44.18,4.23-6.46,7-13,8.85-20.88,24.37-32.71,51-53,12.39-9.44,21.37-15,39-26,32.43-20.18,40.21-22,58-35a239.34,239.34,0,0,0,39-36" transform="translate(-58.5 -390.96)"/><path class="cls-14" d="M673,1021c-7.22,2.93-23.08,10.53-33.5,19.5-5.86,5-10.65,10.76-20,22-13.73,16.5-14.55,19.43-22,27a121.93,121.93,0,0,1-26,20" transform="translate(-58.5 -390.96)"/><path class="cls-8" d="M664.5,1650.5c10.5-15.5,48-64,94.5-97.5,95-68.43,179.89-97,220.5-97.5,18.63-.25,58-.24,96,25,13.61,9.06,53.84,35.81,51,66-1.61,17.14-16.48,28.75-117,78-68.92,33.77-103.79,50.72-124,54" transform="translate(-58.5 -390.96)"/><path class="cls-14" d="M866,1571a81.72,81.72,0,0,0-7,23,79.63,79.63,0,0,0,0,24c3.95,24.18,19.43,36.28,16,40-2.78,3-14.51-3.33-20-7a55.85,55.85,0,0,1-18-20" transform="translate(-58.5 -390.96)"/><path class="cls-22" d="M566,2451c-1.2,1.24,3.87,5.53,6,13,.66,2.33,2.35,9.55-6,29-7.54,17.55-11.31,26.33-20,32-13.41,8.75-27.36,4.18-28,8-1,5.81,31.5,15.66,36,17,7.43,2.21,11.2,3.31,14,3,24.43-2.72,33.36-51.3,34-55,3-17.46-.63-24-3-27-1.47-1.86-2.57-2.49-13-9C570.48,2452.32,566.95,2450,566,2451Z" transform="translate(-58.5 -390.96)"/><path class="cls-23" d="M405,2713a503.68,503.68,0,0,1,64-116c24.17-32.61,41-54.84,72-70,24.82-12.16,34.34-7.84,70-20,27.36-9.33,41.31-18.53,84-44,100.94-60.22,94.42-51.4,130-76,10.21-7.06,48.11-33.62,96-78,123.57-114.51,195.6-181.26,200-270,4.13-83.33-54.36-125.9-22-182,15.32-26.56,33-25,70-66,35.65-39.57,46.7-71.57,64-104,44.06-82.59,109.45-131.93,144-158,24.4-18.41,110.33-79.66,234-98,131.3-19.47,230.7,20.47,344,66,100.27,40.29,236.6,95.07,332,220,27.77,36.37,43.09,66.93,88,102,77.41,60.47,122.37,40.34,182,98,22.91,22.15,13.6,22.53,84,140,43.28,72.22,64.93,108.34,80,126,66.33,77.73,117.49,85.51,136,152,8.8,31.61-.68,37.35,12,66,19.68,44.48,50.48,48.64,82,98,14.06,22,38.11,59.67,26,78-19.15,29-107.84-22-226-22-94.66,0-85.94,36.6-190,44-102.54,7.29-126.26-23.65-244-14-55.63,4.56-48.73,11.33-132,24-122.61,18.65-223.14,17-270,16-146.25-3.06-166.85-22.59-246-2-50.73,13.2-56.6,24.95-118,38-89.27,19-161.84,12.2-182,10-99.69-10.88-95.7-38.58-160-34-72.3,5.15-138,44.48-174,66-33.1,19.8-51.57,35.75-94,52-34.95,13.39-67.64,25.42-101,14-27.49-9.41-31.08-26.41-63-50-16.62-12.28-74.9-55.4-96-40-17.34,12.65,8.41,51.71-16,84-12.3,16.27-30.57,21.88-44,26-34,10.44-61.21,3.19-90-2-99.67-18-147.32,1.59-156-20C371.7,2758.8,373.57,2743.52,405,2713Z" transform="translate(-58.5 -390.96)"/><path class="cls-24" d="M1219.5,2662.5c4.86-7.48,20.56,2.51,60-1,24.17-2.15,25.89-6.58,41-5,13.69,1.44,25.28,6.43,51,23,33.4,21.52,37.1,28.06,52,37,49,29.39,104.79,16,105,21,.17,4.23-39.83,2.52-85,26-15.19,7.89-14.79,10.23-23,12-28.49,6.14-42.1-20.13-87-36-34.79-12.3-40.28-1.36-66-15C1234.86,2707.19,1212.62,2673.08,1219.5,2662.5Z" transform="translate(-58.5 -390.96)"/><path class="cls-25" d="M1525.5,2643.5a196.5,196.5,0,0,1-19,36c-17.1,24.9-38.57,38.83-53,48-26.64,16.93-42.82,19.66-42,24,1.16,6.17,34,.9,89,3,61.25,2.34,71.19,10.82,91,0,17.09-9.33,27.06-28.22,47-66,16.85-31.93,25.28-47.89,21-59-13.37-34.74-108.56-38.4-126-9C1530.55,2625.46,1531.45,2628.64,1525.5,2643.5Z" transform="translate(-58.5 -390.96)"/><path class="cls-24" d="M1534.5,2542.5c-5.86,14-4.19,31.18-4,33,2,18.37,10.44,31,16,39,11.05,16,23.09,23.76,42,36,26.07,16.87,35.77,15.62,39,15,6.25-1.19,8.3-3.83,18-6a75.53,75.53,0,0,1,26-1c22.32,2.44,94.87,6.82,97-2,1.27-5.24-23.88-8.58-45-33-6-7-19.54-22.58-21-43-2.66-37.15,36.86-59.34,29-75-3.86-7.7-16.89-9.28-45-8C1619.39,2500.56,1550.7,2503.69,1534.5,2542.5Z" transform="translate(-58.5 -390.96)"/><path class="cls-24" d="M1462.5,2455.5c-8.66,9.44-2.79,13.81-15,59-10.48,38.77-16.21,59.1-33,78-16.62,18.71-32.89,23.44-31,31,.68,2.71,4.21,7.85,48,11,45.52,3.27,51.39-1.59,88,1,34.05,2.41,42.74,7.58,53,0,12.5-9.24,10.55-25,15-54,9.64-62.86,31.33-70.64,24-93C1596.88,2443.86,1493.14,2422.08,1462.5,2455.5Z" transform="translate(-58.5 -390.96)"/><path class="cls-24" d="M1674.5,1984.5c-4.2,4-13.47,17.32-32,44-10.81,15.56-15.11,22.48-13,25,3.52,4.21,20.19-9.58,48-15,16.85-3.28,26.4-1.27,40-1,39.86.79,95.56-13.79,99-35,2.73-16.8-27.21-38.66-54-45C1715.85,1946.45,1677.09,1982,1674.5,1984.5Z" transform="translate(-58.5 -390.96)"/><path class="cls-24" d="M1654.5,1978.5c20.8-29.24,20.21-38,35-51,5.88-5.18,17.38-13.84,43-21,65.71-18.37,142.52-4,143,9,.28,7.7-26.59,6.07-63,33-25.33,18.73-21,26-41,38-26.2,15.8-37.51,5.71-91,19-32.71,8.12-49.69,17.17-53,12C1624.63,2013,1636.15,2004.3,1654.5,1978.5Z" transform="translate(-58.5 -390.96)"/><path class="cls-24" d="M1357.5,2203.5c6.61,7.53,24.45-9,60-1,19.83,4.44,39,15,39,15,20.92,11.53,25.75,20.64,35,19,10.73-1.9,12-15.54,24-36,17-29,40.77-46.68,60-61,28.94-21.55,43.16-22.77,43-32-.29-16.87-48.08-29.75-75-34-16.7-2.64-43.29-6.84-73,1C1390.79,2095.53,1344.34,2188.5,1357.5,2203.5Z" transform="translate(-58.5 -390.96)"/><path class="cls-25" d="M1267.5,2245.5c5.88,9.74,29.38-6.06,66,9,12.41,5.1,18.56,10.56,27,8,11.88-3.6,12.43-18.25,23-39,17.73-34.81,47.18-54.45,54-59,25.46-17,42.8-16.64,43-25,.25-10.66-27.62-23.66-54-23-22.81.57-39.91,11.24-60,26C1356.8,2149.62,1255.1,2224.94,1267.5,2245.5Z" transform="translate(-58.5 -390.96)"/><path class="cls-25" d="M1291.5,2401.5c-.86-8.83,27.78-9.15,60-37,10.06-8.7,34.28-29.63,44-63,8.6-29.53,1-52.31,12-57,6.19-2.65,11.46,3.39,25,10,18.93,9.25,37.62,10.16,75,12,40.51,2,49.73-8.22,56-1,12.83,14.77-12.27,66.63-50,97-19.26,15.5-38.89,23-70,35-22,8.46-39,15-62,18C1339.12,2421.07,1292.59,2412.64,1291.5,2401.5Z" transform="translate(-58.5 -390.96)"/><path class="cls-25" d="M1555.5,2149.5c-2.81-15.6,12.84-33,29-51,12.28-13.67,26.74-29.75,46-30,12.87-.17,19.91,6.84,32,14,48.66,28.83,87.64,6.08,103,28,11.44,16.34,2.61,47.26-13,65C1704.23,2230.35,1563,2191.18,1555.5,2149.5Z" transform="translate(-58.5 -390.96)"/><path class="cls-24" d="M1530.5,2173.5c-3-10.1,4.56-14.42,6-46,1.15-25.11-2.93-37.83,3-41,6.51-3.48,16.5,9.14,34,20,19.45,12.07,36.59,14.8,63,19,68,10.82,106.63-8.78,114,5,5.87,11-12.89,34.2-30,48C1656.17,2230.38,1541.05,2208.91,1530.5,2173.5Z" transform="translate(-58.5 -390.96)"/><path class="cls-25" d="M1491.5,2217.5c11.54-26,17.86-40.21,22-62,5.19-27.28,2.38-42.25,12-48,11.39-6.81,27.6,6.83,48,17,66.54,33.16,117.73-.51,132,24,9.72,16.69-15.85,29.18-42,108-6.45,19.43-9.47,32.46-22,40-18.2,10.95-37.44-1.13-66-7-70-14.39-118.81,24.3-128,9C1441.18,2288,1466.6,2273.56,1491.5,2217.5Z" transform="translate(-58.5 -390.96)"/><path class="cls-25" d="M1275.5,2139.5c2.39,7.63,25.49-1.35,55,13,22.93,11.15,25.83,24.77,41,26,16.78,1.36,28.58-14.06,46-32,18.48-19,69.85-72,132-91,29.43-9,53.59-8.09,54-15,.37-6.14-18.58-8.25-51-24-38.83-18.87-42.24-30.71-63-33-23.34-2.57-41.93,9.88-63,24-39.14,26.22-37,43.13-75,76C1310.39,2119,1272.49,2129.87,1275.5,2139.5Z" transform="translate(-58.5 -390.96)"/><path class="cls-25" d="M1140.5,1965.5c-44,24.61-68.52,54.93-92,84-13.91,17.23-38.34,47.47-31,57,5.65,7.33,24.19-5.25,72-12,35.4-5,39.93-.17,51-8,16.29-11.51,12.08-25.89,34-64a260.86,260.86,0,0,1,24-35c30-36.53,58.2-46.53,56-52C1251.48,1928,1193.95,1935.63,1140.5,1965.5Z" transform="translate(-58.5 -390.96)"/><path class="cls-24" d="M988.5,2020.5c2.29,4.23,19.53,5.82,54,9,35,3.23,43.23,2,50,0,16.67-4.82,25.59-14,40-27,55.54-50,84.57-58.6,81-73-2.59-10.43-19.92-14.47-35.5-18.11-30.67-7.16-57-.69-69.5,3.11C1039.07,1935.58,977.76,2000.67,988.5,2020.5Z" transform="translate(-58.5 -390.96)"/><path class="cls-24" d="M1025.5,1991.5c16.36,4,26.81,9.08,41,5,8.79-2.53,15-7.4,21-13,23.31-21.66,29.54-40.55,41-56,28.17-38,74.45-37.08,73-46-1.48-9.07-50.34-16.06-100-3-81,21.28-140.14,89.53-131,106C974.54,1991.78,988.23,1982.31,1025.5,1991.5Z" transform="translate(-58.5 -390.96)"/><path class="cls-24" d="M1195.5,1827.5c1.38,5.69-6.16,8.21-21,28-7.39,9.86-18.55,24.74-25,44-8.78,26.21-1.57,38.79-11,45-8.38,5.51-16.16-3-43-8-15.27-2.82-29.51-2.55-58-2-36.47.7-43.84,3.92-47-1-9.78-15.23,47.41-66.79,51-70,22-19.69,41.28-36.87,72-45C1150.09,1808.81,1192.42,1814.74,1195.5,1827.5Z" transform="translate(-58.5 -390.96)"/><path class="cls-25" d="M1107.5,1897.5c16.56-6.41,10.14-27.76,33-58,9.42-12.47,19.62-20.31,40-36,34.11-26.25,51.34-31.23,50-36-2.37-8.42-59.91-7-113,16-31.32,13.6-51.2,30.45-79,54-14.8,12.54-46,39-41,48,4,7.14,25.36-6.52,60-1C1087.12,1889.22,1093.86,1902.78,1107.5,1897.5Z" transform="translate(-58.5 -390.96)"/><path class="cls-25" d="M1212.5,2025.5c4.88,8,16.83.63,45,7,47.43,10.72,61,42.19,84,36,14.36-3.86,15-17.68,31-40,38.27-53.48,90.51-52.46,90-71-.65-23.6-86.27-60.06-159-33C1244.09,1946.6,1201.73,2007.94,1212.5,2025.5Z" transform="translate(-58.5 -390.96)"/><path class="cls-24" d="M1521.5,1654.5c5.66,9.54,18.05,5.27,40,24,8.51,7.26,12.1,12.56,18,12,9.23-.87,11.22-14.86,20-27,19.44-26.88,50.19-14.33,69-36,17.52-20.18,17.37-61.58-3-78-23.21-18.71-63,2.85-78,11C1542.25,1585,1510,1635.06,1521.5,1654.5Z" transform="translate(-58.5 -390.96)"/><path class="cls-25" d="M1644.5,1948.5c-2.81-4.06-1.21-10.44,25-51,46.78-72.39,59.27-79.27,71-82,25.19-5.86,46,7.65,48,9,34.63,23.26,39.44,82.35,18,102-9.81,9-19.43,4.52-51,6C1687.16,1935.71,1652.72,1960.38,1644.5,1948.5Z" transform="translate(-58.5 -390.96)"/><path class="cls-25" d="M1465.5,1876.5c-.4-10.19,16.4-19.79,50-39,41.34-23.63,42.75-13.64,75-33,5.59-3.36,16.31-10.12,30-9,10.76.88,18.34,6.22,21,8,35.11,23.47,108,24.75,108,36,0,6.94-27.77,6.93-68,21-62.72,21.93-66.76,47-109,54C1521.64,1922.93,1466.3,1896.74,1465.5,1876.5Z" transform="translate(-58.5 -390.96)"/><path class="cls-25" d="M1405.5,1747.5c20.6-14.6,22.23-8.24,63-31,29.13-16.26,35.55-23.55,51-24,19.75-.57,29.5,10.77,50,22,54.54,29.88,107.49,16.41,108,24,.4,5.94-32.27,9.9-89,27-54,16.26-81.25,24.75-97,42-26.25,28.75-22,60.18-45,66-11.53,2.92-21.81-2.64-41-13-22.62-12.21-45.63-24.64-49-45C1351.57,1785.73,1391.67,1757.31,1405.5,1747.5Z" transform="translate(-58.5 -390.96)"/><path class="cls-24" d="M1378.5,1830.5c24.2-13.2,23.94-26,53-48,27.27-20.62,47.18-24.21,46-32-1-6.83-16.69-6.17-48-16-16.16-5.07-41.6-13.07-67-30-23.81-15.87-26-25.23-39-26-14-.83-28.18,9.09-48,35-7.49,9.79-80.26,106.27-53,136,9,9.82,41.67,4.55,107-6C1360.43,1838.51,1369.36,1835.48,1378.5,1830.5Z" transform="translate(-58.5 -390.96)"/><path class="cls-25" d="M1323.5,1944.5c36-27.23,45.57-18.29,72-42,32.62-29.27,38.68-61.37,58-60,8.16.58,11.11,6.58,21,15,18.89,16.08,36.14,18,86,28,85.62,17.16,89.48,22.43,90,26,1.17,8-13.45,13.77-54,37-35.15,20.13-80.41,48-107,65-34.72,22.18-41.15,28.07-58,31-16.65,2.89-26.06-.13-69-10-74.29-17.07-85.91-17.15-89-27C1267.1,1987.12,1307.27,1956.76,1323.5,1944.5Z" transform="translate(-58.5 -390.96)"/><path class="cls-26" d="M1162.5,1936.5c-6.88-18.94,5.31-39,26-73,13.55-22.29,30.79-50.64,64-63,14.65-5.45,26.77-5.3,51-5,46.85.58,54.4,13.71,98,12,15.82-.62,27.88-2.86,30,2,2.5,5.71-12,13.68-26,30-25.1,29.35-31.25,65.74-34,82-5.84,34.52,1.81,46.43-9,57-11.22,11-29.76,8.22-62,2C1213,1963.61,1169.14,1954.79,1162.5,1936.5Z" transform="translate(-58.5 -390.96)"/><path class="cls-25" d="M1474.5,1462.5c5.31-7.06,13.49-15.83,38-31,15.53-9.61,27.74-17.16,45-24,12.55-5,45.89-17.81,85-15,51.68,3.71,107,34.28,104,52-3.49,20.54-84.67,20.11-156,45-26.62,9.29-39.94,13.94-54,23-13.53,8.72-17.19,13.88-27,15-20.53,2.35-46.62-15.43-48-36C1460.78,1480.75,1467,1472.45,1474.5,1462.5Z" transform="translate(-58.5 -390.96)"/><path class="cls-24" d="M1365.5,1636.5c1.39,6.6,13.84,3.4,51,17,29,10.6,54.43,19.92,75,42,18.39,19.73,21.25,37.18,30,36,8.94-1.2,13.69-20.45,19-42,4.52-18.32,7-28.41,6-42-1.49-20.22-10.53-45.61-27-59C1471,1549.1,1361.22,1616.21,1365.5,1636.5Z" transform="translate(-58.5 -390.96)"/><path class="cls-25" d="M1293.5,1693.5c16.33,4.62,30.15,12,45,20,23.36,12.53,37.66,20.2,37,28-.85,10-25.64,12.13-64,23-44.27,12.54-91.17,25.83-128,60-28.29,26.24-37,52.15-46,49-12.4-4.33-4.09-56.37-3-63,6.87-41.61,13-78.57,45-103C1223.75,1673.76,1282.66,1690.43,1293.5,1693.5Z" transform="translate(-58.5 -390.96)"/><path class="cls-25" d="M1252.5,1669.5c7.05,7.64,29.42-18.32,74-14,33.23,3.22,67.5,22.16,69,23,22.25,12.51,27.73,21.51,40,20,16.5-2,17.51-19.66,39-42,35.12-36.51,72.35-30.91,80-60,.41-1.55,3.74-15-3-27-9.92-17.64-34.14-18.78-63-24-60.21-10.88-61.76-25.23-89-26C1314.73,1517.11,1237.74,1653.52,1252.5,1669.5Z" transform="translate(-58.5 -390.96)"/><path class="cls-26" d="M1503.5,1492.5c-23.34,13-38.58,23.23-65,41-53.52,36-80.27,54-106,81-12.84,13.49-44.63,47.43-69,100-23.62,50.95-25.86,88.33-41,89-7.08.31-17.15-15.45-37-47-16.32-25.94-24.51-39.09-26-48-3.6-21.6,7.61-43.06,42-82,32.06-36.3,70.5-79.08,140-121,41.45-25,74.56-45,117-49,13-1.23,19.39-.26,66-3,34.2-2,47-3.49,48,0C1574.06,1458.91,1545.35,1469.21,1503.5,1492.5Z" transform="translate(-58.5 -390.96)"/><path class="cls-24" d="M805.5,2392.5c-13.51,9-3.59,26.05-18,44-22.12,27.55-66.65,13.79-73,33-3.62,11,7.94,24.3,15,30,15.76,12.74,36,9.14,48,7,29.15-5.19,47.58-22.6,66-40,21.57-20.38,32.76-30.95,31-44C871.23,2398.23,825.06,2379.43,805.5,2392.5Z" transform="translate(-58.5 -390.96)"/><path class="cls-25" d="M744.5,2428.5a228.75,228.75,0,0,0,33-33c14-17.33,12.69-21.59,25-36,9.67-11.33,16.86-16.15,32-28,51.32-40.16,48.76-47.32,67-53,29.12-9.07,63.81.4,66,12,1.68,8.87-16.7,13.3-46,39-8.07,7.08-34.23,30-56,65-17.27,27.74-20.17,44.39-39,52-7.53,3-11.13,2-31,2-50.88-.06-76.46,6.54-78,1C716.55,2446.08,726.21,2443.27,744.5,2428.5Z" transform="translate(-58.5 -390.96)"/><path class="cls-25" d="M289.5,2782.5c.83,4.2-28.66,8.74-31,24-1.68,10.94,11.83,19.5,9,24-3.1,4.91-21.29-2-35-6-8.14-2.36-13.3-3.26-76-7-70.71-4.22-94.85-4.9-95-8-.13-2.68,18-1.69,45-13,19.31-8.09,23.72-14.35,39-17,15.57-2.71,27.41.94,36,3C235.4,2795.45,288.36,2776.76,289.5,2782.5Z" transform="translate(-58.5 -390.96)"/><path class="cls-25" d="M550.5,2710.5c-12.49,5.49-10.77,18.32-28,44-1.46,2.17-13.92,20.54-29,33-36,29.79-84.16,23.44-84,27,.1,2.35,21,3,69,4,48.89,1,55.24,1,65-4,15.4-7.81,24.26-20.87,42-47,16.6-24.45,15.61-31.35,15-34C596.48,2716,567.68,2702.94,550.5,2710.5Z" transform="translate(-58.5 -390.96)"/><path class="cls-24" d="M840.5,2769.5c-3.56.91-11.37,3.61-27,9-39.64,13.68-36.77,14.71-87,34-21.33,8.19-29.37,10.89-29,14,.53,4.5,18.06,4,57,9,39.39,5.07,43.94,8.49,59,6,17.43-2.88,23.91-9.54,49-24,54.41-31.36,81-32.94,80-41C941.08,2765.36,888.8,2757.12,840.5,2769.5Z" transform="translate(-58.5 -390.96)"/><path class="cls-25" d="M714.5,2782.5c-19.46,9-15.29,16.24-38,29-20.2,11.35-30.28,9.44-67,19-29.63,7.71-65.84,20.09-65,24,.63,2.93,21.58-.8,80-4,24.5-1.34,24.88-.91,33-2,31.39-4.21,42.44-12.9,69-21,51.48-15.7,85-5.91,88-18,1.94-7.68-10.27-16.75-16-21C775,2771.06,740.68,2770.38,714.5,2782.5Z" transform="translate(-58.5 -390.96)"/><path class="cls-24" d="M742.5,2760.5c2.8,4.19,16.87,1.79,45-3,33.39-5.69,32.64-10.32,60-14,22.27-3,31.14-1,38-9,7.19-8.33,2.82-16.68,10-30,6.8-12.62,17.89-18.41,24-22,33.48-19.65,80.83-68.88,75-80-5.23-10-57.17,3.24-102,24C801,2668.88,732.61,2745.72,742.5,2760.5Z" transform="translate(-58.5 -390.96)"/><path class="cls-24" d="M735.5,2739.5c6.25,8.12,30.07-13.06,84-12,26.75.52,33,6,45,0,22-10.94,17.07-37.14,37-78,23.12-47.39,55.17-64.15,50-72-5.83-8.84-49.91,7.25-87,28C782.17,2651.55,724.94,2725.78,735.5,2739.5Z" transform="translate(-58.5 -390.96)"/><path class="cls-25" d="M663.5,2674.5c-11.2,4.67-12.72,14.67-30,47-1.4,2.61-9.6,16.74-26,45-21.75,37.47-27.1,45.23-24,49,4.37,5.31,18.52-5.84,47-12,26.22-5.67,49.42-3.83,85-1,33.42,2.66,40,6.19,48,0,14.07-10.9,3.15-29.24,15-63,5.31-15.14,15.54-28.76,36-56,26.69-35.54,41.73-48.4,39-52-6.56-8.66-88.93,71.56-153,49C689.63,2676.67,676.73,2669,663.5,2674.5Z" transform="translate(-58.5 -390.96)"/><path class="cls-25" d="M801.5,2656.5c15.28.51,34,1.13,54,5,25.54,4.94,25.93,9.89,36,9,11.22-1,25.32-8.44,55-62s32.32-76.26,60-117c15.39-22.65,32-28.68,29-37-3.84-10.47-28.23-3.12-89-9-33.37-3.23-46.33-7.41-63,1-12.19,6.15-18.28,15-31,35-41.84,65.94-40.74,72.81-69,121-15.41,26.28-26,41.8-20,50C767.17,2657.49,773.91,2655.58,801.5,2656.5Z" transform="translate(-58.5 -390.96)"/><path class="cls-24" d="M591.5,2688.5c6.78,7.56,16-2,58,4,18.82,2.67,36.1,5.11,56,15,17.52,8.7,19.65,14.52,28,14,16.83-1,25.15-25.75,42-59,36.35-71.74,61.1-82.05,53-103-10.44-27-59.84-31.22-69-32-9-.77-33.11-1.81-63,11C619,2571.69,573,2667.86,591.5,2688.5Z" transform="translate(-58.5 -390.96)"/><path class="cls-25" d="M631.5,2661.5c11,1.82,19.81-3.86,42,0,14.25,2.48,16.1,5.79,24,6,5.74.16,20.68-1.16,50-39,19.66-25.38,17.9-31.19,49-87,14.59-26.18,21.75-37.06,17-44-5.73-8.36-20.75.72-50-3-33.42-4.25-39.75-19.42-64-18-16.13.94-26.82,8.44-47,23-38.44,27.74-62.44,45.06-67,76C579.9,2613.46,605.73,2657.23,631.5,2661.5Z" transform="translate(-58.5 -390.96)"/><path class="cls-24" d="M201.5,2760.5c1.6-10.19,41.13,1.28,99-21,33.31-12.83,43.35-25.54,69-24,20.3,1.22,22.07,9.67,55,21,46,15.83,77.09,11.23,78,19,.6,5.15-12.76,9.33-46,23-66.14,27.21-70,34-93,36-19.5,1.7-36-2.86-69-12C287.94,2800.68,199.1,2775.77,201.5,2760.5Z" transform="translate(-58.5 -390.96)"/><path class="cls-24" d="M441.5,2712.5c5.13,21.13,46.83,28.65,64,30,28,2.21,48.61-7.47,71-18,39.43-18.54,62.42-43.78,76-59,17.34-19.44,31.06-35.22,35-60,1.6-10.07,5.18-32.56-6-42-7.07-6-24.7-10.67-111,41C491.2,2652,435,2685.64,441.5,2712.5Z" transform="translate(-58.5 -390.96)"/><path class="cls-25" d="M283.5,2706.5a547.08,547.08,0,0,0,66-39c43.3-30.12,52.69-47.59,81-50,9.74-.83,19.74.29,35,2,23.21,2.6,37.61,6.72,48,9,55,12.07,91.29-6.77,96,4,2.29,5.25-4.58,13.7-45,48-32.93,27.94-49.39,41.91-81,65-73.74,53.86-88.18,55.63-99,55-9.77-.57-25.51-7.71-57-22-36.29-16.47-43.33-24.14-68-30-25.75-6.11-41.08-3.21-42-8C216.28,2734.12,243.13,2726.9,283.5,2706.5Z" transform="translate(-58.5 -390.96)"/><path class="cls-25" d="M462.5,2587.5c-4-8.89,12.36-24.2,25-36,13.37-12.48,29.47-24.39,51-36,13.56-7.32,24.71-11.88,47-21,37.27-15.25,38.06-13.14,55-22,17.49-9.14,32.09-16.78,47-32,13-13.3,13.33-19.15,24-24,13.69-6.22,20.23.22,43-3,23.25-3.28,33.2-12.36,36-9,4.4,5.29-15.58,33.45-42,56-38.77,33.08-82.45,46.44-108,54-21,6.22-31.68,7.39-70,19-40.13,12.16-47.93,16.78-55,24-15.23,15.56-16.59,32.48-32,36C475.41,2595.35,465.05,2593.13,462.5,2587.5Z" transform="translate(-58.5 -390.96)"/><path class="cls-25" d="M1611.5,2352.5c19.09-2.11,42.72,6.93,90,25,16.92,6.47,26.1,10.86,27,18,1.32,10.53-16.66,16.64-36,33-29.53,25-41.65,56.5-53,86-10.68,27.75-17.28,44.91-16,69,1.56,29.28,13.73,49.29,7,54-5.42,3.79-16.19-7.19-33-17-47.5-27.71-78.56-8.28-99-30-13.88-14.75-11.26-36.17-6-79,4.93-40.18,10.22-83.31,45-119C1546.69,2383.07,1572.26,2356.83,1611.5,2352.5Z" transform="translate(-58.5 -390.96)"/><path class="cls-25" d="M1642.5,2275.5c-13,7.48-21,21-37,48-12.83,21.65-12.36,26.37-29,59-18.29,35.87-29.85,51.7-27,54,3.12,2.51,17.44-16.12,44-35,35.65-25.34,50.15-20.42,87-43,19.49-11.94,64.57-39.57,60-62C1735.75,2273.18,1677.33,2255.43,1642.5,2275.5Z" transform="translate(-58.5 -390.96)"/><path class="cls-25" d="M1684.5,2214.5c-40.46,21.31-39.09,41-87,76-36.91,27-67.56,37.05-66,41,1.67,4.22,35.4-10.24,95-17,49.07-5.56,72.76-1,85,2,14.29,3.55,15.62,5.75,24,6,37.09,1.11,85.36-39.63,78-78-6-31.43-46.16-44.43-48-45C1732.39,2189.28,1702.19,2205.19,1684.5,2214.5Z" transform="translate(-58.5 -390.96)"/><path class="cls-25" d="M1821.5,2026.5c-28.83-8.2-58.77,20-81,41-34.41,32.45-59.53,73.58-72,94-13.68,22.41-21.49,38.51-42,53-20.13,14.23-39.77,17.9-39,22,.87,4.67,26.82,2.26,54,2,86.45-.82,117,20.84,138,1,12.42-11.72,3.48-20.88,13-55,19.3-69.12,70.89-84.82,63-122C1851.75,2044.82,1836.33,2030.72,1821.5,2026.5Z" transform="translate(-58.5 -390.96)"/><path class="cls-25" d="M1801.5,2673.5c-13.21,12.46-7.67,23.12-22,45-16.17,24.68-35.14,29.32-33,36,2.95,9.19,37.5-3.94,90,4,35.21,5.33,57.44,17,64,8,3.28-4.48.23-11.72-6-26-22-50.41-33.18-75.68-42-79C1835.37,2655.05,1813.67,2662,1801.5,2673.5Z" transform="translate(-58.5 -390.96)"/><path class="cls-25" d="M1746.5,2608.5c-3.34,4-8.89,14.34-20,35-16.93,31.49-15.36,32.92-21,40-24.54,30.77-72.32,26.24-72,32,.23,4.18,25.47,9.19,56,7,50.79-3.65,56.18-22.93,99-22,21.67.47,32.19,5.67,48-2,2.82-1.37,10.94-5.63,30-30,19.59-25,29.38-37.56,28-45C1888.74,2592.5,1778.11,2570.51,1746.5,2608.5Z" transform="translate(-58.5 -390.96)"/><path class="cls-24" d="M1773.5,2535.5c-12.58,13-23.44,25.79-27,30-4.07,4.81-7.34,8.83-39,52-10.48,14.29-15.68,21.48-14,24,3.59,5.38,22.75-6.9,53-12,15.62-2.63,35.75-.76,76,3,33.2,3.1,49.8,4.65,66,8,38.89,8.05,46.51,16.06,60,10,4.26-1.91,9.14-5.25,33-51,18.6-35.67,19.57-41.18,20-45,3.16-28-12.78-50.71-20-61-4.37-6.23-34.64-49.36-79-51C1864.56,2441.1,1834.21,2472.57,1773.5,2535.5Z" transform="translate(-58.5 -390.96)"/><path class="cls-24" d="M1770.5,2464.5c-13.6,16.57-6,20.57-24,51-7.38,12.46-23.84,39.66-54,62-19.26,14.27-33.09,18.38-32,22,1.61,5.36,32-3.36,83-4,29.53-.37,45.27-.57,67,4,31.48,6.62,40.74,15.93,59,12,14.71-3.16,26.81-13.1,42-34,8.85-12.18,79-108.71,46-147-20.16-23.37-68.06-12.63-111-3C1818.54,2433.77,1790.17,2440.53,1770.5,2464.5Z" transform="translate(-58.5 -390.96)"/><path class="cls-25" d="M1794.5,2310.5c-15.78,13.84-4,30.67-26,82-8.86,20.66-10.5,17.29-31,57-25.79,50-22.76,54.43-36,69-27.25,30-61.69,34.77-60,41,1,3.62,13.09,3.73,57,0,78.43-6.66,83-10.67,102-6,33.89,8.32,40.87,26.33,64,22,18.59-3.48,29.76-18,42-34,26.46-34.48,33-71.83,41-120,4.2-25.46,6.3-38.18,4-47C1936.09,2315.53,1828.91,2280.32,1794.5,2310.5Z" transform="translate(-58.5 -390.96)"/><path class="cls-25" d="M2094.5,2713.5c-5,18.42,7.13,39,19,59,10,16.93,16.31,27.53,29,33,18.24,7.86,27-4.69,63-6,31.63-1.15,46.94,7.75,52,0,2.61-4-.11-8.44-18-45-12.84-26.23-16-33.19-18-44-3.41-18.11,1-21.89-3-28C2202.88,2658.58,2106.05,2671.32,2094.5,2713.5Z" transform="translate(-58.5 -390.96)"/><path class="cls-25" d="M1993.5,2643.5c-5.56,8.82-4.4,11.51-15,30-18.36,32-31.14,40.16-28,48,3.62,9.06,22.49,2.75,66,7,41.13,4,72.43,14.37,97,15,4.94.13,11.62-.09,21,2,9.92,2.21,12.45,4.67,17,4,10.22-1.51,16.12-16.7,19-25,15.46-44.53,28-80.59,8-105-15-18.34-39.82-19.64-66-21C2108.68,2598.3,2024.12,2594.92,1993.5,2643.5Z" transform="translate(-58.5 -390.96)"/><path class="cls-24" d="M1965.5,2544.5c-6.9,11.85-1.22,16.35-14,60-7,23.75-11.1,37.54-21,54-13.62,22.64-24.46,27.62-22,34,3.78,9.78,31.18,3,91,3,44.28,0,66.42.05,89,6,26.17,6.89,34.94,14.48,46,9,17.19-8.51,18.63-38,20-75,1.83-49.37,2.74-74-9-91C2109,2491.86,1990.92,2500.83,1965.5,2544.5Z" transform="translate(-58.5 -390.96)"/><path class="cls-25" d="M2067.5,2478.5c-5.62,6.95-1.13,14.36,0,34,2.22,38.71-11.79,70.1-18,84-15.93,35.67-34.86,45.79-30,54,5.86,9.9,33.31-4.9,87-6,12.15-.25,32.43,1.5,73,5,57.18,4.93,70.4,7.77,80-2,6.17-6.28,6.91-13.76,6-55-1.14-51.32-1.79-77.09-6-83-14.17-19.88-32.08-9.29-123-28C2100.16,2474,2076.85,2466.94,2067.5,2478.5Z" transform="translate(-58.5 -390.96)"/><path class="cls-25" d="M1977.5,2419.5c-15.88,33.86-2.37,52.25-27,107-13.85,30.78-29.64,50.57-23,58,5.87,6.58,22.62-4,53-12,41.57-10.88,76.23-8.27,93-7,61.67,4.65,84.25,29.58,100,16,9.29-8,7.32-28.78,3-70-2.57-24.49-6.3-44.79-15-84-11.55-52-17.46-78.17-24-83C2103,2319,2007.38,2355.78,1977.5,2419.5Z" transform="translate(-58.5 -390.96)"/><path class="cls-24" d="M2485.5,1864.5c21.4,7.6,39.95,21.53,65,15,26.18-6.83,40.2-31,46-27,4.45,3.06.39,20.18-9,33-10.89,14.87-27,21.28-49,27-51.54,13.39-92,12-92,12-31-1.06-113-7.49-114-24C2331.41,1883.24,2417.87,1840.49,2485.5,1864.5Z" transform="translate(-58.5 -390.96)"/><path class="cls-25" d="M2445.5,1834.5c22.77,3.19,31.13,14.8,64,17,31.79,2.13,52.71-6.8,54-3,1.52,4.48-26.41,20.47-58,30-16.93,5.11-32.18,7.54-66,10-63.75,4.64-95.63,7-98,0C2336.91,1875,2392.88,1827.13,2445.5,1834.5Z" transform="translate(-58.5 -390.96)"/><path class="cls-25" d="M2344.5,1755.5c16.61,4.21,17.71,13.27,57,34,14.94,7.88,35.44,18.7,62,26,45.88,12.61,80.44,6.63,81,12,.31,2.95-10,5.88-41,16-44,14.35-41.36,14.34-51,17-37.15,10.26-69.55,8.61-97,7-63.6-3.74-121.26-7.13-128-31C2218.89,1806,2293.64,1742.61,2344.5,1755.5Z" transform="translate(-58.5 -390.96)"/><path class="cls-25" d="M2817.5,2254.5c20.59,10.88,36.41,32.31,48,48,12.23,16.56,18.53,29.84,30,54,15.85,33.39,23.65,50.22,18,57-8.36,10-38.49-2.22-57-10-124.7-52.43-187-78.65-185-104C2674.33,2264.49,2764.81,2226.67,2817.5,2254.5Z" transform="translate(-58.5 -390.96)"/><path class="cls-24" d="M2743.5,2203.5c3.69.73,15.46,5.15,39,14,47,17.67,47.72,19.27,63,24,41.82,12.94,69,11,69,15,0,3.32-18.83,5.13-67,12-49.93,7.12-74.89,10.68-87,13-46.15,8.84-53.37,14.36-69,9-25-8.57-47.09-36.59-42-57C2656.13,2206.93,2708,2196.5,2743.5,2203.5Z" transform="translate(-58.5 -390.96)"/><path class="cls-26" d="M2922.5,2731.5c22.53-9.5,32.68-14.29,49-15,14.36-.63,23,2.36,38,6,0,0,36.19,8.76,87,12,46.8,3,73.18-4,74,0,1.27,6.23-61.43,23.62-70,26-42.71,11.85-64.06,17.77-91,18-33.11.28-33-7.35-87-12-42.12-3.62-64.1-.86-65-6C2856.79,2756.44,2870.34,2753.49,2922.5,2731.5Z" transform="translate(-58.5 -390.96)"/><path class="cls-25" d="M2938.5,2668.5c.29,4.22,18.86,6.12,47,9,20.66,2.11,34.62,3.54,54,3,4.79-.13,56.42-1.57,57-9,.5-6.4-37-15.25-66-18a201.42,201.42,0,0,0-54,2C2963.88,2657.7,2938.16,2663.47,2938.5,2668.5Z" transform="translate(-58.5 -390.96)"/><path class="cls-25" d="M2979.5,2511.5c9.77,12.27,11,25.66,30,43,17.9,16.31,37.43,23.22,63,32,37.89,13,63.29,15,63,18-.31,3.15-29.23,1.66-63,3-54.72,2.17-79,10.06-102,12-86.93,7.32-190.44-67.56-183-102C2795.54,2480.28,2939.44,2461.2,2979.5,2511.5Z" transform="translate(-58.5 -390.96)"/><path class="cls-24" d="M2761.5,2544.5c30.87-7.17,35.33-7.69,39-8a158,158,0,0,1,56,6c48.74,14.7,46.75,43.7,94,59,6.65,2.15,1.3-.17,59,10,52.47,9.24,60.07,11.72,60,14-.08,2.9-12.52,3.21-57,10-34.05,5.2-47,8.11-72,9-1.77.06-13.42.46-27,0-24.23-.82-77.83-2.62-132-27-33.54-15.1-76.41-43-72-57C2710.41,2557.61,2713.18,2555.71,2761.5,2544.5Z" transform="translate(-58.5 -390.96)"/><path class="cls-24" d="M2608.5,2484.5c3-6.43,15.05-10,39-17,41.08-11.93,61.62-17.9,83-13,22.53,5.17,20.17,16,72,60,32.81,27.83,51.57,43.45,81,54,30.41,10.9,55.17,10.29,55,13-.15,2.35-18.67,2.54-79,5-38.7,1.58-50.1,2.27-65,4-34.28,4-40.6,8.07-54,9C2672.13,2604.27,2594.23,2514.94,2608.5,2484.5Z" transform="translate(-58.5 -390.96)"/><path class="cls-25" d="M2613.5,2674.5c-3.22,8.66,15.15,24.56,52,56,23.34,19.91,29.12,23,36,25,18.3,5.41,31.15-.27,56-6,53.27-12.29,86.85-7.57,87-12s-32.83-.65-75-16c-56.24-20.48-70-53.46-119-56C2646,2665.26,2617.48,2663.79,2613.5,2674.5Z" transform="translate(-58.5 -390.96)"/><path class="cls-24" d="M2482.5,2686.5c.15,13.21,22.16,20,26,48,1.39,10.16-.51,16.57,4,20,6.54,5,16.67-3.85,41-14,12.78-5.33,35.52-11.55,81-24l6.16-1.68c32.86-8.93,47.22-12.63,63.84-17.32,27-7.62,40.54-11.48,41-14,2.5-13.66-59.23-46.47-126-49C2548.84,2631.82,2482.24,2663.43,2482.5,2686.5Z" transform="translate(-58.5 -390.96)"/><path class="cls-24" d="M2335.5,2745.5c-11.77,8.78-52.55,39.22-46,55,3,7.13,13.28,5.71,63,11,43.22,4.6,55.41,7.79,79,4,17.93-2.88,30.83-5.15,41-16,14.18-15.14,13.47-36.77,13-51-.57-17.23-1.2-36.5-13-47C2443.56,2675.75,2368.14,2721.14,2335.5,2745.5Z" transform="translate(-58.5 -390.96)"/><path class="cls-24" d="M2316.5,2548.5c-14.29,22.79,13.66,45.94-2,81-20.39,45.66-87.38,50.26-85,65,.93,5.73,11.56,8.1,75,18,62.33,9.73,76.14,11.21,84,12,50.27,5.06,75.75,7.44,93,0,38.79-16.74,53.4-55.53,55-60,1.06-3,13.95-40.37-1-74C2501.54,2514.11,2344.54,2503.78,2316.5,2548.5Z" transform="translate(-58.5 -390.96)"/><path class="cls-25" d="M2836.5,2484.5c38.18,18.63,57.5,28.24,69,43,12.68,16.27,15.94,30.87,33,38,12.17,5.09,18.93,1.17,38,1,43-.38,63.37,19,69,12,9.7-12.11-48.17-72.79-56-81-22.11-23.19-36.44-38.21-61-52-19.38-10.88-24.75-9.55-60-27-13.32-6.6-15.3-8.14-50-27-57.05-31-63.24-33.08-69-30-16,8.55-19.12,51.72,0,79C2762.38,2458.88,2774.16,2454.08,2836.5,2484.5Z" transform="translate(-58.5 -390.96)"/><path class="cls-24" d="M2649.5,2392.5c-9.79,14.81,44.78,69.61,70,92,26.26,23.32,30.29,20,53,43,29.16,29.51,39.77,52.4,58,51,10.32-.8,8.84-8.29,29-18,20.79-10,41.8-11.41,52-12,21.39-1.24,28.11,2.56,30-1,5.58-10.51-49-51.19-84-74-7.49-4.88-14.46-9.4-25.51-15.73C2777.65,2426.68,2662.11,2373.42,2649.5,2392.5Z" transform="translate(-58.5 -390.96)"/><path class="cls-24" d="M2526.5,2161.5c-3.44,4.73,10,23.88,37,62,21.82,30.79,39.07,55,66,87,40.25,47.8,36.81,35.37,54,60,13.16,18.85,19.9,32.92,33,34s17-12.3,39-21c26.15-10.32,46-1.39,48-7,2.87-8.12-40.67-21.35-78-56-39.23-36.42-29.72-57.61-64-96C2612.59,2169.72,2535.87,2148.64,2526.5,2161.5Z" transform="translate(-58.5 -390.96)"/><path class="cls-26" d="M2608.5,2373.5c-1.3,14.81,30.13,35.21,93,76,38.12,24.73,57.69,37.29,83,47,17.28,6.63,26.61,8.15,43,18,20.7,12.43,27.47,23,39,21,12-2.08,11.54-14.75,27-23,20.6-11,42.18.4,44-4,2.68-6.49-44.05-32-74-48-88.86-47.6-95.82-47.51-114-65-33.6-32.33-31.33-53.32-57-61C2658,2324.18,2610.64,2349.15,2608.5,2373.5Z" transform="translate(-58.5 -390.96)"/><path class="cls-25" d="M2440.5,2545.5c-.23,9.41,3,8,20,47,16.08,36.8,20.9,55.61,40,94,14.74,29.63,22.29,39.38,33,41,12,1.81,21.67-7.5,30-14,16.94-13.21,50-19.81,116-33,51.14-10.22,56.92-8.33,105-19,45.1-10,74.9-16.8,75-26,.11-9.76-33.4-8.26-74-28-59-28.69-57-65.32-135-120-24.81-17.4-37.22-26.09-55-30C2526.91,2442.44,2441.68,2497,2440.5,2545.5Z" transform="translate(-58.5 -390.96)"/><path class="cls-25" d="M2232.5,2451.5c-1.5,16.27,4.66,17.41,9,73,2.76,35.35,4.05,53.51,0,77-5.93,34.34-16.41,41.81-11,52,7.2,13.56,33.89,15.57,122,2,135.07-20.8,129.79-34.36,195-36,42.93-1.08,72.22,4.12,81-12,6.72-12.33-3.68-27.77-26-65-63.61-106.12-58.79-113.6-90-147-32-34.22-48-51.33-75-60C2352.66,2308.28,2238.71,2384.35,2232.5,2451.5Z" transform="translate(-58.5 -390.96)"/><path class="cls-25" d="M2622.5,1861.5c4,4.53-5.2,13.22-9,36-3.63,21.73.57,38.92,4,53,9.39,38.49,30,64.25,42,79,14.4,17.64,38.18,46.77,78,63,48,19.54,92.06,9.32,93,17,.53,4.34-13.29,9.6-33,16-56.8,18.44-85.2,27.66-105,27-77.23-2.58-138.46-92.5-156-162-5.22-20.67-12.08-49.58,2-78C2559.22,1870.67,2614.26,1852.2,2622.5,1861.5Z" transform="translate(-58.5 -390.96)"/><path class="cls-25" d="M2563.5,2023.5c19.66-2.38,25.34,25.79,69,63,25.12,21.41,59.75,36.94,129,68,47.6,21.35,72,32.16,104,39,40.66,8.7,69.84,7.63,70,12,.17,4.75-34.26,6.85-106,21-60.07,11.85-90.11,17.78-105,24-15.45,6.46-26.72,12.75-44,12-24.47-1.07-42.06-15.45-58-29-64.21-54.57-96.32-81.86-101-102C2510.6,2084.59,2536.44,2026.78,2563.5,2023.5Z" transform="translate(-58.5 -390.96)"/><path class="cls-25" d="M2475.5,1972.5c10.86,3.54,13.91,9.1,45,50,11.34,14.91-35-46.19,72,91,23.74,30.45,29.74,38.23,43,48,26.08,19.21,51.06,24.61,50,29-1,4.13-23.38.27-50,0-42.15-.43-74.14,8.35-102,16-66.61,18.29-78.63,38.65-99,29-13.3-6.3-16.28-18.83-33-80-28.33-103.65-32-112.37-25-129C2392.49,1988.45,2442.15,1961.62,2475.5,1972.5Z" transform="translate(-58.5 -390.96)"/><path class="cls-25" d="M2362.5,1876.5c6.82-6.59,23.29,7.94,101,44,52.37,24.3,78.56,36.45,112,46,56.46,16.13,104.3,18,104,24-.18,3.6-17.2,2.39-42,14-7.34,3.44-22,10.29-33,22-24.47,26-11.32,54.66-26,65-21.63,15.24-79.38-26.5-118-63C2399,1970.37,2348.45,1890.07,2362.5,1876.5Z" transform="translate(-58.5 -390.96)"/><path class="cls-26" d="M2377.5,1858.5c15.24,12.89,9.82,17.22,36,59,16.52,26.37,41.68,66.53,83,102,28.81,24.73,51.68,35.34,49,42-2.49,6.19-23-1.06-63,0-28.61.76-50.62,5.34-73,10-55,11.46-52.53,19.85-69,18-68.14-7.67-98-149.94-101-165-10.21-51-.77-65.23,2-69C2265.61,1822.63,2338.35,1825.37,2377.5,1858.5Z" transform="translate(-58.5 -390.96)"/><path class="cls-24" d="M2313.5,1582.5c11.23,2.56,19.64,16.4,36,44,23.49,39.62,22.92,51.6,40,82,27.21,48.45,58.46,71.08,53,78-3.48,4.41-16.48-4.41-41-9-25.4-4.76-45.27-1.63-67,2-78,13-100.15,45.7-120,34-26.9-15.85-14.34-92.41,10-144C2242.81,1630.69,2282.23,1575.38,2313.5,1582.5Z" transform="translate(-58.5 -390.96)"/><path class="cls-25" d="M2320.5,1393.5c1.68-2.23,5.49-3.06,95,27,54.77,18.4,64,22.28,84,24,43.61,3.74,74.32-8.33,76-3,1.62,5.14-26.19,18.72-46,27-43.24,18.08-71.23,29.78-102,26C2359.7,1486.16,2310.63,1406.57,2320.5,1393.5Z" transform="translate(-58.5 -390.96)"/><path class="cls-26" d="M2280.5,1323.5c13.17-2.44,24.23,15.52,55,49,.23.25,21.82,21.17,65,63,69.67,67.5,110.06,95.76,105,104-3.19,5.19-19.48-5.59-51-6-5.86-.08-43.37-.17-75,19-46.55,28.21-43.22,75.64-68,78-29.32,2.8-56.83-61.42-60-69-23.77-56.77-13.29-107.58,0-172C2264,1329,2275.86,1324.36,2280.5,1323.5Z" transform="translate(-58.5 -390.96)"/><path class="cls-25" d="M2295.5,1102.5c9.72-.61,11.68,19.87,49,71,17.7,24.26,26.55,36.39,39,46,44.13,34.09,101.17,26.95,101,32-.11,3.36-25.11.12-56,10-41.81,13.38-47.64,35.83-75,38-37.6,3-67.87-36.17-70-39C2239.05,1201.43,2274.59,1103.82,2295.5,1102.5Z" transform="translate(-58.5 -390.96)"/><path class="cls-24" d="M2195.5,416.5c160.31,31.24,289.17,41.23,294,51s-12.29,27.07-15,30c-109.21,117.91-186,939-186,939-18.28,195.44-20.51,254.9-21,309-1.85,203.94-2.77,305.92,18,363,9.51,26.13,25.93,64.38,9,84-26.15,30.32-116.34-1.93-156-24-99.36-55.29-126.43-182.95-162-546-64.57-659-54.27-936.42,3-1185C1980.85,431.62,2073.72,392.77,2195.5,416.5Z" transform="translate(-58.5 -390.96)"/><path class="cls-25" d="M1604.5,1121.5c22.09-24,460.66-73.29,483-90,12-9,2.79,273,12,426,11.47,190.53,37.28,329,45,369,24.67,127.68,37,191.52,72,261,59,117.16,120.25,150,108,192-24.4,83.74-232.49,147.16-366,69-50.93-29.82-72.33-77.12-120-159C1551.5,1696.5,1582.85,1145,1604.5,1121.5Z" transform="translate(-58.5 -390.96)"/><path class="cls-26" d="M1997.5,962.5c1,11-7.34,17.77-33,42-74.63,70.48-80.07,84.79-111,93-8.92,2.37-32.75,8.37-60,0-37.32-11.47-67.13-45.64-61-58,5.42-10.92,33.61,5.85,81-3,4.19-.78,81.36-16.13,97-65,7.26-22.68-4-36.24,6-45C1934.57,910.6,1994.9,934.7,1997.5,962.5Z" transform="translate(-58.5 -390.96)"/><path class="cls-24" d="M1843.5,1057.5c0,1.32-22.52-1.82-52,11-28.28,12.3-45.47,31.71-57,45-11.68,13.46-33.45,38.56-42,76-9.55,41.8,5.43,63.76-9,75-13.55,10.55-38.18.1-62-10-27.37-11.61-53.58-22.73-63-45-15.24-36,19.16-87.73,53-116C1699.26,1020.19,1843.42,1054.17,1843.5,1057.5Z" transform="translate(-58.5 -390.96)"/><path class="cls-25" d="M1791.5,1017.5c1.68,5.17-44.24,12.08-81,55-17.89,20.89-26.59,46.92-44,99-18.86,56.43-28.29,84.65-27,122,1,29.1,7.4,48.39,0,52-9.86,4.81-26-27.13-72-57-32.34-21-40.82-15.89-49-28-25.8-38.21,26.71-136.28,102-191C1698,1013.19,1789.17,1010.35,1791.5,1017.5Z" transform="translate(-58.5 -390.96)"/><path class="cls-26" d="M1736.5,998.5c.21-8.63-25.82-17.83-47-20-50.15-5.14-90.6,27.36-95,31-38.22,31.61-24.19,53.9-74,126-22,31.83-40.3,50-34,60,7.92,12.51,41.64-8.57,78,9,25.2,12.18,29.16,32,41,30,14.59-2.52,15.47-33.91,30-88,17.1-63.68,30.92-112.62,69-132C1720.05,1006.58,1736.33,1005.29,1736.5,998.5Z" transform="translate(-58.5 -390.96)"/><path class="cls-25" d="M2236.5,2076.5c7.92-21.28,47.67-28.75,65-32,10.93-2.05,28.49-5.35,49,0,22.57,5.89,36.55,19.07,59,42,32.5,33.19,48.75,49.78,69,74,51.05,61.05,49.37,68.43,76,90,31.85,25.8,59.42,35.63,57,43-1.9,5.79-19.61,1.79-60,3-32.44,1-56.61,4.62-79,8-34.26,5.17-51.38,7.76-69,15-31.28,12.86-36.75,25.26-47,22-21.44-6.82-2.89-62.81-24-124C2303.6,2133.74,2224.25,2109.4,2236.5,2076.5Z" transform="translate(-58.5 -390.96)"/><path class="cls-25" d="M2349.5,2170.5c-4.78,13.13,10,22.27,19,60,4.35,18.3,4.62,31.9,5,51,1.23,62.09-14.15,86.42-2,96,7.09,5.59,14.63-.88,62-16,45.49-14.52,68.74-21.76,93-21,22.54.71,29.48,5.93,37,0,17.92-14.13,3.18-63.19-9-90-7.45-16.4-36.34-80-103-98C2410.05,2141.32,2357.43,2148.7,2349.5,2170.5Z" transform="translate(-58.5 -390.96)"/><path class="cls-26" d="M2748.5,2295.5c-1.49,1.42-3.27,5.17,6,27,11.38,26.78,21.15,49.8,45,72,18.08,16.84,15.35,6.29,64,39,20.11,13.52,28.6,20.71,41,19,16.5-2.28,17.55-17.22,37-21,20.63-4,39.13,9,42,11,11.86,8.33,16.6,18.29,17,18,.7-.5-11.62-33.29-41-50-20.56-11.7-27.54-3-64-13-21.07-5.76-48.64-13.29-69-36-14.13-15.76-9.78-22.09-26-39C2781.94,2303.15,2755,2289.31,2748.5,2295.5Z" transform="translate(-58.5 -390.96)"/><path class="cls-26" d="M2407.5,2296.5c-3.23,7.32,3.8,21.65,18,50,13.42,26.81,16.81,29.57,32,58,19.72,36.92,19,41.67,27,45,15.8,6.6,24.72-9.45,76-22,24.16-5.91,36-5.74,44-5,18.52,1.72,28.28,7.69,30,5,3.23-5-30.69-26.53-66-63-44.24-45.69-42.08-64.68-72-78C2461.7,2271,2415.84,2277.59,2407.5,2296.5Z" transform="translate(-58.5 -390.96)"/><path class="cls-26" d="M2389.5,2433.5c-6.4,24.53,12.88,32.11,17,72,5.56,53.89-25.16,83.55-12,96,12.76,12.08,40.52-16.91,103-23,43.09-4.2,55.56,7.09,66-4,14.83-15.76-8.44-63.18-55-158-7.41-15.1-13.62-27.2-27-33C2450.56,2370.09,2398.76,2398,2389.5,2433.5Z" transform="translate(-58.5 -390.96)"/><path class="cls-26" d="M2656.5,2641.5c-.42,2.17,1.07,4.43,23,20,29.78,21.15,44.68,31.73,57,37,9.71,4.15,31.66,13.3,61,14,12.55.3,18.35-1.14,47-6,61.45-10.42,81.06-11.65,81-15-.07-4.28-32-1.05-75-14-44.12-13.29-45.34-27.21-84-39C2714.7,2622.71,2658.73,2630,2656.5,2641.5Z" transform="translate(-58.5 -390.96)"/><path class="cls-26" d="M2284.5,2625.5c-12.31,11.19-4,24.12-18,57-4,9.45-12.8,29.48-31,46-25.59,23.23-50,21.57-50,29,0,13.52,81,21.67,134,27,77.08,7.76,94.49,4.57,106-8,20-21.82,10.49-59.2,8-69-13.76-54.18-66.59-75.59-75-79C2348.52,2624.45,2305,2606.84,2284.5,2625.5Z" transform="translate(-58.5 -390.96)"/><path class="cls-26" d="M2038.5,1924.5c9.08-6.69,18.18,3.86,53,5,43.58,1.43,52.46-14.33,84-15,64.35-1.37,115.48,62.38,124,73,19.3,24.06,12.36,27.24,44,72,26.3,37.2,44.18,53.51,39,62-4.48,7.34-21.56,1.17-62-5-23.78-3.63-68.06-10.37-111-7-52.07,4.09-54,19.28-78,15C2055.44,2111,2007.65,1947.21,2038.5,1924.5Z" transform="translate(-58.5 -390.96)"/><path class="cls-25" d="M2010.5,2197.5c2.33-6.82,8.73-13.46,61-27,64.18-16.63,91.39-16.16,107-15,17.79,1.32,26.89,2.1,37,8,17.89,10.44,24,27.47,39,64,0,0,10.5,25.53,29,68,28.81,66.12,44.72,82.8,37,93-8.58,11.34-31.87-4.48-82-8-16.92-1.19-77.39-5.44-134,24-40.76,21.2-55,47.1-66,41-12.76-7.08,5.86-42.21,3-116-1.52-39.37-2.29-59.06-13-84C2017.87,2220.76,2006,2210.65,2010.5,2197.5Z" transform="translate(-58.5 -390.96)"/><path class="cls-26" d="M1720.5,2089.5c7.84-10.85,24.23-2.07,83-1,46.68.85,57.35-4.3,75,6,15.95,9.31,23.41,23,36,46a219.8,219.8,0,0,1,24,72,232.42,232.42,0,0,1,0,68c-2.87,19.8-13.23,91.35-48,100-12.72,3.17-20.55-4.12-39-12-55.56-23.72-111.76-11.93-140-6-69,14.49-107,56.23-112,50-3.41-4.25,14.83-23,67-84,45.17-52.78,54.63-65.73,62-87,3.59-10.36,13.46-39.89,9-77C1732.17,2120.18,1710.93,2102.74,1720.5,2089.5Z" transform="translate(-58.5 -390.96)"/><path class="cls-26" d="M1905.5,2242.5c-12,11.44,1,28.49,0,80-.51,26.84-1.13,59.5-18,91-19.05,35.58-46.32,46.33-42,56,4.4,9.84,32.09-2.49,81,0,31.5,1.6,37.75,7.61,117,21,41.64,7,46.63,6.51,52,3,33.06-21.6,9.1-109.82-1-147-9.52-35.05-18.2-47.91-27-57-6.62-6.85-17.9-16.29-68-32C1944.47,2240.25,1917,2231.62,1905.5,2242.5Z" transform="translate(-58.5 -390.96)"/><path class="cls-24" d="M810.5,2143.5c7.16-9.2,20.08-3.26,72,0,40.34,2.53,80.58,8.44,121,8,5.84-.06,17.83-.31,29,7,14.87,9.72,56,26,94,282,11,74.11,14,151.13,41,221,7.61,19.66,24.57,59.9,9,75-9.86,9.57-27.66,4.08-47,0-102.15-21.56-155,15.5-181-17-12.06-15-9.35-33.74-8-54,2.94-44.24-10-101.83-36-217-26.8-118.92-40.21-178.38-70-231C820.76,2193.22,798.55,2158.86,810.5,2143.5Z" transform="translate(-58.5 -390.96)"/><path class="cls-25" d="M985.5,2169.5c.08-7.4,30.73-10.94,74-21,0,0,60.38-14,117-36,80-31,114.24-64.11,132-50,10,7.91,8,25.31,7,36-5.56,58.77,8.74,118,6,177-1,22.08-4.59,124,27,227,33.76,110,88.25,157.84,66,187-9.25,12.12-17.94,2.89-118,17-69.5,9.8-104.25,14.7-105,15-9,3.65-22,9.72-32,4-15.82-9.09-12.74-41.55-12-51,7-88.92-25.59-176.54-37-265-21.31-165.18-38.88-204.39-72-221C1015.3,2176.86,985.42,2176.81,985.5,2169.5Z" transform="translate(-58.5 -390.96)"/><path class="cls-25" d="M798.5,2122.5c17.52-18.23,44.87-16.4,70-16,71.66,1.13,107.56,1.7,141-15,35.12-17.53,37.65-39.19,71-44,19.44-2.81,23.22,3.88,61,11,20.32,3.83,64.89,11.88,114,4,42.23-6.78,69.74-22.43,72-18,2.54,5-31.08,26.82-36,30-87.23,56.33-171.59,76.85-185,80-59.72,14-103.55,14.86-162,16-54.39,1.06-150.28,2.92-157-24C785,2136.54,795.49,2125.64,798.5,2122.5Z" transform="translate(-58.5 -390.96)"/><path class="cls-26" d="M1213.5,2539.5c8.21-9.72,18-1.86,59-9,22.09-3.85,58.65-10.21,91-34,27-19.82,36.82-41.32,44-38,7,3.25-2.39,23.79,0,53,3.44,41.94,28.82,72.39,51,99,18.93,22.72,33.25,39.89,58,52,50.8,24.85,103.58,7.79,104,11,.38,2.91-43.37,14.62-111,24-74.6,10.35-101.5,7.21-132,31-18,14-21.16,24.87-35,26-12.06,1-30.36-5.56-75-78C1227.74,2612,1195.91,2560.33,1213.5,2539.5Z" transform="translate(-58.5 -390.96)"/><path class="cls-26" d="M1098.5,2700.5c5.58-3.11,10.73,2.36,24,7,28.33,9.9,69.29,7.45,91-13,8.84-8.32,13.2-18.42,18-17,4.64,1.37,4.15,11.88,6,21,4.68,23.12,24.35,37.07,44,51,39.4,27.94,73.83,31.33,73,36-.89,5-39.75-4.55-93,0-62.06,5.3-77,24.08-112,12-3.75-1.29-37-13.31-51-45C1090,2733.34,1088.24,2706.21,1098.5,2700.5Z" transform="translate(-58.5 -390.96)"/><path class="cls-25" d="M967.5,2623.5c-5.15,5.67,13.23,20.46,12,47-.87,18.79-11.06,32.4-16,39-26.23,35-71.69,40.61-83,42-44.16,5.41-75.2-10.53-79-2-2.79,6.25,11.93,19.14,22,26,10.49,7.14,26.88,15.18,83,18,37.31,1.87,56,2.81,75-3a143.42,143.42,0,0,0,55-32c12.07-11.25,43.16-40.2,36-67-1.18-4.4-4-11-30-30C1036.75,2657.3,976.63,2613.45,967.5,2623.5Z" transform="translate(-58.5 -390.96)"/><path class="cls-26" d="M988.5,2764.5c-31.54,8.73-53.08,38.28-66,56-10.48,14.38-8.32,15.55-16,24-30.63,33.69-78.35,29.68-78,34,.31,3.75,36.73,11,76-1,22.4-6.87,26.32-14.08,44-14,24.05.1,39.94,13.54,48,6,3.86-3.61,1.51-7.92,3-18,4.1-27.79,29.36-45.46,33-48,20.19-14.12,36.35-10.28,37-16C1070.58,2778,1027.58,2753.69,988.5,2764.5Z" transform="translate(-58.5 -390.96)"/><path class="cls-26" d="M319.5,2593.5c.65,7,17.31,5.38,51,20,25.52,11.08,50.47,21.9,65,46,9.21,15.27,6.64,23.3,16,29,13.14,8,31.85.51,57-12,37.86-18.83,57.76-32.83,86-50,36.92-22.44,60.26-36.63,94-49,37.94-13.91,63.42-16.14,63-20-.51-4.6-36.58,0-103-4-55.52-3.35-63.69-8.59-86-1-21.23,7.22-31.09,17.84-57,20-12.06,1-15.81-.8-42-4-33.77-4.12-51.62-6.3-70-5C356.49,2566.13,318.5,2582.79,319.5,2593.5Z" transform="translate(-58.5 -390.96)"/><path class="cls-26" d="M414,2739c-20.36,13.92-3.61,44.39-30,71-13.19,13.3-29.72,18.14-60,27-32.4,9.48-54.14,10.13-54,12,.18,2.33,33.74.21,96,1,33.18.42,33.3,1.15,42,0,47.23-6.22,76.67-31.92,89-43,11.85-10.64,17.78-16.1,18-23C515.9,2756,443.28,2719,414,2739Z" transform="translate(-58.5 -390.96)"/><path class="cls-26" d="M518,2844c14.51-14.76,17.9-39.82,19-48,2.07-15.34-.73-18.18,3-22,9.74-10,32.51,5.69,74,7,17.36.55,22.21-4.49,25-1,10.12,12.65-35.35,84.36-82,85-10.7.15-16.82-3.51-42-4-21-.41-37.73,1.72-38,0C476.67,2858.92,501.74,2860.54,518,2844Z" transform="translate(-58.5 -390.96)"/><path class="cls-4" d="M1380.5,1028.5c10.27-12,20.44-16.36,37-25,35.81-18.68,20.15-14.85,83-51,10.78-6.2,35.18-18.47,84-43a139.27,139.27,0,0,1,42-13c14.58-2.09,29.37-4.22,38,4,9.28,8.84,6.63,25.09,4,40-6.16,34.87-22.62,61-35,78-9.14,12.58-16.86,21.34-49,54-65.22,66.27-84.95,82.54-108,97a312.36,312.36,0,0,1-43,22c-27.67,11.65-41.51,17.48-51,14-35.65-13.08-23.83-113.41-23-120C1363.58,1053,1372.31,1038.05,1380.5,1028.5Z" transform="translate(-58.5 -390.96)"/><path class="cls-4" d="M1588.5,914.5c1.21-11.17,16.61-18,30-24,30.57-13.62,59.85-4.44,74,0,21.59,6.77,35.38,17.08,50,28,30.23,22.59,46.68,46.26,54,58,10.25,16.42,18.5,30,18,49-.17,6.34-.57,21.6-12,34-10.73,11.64-28.21,17.56-42,14-22.12-5.7-23.9-33-41-61C1677.15,943.12,1585.48,942.45,1588.5,914.5Z" transform="translate(-58.5 -390.96)"/><path class="cls-4" d="M1675.5,894.5c2.86-5.68,17.18.83,60,1,12.6.05,18.81-.48,29,2,8.07,2,21.51,5.24,33,17,3.76,3.84,16.38,17.89,16,38-.08,4.17-.36,13.06-6,22s-16,16.62-26,18c-17.2,2.37-26.57-14.39-71-58C1684.64,909.11,1672.73,900,1675.5,894.5Z" transform="translate(-58.5 -390.96)"/><path class="cls-4" d="M1603.5,988.5c.42,6.88,6.94,13.92,20,28s21.52,23.2,36,31c12.21,6.58,24.59,13.24,40,11,17.86-2.6,35.91-16.6,40-33,8.59-34.41-42.55-86-87-80C1628,948.82,1602.38,970,1603.5,988.5Z" transform="translate(-58.5 -390.96)"/><path class="cls-4" d="M1700.5,1032.5c-3.84,4.75-12.59,15.88-13,32-.11,4.45-.43,16.82,8,27,11.46,13.84,30.48,13.24,38,13,6.38-.2,21.45-.68,34-12,17.22-15.54,15.55-38.78,15-44-.47-4.48-3.85-31.35-24-40C1735.94,998.82,1710.75,1019.84,1700.5,1032.5Z" transform="translate(-58.5 -390.96)"/><path class="cls-4" d="M875.5,1683.5c-4.35,13.71-8.64,38.87-9,41a428.84,428.84,0,0,0,0,143c3.69,22,6.31,37.6,13,55,9.82,25.55,39.73,84.41,73,82,28.15-2,48.57-47.23,67-88,5.07-11.21,2.69-7.7,14-35,11.41-27.54,17.06-38.93,35-81,3.37-7.9,8.81-20.74,15-38,4.32-12.05,6.81-19.05,9-28,0,0,5.66-23.08,5-44-1-31.41-27.73-88.19-78-102C954,1570.5,890.28,1637,875.5,1683.5Z" transform="translate(-58.5 -390.96)"/><path class="cls-8" d="M877.5,1622.5a304.34,304.34,0,0,0-10,38c-2.6,13.33-6.66,34.18-5,42,12-1,156-33,245,25,2-39,66.76-170.87,2-220" transform="translate(-58.5 -390.96)"/><path class="cls-14" d="M841.5,1861.5a336.38,336.38,0,0,1-100,47" transform="translate(-58.5 -390.96)"/><path class="cls-5" d="M868.27,1895.79c53.31-3.43,118.45-5.9,167.39,6.6a10.82,10.82,0,0,1,7.62,13.71c-10.69,34.2-27.78,81.4-27.78,81.4l-144-2s-13.77-51.82-14.34-87.7A11.85,11.85,0,0,1,868.27,1895.79Z" transform="translate(-58.5 -390.96)"/><polygon class="cls-2" points="852 1772.54 859 1798.54 876 1767.54 852 1772.54"/><polygon class="cls-2" points="994 1781.54 1007 1810.54 1021 1777.54 994 1781.54"/><path class="cls-2" d="M980.5,2163.5l20,40,15-40Z" transform="translate(-58.5 -390.96)"/><polygon class="cls-2" points="913 1781.54 927 1816.54 942 1781.54 913 1781.54"/><polygon class="cls-2" points="879 1781.54 888 1810.54 907 1781.54 882 1775.54 879 1781.54"/><polygon class="cls-2" points="819 1761.54 832 1801.54 850 1772.54 819 1761.54"/><polygon class="cls-2" points="781 1734.54 789 1801.54 816 1761.54 781 1734.54"/><polygon class="cls-2" points="802 1763.54 802.34 1764.91 812 1804.54 832 1769.54 802 1763.54"/><polygon class="cls-2" points="863 1767.54 873 1810.54 896 1777.54 863 1767.54"/><polygon class="cls-2" points="837 1767.54 845 1804.54 867 1772.54 837 1767.54"/><polygon class="cls-2" points="925 1779.54 904 1816.54 892 1772.54 925 1779.54"/><polygon class="cls-2" points="977 1777.54 960 1818.54 946 1777.54 977 1777.54"/><polygon class="cls-2" points="1005 1775.54 987 1818.54 973 1775.54 1005 1775.54"/><polygon class="cls-2" points="1013 1773.54 1022 1816.54 1048 1763.54 1013 1773.54"/><path class="cls-3" d="M864.5,2012.5c-8.3,10.59-12.52,26.45-18,47-2.56,9.62-4,20.74-7,43-2,14.73-2.86,24.89,2,36a50.54,50.54,0,0,0,6,10c17.94,22.19,23,8,124,26,7.67,1.37,12.18-8.89,18-11,24.36-8.85,28-55.82,30-81,2.35-30.06,3.53-45.08-3-57C991.81,1980.41,893.8,1975.09,864.5,2012.5Z" transform="translate(-58.5 -390.96)"/><rect class="cls-6" x="854.5" y="1969.5" width="176" height="64" rx="12" ry="12" transform="translate(34.52 -432.18) rotate(2.64)"/><path class="cls-3" d="M930.5,2076.5" transform="translate(-58.5 -390.96)"/><rect class="cls-7" x="873.82" y="1975.94" width="151.02" height="39.37" rx="12" ry="12" transform="translate(34.26 -432.5) rotate(2.64)"/><path class="cls-3" d="M930.5,2076.5c6.12-12.89,10.66-20.8,18-29a98.84,98.84,0,0,1,40-27c28.09-9.83,52.3-3.22,60-1,8.64,2.49,34.5,10.36,53,36,23.31,32.31,16.74,67.64,15,77s-4.31,22.16-15,31c-2.79,2.31-7.73,5.65-22,9-14.59,3.42-25.57,3.71-44,4-29.85.46-44.92.68-52,0-17.08-1.65-16.8-3.4-39-6" transform="translate(-58.5 -390.96)"/><path class="cls-27" d="M1224,1030c2.48,6-8.48,11.7-24,31-34.37,42.73-42,90.83-43,104-.12,1.66-1,14.66-2,29-.68,10,.35,12-1,15-5.37,11.89-28,12.67-42,13-59.21,1.4-88.83,2.1-90,2-58.75-5.1-86.69-24.69-93-15-4.73,7.26,6.27,24.39,17,34,17.43,15.61,38.32,15.1,38,19-.3,3.59-18.25,7.55-38,5-29.4-3.79-45.55-19.79-50-15-3.45,3.72,3.52,16.35,10,24,12,14.14,28.06,18.14,36,20,33.41,7.83,61.64-11.12,63-8,1,2.29-14.29,11.5-27,18a279.68,279.68,0,0,1-48,19c-23.11,6.72-37.07,7.85-37,11,.08,3.56,18,5.75,20,6,22.11,2.71,41.41-1.15,58-6,31.2-9.13,46.83-20,49-17,2.29,3.22-10.51,17.62-24,28-32.38,24.9-67.84,25.94-76,26-11,.08-24.92,0-41-7-20.92-9.14-32.66-24.5-39-33-5.24-7-13.12-17.59-17-33-6.06-24.09,1.49-44.77,5-54,19.31-50.78,70-77.25,68-80-1.59-2.2-30.55,19.44-36,14-3.62-3.62,5.67-16.64,20-46,14-28.64,10.93-28.14,17-38,20.42-33.19,58.83-45.35,83-53,22.53-7.13,39.37-8.56,68-11,41.89-3.56,45.39,1.08,92-1C1193.52,1028.62,1220.29,1021.1,1224,1030Z" transform="translate(-58.5 -390.96)"/><path class="cls-27" d="M1155,1332c2.06-.52,3.64,3.67,21,33,8.68,14.66,14.11,31.8,26,44,1.92,2,7.59,7.49,9,16a25.86,25.86,0,0,1,0,8c-1.65,10.66-9.66,18-13,21-21.29,19-58.16,52-64,46-2-2.06,1.14-7.21,5-16,8.09-18.44,10.39-34,15-65C1161.52,1368.28,1149.08,1333.51,1155,1332Z" transform="translate(-58.5 -390.96)"/><path class="cls-27" d="M553,1636c-.16,2.34,12.14,5.39,23,7a146.69,146.69,0,0,0,36,1c4.22-.45,15.15-3.3,37-9,6.59-1.72,11.58-3.08,17-7,2.51-1.81,5.71-5.23,12-12,8-8.62,8.29-9.54,8-10-1.06-1.72-9.52,3.08-24,7-9.59,2.6-16.28,4.4-25,4-5.83-.27-20.69-1-29-11-5.6-6.77-5-13.84-8-14-3.2-.17-4.46,7.68-12,20-4.61,7.53-7.91,12.93-14,17C563.72,1635.86,553.15,1633.84,553,1636Z" transform="translate(-58.5 -390.96)"/><path class="cls-27" d="M623,1578c0,2.45,14.46,4.6,25,5,12.36.47,21.57-1.4,34-4,12-2.5,22.28-4.66,35-10,16.73-7,31.88-17.13,31-19-.78-1.67-13.72,4.45-40,11-10.87,2.71-18.62,4.15-34,7C638.06,1574.67,623,1575.49,623,1578Z" transform="translate(-58.5 -390.96)"/><path class="cls-27" d="M736,1528c18.67-2.26,32.32-7.78,45-13,25.58-10.54,38.36-15.81,41-17,28.71-12.95,29-14.91,46-22,33-13.81,56.29-16.6,56-18s-27.87.81-59,10c-13.75,4.06-24.17,8.38-45,17-26.61,11-26.73,12.44-52,23-29.1,12.16-46.62,17.67-46,20C722.43,1529.64,731.55,1528.54,736,1528Z" transform="translate(-58.5 -390.96)"/><path class="cls-27" d="M1002,1436c10.33-3.16,14,3.1,24,0,8.37-2.59,8.57-7.79,18-10,5.21-1.22,7.55-.19,14,0a69.21,69.21,0,0,0,28-5c17.31-7.57,21.34-24.55,26-23,3.61,1.2,2.71,11.91,2,26-2.31,46.13.74,64.07-6,66-2.76.79-4.41-1.9-14-9a211.21,211.21,0,0,0-30-18c-15.81-7.62-30-9.74-39-11-22.67-3.2-35.78.2-37-4C987,1444.62,994.36,1438.34,1002,1436Z" transform="translate(-58.5 -390.96)"/><path class="cls-28" d="M473,1195c-.62.87-6.16-1.55-11-5-4.4-3.13-12.17-8.66-15-19-3.3-12,2.41-22.18,4-25,4.79-8.51,11.62-12.59,19-17,10.34-6.18,12.86-4.61,32-13,10.29-4.51,16.39-8,17-7s-3.8,4-13,13c-6.58,6.41-9.93,9.7-13,14a71.24,71.24,0,0,0-8,15c-1.91,4.86-5,12.8-5,23,0,11.05,3.73,18.19,2,19s-5.73-4.89-8-8c-4.78-6.53-8.09-11.06-9-17-1.74-11.37,6.51-20,5-21-1.19-.78-7,4.14-10,11a27.39,27.39,0,0,0-1,18C462.6,1188,473.91,1193.74,473,1195Z" transform="translate(-58.5 -390.96)"/><path class="cls-28" d="M432,1245c-12.11,9.62-19.75,20.09-26,30a239.68,239.68,0,0,0-24,50s-11.89,35.25-12,72c0,1,.66,8.64,2,24,.33,3.81.56,6.2,2,9,3.27,6.37,9.74,9,15,11,7.88,3,18,6.95,26,2,5.91-3.65,7.77-10.33,9-15,3.47-13.16-.65-22.47-3-35-2.2-11.72-1.47-21.48,0-41,1.78-23.73,7.15-41.38,12-57,11.86-38.21,24.86-57.39,20-61C449.3,1231.26,438.46,1239.87,432,1245Z" transform="translate(-58.5 -390.96)"/><path class="cls-28" d="M478,1265c-12.34,8-16.56,24-25,56-3.63,13.76-5.08,28.51-8,58-1.55,15.63-2.29,28,2,43,1.76,6.15,3.25,11.33,7,17,14.94,22.58,46.67,23.88,51,24,24.82.66,42.48-11.93,51-18,17.86-12.73,26.68-27.75,36-44,7.56-13.19,9.66-20,27-69,13.74-38.83,20.6-58.24,23-64,15.16-36.44,26.18-52.57,22-56-4.41-3.62-18.33,12.95-50,30-15.61,8.4-36,19.38-62,23C511.24,1270.68,497.09,1252.68,478,1265Z" transform="translate(-58.5 -390.96)"/><path class="cls-17" d="M458.5,1226.5a22,22,0,0,0,0,12,23.42,23.42,0,0,0,19,16c10.22,1.42,17.6-4.82,19-6,1-.84,12.48-10.88,9-25a24.05,24.05,0,0,0-20-18C471.56,1203.81,461.15,1216.51,458.5,1226.5Z" transform="translate(-58.5 -390.96)"/><path class="cls-19" d="M415.5,1316.5c2.09,1.61,5.64-2.7,13-5,17.92-5.6,29,0,38,4,1-8-4-17.73,0-39,3.84-20.18,20.16-34.78,13-36C432.5,1232.5,412.2,1313.95,415.5,1316.5Z" transform="translate(-58.5 -390.96)"/><path class="cls-28" d="M423,1307c1.55,1.1,3.63-2.4,11-4,9.7-2.11,14.87,2,18-1,2.35-2.28.33-5.5,0-14-.09-2.28-.44-14.79,5-26,4.44-9.16,10.68-13.2,10-14-.89-1.05-12.13,5.19-22,15C427.4,1280.49,419.22,1304.31,423,1307Z" transform="translate(-58.5 -390.96)"/><path class="cls-29" d="M472,1217c-2,1.11-4.85,2.65-5,5-.2,3.22,4.74,6,8,7,5.77,1.81,14.44.77,16-4,1-3.17-1.37-7.07-4-9C481.38,1211.88,473.73,1216.06,472,1217Z" transform="translate(-58.5 -390.96)"/><path class="cls-30" d="M610,1803c2.54-1,7.53,20.94,27,41,27.43,28.26,65.55,34.21,77,36,35.72,5.58,61.84-2.86,63,2,.91,3.81-14.42,12.1-30,16-26.47,6.62-47.11-1.09-48,2-.78,2.69,13.83,12.43,33,16,41,7.64,73.67-18.42,77-13,2.34,3.8-10.74,21.53-31,29-26.5,9.78-50.32-3.52-56,6-3.31,5.56,2.19,14.46,5,19,17.81,28.8,54.76,32.8,54,36s-35.39,1.45-70-15c-15.76-7.49-24.55-14.74-30-20-8.86-8.53-13.87-16.55-21-29-17.14-29.9-25.71-44.86-34-66C614.94,1834.79,607,1804.17,610,1803Z" transform="translate(-58.5 -390.96)"/><path class="cls-30" d="M699,1993c2.08-1.25,5,3.84,15,10,14.1,8.66,28.39,10.88,42,13,14.69,2.29,26.94,2.32,27,4,.05,1.53-10.1.34-16,7-4.69,5.29-4.39,13-4,23,.59,15.18,4.42,20.48,1,24-4.82,5-17.46-.34-19-1-11.12-4.78-16.73-14.22-17-14s4.83,7.69,19,24c11.32,13,17.1,19.64,23,24,15.69,11.59,29.44,12.95,29,15-.5,2.34-18.86,2.92-37-4-22.69-8.65-36.83-25.89-36-27,.42-.55,4.84,2.65,17,8,7.49,3.3,11.26,4.92,12,4,1.68-2.08-10.67-12.44-23-30-6.65-9.46-10.41-16.91-15-26C707.55,2028.28,693.95,1996,699,1993Z" transform="translate(-58.5 -390.96)"/><path class="cls-30" d="M637,2191c-1.25-1.54,3.11-6.75,13-19,13.1-16.22,14-17.6,22-27,10.59-12.36,14.57-16.34,21-20,3.85-2.19,8.13-4.57,14-5,8.36-.62,12.52,3.25,22,7,18.14,7.18,31.87,4.47,32,7,.15,2.75-16.12,5.66-18,6-17.2,3.08-19.48-.19-30,2-14.56,3-34.69,14.4-38,30-1,4.55-.41,9.06-4,12s-7.46.92-16,2C643.69,2187.43,638.32,2192.62,637,2191Z" transform="translate(-58.5 -390.96)"/><path class="cls-9" d="M1071,717c-.44,0-.69.78-3,12-.93,4.5-1.38,6.82-1,10,.33,2.73.71,5.85,3,7a6,6,0,0,0,7-2c1.59-2.33,0-5-2-12C1072.08,722,1072.14,717,1071,717Z" transform="translate(-58.5 -390.96)"/><path class="cls-28" d="M501,1188c1.53-14.1,2.3-21.15,5-29a89.8,89.8,0,0,1,17-29c7.31-8.78,8.83-7.67,19-19a193.41,193.41,0,0,0,17-22c10.47-15.79,8.52-18.09,16-28a85.35,85.35,0,0,1,27-23c19.21-10.31,38.62-10.51,39-9s-16.06,2.48-29,16c-5.67,5.92-6.24,9.6-13,21a242.73,242.73,0,0,1-21,29c-21.58,25.65-43.54,33.92-42,37,1.37,2.75,19.7-2.13,36-11,4.74-2.58,15.27-8.74,33-26s16.12-19.75,33-37c11.82-12.08,23.94-24.29,43-35,7.7-4.33,17.24-9.6,31-13,17.77-4.39,31.78-3,50-1,7.75.85,35.89,3.92,36,9,.07,3.06-10.09,4.11-24,9-30.35,10.67-50.22,29.65-60,39-13.25,12.66-22.9,25.74-29,34-12.27,16.63-17.25,26.79-19,26-2.46-1.12,3.36-23.08,14-43a144.22,144.22,0,0,1,27-36c13.57-12.89,24.62-17.87,24-19-.89-1.6-24.13,6.73-47,23-11.6,8.25-21.78,17.61-32,27-12.13,11.15-15.81,15.64-26,23-2.53,1.83-6.19,4.36-25,15-17,9.59-23.61,13-38,21-20.68,11.52-31,17.28-34,20-19.82,18-25.1,42.06-28,41C500.41,1197.78,500.07,1196.59,501,1188Z" transform="translate(-58.5 -390.96)"/><path class="cls-28" d="M513,1209c-1.05-3.1,4-7.09,21-21,27.3-22.35,24-20,28-23,9.47-7,22.63-16.6,41-26,14.85-7.6,16.39-6.51,32-15,10.57-5.75,18.84-10.3,28-18,15.88-13.34,21.21-25,23-24,2.57,1.43-6.37,26.59-22,50a190,190,0,0,1-25,30,192.4,192.4,0,0,1-38,29c-29.79,17.2-54,20.24-62,21C533,1212.57,514.8,1214.3,513,1209Z" transform="translate(-58.5 -390.96)"/><path class="cls-31" d="M853,1063c3.33-5.14,24.78-12.08,37-17a146,146,0,0,1,23-7c1.69-.39,21.4-4.95,22-3,.4,1.31-8.46,3.57-20,11-10,6.41-16.49,13.18-25,22-3.24,3.36-3.91,4.24-15,17-22.4,25.77-23.86,27-28,33-10.29,14.9-13.82,25.48-15,25-1.81-.73,8-24.82,13-49,1.75-8.39,5.05-16.48,6-25C851.25,1067.74,851.42,1065.44,853,1063Z" transform="translate(-58.5 -390.96)"/><path class="cls-31" d="M384,1463c-1.24,1.5,8.31,11.69,17,20,9.28,8.87,16.84,16.1,29,24a166.47,166.47,0,0,0,32,16c8.53,3.19,18.52,6.13,19,5s-10.49-4.39-21-14c-12.74-11.65-18.11-26.62-20-33-4.65-15.67-2.85-28.59-6-29-1.83-.24-2.36,4.17-7,9-6.39,6.65-16.14,9.5-24,9C391.72,1469.29,385.05,1461.73,384,1463Z" transform="translate(-58.5 -390.96)"/><path class="cls-31" d="M451,1456c-2.08,1.27,7.27,25.12,25,47a141.31,141.31,0,0,0,33,30,138.46,138.46,0,0,0,29,14,158.11,158.11,0,0,0,42,9c14.7,1.11,33.51.46,34-3,.28-1.95-5.52-2.93-12-8-9.83-7.69-13.26-18.53-15-24-7.77-24.5,3.62-46.66,0-48-2.46-.91-6,10-17,19-11.25,9.19-23.77,11.06-30,12-27.32,4.1-49-9.21-55-13C461.34,1476,453,1454.8,451,1456Z" transform="translate(-58.5 -390.96)"/><path class="cls-31" d="M633,1364c-3.47.31-4.42,8.27-11,38-6.28,28.39-8.5,35.07-12,56s-3.55,27.7-3,34c.95,10.94,2.1,24.21,12,34,9.53,9.41,22,10.55,27,11,23.22,2.11,41.38-11.67,55-22,17.71-13.43,27.63-28,33-36,4.47-6.68,11.59-18.37,20-41,8.09-21.78,12.1-39.47,18-70,5.63-29.12,10.46-54.06,16-92,5.08-34.76,7.59-58.72,10-82,4-38.74,6.92-67.46,4-68-.68-.12-3.44.93-15,45-16.34,62.28-24.53,112.37-39,175-13.55,58.64-21,78-38,84-14.25,5-31.3-.7-42-8C640.09,1403,640.78,1363.31,633,1364Z" transform="translate(-58.5 -390.96)"/><path class="cls-21" d="M1246,1032c8-4.29,9.36-.39,47-2,5.61-.24,26.06-1.29,30.91-1.58s4.77-.33,9.09-.42c30.66-.61,40.34,1.58,58-4,5.76-1.82,10.17-3.88,19-8a305.12,305.12,0,0,0,42-24c30.78-20.44,46.16-30.66,53-35,32-20.32,27.14-14,76-43,16.45-9.76,25.56-15.54,41-20,11.93-3.45,25.24-7.29,42-5,18.38,2.52,24.39,10.15,47,11,2.85.11,7.57.07,17,0,23.45-.18,24.33-.9,30,0,13.63,2.17,23.21,8.67,28,12,6.28,4.37,15.06,10.62,20,22,2.42,5.58,5.35,15.67,2,18s-9.07-5.14-23-10c-9.32-3.26-22.34-5.39-24-2-1.5,3.07,7.58,8.07,21,23a142.7,142.7,0,0,1,22,33c4.87,10.18,6.06,16,5,22-.87,4.88-3.81,13.06-9,14-5.56,1-10-6.94-18-16-16.9-19.23-37.42-29.71-39-28-1.17,1.27,7.7,9.61,21,30,7.57,11.6,10.64,18,12,26,1.09,6.41,2.71,15.9-3,22s-15.59,5.85-22,4c-12.76-3.68-20.07-16.68-27-29-6.81-12.11-6.36-16.35-13-22-4.72-4-7.91-4.4-21-9-17.45-6.13-26.17-9.2-32-13-10.4-6.78-11.34-11.42-26-21-6.46-4.22-8.33-6.83-12-7-9.43-.44-16.82,11.39-22,19-10.9,16-26.18,28.64-38,44-34,44.14-78.48,69.46-97,80-10.77,6.13-25.68,14.52-47,22-25.74,9-38.18,8.8-83,15-74.79,10.34-94.28,18.48-107,5-7.45-7.89-8.44-18.8-10-36-.45-5-2-26.43,8-52C1230.82,1048.64,1235.07,1037.84,1246,1032Z" transform="translate(-58.5 -390.96)"/><path class="cls-21" d="M905,1726c3.12-3,7-4.69,33-6,27.11-1.37,40.67-2.06,58,0,2.68.32,17.12,3.55,46,10,18,4,22.89,5.22,26,10,4.62,7.1,1.2,15.9-8,40-7.26,19-14.94,37.9-22,57-11.45,31-12.87,41.87-24,47-3.43,1.58-10.34,1.41-24,1-31.86-1-31.9-4-48-3s-21.79,4.49-28,0c-6.7-4.85-7.51-14.29-8-21-3.35-46.33-3.19-68.21-4-86C900.62,1744.63,896.76,1733.94,905,1726Z" transform="translate(-58.5 -390.96)"/><path class="cls-21" d="M642,2225c1.77-1.18,5.67-.49,13,0a87.41,87.41,0,0,1,28,6c10.33,4.19,17.51,7.11,19,13,1.36,5.39-3,9.59-12,21-11.61,14.66-21.83,27.55-30,42-7.51,13.27-9.61,21.34-16,22-4.72.49-6.41-3.64-17-7-9.3-3-12.67-1.26-15-4C607.75,2313,633,2231,642,2225Z" transform="translate(-58.5 -390.96)"/><path class="cls-32" d="M867,2039" transform="translate(-58.5 -390.96)"/><path class="cls-32" d="M940,2072c.27-7.44,5.84-12.63,14-20,5.88-5.31,16.89-15.05,35-21,24.48-8,45.32-3.7,53-2,8.08,1.79,23.83,5.47,39,18,6.71,5.55,16.11,13.31,20,27,1.46,5.15,5,17.66-1,27-7.07,11-24.38,11.31-59,12-12.93.26-24.49.43-40-2-15.15-2.38-28.5-4.62-42-14C952.15,2092.24,939.59,2083.51,940,2072Z" transform="translate(-58.5 -390.96)"/><path class="cls-32" d="M472,2483c-.63,8.4,2.49,14.88,4,18,1.6,3.32,9.86,19.24,25,21,9.78,1.14,17.3-4.23,24-9,20-14.28,24.25-36.46,25-41,1.38-8.28,2.76-16.6-2-25-5.22-9.21-15.51-14.43-25-15a30,30,0,0,0-15,3c-6,3.05-8.95,7.36-13,13C476.49,2473.75,472.65,2474.4,472,2483Z" transform="translate(-58.5 -390.96)"/><path class="cls-22" d="M860,2040c-.88-.06-1.74,4.33-4,15-6.94,32.81-8.27,36.16-9,47-.9,13.22.22,20.86,1,25,1.54,8.18,3.24,16.59,10,22,3.63,2.91,7.33,3.84,14,5,17.51,3,29.9,3.2,40,4,8.48.67,6,1.05,31,5,21,3.32,31.55,5,43,6,8.5.76,23.66.84,54,1a296.14,296.14,0,0,0,31-2c7.3-.81,14.32-1.84,22-6,8-4.34,10.88-8.9,12-11,2.59-4.87,3.6-11.19,2-12s-5.54,4.36-8,7c-9.78,10.48-25.69,11.6-43,12a668.81,668.81,0,0,1-69-2c-15.81-1.38-32.54-3.92-66-9-19.52-3-28.48-4.58-37-12-10-8.7-13.06-19.89-17-35C858.46,2067.25,862.18,2040.16,860,2040Z" transform="translate(-58.5 -390.96)"/><path class="cls-22" d="M890,2037c3.05-3.43,8.38-.31,25,1,16.28,1.28,26.44-.51,27,2,.34,1.52-3.29,2.6-8,7s-7.13,9.11-10,15c-8,16.36-6.17,24.1-10,25-6.75,1.59-16.93-21.35-19-26C890.35,2050.53,886.22,2041.24,890,2037Z" transform="translate(-58.5 -390.96)"/><path class="cls-9" d="M564,2363c-.12-1.05.18-1.45,3-7,4.47-8.8,3-6.44,7-14,4.65-8.81,5.79-10.42,8-12a18.88,18.88,0,0,1,7-3c2.43-.5,6.2-.77,18,4,5.95,2.4,4.38,2.22,20,10,5.91,2.94,7.64,3.72,9,6,2.39,4,1.15,8.57-1,16-2.57,8.88-7,14.92-16,27a6.89,6.89,0,0,1-4,3c-3.59.7-7-3-9-5-3.37-3.31-9.58-6.54-22-13C571.23,2368.36,564.54,2367.55,564,2363Z" transform="translate(-58.5 -390.96)"/><path class="cls-9" d="M901,1902c6.45-5.73,45.78-1,88,2,27.07,1.91,22.35,3.7,27,3,1.19-.18,4.23-.71,6,1,2.31,2.22,1,6.88,0,11-2,7.93-3.06,16.06-5,24,0,0-.45,1.83-5,21h0s-20.12-.13-39-1c-39.94-1.83-60.85-.57-67-3a17.83,17.83,0,0,1-6-4c-10.8-10.58-7.73-33.59-3-47C898.32,1905.24,899.35,1903.47,901,1902Z" transform="translate(-58.5 -390.96)"/><path class="cls-33" d="M1015.5,1907c-.44,8.35-1.25,15.39-2,20.77-1,6.9-2,12.19-3,17.16-1.44,7.25-2.85,13.38-4,18.06" transform="translate(-58.5 -390.96)"/><path class="cls-33" d="M1002,1906c-.44,8.35-1.25,15.39-2,20.77-1,6.9-2,12.19-3,17.16-1.44,7.25-2.85,13.38-4,18.06" transform="translate(-58.5 -390.96)"/><path class="cls-33" d="M987,1905c-.44,8.35-1.25,15.39-2,20.77-1,6.9-2,12.19-3,17.16-1.44,7.25-2.85,13.38-4,18.06" transform="translate(-58.5 -390.96)"/><path class="cls-33" d="M970.63,1903.81c0,8.36-.49,15.44-1,20.85-.63,6.94-1.42,12.27-2.16,17.29-1.08,7.31-2.2,13.51-3.11,18.24" transform="translate(-58.5 -390.96)"/><path class="cls-33" d="M956.63,1903.81c0,8.36-.49,15.44-1,20.85-.63,6.94-1.42,12.27-2.16,17.29-1.08,7.31-2.2,13.51-3.11,18.24" transform="translate(-58.5 -390.96)"/><path class="cls-33" d="M940.21,1903.69c.38,8.35.28,15.44.06,20.87-.28,7-.8,12.33-1.29,17.37-.71,7.35-1.52,13.6-2.2,18.37" transform="translate(-58.5 -390.96)"/><path class="cls-33" d="M926.21,1903.69c.38,8.35.28,15.44.06,20.87-.28,7-.8,12.33-1.29,17.37-.71,7.35-1.52,13.6-2.2,18.37" transform="translate(-58.5 -390.96)"/><path class="cls-33" d="M908.76,1903.65c1.1,8.28,1.61,15.36,1.87,20.79.32,7,.27,12.35.22,17.42-.07,7.39-.34,13.68-.6,18.49" transform="translate(-58.5 -390.96)"/><path class="cls-33" d="M896.76,1904.65c1.06,8.07,1.54,15,1.77,20.26.29,6.79.21,12,.14,17-.11,7.2-.4,13.34-.68,18" transform="translate(-58.5 -390.96)"/><path class="cls-33" d="M882.41,1905.61c1.52,7.71,2.4,14.33,2.92,19.41.68,6.52.9,11.6,1.11,16.37.31,7,.37,12.9.35,17.44" transform="translate(-58.5 -390.96)"/><path class="cls-33" d="M592,2327c-2.15,2.91-4.81,6.75-7.64,11.41a157.15,157.15,0,0,0-7.64,14.27c-1.7,3.55-3.7,8-5.73,13.32" transform="translate(-58.5 -390.96)"/><path class="cls-33" d="M602,2332c-2.15,2.91-4.81,6.75-7.64,11.41a157.15,157.15,0,0,0-7.64,14.27c-1.7,3.55-3.7,8-5.73,13.32" transform="translate(-58.5 -390.96)"/><path class="cls-33" d="M615,2335c-2.45,3.14-5.5,7.27-8.73,12.29a166.17,166.17,0,0,0-8.73,15.37c-1.94,3.82-4.23,8.64-6.55,14.34" transform="translate(-58.5 -390.96)"/><path class="cls-33" d="M627,2341c-2.56,3.29-5.73,7.62-9.09,12.88a174.36,174.36,0,0,0-9.09,16.1c-2,4-4.4,9.06-6.82,15" transform="translate(-58.5 -390.96)"/><path class="cls-33" d="M641.06,2349.64c-2.71,3.16-6.1,7.33-9.71,12.42a174.36,174.36,0,0,0-9.86,15.64c-2.21,3.9-4.84,8.83-7.54,14.67" transform="translate(-58.5 -390.96)"/><path class="cls-33" d="M653.06,2358.64c-2.71,3.16-6.1,7.33-9.71,12.42a174.36,174.36,0,0,0-9.86,15.64c-2.21,3.9-4.84,8.83-7.54,14.67" transform="translate(-58.5 -390.96)"/><path class="cls-33" d="M1029.42,1908.38c-1,8.3-2.3,15.27-3.42,20.59-1.44,6.82-2.85,12-4.17,16.91-1.93,7.13-3.77,13.16-5.23,17.75" transform="translate(-58.5 -390.96)"/><path class="cls-33" d="M869.41,1906.61c1.52,7.71,2.4,14.33,2.92,19.41.68,6.52.9,11.6,1.11,16.37.31,7,.37,12.9.35,17.44" transform="translate(-58.5 -390.96)"/><path class="cls-30" d="M849,1618c2-.75-4.24-12.85-2-30,2.28-17.45,12-29.23,16-34,8.71-10.32,22.46-20.78,26-18,2.69,2.11-2.45,10.33-9,30-8,24.12-11.54,45.53-10,46,.91.28,2.23-7.18,9-16,7-9.11,15.19-13.66,23-18,9-5,14.39-8,17-6,3.93,3-1.29,15.21-6,28-2.13,5.78-26.5,72.81-15,80,3,1.86,7.62-.75,10-2,33.65-17.66,109.83-23.36,152,4,11.34,7.35,20.25,17.12,30,14,4.77-1.52,9.06-5.91,16-24a233,233,0,0,0,13-49c4.51-31.43,6.77-47.14,5-59-5.06-33.92-26.67-56.76-33-63-48.19-47.49-124-32.37-146-28-41.33,8.23-66.21,26.84-76,35-21.58,18-28.33,33.84-30,38-2.11,5.26-9.35,24.08-4,46C838.61,1606.76,846.91,1618.76,849,1618Z" transform="translate(-58.5 -390.96)"/><path class="cls-30" d="M654,1666c-1.83-.89-11.12,11.3-17,26a99.51,99.51,0,0,0-6,48c3.94,33.07,23.14,54.54,30,62,26.26,28.56,60.16,37.51,61,36,.54-1-13.07-5.75-26-20-21.77-24-23.6-55.06-24-64-1.38-30.55,10-56.36,12-56,1,.18-.62,6.87,1,18,.29,2,4.53,29.63,16,32,5.87,1.21,10.93-4.74,20-14,2.77-2.83,30.82-31.34,55-49,20.09-14.67,29.49-16,32-27,1.79-7.84-2.13-10.91-4-30-1.36-13.83-.93-28.76,1-29,1.51-.19,2.63,8.78,7,20,8.72,22.4,24.25,38.1,26,37,1.56-1-9.5-14.36-16-39-2.17-8.21-7-27.35-4-51,2.73-21.31,9.75-29.74,6-33-7-6.06-37.09,17.94-56,33-22.49,17.92-43.2,34.63-65,63-7.5,9.76-19.21,25.17-30,48-9.83,20.8-20.22,43.47-17,71,1.45,12.38,5,20.63,4,21-1.81.64-16.92-22.39-18-50C640.84,1689.28,656.44,1667.19,654,1666Z" transform="translate(-58.5 -390.96)"/><path class="cls-14" d="M849,2216c11.12-.09,27,0,46,1,22.85,1.17,40.06,3.07,86,9,77.87,10.06,83.05,11.67,83,13-.07,1.9-10.84,3.16-63,6-82.25,4.48-114.79,4.56-115,8-.19,3,25,6.54,58,12,52.84,8.75,95.73,17.58,125,24" transform="translate(-58.5 -390.96)"/><path class="cls-14" d="M879,2298a410.74,410.74,0,0,1,50,1,402.3,402.3,0,0,1,111,25,388.79,388.79,0,0,1,40,18" transform="translate(-58.5 -390.96)"/><path class="cls-14" d="M921,2342a501.69,501.69,0,0,1,211,53" transform="translate(-58.5 -390.96)"/><path class="cls-14" d="M917,2395a480.61,480.61,0,0,1,140,14" transform="translate(-58.5 -390.96)"/><path class="cls-14" d="M956,2444c22.2,4.08,54.44,10.66,93,21,18.21,4.88,69,18.49,68,24-.81,4.47-34.71-1.95-82,2a371.65,371.65,0,0,0-81,16" transform="translate(-58.5 -390.96)"/><path class="cls-14" d="M946,2544a470.38,470.38,0,0,1,146,31" transform="translate(-58.5 -390.96)"/><path class="cls-14" d="M1088,2242a1071.13,1071.13,0,0,0,104-49c30.21-16.31,52.78-30.44,90-44a426.34,426.34,0,0,1,60-17" transform="translate(-58.5 -390.96)"/><path class="cls-14" d="M1143,2247q32.7-13.6,66-28,34.53-14.94,68-30" transform="translate(-58.5 -390.96)"/><path class="cls-14" d="M1145,2277a475.69,475.69,0,0,1,141-36" transform="translate(-58.5 -390.96)"/><path class="cls-14" d="M1143,2367a422.86,422.86,0,0,1,145-31" transform="translate(-58.5 -390.96)"/><path class="cls-14" d="M1186,2419a277.55,277.55,0,0,1,124-21" transform="translate(-58.5 -390.96)"/><path class="cls-14" d="M1725,1166c21.23-3.08,52-7.73,89-14,63.88-10.81,95.81-16.21,129-25,15-4,16-4.68,111-35,28-8.92,50.9-16.21,66-21" transform="translate(-58.5 -390.96)"/><path class="cls-14" d="M1710,1211c41.46-3,78.7-6.9,111-11,37.55-4.76,64.28-9.22,99-15,54-9,81.6-13.66,108-21a583.85,583.85,0,0,0,83-30" transform="translate(-58.5 -390.96)"/><path class="cls-14" d="M1642,1392c46.19-7.32,82.91-12.7,106-16,72.87-10.43,104.36-13.75,148-30a416,416,0,0,0,51-23" transform="translate(-58.5 -390.96)"/><path class="cls-14" d="M1589,1458c17.54.63,42.34,1.06,72,0,35.74-1.28,101.9-4,184-24a830.22,830.22,0,0,0,122-40" transform="translate(-58.5 -390.96)"/><path class="cls-14" d="M1694,1488c58.84-1.27,108.72-5.11,147-9,113.16-11.5,166-27.54,186-34,22.76-7.35,41.28-14.66,54-20" transform="translate(-58.5 -390.96)"/><path class="cls-14" d="M1838,1299a725,725,0,0,0,100-12c22.63-4.33,43.66-9.47,63-15" transform="translate(-58.5 -390.96)"/><path class="cls-14" d="M1686,1550c31.25-.84,64.32-2.72,99-6,46.26-4.37,89.37-10.67,129-18" transform="translate(-58.5 -390.96)"/><path class="cls-14" d="M1734,1593c35.56-3.77,73.34-9,113-16,42.85-7.61,82.92-16.49,120-26" transform="translate(-58.5 -390.96)"/><path class="cls-14" d="M1647,1635c38-2.26,79.17-6.32,123-13a1348.2,1348.2,0,0,0,140-29" transform="translate(-58.5 -390.96)"/><path class="cls-14" d="M1806,1748a609.2,609.2,0,0,0,108-15c32.4-7.55,58.81-16.59,98-30,27.67-9.47,50.37-18,66-24" transform="translate(-58.5 -390.96)"/><path class="cls-14" d="M1733,1812a1404.94,1404.94,0,0,0,148-9c75.56-8.64,112.3-19.18,128-24a563.16,563.16,0,0,0,64-24" transform="translate(-58.5 -390.96)"/><path class="cls-14" d="M1866,1856a617.57,617.57,0,0,0,224-57" transform="translate(-58.5 -390.96)"/><path class="cls-14" d="M1830,1920a817.1,817.1,0,0,0,105-12c31.85-5.77,58.17-12.53,95-22,27.09-7,49.68-13.29,66-18" transform="translate(-58.5 -390.96)"/><path class="cls-14" d="M1718,2018c28.42-.85,58.49-2.73,90-6a1225.54,1225.54,0,0,0,154-26" transform="translate(-58.5 -390.96)"/><path class="cls-14" d="M1802,2037c22.4.11,46.48-.74,72-3a775.9,775.9,0,0,0,127-22" transform="translate(-58.5 -390.96)"/><path class="cls-14" d="M2000,411a449.21,449.21,0,0,1,91-16c47.59-3.37,83.17,1.82,137,10,58.52,8.89,65.13,14.21,147,27,22.89,3.58,45.11,6.71,73,9,31.76,2.61,58.54,3.1,78,3" transform="translate(-58.5 -390.96)"/><path class="cls-14" d="M2042,489a454.53,454.53,0,0,1,69-15c42.59-5.84,73.66-3.89,136,0,81.83,5.11,122.87,7.67,129,8,36.68,2,91.24,4,159,3" transform="translate(-58.5 -390.96)"/><path class="cls-14" d="M1989,548a403.61,403.61,0,0,1,66-21c47.84-10.8,85.64-10.09,129-9,56.06,1.41,66.12,6.69,129,9,37.57,1.38,68.47.76,89,0" transform="translate(-58.5 -390.96)"/><path class="cls-14" d="M2046,596c65.11-12.88,115-10.14,149-5,27.76,4.19,64.08,12.87,121,15,21.11.79,38.5.43,50,0" transform="translate(-58.5 -390.96)"/><path class="cls-14" d="M2150,651a674.76,674.76,0,0,1,75,2c38.85,3.23,60,8.48,103,10,18.92.67,34.33.35,44,0" transform="translate(-58.5 -390.96)"/><path class="cls-14" d="M2012,722a324.2,324.2,0,0,1,105-11c34.46,2.15,52.75,9.06,102,18a1082.12,1082.12,0,0,0,108,14" transform="translate(-58.5 -390.96)"/><path class="cls-14" d="M2106,800c49.11-1.82,87.61,2.56,114,7,40.47,6.81,65.44,16,108,11,17.71-2.07,34-6.06,35-3,1.39,4.14-26.08,18.71-51,27-32.43,10.79-56,9.4-111,7-108.14-4.72-133.52-4.47-158-3a713.5,713.5,0,0,0-72,8" transform="translate(-58.5 -390.96)"/><path class="cls-14" d="M2163,692q37.81,4.08,78,7c36.28,2.6,71.32,4.21,105,5" transform="translate(-58.5 -390.96)"/><path class="cls-14" d="M2048,995a481.52,481.52,0,0,1,87-8c27.47,0,47.91,2.5,99,3,14.32.14,26.11.08,34,0" transform="translate(-58.5 -390.96)"/><path class="cls-14" d="M2178,1070c15,.43,30.65.47,47,0,24.9-.71,48.3-2.52,70-5" transform="translate(-58.5 -390.96)"/><path class="cls-14" d="M2141,1116c23.37-1.63,47.72-2.68,73-3q16.27-.2,32,0" transform="translate(-58.5 -390.96)"/><path class="cls-14" d="M2129,1314c32.77-3.16,60.35-4.94,81-6,43.32-2.22,60.27-1.5,69-1a444.46,444.46,0,0,1,57,7" transform="translate(-58.5 -390.96)"/><path class="cls-14" d="M2157,1367a479.64,479.64,0,0,1,63-3c16.54.31,31.1.58,50,4a238.94,238.94,0,0,1,55,17" transform="translate(-58.5 -390.96)"/></svg>