<?xml version="1.0" encoding="utf-8"?>
<!-- Generator: Adobe Illustrator 21.0.0, SVG Export Plug-In . SVG Version: 6.00 Build 0)  -->
<svg version="1.1" id="Слой_1" xmlns="http://www.w3.org/2000/svg" xmlns:xlink="http://www.w3.org/1999/xlink" x="0px" y="0px"
	 viewBox="0 0 515 362" style="enable-background:new 0 0 515 362;" xml:space="preserve">
<style type="text/css">
	.st0{fill:none;stroke:#000000;stroke-width:5;stroke-linecap:round;stroke-linejoin:round;}
	.st1{fill:#7C7969;stroke:#000000;stroke-width:3;stroke-linecap:round;stroke-linejoin:round;}
	.st2{fill:#FFFFFF;stroke:#000000;stroke-width:3;stroke-linecap:round;stroke-linejoin:round;}
	.st3{fill:#BCBCBC;stroke:#000000;stroke-width:3;stroke-linecap:round;stroke-linejoin:round;}
	.st4{opacity:0.2;enable-background:new    ;}
	.st5{fill:none;stroke:#000000;stroke-width:3;stroke-linecap:round;stroke-linejoin:round;}
</style>
<title>canvas</title>
<polyline class="st0" points="47,73.5 256.9,37 467,73.5 "/>
<path class="st1" d="M9,58.5h497c4.1,0,7.5,3.4,7.5,7.5l0,0c0,4.1-3.4,7.5-7.5,7.5H9c-4.1,0-7.5-3.4-7.5-7.5l0,0
	C1.5,61.9,4.9,58.5,9,58.5z"/>
<rect x="15" y="73.5" class="st2" width="484" height="272"/>
<path class="st1" d="M9,345.5h497c4.1,0,7.5,3.4,7.5,7.5l0,0c0,4.1-3.4,7.5-7.5,7.5H9c-4.1,0-7.5-3.4-7.5-7.5l0,0
	C1.5,348.9,4.9,345.5,9,345.5z"/>
<circle class="st3" cx="256.9" cy="40" r="8"/>
<path class="st4" d="M8.5,352h497c1.4,0,2.5,1.1,2.5,2.5l0,0c0,1.4-1.1,2.5-2.5,2.5H8.5c-1.4,0-2.5-1.1-2.5-2.5l0,0
	C6,353.1,7.1,352,8.5,352z"/>
<path class="st4" d="M9,65h497c1.4,0,2.5,1.1,2.5,2.5l0,0c0,1.4-1.1,2.5-2.5,2.5H9c-1.4,0-2.5-1.1-2.5-2.5l0,0C6.5,66.1,7.6,65,9,65
	z"/>
<line class="st5" x1="251.2" y1="34.4" x2="262.5" y2="45.8"/>
<line class="st5" x1="262.7" y1="34.4" x2="251.2" y2="45.6"/>
</svg>
