<svg id="Слой_1" data-name="Слой 1" xmlns="http://www.w3.org/2000/svg" viewBox="0 0 2316.89 2334.87"><defs><style>.cls-1,.cls-28{fill:#2d2d2d;}.cls-1,.cls-10,.cls-11,.cls-12,.cls-14,.cls-15,.cls-16,.cls-2,.cls-21,.cls-22,.cls-27,.cls-28,.cls-3,.cls-4,.cls-5,.cls-6,.cls-7,.cls-9{stroke:#000;}.cls-1,.cls-10,.cls-11,.cls-12,.cls-14,.cls-15,.cls-16,.cls-2,.cls-22,.cls-23,.cls-27,.cls-28,.cls-3,.cls-4,.cls-5,.cls-6,.cls-7,.cls-9{stroke-linecap:round;stroke-linejoin:round;}.cls-1,.cls-2{stroke-width:6px;}.cls-10,.cls-2{fill:#4c4c4b;}.cls-3{fill:#703030;}.cls-10,.cls-11,.cls-12,.cls-14,.cls-15,.cls-16,.cls-21,.cls-22,.cls-23,.cls-27,.cls-28,.cls-3,.cls-4,.cls-5,.cls-6,.cls-7,.cls-9{stroke-width:10px;}.cls-4{fill:#212226;}.cls-5{fill:#83858c;}.cls-6{fill:#e7eef2;}.cls-21,.cls-23,.cls-7{fill:none;}.cls-8{fill:#b4bcbf;}.cls-9{fill:#262626;}.cls-11{fill:#7c7969;}.cls-12{fill:#999587;}.cls-13,.cls-21{opacity:0.2;}.cls-15{fill:#8790a0;}.cls-16,.cls-18{fill:#d9d9d9;}.cls-17{fill:#fff;}.cls-19{fill:#a0abba;}.cls-20{fill:#282828;}.cls-21{stroke-miterlimit:10;}.cls-22{fill:#a5a9aa;}.cls-23{stroke:#fff;}.cls-24{fill:#d6c630;}.cls-25{fill:#f9ffe8;}.cls-26{opacity:0.3;}.cls-27{fill:#909191;}.cls-29{fill:#30323a;}</style></defs><title>laptop</title><polygon class="cls-1" points="870.51 1577.87 784.95 2218.87 812.95 2218.87 931.19 1577.87 870.51 1577.87"/><polygon class="cls-2" points="784.51 1565.87 698.95 2206.87 726.95 2206.87 845.19 1565.87 784.51 1565.87"/><polygon class="cls-1" points="1372.62 1540.87 1458.19 2181.87 1430.19 2181.87 1311.94 1540.87 1372.62 1540.87"/><polygon class="cls-2" points="1437.62 1577.87 1523.19 2218.87 1495.19 2218.87 1376.94 1577.87 1437.62 1577.87"/><rect class="cls-3" x="733.95" y="1502.87" width="762" height="112" rx="12" ry="12"/><path class="cls-4" d="M1164,1721a328.19,328.19,0,0,0-15,33c-7.77,19.77-12.13,36.2-21,79-15.66,75.56-15.06,87.08-14,96,1.58,13.23,4.14,34.77,16,53,15.14,23.27,44,39,164,49,64.21,5.35,113.9,5.68,187,6,71.27.32,106.91.47,134-1,73.52-4,89.24-10.74,132-3,26.88,4.87,36.64,10.42,49,4,29.87-15.5,27.12-76.05,24-132-4.6-82.6-6.91-123.89-26-154-36.41-57.42-133.77-65.39-327-79C1436,1669.82,1200.34,1654.63,1164,1721Z" transform="translate(-341.05 -480.13)"/><path class="cls-4" d="M1157,1672c-1,4.66.66,21.64-5,46-1.22,5.26-2.86,11.19,0,17,3.55,7.22,11.83,9.75,23,13,24.49,7.12,36.74,10.68,39,11,137.38,19.6,200,22,200,22,103.63,4,77.48-.81,178,3,0,0,19,.72,127-3,0,0,16.67-.57,74-14,4.75-1.11,7.32-1.77,10-4,12.75-10.63,1.65-35.15,1-90-.13-10.67.28-10.9,0-13C1793.39,1580.36,1167.68,1621.42,1157,1672Z" transform="translate(-341.05 -480.13)"/><path class="cls-5" d="M1408,1716c-1.38,3.93-5.63,20.58-6,38-.1,4.57.16,5.17,0,12-.37,15.88-1.92,20.32,1,24,3.14,4,9,4,15,4,13.67.11,124.89,7,132,2,6.27-4.38,8.55-12.28,10-26,3.33-31.45,5.34-50.36-4-65C1528.27,1661.51,1419,1684.61,1408,1716Z" transform="translate(-341.05 -480.13)"/><path class="cls-6" d="M1138.34,1609.73c-1.94,11.51,6.39,20.66,6.51,50.43.07,16.89-2.59,20.12,0,27.66,7.36,21.4,40.24,28.5,52.06,30.91,126.24,25.72,206.61,26,206.61,26,50.88.2,76.32.29,266.81-1.63,38.27-.39,75.61-15,113.88-14.64,5,0,17.93.36,26-8.13,7.79-8.18,6.87-20.11,6.51-30.91-1.73-51.25,9.77-56.45,3.25-74.84-10.16-28.66-46.83-40.62-70-47.18-75.25-21.35-233.67-49.82-527.1-1.63C1213.74,1567.31,1143.43,1579.46,1138.34,1609.73Z" transform="translate(-341.05 -480.13)"/><path class="cls-7" d="M1385.62,1666.67a342.15,342.15,0,0,0,81.34,39c55.08,17.94,100.47,17.09,130.15,16.27,15.38-.42,68.57-2.7,133.4-24.4a477.28,477.28,0,0,0,45.55-17.9" transform="translate(-341.05 -480.13)"/><path class="cls-7" d="M1180.64,1655.28a317.77,317.77,0,0,0,52.06,29.28c27.21,12.09,50.28,17.71,84.6,24.4,23.68,4.62,131.57,25.66,133.4,17.9.67-2.86-13.44-7.85-78.09-32.54-36.3-13.86-65.75-25.23-84.6-32.54" transform="translate(-341.05 -480.13)"/><path class="cls-8" d="M1168.84,1659.75c1.39-2.12,30.49,18.64,70,35.79,46.66,20.29,88.1,27,127.71,33.35,43.33,7,71.66,7.79,71.58,8.95-.1,1.55-51,.58-106.56-4.88-73.06-7.18-105.29-17.31-128.52-26.84-23.94-9.82-42.79-20.84-42.3-22,.75-1.69,45.81,19.11,48.81,13.83C1212.65,1692.45,1167.13,1662.38,1168.84,1659.75Z" transform="translate(-341.05 -480.13)"/><path class="cls-8" d="M1186.74,1646.74c22.2,17.47,43,25.45,68.33,35,24,9,41.51,13.44,75.65,22,41.82,10.44,73.75,16.58,74,15.46s-39.61-8-87.85-31.72c-24.79-12.18-53.93-29.88-52.06-34.16,1.59-3.62,25,3.32,43.93,8.95,28.55,8.48,48.75,16.84,71.58,26,39.51,15.91,59.25,23.9,68.33,26.84a461.82,461.82,0,0,0,94.36,19.52c25,2.53,47.86,1.69,93.54,0,85.32-3.15,108.38-10.27,123.64-16.27,26.35-10.37,49.8-25.42,48.81-27.66-.82-1.84-18,5.16-44.74,13a688.81,688.81,0,0,1-79.72,17.9,571.25,571.25,0,0,1-100.87,7.32c-21.65-.47-45-1.08-75.65-7.32a352,352,0,0,1-75.65-24.4c-32.64-14.93-54.15-31.13-60.19-35.79-3.26-2.51-8.59-5.53-8.13-6.51,1-2.08,26.48,8.47,53.69,18.71,33.3,12.53,56.83,21.39,78.09,26.84,50,12.84,91.93,8,118.76,4.88,23.24-2.69,53.18-12.1,113.07-30.91a126.35,126.35,0,0,0,35.79-17.08c3.92-2.73,27.93-19.44,27.66-27.66-1.4-41.55-630.93-72-637.73-18.71C1152.28,1619.63,1167.53,1631.63,1186.74,1646.74Z" transform="translate(-341.05 -480.13)"/><rect class="cls-9" x="367.79" y="1106.82" width="87.85" height="1145.05"/><rect class="cls-9" x="1877.52" y="1106.82" width="87.85" height="1145.05"/><rect class="cls-10" x="1965.37" y="1157.25" width="87.85" height="1172.62"/><rect class="cls-10" x="279.94" y="1157.25" width="87.85" height="1172.62"/><rect class="cls-11" x="5" y="1106.82" width="2306.89" height="50.43"/><polygon class="cls-12" points="2136.19 927.05 250.66 927.05 5 1106.82 2311.89 1106.82 2136.19 927.05"/><path class="cls-13" d="M715.76,1501.14c-4.52,4.7-18.77,19.51-14.64,30.91,1.12,3.11,5.1,10.06,37.42,16.27a263.37,263.37,0,0,0,52.06,4.88c54.22-1,58.09-3,87.85-3.25,50.67-.41,61,5.19,83-4.88,11.85-5.44,13.25-9.1,34.16-19.52,9.55-4.76,17.74-8.22,48.81-19.52,35.51-12.92,56.63-20,65.07-22.78,0,0,52.66-17.46,53.69-14.64.73,2-34.44,9.45-45.55,35.79-1.57,3.73-5.22,12.38-1.63,19.52-40.67,35.79,705.29,16.44,719.07,11.39,3.33-1.22,12.71-4.66,16.27-13,4.24-10-3.55-18,0-22.78,5.11-6.87,27.3,1.85,35.79,4.88,30.38,10.86,27.62-.1,135,4.88,16.82.78,38.1,2,63.45-6.51,20.82-7,25.8-14.37,27.66-17.9,9-17.15-5-40.72-9.76-48.81-48.44-81.68-449-81.34-449-81.34-158.5.13-334.45-.21-600.31,19.52C1054.15,1374.24,821.19,1391.53,715.76,1501.14Z" transform="translate(-341.05 -480.13)"/><path class="cls-14" d="M1168.43,764.57c-9.86-8.34-17.9-20.34-17.9-20.34-4.8-7.16-8.54-12.87-9.76-21.15-1.25-8.46,1.45-10.74,0-18.71-1.5-8.23-5.66-12.85-9.76-18.71,0,0-9.16-13.09-16.27-35-6-18.6-4.94-34.49-4.07-47.18,1-14.79,1.9-27.58,8.95-42.3,12.13-25.35,33.5-37.53,40.67-41.48,20.9-11.53,40-12.38,54.5-13a139.33,139.33,0,0,1,51.25,6.51c21.35,7.07,20.64,13.06,52.06,26.84a345.27,345.27,0,0,0,40.67,14.64,382.84,382.84,0,0,0,43.11,9.76c70.09,11.82,131.78,4.88,131.78,4.88,42.89-4.83,64.34-7.24,87-20.34,7.22-4.17,22.15-13.72,46.37-26,22.7-11.55,30.26-13.67,34.16-14.64,23-5.74,42.08-2.48,51.25-.81,9.71,1.76,24.45,4.58,40.67,14.64,5.93,3.68,19.81,12.49,30.1,28.47,17.86,27.75,16.72,64.49,6.51,89.48-3.61,8.82-8.3,16.08-19.52,41.48-2.35,5.32-5.47,12.52-8.95,22-4.29,11.63-6,18.13-7.32,22,0,0-6.56,18.91-34.16,37.42-58.22,39-208.24,35-208.24,35C1504.91,796.66,1198.9,790.37,1168.43,764.57Z" transform="translate(-341.05 -480.13)"/><path class="cls-6" d="M926.84,1235.55c-.07-8.92,10.42-11.78,29.28-32.54,18.28-20.11,27.24-38.11,39-61.82,31.32-62.92,24.87-95.3,55.31-167.57,17.33-41.13,30-71.31,60.19-97.61,36.33-31.68,78.25-40.55,112.25-45.55,143.22-21.08,236.13-7.22,434.37,0,81.09,3,123.16,2.7,172.45,30.91,56.65,32.43,97.72,88.1,109,104.12,23.31,33.09,19.88,39.55,52.06,86.22,28.8,41.77,36.72,44.11,68.33,89.48,29.5,42.34,44.41,64.16,52.06,96,5.73,23.81,14.34,59.64-1.63,84.6-31.09,48.58-138.77,30.09-196.85,19.52-146.45-26.65-149.68-68.81-255.42-89.48-33.38-6.53-151.77,8.58-387.19,39-32.21,4.17-106.2,13.81-200.1,0C1003.68,1281.11,927,1259.6,926.84,1235.55Z" transform="translate(-341.05 -480.13)"/><path class="cls-14" d="M2104.69,1397.42a109.41,109.41,0,0,1-17.9,46.37c-18.7,27.39-44.46,37.87-53.69,41.48-25.66,10-46.67,8.06-80.53,4.88-17.26-1.62-49.79-4.92-89.48-20.34-43.37-16.85-43.85-28.19-90.29-51.25-67.53-33.53-99.17-25.77-103.31-43.93-6.84-30,73.82-76.65,132.59-97.61a353.6,353.6,0,0,1,70.77-17.08c28.88-3.92,85.24-10.92,146.42,13,23.41,9.16,43.66,17.08,61,38.23C2110.76,1348.35,2105.26,1393.35,2104.69,1397.42Z" transform="translate(-341.05 -480.13)"/><path class="cls-14" d="M852.82,1358.38c.53-9.24,1.53-24,9.76-39.86,15.09-29,43.54-40.36,58.57-46.37,12.37-4.94,46.88-18.73,87.85-6.51,56.65,16.9,78.7,69.52,83,79.72,5.55,13.25,19.71,47,6.51,83a100.38,100.38,0,0,1-22,34.16c-18.55,19.07-39.47,25.46-55.31,30.1-23,6.73-51.32,15-83,4.07-43.65-15.1-62.83-56.12-71.58-74.84C861.25,1410.28,851.12,1387.94,852.82,1358.38Z" transform="translate(-341.05 -480.13)"/><path class="cls-6" d="M846.31,1342.92c10,3.08,19.11-24.32,44.74-42.3,19.44-13.63,39.57-15.66,53.69-17.08,49.49-5,85.84,18.89,95.17,25.22,13.28,9,32.15,21.81,42.3,46.37,8.42,20.38,7.14,39.92,6.51,49.62a118.72,118.72,0,0,1-8.13,37.42c-10,25.06-18.3,32.13-25.62,37.82,11.39-2.44,40.35-4.93,63-28.06a103.23,103.23,0,0,0,24.4-40.67c9.55-29.88,2.69-55.48-1.63-71.58-2-7.39-13-46.24-48.81-79.72-9.1-8.5-25-23-50.43-32.54-25.92-9.68-47.47-8.81-64.26-8.13-2.47.1-43.82,2.09-70,18.71-7,4.47-15.25,9.7-19.52,19.52-2.12,4.88-1.8,7.51-4.88,12.2-4.31,6.57-9.12,7.79-17.08,13-5.3,3.48-16.21,10.65-22.78,22.78-2.44,4.51-6.47,12.2-4.88,22C838.59,1330,840.39,1341.1,846.31,1342.92Z" transform="translate(-341.05 -480.13)"/><path class="cls-6" d="M1884.66,1256.29c32.54-5.69,53.79-2.84,89.88,7.73s54.12,15.84,72.4,32.54c24.76,22.63,33,49.87,35.79,59.38,3.75,12.92,10.35,35.68,2.44,63.45-2.31,8.1-10.86,34.25-35,52.06-38.55,28.48-90.12,15.91-90.29,19.52-.12,2.62,27.12,8.74,59.38,6.51,21.65-1.5,44.43-3.07,67.51-18.71,6-4.09,30.31-20.53,38.23-44.74a135.25,135.25,0,0,1,8.95-22.78c4.89-9.62,9.3-15.23,12.2-19.52,11.14-16.48,13.91-34.13,15.46-43.93,6.92-44-22.35-82.49-27.66-89.48-20.54-27-45.55-39.09-59.38-45.55a179,179,0,0,0-65.89-16.27c-39.14-2.06-68.18,9.31-85.41,16.27-22.41,9.05-35.49,18.7-46.37,26.84-5.73,4.3-20.48,15.35-18.71,18.71C1859.79,1261.29,1873.32,1258.28,1884.66,1256.29Z" transform="translate(-341.05 -480.13)"/><path class="cls-7" d="M1893.54,1178.19a85.79,85.79,0,0,0-14.88,22.87c-7.72,17.52-8.8,36.35-6.66,36.9,1.51.39,3.47-8.55,10.75-22.52,5.72-11,16.14-30.48,36.23-45a99.2,99.2,0,0,1,32-15.19" transform="translate(-341.05 -480.13)"/><path class="cls-7" d="M1883.84,1235c10.46-27.12,26.56-39.08,35.05-44.49,22.81-14.53,48-12.25,58.9-11.81" transform="translate(-341.05 -480.13)"/><path class="cls-7" d="M2044.5,1218.47a203.78,203.78,0,0,0-63.45-4.07c-19.38,1.84-34.14,6.14-46.37,9.76-21.59,6.4-54.78,25.91-67.11,32.13" transform="translate(-341.05 -480.13)"/><path class="cls-7" d="M1879,1250.6c13-8.13,45.22-11.24,63.85-11.79,16.14-.48,34.7-1,56.94,4.07a174,174,0,0,1,60.19,26.84" transform="translate(-341.05 -480.13)"/><path class="cls-7" d="M880.07,1273.37c6.67-4.41,24.78-16.88,37-21.56,23.57-9,43.35-9.56,54.5-9.76,12.81-.23,37.42-.43,65.89,11.39a126.64,126.64,0,0,1,32.54,18.71c31.06,25,40.44,58.25,39.86,58.57s-8.92-26.13-35.79-47.18c-11.75-9.2-22.58-13.89-30.1-17.08a166.67,166.67,0,0,0-62.63-13" transform="translate(-341.05 -480.13)"/><path class="cls-14" d="M961.82,1374.65c-19-7-18-23-39-40.67-6-5-17.84-15-35-17.9-19.7-3.35-47.5,2.42-59.38,22.78-8.28,14.19-5.43,29.66-3.25,41.48.82,4.46,4.81,24.27,22,45.55,36.81,45.68,94.92,49.38,111.44,50.43,20.1,1.28,36.91,2.09,50.43-9.76,12.67-11.11,18.7-30.05,15.46-47.18a49.51,49.51,0,0,0-13.83-26c-7.31-7-15.19-9.79-24.4-13C972.43,1375.51,970,1377.65,961.82,1374.65Z" transform="translate(-341.05 -480.13)"/><path class="cls-15" d="M761.72,1519.44a21.09,21.09,0,0,0,2.44,7.32,22.11,22.11,0,0,0,8.13,7.32c17.82,9.31,174-3.86,183.84-2.44a19.41,19.41,0,0,0,5.69,0,17,17,0,0,0,8.13-3.25c3.14-2.57,4.15-6.23,4.88-9.76,2.84-13.76,1.63-22.78,1.63-22.78-3.7-27.44-5.55-41.15-13-53.69-17.16-28.8-50-37.09-61-39.86-33.56-8.47-82.94-4.74-114.69,30.1C787.75,1432.4,755.06,1468.27,761.72,1519.44Z" transform="translate(-341.05 -480.13)"/><path class="cls-7" d="M854.45,1449.48a195.46,195.46,0,0,0-1.63,23.59,264.49,264.49,0,0,0,2,31.32" transform="translate(-341.05 -480.13)"/><line class="cls-7" x1="460.52" y1="1024.67" x2="583.35" y2="1024.67"/><path class="cls-16" d="M1039.1,876c2.2,1.87-4,8.51-2.44,17.08,1.73,9.6,12,15.16,17.08,17.9,2.72,1.47,18.33,9.55,36.6,4.07,7.23-2.17,17-7.11,28.47-22.78,17.52-24,20.69-48.27,24.4-68.33.57-3.07,10-53,26-91.1,20.87-49.59,53.54-80.6,68.33-94.36a313.09,313.09,0,0,1,80.53-53.69c80.88-37.64,155.56-31.17,196-27.66a357.24,357.24,0,0,1,55.31,8.95c18.84,4.66,48.64,12.26,81.34,31.72,42.94,25.55,67.16,57.43,78.9,73.21a316.26,316.26,0,0,1,43.93,83,639.41,639.41,0,0,1,22.78,77.28c2.82,13.38,6.1,31.63,17.08,53.69,9.29,18.66,17.2,26.18,24.4,30.91,5.56,3.66,17.53,11.53,33.35,8.95,11.51-1.88,23.66-9.06,29.28-20.34,9.78-19.6-4-43.77-1.63-44.74s14.23,13.77,19.52,34.16c.93,3.6,9.09,37.19-9.76,69.14-4.32,7.31-10.21,17.3-22,24.4-12.53,7.57-24.48,7.5-24.4,10.57.07,2.87,10.57,6.34,21.15,5.69,13.65-.83,20.88-8.11,23.59-5.69,3.81,3.39-6.59,21.28-9.76,26-34.7,52.07-180.58,50.43-180.58,50.43-369.52-4.14-352.47,36.42-440.88,1.63-53.45-21-139.31-67.19-214.75-42.3-13.35,4.41-9.76-14.64-44.74,7.32-6.5-8.76,11.18-41.16,35.79-48,9.28-2.58,18.41-1.21,18.71-3.25.42-2.95-18.85-3.41-34.16-16.27-14.3-12-18.21-29-20.34-38.23-2-8.86-7.72-33.55,5.69-49.62C1027.94,878.68,1036.87,874.13,1039.1,876Z" transform="translate(-341.05 -480.13)"/><path class="cls-17" d="M1044.79,918.31a85.08,85.08,0,0,0,39,8.13c22.2-.85,38.24-15.8,43.11-20.34,11.58-10.79,18.46-23.77,30.1-70,16-63.53,11.66-73.45,26-99.24,8-14.41,19.36-34.76,42.3-46.37,34.15-17.28,70.83-3.47,72.4-10.57,1.06-4.79-14.81-14.83-30.91-17.9-12.44-2.37-20,.38-21.15-2.44-1.77-4.5,15.37-17.25,33.35-24.4,8.62-3.43,30.88-12.28,56.13-5.69,27.29,7.12,40.17,27.62,43.93,24.4,3.46-3-4.75-22.77-19.52-37.42-12-11.9-20.52-12.65-20.34-17.9.34-9.76,30.32-22,57.75-16.27,7.12,1.48,25.88,6.62,39,23.59,19,24.44,9.28,51.49,19.52,54.5,11.06,3.26,33.16-25.11,44.74-48.81,7.12-14.58,10.13-27.1,15.46-26.84,4.5.22,9,9.47,8.95,17.9,0,15.47-15,24.81-13,27.66,2.29,3.23,20.45-10.46,45.55-17.08,31.55-8.32,57.45-1.08,66.7,1.63,20.68,6.06,39.55,17.55,38.23,22-1.26,4.24-19.93-2.11-46.37,4.88-18.14,4.79-33.45,14.15-32.54,17.08,1,3.16,19.8-4.31,47.18-1.63a127.8,127.8,0,0,1,44.74,13c28.32,14.3,43.53,35.62,50.43,45.55a159.69,159.69,0,0,1,13.83,24.4c5.79,12.21,11.73,28,18.71,64.26,8.47,44.07,3.66,41.37,9.76,56.94,11.27,28.78,30.65,45.53,37.42,51.25,9.17,7.74,21.22,17.68,39.86,22,8.43,1.94,21.77,5,35-.81,18.2-8,23.77-27.41,26.84-26,2.66,1.19.81,16.74-7.32,30.91-14.86,25.88-43.34,34.35-45.55,35-23.21,6.55-40.93-.42-43.11,5.69s13.63,16.66,15.46,17.9c24.46,16.5,49.72,12.84,50.43,17.9,1,7.23-34.16,15.46-34.16,15.46-108.62,25.38-203.36,28.47-203.36,28.47-164.74,5.37-165.83,7.32-213.93,5.69-65.8-2.22-98.71-3.33-134.22-11.39-94.65-21.47-138.28-36.6-138.28-36.6-18.38-6.38-40.67-14.86-69.14-10.57-23.8,3.58-43.66,14.82-45.55,11.39-1.34-2.43,7.16-10.56,16.27-16.27,27-16.92,56.2-10.57,56.94-15.46.61-4-19.14-5.91-38.23-20.34C1051.86,949.32,1039.71,923.8,1044.79,918.31Z" transform="translate(-341.05 -480.13)"/><path class="cls-18" d="M1421.41,776c-1.33,4.76,15.18,7.69,26,26,2.35,4,12.23,21.85,4.88,34.16-4.28,7.18-12.79,9.74-21.15,11.39-29.27,5.78-47.83-1.33-74-4.07a214.21,214.21,0,0,0-74,5.69c-16.74,4.37-38.93,10.44-59.38,29.28-8.84,8.14-21.61,20.22-26.84,40.67-1.42,5.54-6.45,28,4.07,48,13.53,25.77,44.51,31.83,77.28,38.23,26.35,5.15,74.47,14.55,120.39-8.95,31.79-16.27,52-42.91,57.75-38.23,3.69,3-2.07,15.86-4.07,20.34-13.88,31-38,37.52-36.6,46.37,3,18.57,114.32,21.21,117.95,3.25,1.62-8-19.67-13-33.35-41.48-6.79-14.11-9.71-29.87-7.32-30.91,2-.88,6.9,9.07,15.46,19.52,14.13,17.28,30.09,26,40.67,31.72,49.08,26.71,105.21,14.86,109.81,13.83,23.43-5.27,66.91-15,84.6-52.87,1.45-3.1,16-35.42.81-64.26-15.65-29.79-52.87-36.67-78.9-41.48-9.67-1.79-11.75-1.38-59.38-2.44-69.65-1.55-86.4-2.88-95.17-15.46-6.24-8.95-7.12-21.7-3.25-30.91,9-21.42,43.06-22.42,42.3-27.66-.62-4.25-23.76-8.78-43.93.81-18.43,8.77-21.7,30-27.66,28.47s0-21.6-11.39-34.16C1453.52,766.07,1423.14,769.76,1421.41,776Z" transform="translate(-341.05 -480.13)"/><path class="cls-14" d="M1227.81,916.68c3.42-9.64,11.33-15,17.08-18.71,12.49-8.15,22.33-8.22,43.93-11.39a564.84,564.84,0,0,0,63.45-13.83c25.18-7.11,30.78-11,33.35-13,5-3.85,11.16-9.84,22.78-16.27,9.23-5.11,12.43-5.23,14.64-4.88,8.55,1.36,13.39,11.5,17.08,19.52a92.55,92.55,0,0,1,8.13,44.74c-1.72,19.85-9.65,33.75-14.64,42.3a113.74,113.74,0,0,1-29.28,33.35c-17.1,12.68-33.43,16.61-45.55,19.52a132.71,132.71,0,0,1-40.67,4.07c-12.12-.73-31.46-1.88-51.25-14.64A92.71,92.71,0,0,1,1239.2,959C1232.07,947.53,1222.39,932,1227.81,916.68Z" transform="translate(-341.05 -480.13)"/><path class="cls-14" d="M1520.65,835.34c-10.69,4.11-15.47,15.06-18.71,22.78-1.51,3.6-8,19.73-5.69,43.11a112.87,112.87,0,0,0,13,41.48c4.37,8.15,16.68,30.4,43.11,45.55,20.16,11.56,38.32,13.11,56.13,14.64,14.74,1.26,32.32,2.58,52.87-4.88a93.3,93.3,0,0,0,28.47-16.27c6.22-5.3,15-12.91,20.34-26,2.08-5.07,5.68-14.19,4.07-26-.45-3.28-2.22-16.29-12.2-25.22-7.4-6.62-14.95-7.08-35-9.76-1.85-.25-26.22-3.53-42.3-6.51-29.29-5.42-43.94-8.13-53.69-17.08-18.37-16.86-25.22-26.84-25.22-26.84-1.73-2.52-5.12-7.72-11.39-9.76S1522.45,834.65,1520.65,835.34Z" transform="translate(-341.05 -480.13)"/><path class="cls-17" d="M1316.48,920.75c31.72,0,65.89-8.95,86.22-16.27,7.16,10.85-4.34,36.73-24.4,45.55C1337.63,967.93,1314.76,934.7,1316.48,920.75Z" transform="translate(-341.05 -480.13)"/><path class="cls-17" d="M1630.07,916.68c-31.72,0-65.89-8.95-86.22-16.27-7.16,10.85,4.34,36.73,24.4,45.55C1608.92,963.86,1631.79,930.63,1630.07,916.68Z" transform="translate(-341.05 -480.13)"/><path class="cls-7" d="M1500.31,806.06c-3.25,2.28-14.71,10.89-18.71,26.84a47.49,47.49,0,0,0,1.63,27.66,48.6,48.6,0,0,0,6.51,12.2" transform="translate(-341.05 -480.13)"/><path class="cls-7" d="M1435.24,794.67c3.42.18,16.93,1.31,26.84,12.2,8,8.75,9.13,18.89,9.76,24.4a50.35,50.35,0,0,1-16.27,43.11" transform="translate(-341.05 -480.13)"/><rect class="cls-7" x="1273.95" y="975.05" width="190.34" height="63.45"/><path class="cls-8" d="M859.74,1324.62a87.35,87.35,0,0,1,15.46-19.52c11-10.4,21.88-15.19,30.1-18.71a131.63,131.63,0,0,1,38.23-9.76c8.94-1.05,23.81-2.69,41.48.81,28,5.55,45.9,20.58,47.18,18.71.91-1.33-7.15-10.14-17.9-17.08-48.59-31.38-117.11-1.69-128.52,3.25-13.14,5.69-24.47,14.52-27.66,17.08a58.51,58.51,0,0,0-9.76,9.76c-1.62,2.06-11.93,15.23-8.13,20.34,2.3,3.09,8.71,1.83,9.76,1.63A16,16,0,0,0,859.74,1324.62Z" transform="translate(-341.05 -480.13)"/><path class="cls-8" d="M896.34,1255.48c-.34-.72,10.9-7.7,24.4-13,3.83-1.51,17.66-6.74,38.23-8.95,10.81-1.16,33-3.33,60.19,4.07a134.08,134.08,0,0,1,42.3,19.52c6.69,4.72,14.48,11.21,13.83,12.2-.94,1.43-17.78-11.07-43.11-20.34a179.81,179.81,0,0,0-48-10.57,167.42,167.42,0,0,0-56.94,5.69C909.26,1249.2,896.7,1256.24,896.34,1255.48Z" transform="translate(-341.05 -480.13)"/><path class="cls-8" d="M1033,1270.12c-.22.44,19.81,6,37.42,24.4,17,17.78,23.12,38.47,26,48.81a137.86,137.86,0,0,1,4.88,42.3c-.31,14.29-.72,33.11-10.57,52.87-9.2,18.45-22.09,28.6-19.52,31.72,1.94,2.36,10.64-1.78,15.46-4.07a84.1,84.1,0,0,0,25.22-18.71c7.16-7.59,16.46-17.44,21.15-30.91,8.67-24.87-2.93-49-13-70-13.17-27.39-30.61-43.31-35-47.18C1059.84,1277.07,1033.25,1269.61,1033,1270.12Z" transform="translate(-341.05 -480.13)"/><path class="cls-14" d="M930.1,1455.18c-1.16-10.93,4.39-19.51,6.51-22.78,11-17,31.19-21.48,40.67-23.59,15.16-3.37,26-1.33,28.47-.81,8.38,1.72,17.66,3.62,22.78,11.39,6.34,9.62,2.17,22,0,28.47-3.8,11.31-10.75,18.2-14.64,22a67.2,67.2,0,0,1-29.28,16.27c-9.89,2.6-21,5.52-32.54,0-13.09-6.26-18.47-19.38-19.52-22A31,31,0,0,1,930.1,1455.18Z" transform="translate(-341.05 -480.13)"/><path class="cls-14" d="M738.94,1441.35c-15.06-1.13-26.4,10.84-27.66,12.2-6.45,7-8.38,14.78-9.76,20.34a51.91,51.91,0,0,0-.81,23.59c1.12,5.47,3.74,18.2,15.46,26.84a38.8,38.8,0,0,0,24.4,7.32c12.62-.63,25.34-7.68,31.72-19.52,7.17-13.31,3.1-26.66.81-34.16C771.82,1473.72,761.94,1443.07,738.94,1441.35Z" transform="translate(-341.05 -480.13)"/><path class="cls-14" d="M799.14,1382c-6.71-3.69-13.32-3.45-18.71-3.25-3,.11-23.18,1.16-35.79,17.08-6.14,7.75-7.51,15.26-9.76,27.66-1.46,8-3.81,21.83.81,38.23,2.12,7.52,4.46,15.8,12.2,22.78a37.28,37.28,0,0,0,18.71,8.95c13.68,2.2,24.26-4.26,29.28-7.32a53.87,53.87,0,0,0,21.15-24.4c6.08-14.3,3.67-26.75.81-41.48C814.76,1404.29,811.78,1388.92,799.14,1382Z" transform="translate(-341.05 -480.13)"/><path class="cls-14" d="M879.67,1323.4c-13.21-10.5-30.23-8.72-35.79-8.13-5,.53-23.74,3.17-36.6,18.71-6.89,8.32-9.13,16.75-11.39,25.22a89.2,89.2,0,0,0-2.44,32.54c2.08,19,9.71,32.14,13.83,39,6.65,11.15,11.24,18.85,21.15,24.4,13.67,7.66,27.56,5.67,32.54,4.88,4.7-.74,17.06-2.87,27.66-13s13.14-22.07,14.64-29.28c2.87-13.79.05-25.92-5.69-49.62C891.45,1342.94,888.22,1330.2,879.67,1323.4Z" transform="translate(-341.05 -480.13)"/><path class="cls-8" d="M1931,1231.08c-.24-1.72,15.37-5.83,30.1-8.13a212.83,212.83,0,0,1,58.57-.81c35,4.17,64.71,15.08,64.26,17.08-.33,1.5-17.88-.62-46.37-4.07-11-1.33-20.92-2.68-21.15-1.63-.27,1.26,13.38,5.06,35.79,14.64,6.77,2.9,13.6,6,19.52,13,4.06,4.81,7.91,11.72,6.51,13-2.12,2-13.33-11.53-34.16-22.78-16.82-9.08-31.9-12.37-42.3-14.64a234.07,234.07,0,0,0-42.3-4.88C1941.8,1231.22,1931.22,1232.47,1931,1231.08Z" transform="translate(-341.05 -480.13)"/><path class="cls-8" d="M1959.5,1253c-.05.28,12.55,1.76,32.87,8.35A248.94,248.94,0,0,1,2026.2,1275c13.78,6.9,24.46,12.06,35,22,22.42,21.1,29.29,46.62,31.72,56.13,4.81,18.81,3.91,33.76,3.25,44.74-1.1,18.29-2,33-11.39,48.81-10.62,17.82-26.15,26.91-31.72,30.1-17,9.71-32.87,11.31-32.54,13,.27,1.42,11.39.8,21.15-.81,9.43-1.56,23.23-3.83,38.23-13a94.3,94.3,0,0,0,30.1-30.1c7.54-11.53,12.31-24.06,17.08-36.6.59-1.56,2.92-7.67,4.07-11.39,10.38-33.64-14.16-71.34-10.57-73.21,2.36-1.23,16.79,13.09,19.52,32.54,1.61,11.44-1.43,20.44.81,21.15,2.41.76,8.15-9,11.39-17.9a71.34,71.34,0,0,0,4.07-26c-.06-3.56-.54-17.77-8.95-37.42-8.77-20.5-21-34.77-22-34.16s10.57,15.4,16.27,39.86c3.77,16.17,4.1,32.81,1.63,33.35-1.58.34-3-6.22-8.13-13.83-10.9-16-30.56-24.77-34.16-21.15-2.48,2.5,4.12,9.37,8.13,25.22,3.26,12.87,4.64,27,2.44,27.66-3.14.91-7.59-27.27-29.28-51.25-12.66-14-25.94-20.75-39.86-27.66C2000.19,1254,1959.59,1252.53,1959.5,1253Z" transform="translate(-341.05 -480.13)"/><path class="cls-8" d="M1907.44,1209.11a86.57,86.57,0,0,1,24.4-17.9c18.36-8.79,35.05-8.44,44.74-8.13,12.91.41,26.92,3.07,26.84,4.88-.1,2.3-22.72-1.35-50.43,6.51-30.79,8.73-51,26.9-52.87,24.4C1899.23,1217.67,1903.68,1213,1907.44,1209.11Z" transform="translate(-341.05 -480.13)"/><path class="cls-8" d="M1910.69,1188c.15.22,2.92-1.88,8.38-4.69a116.54,116.54,0,0,1,22.53-8.32c23.52-5.84,47.43-1,55.31.81,17.86,4.15,27.83,10.21,28.47,8.95.79-1.55-13.22-12.89-31.72-18.71-6.93-2.18-26.64-8.09-48.81-.81C1924,1172,1910.32,1187.44,1910.69,1188Z" transform="translate(-341.05 -480.13)"/><path class="cls-8" d="M1895.23,1183.08c2.5,1.2,6.83-10.56,17.9-19.52,21.94-17.77,52.43-10.05,52.87-14.64.27-2.77-10.66-8-22.78-8.13-19-.27-29.88,12-34.16,8.13s3.29-18.82,6.51-25.22c10.79-21.42,23.46-30.74,22-32.54s-18.48,5.86-28.47,21.15c-4.13,6.31-5.8,11.95-7.32,17.08-.94,3.18-7.09,23.9-.81,27.66,3.69,2.21,10.25-2.32,10.57-1.63s-7.29,3.32-12.2,9.76C1894,1172.18,1893.07,1182,1895.23,1183.08Z" transform="translate(-341.05 -480.13)"/><path class="cls-8" d="M954.91,1214.81c.19.66,9.43-3,26-4.07a149.39,149.39,0,0,1,37.42,2.44c10.75,2,30.09,5.73,49.62,18.71,16.13,10.72,22,20.86,26,18.71,4.69-2.49,2-18.83-3.25-30.91-13.73-31.63-47.49-40-50.43-40.67-8.29-1.91-15.21-1.85-15.46-.81-.38,1.6,15.6,4.35,29.28,17.08,1.68,1.56,10.73,10,8.95,13-2.26,3.84-18.92-6.1-39.86-8.95C986.58,1194.37,954.55,1213.54,954.91,1214.81Z" transform="translate(-341.05 -480.13)"/><path class="cls-19" d="M864.62,1471c-1.32,2.11.11,3.5,0,11.39-.1,6.69-1.16,7.94,0,9.76,2.17,3.41,8.35,2.8,15.46,2.44,9.21-.47,18.44.11,27.66,0,21.39-.25,29.29,2,30.91-1.63,1-2.23-1.61-3.92-6.51-13-2.84-5.28-6.42-11.92-8.13-20.34-1-5.06-2.5-12.28,0-20.34,2.9-9.33,8.53-11.4,7.32-16.27-1.37-5.51-10.32-9.72-14.64-7.32-4,2.24-1.37,8.72-5.69,19.52-2,5-4.33,8-8.13,13-7.31,9.56-12.88,16.86-22,19.52C872.67,1470.2,867,1467.22,864.62,1471Z" transform="translate(-341.05 -480.13)"/><path class="cls-19" d="M799.54,1493.81c-.21-1.43,6.29-1.3,12.2-6.51,8.24-7.26,7.53-18,13-18.71,1.86-.24,1.81,1,5.69,1.63,5.92.93,8.55-1.57,10.57,0,1.76,1.37.71,4,.81,9.76.18,9.77,3.39,12,1.63,14.64-2,3.11-7.28,1.61-22.78.81C807,1494.74,799.77,1495.33,799.54,1493.81Z" transform="translate(-341.05 -480.13)"/><rect class="cls-19" x="518.68" y="1034.83" width="98.43" height="6.51" rx="3.25" ry="3.25"/><rect class="cls-19" x="441.41" y="1034.83" width="57.75" height="6.51" rx="3.25" ry="3.25"/><path class="cls-20" d="M1823.65,1277.44c19.34-8.12,36.4-9.83,60.19-12.2,16.43-1.64,33.65-3.36,56.13-.81,13.67,1.55,44.2,5.32,77.28,24.4,17.74,10.23,36.46,21,49.62,43.93a107.75,107.75,0,0,1,13.83,50.43c.13,10.31.2,15.47-1.63,18.71-16.78,29.79-130.74-36.11-272.5-53.69-12.93-1.6-37.13-4.17-40.67-16.27C1761.21,1315.92,1794.69,1289.61,1823.65,1277.44Z" transform="translate(-341.05 -480.13)"/><path class="cls-20" d="M802,1386.44c-3.08-8.72-2.72-16.21-2.44-21.15.42-7.37,1.18-20.56,10.57-30.91,7.81-8.61,17.64-10.88,26.84-13,14.48-3.35,26.36-1.48,35.79,0,11,1.73,20,4.75,27.66,7.32,6.23,2.09,11.56,4.18,17.08,6.51,28.53,12,32.6,17.84,55.31,26.84,15.94,6.32,16.15,4.32,26.84,9.76,10.41,5.29,23.3,11.85,31.72,26,2.94,4.95,10.28,17.31,7.32,31.72-4.34,21.15-27.53,30.39-39,35-10.68,4.26-23.57,9.4-35.79,3.25-7.43-3.73-15.46-12.07-15.46-22,0-2,.34-9.2,13-21.15,17.81-16.79,39.36-12,43.11-23.59,1.4-4.34-.36-8.43-1.63-11.39-4.43-10.3-15-14.69-52.06-26-29.08-8.9-24.71-6.86-32.54-9.76-1.91-.71-15.37-5.08-42.3-13.83-5.42-1.76-10.25-3.29-11.39-1.63-1.8,2.62,8,9.71,16.27,23.59,5.58,9.37,12.21,20.47,9.76,33.35-2.15,11.31-10.67,20.74-20.34,25.22-17.27,8-34.6-1.48-42.3-5.69C823.47,1412.42,808.22,1404.08,802,1386.44Z" transform="translate(-341.05 -480.13)"/><path class="cls-20" d="M780,1384.81c-7-5-20.5,1.16-27.66,7.32-9.85,8.49-11.34,20.14-12.2,26.84-1,7.74-2.56,20,5.69,30.1,8.93,11,22.76,11.37,25.22,11.39a34.23,34.23,0,0,0,21.15-7.32c3-2.42,7.18-5.87,7.32-10.57.17-5.78-6-8.34-10.57-13.83C776.08,1413.32,789.78,1391.87,780,1384.81Z" transform="translate(-341.05 -480.13)"/><path class="cls-20" d="M721.45,1454.77c-5.12-1.4-12,8.19-14.64,13-5.85,10.65-3.9,21.18-3.25,24.4,1.18,5.86,2.82,14,9.76,17.9,7.71,4.29,16.66.35,21.15-1.63,3.84-1.69,11.92-5.25,12.2-10.57s-7.24-6.31-13.83-14.64C722.7,1470.42,727.37,1456.39,721.45,1454.77Z" transform="translate(-341.05 -480.13)"/><path class="cls-20" d="M890.65,1306.73c29.67-12.49,23.77-13.39,35.79-16.27,21.68-5.2,40.16-2.11,52.06,0a156.63,156.63,0,0,1,49.62,17.9c12.06,6.82,30.18,17.34,43.93,38.23,7.15,10.88,16.24,24.69,11.39,38.23-4.33,12.08-18.76,21.24-26,17.9-5.37-2.47-2.52-9.78-7.32-19.52-6.59-13.37-24-19.4-58.57-30.91-15.8-5.26-15.63-4.31-25.22-8.13-21.34-8.52-21.86-13.11-39.86-20.34-21.83-8.76-40-9.6-39.86-13.83C886.64,1308.41,889.2,1307.34,890.65,1306.73Z" transform="translate(-341.05 -480.13)"/><path d="M2059.55,1820" transform="translate(-341.05 -480.13)"/><path class="cls-21" d="M826.39,1552.14c0,3.25,0,5.94.81,7.56,3,5.91,9.79,13.31,35.79,16.27,32.78,3.72,59.37-3.3,69.14-5.69,14.8-3.62,71.41-12,128.52,0,28.35,5.94,51.8,11.42,90.29,10.57,10-.22,22.47-1.28,35-8.95,17.74-10.88,22-22.45,22.78-30.59" transform="translate(-341.05 -480.13)"/><path class="cls-22" d="M1898.71,1003.72H1042.65a22.65,22.65,0,0,0-21.87,28.56l108.56,402a20.61,20.61,0,0,0,19.9,15.24h656.08a20.61,20.61,0,0,0,20.06-15.85l95.37-402A22.65,22.65,0,0,0,1898.71,1003.72Z" transform="translate(-341.05 -480.13)"/><line class="cls-23" x1="696.82" y1="537.01" x2="1559.87" y2="537.83"/><ellipse class="cls-24" cx="1124.1" cy="762.66" rx="47.77" ry="40.19"/><ellipse class="cls-25" cx="1124.1" cy="762.66" rx="43.33" ry="36.45"/><path class="cls-24" d="M1444.7,1217.53c1.65-5.32,11.52-8.09,16.38-4.42,6.91,5.22,3.12,26.45,3.12,26.45S1442.35,1225.11,1444.7,1217.53Z" transform="translate(-341.05 -480.13)"/><path class="cls-24" d="M1472.93,1212.71c5.58-2.85,15,.94,15.42,6.42.64,7.8-20.69,21.51-20.69,21.51S1465,1216.77,1472.93,1212.71Z" transform="translate(-341.05 -480.13)"/><path class="cls-24" d="M1498.46,1226.2c6.18,1.78,8.72,10.28,4,14.07-6.71,5.41-32.89.4-32.89.4S1489.65,1223.66,1498.46,1226.2Z" transform="translate(-341.05 -480.13)"/><path class="cls-24" d="M1501.93,1250.24c3,4.9-2.24,12.49-8.77,12.45-9.29,0-23.94-19-23.94-19S1497.71,1243.25,1501.93,1250.24Z" transform="translate(-341.05 -480.13)"/><path class="cls-24" d="M1483.85,1269.56c-2.28,5.15-12.44,7.06-16.83,3-6.24-5.79.09-26.58.09-26.58S1487.11,1262.22,1483.85,1269.56Z" transform="translate(-341.05 -480.13)"/><path class="cls-24" d="M1458.16,1273.56c-5.56,2.88-15-.85-15.47-6.33-.71-7.79,20.5-21.64,20.5-21.64S1466.09,1269.45,1458.16,1273.56Z" transform="translate(-341.05 -480.13)"/><path class="cls-24" d="M1432.51,1259.15c-6.19-1.75-8.81-10.22-4.13-14,6.66-5.45,32.88-.6,32.88-.6S1441.33,1261.64,1432.51,1259.15Z" transform="translate(-341.05 -480.13)"/><path class="cls-24" d="M1429.43,1235.52c-2.87-4.61,1.95-11.85,8.14-11.88,8.8,0,22.94,17.74,22.94,17.74S1433.52,1242.09,1429.43,1235.52Z" transform="translate(-341.05 -480.13)"/><polygon class="cls-26" points="1559.87 551.65 702.52 551.65 815.41 954.3 1460.71 954.3 1559.87 551.65"/><rect class="cls-22" x="792.4" y="969.35" width="688.16" height="76.46" rx="20" ry="20"/><rect class="cls-27" x="987.62" y="969.35" width="266.81" height="76.46"/><rect class="cls-7" x="1273.95" y="975.05" width="10.57" height="63.45"/><rect class="cls-7" x="1284.53" y="975.05" width="10.57" height="63.45"/><rect class="cls-7" x="1295.1" y="975.05" width="10.57" height="63.45"/><rect class="cls-7" x="1305.68" y="975.05" width="10.57" height="63.45"/><rect class="cls-7" x="1316.25" y="975.05" width="10.57" height="63.45"/><rect class="cls-7" x="1326.83" y="975.05" width="10.57" height="63.45"/><rect class="cls-7" x="1337.4" y="975.05" width="10.57" height="63.45"/><rect class="cls-7" x="1347.97" y="975.05" width="10.57" height="63.45"/><rect class="cls-7" x="1358.55" y="975.05" width="10.57" height="63.45"/><rect class="cls-7" x="1369.12" y="975.05" width="10.57" height="63.45"/><rect class="cls-7" x="1379.7" y="975.05" width="10.57" height="63.45"/><rect class="cls-7" x="1390.27" y="975.05" width="10.57" height="63.45"/><rect class="cls-7" x="1400.85" y="975.05" width="10.57" height="63.45"/><rect class="cls-7" x="1411.42" y="975.05" width="10.57" height="63.45"/><rect class="cls-7" x="1422" y="975.05" width="10.57" height="63.45"/><rect class="cls-7" x="1432.57" y="975.05" width="10.57" height="63.45"/><rect class="cls-7" x="1443.15" y="975.05" width="10.57" height="63.45"/><rect class="cls-7" x="1453.72" y="975.05" width="10.57" height="63.45"/><ellipse class="cls-14" cx="870.08" cy="1019.38" rx="23.18" ry="12.61"/><path class="cls-23" d="M1143.62,1512.52c-.58-8.64-1.95-46.94-.81-49.62a9,9,0,0,1,5.69-4.88c1.67-.49,10.41.21,13.83,0" transform="translate(-341.05 -480.13)"/><path class="cls-7" d="M848.76,1521.88c-1.44,4.75-3.27,11.41-4.88,19.52-2.05,10.33-1.7,12.69-.81,14.64,1.4,3.07,5.06,7.2,19.52,9.76a101,101,0,0,0,35,0c7.18-1.33,25.12-2,61-3.25,21.25-.76,37.22.85,69.14,4.07,15.78,1.59,49.28,5.37,91.1,8.95,17.5,1.5,30.18,2.41,43.11-4.88,10.16-5.73,15.7-13.83,26-29.28a255.36,255.36,0,0,0,22.78-42.3" transform="translate(-341.05 -480.13)"/><rect class="cls-26" x="811.52" y="1019.38" width="652.37" height="18.71" rx="9.35" ry="9.35"/><path class="cls-14" d="M1233.91,508.75c-1.31-3.34-9.55-3.85-26-4.88-11.33-.71-15.45.09-23.59-2.44-5.16-1.6-10-3.1-14.64-7.32-5.16-4.67-6.52-9.39-8.95-8.95-2.87.53-3.79,7.63-4.07,9.76-.35,2.66-.75,5.79.81,8.95,1.47,3,3.61,3.8,3.25,4.88-.5,1.52-5.37,1.87-9.76.81-9.85-2.36-14.19-11-16.27-9.76-1.51.89-.07,5.9.81,8.95,1,3.59,2,6.88,4.88,8.95s5.54,1.43,5.69,2.44c.21,1.37-4.55,3.82-9.76,4.88-9.9,2-16.88-1.94-17.9,0s5.11,6.86,5.69,7.32a38.15,38.15,0,0,0,15.46,7.32c33.67,7.44,55.31,0,55.31,0C1216.54,532.21,1236.47,515.25,1233.91,508.75Z" transform="translate(-341.05 -480.13)"/><path class="cls-14" d="M1149.32,702.35c-5.47-1-7.68,3.17-15.46,1.63-1.47-.29-7.64-1.51-11.39-6.51s-2.68-10.47-4.07-10.57-3.46,5.84-4.07,11.39a34.81,34.81,0,0,0,2.44,17.08c1.41,3.31,3.44,8,8.13,11.39,7.17,5.11,15.32,3.27,15.46,4.88.11,1.33-5.39,3.54-11.39,4.07-8.82.78-14.45-2.44-15.46-.81-1.14,1.84,4.54,7.12,6.51,8.95a47.12,47.12,0,0,0,13.83,8.95c5.06,2.12,8.74,3.66,13.83,3.25,1.57-.13,8.22-.66,13-5.69,5.07-5.32,5-12.38,4.88-17.08C1165.39,721,1159.36,704.26,1149.32,702.35Z" transform="translate(-341.05 -480.13)"/><path class="cls-14" d="M1786.23,714.55a62.92,62.92,0,0,1,13-12.2,43.14,43.14,0,0,1,12.2-6.51c5.82-1.89,10.28-1.79,17.9-1.63,3.34.07,4.79.3,4.88.81.2,1.14-6.67,1.67-12.2,6.51-3.64,3.19-5.15,6.88-7.32,12.2-3.16,7.74-2,10.19-5.69,16.27-2,3.33-3.81,4.9-3.25,5.69.88,1.25,6.82-.54,11.39-4.07,6.48-5,7.93-11.73,8.95-11.39s.21,7.42-2.44,14.64c-2.07,5.64-4.34,11.84-10.57,17.08-6.72,5.64-13.95,6.73-17.9,7.32-5.39.81-9.62,1.44-13.83-.81-7.39-4-8.7-13.6-8.95-15.46C1770.29,727.4,1784.89,715.6,1786.23,714.55Z" transform="translate(-341.05 -480.13)"/><path class="cls-14" d="M1715.47,508.75c.4-1.43,7-2.85,20.34-5.69,10.94-2.34,15.24-2.47,17.9-2.44,4.94.06,5.23.69,11.39.81,8.15.16,12.23.25,16.27-1.63,7.11-3.29,9.35-9.86,11.39-8.95,1.56.7,1.14,4.92.81,8.13-.28,2.83-.56,5.58-2.44,8.13-2,2.71-4.26,3.08-4.07,4.07.3,1.58,6.25,1.79,9.76,1.63,4.39-.2,8.87-.41,13-3.25,5.17-3.54,6-8.54,7.32-8.13s1.6,6.83-.81,12.2c-1.93,4.3-5.77,4.7-5.69,7.32.08,2.85,4.13,4.9,5.69,5.69,7.71,3.91,14.57,1.08,15.46,3.25.7,1.71-2.88,5.1-6.51,7.32-8.22,5-17.26,4.37-20.34,4.07C1780.54,538.91,1712.84,518.21,1715.47,508.75Z" transform="translate(-341.05 -480.13)"/><path class="cls-4" d="M1441,2036c-40,25-176,59-220,63-51.33,4.67-74.07,22.14-108,22s-81.4-.33-118-34c-41.84-38.5-42-95.37-42-108-.21-94.38,84.28-152.56,98-162,10.08-6.94,24.51-16.72,46-24,54.44-18.44,102.81-3.41,146,10" transform="translate(-341.05 -480.13)"/><path class="cls-7" d="M981,1929c-24.21,13.41-28.47,49.12-36,120-8.3,78.1-4.59,153.26,8,234,22.58,144.8,47.38,138.56,42,216-2.63,37.83-11.34,79.53,12,98,10,7.91,18.56,5.77,70,6,72,.33,80.78,4.64,94-4,23.72-15.51,26.68-49.91,28-100,3-115.09-6.14-176.89-8-254-2.94-121.61,16.15-122.17,0-168" transform="translate(-341.05 -480.13)"/><path class="cls-14" d="M1167,2513c4.67,4.44,5.55,9.32,8,28,8,60.8,12,91.21,10,114-3.08,35.37-4.62,53.06-14,66-20.68,28.54-58.71,32.93-120,40-29.4,3.39-47.25,2.2-80,0-39.17-2.62-46.86-7-52-12-24.27-23.39-7-73.35-6-76,5.85-16.25,15-28.79,44-56,42-39.41,63.94-60,102-80C1082.83,2524.47,1144.79,2491.88,1167,2513Z" transform="translate(-341.05 -480.13)"/><path class="cls-14" d="M1099,2708c-8.83-27.85-32.17-40.52-35-42-4.2-2.2-29.72-15.53-56-4-23.63,10.36-32,33.87-36,45a74.94,74.94,0,0,0-5,28c.13,5.95.72,32.75,20,48,11,8.71,23,9.47,47,11,19.08,1.21,28.62,1.82,37-2C1096.13,2780.55,1109.22,2740.23,1099,2708Z" transform="translate(-341.05 -480.13)"/><path class="cls-14" d="M1005,2687c-18.36-25.58-48.26-27.76-56-28-8.28-.26-28.44.52-47,15a72.3,72.3,0,0,0-25,38c-2.42,8.78-6.24,22.63,0,37,6.39,14.7,19.54,21.28,31,27,7.35,3.67,23.52,11.5,45,10,8.62-.6,42.28-3,58-31C1023.8,2732.17,1017.73,2704.74,1005,2687Z" transform="translate(-341.05 -480.13)"/><path class="cls-14" d="M1063,2695c3.7-13.23,6.88-24,17-32,18.18-14.36,44.44-8.4,55-6,7.47,1.7,19.59,4.58,32,14,2.59,2,30.61,24,30,60-.11,6.26-.4,24-13,39-13.91,16.55-33.89,19.08-49,21-18.75,2.38-47.82,6.07-66-12C1045.91,2756.05,1057.42,2714.94,1063,2695Z" transform="translate(-341.05 -480.13)"/><path class="cls-4" d="M1421,1753c-.37,1.27-.58,4.51-1,11-.39,5.94-.19,6.58,0,7,2.31,5.18,114.13,11.58,118,9,2-1.36,3-3.67,5-15,1.73-9.82,2.59-14.74,2-16-3.69-7.9-23.3-3.2-52-2C1457.95,1748.46,1423.57,1744.1,1421,1753Z" transform="translate(-341.05 -480.13)"/><path class="cls-28" d="M975,1915" transform="translate(-341.05 -480.13)"/><path class="cls-4" d="M988,1877c-11,13-33,43-47,67-11,18.78-9.34,45.39-12,71-5.43,52.38-9.61,92.58-5,162,2.59,39.05,6.69,68.23,12,106,4.77,33.95,10.1,65.44,18,125,0,0,3.42,25.77,6,66,1.94,30.29,1.48,40.68,0,51-4.48,31.23-14.62,36.28-13,48,7.38,53.31,232.6,59.41,262,25,7.58-8.87,12.34-51.76,11-57-.09-.37-.06-30.58,0-91,.1-99.64,8.86-141.95,6-249-.92-34.48-2.53-56.48-5-78-2.08-18.17-9.28-80.92-22-113" transform="translate(-341.05 -480.13)"/><path class="cls-14" d="M1778.61,2520c-4.67,4.44-5.55,9.32-8,28-8,60.8-12,91.21-10,114,3.08,35.37,4.62,53.06,14,66,20.68,28.54,58.71,32.93,120,40,29.4,3.39,47.25,2.2,80,0,39.17-2.62,46.86-7,52-12,24.27-23.39,7-73.35,6-76-5.85-16.25-15-28.79-44-56-42-39.41-63.94-60-102-80C1862.77,2531.47,1800.82,2498.88,1778.61,2520Z" transform="translate(-341.05 -480.13)"/><path class="cls-14" d="M1846.61,2715c8.83-27.85,32.17-40.52,35-42,4.2-2.2,29.72-15.53,56-4,23.63,10.36,32,33.87,36,45a74.94,74.94,0,0,1,5,28c-.13,5.95-.72,32.75-20,48-11,8.71-23,9.47-47,11-19.08,1.21-28.62,1.82-37-2C1849.48,2787.55,1836.39,2747.23,1846.61,2715Z" transform="translate(-341.05 -480.13)"/><path class="cls-14" d="M1940.61,2694c18.36-25.58,48.26-27.76,56-28,8.28-.26,28.44.52,47,15a72.3,72.3,0,0,1,25,38c2.42,8.78,6.24,22.63,0,37-6.39,14.7-19.54,21.28-31,27-7.35,3.67-23.52,11.5-45,10-8.62-.6-42.28-3-58-31C1921.81,2739.17,1927.87,2711.74,1940.61,2694Z" transform="translate(-341.05 -480.13)"/><path class="cls-14" d="M1882.61,2702c-3.7-13.23-6.88-24-17-32-18.18-14.36-44.44-8.4-55-6-7.47,1.7-19.59,4.58-32,14-2.59,2-30.61,24-30,60,.11,6.26.4,24,13,39,13.91,16.55,33.89,19.08,49,21,18.75,2.38,47.82,6.07,66-12C1899.7,2763.05,1888.19,2721.94,1882.61,2702Z" transform="translate(-341.05 -480.13)"/><path class="cls-4" d="M1516,2037c7.42,6.74,143,62,208,65,51.48,2.38,74.07,22.14,108,22s81.4-.33,118-34c41.84-38.5,42-95.37,42-108,.21-94.38-84.28-152.56-98-162-10.08-6.94-24.51-16.72-46-24-54.44-18.44-102.81-3.41-146,10" transform="translate(-341.05 -480.13)"/><path class="cls-4" d="M1957,1880c11,13,33,43,47,67,11,18.78,9.34,45.39,12,71,5.43,52.38,9.61,92.58,5,162-2.59,39.05-6.69,68.23-12,106-4.77,33.95-10.1,65.44-18,125,0,0-3.42,25.77-6,66-1.94,30.29-1.48,40.68,0,51,4.48,31.23,14.62,36.28,13,48-7.38,53.31-232.6,59.41-262,25-7.58-8.87-12.34-51.76-11-57,.09-.37.06-30.58,0-91-.1-99.64-8.86-141.95-6-249,.92-34.48,2.53-56.48,5-78,2.08-18.17,9.28-80.92,22-113" transform="translate(-341.05 -480.13)"/><path class="cls-7" d="M1246,1792a242.59,242.59,0,0,1,29,14c13.6,7.73,32,18.36,49,38a148.11,148.11,0,0,1,14,19" transform="translate(-341.05 -480.13)"/><path class="cls-7" d="M1217,1780a337.5,337.5,0,0,1,56,4c20.33,3.18,42.38,6.79,68,19a196,196,0,0,1,37,23" transform="translate(-341.05 -480.13)"/><path class="cls-7" d="M1576,1862a151.44,151.44,0,0,1,28-28c32-24.47,63.79-27.9,63-32-.72-3.74-27.52-2.9-51,2a174.54,174.54,0,0,0-56,22,168.18,168.18,0,0,0-17,12" transform="translate(-341.05 -480.13)"/><path class="cls-7" d="M1224,1990c22,39-7.11,106.2-3,109,3.11,2.12,38-29,35-92" transform="translate(-341.05 -480.13)"/><path class="cls-7" d="M1722.78,1991c-22,39,7.11,106.2,3,109-3.11,2.12-38-29-35-92" transform="translate(-341.05 -480.13)"/><path class="cls-29" d="M1094,1809c-.11-.66,8.47-3.21,20-5,14.67-2.27,37.08-3.75,82,6,29,6.3,43.55,9.46,62,18,16.14,7.47,37.3,17.27,56,38,23.65,26.21,28.74,53.68,38,52,4.66-.85,6.84-8.44,9-16,6.75-23.58-2.39-44.45-4-48-11.37-25-32.61-35.75-31-38,1.29-1.81,15.24,4.66,30,15,28.86,20.23,42.44,42.43,43,42s-15.19-36.28-53-59c-26.42-15.88-56.63-21.23-58-18-.68,1.61,6.15,4.58,19,15,10.4,8.43,21.59,17.5,31,32a97,97,0,0,1,14,36c.78,4.61,2.88,16.94,0,18-3.77,1.39-10.85-18.4-27-37-15.24-17.55-31.62-26-47-34-10.13-5.25-34.44-16.78-71-22C1145.59,1795.22,1094.27,1810.61,1094,1809Z" transform="translate(-341.05 -480.13)"/><path class="cls-29" d="M1370,1800c-.9,1.9,11.79,6.63,27,21,18.52,17.49,18.75,28.44,33,35,10.58,4.87,20.53,3.47,31,2,23.54-3.31,33.88-13.47,61-28,34.51-18.49,57.75-23.48,57-26s-24.36,4.15-68,10c-33.14,4.44-49.71,6.66-68,5C1401.08,1815.19,1371.43,1797,1370,1800Z" transform="translate(-341.05 -480.13)"/><path class="cls-29" d="M1531,1861c-.44-.76,8.9-7.89,28-19,25-14.52,48.35-25.21,49-24,.45.84-11.23,5.31-24,18-12.51,12.43-18.45,25.2-22,33-4.15,9.13-8.29,18.23-6,20,3.46,2.67,18.6-16.69,40-33,19.07-14.53,35.55-20.65,60-30,36.55-14,66.36-18.53,90-22,22-3.23,33.49-4.91,50-4,38.18,2.11,65,15.92,65,16s-22.68-10.35-56-13a207.07,207.07,0,0,0-31,0c-41.45,2.76-75.36,14.06-89,19-44.81,16.23-80.46,39.77-94,51-10.62,8.81-23.23,15.25-33,25-3.19,3.19-6.68,7-9,6-4-1.68-2.43-16.53,1-28,4.46-14.92,11.26-21.35,9-24C1555.13,1847.45,1531.68,1862.17,1531,1861Z" transform="translate(-341.05 -480.13)"/><path class="cls-29" d="M940,2251c-2.33.61,3.44,30.74,15,91,5.86,30.56,9.72,47.86,15,81,6.91,43.36,7.24,57.23,6,71-2.54,28.15-3.81,42.23-9,51-1.45,2.44-5.83,9.32-5,18,.16,1.7.89,7.31,6,14,7.94,10.39,19.94,14.86,39,20,22.93,6.18,45.64,10.52,46,9s-25.73-2.61-44-22c-11.16-11.85-14.9-25.8-17-34-5.37-21-2.33-37.89-1-48,2-15.49-.64-39.66-6-88C975.68,2330,944,2250,940,2251Z" transform="translate(-341.05 -480.13)"/><path class="cls-29" d="M2004,2221c.64.12-3.82,22.45-10,64-8.28,55.66-6.25,55.78-14,109-4.57,31.4-8.07,50.51-10,82-2.68,43.57,1.18,53,4,58,5,8.9,6.67,15.93,10,30a16.85,16.85,0,0,1,0,9c-1.54,5.08-5.63,8.41-10,11-17.67,10.5-57.68,19.68-58,18-.24-1.28,23.88-1.66,42-20,3.23-3.27,7.34-7.43,10-14,6.62-16.35-1.79-32.6-6-45s-2.78-31.87,0-71c2-27.64,5.47-52.76,19-122C1989.58,2286.08,2002.9,2220.79,2004,2221Z" transform="translate(-341.05 -480.13)"/><path class="cls-20" d="M1077,2732c.53-11,8.55-18,12-21,1.93-1.68,8.33-6.91,29-11,17.57-3.47,28.39-5.62,42-2,7.81,2.07,23.89,6.35,28,19,3.66,11.26-4.27,22.65-6,25-11.57,15.72-32.84,16.74-59,18-26.88,1.29-34.19-4.38-37-7C1084.85,2751.93,1076.43,2743.82,1077,2732Z" transform="translate(-341.05 -480.13)"/><path class="cls-20" d="M980,2731c-1.86,8.36,4.13,15.94,5,17,3.69,4.54,8.67,7.07,31,11,20.46,3.6,30.78,5.33,35,2,6.76-5.33,2.44-12.72,10-30,6.35-14.51,12.56-16.54,11-21-3.69-10.53-41.21-7.68-69,3C984.69,2720,981,2726.48,980,2731Z" transform="translate(-341.05 -480.13)"/><path class="cls-20" d="M897,2721c-2,4.72,1.11,10.69,4,14,4,4.58,8.2,4.64,23,8,19.59,4.45,23.13,6.82,27,4s2-6.32,7-17,9-11.93,8-15c-2.59-8.29-33.41-4.11-49-2C904.7,2714.67,898.87,2716.47,897,2721Z" transform="translate(-341.05 -480.13)"/><path class="cls-20" d="M1760,2723c.53-8.07,6.65-13.75,8-15,7.78-7.21,17.58-7.22,34-7,18,.25,27,.37,36,6,7.91,5,20.31,16.56,18,29-1.64,8.81-9.88,13.86-15,17-16.41,10.06-34.31,7-39,6C1782.59,2755,1758.91,2739.72,1760,2723Z" transform="translate(-341.05 -480.13)"/><path class="cls-20" d="M1870,2713c5.52-7.39,15.32-8.2,25-9,5-.42,29.41-2.44,47,15,3.55,3.52,15.21,15.08,12,24-2.64,7.34-16.8,9.33-45,13-20.53,2.67-24.21,1.49-27,0C1868.12,2748.57,1860.94,2725.11,1870,2713Z" transform="translate(-341.05 -480.13)"/><path class="cls-20" d="M1977,2701c2-5,10.38-5.75,24-7,15.2-1.39,26.42-2.42,36,5,1.2.93,11.61,9,10,17-2.27,11.31-27.84,19.41-47,12C1986.11,2722.62,1974,2708.46,1977,2701Z" transform="translate(-341.05 -480.13)"/></svg>